<?xml version="1.0" encoding="utf-8"?><svg xmlns="http://www.w3.org/2000/svg" xmlns:xlink="http://www.w3.org/1999/xlink"><symbol viewBox="0 0 24 24" id="a1" xmlns="http://www.w3.org/2000/svg"><path fill-rule="evenodd" clip-rule="evenodd" d="M9.355 5.132l-1.09.561L4 17.928l.85.529 3.126-.289.882-2.694 2.999-.24.593 2.068.866.273 2.277-.273-3.416-11.609-2.822-.56zm.956 3.848l-1.192 4.41 2.476-.132-1.284-4.278z"/><path d="M17.453 3.24c-.514 1.476-1.7 2.23-2.23 2.422v1.94l.738.112 1.09-.497c-.005 1.694-.012 5.115 0 5.243.014.129 1.406.171 2.101.177l.45-.337V3.465L19.151 3c-.802.096-.862.1-1.7.24z"/></symbol><symbol viewBox="0 0 46 43" id="arrow" xmlns="http://www.w3.org/2000/svg"><path fill-rule="evenodd" clip-rule="evenodd" d="M3.226 21.842l7.242 7.736-.707.755-8.45-9.025 8.45-9.024.707.755-7.242 7.735H44v1.068H3.225z"/></symbol><symbol viewBox="0 0 36 36" id="cart" xmlns="http://www.w3.org/2000/svg"><path fill-rule="evenodd" clip-rule="evenodd" d="M2.163 2.38a1.038 1.038 0 000 2.077h4.154a1.73 1.73 0 011.731 1.73v18.044c0 .573.465 1.038 1.039 1.038h17.186a3.808 3.808 0 003.196-1.738l.46-.71c1.043-1.612-.114-3.74-2.035-3.74H13.197a1.038 1.038 0 100 2.078h14.697c.275 0 .44.304.29.534l-.458.71a1.73 1.73 0 01-1.453.79H10.125V6.186A3.808 3.808 0 006.317 2.38H2.163zm8.914 24.966a3.115 3.115 0 100 6.23 3.115 3.115 0 000-6.23zm15.23 0a3.115 3.115 0 100 6.23 3.115 3.115 0 000-6.23zM10.04 30.462a1.038 1.038 0 112.076 0 1.038 1.038 0 01-2.076 0zm15.23 0a1.039 1.039 0 112.077 0 1.039 1.039 0 01-2.077 0z"/><path fill-rule="evenodd" clip-rule="evenodd" d="M20.5 0a7.5 7.5 0 000 15h6a7.5 7.5 0 000-15h-6z"/></symbol><symbol viewBox="0 0 32 32" id="close" xmlns="http://www.w3.org/2000/svg"><path fill-rule="evenodd" clip-rule="evenodd" d="M24.481 26.047a.8.8 0 101.131-1.131l-8.48-8.481 8.48-8.48a.8.8 0 00-1.13-1.132L16 15.304l-8.48-8.48a.8.8 0 00-1.131 1.13l8.48 8.481-8.48 8.48a.8.8 0 001.13 1.132L16 17.566l8.481 8.48z"/><path fill-rule="evenodd" clip-rule="evenodd" d="M7.302 7.04a.492.492 0 10-.696.697l8.699 8.698-8.699 8.699a.492.492 0 10.696.695L16 17.131l8.699 8.698a.492.492 0 10.696-.695l-8.699-8.699 8.698-8.698a.492.492 0 10-.695-.696L16 15.739 7.302 7.041zm-1.13-.434a1.107 1.107 0 011.565 0L16 14.869l8.264-8.263a1.107 1.107 0 111.566 1.566l-8.264 8.263 8.264 8.263a1.107 1.107 0 01-1.566 1.566L16 18.001l-8.263 8.263a1.107 1.107 0 01-1.566-1.566l8.264-8.263L6.17 8.172a1.107 1.107 0 010-1.566z"/></symbol><symbol viewBox="0 0 26 26" id="double-arrow" xmlns="http://www.w3.org/2000/svg"><path d="M.046 24.418l2.084 2.084 10.837-10.836 10.836 10.836 2.084-2.084-12.92-12.92z"/><path d="M.046 13.418l2.084 2.084L12.967 4.666l10.836 10.836 2.084-2.084L12.967.498z"/></symbol><symbol viewBox="0 0 32 32" id="heart" xmlns="http://www.w3.org/2000/svg"><path fill-rule="evenodd" clip-rule="evenodd" d="M10 3.385c-4.276 0-7.64 3.364-7.64 7.64 0 2.615 1.118 5.002 3.102 7.482 1.98 2.475 4.846 5.072 8.385 8.107l.013.013.283.257a2.77 2.77 0 003.72.007l.278-.25.069-.064c3.405-3.094 6.256-5.685 8.252-8.132 2.004-2.456 3.18-4.805 3.18-7.42 0-4.276-3.365-7.64-7.642-7.64a8.216 8.216 0 00-4.29 1.233A8.335 8.335 0 0016 6.016a8.335 8.335 0 00-1.71-1.398A8.216 8.216 0 0010 3.385zm-5.794 7.64c0-3.256 2.537-5.794 5.794-5.794a6.37 6.37 0 013.322.959 6.365 6.365 0 011.507 1.286L16 8.852l1.172-1.376a6.365 6.365 0 011.507-1.286A6.37 6.37 0 0122 5.23c3.257 0 5.795 2.539 5.795 5.796 0 2.01-.887 3.953-2.763 6.252-1.893 2.32-4.63 4.813-8.08 7.948l-.05.045-.277.25a.923.923 0 01-1.24-.002l-.283-.258-.03-.028-.02-.017c-3.55-3.045-6.29-5.54-8.148-7.862-1.842-2.302-2.698-4.29-2.698-6.328z"/></symbol><symbol viewBox="0 0 32 32" id="heart-active" xmlns="http://www.w3.org/2000/svg"><path fill-rule="evenodd" clip-rule="evenodd" d="M10 3.385c-4.276 0-7.64 3.364-7.64 7.64 0 2.615 1.118 5.002 3.102 7.482 1.98 2.475 4.846 5.072 8.385 8.107l.013.013.283.257a2.77 2.77 0 003.72.007l.278-.25.069-.064c3.405-3.094 6.256-5.685 8.252-8.132 2.004-2.456 3.18-4.805 3.18-7.42 0-4.276-3.365-7.64-7.642-7.64a8.216 8.216 0 00-4.29 1.233A8.335 8.335 0 0016 6.016a8.335 8.335 0 00-1.71-1.398A8.216 8.216 0 0010 3.385zm-5.794 7.64c0-3.256 2.537-5.794 5.794-5.794a6.37 6.37 0 013.322.959 6.365 6.365 0 011.507 1.286L16 8.852l1.172-1.376a6.365 6.365 0 011.507-1.286A6.37 6.37 0 0122 5.23c3.257 0 5.795 2.539 5.795 5.796 0 2.01-.887 3.953-2.763 6.252-1.893 2.32-4.63 4.813-8.08 7.948l-.05.045-.277.25a.923.923 0 01-1.24-.002l-.283-.258-.03-.028-.02-.017c-3.55-3.045-6.29-5.54-8.148-7.862-1.842-2.302-2.698-4.29-2.698-6.328z"/><path d="M2.36 11.026c0-4.277 3.364-7.641 7.64-7.641 1.532 0 3.022.452 4.29 1.233A8.335 8.335 0 0116 6.016a8.335 8.335 0 011.71-1.398A8.216 8.216 0 0122 3.385c4.277 0 7.641 3.364 7.641 7.64 0 2.615-1.175 4.964-3.179 7.42-1.996 2.447-4.847 5.038-8.252 8.132l-.07.063-.277.25a2.77 2.77 0 01-3.72-.006l-.283-.257-.013-.012c-3.54-3.036-6.405-5.633-8.385-8.108-1.984-2.48-3.103-4.867-3.103-7.481z"/></symbol><symbol viewBox="0 0 32 32" id="humburger" xmlns="http://www.w3.org/2000/svg"><rect x="6" y="7" width="20" height="2" rx="1"/><rect x="6" y="15" width="17" height="2" rx="1"/><rect x="6" y="24" width="14" height="2" rx="1"/></symbol><symbol viewBox="0 0 24 24" id="letter" xmlns="http://www.w3.org/2000/svg"><path fill-rule="evenodd" clip-rule="evenodd" d="M19.242 6.03A1.002 1.002 0 0019 6H5c-.08 0-.159.01-.234.027l6.532 6.532a1 1 0 001.415 0l6.53-6.53zM4 8.09V17a1 1 0 001 1h14a1 1 0 001-1V8.1l-5.873 5.873a3 3 0 01-4.243 0L4 8.09z"/></symbol><symbol viewBox="0 0 24 24" id="login" xmlns="http://www.w3.org/2000/svg"><path fill-rule="evenodd" clip-rule="evenodd" d="M4 7a3 3 0 013-3h6a1 1 0 110 2H7a1 1 0 00-1 1v10a1 1 0 001 1h6a1 1 0 110 2H7a3 3 0 01-3-3V7z"/><path fill-rule="evenodd" clip-rule="evenodd" d="M14.804 7.805a1 1 0 011.414 0L20.414 12l-4.196 4.195a1 1 0 01-1.414-1.414L16.585 13H10a1 1 0 010-2h6.585l-1.781-1.781a1 1 0 010-1.414z"/></symbol><symbol viewBox="0 0 20 20" id="minus" xmlns="http://www.w3.org/2000/svg"><path d="M16 9.857a.857.857 0 01-.857.857H4.857a.857.857 0 010-1.714h10.286c.473 0 .857.384.857.857z"/></symbol><symbol viewBox="0 0 24 24" id="mts" xmlns="http://www.w3.org/2000/svg"><path fill-rule="evenodd" clip-rule="evenodd" d="M6 13.073C6 9.444 9 4 12 4s6 5.444 6 9.073C18 16.346 15.314 19 12 19s-6-2.654-6-5.927z"/></symbol><symbol viewBox="0 0 24 24" id="phone" xmlns="http://www.w3.org/2000/svg"><path d="M13.367 14.128l-.01.009-.012.008-.815.675a2.356 2.356 0 01-.475-.374c-.369-.357-.792-.887-1.179-1.472s-.723-1.2-.928-1.721a3.107 3.107 0 01-.191-.654.91.91 0 01-.012-.182l.842-.701c.355-.262.493-.687.455-1.072-.003-.164-.008-.32-.012-.469-.017-.662-.03-1.197.038-1.922.053-.555-.255-1.204-.92-1.328l-2.172-.407c-.654-.122-1.216.36-1.313.971-1.04 6.557 3.008 12.847 9.134 13.993.655.122 1.217-.36 1.314-.971l.374-2.357c.093-.59-.258-1.21-.872-1.35a59.32 59.32 0 01-2.08-.771 1.1 1.1 0 00-1.165.095zm-.765.723h.002-.002z"/></symbol><symbol viewBox="0 0 20 20" id="plus" xmlns="http://www.w3.org/2000/svg"><path d="M16 10a.857.857 0 01-.857.857h-4.286v4.286a.857.857 0 01-1.714 0v-4.286H4.857a.857.857 0 010-1.714h4.286V4.857a.857.857 0 011.714 0v4.286h4.286c.473 0 .857.384.857.857z"/></symbol><symbol viewBox="0 0 32 32" id="search" xmlns="http://www.w3.org/2000/svg"><path fill-rule="evenodd" clip-rule="evenodd" d="M12.923 2.154c-5.948 0-10.77 4.821-10.77 10.769s4.822 10.77 10.77 10.77c2.677 0 5.126-.978 7.01-2.594l6.94 6.94a.923.923 0 001.304-1.306l-6.95-6.951a10.727 10.727 0 002.465-6.859c0-5.948-4.821-10.77-10.769-10.77zM4 12.923a8.923 8.923 0 1117.846 0 8.923 8.923 0 01-17.846 0z"/></symbol></svg>