<?xml version="1.0" encoding="utf-8"?><svg xmlns="http://www.w3.org/2000/svg" xmlns:xlink="http://www.w3.org/1999/xlink"><symbol fill="none" viewBox="0 0 40 40" id="amplifier" xmlns="http://www.w3.org/2000/svg"><path fill="#095AB3" d="M14.684 35.786c3.345 3.396-.839 4.122-.839 4.122-1.36.462-1.605-.97-1.605-.97l-2.858-8.454c-.607-2.182-1.961-1.779-1.961-1.779-3.44 1.164-4.695-2.783-4.695-2.783l-1.583-4.675c-1.15-3.4 2.311-4.738 2.311-4.738l4.444-1.505c1.435-.485 1.652.871 1.652.871l3.581 10.82c.306.903-.306 2.876-.306 2.876 0 2.804 2.831 4.174 1.859 6.215zM31.294 17.1c.989-1.058 1.395-2.607.897-4.075-.498-1.474-1.759-2.454-3.19-2.693L25.662.465c-.436-1.29-1.042.513-1.042.513-2.453 9.776-13.339 12.739-13.339 12.739-1.26.43-.698 1.436-.698 1.436l3.153 9.316c.363 1.075 1.49.695 1.49.695 11.927-4.038 18.54 2.128 18.54 2.128s1.334.853.857-.344l-3.33-9.849zm4.24-11.87l-.601-.435-3.372 4.633.6.436 3.373-4.634zm-1.989 11.71l5.015 2.77.36-.653-5.015-2.767-.36.65zm.042-3.798l5.504-1.59-.208-.716-5.504 1.59.208.716z"/></symbol><symbol fill="none" viewBox="0 0 40 40" id="books-stack-of-three" xmlns="http://www.w3.org/2000/svg"><g clip-path="url(#ba)"><path fill="#095AB3" d="M37.146 13.82c-.161-1.215-.184-3.31.945-4.013.02-.013.035-.031.053-.047.924-.296 1.563-.71 1.06-1.268l-13.62-4.104L3.529 7.454s-2.526.361-2.3 4.285c.122 2.136.792 3.185 1.378 3.7l-1.81.546c-.502.558.137.973 1.06 1.267.018.017.032.035.053.048 1.129.704 1.107 2.798.945 4.014-4.055 1.152-2.6 1.527-2.6 1.527l.89.215c-.626.565-1.247 1.637-1.13 3.67.225 3.924 2.3 4.195 2.3 4.195l14.432 4.69 21.785-5.276s1.456-.376-2.6-1.527c-.163-1.214-.186-3.308.946-4.014.02-.012.035-.031.052-.047.924-.295 1.562-.71 1.06-1.267l-.946-.286c.631-.38 1.58-1.376 1.728-3.961.103-1.779-.361-2.82-.898-3.433l1.872-.453s1.456-.375-2.6-1.527zm-18.221-.05l3.663-.753 12.38-2.544 1.845-.38c-.59 1.08-.565 2.556-.467 3.505.021.214.046.41.07.56l-2.02.501-15.625 3.887.154-4.776zM3.189 17.588l1.844.38 11.89 2.444 1.038.212 3.115.64.153 4.777-16.06-3.996-1.583-.393a11.5 11.5 0 0 0 .07-.56c.097-.949.122-2.425-.467-3.504zm-.717-6.038c-.022-1.043.164-1.798.54-2.182a.98.98 0 0 1 .715-.296c.102 0 .176.014.18.014l9.504 3.098 4.741 1.546-.155 4.81-13.301-3.73-.702-.196a.424.424 0 0 0-.088-.013c-.055-.004-1.37-.125-1.434-3.05zm14.31 21.978L2.779 29.602a.417.417 0 0 0-.087-.013c-.056-.004-1.372-.125-1.435-3.05-.023-1.045.164-1.799.54-2.183a.982.982 0 0 1 .715-.296c.102 0 .176.014.18.014 0 0 .002 0 0 0l14.244 4.645-.154 4.81zm18.348-4.943c.022.216.047.411.07.56l-17.644 4.39.154-4.776 3.772-.776.557.135 2.088-.679 9.626-1.977 1.845-.38c-.59 1.078-.566 2.555-.468 3.503zm.972-6.49a.34.34 0 0 0-.094.014l-1.331.372-12.672 3.553-.154-4.809 4.157-1.356 10.066-3.283c.002 0 .53-.118.918.276.375.384.561 1.139.54 2.183-.066 2.924-1.382 3.046-1.43 3.05z"/></g><defs><clipPath id="ba"><path fill="#fff" d="M0 0h40v40H0z"/></clipPath></defs></symbol><symbol fill="none" viewBox="0 0 40 40" id="brain" xmlns="http://www.w3.org/2000/svg"><g fill="#095AB3" clip-path="url(#ca)"><path d="M15.24 20.512h19.464c.101.53.357 1.017.735 1.4a2.673 2.673 0 1 0-.735-2.4H15.24v1zm13.247-9.576a2.738 2.738 0 0 0-.734 1.405H23.46a2.713 2.713 0 0 0-2.714 2.71 1.712 1.712 0 0 1-1.714 1.709H15.24v1h3.793a2.713 2.713 0 0 0 2.714-2.71 1.712 1.712 0 0 1 1.714-1.709h4.292a2.678 2.678 0 1 0 .734-2.405zm-7.74 14.12a2.713 2.713 0 0 0 2.714 2.71h4.292a2.677 2.677 0 1 0 .734-2.397 2.715 2.715 0 0 0-.734 1.396H23.46a1.712 1.712 0 0 1-1.714-1.709 2.714 2.714 0 0 0-2.714-2.71H15.24v1h3.793a1.712 1.712 0 0 1 1.714 1.71zm-5.507 1.209h.577a2.31 2.31 0 0 1 2.145 1.508l1.44 3.91a3.322 3.322 0 0 0 3.084 2.17h.68c.126.426.358.813.675 1.125a2.679 2.679 0 1 0 0-3.78 2.54 2.54 0 0 0-.77 1.654h-.585a2.311 2.311 0 0 1-2.146-1.508l-1.44-3.911a3.322 3.322 0 0 0-3.083-2.168h-.577v1zm3.66-13.646l1.44-3.88a2.289 2.289 0 0 1 2.146-1.484h.585a2.69 2.69 0 1 0 .095-1h-.68a3.297 3.297 0 0 0-3.084 2.14l-1.44 3.88a2.29 2.29 0 0 1-2.145 1.483h-.577v1h.577a3.296 3.296 0 0 0 3.084-2.14zM3.949 20.076a3.967 3.967 0 0 0 0 7.934.5.5 0 0 1 .006 1c-.241 0-.482-.018-.721-.053v1.005a2.845 2.845 0 0 0 5.69 0 .499.499 0 0 1 .998 0 3.84 3.84 0 0 1-1.116 2.708 2.861 2.861 0 0 0 4.6-2.261V7.403a2.298 2.298 0 1 0-4.31 1.113c.126.077.25.16.371.25a.5.5 0 1 1-.595.805 3.968 3.968 0 0 0-5.79 5.176.5.5 0 1 1-.867.501 5.138 5.138 0 0 1-.111-.204 2.696 2.696 0 0 0-.458 4.6c.71-.374 1.5-.569 2.303-.568a.5.5 0 0 1 0 1zm8.09.695a.5.5 0 0 1-.698.114 1.66 1.66 0 0 0-2.616 1.56.5.5 0 1 1-.992.13 2.658 2.658 0 0 1 1.547-2.768 1.66 1.66 0 0 0-.237-1.67.5.5 0 1 1 .78-.626c.464.58.665 1.327.553 2.061a2.67 2.67 0 0 1 1.55.501.5.5 0 0 1 .112.698zm-4.864-9.929a2.182 2.182 0 0 1 2.357.906l.027.042c.402.097.827-.025 1.117-.321a.5.5 0 0 1 .716.7 2.17 2.17 0 0 1-1.499.652 2.19 2.19 0 0 1-.267 1.188.5.5 0 0 1-.876-.483 1.18 1.18 0 0 0-1.326-1.715.5.5 0 1 1-.249-.969zM5.27 25.072a.5.5 0 0 1 .708 0c.327.326.578.722.734 1.158a2.12 2.12 0 0 0 2.182-.146.5.5 0 1 1 .574.82 3.1 3.1 0 0 1-2.577.459 3.126 3.126 0 0 1-.71 1.9.5.5 0 0 1-.773-.636 2.123 2.123 0 0 0-.138-2.848.5.5 0 0 1 0-.707zm-1.104-7.24a2.175 2.175 0 0 1-.411-.56c-.037.02-.073.042-.111.06a.5.5 0 0 1-.438-.899c.502-.247.762-.812.624-1.354a.5.5 0 1 1 .97-.25 2.183 2.183 0 0 1-.263 1.691c.049.227.163.434.328.596a.5.5 0 0 1-.7.715z"/></g><defs><clipPath id="ca"><path fill="#fff" d="M0 0h40v40H0z"/></clipPath></defs></symbol><symbol fill="none" viewBox="0 0 19 19" id="flags--Arabic" xmlns="http://www.w3.org/2000/svg"><path fill="#006233" d="M19 15.834V3.166H0v12.668h19z"/><path fill="#fff" fill-rule="evenodd" stroke="#fff" stroke-width=".005" d="M7.92 9.727c-.248.338-.07.558.186.574.168.011.517-.217.517-.484l-.096-.049c.054.137-.002.18-.116.275-.224.185-.682.198-.491-.316z" clip-rule="evenodd"/><path fill="#fff" fill-rule="evenodd" stroke="#fff" stroke-width=".012" d="M9.88 10.614c1.393.035 1.836-1.19.977-2.24l-.085.115c.055.49.135.971.143 1.473-.168.18-.413.113-.461-.087.002-.271-.095-.5-.218-.72l-.069.116c.08.18.167.382.185.604-.397.434-.836.521-.673-.049-.314.5.161.852.7.083.116.525.563.199.59.086.048-.344.023-.899-.075-1.337.388.611.401 1.052.195 1.347-.23.327-.728.48-1.208.609z" clip-rule="evenodd"/><path fill="#fff" fill-rule="evenodd" stroke="#fff" stroke-width=".012" d="M10.67 9.228c-.297.02-.45-.036-.289-.237.16-.196.309-.04.349.223.037.246-.524.56-.718.56-.293 0-.428-.344-.158-.652-.348.9.75.378.817.106zm-.206-.209c-.036-.002-.063.056-.045.068.053.033.136.013.144-.004.019-.036-.048-.062-.099-.064z" clip-rule="evenodd"/><path fill="#fff" fill-rule="evenodd" stroke="#fff" stroke-width=".012" d="M9.052 9.653c-.286.512 0 .724.367.665.214-.035.485-.174.642-.362.003-.416-.004-.827-.044-1.23.143-.155-.012-.155-.067-.321-.025.097-.085.202-.027.278.042.406.064.817.064 1.235-.289.212-.506.29-.66.288-.32-.002-.39-.248-.275-.553z" clip-rule="evenodd"/><path fill="#fff" fill-rule="evenodd" stroke="#fff" stroke-width=".012" d="M9.638 9.788c-.005-.387-.011-.825-.05-1.096.15-.15-.007-.154-.056-.322-.029.095-.092.2-.036.277.025.414.048.827.053 1.241.035-.02.074-.028.089-.1z" clip-rule="evenodd"/><path fill="#fff" fill-rule="evenodd" stroke="#fff" stroke-width=".005" d="M8.526 9.77c-.036-.042-.062-.089-.092-.13-.005-.058.038-.112.044-.141.049.068.078.12.117.154l-.07.117zm.12-.09c.072.026.16.026.24.028.314.005.644-.042.608.344-.03.343-.343.54-.622.538-.399-.003-.739-.403-.125-1.14.06-.008.137.007.201.012a.489.489 0 0 0 .351-.095c-.015-.243-.015-.472-.047-.691-.056-.078.007-.181.036-.277.049.168.204.172.056.323.036.243.04.49.04.639-.075.103-.133.212-.351.254-.223-.03-.323-.313-.555-.219.064-.255.653-.314.713-.112-.04.21-.59.126-.736.806-.045.21.198.402.447.386.244-.014.504-.168.53-.427.02-.217-.316-.191-.456-.189-.205.005-.334-.024-.411-.065l.081-.115zm.128-.353c.037-.032.164-.053.21-.003a.53.53 0 0 0-.096.07c-.048-.022-.08-.045-.114-.067z" clip-rule="evenodd"/><path fill="#fff" fill-rule="evenodd" stroke="#fff" stroke-width=".012" d="M9.086 8.608c.034.07.048.116.05.182-.02.09-.106.175-.194.178a.16.16 0 0 1-.158-.09c-.005-.01-.028-.032-.05-.022-.096.145-.168.206-.255.205-.174-.003-.122-.144-.283-.187-.066-.002-.176.06-.233.18-.213.552-.408-.001-.325-.258.012.246.077.392.144.387.049-.004.092-.107.154-.214.048-.083.162-.232.283-.232.111.003.041.188.263.186.107-.002.205-.077.305-.226.022-.004.027.032.032.044.015.051.113.192.245.063-.007-.027-.004-.074-.038-.083l.06-.113z" clip-rule="evenodd"/><path fill="#fff" fill-rule="evenodd" stroke="#fff" stroke-width=".005" d="M9.782 8.15a.215.215 0 0 1-.252-.042c.085-.015.15-.043.17-.104-.038-.078-.13-.112-.257-.113-.171.004-.259.067-.27.153.08.003.151-.017.182.052a1.17 1.17 0 0 1-.485.084c-.294.014-.337-.107-.415-.213a.072.072 0 0 0-.045-.016c-.09 0-.157.288-.26.288-.102-.013-.079-.186-.108-.285-.025.155.031.734.347.106.01-.021.023-.015.032.002.085.176.258.237.444.245.156.008.354-.054.567-.163.057.056.102.12.22.133.139.006.287-.085.32-.198.017-.059.02-.173-.048-.175-.094-.003-.163.206-.141.394a.665.665 0 0 0 .012-.047l-.013-.1zM9.377 8c.062-.026.122-.038.17.02a.274.274 0 0 0-.08.034c-.027-.019-.063-.028-.09-.054zm.457.13c.015-.062.023-.111.079-.143.011.065.013.101-.08.143zm.372.096c-.018-.053-.036-.1-.042-.157-.014-.116.096-.182.196-.173.102.01.17.045.267.075.076.023.18.042.278.067.055.022 0 .082-.014.09-.247.087-.421.226-.578.232-.094.005-.177-.051-.252-.165a6.123 6.123 0 0 0-.038-.642c.037-.033.044-.057.062-.084.019.214.026.44.031.668.02.039.045.072.09.089zm.157.017c-.131.034-.115-.068-.127-.13-.015-.073-.005-.156.097-.135.133.032.254.075.371.12l-.34.145z" clip-rule="evenodd"/><path fill="#fff" fill-rule="evenodd" d="M10.234 8.35l.018.082h.015l-.006-.076" clip-rule="evenodd"/><path stroke="#fff" stroke-width=".005" d="M10.234 8.35l.018.082h.015l-.006-.076"/><path fill="#fff" fill-rule="evenodd" stroke="#fff" stroke-linecap="round" stroke-linejoin="round" stroke-width=".048" d="M8.132 9.195l.067-.062.078.06-.072.058-.073-.056zm.17-.02l.068-.063.077.06-.071.058-.074-.055zm-.472-.649l.068-.062.077.06-.071.058-.074-.056zm.03.184l.068-.062.077.06-.072.058-.073-.056zm1.228.309l.062-.046.057.056-.065.042-.054-.052zM8.269 7.84l.043-.041.051.039-.047.038-.047-.036zm.111-.013l.044-.042.05.04-.046.037-.048-.035zm2.346.466l-.042.033-.04-.038.043-.03.039.035z" clip-rule="evenodd"/><path fill="#fff" fill-rule="evenodd" stroke="#fff" stroke-width=".005" d="M8.748 9.447l-.004.068.12.01.096-.065-.212-.013z" clip-rule="evenodd"/><path fill="#fff" fill-rule="evenodd" stroke="#fff" stroke-width=".012" d="M9.766 8.164l.035-.007-.004.09-.022.007-.01-.09z" clip-rule="evenodd"/><path fill="#fff" d="M9.5 11.767c1.356 0 2.46-1.003 2.46-2.237 0-.679-.333-1.284-.857-1.694.314.337.505.78.505 1.262 0 1.071-.943 1.94-2.108 1.94-1.164 0-2.107-.869-2.107-1.94 0-.482.19-.925.505-1.262-.524.41-.856 1.015-.856 1.694 0 1.234 1.103 2.237 2.458 2.237z"/><path fill="#fff" stroke="#CECECE" stroke-width=".095" d="M9.168 13.012c-.543.246-1.22.18-1.794-.157-.024-.011-.037.005-.012.067.062.163.11.292-.074.533-.08.106.012.123.148.112.69-.062 1.368-.202 1.695-.32l.037-.235zm-.012.291a6.033 6.033 0 0 1-.998.241c-.167.023-.16.118.135.152.302.028.69-.168.924-.342l-.061-.05z"/><path fill="#fff" stroke="#CECECE" stroke-width=".095" d="M9.5 12.765c.074 0 .21-.028.345-.045.252-.039.068.314-.345.314v.118c.419 0 .856-.415.764-.6-.13-.27-.487-.04-.764-.04-.278 0-.635-.23-.764.04-.093.185.345.6.764.6v-.118c-.413 0-.598-.353-.345-.314.135.017.27.045.345.045z"/><path fill="#fff" stroke="#CECECE" stroke-width=".095" d="M9.833 13.012c.542.246 1.22.18 1.793-.157.024-.011.037.005.012.067-.062.163-.11.292.074.533.08.106-.012.123-.148.112-.69-.062-1.368-.202-1.695-.32l-.036-.235zm.013.291c.216.079.58.174.998.241.167.023.16.118-.135.152-.302.028-.69-.168-.925-.342l.062-.05z"/><path fill="#fff" stroke="#CECECE" stroke-width=".095" d="M9.519 13.247c.012.096.03.303.172.213.191-.117.235-.207.235-.375 0-.107-.142-.264-.426-.264-.283 0-.425.157-.425.264 0 .168.043.258.234.375.142.09.154-.117.173-.213.006-.033.037-.022.037 0z"/><path fill="#fff" stroke="#F4F4F4" stroke-width=".095" d="M9.322 6.064c-.08-.415-.751-.443-.856-.51-.123-.073-.105 0-.062.112.123.292.543.41.734.443.154.023.203.034.184-.045z"/><path fill="#fff" stroke="#F4F4F4" stroke-width=".095" d="M9.525 6.075c.068-.426-.598-.628-.678-.723-.092-.1-.105-.04-.061.079.08.252.37.55.542.628.142.067.185.095.197.016z"/><path fill="#fff" stroke="#F4F4F4" stroke-width=".095" d="M10.074 6.322c.062-.51-.48-.589-.622-.751-.093-.101-.099-.045-.068.073.061.258.333.56.499.656.13.073.185.1.191.022z"/><path fill="#fff" stroke="#F4F4F4" stroke-width=".095" d="M9.908 6.21c-.561-.33-.955-.146-1.116-.163-.154-.016-.203.073.062.208.327.163.783.14.961.078.185-.067.13-.1.093-.123zm.844.224c-.173-.55-.573-.46-.69-.527-.117-.067-.13-.05-.105.073.05.219.462.46.665.533.074.022.167.056.13-.079z"/><path fill="#fff" stroke="#F4F4F4" stroke-width=".095" d="M10.671 6.53c-.48-.354-.856-.09-1.004-.13-.111-.027-.062.04-.019.068.308.196.69.303.986.18.117-.045.123-.057.037-.118zm1.042.359c.006-.348-.782-.494-.949-.707-.098-.129-.185-.062-.135.146.074.269.616.566.912.622.178.034.172-.022.172-.061z"/><path fill="#fff" stroke="#F4F4F4" stroke-width=".095" d="M11.689 6.95c-.5-.41-.919-.275-1.073-.314-.154-.033-.215.05.025.219.296.202.752.241.943.202.19-.04.142-.079.105-.107zm.893.6c-.142-.594-.592-.718-.703-.83-.105-.112-.216-.078-.123.191.11.32.474.6.665.667.185.073.173.017.16-.028z"/><path fill="#fff" stroke="#F4F4F4" stroke-width=".095" d="M12.576 7.629c-.364-.533-.838-.516-.986-.589-.142-.079-.24-.011-.05.219.222.28.678.437.888.448.21.011.172-.039.148-.078z"/><path fill="#fff" stroke="#F4F4F4" stroke-width=".095" d="M13.044 8.262c.21-.605-.27-.83-.32-.93-.056-.101-.111-.101-.142.005-.136.432.302.852.37.937.068.078.08.039.092-.012z"/><path fill="#fff" stroke="#F4F4F4" stroke-width=".095" d="M12.945 8.43c-.166-.678-.604-.639-.702-.734-.105-.095-.117-.028-.099.095.05.331.487.555.684.668.062.033.136.073.117-.028zm.42.797c.302-.64-.056-1.071-.167-1.167-.11-.09-.178-.128-.141 0 .05.197-.123.701.141 1.072.087.123.1.24.167.095z"/><path fill="#fff" stroke="#F4F4F4" stroke-width=".095" d="M13.204 9.356c.068-.393-.178-.752-.443-.892-.154-.084-.16-.061-.16.056.012.365.388.668.499.836.104.157.098.04.104 0z"/><path fill="#fff" stroke="#F4F4F4" stroke-width=".095" d="M13.137 10.376c-.222-.74.24-1.166.382-1.25.136-.09.222-.123.16.017-.092.207.006.785-.345 1.15-.11.123-.154.252-.197.083z"/><path fill="#fff" stroke="#F4F4F4" stroke-width=".095" d="M13.186 10.214c.185-.645-.216-1.01-.34-1.082-.116-.073-.19-.101-.135.016.074.18-.006.684.302.998.099.107.136.213.173.068z"/><path fill="#fff" stroke="#F4F4F4" stroke-width=".095" d="M12.958 9.91a.947.947 0 0 0-.19 1.083c.092.163.104.152.19.034.235-.342.093-.836.105-1.054.006-.208-.068-.096-.105-.062z"/><path fill="#fff" stroke="#F4F4F4" stroke-width=".095" d="M13.507 10.427c0 .448-.303.813-.623.925-.185.062-.185.045-.16-.09.086-.504.511-.69.665-.852.148-.157.118-.028.118.017z"/><path fill="#fff" stroke="#F4F4F4" stroke-width=".095" d="M12.36 11.761c.542-.448.253-.762.277-1.054.013-.157-.055-.118-.117-.062-.345.309-.363.858-.29 1.072.031.095.08.084.13.044z"/><path fill="#fff" stroke="#F4F4F4" stroke-width=".095" d="M13.087 11.47c-.179.493-.653.796-1.054.813-.234.011-.228-.006-.148-.151.302-.528.838-.59 1.079-.724.221-.123.141.011.123.062z"/><path fill="#fff" stroke="#F4F4F4" stroke-width=".095" d="M11.614 12.395c.703-.32.56-.852.69-.987.093-.095-.018-.084-.074-.05-.412.218-.745.566-.752.936 0 .14.013.157.136.101z"/><path fill="#fff" stroke="#F4F4F4" stroke-width=".095" d="M10.653 12.99c.888.128 1.3-.483 1.56-.539.135-.028.036-.078-.031-.084-.592-.062-1.344.19-1.572.471-.092.112-.092.135.043.151z"/><path fill="#fff" stroke="#F4F4F4" stroke-width=".095" d="M11.553 12.03c-.179.533-.844.97-1.343 1.004-.235.017-.235-.005-.148-.146.4-.661 1.097-.773 1.343-.942.21-.145.167.034.148.085zM9.68 6.064c.08-.415.751-.443.856-.51.123-.073.105 0 .062.112-.124.292-.543.41-.734.443-.154.023-.203.034-.185-.045z"/><path fill="#fff" stroke="#F4F4F4" stroke-width=".095" d="M9.477 6.075c-.068-.426.597-.628.677-.723.093-.1.105-.04.062.079-.08.252-.37.55-.542.628-.142.067-.185.095-.197.016z"/><path fill="#fff" stroke="#F4F4F4" stroke-width=".095" d="M8.928 6.322c-.062-.51.48-.589.622-.751.093-.101.099-.045.068.073-.062.258-.333.56-.5.656-.129.073-.184.1-.19.022z"/><path fill="#fff" stroke="#F4F4F4" stroke-width=".095" d="M9.094 6.21c.561-.33.955-.146 1.116-.163.154-.016.203.073-.062.208-.327.163-.783.14-.961.078-.185-.067-.13-.1-.093-.123zm-.844.224c.173-.55.573-.46.69-.527.117-.067.13-.05.105.073-.05.219-.462.46-.665.533-.074.022-.167.056-.13-.079z"/><path fill="#fff" stroke="#F4F4F4" stroke-width=".095" d="M8.33 6.53c.48-.354.856-.09 1.004-.13.111-.027.062.04.019.068-.309.196-.69.303-.986.18-.117-.045-.124-.057-.037-.118zm-1.041.359c-.007-.348.782-.494.949-.707.098-.129.185-.062.135.146-.074.269-.616.566-.912.622-.179.034-.172-.022-.172-.061z"/><path fill="#fff" stroke="#F4F4F4" stroke-width=".095" d="M7.313 6.95c.499-.41.918-.275 1.072-.314.154-.033.216.05-.025.219-.295.202-.751.241-.942.202-.192-.04-.142-.079-.105-.107zm-.893.6c.141-.594.59-.718.702-.83.105-.112.215-.078.123.191-.11.32-.474.6-.666.667-.184.073-.172.017-.16-.028z"/><path fill="#fff" stroke="#F4F4F4" stroke-width=".095" d="M6.426 7.629c.363-.533.838-.516.986-.589.141-.079.24-.011.049.219-.222.28-.678.437-.888.448-.209.011-.172-.039-.147-.078z"/><path fill="#fff" stroke="#F4F4F4" stroke-width=".095" d="M5.957 8.262c-.21-.605.271-.83.32-.93.056-.101.111-.101.142.005.136.432-.302.852-.37.937-.067.078-.08.039-.092-.012z"/><path fill="#fff" stroke="#F4F4F4" stroke-width=".095" d="M6.056 8.43c.166-.678.604-.639.702-.734.105-.095.117-.028.099.095-.05.331-.487.555-.684.668-.062.033-.136.073-.117-.028zm-.419.797c-.302-.64.055-1.071.166-1.167.111-.09.18-.128.142 0-.05.197.123.701-.142 1.072-.086.123-.098.24-.166.095z"/><path fill="#fff" stroke="#F4F4F4" stroke-width=".095" d="M5.797 9.356c-.068-.393.179-.752.444-.892.154-.084.16-.061.16.056-.012.365-.388.668-.5.836-.104.157-.098.04-.104 0z"/><path fill="#fff" stroke="#F4F4F4" stroke-width=".095" d="M5.865 10.376c.222-.74-.24-1.166-.382-1.25-.136-.09-.222-.123-.16.017.092.207-.007.785.345 1.15.11.123.148.252.197.083z"/><path fill="#fff" stroke="#F4F4F4" stroke-width=".095" d="M5.816 10.214c-.185-.645.215-1.01.338-1.082.118-.073.192-.101.136.016-.074.18.006.684-.302.998-.099.107-.135.213-.172.068z"/><path fill="#fff" stroke="#F4F4F4" stroke-width=".095" d="M6.044 9.91a.947.947 0 0 1 .19 1.083c-.092.163-.104.152-.19.034-.234-.342-.093-.836-.105-1.054-.006-.208.068-.096.105-.062z"/><path fill="#fff" stroke="#F4F4F4" stroke-width=".095" d="M5.495 10.427c0 .448.302.813.622.925.185.062.185.045.16-.09-.086-.504-.511-.69-.665-.852-.148-.157-.117-.028-.117.017z"/><path fill="#fff" stroke="#F4F4F4" stroke-width=".095" d="M6.64 11.761c-.541-.448-.252-.762-.276-1.054-.013-.157.055-.118.117-.062.345.309.363.858.29 1.072-.031.095-.08.084-.13.044z"/><path fill="#fff" stroke="#F4F4F4" stroke-width=".095" d="M5.915 11.47c.178.493.653.796 1.053.813.234.011.228-.006.148-.151-.302-.528-.838-.59-1.078-.724-.222-.123-.142.011-.123.062z"/><path fill="#fff" stroke="#F4F4F4" stroke-width=".095" d="M7.387 12.395c-.703-.32-.56-.852-.69-.987-.093-.095.018-.084.074-.05.412.218.745.566.751.936 0 .14-.012.157-.135.101z"/><path fill="#fff" stroke="#F4F4F4" stroke-width=".095" d="M8.349 12.99c-.888.128-1.3-.483-1.56-.539-.135-.028-.037-.078.031-.084.592-.062 1.344.19 1.572.471.092.112.092.135-.043.151z"/><path fill="#fff" stroke="#F4F4F4" stroke-width=".095" d="M7.449 12.03c.178.533.844.97 1.343 1.004.234.017.234-.005.148-.146-.4-.661-1.097-.773-1.343-.942-.21-.145-.167.034-.148.085z"/><path fill="#006233" d="M10.541 6.58c-.117-.078-.548-.033-.628-.084.154.118.499.034.628.084zm1.042.202c-.093-.151-.641-.252-.721-.387.142.258.567.224.72.387zm-.08.174c-.203-.18-.678-.107-.82-.213.333.275.518.061.82.213zm-1.189-.796c.13.061.29.123.37.269-.093-.112-.26-.157-.395-.253.006 0 .019-.01.025-.016zm2.021 1.155c-.08-.168-.364-.354-.388-.415.08.218.314.269.388.415zm.073.297c-.246-.353-.634-.314-.788-.449.117.13.56.213.788.449zm.574.544c.018-.376-.29-.516-.302-.73-.006.253.314.595.302.73zm-.154.202c-.062-.326-.481-.348-.555-.539 0 .18.493.365.555.539zm.345-.185c.222.246.068.622.16.897-.11-.202-.055-.707-.16-.897zm-.363 1.054c.332.325.197.69.332.847-.166-.22-.141-.645-.332-.847zm.69.045c-.284.286-.111.717-.26.92.167-.175.143-.707.26-.92zm-.358 0c-.037-.331-.376-.505-.406-.684-.037.18.326.46.406.684zm-.172.79c.055.23-.149.724-.087.875-.135-.263.117-.762.086-.875zm.437.528c-.136.409-.407.38-.493.627.062-.235.42-.448.493-.628zm-.881.19c-.179.275-.03.589-.179.785.21-.196.099-.56.179-.785zm.431.751c-.215.365-.66.331-.838.595.179-.331.727-.387.838-.595zm-.783-.044c-.382.24-.265.493-.554.762.363-.269.332-.566.554-.762zm-.178.975c-.37-.01-.9.427-1.22.393.32.061.911-.331 1.22-.393zm-.598-.392c-.025.342-.986.56-1.09.79.116-.302.96-.527 1.09-.79zM9.222 5.761c-.123-.095-.27-.173-.314-.269.031.124.154.213.278.298.012-.006.024-.023.036-.029zm-.209.101c-.19-.084-.412-.078-.511-.196.062.118.271.163.45.224a.3.3 0 0 1 .061-.028zm-.554.718c.117-.078.548-.033.628-.084-.154.118-.5.034-.628.084zm-1.042.202c.092-.151.64-.252.721-.387-.142.258-.567.224-.721.387zm.081.174c.203-.18.677-.107.82-.213-.334.275-.518.061-.82.213zm.819-.527c.117-.225.45-.253.536-.387-.13.202-.413.235-.536.387zm.949-.197c.339-.145.671-.022.832-.09-.198.096-.666.051-.832.09zM6.665 7.315c.08-.168.364-.354.388-.415-.08.218-.314.269-.388.415zm-.074.297c.247-.353.635-.314.79-.449-.118.13-.562.213-.79.449zm-.573.544c-.019-.376.29-.516.302-.73.006.253-.314.595-.302.73zm.154.202c.062-.326.481-.348.555-.539 0 .18-.493.365-.555.539zm-.345-.185c-.222.246-.068.622-.16.897.11-.202.055-.707.16-.897zm.363 1.054c-.333.325-.197.69-.333.847.167-.22.142-.645.333-.847zm-.69.045c.284.286.111.717.26.92-.167-.175-.142-.707-.26-.92zm.357 0c.037-.331.376-.505.407-.684.037.18-.326.46-.407.684zm.173.79c-.055.23.149.724.087.875.136-.263-.117-.762-.086-.875zm-.438.528c.136.409.407.38.493.627-.061-.235-.419-.448-.493-.628zm.882.19c.178.275.03.589.178.785-.21-.196-.098-.56-.178-.785zm-.432.751c.216.365.66.331.839.595-.18-.331-.728-.387-.839-.595zm.784-.044c.382.24.265.493.554.762-.363-.269-.332-.566-.554-.762zm.178.975c.37-.01.9.427 1.22.393-.32.061-.911-.331-1.22-.393zm.598-.392c.025.342.986.56 1.09.79-.116-.302-.96-.527-1.09-.79zM9 6.244c.074-.303.444-.36.493-.539-.018.191-.456.404-.493.539zm1.092-.752c-.056.23-.456.36-.512.533.019-.235.431-.37.512-.533zm-.315.544c.191-.28.586-.207.721-.37-.098.19-.585.196-.72.37z"/><path stroke="#F7C608" stroke-linecap="round" stroke-linejoin="round" stroke-width=".096" d="M12.386 9.502c0 1.456-1.297 2.636-2.897 2.636-1.6 0-2.898-1.18-2.898-2.636 0-1.457 1.297-2.637 2.898-2.637 1.6 0 2.897 1.18 2.897 2.637z"/><path fill="#F7C608" d="M8.92 12.14l-.01.032c-.007.022-.03.033-.056.032-.059-.016-.137-.03-.208-.05l.066-.204c.077.02.155.036.21.044.024.007.036.028.03.05l-.01.026-.022.07zm-.476-.197l.01-.033a.043.043 0 0 1 .054-.026c.058.021.127.045.204.066l-.066.204a2.67 2.67 0 0 1-.205-.06c-.022-.012-.028-.054-.021-.076"/><path fill="#006233" d="M8.88 12.122l-.008.023c-.005.016-.024.023-.045.022-.049-.013-.114-.027-.173-.043l.047-.146c.064.017.13.03.175.039.02.005.03.02.026.036l-.007.02-.016.05zm-.4-.156l.008-.024c.005-.015.024-.023.043-.017.048.017.106.036.17.053l-.047.146a1.8 1.8 0 0 1-.17-.05c-.02-.008-.025-.04-.02-.055"/><path fill="#F7C608" d="M8.128 11.884l-.02.029c-.014.018-.04.024-.063.016-.052-.03-.123-.065-.185-.101l.127-.18c.067.04.138.075.188.097.02.012.026.036.013.055l-.017.023-.043.061zm-.396-.31l.02-.03a.044.044 0 0 1 .06-.01c.048.034.107.075.175.115l-.127.179a2.506 2.506 0 0 1-.178-.111c-.018-.017-.01-.059.003-.078"/><path fill="#006233" d="M8.094 11.857l-.014.02c-.01.014-.03.016-.05.01-.042-.026-.1-.055-.153-.085l.091-.129c.056.033.114.063.156.082.017.01.023.027.013.041l-.012.017-.03.044zm-.333-.252l.014-.02c.01-.014.03-.017.047-.007.04.029.09.062.146.095l-.09.129a2.587 2.587 0 0 1-.15-.092c-.014-.013-.01-.045 0-.058"/><path fill="#F7C608" d="M7.446 11.436l-.028.022c-.018.015-.044.013-.065 0-.04-.043-.098-.094-.146-.145l.177-.14c.052.056.11.107.15.142.017.016.015.04-.004.055l-.023.018-.06.048zm-.283-.4l.028-.022a.045.045 0 0 1 .06.004c.037.046.08.1.133.155l-.177.14a2.296 2.296 0 0 1-.137-.152c-.011-.02.01-.059.028-.074"/><path fill="#006233" d="M7.423 11.401l-.02.016c-.014.01-.034.008-.05-.004l-.121-.12.127-.1c.043.045.09.088.124.118.013.014.013.032 0 .043l-.017.013-.043.034zm-.242-.328l.02-.015c.013-.011.033-.008.047.006a2 2 0 0 0 .11.129l-.126.1a2.281 2.281 0 0 1-.114-.127c-.01-.016.003-.045.016-.056"/><path fill="#F7C608" d="M6.93 10.831l-.033.014c-.022.01-.047.001-.063-.017-.025-.051-.064-.115-.095-.176l.213-.089a1.8 1.8 0 0 0 .1.174c.011.02.002.043-.02.052l-.029.012-.072.03zm-.147-.456l.033-.014a.043.043 0 0 1 .057.02c.02.053.046.116.079.182l-.213.089a2.13 2.13 0 0 1-.084-.181c-.005-.023.027-.054.05-.064"/><path fill="#006233" d="M6.919 10.792l-.025.01c-.016.006-.034-.001-.046-.017-.022-.042-.053-.096-.079-.147l.152-.063c.028.055.06.109.083.145.008.017.003.035-.013.042l-.02.008-.052.022zm-.131-.377l.024-.01c.016-.006.034.001.043.018.017.044.039.097.066.152l-.152.063c-.025-.05-.051-.101-.07-.15-.005-.018.016-.043.033-.05"/><path fill="#F7C608" d="M6.624 10.119l-.037.005a.053.053 0 0 1-.055-.033c-.009-.055-.026-.127-.037-.193l.232-.03c.011.071.029.143.043.192.003.022-.012.041-.037.044l-.03.004-.08.01zm-.001-.476l.036-.005c.025-.003.046.011.05.033a1.5 1.5 0 0 0 .018.196l-.232.03a2.04 2.04 0 0 1-.024-.194c.002-.023.042-.046.067-.049"/><path fill="#006233" d="M6.624 10.078l-.026.003c-.018.003-.033-.01-.04-.027-.007-.047-.021-.106-.03-.161l.166-.022c.01.06.023.12.034.16.003.019-.008.034-.025.037l-.022.002-.057.008zm-.009-.395l.026-.003c.018-.003.033.01.036.028.003.047.008.103.017.163l-.166.022a2.024 2.024 0 0 1-.021-.163c.001-.019.03-.036.047-.039"/><path fill="#F7C608" d="M6.55 9.356l-.037-.004a.05.05 0 0 1-.042-.046c.008-.055.014-.128.024-.195l.232.03a1.7 1.7 0 0 0-.018.196c-.004.023-.025.037-.05.034l-.03-.004-.079-.01zm.147-.456l.036.004c.025.004.04.023.037.045-.015.055-.032.12-.043.193l-.232-.03c.01-.067.021-.134.037-.194.01-.022.055-.033.08-.03"/><path fill="#006233" d="M6.563 9.317l-.026-.003c-.018-.002-.028-.018-.03-.037.008-.046.013-.107.021-.162l.166.022c-.01.06-.014.12-.017.162-.003.019-.018.031-.035.029l-.022-.003-.057-.008zm.114-.38l.026.003c.018.002.028.018.025.036-.011.046-.024.1-.034.16l-.166-.021c.01-.055.018-.11.03-.161.007-.018.04-.028.058-.025"/><path fill="#F7C608" d="M6.715 8.607l-.033-.014c-.023-.01-.032-.032-.027-.055.025-.05.053-.12.084-.18l.213.088a1.741 1.741 0 0 0-.079.183c-.01.02-.034.029-.057.02l-.028-.012-.073-.03zm.282-.401l.034.014c.022.01.032.031.021.052a1.904 1.904 0 0 0-.1.174l-.213-.089c.03-.06.061-.122.095-.176.016-.018.063-.017.085-.008"/><path fill="#006233" d="M6.74 8.573l-.024-.01c-.016-.007-.022-.025-.017-.043.021-.043.045-.1.07-.15l.153.063a1.744 1.744 0 0 0-.067.152.034.034 0 0 1-.043.018l-.02-.009-.052-.021zm.227-.337l.024.01c.016.007.022.025.013.042a1.93 1.93 0 0 0-.082.145l-.153-.063c.026-.051.051-.102.079-.147.012-.016.047-.017.063-.01"/><path fill="#F7C608" d="M7.106 7.929l-.028-.022c-.019-.015-.02-.039-.01-.06.041-.042.089-.1.137-.152l.177.14c-.052.055-.1.114-.132.156a.045.045 0 0 1-.06.004l-.024-.019-.06-.047zm.394-.313l.028.022c.02.015.02.039.005.056a2.056 2.056 0 0 0-.15.14l-.178-.139c.049-.05.097-.101.146-.144.021-.014.066 0 .084.014"/><path fill="#006233" d="M7.14 7.902l-.02-.015c-.014-.011-.014-.03-.003-.046.033-.035.074-.084.114-.126l.126.1a1.873 1.873 0 0 0-.11.128c-.014.015-.034.017-.047.007l-.017-.013-.043-.035zm.322-.264l.02.016c.013.01.013.028 0 .043a2.02 2.02 0 0 0-.125.118l-.126-.1c.04-.042.08-.085.12-.12.017-.012.05-.005.064.006"/><path fill="#F7C608" d="M7.69 7.378l-.02-.028c-.013-.019-.007-.042.01-.059.052-.03.116-.074.178-.11l.127.178c-.068.04-.132.084-.175.116a.045.045 0 0 1-.06-.012l-.016-.023-.044-.062zm.476-.198l.02.028c.013.02.007.042-.013.055a2.112 2.112 0 0 0-.188.096l-.127-.179c.062-.036.124-.073.185-.101.024-.008.063.016.076.035"/><path fill="#006233" d="M7.732 7.362l-.015-.02c-.01-.014-.003-.031.011-.045.044-.025.097-.06.149-.091l.09.128c-.055.033-.11.069-.146.095-.017.01-.037.008-.046-.006l-.012-.017-.031-.044zm.39-.171l.015.02c.01.014.003.031-.014.041-.045.022-.1.05-.155.082l-.091-.128c.052-.03.103-.06.153-.085.02-.007.05.009.059.023"/><path fill="#F7C608" d="M8.421 7l-.01-.032c-.007-.021.005-.042.027-.054.06-.016.135-.042.206-.06l.066.204c-.077.02-.152.046-.204.066-.023.006-.046-.005-.053-.027l-.01-.027L8.422 7zm.518-.068l.01.032c.007.022-.005.043-.029.05a2.33 2.33 0 0 0-.21.044l-.066-.205a2.5 2.5 0 0 1 .208-.05c.026 0 .056.032.062.054"/><path fill="#006233" d="M8.466 6.996l-.007-.023c-.005-.016.006-.031.025-.04.049-.013.111-.034.17-.05l.048.146a2.156 2.156 0 0 0-.17.054c-.02.005-.038-.002-.043-.018l-.006-.02-.017-.05zm.428-.065l.008.023c.005.016-.006.031-.026.037-.05.009-.11.021-.174.038l-.048-.146c.06-.016.118-.032.174-.043.02-.001.044.022.05.038"/><path fill="#F7C608" d="M9.24 6.826v-.034c0-.022.018-.039.043-.045.062 0 .142-.005.216-.005v.213c-.08 0-.16.005-.216.01-.024 0-.043-.016-.043-.038v-.101zm.518.067v.033c0 .023-.019.04-.043.04a2.362 2.362 0 0 0-.216-.011v-.213c.074 0 .148 0 .216.005.024.006.043.045.043.067"/><path fill="#006233" d="M9.284 6.833v-.025c0-.016.016-.028.036-.032.051 0 .118-.004.18-.004v.153a2.18 2.18 0 0 0-.18.008c-.02 0-.036-.012-.036-.028v-.072zm.43.047v.025c0 .016-.015.028-.035.028a2.329 2.329 0 0 0-.18-.008v-.153c.062 0 .123 0 .18.004.02.004.036.032.036.048"/><path fill="#F7C608" d="M10.024 6.863l.01-.032c.007-.021.03-.033.055-.032.06.015.138.03.21.048l-.065.205a2.224 2.224 0 0 0-.21-.043c-.024-.006-.037-.027-.03-.049l.008-.026.022-.07zm.478.194l-.01.032c-.007.022-.03.033-.054.027a2.304 2.304 0 0 0-.204-.064l.064-.205c.072.018.143.037.206.059.022.012.028.054.021.075"/><path fill="#006233" d="M10.064 6.88l.007-.022c.005-.016.024-.023.045-.022.049.013.114.025.173.04l-.046.147a2.196 2.196 0 0 0-.174-.037c-.02-.005-.031-.02-.027-.036l.007-.019.015-.05zm.4.154l-.007.024c-.005.015-.024.023-.043.018a2.272 2.272 0 0 0-.17-.053l.045-.146c.06.015.119.03.172.048.018.01.025.04.02.055"/><path fill="#F7C608" d="M10.819 7.113l.02-.029c.013-.019.038-.024.063-.017.052.03.123.064.185.1l-.125.18a2.12 2.12 0 0 0-.189-.095c-.02-.012-.026-.035-.013-.054l.016-.024.043-.061zm.398.308l-.02.028a.045.045 0 0 1-.059.013 2.152 2.152 0 0 0-.176-.115l.125-.18c.063.036.125.072.18.11.017.016.01.058-.003.077"/><path fill="#006233" d="M10.852 7.14l.014-.02c.01-.014.03-.017.05-.01.043.025.101.054.153.084l-.089.129a2.072 2.072 0 0 0-.156-.08c-.018-.01-.024-.028-.014-.042l.012-.017.03-.044zm.336.25l-.014.02c-.01.014-.03.016-.047.006a2.14 2.14 0 0 0-.147-.093l.09-.13c.052.03.104.06.149.091.015.013.012.044.002.058"/><path fill="#F7C608" d="M11.505 7.556l.027-.023c.019-.014.045-.013.066 0 .04.042.098.093.147.144l-.175.14a1.966 1.966 0 0 0-.152-.14c-.017-.016-.015-.04.003-.055l.023-.018.06-.048zm.286.397l-.027.023a.045.045 0 0 1-.061-.004c-.036-.046-.08-.1-.133-.154l.175-.141c.049.05.098.1.138.15.012.021-.008.06-.027.074"/><path fill="#006233" d="M11.527 7.59l.02-.016c.014-.01.034-.008.05.004.034.035.082.078.122.12l-.125.1a1.9 1.9 0 0 0-.126-.117c-.013-.014-.014-.032 0-.043l.016-.013.043-.035zm.246.326l-.02.016a.036.036 0 0 1-.047-.006 1.982 1.982 0 0 0-.112-.128l.125-.1c.04.042.082.084.116.125.01.016-.003.045-.016.056"/><path fill="#F7C608" d="M12.025 8.156l.034-.014c.022-.01.047-.001.063.017.026.05.065.114.097.175l-.212.09a1.803 1.803 0 0 0-.103-.173c-.01-.02-.002-.042.02-.052l.029-.012.072-.03zm.152.456l-.033.014a.044.044 0 0 1-.057-.019 1.839 1.839 0 0 0-.08-.183l.212-.09c.03.061.062.122.085.18.005.023-.026.055-.048.064"/><path fill="#006233" d="M12.037 8.196l.024-.01c.016-.007.035 0 .047.016.022.042.054.095.08.146l-.152.064a1.795 1.795 0 0 0-.083-.144c-.01-.017-.004-.035.012-.042l.02-.008.052-.022zm.134.375l-.023.01c-.017.007-.035 0-.044-.017a1.842 1.842 0 0 0-.068-.152l.152-.064c.026.05.052.101.072.15.005.018-.017.043-.033.05"/><path fill="#F7C608" d="M12.339 8.866l.036-.005a.053.053 0 0 1 .055.032c.01.056.028.127.04.193l-.232.033a1.709 1.709 0 0 0-.045-.193c-.004-.022.012-.041.036-.044l.03-.005.08-.01zm.005.476l-.037.005c-.024.004-.045-.01-.049-.033a1.783 1.783 0 0 0-.02-.195l.231-.033c.011.067.022.133.027.195-.003.023-.043.046-.067.05"/><path fill="#006233" d="M12.338 8.907l.026-.004c.018-.002.033.01.04.028.008.046.022.105.031.16l-.165.024c-.01-.06-.024-.12-.036-.16-.003-.019.008-.034.025-.037l.022-.003.057-.008zm.013.395l-.027.003c-.017.003-.032-.01-.035-.028a1.76 1.76 0 0 0-.02-.162l.166-.023c.01.055.02.11.023.162 0 .019-.029.037-.046.04"/><path fill="#F7C608" d="M12.42 9.628l.037.004a.05.05 0 0 1 .043.045c-.009.056-.013.129-.023.196l-.232-.029c.01-.072.015-.145.017-.196.003-.022.024-.037.048-.034l.03.004.08.01zm-.142.458l-.037-.005c-.024-.003-.04-.022-.037-.044.014-.055.03-.12.041-.193l.232.029c-.01.066-.02.133-.035.193-.01.022-.055.033-.079.03"/><path fill="#006233" d="M12.406 9.667l.027.003c.017.002.028.018.03.037-.007.046-.012.107-.02.162l-.166-.02c.009-.06.014-.121.015-.163a.033.033 0 0 1 .036-.029l.022.003.056.007zm-.11.382l-.026-.003c-.017-.003-.028-.018-.025-.037.01-.045.023-.1.032-.16l.166.02a1.791 1.791 0 0 1-.028.161c-.007.018-.04.028-.057.026"/><path fill="#F7C608" d="M12.262 10.38l.034.013c.022.01.032.031.027.054-.025.051-.052.12-.082.182l-.214-.087c.033-.067.06-.136.077-.184.01-.02.034-.029.057-.02l.028.012.073.03zm-.278.402l-.034-.014c-.022-.009-.032-.03-.022-.051.03-.05.067-.108.1-.175l.213.087c-.03.061-.06.123-.093.177-.016.018-.063.017-.085.008"/><path fill="#006233" d="M12.238 10.414l.024.01c.016.006.022.024.018.042-.021.043-.044.1-.07.15l-.153-.061c.028-.056.05-.113.066-.153.008-.017.026-.025.042-.018l.02.008.053.022zm-.224.338l-.024-.01c-.016-.007-.022-.024-.014-.041a1.86 1.86 0 0 0 .081-.146l.153.062c-.025.05-.05.102-.077.147-.012.016-.046.017-.063.01"/><path fill="#F7C608" d="M11.878 11.06l.028.022c.019.014.021.038.01.059-.04.043-.087.102-.135.153l-.179-.138c.052-.056.1-.115.13-.157a.045.045 0 0 1 .062-.004l.023.018.061.047zm-.392.315l-.028-.021a.037.037 0 0 1-.005-.056c.045-.039.098-.087.15-.142l.178.138a2.321 2.321 0 0 1-.145.146c-.02.013-.065 0-.084-.014"/><path fill="#006233" d="M11.844 11.086l.02.016c.014.01.014.029.004.046-.033.035-.073.084-.113.127l-.128-.1a1.32 1.32 0 0 0 .11-.129c.013-.014.033-.017.047-.006l.017.013.043.033zm-.319.268l-.02-.016c-.014-.01-.014-.029 0-.043a2.03 2.03 0 0 0 .122-.12l.128.1c-.04.042-.08.085-.12.121-.016.012-.05.004-.063-.006"/><path fill="#F7C608" d="M11.3 11.615l.02.028c.013.019.008.042-.01.059-.05.03-.114.075-.176.112l-.129-.178c.067-.04.131-.085.174-.117a.045.045 0 0 1 .06.011l.017.024.044.06zm-.474.202l-.02-.028c-.014-.02-.008-.042.012-.055a2.22 2.22 0 0 0 .187-.098l.129.178a2.469 2.469 0 0 1-.184.103c-.024.008-.063-.016-.077-.035"/><path fill="#006233" d="M11.258 11.631l.014.02c.01.014.005.031-.01.045l-.148.093-.092-.128c.056-.033.11-.07.145-.096.018-.01.037-.008.047.006l.012.017.032.043zm-.39.175l-.014-.02c-.01-.014-.004-.031.013-.042.046-.022.1-.05.155-.083l.092.128c-.051.03-.103.061-.152.086-.02.007-.05-.009-.06-.022"/><path fill="#F7C608" d="M10.571 11.998l.011.033c.007.021-.005.042-.027.054-.059.016-.134.043-.204.062l-.069-.204a2.16 2.16 0 0 0 .203-.067c.024-.007.047.004.054.026l.01.027.022.07zm-.516.073l-.011-.032c-.007-.022.005-.043.028-.05.061-.01.134-.024.21-.046l.069.204c-.071.02-.142.04-.209.052-.025.001-.055-.031-.062-.053"/><path fill="#006233" d="M10.527 12.004l.008.023c.005.015-.006.03-.024.04-.05.013-.112.035-.17.051l-.05-.146a2.15 2.15 0 0 0 .17-.055c.02-.005.038.002.043.018l.006.019.017.05zm-.427.067l-.008-.023c-.005-.015.006-.03.025-.036.05-.01.11-.022.174-.04l.05.146a2.625 2.625 0 0 1-.174.044c-.02.001-.044-.021-.05-.037"/><path fill="#F7C608" d="M9.755 12.18v.034c0 .022-.018.04-.042.045-.062 0-.142.007-.216.008l-.002-.213c.08-.001.16-.007.215-.013.025 0 .044.016.044.038v.101zm-.518-.063v-.033c-.001-.022.017-.04.042-.04.062.005.136.01.216.01l.002.213a2.72 2.72 0 0 1-.216-.004c-.024-.005-.043-.045-.044-.067"/><path fill="#006233" d="M9.71 12.174l.001.024c0 .016-.015.028-.035.032-.052 0-.118.005-.18.006l-.001-.153c.066 0 .133-.005.179-.009.02 0 .036.011.036.028v.072zm-.43-.044v-.025c0-.016.015-.028.035-.028.051.004.113.007.18.006l.001.153c-.061 0-.123 0-.18-.003-.02-.003-.035-.031-.036-.047"/></symbol><symbol fill="none" viewBox="0 0 20 20" id="flags--Chinese" xmlns="http://www.w3.org/2000/svg"><path fill="#D80027" d="M20 3.333H0v13.334h20V3.333z"/><path fill="#FFDA44" d="M6.99 7.405l.572 1.762h1.852l-1.498 1.089.572 1.762-1.499-1.089-1.499 1.089.573-1.762-1.499-1.09h1.853l.572-1.761zm3.608 5.86l-.563-.408-.562.408.215-.66-.562-.409h.695l.214-.66.215.66h.695l-.562.409.215.66zm1.466-2.018h-.695l-.214.66-.215-.66h-.695l.562-.408-.215-.661.563.408.562-.408-.215.66.562.41zm0-2.495l-.562.409.215.66-.562-.408-.563.409.215-.661-.562-.408h.695l.215-.661.214.66h.695zm-1.466-2.018l-.215.661.562.408h-.695l-.215.661-.214-.66h-.695l.562-.409-.215-.66.562.408.563-.409z"/></symbol><symbol fill="none" viewBox="0 0 20 20" id="flags--Danish" xmlns="http://www.w3.org/2000/svg"><path fill="#D80027" d="M20 3.333H0v13.334h20V3.333z"/><path fill="#F0F0F0" d="M7.5 3.333H5V8.75H0v2.5h5v5.416h2.5V11.25H20v-2.5H7.5V3.333z"/></symbol><symbol fill="none" viewBox="0 0 20 20" id="flags--Dutch" xmlns="http://www.w3.org/2000/svg"><path fill="#21468B" d="M20 3.333H0v13.334h20V3.333z"/><path fill="#fff" d="M20 3.333H0v8.89h20v-8.89z"/><path fill="#AE1C28" d="M20 3.333H0v4.445h20V3.333z"/></symbol><symbol fill="none" viewBox="0 0 20 20" id="flags--English" xmlns="http://www.w3.org/2000/svg"><g clip-path="url(#ha)"><path fill="#F0F0F0" d="M20 3.333H0v13.334h20V3.333z"/><path fill="#D80027" d="M11.25 3.333h-2.5V8.75H0v2.5h8.75v5.416h2.5V11.25H20v-2.5h-8.75V3.333z"/><path fill="#0052B4" d="M15.383 12.319L20 14.884V12.32h-4.618zm-3.209 0L20 16.666v-1.229l-5.613-3.118h-2.213zm5.742 4.347l-5.742-3.19v3.19h5.742z"/><path fill="#F0F0F0" d="M12.174 12.319L20 16.666v-1.229l-5.613-3.118h-2.213z"/><path fill="#D80027" d="M12.174 12.319L20 16.666v-1.229l-5.613-3.118h-2.213z"/><path fill="#0052B4" d="M3.529 12.319L0 14.279v-1.96h3.529zm4.297.552v3.795H.996l6.83-3.795z"/><path fill="#D80027" d="M5.613 12.319L0 15.437v1.23l7.826-4.348H5.613z"/><path fill="#0052B4" d="M4.618 7.681L0 5.116V7.68h4.618zm3.208 0L0 3.333v1.23L5.613 7.68h2.213zM2.084 3.333l5.742 3.19v-3.19H2.084z"/><path fill="#F0F0F0" d="M7.826 7.681L0 3.333v1.23L5.613 7.68h2.213z"/><path fill="#D80027" d="M7.826 7.681L0 3.333v1.23L5.613 7.68h2.213z"/><path fill="#0052B4" d="M16.472 7.681L20 5.721v1.96h-3.53zm-4.298-.553V3.333h6.83l-6.83 3.795z"/><path fill="#D80027" d="M14.387 7.681L20 4.563v-1.23l-7.826 4.348h2.213z"/></g><defs><clipPath id="ha"><path fill="#fff" d="M0 0h20v20H0z"/></clipPath></defs></symbol><symbol fill="none" viewBox="0 0 20 20" id="flags--French" xmlns="http://www.w3.org/2000/svg"><g clip-path="url(#ia)"><path fill="#F0F0F0" d="M20 3.333H0v13.334h20V3.333z"/><path fill="#0052B4" d="M6.667 3.333H0v13.334h6.667V3.333z"/><path fill="#D80027" d="M20 3.333h-6.666v13.334H20V3.333z"/></g><defs><clipPath id="ia"><path fill="#fff" d="M0 0h20v20H0z"/></clipPath></defs></symbol><symbol fill="none" viewBox="0 0 20 20" id="flags--German" xmlns="http://www.w3.org/2000/svg"><path fill="#D80027" d="M20 3.333H0v13.334h20V3.333z"/><path fill="#000" d="M20 3.333H0v4.445h20V3.333z"/><path fill="#FFDA44" d="M20 12.222H0v4.444h20v-4.444z"/></symbol><symbol fill="none" viewBox="0 0 20 20" id="flags--Greek" xmlns="http://www.w3.org/2000/svg"><path fill="#0D5EAF" d="M20 3.333H0v13.334h20V3.333z"/><path stroke="#fff" stroke-width="1.481" d="M0 14.444h20M3.704 3.334v8.148-8.149zM0 7.036h7.407H0zm7.407-1.481H20 7.407zm0 2.963H20 7.407zM0 11.482h20H0z"/></symbol><symbol fill="none" viewBox="0 0 20 20" id="flags--Hebrew" xmlns="http://www.w3.org/2000/svg"><path fill="#F0F0F0" d="M20 3.333H0v13.333h20V3.333z"/><path fill="#2E52B2" d="M12.5 8.557h-1.667L10 7.113l-.833 1.444H7.5L8.333 10 7.5 11.443h1.667L10 12.887l.833-1.444H12.5L11.667 10l.833-1.443zM11.024 10l-.512.887H9.488L8.976 10l.512-.887h1.024l.512.887zM10 8.227l.19.33h-.38l.19-.33zm-1.536.886h.381l-.19.33-.19-.33zm0 1.774l.19-.33.191.33h-.38zm1.536.886l-.19-.33h.38l-.19.33zm1.536-.886h-.381l.19-.33.19.33zm-.381-1.774h.38l-.19.33-.19-.33zM20 4.167H0v1.666h20V4.166zm0 9.999H0v1.667h20v-1.667z"/></symbol><symbol fill="none" viewBox="0 0 20 20" id="flags--Inglés" xmlns="http://www.w3.org/2000/svg"><g clip-path="url(#ma)"><path fill="#F0F0F0" d="M20 3.333H0v13.334h20V3.333z"/><path fill="#D80027" d="M11.25 3.333h-2.5V8.75H0v2.5h8.75v5.416h2.5V11.25H20v-2.5h-8.75V3.333z"/><path fill="#0052B4" d="M15.383 12.319L20 14.884V12.32h-4.618zm-3.209 0L20 16.666v-1.229l-5.613-3.118h-2.213zm5.742 4.347l-5.742-3.19v3.19h5.742z"/><path fill="#F0F0F0" d="M12.174 12.319L20 16.666v-1.229l-5.613-3.118h-2.213z"/><path fill="#D80027" d="M12.174 12.319L20 16.666v-1.229l-5.613-3.118h-2.213z"/><path fill="#0052B4" d="M3.529 12.319L0 14.279v-1.96h3.529zm4.297.552v3.795H.996l6.83-3.795z"/><path fill="#D80027" d="M5.613 12.319L0 15.437v1.23l7.826-4.348H5.613z"/><path fill="#0052B4" d="M4.618 7.681L0 5.116V7.68h4.618zm3.208 0L0 3.333v1.23L5.613 7.68h2.213zM2.084 3.333l5.742 3.19v-3.19H2.084z"/><path fill="#F0F0F0" d="M7.826 7.681L0 3.333v1.23L5.613 7.68h2.213z"/><path fill="#D80027" d="M7.826 7.681L0 3.333v1.23L5.613 7.68h2.213z"/><path fill="#0052B4" d="M16.472 7.681L20 5.721v1.96h-3.53zm-4.298-.553V3.333h6.83l-6.83 3.795z"/><path fill="#D80027" d="M14.387 7.681L20 4.563v-1.23l-7.826 4.348h2.213z"/></g><defs><clipPath id="ma"><path fill="#fff" d="M0 0h20v20H0z"/></clipPath></defs></symbol><symbol fill="none" viewBox="0 0 20 20" id="flags--Italian" xmlns="http://www.w3.org/2000/svg"><g clip-path="url(#na)"><path fill="#F0F0F0" d="M13.333 3.333H0v13.333h20V3.333h-6.667z"/><path fill="#6DA544" d="M6.667 3.333H0v13.334h6.667V3.333z"/><path fill="#D80027" d="M20 3.333h-6.666v13.334H20V3.333z"/></g><defs><clipPath id="na"><path fill="#fff" d="M0 0h20v20H0z"/></clipPath></defs></symbol><symbol fill="none" viewBox="0 0 20 20" id="flags--Japanese" xmlns="http://www.w3.org/2000/svg"><path fill="#F0F0F0" d="M20 3.333H0v13.334h20V3.333z"/><path fill="#D80027" d="M10 13.75a3.75 3.75 0 1 0 0-7.5 3.75 3.75 0 0 0 0 7.5z"/></symbol><symbol fill="none" viewBox="0 0 20 20" id="flags--Korean" xmlns="http://www.w3.org/2000/svg"><path fill="#F7F7F7" d="M20 3.333H0v13.334h20V3.333z"/><path fill="#D80027" d="M12.435 10c0 .608-1.09 2.13-2.435 2.13-1.344 0-2.435-1.522-2.435-2.13a2.435 2.435 0 1 1 4.87 0z"/><path fill="#0052B4" d="M12.435 10a2.435 2.435 0 0 1-4.87 0"/><path fill="#000" d="M13.228 11.507l-.646.645.43.43.646-.645-.43-.43zm-1.076 1.075l-.646.646.43.43.646-.646-.43-.43zm2.368.215l-.646.646.43.43.646-.646-.43-.43zm-1.077 1.076l-.646.646.43.43.646-.645-.43-.43zm.431-1.721l-.646.645.43.43.646-.645-.43-.43zm-1.077 1.076l-.645.645.43.43.646-.645-.43-.43zm-.645-7.102l1.722 1.722.43-.43-1.721-1.722-.43.43zm-.645.646l.645.645.43-.43-.645-.646-.43.43zm1.075 1.076l.646.645.43-.43-.645-.646-.43.43zm.215-2.368l.646.646.43-.43-.645-.646-.43.43zm1.077 1.076l.646.646.43-.43-.646-.646-.43.43zm-6.671 7.963L5.48 12.797l-.43.43 1.721 1.722.43-.43zm.645-.646l-.646-.645-.43.43.645.646.43-.43zm-1.076-1.076l-.646-.645-.43.43.645.646.43-.43zm1.722.431l-1.722-1.722-.43.43 1.721 1.722.43-.43zM5.48 7.202L7.203 5.48l-.43-.43L5.05 6.77l.43.43zm.646.646l1.722-1.722-.43-.43-1.722 1.721.43.43zm.646.645l1.721-1.722-.43-.43L6.34 8.063l.43.43z"/></symbol><symbol fill="none" viewBox="0 0 14 14" id="flags--Latin" xmlns="http://www.w3.org/2000/svg"><path fill="#fff" d="M14 0H0v14h14V0z"/><path fill="#FFE000" d="M7 0H0v14h7V0z"/><path fill="#fff" stroke="#000" stroke-linecap="round" stroke-linejoin="round" stroke-width=".018" d="M9.973 5.546l.09.021.144.023.066.008-.012.28s-.015.185-.043.273c-.02.066-.088.186-.088.186l-.043.066-.254-.22s.043-.061.059-.095c.02-.043.043-.134.043-.134l.025-.145.013-.183v-.08zm-.319.848l.231.202s-.047.041-.075.054a.412.412 0 0 1-.176.04.325.325 0 0 1-.126-.034c-.088-.04-.185-.082-.241-.16a.166.166 0 0 1-.028-.1c.001-.039.035-.11.035-.11s.014.047.03.066a.275.275 0 0 0 .098.07.238.238 0 0 0 .202.006.26.26 0 0 0 .05-.034z"/><path fill="#fff" stroke="#000" stroke-linecap="round" stroke-linejoin="round" stroke-width=".018" d="M9.287 4.915s.019.037.024.057a.332.332 0 0 1-.001.208.958.958 0 0 1-.058.147c-.014.03-.034.058-.048.088-.023.05-.04.101-.06.151-.016.042-.038.082-.05.125a1.175 1.175 0 0 0-.034.176 1.196 1.196 0 0 0 0 .337c.011.06.028.119.054.173a.499.499 0 0 0 .178.195c.031.02.067.03.101.044l.142.052s-.131-.065-.177-.12a.383.383 0 0 1-.072-.162.635.635 0 0 1-.007-.205c.008-.073.03-.144.052-.214.023-.074.056-.145.086-.217.022-.051.046-.102.067-.153.025-.062.05-.123.07-.186.011-.039.026-.077.03-.117a.426.426 0 0 0-.012-.131.498.498 0 0 0-.067-.172.23.23 0 0 0-.082-.073.175.175 0 0 0-.106-.024.099.099 0 0 0-.03.02z"/><path fill="#fff" stroke="#000" stroke-linecap="round" stroke-linejoin="round" stroke-width=".018" d="M9.584 5.295s.025-.1.03-.152a.71.71 0 0 0-.004-.132c-.005-.05-.008-.1-.027-.146a.383.383 0 0 0-.214-.207.516.516 0 0 0-.157-.027.728.728 0 0 0-.213.023.556.556 0 0 0-.065.031l.167.275s.053-.031.082-.039a.307.307 0 0 1 .095-.007.273.273 0 0 1 .095.018.414.414 0 0 1 .182.197c.018.043.02.09.027.136l.002.03z"/><path fill="#FFE000" stroke="#000" stroke-linecap="round" stroke-linejoin="round" stroke-width=".018" d="M9.615 5.077s-.03-.092-.059-.131a.357.357 0 0 0-.124-.111c-.053-.026-.174-.035-.174-.035l.064.118-.112-.002-.058-.098-.108.049-.053-.088.114-.053-.053-.085.115-.01.05.082s.088 0 .132.009a.326.326 0 0 1 .154.08c.025.024.049.05.067.08a.585.585 0 0 1 .036.094l.009.101z"/><path fill="#FFE000" stroke="#000" stroke-linecap="round" stroke-linejoin="round" stroke-width=".018" d="M8.856 4.733l.179.26-.179-.26zm.078-.046l-.084.05-.08.06.173.264.077-.059.08-.046-.166-.27zM9.26 5.8l.1-.206.107.043.044-.107-.107-.05.055-.119-.078-.035-.06.114-.107-.045-.047.112.104.044-.096.205.085.045zm.802-.061l.102-.002v.118l.098.004-.017.12-.091-.006s-.015.07-.03.104a.783.783 0 0 1-.053.097l-.109-.027s.04-.062.055-.095a.988.988 0 0 0 .031-.093l-.111-.014.019-.113.101.007.005-.1z"/><path fill="#fff" stroke="#000" stroke-linecap="round" stroke-linejoin="round" stroke-width=".018" d="M9.836 4.12l-.153.164.094.285.055.2-.156.146.284.394.903-.086.29-.311-.11-.1-.003-.243.095-.285-.143-.144-.128-.343s-.027-.095-.05-.14c-.013-.025-.032-.048-.05-.071-.023-.028-.046-.056-.073-.078a.479.479 0 0 0-.082-.05c-.03-.017-.06-.034-.094-.042-.035-.01-.106-.009-.106-.009s-.072 0-.106.009c-.034.008-.064.025-.095.041a.475.475 0 0 0-.081.051c-.028.022-.05.05-.072.078-.019.023-.038.046-.052.072a1.17 1.17 0 0 0-.05.14l-.117.321z"/><path fill="red" stroke="#000" stroke-linecap="round" stroke-linejoin="round" stroke-width=".022" d="M10.41 5.606c.302 0 .547-.073.547-.163 0-.09-.245-.162-.547-.162-.302 0-.546.073-.546.162 0 .09.244.163.546.163z"/><path fill="#FFE000" stroke="#000" stroke-linecap="round" stroke-linejoin="round" stroke-width=".018" d="M10.994 5.226l-.028-.023a.363.363 0 0 0-.067-.034c-.031-.012-.065-.018-.097-.026-.038-.009-.075-.018-.114-.023a1.108 1.108 0 0 0-.135-.009c-.048 0-.144.007-.144.007s-.096-.007-.144-.007a.876.876 0 0 0-.135.01c-.038.004-.076.013-.114.022-.032.008-.066.014-.097.026a.361.361 0 0 0-.067.034.32.32 0 0 0-.028.023h1.17zm.055-.24s-.029-.03-.048-.033a.05.05 0 0 0-.037.009.073.073 0 0 0-.023.085c.005.011.012.024.024.029.027.01.086-.012.086-.012l-.002-.078zm.03-.02c.032.001.043.018.052.037l-.053-.037zm-1.31.02l-.002.078s.06.022.086.012c.012-.005.02-.018.024-.03a.073.073 0 0 0-.023-.084.05.05 0 0 0-.037-.009c-.02.004-.048.033-.048.033zm-.029-.02c-.032.001-.044.018-.053.037l.053-.037zm1.057.044l-.047-.005.047.005zm-.776 0l.048-.005-.048.005zm.473 0c-.016-.003-.042-.024-.042-.024l.042.023zm-.17 0c.016-.003.043-.024.043-.024l-.043.023zm.832-.133s-.024.02-.041.022l-.007.004s-.01.032-.02.045c-.01.014-.036.035-.036.035s-.027-.023-.044-.027a.054.054 0 0 0-.034 0 .063.063 0 0 0-.026.025.07.07 0 0 0-.015.04c.001.017.022.046.022.046l-.014.025-.02.013a.496.496 0 0 1-.107-.042.106.106 0 0 1-.025-.05s.025-.016.031-.028c.007-.015.01-.034.001-.047-.009-.015-.03-.023-.047-.023a.05.05 0 0 0-.035.015.048.048 0 0 0-.014.039c.002.014.026.032.026.032s-.01.026-.021.03a.329.329 0 0 1-.085.028.22.22 0 0 1-.092 0 .096.096 0 0 1-.05-.031c-.003-.005-.005-.017-.005-.017s.037-.01.05-.02c.015-.011.03-.026.034-.044.002-.018-.007-.037-.017-.052a.101.101 0 0 0-.043-.033c-.007-.004-.024-.004-.024-.004l-.005.005a.08.08 0 0 1-.027.022h-.001l-.007.003-.004.001-.014.004s.022.007.028.016a.04.04 0 0 1 .006.018.049.049 0 0 1-.003.03.05.05 0 0 1-.009.02.043.043 0 0 1-.009.008.07.07 0 0 1-.02.01h-.024s.031 0 .043-.01h.001a.06.06 0 0 0 .021-.04v-.018a.042.042 0 0 0-.012-.023c-.014-.012-.052-.013-.053-.014 0 0-.04.002-.053.014a.044.044 0 0 0-.012.023.086.086 0 0 0 .003.03.06.06 0 0 0 .02.029c.011.009.041.009.042.009h-.024a.069.069 0 0 1-.019-.01.043.043 0 0 1-.01-.008.05.05 0 0 1-.01-.02.065.065 0 0 1-.003-.018l.001-.012a.04.04 0 0 1 .006-.018c.006-.009.028-.016.028-.016l-.014-.004h-.004l-.007-.004a.082.082 0 0 1-.028-.022l-.005-.005s-.017 0-.024.004a.1.1 0 0 0-.042.033c-.01.015-.02.034-.017.052.003.018.018.033.032.044.015.01.051.02.051.02s-.001.012-.005.017a.095.095 0 0 1-.05.031.219.219 0 0 1-.091 0 .33.33 0 0 1-.086-.027c-.011-.005-.021-.03-.021-.03s.024-.02.026-.033a.051.051 0 0 0-.014-.039.05.05 0 0 0-.035-.015c-.018 0-.038.008-.047.023-.008.013-.006.032.001.047.006.012.032.027.032.027a.107.107 0 0 1-.026.051.494.494 0 0 1-.106.042l-.02-.013-.015-.025s.021-.03.022-.046a.07.07 0 0 0-.015-.04.063.063 0 0 0-.026-.024.054.054 0 0 0-.034-.001.164.164 0 0 0-.043.027s-.027-.02-.037-.035a.198.198 0 0 1-.02-.045l-.007-.004a.117.117 0 0 1-.04-.022l-.026.006s-.022.012-.023.023c0 .015.021.022.03.034l.024.03c.007.011.016.02.02.032.003.013-.006.028 0 .04.006.015.02.03.037.034.014.003.042-.015.042-.015v.112l.057.052.055.114-.022.028.006.056c.042-.053.115-.077.18-.096.089-.025.25-.027.325-.026h.041s.248-.007.366.026c.065.02.138.043.18.096l.006-.056-.021-.028.054-.114.058-.052-.001-.112s.028.018.043.015c.016-.004.03-.019.037-.034.005-.012-.004-.027 0-.04.003-.012.012-.021.02-.031a.414.414 0 0 1 .023-.031c.01-.012.03-.019.03-.034 0-.011-.023-.023-.023-.023l-.025-.006zm-.83-.014a.176.176 0 0 0 .026.021h.001a.075.075 0 0 0 .011.005.158.158 0 0 0 .045.001s.029.003.045-.001a.084.084 0 0 0 .01-.004h.002a.168.168 0 0 0 .027-.022.055.055 0 0 0 .007-.012.06.06 0 0 0 0-.049c-.01-.017-.03-.025-.046-.035a.423.423 0 0 0-.045-.021s-.03.012-.045.02c-.016.01-.036.019-.045.036a.06.06 0 0 0-.001.049.059.059 0 0 0 .007.012z"/><path fill="#FFE000" stroke="#000" stroke-linecap="round" stroke-linejoin="round" stroke-width=".018" d="M11.092 4.647s-.061-.029-.093-.039c-.058-.018-.119-.029-.179-.04-.07-.014-.141-.018-.21-.034-.022-.005-.043-.015-.065-.02-.03-.006-.062-.016-.092-.01a.154.154 0 0 0-.044.026s-.027-.022-.043-.025c-.03-.007-.062.003-.093.01-.021.004-.042.014-.064.02-.069.015-.14.019-.21.032-.06.012-.121.023-.18.041-.031.01-.092.039-.092.039h1.365zm-.26-.253s.03-.016.041-.028a.053.053 0 0 0 .015-.03.048.048 0 0 0-.012-.036.05.05 0 0 0-.036-.012.046.046 0 0 0-.029.01.051.051 0 0 0-.017.032c-.001.01.003.02.008.03.007.013.03.034.03.034zm-.846 0s.024-.021.031-.035a.053.053 0 0 0 .008-.03.052.052 0 0 0-.017-.031.046.046 0 0 0-.03-.01.05.05 0 0 0-.035.012.049.049 0 0 0-.012.036c0 .011.007.021.014.03a.19.19 0 0 0 .041.028zm-.23.101l-.067.087s0 .023.005.033a.133.133 0 0 0 .033.032l.004.12-.063.11h-.005l.04.022h.006c.024-.001.04-.029.06-.041a1.343 1.343 0 0 1 .365-.125.794.794 0 0 1 .166-.007c.037.003.109.02.11.02 0 0 .072-.017.108-.02a.788.788 0 0 1 .324.047 1.345 1.345 0 0 1 .207.085c.021.012.036.04.06.042h.006l.041-.023h-.006l-.063-.11.005-.12s.026-.018.033-.032c.005-.01.004-.033.004-.033l-.066-.087s-.034.034-.056.04a.061.061 0 0 1-.036 0c-.014-.004-.025-.015-.037-.024a.473.473 0 0 1-.072-.068.43.43 0 0 1-.03-.049s-.072.057-.115.068a.25.25 0 0 1-.132-.003.122.122 0 0 1-.028-.017.235.235 0 0 0-.148-.044.235.235 0 0 0-.148.044s-.017.014-.028.017a.251.251 0 0 1-.131.003.462.462 0 0 1-.116-.068s-.017.034-.03.049a.47.47 0 0 1-.072.068c-.011.009-.022.02-.036.025a.061.061 0 0 1-.036 0c-.022-.007-.056-.041-.056-.041z"/><path fill="#FFE000" d="M11.12 4.46s.003-.032 0-.048a.118.118 0 0 0-.018-.04.246.246 0 0 0-.032-.032l.05.12zm-.058.035s.019 0 .027-.003c.015-.008.034-.036.034-.036s.038.026.058.023c.01-.001.018-.01.024-.02a.044.044 0 0 0 .007-.03c-.002-.01-.01-.016-.016-.021-.013-.011-.036-.01-.044-.024-.007-.011-.003-.027 0-.04.008-.026.027-.048.043-.071.01-.015.03-.025.031-.042.001-.01-.011-.026-.011-.026s-.03 0-.043.003a.138.138 0 0 0-.063.035c-.013.014-.017.035-.024.054-.006.014-.014.043-.014.043s-.034 0-.049.007a.096.096 0 0 0-.048.043.07.07 0 0 0 0 .05c.006.017.02.03.034.04.016.01.054.015.054.015zM9.748 4.34s-.024.02-.032.033a.118.118 0 0 0-.018.04.232.232 0 0 0 0 .047l.05-.12zm-.145-.135s-.013.017-.012.026c.002.017.022.027.032.042.015.023.034.045.042.071.004.013.008.029.001.04-.008.014-.031.013-.044.024-.007.005-.014.012-.016.02a.044.044 0 0 0 .007.032c.005.009.014.018.024.02.02.002.057-.024.057-.024s.02.028.034.036c.009.004.028.003.028.003s.038-.006.054-.016a.083.083 0 0 0 .034-.038.07.07 0 0 0 0-.051.096.096 0 0 0-.049-.043c-.015-.007-.048-.007-.048-.007l-.014-.043c-.007-.019-.011-.04-.025-.054a.138.138 0 0 0-.062-.035c-.014-.004-.043-.003-.043-.003zm.76.08l.046-.014.046.014h-.093zm.011.113s-.036-.034-.043-.056a.042.042 0 0 1 .003-.03c.006-.013.032-.027.032-.027s-.04-.019-.05-.037a.048.048 0 0 1-.003-.035.095.095 0 0 1 .033-.045c.018-.015.063-.03.063-.03s.045.015.063.03a.094.094 0 0 1 .033.045.048.048 0 0 1-.004.035c-.01.018-.05.037-.05.037s.027.014.033.026c.005.01.005.021.002.031a.186.186 0 0 1-.043.056l-.034.002-.035-.002zm.127-.151s.075.032.101.062c.007.009.013.02.012.03-.002.04-.057.103-.057.103l-.112-.047h-.072l-.112.047s-.055-.063-.058-.102c0-.011.006-.022.013-.03.025-.03.1-.063.1-.063"/><path stroke="#000" stroke-linecap="round" stroke-linejoin="round" stroke-width=".018" d="M10.501 4.247s.075.032.101.062c.007.009.013.02.012.03-.002.04-.057.103-.057.103l-.112-.047h-.072l-.112.047s-.055-.063-.058-.102c0-.011.006-.022.013-.03.025-.03.1-.063.1-.063m.804.213s.003-.032 0-.048a.118.118 0 0 0-.018-.04.246.246 0 0 0-.032-.032l.05.12zm-.058.035s.019 0 .027-.003c.015-.008.034-.036.034-.036s.038.026.058.023c.01-.001.018-.01.024-.02a.044.044 0 0 0 .007-.03c-.002-.01-.01-.016-.016-.021-.013-.011-.036-.01-.044-.024-.007-.011-.003-.027 0-.04.008-.026.027-.048.043-.071.01-.015.03-.025.031-.042.001-.01-.011-.026-.011-.026s-.03 0-.043.003a.138.138 0 0 0-.063.035c-.013.014-.017.035-.024.054-.006.014-.014.043-.014.043s-.034 0-.049.007a.096.096 0 0 0-.048.043.07.07 0 0 0 0 .05c.006.017.02.03.034.04.016.01.054.015.054.015zM9.748 4.34s-.024.02-.032.033a.118.118 0 0 0-.018.04.232.232 0 0 0 0 .047l.05-.12zm-.145-.135s-.013.017-.012.026c.002.017.022.027.032.042.015.023.034.045.042.071.004.013.008.029.001.04-.008.014-.031.013-.044.024-.007.005-.014.012-.016.02a.044.044 0 0 0 .007.032c.005.009.014.018.024.02.02.002.057-.024.057-.024s.02.028.034.036c.009.004.028.003.028.003s.038-.006.054-.016a.083.083 0 0 0 .034-.038.07.07 0 0 0 0-.051.096.096 0 0 0-.049-.043c-.015-.007-.048-.007-.048-.007l-.014-.043c-.007-.019-.011-.04-.025-.054a.138.138 0 0 0-.062-.035c-.014-.004-.043-.003-.043-.003zm.76.08l.046-.014.046.014h-.093zm.011.113s-.036-.034-.043-.056a.042.042 0 0 1 .003-.03c.006-.013.032-.027.032-.027s-.04-.019-.05-.037a.048.048 0 0 1-.003-.035.095.095 0 0 1 .033-.045c.018-.015.063-.03.063-.03s.045.015.063.03a.094.094 0 0 1 .033.045.048.048 0 0 1-.004.035c-.01.018-.05.037-.05.037s.027.014.033.026c.005.01.005.021.002.031a.186.186 0 0 1-.043.056l-.034.002-.035-.002z"/><path fill="#FFE000" stroke="#000" stroke-linecap="round" stroke-linejoin="round" stroke-width=".018" d="M10.328 3.748l.045-.035h.036-.037s-.02-.014-.026-.024a.051.051 0 0 1-.005-.034.058.058 0 0 1 .024-.038c.013-.007.044-.003.044-.003s.03-.004.043.003a.058.058 0 0 1 .025.038.051.051 0 0 1-.005.034.104.104 0 0 1-.026.024h-.037.036l.045.035h-.162zm.457.028l-.015.026.015-.026zm.167-.086l-.042.006.042-.006zm.006.055l-.065.003.065-.003zm-.073-.074c.008.006.023.016.026.026a.055.055 0 0 1-.018.052c-.013.01-.052.008-.052.008l.044-.086zm-1.061.274l.095-.023c.045-.011.09-.024.136-.032.052-.01.104-.016.157-.02.065-.005.197-.003.197-.003s.131-.002.197.003c.053.004.105.01.157.02.046.008.09.02.136.032l.095.023h-1.17zm.21-.169l.014.026-.015-.026zm-.169-.086l.042.006-.042-.006zm-.005.055l.064.003-.064-.003zm.028.093l.106-.025a1.523 1.523 0 0 1 .253-.031c.054-.003.162-.003.162-.003s.108 0 .162.003a1.672 1.672 0 0 1 .253.031l.106.025H9.888zm.088-.081s-.038.003-.051-.008a.055.055 0 0 1-.018-.052c.003-.013.031-.029.031-.029l.038.089zm.316.326a1.231 1.231 0 0 0-.403.075c-.063.022-.129.126-.18.085-.012-.01.004-.029.01-.042a.243.243 0 0 1 .042-.07c.014-.016.045-.018.048-.037.003-.015-.019-.023-.024-.037A.096.096 0 0 1 9.782 4c.007-.023.037-.035.043-.058.006-.02-.014-.044-.004-.063.012-.023.063-.015.067-.041.002-.013-.021-.017-.026-.029-.003-.009.002-.018.002-.027 0-.013.002-.026-.003-.037-.005-.01-.021-.012-.024-.023-.003-.01-.001-.023.006-.03.006-.006.02.002.024-.005.008-.015-.014-.03-.02-.045-.009-.018-.019-.035-.023-.054-.004-.015-.017-.039-.003-.047.015-.009.03.019.045.03.018.013.04.026.052.046.01.014.005.036.017.048.015.014.043.002.059.016.013.011.025.03.02.048-.003.016-.042.016-.038.032.005.02.038.018.058.014.011-.002.02-.012.029-.019.007-.005.013-.012.021-.016a.125.125 0 0 1 .03-.005l-.011-.003s-.018-.014-.02-.024a.034.034 0 0 1 .01-.028.043.043 0 0 1 .03-.012c.01 0 .02.003.026.01.006.007.01.017.009.027a.033.033 0 0 1-.013.021c-.007.006-.025.008-.025.008l.012.004.035.047.148-.008s.019-.019.015-.03c-.004-.01-.014-.014-.032-.013-.048.002-.057-.038-.056-.068.002-.024.031-.04.054-.05.021-.008.06.02.07 0 .008-.02-.033-.029-.04-.048a.036.036 0 0 1 .002-.027c.01-.02.032-.034.053-.043.008-.004.028-.004.028-.004s.02 0 .028.004c.02.01.043.023.053.043a.037.037 0 0 1 .001.027c-.006.02-.048.029-.04.047.01.022.05-.007.071.001.023.01.052.026.053.05.002.03-.008.07-.056.068-.017-.001-.027.003-.031.014-.004.01.014.029.014.029l.149.008.034-.047.013-.004s-.018-.002-.025-.008a.033.033 0 0 1-.013-.021.035.035 0 0 1 .009-.027.037.037 0 0 1 .026-.01c.01 0 .023.004.03.012a.034.034 0 0 1 .01.028c-.002.01-.02.024-.02.024l-.012.003s.021.001.03.005c.009.004.015.01.022.016.01.007.018.017.029.02.02.003.053.004.058-.015.003-.016-.035-.016-.039-.032-.004-.017.008-.037.021-.048.015-.014.044-.002.059-.016.012-.012.007-.034.016-.048.013-.02.034-.033.053-.047.014-.01.03-.038.045-.029.013.008 0 .032-.003.047-.005.019-.015.036-.023.054-.006.015-.028.03-.02.045.003.007.018 0 .024.005a.03.03 0 0 1 .006.03c-.003.01-.02.013-.024.023-.005.011-.003.024-.003.037 0 .009.004.018.001.027-.004.012-.027.016-.025.029.004.026.055.018.067.041.01.02-.01.043-.005.063.007.023.036.035.043.058a.096.096 0 0 1-.003.056c-.004.014-.026.022-.024.037.004.02.035.021.048.036.019.02.033.045.044.07.005.014.02.034.01.043-.053.041-.118-.063-.18-.086a1.234 1.234 0 0 0-.404-.074c-.039-.003-.117-.003-.117-.003s-.078 0-.117.003zm.174-.749h-.114.114zm-.019-.19c.015-.03-.01-.054-.038-.077-.026.023-.052.046-.037.078h.075zm.003.262c.022.002.049.024.065.01.008-.007.004-.02 0-.03-.009-.021-.047-.026-.049-.049-.001-.02.03-.029.036-.048a.043.043 0 0 0 0-.03c-.016-.036-.082-.038-.093-.076-.005-.017.033-.036.038-.038.025-.011.055.014.079.004.016-.007.034-.023.034-.04 0-.02-.021-.036-.039-.044-.034-.015-.09.033-.112.002-.02-.028.048-.062.04-.095-.005-.015-.04-.03-.04-.03s-.034.014-.039.03c-.009.033.059.067.04.095-.021.031-.078-.017-.112-.002-.018.008-.038.024-.039.043 0 .018.018.034.034.041.024.01.054-.015.079-.004.005.002.043.021.038.038-.012.038-.078.04-.093.077a.044.044 0 0 0 0 .03c.006.018.037.027.035.047-.001.023-.04.028-.049.05-.003.008-.007.022 0 .029.017.014.044-.008.065-.01a.52.52 0 0 1 .041 0h.041z"/><path stroke="#000" stroke-linecap="round" stroke-linejoin="round" stroke-width=".018" d="M9.73 4.768l.148-.049c.051-.016.102-.034.154-.045.063-.014.127-.02.19-.027.063-.007.187-.014.187-.014s.124.007.186.014c.064.007.128.013.19.027.053.011.104.03.155.045l.148.049m-.148.572l-.06-.025a1.454 1.454 0 0 0-.112-.036c-.037-.01-.074-.02-.113-.025-.081-.01-.246-.001-.246-.001s-.165-.008-.246.001c-.038.004-.075.015-.112.025a1.432 1.432 0 0 0-.173.06h1.062zm.069-1.246s-.067-.027-.101-.039c-.029-.01-.058-.02-.087-.027a2.115 2.115 0 0 0-.268-.035c-.047-.003-.144-.003-.144-.003s-.096 0-.144.003a2.115 2.115 0 0 0-.268.035.783.783 0 0 0-.086.027c-.034.012-.101.039-.101.039h1.198z"/><path fill="#CCC" stroke="#000" stroke-linejoin="round" stroke-width=".018" d="M8.586 5.063l.567.485s-.03.063-.041.095a.799.799 0 0 0-.052.23l-.66-.605c.009-.138.087-.187.186-.205zm-.08.303l-.136.152.085.082-.132.128-.085-.085-.142.152-.002.19.326.254.112-.083-.007-.181.087.048.086-.053.005.163-.07-.051-.077.101-.008.18.245.217.297-.263-.023-.08-.012-.07-.007-.141.01-.154-.552-.506z"/><path fill="#CCC" stroke="#000" stroke-linejoin="round" stroke-width=".018" d="M8.37 5.518l-.004.168.088-.085-.084-.083z"/><path stroke="#000" stroke-linejoin="round" stroke-width=".018" d="M8.097 5.794l.323.275.105-.094-.083-.07.093-.089.072.063.082-.084.106.103-.096.075.09.082-.086.078m.1.253l-.01.192.01-.192zm-.115-.59l.004.178-.004-.178zm-.08.08l.005.146-.004-.145zm-.075-.058l.003.162-.003-.162zm-.117.248l.001.171-.001-.171zm.14.117l.247.207.252-.222-.5.015z"/><path fill="#CCC" stroke="#000" stroke-linejoin="round" stroke-width=".018" d="M10.647 6.884l.272.25.06.176-.35-.037-.2-.198-.213-.197-.918-.796.031-.11c.018-.051.039-.102.06-.153l.016-.038 1.025.909.217.194z"/><path fill="#CCC" stroke="#000" stroke-linejoin="round" stroke-width=".018" d="M10.879 6.922c.151.212.407.412.484.509.078.096.128.187.015.31-.113.124-.242.054-.343-.014-.1-.068-.277-.287-.53-.456l.374-.35z"/><path fill="#CCC" d="M10.789 7.279l-.197-.09.197.09zm.032-.304c.014.045.003.094.02.137a.561.561 0 0 0 .079.112s-.04.005-.058.012c-.026.01-.067.016-.073.043-.006.024.022.045.04.063a.25.25 0 0 0 .057.042c.034.02.07.043.109.05.049.01.14-.06.149-.01.003.02-.042.007-.06.016-.044.021-.065.068-.027.1.024.02.063.013.095.016.03.002.066-.016.093 0 .031.018.07.062.054.094-.017.034-.081.033-.112.011-.022-.016-.016-.053-.02-.08v-.025"/><path stroke="#000" stroke-linejoin="round" stroke-width=".018" d="M10.821 6.975c.014.045.003.094.02.137a.561.561 0 0 0 .079.112s-.04.005-.058.012c-.026.01-.067.016-.073.043-.006.024.022.045.04.063a.25.25 0 0 0 .057.042c.034.02.07.043.109.05.049.01.14-.06.149-.01.003.02-.042.007-.06.016-.044.021-.065.068-.027.1.024.02.063.013.095.016.03.002.066-.016.093 0 .031.018.07.062.054.094-.017.034-.081.033-.112.011-.022-.016-.016-.053-.02-.08v-.025m-.378-.277l-.197-.09.197.09z"/><path fill="#CCC" stroke="#000" stroke-linejoin="round" stroke-width=".018" d="M12.066 9.015a.726.726 0 1 0 0-1.452.726.726 0 0 0 0 1.452z"/><path fill="#fff" stroke="#000" stroke-linejoin="round" stroke-width=".018" d="M11.794 8.32a.227.227 0 1 0 .227.226l.078-.003a.227.227 0 1 0 .227-.227l.003-.044a.227.227 0 1 0-.226-.227l-.079-.007a.227.227 0 1 0-.226.227l-.004.055z"/><path fill="#CCC" stroke="#000" stroke-linejoin="round" stroke-width=".018" d="M12.066 8.18a.082.082 0 1 0 0-.164.082.082 0 0 0 0 .164zm.194.19a.082.082 0 1 0 0-.163.082.082 0 0 0 0 .164zm-.19.175a.082.082 0 1 0 0-.164.082.082 0 0 0 0 .164zm-.202-.175a.082.082 0 1 0 0-.163.082.082 0 0 0 0 .164z"/><path fill="#fff" stroke="#000" stroke-linejoin="round" stroke-width=".018" d="M12.052 8.727a.29.29 0 0 1-.123.123.354.354 0 0 0 .246 0 .298.298 0 0 1-.123-.123zm-.429-.45a.29.29 0 0 1-.122-.122.354.354 0 0 0 0 .246.298.298 0 0 1 .122-.123zm.892.021a.29.29 0 0 0 .123-.122.354.354 0 0 1 0 .245.298.298 0 0 0-.123-.123zm-.439-.452a.29.29 0 0 0-.123-.123.354.354 0 0 1 .246 0 .298.298 0 0 0-.123.123z"/><path fill="#FFE000" stroke="#000" stroke-linejoin="round" stroke-width=".018" d="M8.587 5.061s.004-.028 0-.041a.126.126 0 0 0-.037-.057.11.11 0 0 0-.051-.026.138.138 0 0 0-.062.005c-.013.004-.038.019-.038.019l-.083.034-.03.099s-.018.031-.023.048a.12.12 0 0 0-.003.057.111.111 0 0 0 .035.057c.016.013.037.02.058.022a.155.155 0 0 0 .046-.01c.01-.104.056-.184.188-.207z"/><path fill="#FFE000" stroke="#000" stroke-linejoin="round" stroke-width=".018" d="M8.4 4.96l-.216-.096-.018.017.118.214s.033-.049.053-.071A.97.97 0 0 1 8.4 4.96z"/><path fill="#FFE000" stroke="#000" stroke-linejoin="round" stroke-width=".018" d="M8.16 4.935a.09.09 0 1 0 0-.179.09.09 0 0 0 0 .179zm.61.285c.02.157.042.314.09.47l.174.16c-.037-.164-.103-.328-.103-.491l-.16-.138z"/><path fill="#FFE000" stroke="#000" stroke-linejoin="round" stroke-width=".018" d="M9.032 5.446l-.478-.036.152.14.437.018.007-.022-.118-.1zm.59.529a.347.347 0 0 0-.212.208c-.035.003-.069.003-.08-.023a.328.328 0 0 1 .2-.268c.084-.015.068.05.092.083zm.154.145a.347.347 0 0 0-.212.208c-.035.003-.069.003-.08-.023a.327.327 0 0 1 .2-.268c.083-.015.068.05.092.083zm1.752 1.466a.402.402 0 0 0-.084.009c.001.045-.017.093-.067.147a.187.187 0 0 1-.132.067s-.016.099.014.13c.036.037.152.022.152.022l.01-.006a.727.727 0 0 1 .179-.223l.002-.007s.017-.093-.012-.12c-.014-.013-.037-.018-.062 0v-.019zm1.097.215a.099.099 0 1 0 0-.197.099.099 0 0 0 0 .197zm.034 1.146a.099.099 0 1 0 0-.198.099.099 0 0 0 0 .198zm-1.112.065a.099.099 0 1 0 0-.198.099.099 0 0 0 0 .198z"/><path fill="#FA0204" stroke="#000" stroke-linejoin="round" stroke-width=".018" d="M10.467 6.584c0 .03-.025.042-.074.042-.049 0-.071-.014-.071-.044s.022-.038.071-.038c.05 0 .074.01.074.04zm.046.185c-.01.028-.037.03-.084.015-.046-.016-.063-.037-.053-.066.01-.028.034-.028.08-.012.046.017.067.034.057.063zm.001.077c-.006.03-.033.036-.08.026-.049-.01-.068-.028-.062-.057.006-.03.03-.033.077-.023.048.01.071.025.065.054zm.248-.036c-.015-.003-.013-.029-.01-.043.007-.023.048-.051.048-.051s.01.03.005.045c-.007.021-.022.055-.043.05z"/><path fill="#FA0204" stroke="#000" stroke-linejoin="round" stroke-width=".018" d="M10.709 6.857c-.016-.004-.018-.031-.014-.047.007-.024.054-.052.054-.052s.008.034.003.05c-.007.02-.022.053-.043.049zm-.061.087c-.024-.006-.021-.049-.015-.073.006-.02.021-.051.041-.046.024.005.023.046.018.07-.006.021-.023.055-.044.05z"/><path fill="#FA0204" stroke="#000" stroke-linejoin="round" stroke-width=".018" d="M10.577 7.012c-.024-.005-.034-.043-.029-.066.005-.025.03-.059.055-.053.025.006.033.047.027.072-.005.023-.03.052-.053.047zm-.012.042c-.007.028-.043.038-.065.03-.023-.007-.053-.04-.047-.07.006-.03.046-.037.069-.029.022.009.048.04.043.069zm-.477-.276s.029.014.041.026c.013.014.029.02.02.04-.007.02-.032.013-.045-.002-.012-.013-.016-.064-.016-.064zm.142.049c.03.006.029.04.014.06-.016.022-.06.05-.091.045-.031-.007-.028-.044-.01-.066.015-.02.058-.045.087-.04zm.098.064c.027.012.02.045 0 .062-.02.018-.07.036-.1.023-.028-.013-.016-.048.005-.066.02-.016.068-.03.095-.019z"/><path fill="#FA0204" stroke="#000" stroke-linejoin="round" stroke-width=".018" d="M10.433 7.004c.027.004.034.041.026.065-.01.025-.042.06-.07.056-.029-.005-.034-.046-.024-.071.01-.024.041-.054.068-.05z"/><path fill="#FA0204" stroke="#000" stroke-linejoin="round" stroke-width=".018" d="M10.5 7.086c.023.013.018.054.003.076-.015.023-.055.048-.078.034-.024-.013-.016-.057.001-.08.015-.021.053-.043.075-.03zm-.481-.224c.024-.002.04.034.04.06 0 .027-.019.07-.044.071-.025.003-.04-.037-.04-.065.002-.025.02-.063.044-.066z"/><path fill="#FA0204" stroke="#000" stroke-linejoin="round" stroke-width=".018" d="M10.097 6.93c.023.006.028.045.02.07-.009.025-.04.06-.064.054-.024-.005-.027-.048-.018-.074.01-.024.039-.054.062-.05z"/><path fill="#FA0204" stroke="#000" stroke-linejoin="round" stroke-width=".018" d="M10.168 6.979c.028.006.034.055.024.085-.01.032-.046.075-.075.068-.03-.006-.033-.06-.021-.091.01-.03.045-.068.072-.062z"/><path fill="#FA0204" stroke="#000" stroke-linejoin="round" stroke-width=".018" d="M10.227 7.038c.028-.004.05.04.052.072.002.033-.017.086-.046.09-.03.004-.052-.045-.052-.079 0-.031.018-.08.046-.083z"/><path fill="#FA0204" stroke="#000" stroke-linejoin="round" stroke-width=".018" d="M10.296 7.088c.025-.003.046.032.047.059.002.028-.015.072-.042.075-.027.003-.047-.037-.047-.065 0-.027.017-.066.042-.07zm.508-.083c-.018.016-.055.002-.07-.016-.018-.019-.03-.059-.01-.076.018-.016.057.001.073.02.015.019.025.056.007.072zm-.135.17c-.006.023-.044.031-.068.025-.024-.006-.057-.033-.05-.057.007-.025.049-.031.073-.024.023.007.051.033.045.056z"/><path fill="#FA0204" stroke="#000" stroke-linejoin="round" stroke-width=".018" d="M10.568 7.158c.02.014.016.059.002.083-.014.026-.05.053-.072.038-.021-.015-.014-.063.001-.088.014-.024.049-.047.07-.033z"/><path fill="#FA0204" stroke="#000" stroke-linejoin="round" stroke-width=".018" d="M10.47 7.21c.022.013.017.054.002.076-.015.023-.055.048-.079.035-.023-.014-.015-.058.002-.08.015-.022.053-.043.075-.03zm-.215.142c-.019.018-.004.063.016.086.02.023.066.045.086.026.02-.019.002-.067-.02-.09-.02-.022-.063-.04-.082-.022zm-.058.149c-.025.01-.028.058-.018.086.01.03.045.066.07.056.026-.01.027-.062.015-.091-.01-.028-.043-.06-.067-.05zm-.102.177c-.026.006-.036.052-.03.081.005.031.033.073.06.067.027-.006.036-.057.029-.088-.007-.029-.034-.066-.059-.06zm-.105.18c-.026.001-.045.045-.045.075 0 .031.02.078.047.077.028-.002.046-.05.045-.081 0-.03-.02-.071-.047-.07zm-.51.543l-.03.115s.017.041.034.04c.03-.003.039-.051.045-.081.005-.047-.05-.074-.05-.074zm1.817.073c.009.034.085.064.085.064l-.037-.156c-.032.001-.053.07-.048.092z"/><path fill="#FA0204" stroke="#000" stroke-linejoin="round" stroke-width=".018" d="M11.29 8.35c-.025-.01-.06.022-.071.05-.013.028-.014.078.012.088.026.01.062-.026.073-.056.011-.027.01-.073-.014-.083z"/><path fill="#FA0204" stroke="#000" stroke-linejoin="round" stroke-width=".018" d="M11.204 8.28c-.026 0-.049.04-.051.07-.003.032.012.08.04.081.027.002.05-.045.051-.076.002-.03-.014-.073-.04-.074zm-.654-.974s-.01.149.044.159c.034.005.06-.084.06-.084l-.105-.075zm-.122 1.714c-.017.02.005.063.027.083.024.02.072.035.09.013.016-.022-.009-.067-.034-.086-.023-.019-.068-.03-.083-.01zm.302-.039c-.012.023.015.062.04.078.028.016.077.023.09 0 .014-.025-.018-.065-.045-.081-.026-.015-.072-.02-.084.003zm.21-.047c-.011.024.02.06.047.074.028.013.078.016.09-.009.01-.025-.025-.063-.054-.076-.027-.012-.073-.012-.083.011zm.211-.064c-.01.024.024.058.051.07.03.012.08.012.09-.014.009-.026-.029-.061-.058-.072-.028-.01-.074-.008-.083.016zm.423-.275s.076.011.083-.016c.009-.036-.087-.071-.087-.071l.004.087zm-2.045.228c-.023.014-.017.061-.003.087.016.028.056.058.079.044.024-.015.016-.066-.001-.093-.015-.025-.053-.051-.075-.038zm-.299-.325c-.024-.012-.061.017-.076.043-.015.027-.021.077.003.09.025.012.064-.02.079-.049.014-.026.017-.072-.006-.084z"/><path fill="#FA0204" stroke="#000" stroke-linejoin="round" stroke-width=".018" d="M9.195 8.593c-.024-.01-.058.024-.07.052-.01.03-.01.08.016.089.026.009.06-.03.072-.059.01-.028.007-.074-.018-.082z"/><path fill="#FA0204" stroke="#000" stroke-linejoin="round" stroke-width=".018" d="M9.228 8.68c-.026-.007-.056.03-.065.058-.009.03-.003.08.023.087.027.007.058-.034.066-.065.008-.028 0-.074-.024-.08z"/><path fill="#FA0204" stroke="#000" stroke-linejoin="round" stroke-width=".018" d="M9.31 8.715c-.026-.007-.057.028-.067.057-.01.03-.006.08.02.087.027.008.06-.032.069-.062.008-.029.002-.074-.022-.082z"/><path fill="#FA0204" stroke="#000" stroke-linejoin="round" stroke-width=".018" d="M9.363 8.73c-.026.006-.035.052-.03.081.007.031.036.073.062.066.027-.007.035-.058.028-.089-.007-.028-.035-.065-.06-.059zm1.177-1.432c.014.02-.007.06-.028.078-.023.018-.067.03-.082.009-.014-.022.011-.064.034-.082.022-.017.063-.026.076-.005zm.006.688c.015.021-.008.063-.032.08-.025.02-.073.032-.09.01-.015-.023.012-.066.038-.085.024-.017.07-.026.084-.005z"/><path fill="#FA0204" stroke="#000" stroke-linejoin="round" stroke-width=".018" d="M10.54 8.084c.019.018.004.063-.016.086-.02.023-.066.045-.086.026-.02-.02-.001-.067.02-.09.02-.022.063-.04.082-.022z"/><path fill="#FA0204" d="M10.358 10.35a.43.43 0 0 0 .27.003l-.098-.157"/><path stroke="#000" stroke-linejoin="round" stroke-width=".018" d="M10.358 10.35a.43.43 0 0 0 .27.003l-.098-.157"/><path fill="#FFE000" stroke="#000" stroke-linejoin="round" stroke-width=".018" d="M10.575 9.946l-.178-.045s.002-.197.114-.18c.093.014.067.226.064.225z"/><path fill="#FFE000" stroke="#000" stroke-linejoin="round" stroke-width=".018" d="M10.488 9.721a.072.072 0 1 0 0-.145.072.072 0 0 0 0 .145z"/><path fill="#FA0204" stroke="#000" stroke-linejoin="round" stroke-width=".018" d="M10.558 10.034c.04.1.063.187.026.3l-.026-.3zm.069.318c-.057-.046-.205-.032-.269-.002-.025 0-.092-.466.144-.454.217.01.14.459.125.456z"/><path fill="#FA0204" d="M10.165 10.451a.263.263 0 0 0 .304.003l-.225-.235"/><path stroke="#000" stroke-linejoin="round" stroke-width=".018" d="M10.165 10.451a.263.263 0 0 0 .304.003l-.225-.235"/><path fill="#FFE000" stroke="#000" stroke-linejoin="round" stroke-width=".018" d="M10.323 9.807a.072.072 0 1 0 0-.145.072.072 0 0 0 0 .145zm.089.161l-.183-.004s-.024-.149.09-.155c.095-.005.097.159.093.16z"/><path fill="#FA0204" stroke="#000" stroke-linejoin="round" stroke-width=".018" d="M10.324 10.42a.556.556 0 0 1-.029-.277l.03.277zm-.082.005c-.043-.074-.05-.168-.017-.287l.017.287zm.226.03c-.027-.034-.225-.05-.303-.002-.028 0-.103-.526.163-.513.244.012.158.518.14.515z"/></symbol><symbol fill="none" viewBox="0 0 20 20" id="flags--L’anglais" xmlns="http://www.w3.org/2000/svg"><g clip-path="url(#ra)"><path fill="#F0F0F0" d="M20 3.333H0v13.334h20V3.333z"/><path fill="#D80027" d="M11.25 3.333h-2.5V8.75H0v2.5h8.75v5.416h2.5V11.25H20v-2.5h-8.75V3.333z"/><path fill="#0052B4" d="M15.383 12.319L20 14.884V12.32h-4.618zm-3.209 0L20 16.666v-1.229l-5.613-3.118h-2.213zm5.742 4.347l-5.742-3.19v3.19h5.742z"/><path fill="#F0F0F0" d="M12.174 12.319L20 16.666v-1.229l-5.613-3.118h-2.213z"/><path fill="#D80027" d="M12.174 12.319L20 16.666v-1.229l-5.613-3.118h-2.213z"/><path fill="#0052B4" d="M3.529 12.319L0 14.279v-1.96h3.529zm4.297.552v3.795H.996l6.83-3.795z"/><path fill="#D80027" d="M5.613 12.319L0 15.437v1.23l7.826-4.348H5.613z"/><path fill="#0052B4" d="M4.618 7.681L0 5.116V7.68h4.618zm3.208 0L0 3.333v1.23L5.613 7.68h2.213zM2.084 3.333l5.742 3.19v-3.19H2.084z"/><path fill="#F0F0F0" d="M7.826 7.681L0 3.333v1.23L5.613 7.68h2.213z"/><path fill="#D80027" d="M7.826 7.681L0 3.333v1.23L5.613 7.68h2.213z"/><path fill="#0052B4" d="M16.472 7.681L20 5.721v1.96h-3.53zm-4.298-.553V3.333h6.83l-6.83 3.795z"/><path fill="#D80027" d="M14.387 7.681L20 4.563v-1.23l-7.826 4.348h2.213z"/></g><defs><clipPath id="ra"><path fill="#fff" d="M0 0h20v20H0z"/></clipPath></defs></symbol><symbol fill="none" viewBox="0 0 20 20" id="flags--Norwegian" xmlns="http://www.w3.org/2000/svg"><path fill="#D80027" d="M20 3.333H0v13.334h20V3.333z"/><path fill="#F0F0F0" d="M20 11.558H7.898v5.109H4.783v-5.11H0V8.443h4.783v-5.11h3.115v5.109H20v3.116z"/><path fill="#2E52B2" d="M20 9.167v1.666H7.174v5.834H5.507v-5.834H0V9.167h5.507V3.333h1.667v5.834H20z"/></symbol><symbol fill="none" viewBox="0 0 20 20" id="flags--Portuguese" xmlns="http://www.w3.org/2000/svg"><path fill="#D80027" d="M20 3.333H0v13.333h20V3.333z"/><path fill="#6DA544" d="M7.681 3.333v13.334H0V3.332h7.681z"/><path fill="#FFDA44" d="M7.681 12.5a2.5 2.5 0 1 0 0-5 2.5 2.5 0 0 0 0 5z"/><path fill="#D80027" d="M6.275 8.75v1.563a1.406 1.406 0 1 0 2.812 0V8.75H6.275z"/><path fill="#F0F0F0" d="M7.681 10.781a.47.47 0 0 1-.469-.469v-.624h.938v.624a.47.47 0 0 1-.469.47z"/></symbol><symbol fill="none" viewBox="0 0 20 20" id="flags--Russian" xmlns="http://www.w3.org/2000/svg"><path fill="#F0F0F0" d="M0 3.333v13.333h20V3.333H0z"/><path fill="#0052B4" d="M20 3.333H0v13.334h20V3.333z"/><path fill="#F0F0F0" d="M20 3.333H0v4.445h20V3.333z"/><path fill="#D80027" d="M20 12.222H0v4.444h20v-4.444z"/></symbol><symbol fill="none" viewBox="0 0 20 20" id="flags--Spanish" xmlns="http://www.w3.org/2000/svg"><path fill="#FFDA44" d="M20 3.333H0v13.334h20V3.333z"/><path fill="#D80027" d="M20 3.333H0v4.445h20V3.333zm0 8.889H0v4.444h20v-4.444z"/></symbol><symbol fill="none" viewBox="0 0 20 20" id="flags--Swedish" xmlns="http://www.w3.org/2000/svg"><path fill="#0052B4" d="M20 3.333H0v13.334h20V3.333z"/><path fill="#FFDA44" d="M7.5 3.333H5V8.75H0v2.5h5v5.416h2.5V11.25H20v-2.5H7.5V3.333z"/></symbol><symbol fill="none" viewBox="0 0 20 20" id="flags--Turkish" xmlns="http://www.w3.org/2000/svg"><g clip-path="url(#xa)"><path fill="#E30A17" d="M20 3.333H0v13.334h20V3.333z"/><path fill="#fff" d="M7.083 13.333a3.333 3.333 0 1 0 0-6.666 3.333 3.333 0 0 0 0 6.666z"/><path fill="#E30A17" d="M7.917 12.667a2.667 2.667 0 1 0 0-5.334 2.667 2.667 0 0 0 0 5.334z"/><path fill="#fff" d="M9.722 10l3.015.98-1.863-2.565v3.17l1.863-2.565-3.015.98z"/></g><defs><clipPath id="xa"><path fill="#fff" d="M0 0h20v20H0z"/></clipPath></defs></symbol><symbol fill="none" viewBox="0 0 40 40" id="quill" xmlns="http://www.w3.org/2000/svg"><path fill="#095AB3" d="M.86 24.61c0 .646.526 1.171 1.173 1.171h.39v2.344h7.055c.062-1.58.25-3.148.563-4.688H2.033c-.647 0-1.172.525-1.172 1.172zm17.97 3.515v-2.344h.39a1.172 1.172 0 0 0 0-2.343h-6.783a26.984 26.984 0 0 0-.613 4.687h7.005zM.108 30.469c-.04.27-.028-.18-.028 6.797A2.737 2.737 0 0 0 2.814 40H18.44a2.737 2.737 0 0 0 2.735-2.734c0-6.978.011-6.527-.029-6.797H.108z"/><path fill="#095AB3" d="M38.752 0c-14.15 0-25.99 10.033-28.712 23.438h2.397c.175-.79.386-1.572.632-2.344h6.932a19.8 19.8 0 0 0 7.472-1.45c.442-.179.732-.608.732-1.085V15.08l2.725 1.817c.421.281.976.26 1.374-.054a19.89 19.89 0 0 0 7.62-15.671A1.174 1.174 0 0 0 38.751 0z"/></symbol><symbol viewBox="0 0 512 512" id="translate" xmlns="http://www.w3.org/2000/svg"><path d="M479.068 96h-216.32l-22.515 87.1-8.083 57.242 43.329 120.845 6.957 146.639h196.633c18.184 0 32.932-14.748 32.932-32.932V128.932C512 110.748 497.252 96 479.068 96z" fill="#e6e6e6"/><path fill="#3a5bbc" d="M368.696 416l-86.261 91.826L251.882 416l12.466-33.479z"/><path d="M469.565 244.174v-20.87h-79.304v-29.217h-20.87v29.217H297.92v20.87h115.89c-6.446 13.572-17.621 35.215-32.978 58.035-14.132-17.649-23.062-29.931-23.168-30.077l-6.129-8.445-16.892 12.255 6.127 8.445c.477.658 10.876 14.963 27.338 35.3-11.222 13.749-31.808 36.106-42.655 46.952l14.756 14.756c9.362-9.362 28.774-30.214 41.426-45.327 16.459 19.553 32.523 37.194 47.854 52.526l7.378 7.378 14.758-14.755-7.378-7.378C428.408 358 411.728 339.575 394.6 319.04c22.133-31.823 36.48-61.956 42.2-74.866h32.765z" fill="gray"/><path d="M349.329 357.523L368.696 416H32.932C14.734 416 0 401.252 0 383.068V37.106C0 18.922 14.734 4.174 32.932 4.174h199.416L262.748 96l45.607 137.739 40.974 123.784z" fill="#518ef8"/><path d="M149.301 287.374c-42.77 0-77.565-34.795-77.565-77.565s34.795-77.565 77.565-77.565c20.704 0 40.182 8.065 54.845 22.712l-14.749 14.766c-10.723-10.71-24.961-16.608-40.097-16.608-31.263 0-56.696 25.433-56.696 56.696s25.433 56.696 56.696 56.696c27.698 0 50.82-19.967 55.733-46.261h-55.731v-20.87h77.565v10.435c-.001 42.769-34.796 77.564-77.566 77.564z" fill="#fff"/></symbol></svg>