<?xml version="1.0" encoding="utf-8"?><svg xmlns="http://www.w3.org/2000/svg" xmlns:xlink="http://www.w3.org/1999/xlink"><symbol viewBox="0 0 24 24" id="cart" xmlns="http://www.w3.org/2000/svg"><path d="M8.284 24a2.25 2.25 0 100-4.5 2.25 2.25 0 000 4.5zm9 0a2.25 2.25 0 100-4.5 2.25 2.25 0 000 4.5zm5.25-19.5H5.66c-2.475 0-2.025-2.325-2.625-3.3C2.51.45 1.76 0 .784 0c-.45 0-.75.375-.75.75 0 .3.15.525.375.675 1.2.6 1.575 3 1.725 3.825l2.1 10.05c.225 1.125 1.275 1.95 2.475 1.95h12.825c1.275 0 2.4-.9 2.7-2.175L23.96 6.3V6c.075-.75-.525-1.5-1.425-1.5zm-.6 4.275C21.11 12.9 15.56 15.75 11.36 15.75H9.934c-2.4 0-4.425-1.65-4.875-3.975l-.75-3.45C4.084 7.125 4.984 6 6.184 6H19.61c.525 0 1.05.225 1.5.525.3.225.45.45.6.75.3.45.375.975.225 1.5z"/></symbol><symbol viewBox="0 0 16 12" id="check" xmlns="http://www.w3.org/2000/svg"><path d="M10.4 5.175c-.75.7-2.2 2.1-2.95 2.8-1 .95-3.05.95-4.05.05-.7-.6-1.05-1.5-1.7-2.2-.2-.2-.45-.3-.7-.3-.25 0-.5.1-.7.3-.2.2-.3.45-.3.7 0 .25.1.5.3.7.75.75 1.95 1.05 2.75 1.8.9.8 1.3 2.5 2.45 2.5 1.25 0 1.65-1.9 2.55-2.75.75-.7 2.3-2.15 3.05-2.9 1.35-1.3 3.2-1.95 4.55-3.25.25-.25.35-.55.35-.9 0-.3-.1-.65-.35-.9-.25-.25-.55-.35-.9-.35-.3 0-.65.1-.9.35-1.35 1.35-2.15 3.1-3.45 4.35z"/></symbol><symbol viewBox="0 0 16 14" id="heart" xmlns="http://www.w3.org/2000/svg"><path d="M11.75 0c-.45 0-.85.05-1.25.2C8.75.75 9.1.85 8 .85S7.25.75 5.5.2C5.1.1 4.7 0 4.25 0 1.9 0 0 1.9 0 4.25c0 5 3.4 6.9 5.4 8.15C6.25 12.95 7 14 8 14s1.75-1.1 2.6-1.6c2-1.25 5.4-3.15 5.4-8.15C16 1.9 14.1 0 11.75 0zm-8.2 9.9C2.2 8.75 1 7.05 1 4.25 1 2.45 2.45 1 4.25 1c.35 0 .65.05.95.15C6.3 1.5 6.85 3.1 8 3.1s1.7-1.6 2.8-1.95c.3-.1.65-.15.95-.15C13.55 1 15 2.45 15 4.25c0 4.25-8.25 8.4-11.45 5.65z"/></symbol><symbol viewBox="0 0 12 16" id="hourglass" xmlns="http://www.w3.org/2000/svg"><path d="M8.6 9.85c-.55-.4-.85-1.1-.85-1.85s.35-1.45.85-1.85c1.45-1.1 2.9-3.4 2.9-5.15 0-.55-.45-1-1-1h-9C.95 0 .5.45.5 1c0 1.8 1.4 4.05 2.9 5.15.55.4.85 1.1.85 1.85S3.9 9.45 3.4 9.85C1.95 10.95.5 13.25.5 15c0 .55.45 1 1 1h9c.55 0 1-.45 1-1 0-1.8-1.4-4.05-2.9-5.15zm-6.6-7C1.6 2 2.2 1 3.2 1h5.6c.95 0 1.6 1 1.2 1.85-.3.65-.75 1.3-1.3 1.85-.9 1-3.85 1.4-4.85.55-.7-.65-1.4-1.5-1.85-2.4zM6 14.3c-3.9.4-4.1-.95-3.7-1.65.5-.75 1-1.5 1.65-2 .65-.5 1.05-1.2 1.2-2 .05-.4.4-.65.8-.65s.75.25.8.65c.15.8.6 1.5 1.2 2 .3.2.55.5.85.8.95.9 1.05 2.45-2.8 2.85z"/></symbol><symbol viewBox="0 0 20 20" id="menu" xmlns="http://www.w3.org/2000/svg"><path d="M18.667 8c-1.6 0-3.067.667-4.667.667H6C4.4 8.667 2.933 8 1.333 8 .6 8 0 8.6 0 9.333c0 .734.6 1.334 1.333 1.334C2.933 10.667 4.4 10 6 10h8c1.6 0 3.067.667 4.667.667.733 0 1.333-.6 1.333-1.334C20 8.6 19.4 8 18.667 8zM1.333 2.667C2.933 2.667 4.4 2 6 2h8c1.6 0 3.067.667 4.667.667.733 0 1.333-.6 1.333-1.334C20 .6 19.4 0 18.667 0 17.067 0 15.6.667 14 .667H6C4.4.667 2.933 0 1.333 0 .6 0 0 .6 0 1.333c0 .734.6 1.334 1.333 1.334zM18 16c-1.8 0-3.533 1.333-5.333 1.333H6c-1.6 0-3.067-.666-4.667-.666C.6 16.667 0 17.267 0 18s.6 1.333 1.333 1.333c1.6 0 3.067-.666 4.667-.666h6.667C14.467 18.667 16.2 20 18 20c1.133 0 2-.867 2-2s-.867-2-2-2z"/></symbol><symbol viewBox="0 0 16 16" id="reload" xmlns="http://www.w3.org/2000/svg"><path d="M8 13c-.2 0-.4.05-.55.1-1.8.7-4.55.05-5.5-1.6A6.83 6.83 0 011 8c0-1 .25-2.05.65-3C1.85 4.6 3 4.55 3 5c0 .3.2.5.5.5S4 5.3 4 5V2.5c0-.8-.25-1-1-1H.5c-.3 0-.5.2-.5.5s.2.5.5.5c.7 0 .6 1.4.3 2.05C.25 5.65 0 6.85 0 8c0 2.05.8 4.1 2.35 5.65C3.85 15.15 5.85 16 8 16c.85 0 1.5-.65 1.5-1.5S8.85 13 8 13zm7.5.5c-.7 0-.6-1.4-.3-2.05.55-1.1.8-2.3.8-3.45 0-2.05-.8-4.1-2.35-5.65C12.15.85 10.15 0 8 0c-.85 0-1.5.65-1.5 1.5S7.15 3 8 3c.2 0 .4-.05.55-.1 1.8-.7 4.55-.05 5.5 1.6.65 1.1.95 2.3.95 3.5 0 1-.25 2.05-.65 3-.2.4-1.35.45-1.35 0 0-.3-.2-.5-.5-.5s-.5.2-.5.5v2.5c0 .8.25 1 1 1h2.5c.3 0 .5-.2.5-.5s-.2-.5-.5-.5z"/></symbol><symbol viewBox="0 0 20 20" id="search" xmlns="http://www.w3.org/2000/svg"><path d="M18.467 16.188c-.688-.125-1.375-.313-1.875-.688-.438-.375-1-.875-1.813-1.688-1.062-1.062-.312-3.25-.062-4.25.187-.687.312-1.374.312-2.062 0-4.125-3.375-7.5-7.5-7.5a7.462 7.462 0 00-5.312 2.188A7.462 7.462 0 00.029 7.5c0 4.125 3.375 7.5 7.5 7.5.75 0 1.438-.125 2.063-.313.625-.187 1.687-.5 2.625-.5.625 0 1.187.126 1.625.563.875.875 1.437 1.438 1.75 1.875.437.563.5 1.313.687 2 .25.813.938 1.375 1.813 1.375.5 0 1-.188 1.312-.563.313-.312.563-.812.563-1.312.062-1-.625-1.75-1.5-1.938zm-13.938-3.25a6.26 6.26 0 01-3.25-5.5c0-1.688.625-3.25 1.813-4.438 1.187-1.188 2.75-1.813 4.437-1.813 3.125 0 5.75 2.313 6.188 5.313.562 3.688-5.875 8.25-9.188 6.438z"/></symbol><symbol viewBox="0 0 16 16" id="star" xmlns="http://www.w3.org/2000/svg"><path d="M16 6.675c0-.1 0-.2-.05-.25-.1-.4-.4-.65-.8-.7l-2.8-.5c-.95-.15-1.75-.8-2.2-1.65l-1.25-2.5c-.15-.35-.5-.55-.9-.55s-.75.2-.9.55l-1.25 2.5c-.45.85-1.25 1.45-2.2 1.65l-2.8.5c-.4.05-.7.35-.8.7 0 .1-.05.2-.05.25 0 .3.1.55.35.75l1.75 1.5c.8.7 1.2 1.75 1 2.8l-.45 2.55c-.05.35.1.75.4 1 .2.15.4.2.6.2.15 0 .3-.05.45-.1l2.6-1.25c.45-.2.9-.3 1.35-.3.45 0 .95.1 1.35.3l2.6 1.25c.15.05.3.1.45.1.2 0 .45-.05.6-.2.3-.25.45-.6.4-1l-.45-2.55c-.2-1.05.2-2.1 1-2.8l1.75-1.5c.15-.2.25-.45.25-.75zm-12 5.65c0-1.1-.15-3.25-1.25-4.15-.7-.6-.4-1.75.55-1.9l.55-.1c1.25-.2 2.35-1.05 2.9-2.15l.3-.6c.2-.4.6-.6 1-.6s.8.2 1 .6l.3.6c.5 1.05 1.45 1.85 2.6 2.1.55.1.75.4.85.75.95 3.1-8.75 8.5-8.8 5.45z"/></symbol><symbol viewBox="0 0 20 24" id="user" xmlns="http://www.w3.org/2000/svg"><path d="M11.162 12h-2.25C4.187 12 .287 15.9.287 20.625v.825A2.529 2.529 0 002.837 24h14.325a2.529 2.529 0 002.55-2.55v-.825C19.787 15.9 15.887 12 11.162 12zm-4.65 10.5c-3.6 0-4.875-1.725-4.575-3.225.675-3.3 3.525-5.775 6.975-5.775h2.25c2.475 0 4.575 1.275 5.925 3.15 1.65 2.325-4.275 5.85-10.575 5.85zm3.525-12a5.218 5.218 0 005.25-5.25A5.218 5.218 0 0010.037 0a5.218 5.218 0 00-5.25 5.25 5.218 5.218 0 005.25 5.25zm0-9c1.65 0 3.075 1.125 3.6 2.625.75 2.25-4.2 5.4-5.85 4.125-.9-.75-1.5-1.8-1.5-3 0-2.1 1.65-3.75 3.75-3.75z"/></symbol></svg>