<?xml version="1.0" encoding="utf-8"?><svg xmlns="http://www.w3.org/2000/svg" xmlns:xlink="http://www.w3.org/1999/xlink"><symbol viewBox="0 0 14 14" id="arrow-pointing-down" xmlns="http://www.w3.org/2000/svg"><path d="M1.285 6.99l.578.577c.2.19.434.285.7.285a.943.943 0 0 0 .694-.285L5.52 5.303v6.407h2.96V5.303l2.264 2.264c.19.19.421.285.694.285.266 0 .5-.095.7-.285l.57-.577A.956.956 0 0 0 13 6.289a.915.915 0 0 0-.293-.694L7.693.574A.943.943 0 0 0 7 .289c-.267 0-.5.095-.7.285L1.284 5.595c-.19.19-.285.633-.285.905 0 .267.095.29.285.49z"/></symbol><symbol viewBox="0 0 24 24" id="facebook" xmlns="http://www.w3.org/2000/svg"><path fill-rule="evenodd" d="M1 0a1 1 0 0 0-1 1v22a1 1 0 0 0 1 1h11.781v-9.27H9.657v-3.785h3.124V7.766a4.185 4.185 0 0 1 4.186-4.185h3.266v3.403h-2.337a1.33 1.33 0 0 0-1.33 1.33v2.63h3.608l-.498 3.785h-3.11V24H23a1 1 0 0 0 1-1V1a1 1 0 0 0-1-1H1z" clip-rule="evenodd" opacity=".8"/></symbol><symbol viewBox="0 0 96 37" id="footer-decor" xmlns="http://www.w3.org/2000/svg"><path fill-rule="evenodd" clip-rule="evenodd" d="M0 0h96C84.166 0 78.083 9.25 72 18.5 65.917 27.75 59.834 37 48 37c-11.732 0-17.607-9.091-23.533-18.26C18.438 9.41 12.356 0 0 0z"/></symbol><symbol viewBox="0 0 16 13" id="hamburger" xmlns="http://www.w3.org/2000/svg"><path d="M0 .615C0 .275.276 0 .615 0h8.616c.34 0 .615.276.615.615v1.231c0 .34-.275.616-.615.616H.615A.615.615 0 0 1 0 1.846V.616zm0 4.923c0-.34.276-.615.615-.615h14.77c.34 0 .615.276.615.615V6.77c0 .34-.275.616-.615.616H.615A.615.615 0 0 1 0 6.769V5.54zm0 4.923c0-.34.276-.615.615-.615H13.54c.34 0 .615.276.615.615v1.231c0 .34-.276.616-.615.616H.615A.615.615 0 0 1 0 11.692v-1.23z"/></symbol><symbol viewBox="0 0 16 16" id="icon_ionicons_bag" xmlns="http://www.w3.org/2000/svg"><path fill-rule="evenodd" d="M14.857 4.571h-2.286v-.16A4.397 4.397 0 0 0 8.161 0h-.286C5.429 0 3.429 1.964 3.429 4.41v.161H1.143L0 16h16L14.857 4.571zm-10.286-.16c0-1.811 1.493-3.268 3.304-3.268h.285a3.26 3.26 0 0 1 3.268 3.268v.16H4.57v-.16zM1.28 14.857l.889-9.143h1.26v1.297A1.142 1.142 0 1 0 5.143 8a1.14 1.14 0 0 0-.57-.99V5.714h6.856v1.297a1.142 1.142 0 1 0 1.714.99 1.14 1.14 0 0 0-.57-.99V5.714h1.264l.889 9.143H1.279z" clip-rule="evenodd"/><mask id="ea" width="16" height="16" x="0" y="0" maskUnits="userSpaceOnUse"><path fill-rule="evenodd" d="M14.857 4.571h-2.286v-.16A4.397 4.397 0 0 0 8.161 0h-.286C5.429 0 3.429 1.964 3.429 4.41v.161H1.143L0 16h16L14.857 4.571zm-10.286-.16c0-1.811 1.493-3.268 3.304-3.268h.285a3.26 3.26 0 0 1 3.268 3.268v.16H4.57v-.16z" clip-rule="evenodd"/></mask><g mask="url(#ea)"><path d="M0 0h16v16H0V0z"/></g></symbol><symbol viewBox="0 0 24 24" id="instagram" xmlns="http://www.w3.org/2000/svg"><g opacity=".8"><path d="M14.122 10.458a2.622 2.622 0 0 0-2.131-1.104c-.876 0-1.656.438-2.132 1.104A2.702 2.702 0 0 0 9.364 12a2.632 2.632 0 0 0 2.627 2.627A2.632 2.632 0 0 0 14.617 12c0-.571-.19-1.104-.495-1.542z"/><path d="M17.201 10.477c-.654 0-1.145.728-1.121 1.382l.003.14a4.098 4.098 0 0 1-4.092 4.093 4.086 4.086 0 0 1-4.09-4.234c.023-.653-.467-1.38-1.121-1.38a.88.88 0 0 0-.88.879v5.23c0 .8.704 1.503 1.504 1.503h9.173c.8 0 1.504-.704 1.504-1.503v-5.23a.88.88 0 0 0-.88-.88zm.195-4.225h-1.208a1 1 0 0 0-1 1v.532a1 1 0 0 0 1 1h.512a1 1 0 0 0 1-1V6.538a.287.287 0 0 0-.304-.286z"/><path d="M17.967.01H.999a1 1 0 0 0-.999 1v21.98a1 1 0 0 0 1 1h22a1 1 0 0 0 1-.998V1.01a1 1 0 0 0-.999-1h-5.034zm1.446 10.449v6.128c0 1.599-1.237 2.836-2.836 2.836H7.404c-1.6 0-2.836-1.237-2.836-2.836V7.413c0-1.598 1.237-2.835 2.836-2.835h9.173c1.6 0 2.836 1.237 2.836 2.835v3.046z"/></g></symbol><symbol viewBox="0 0 20 20" id="like" xmlns="http://www.w3.org/2000/svg"><g clip-path="url(#ga)"><path d="M3.265 6.533H.653A.654.654 0 0 0 0 7.186V18.94c0 .36.293.652.653.652h2.612c.36 0 .653-.292.653-.652V7.186a.654.654 0 0 0-.653-.653zm15.105 0c-.104-.017-5.028 0-5.028 0l.688-1.876c.474-1.296.167-3.274-1.15-3.978-.429-.229-1.028-.344-1.51-.222-.277.07-.52.253-.666.498-.167.283-.15.613-.209.926-.15.795-.526 1.55-1.107 2.117-1.014.989-4.163 3.841-4.163 3.841v10.448h10.882c1.469 0 2.431-1.64 1.707-2.92a1.977 1.977 0 0 0 .653-2.612 1.977 1.977 0 0 0 .653-2.612c1.49-.954.991-3.315-.75-3.61z"/></g><defs><clipPath id="ga"><path d="M0 0h20v20H0z"/></clipPath></defs></symbol><symbol viewBox="0 0 24 24" id="linkedin" xmlns="http://www.w3.org/2000/svg"><path d="M1 0a1 1 0 0 0-1 1v22a1 1 0 0 0 1 1h22a1 1 0 0 0 1-1V1a1 1 0 0 0-1-1H1zm7.057 19.064H6.241a1 1 0 0 1-1-1v-7.83a1 1 0 0 1 1-1h.816a1 1 0 0 1 1 1v8.83zM6.677 8.113c-.944 0-1.713-.713-1.713-1.588 0-.876.769-1.589 1.713-1.589.945 0 1.713.713 1.713 1.588 0 .876-.768 1.589-1.713 1.589zm12.359 9.95a1 1 0 0 1-1 1h-.885a1 1 0 0 1-1-1v-4.83c0-.011.042-.937-.482-1.49-.262-.275-.621-.414-1.07-.414-.983 0-1.542.616-1.83 1.1a.85.85 0 0 0-.11.436v5.199a1 1 0 0 1-1 1h-.816a1 1 0 0 1-1-1v-7.83a1 1 0 0 1 1-1h1.548c.148 0 .268.12.268.268 0 .225.265.353.453.229.802-.531 1.672-.81 2.547-.81 2.671 0 3.377 2.087 3.377 3.19v5.953z" opacity=".8"/></symbol><symbol viewBox="0 0 16 16" id="search" xmlns="http://www.w3.org/2000/svg"><path d="M11.429 10.057h-.732l-.274-.274a5.723 5.723 0 0 0 1.463-3.84A5.931 5.931 0 0 0 5.943 0 5.931 5.931 0 0 0 0 5.943a5.931 5.931 0 0 0 5.943 5.943 5.723 5.723 0 0 0 3.84-1.463l.274.274v.732L14.63 16 16 14.629l-4.571-4.572zm-5.486 0a4.097 4.097 0 0 1-4.114-4.114 4.097 4.097 0 0 1 4.114-4.114 4.097 4.097 0 0 1 4.114 4.114 4.097 4.097 0 0 1-4.114 4.114z"/></symbol><symbol viewBox="0 0 24 24" id="twitter" xmlns="http://www.w3.org/2000/svg"><path fill-rule="evenodd" d="M1 0a1 1 0 0 0-1 1v22a1 1 0 0 0 1 1h22a1 1 0 0 0 1-1V1a1 1 0 0 0-1-1H1zm17.616 9.052c0-.147-.003-.294-.01-.44a6.921 6.921 0 0 0 1.702-1.765 6.817 6.817 0 0 1-1.958.537 3.418 3.418 0 0 0 1.498-1.886 6.822 6.822 0 0 1-2.164.827 3.409 3.409 0 0 0-5.809 3.11A9.678 9.678 0 0 1 4.85 5.871a3.407 3.407 0 0 0 1.055 4.551 3.395 3.395 0 0 1-1.544-.426v.043a3.411 3.411 0 0 0 2.734 3.343 3.418 3.418 0 0 1-1.54.058 3.412 3.412 0 0 0 3.185 2.367 6.839 6.839 0 0 1-5.047 1.412 9.647 9.647 0 0 0 5.226 1.531c6.27 0 9.698-5.194 9.698-9.699z" clip-rule="evenodd" opacity=".8"/></symbol></svg>