<?xml version="1.0" encoding="utf-8"?><svg xmlns="http://www.w3.org/2000/svg" xmlns:xlink="http://www.w3.org/1999/xlink"><symbol viewBox="0 0 24 24" id="cart" xmlns="http://www.w3.org/2000/svg"><path d="M17 18a2 2 0 11-2 2c0-1.11.89-2 2-2zM1 2h3.27l.94 2H20a1 1 0 011 1c0 .17-.05.34-.12.5l-3.58 6.47c-.34.61-1 1.03-1.75 1.03H8.1l-.9 1.63-.03.12a.25.25 0 00.25.25H19v2H7a2 2 0 01-2-2c0-.35.09-.68.24-.96l1.36-2.45L3 4H1V2zm6 16a2 2 0 11-2 2c0-1.11.89-2 2-2zm9-7l2.78-5H6.14l2.36 5H16z"/></symbol><symbol viewBox="0 0 24 24" id="close" xmlns="http://www.w3.org/2000/svg"><path d="M19 6.41L17.59 5 12 10.59 6.41 5 5 6.41 10.59 12 5 17.59 6.41 19 12 13.41 17.59 19 19 17.59 13.41 12 19 6.41z"/></symbol><symbol viewBox="0 0 26 26" id="double-arrow" xmlns="http://www.w3.org/2000/svg"><path d="M.046 24.418l2.084 2.084 10.837-10.836 10.836 10.836 2.084-2.084-12.92-12.92z"/><path d="M.046 13.418l2.084 2.084L12.967 4.666l10.836 10.836 2.084-2.084L12.967.498z"/></symbol><symbol viewBox="0 0 24 19" id="hamburger" xmlns="http://www.w3.org/2000/svg"><rect y=".5" width="24" height="2" rx="1"/><rect y="8.5" width="24" height="2" rx="1"/><rect y="16.5" width="24" height="2" rx="1"/></symbol><symbol viewBox="0 0 20 20" id="search" xmlns="http://www.w3.org/2000/svg"><path d="M19.361 18.217l-4.76-4.95a8.05 8.05 0 001.895-5.192C16.496 3.623 12.873 0 8.42 0 3.968 0 .346 3.623.346 8.075c0 4.453 3.622 8.075 8.075 8.075a7.99 7.99 0 004.626-1.461l4.796 4.988c.2.208.47.323.76.323a1.054 1.054 0 00.76-1.783zM8.421 2.107a5.975 5.975 0 015.968 5.968 5.975 5.975 0 01-5.968 5.969 5.975 5.975 0 01-5.969-5.969 5.975 5.975 0 015.969-5.968z"/></symbol><symbol viewBox="0 0 34 34" id="slider-arrow" xmlns="http://www.w3.org/2000/svg"><path d="M21.83 23.488L15.343 17l6.489-6.502-2-1.998-8.5 8.5 8.5 8.5 1.998-2.012z"/></symbol></svg>