<svg width="800" height="524" viewBox="0 0 800 524" fill="none" xmlns="http://www.w3.org/2000/svg">
<g clip-path="url(#clip0)">
<path d="M770.555 311.573C758.192 306.431 744.042 306.717 730.536 305.182C717.029 303.647 702.451 299.22 695.84 288.473C689.766 278.619 692.303 265.91 698.734 256.234C705.166 246.559 714.885 239.097 724.033 231.421C744.829 213.963 763.695 193.827 774.057 169.942C784.419 146.058 785.348 117.889 771.484 95.5033C757.621 73.1181 727.284 58.5873 699.878 65.1922C686.228 68.4768 674.508 76.3313 661.645 81.6152C648.781 86.8991 632.773 89.3625 621.125 82.0793C609.584 74.8675 606.511 61.0151 599.9 49.8403C588.537 30.6326 565.741 18.7438 542.3 13.6741C508.105 6.31942 470.765 12.0318 441.108 29.0617C411.486 46.1273 389.94 74.332 382.865 105.464L384.473 97.931C352.743 107.535 321.228 85.7566 293.464 68.9052C256.553 46.5557 213.568 30.704 169.153 30.8825C124.774 31.061 79.1802 49.0906 54.954 82.7577C30.7635 116.389 32.8717 165.658 64.9589 193.399C76.3931 203.288 90.7573 210.107 101.763 220.389C112.768 230.636 120.093 246.488 112.982 259.233C103.049 277.084 75.3569 276.085 54.0607 281.44C23.1884 289.152 -0.10878 316.928 -0.00158471 345.882C0.105611 374.872 23.5457 402.47 54.4895 410.039C65.6378 412.752 77.608 413.145 87.8987 417.893C98.1895 422.606 106.265 434.031 101.191 443.42C99.0828 447.348 95.0451 450.168 92.7583 454.024C87.2913 463.235 93.9731 475.231 103.942 480.444C113.947 485.656 126.06 485.906 137.602 486.013C300.432 487.584 463.262 489.119 626.056 490.69C650.211 490.904 675.044 491.047 697.627 483.228C727.892 472.768 750.224 449.347 769.126 425.534C783.205 407.79 796.461 388.511 799.462 366.875C802.464 345.204 792.459 320.712 770.555 311.573Z" fill="white"/>
<path d="M201.992 429.353C201.992 429.353 156.219 236.205 61.3154 130.848C54.9194 123.743 43.2351 126.457 40.7339 135.668C23.9042 197.111 -8.4331 383.512 201.992 429.353Z" fill="#BDD0FB"/>
<path d="M182.732 416.893C183.196 417.357 182.589 418.072 182.053 417.679C162.543 403.184 87.0418 331.887 59.2067 189.828C59.0995 189.364 59.7784 189.185 59.9214 189.649C69.3546 222.567 108.088 343.99 182.732 416.893Z" fill="url(#paint0_linear)"/>
<path d="M3.35884 303.504C2.42981 302.933 2.93005 301.54 4.00201 301.647C21.0104 303.504 82.8622 313.965 129.278 371.017C171.763 423.213 192.988 466.805 200.241 483.336C201.671 486.62 199.062 490.19 195.489 489.869C174.443 487.763 115.771 478.837 91.2234 443.028C61.8876 400.292 46.8802 330.388 3.35884 303.504Z" fill="#BDD0FB"/>
<path opacity="0.5" d="M53.3125 333.029C53.3125 333.029 108.697 353.915 195.775 483.871C195.775 483.871 101.372 357.914 53.3125 333.029Z" fill="white"/>
<path d="M615.658 0.856753C615.122 -0.428523 613.264 -0.21431 613.05 1.14237C609.941 22.8136 601.473 100.573 632.738 135.882C669.256 177.154 695.841 186.686 687.301 255.556C678.868 323.711 656.071 444.527 665.862 480.55C666.04 481.229 666.612 481.729 667.291 481.871C668.434 482.086 669.47 481.157 669.399 479.979C668.792 469.34 666.719 423.356 673.865 381.441C682.012 333.708 717.244 214.784 700.843 122.03C685.55 35.1665 628.879 33.2029 615.658 0.856753Z" fill="#BDD0FB"/>
<path d="M630.131 38.3436C633.133 40.807 635.92 43.4847 638.671 46.2338C641.423 48.9471 644.067 51.8033 646.639 54.6952C649.212 57.587 651.713 60.586 654.107 63.585C656.501 66.6197 658.86 69.7258 661.111 72.8675C670.115 85.5061 677.762 99.1443 683.8 113.425C686.838 120.566 689.446 127.885 691.59 135.346C692.626 139.095 693.627 142.844 694.413 146.628L694.734 148.056L695.02 149.484C695.199 150.448 695.413 151.377 695.592 152.34C695.914 154.268 696.271 156.161 696.557 158.089C697.736 165.764 698.343 173.512 698.451 181.259C698.522 189.007 698.093 196.754 697.164 204.466C697.128 204.608 697.021 204.715 696.843 204.715C696.7 204.68 696.592 204.573 696.592 204.394C697.307 196.718 697.629 189.007 697.414 181.295C697.128 173.583 696.45 165.907 695.199 158.303C694.913 156.411 694.556 154.518 694.198 152.626C694.02 151.698 693.805 150.734 693.627 149.806L693.341 148.378L693.019 146.985C692.197 143.236 691.161 139.523 690.089 135.81C687.91 128.42 685.337 121.173 682.3 114.103C680.799 110.569 679.191 107.07 677.476 103.607C675.761 100.144 673.974 96.7523 672.08 93.3963C668.293 86.6843 664.184 80.1508 659.789 73.8315C657.609 70.654 655.322 67.5479 652.964 64.5132C650.641 61.4429 648.212 58.4439 645.71 55.4806C640.744 49.5898 635.527 43.8417 629.917 38.5935C629.845 38.5221 629.845 38.415 629.917 38.3436C629.953 38.2722 630.06 38.2722 630.131 38.3436Z" fill="url(#paint1_linear)"/>
<path d="M177.871 256.305C177.871 256.305 196.13 117.317 159.933 23.9561C157.504 17.6725 149.107 16.5657 145.14 21.9925C118.592 58.3372 50.4868 173.298 177.871 256.305Z" fill="#91B3FA"/>
<path opacity="0.5" d="M168.295 243.239C168.474 243.667 167.902 243.988 167.652 243.596C158.398 229.136 126.454 163.159 143.712 62.3716C143.783 62.0503 144.248 62.086 144.212 62.443C142.211 86.542 137.316 176.44 168.295 243.239Z" fill="white"/>
<path d="M160.755 132.312L664.538 123.815C684.834 123.458 701.092 140.845 699.877 161.552L682.547 459.486C681.582 475.802 668.469 488.584 652.497 488.726L168.259 493.51C156.289 493.618 146.427 483.978 145.962 471.768L134.385 160.802C133.813 145.45 145.712 132.562 160.755 132.312Z" fill="url(#paint2_linear)"/>
<path d="M168.473 139.917L659.107 131.812C678.866 131.491 694.731 148.021 693.552 167.729L676.651 451.203C675.722 466.734 662.93 478.872 647.387 479.015L175.798 483.549C164.149 483.657 154.537 474.481 154.073 462.878L142.782 167.014C142.246 152.377 153.823 140.167 168.473 139.917Z" fill="#A3B9FE"/>
<path d="M660.251 131.598L167.58 139.703C152.859 139.953 141.21 152.234 141.782 166.944L142.568 187.794H693.624L694.839 167.658C695.983 147.843 680.082 131.241 660.251 131.598Z" fill="#4D4FFA"/>
<g opacity="0.85">
<path opacity="0.85" d="M183.051 149.771C183.051 152.199 181.05 154.198 178.62 154.198C176.19 154.198 174.189 152.199 174.189 149.771C174.189 147.343 176.19 145.344 178.62 145.344C181.086 145.344 183.051 147.343 183.051 149.771Z" fill="#7D97F4"/>
<path opacity="0.85" d="M183.051 162.766C183.051 165.194 181.05 167.193 178.62 167.193C176.19 167.193 174.189 165.194 174.189 162.766C174.189 160.338 176.19 158.339 178.62 158.339C181.086 158.339 183.051 160.302 183.051 162.766Z" fill="#7D97F4"/>
<path opacity="0.85" d="M183.051 175.726C183.051 178.154 181.05 180.153 178.62 180.153C176.19 180.153 174.189 178.154 174.189 175.726C174.189 173.298 176.19 171.299 178.62 171.299C181.086 171.299 183.051 173.298 183.051 175.726Z" fill="#7D97F4"/>
</g>
<path d="M309.222 411.966L310.402 464.091C310.509 469.59 314.975 473.981 320.478 473.981H549.269C554.843 473.981 559.345 469.482 559.345 463.913V416.322C559.345 410.895 555.022 406.432 549.591 406.254L319.62 401.72C313.868 401.541 309.115 406.218 309.222 411.966Z" fill="#91B3FA"/>
<path d="M320.729 418.857L323.731 465.269C323.838 467.768 325.946 469.732 328.447 469.696L544.803 467.483C547.34 467.447 549.341 465.376 549.341 462.842V425.069C549.341 422.605 547.412 420.57 544.946 420.463L325.553 414.037C322.837 413.894 320.586 416.143 320.729 418.857Z" fill="#BDD0FB"/>
<path d="M330.805 424.962V429.639C330.805 431.281 332.163 432.638 333.806 432.602L532.761 430.817C534.369 430.781 535.691 429.461 535.691 427.854C535.691 426.247 534.405 424.926 532.797 424.891L333.842 421.999C332.198 421.963 330.805 423.32 330.805 424.962Z" fill="url(#paint3_linear)"/>
<path d="M332.449 442.67V446.954C332.449 448.632 333.843 449.953 335.522 449.918L529.296 446.312C530.904 446.24 532.154 444.955 532.154 443.348V441.992C532.154 440.349 530.832 439.028 529.189 439.028L335.415 439.671C333.771 439.742 332.449 441.063 332.449 442.67Z" fill="url(#paint4_linear)"/>
<path d="M559.344 333.636L558.164 385.761C558.057 391.259 553.591 395.651 548.088 395.651H319.297C313.723 395.651 309.221 391.152 309.221 385.583V337.992C309.221 332.565 313.544 328.102 318.975 327.924L548.946 323.39C554.698 323.211 559.451 327.888 559.344 333.636Z" fill="#91B3FA"/>
<path d="M547.839 340.526L544.837 386.939C544.73 389.438 542.622 391.402 540.121 391.366L323.764 389.153C321.228 389.117 319.227 387.046 319.227 384.511V346.739C319.227 344.275 321.156 342.24 323.622 342.133L543.015 335.707C545.731 335.564 547.982 337.813 547.839 340.526Z" fill="#BDD0FB"/>
<path d="M537.761 346.632V351.309C537.761 352.951 536.404 354.308 534.76 354.272L335.805 352.487C334.197 352.451 332.875 351.13 332.875 349.524C332.875 347.917 334.161 346.596 335.769 346.561L534.724 343.669C536.368 343.633 537.761 344.954 537.761 346.632Z" fill="url(#paint5_linear)"/>
<path d="M536.117 364.34V368.624C536.117 370.302 534.724 371.623 533.044 371.587L339.271 367.981C337.663 367.91 336.412 366.625 336.412 365.018V363.662C336.412 362.019 337.734 360.698 339.378 360.698L533.152 361.341C534.795 361.377 536.117 362.698 536.117 364.34Z" fill="url(#paint6_linear)"/>
<path d="M259.306 234.456L480.593 233.492C482.701 233.456 484.416 235.205 484.416 237.312L483.952 314.714C483.952 316.856 482.165 318.534 480.057 318.463C460.548 317.892 260.556 315.321 256.733 315.464C252.946 315.607 255.018 254.52 255.554 238.097C255.625 236.062 257.269 234.456 259.306 234.456Z" fill="url(#paint7_linear)"/>
<path d="M480.164 315.285C467.694 314.928 348.314 313.429 290.928 312.714C274.134 312.5 262.021 312.357 258.841 312.322H258.698L258.662 312.179C257.305 304.539 257.34 278.976 258.734 238.24C258.734 237.919 259.02 237.669 259.341 237.633L480.629 236.669C480.843 236.669 480.986 236.776 481.057 236.847C481.165 236.955 481.236 237.133 481.236 237.276L480.771 314.678C480.771 314.999 480.486 315.285 480.164 315.285ZM258.984 311.929C262.379 311.965 274.384 312.143 290.928 312.322C348.314 313.036 467.694 314.535 480.164 314.892H480.2C480.343 314.892 480.45 314.785 480.45 314.642L480.914 237.24C480.914 237.169 480.879 237.097 480.843 237.062C480.807 237.026 480.736 236.99 480.664 236.99L259.377 237.954C259.234 237.954 259.127 238.061 259.127 238.204C257.698 278.655 257.662 304.146 258.984 311.929Z" fill="white"/>
<path opacity="0.73" d="M268.773 254.413C268.773 256.52 269.488 258.198 270.346 258.198H355.102C355.959 258.198 356.674 256.484 356.674 254.413C356.674 252.307 355.959 250.629 355.102 250.629H270.346C269.488 250.629 268.773 252.343 268.773 254.413Z" fill="white"/>
<path opacity="0.73" d="M268.773 267.337C268.773 269.444 269.488 271.122 270.346 271.122H355.102C355.959 271.122 356.674 269.408 356.674 267.337C356.674 265.231 355.959 263.553 355.102 263.553H270.346C269.488 263.553 268.773 265.266 268.773 267.337Z" fill="white"/>
<path opacity="0.73" d="M268.773 280.262C268.773 282.368 269.488 284.046 270.346 284.046H355.102C355.959 284.046 356.674 282.333 356.674 280.262C356.674 278.156 355.959 276.478 355.102 276.478H270.346C269.488 276.478 268.773 278.191 268.773 280.262Z" fill="white"/>
<path opacity="0.73" d="M268.773 293.186C268.773 295.292 269.488 296.97 270.346 296.97H355.102C355.959 296.97 356.674 295.257 356.674 293.186C356.674 291.079 355.959 289.401 355.102 289.401H270.346C269.488 289.401 268.773 291.079 268.773 293.186Z" fill="white"/>
<path opacity="0.73" d="M378.15 271.837C386.3 271.837 392.907 265.235 392.907 257.092C392.907 248.948 386.3 242.347 378.15 242.347C370 242.347 363.393 248.948 363.393 257.092C363.393 265.235 370 271.837 378.15 271.837Z" fill="white"/>
<path opacity="0.73" d="M414.775 271.837C422.925 271.837 429.532 265.235 429.532 257.092C429.532 248.948 422.925 242.347 414.775 242.347C406.625 242.347 400.018 248.948 400.018 257.092C400.018 265.235 406.625 271.837 414.775 271.837Z" fill="white"/>
<path opacity="0.73" d="M465.808 261.001C467.681 253.076 462.769 245.134 454.838 243.263C446.906 241.392 438.958 246.299 437.085 254.224C435.212 262.15 440.123 270.091 448.055 271.963C455.987 273.834 463.935 268.926 465.808 261.001Z" fill="white"/>
<g opacity="0.64">
<path opacity="0.64" d="M390.155 278.084H366.143C364.643 278.084 363.428 279.298 363.428 280.797C363.428 282.297 364.643 283.511 366.143 283.511H390.155C391.656 283.511 392.871 282.297 392.871 280.797C392.871 279.298 391.656 278.084 390.155 278.084Z" fill="url(#paint8_linear)"/>
<path opacity="0.64" d="M426.78 278.084H402.768C401.268 278.084 400.053 279.298 400.053 280.797C400.053 282.297 401.268 283.511 402.768 283.511H426.78C428.281 283.511 429.496 282.297 429.496 280.797C429.531 279.298 428.317 278.084 426.78 278.084Z" fill="url(#paint9_linear)"/>
<path opacity="0.64" d="M439.429 283.546H463.441C464.942 283.546 466.157 282.332 466.157 280.833C466.157 279.333 464.942 278.119 463.441 278.119H439.429C437.929 278.119 436.714 279.333 436.714 280.833C436.678 282.296 437.893 283.546 439.429 283.546Z" fill="url(#paint10_linear)"/>
<path opacity="0.64" d="M390.155 286.545H366.143C364.643 286.545 363.428 287.759 363.428 289.258V305.324C363.428 306.824 364.643 308.038 366.143 308.038H390.155C391.656 308.038 392.871 306.824 392.871 305.324V289.258C392.871 287.795 391.656 286.545 390.155 286.545Z" fill="url(#paint11_linear)"/>
<path opacity="0.64" d="M426.78 286.545H402.768C401.268 286.545 400.053 287.759 400.053 289.258V305.324C400.053 306.824 401.268 308.038 402.768 308.038H426.78C428.281 308.038 429.496 306.824 429.496 305.324V289.258C429.531 287.795 428.317 286.545 426.78 286.545Z" fill="url(#paint12_linear)"/>
<path opacity="0.64" d="M463.44 286.545H439.429C437.928 286.545 436.713 287.759 436.713 289.258V305.324C436.713 306.824 437.928 308.038 439.429 308.038H463.44C464.941 308.038 466.156 306.824 466.156 305.324V289.258C466.156 287.795 464.941 286.545 463.44 286.545Z" fill="url(#paint13_linear)"/>
</g>
<path d="M248.512 519.787C254.122 520.037 259.553 519.895 263.162 519.68C259.874 517.324 252.263 512.219 245.903 510.183L241.544 509.934C241.544 509.934 240.079 512.183 239.543 517.324C240.258 518.252 242.366 519.502 248.512 519.787Z" fill="url(#paint14_linear)"/>
<path d="M263.233 519.716L263.197 519.68C259.588 519.859 254.157 520.037 248.547 519.787C242.401 519.502 240.293 518.252 239.579 517.359C239.543 517.609 239.543 517.824 239.507 518.073C239.4 519.216 240.257 520.18 241.401 520.287C246.01 520.644 257.373 521.429 262.876 521.144C263.555 521.072 263.805 520.144 263.233 519.716Z" fill="url(#paint15_linear)"/>
<path d="M208.386 518.287C207.993 515.646 207.314 511.861 206.814 510.897C206.028 509.362 203.277 510.897 203.277 510.897C203.277 510.897 201.347 511.79 200.49 513.289C199.918 514.253 198.381 516.931 197.31 518.787C197.202 519.002 197.131 519.216 197.131 519.43L208.065 519.823C208.351 519.359 208.494 518.823 208.386 518.287Z" fill="url(#paint16_linear)"/>
<path d="M197.131 519.395C197.167 520.001 197.631 520.573 198.346 520.608L206.135 520.823C206.957 520.858 207.672 520.43 208.065 519.787L197.131 519.395Z" fill="url(#paint17_linear)"/>
<path d="M209.244 502.115C209.137 502.436 207.743 509.291 207.1 512.29C206.921 513.111 206.171 513.718 205.349 513.647C204.885 513.611 204.349 513.575 203.777 513.504C202.777 513.361 202.026 512.54 201.99 511.54C201.883 508.898 201.847 503.864 202.812 501.901C204.134 499.223 209.244 502.115 209.244 502.115Z" fill="url(#paint18_linear)"/>
<path d="M240.688 504.078C241.295 504.043 240.437 507.22 241.366 510.29C241.581 511.004 242.081 511.54 242.831 511.54C243.296 511.54 243.868 511.54 244.439 511.504C245.297 511.433 245.976 510.79 246.047 509.933L246.798 501.9L240.688 504.078Z" fill="url(#paint19_linear)"/>
<path d="M257.661 418.786C257.375 420.107 247.835 475.802 247.263 504.614C247.263 505.114 246.906 505.507 246.406 505.578C245.191 505.757 242.833 505.971 240.546 505.542C240.224 505.471 240.01 505.221 239.974 504.9C239.652 499.544 236.937 454.131 240.26 432.746C240.26 432.746 213.104 489.869 208.959 505.614C208.852 506.006 208.494 506.256 208.101 506.221C206.922 506.149 204.528 505.935 202.598 505.257C201.92 505.007 201.526 504.293 201.705 503.579C203.992 494.153 220.143 429.211 231.077 414.895L257.661 418.786Z" fill="url(#paint20_linear)"/>
<path d="M240.223 433.102C240.115 433.102 240.044 433.066 239.972 432.995C239.83 432.852 239.83 432.638 239.972 432.495L243.617 428.782C243.76 428.639 243.974 428.639 244.117 428.782C244.26 428.925 244.26 429.139 244.117 429.282L240.473 432.995C240.401 433.066 240.33 433.102 240.223 433.102Z" fill="url(#paint21_linear)"/>
<path d="M291.284 349.023C285.388 350.666 279.135 350.63 273.204 349.059C265.235 346.988 249.585 343.525 238.901 345.453L238.008 373.337L274.49 377.514L274.812 370.123C274.812 370.123 297.001 366.91 308.971 352.344C306.041 349.166 303.719 345.632 302.254 343.275C299.467 345.703 295.893 347.738 291.284 349.023Z" fill="url(#paint22_linear)"/>
<path d="M315.474 321.533L312.651 320.283C312.651 320.283 312.794 334.314 302.324 343.275C303.753 345.632 306.112 349.166 309.042 352.344C314.938 345.168 318.368 335.242 315.474 321.533Z" fill="url(#paint23_linear)"/>
<path d="M256.374 329.959C256.374 329.959 254.266 342.598 253.98 346.56C253.98 346.56 264.2 349.381 266.88 347.881L266.558 332.601L256.374 329.959Z" fill="url(#paint24_linear)"/>
<path d="M198.31 367.803L288.461 367.196C290.534 367.196 292.213 368.874 292.177 370.909L291.784 420.642C291.784 422.713 290.033 424.355 287.961 424.32L198.81 421.642C196.845 421.571 195.237 419.964 195.237 418L194.629 371.552C194.594 369.517 196.273 367.839 198.31 367.803Z" fill="#91B3FA"/>
<path d="M288.103 421.178L198.916 418.5C198.63 418.5 198.416 418.25 198.416 418.001L197.809 371.552C197.809 371.409 197.844 371.266 197.952 371.195C198.059 371.088 198.166 371.052 198.309 371.052L288.46 370.445C288.603 370.445 288.746 370.481 288.818 370.588C288.925 370.695 288.961 370.802 288.961 370.945L288.567 420.678C288.603 420.928 288.389 421.178 288.103 421.178ZM288.46 370.731L198.309 371.338C198.273 371.338 198.237 371.338 198.202 371.374C198.166 371.409 198.166 371.445 198.166 371.481L198.773 417.929C198.773 418.001 198.845 418.072 198.916 418.108L288.103 420.785C288.174 420.785 288.246 420.714 288.246 420.607L288.639 370.874C288.639 370.838 288.639 370.802 288.603 370.767C288.567 370.767 288.532 370.731 288.46 370.731Z" fill="#BDD0FB"/>
<path d="M203.525 376.479C203.525 378.085 204.454 379.371 205.598 379.371H282.278C283.422 379.371 284.351 378.085 284.351 376.479C284.351 374.872 283.422 373.587 282.278 373.587H205.598C204.454 373.587 203.525 374.908 203.525 376.479Z" fill="#BDD0FB"/>
<path d="M203.884 383.69H236.15C237.293 383.69 238.222 384.619 238.222 385.761V412.395C238.222 413.573 237.258 414.501 236.078 414.466L204.456 413.573C203.348 413.537 202.49 412.645 202.455 411.574L201.812 385.833C201.776 384.654 202.705 383.69 203.884 383.69Z" fill="#BDD0FB"/>
<path d="M244.976 384.369H280.994C281.78 384.369 282.423 385.155 282.423 386.119C282.423 387.083 281.78 387.868 280.994 387.868H244.976C244.19 387.868 243.547 387.083 243.547 386.119C243.547 385.119 244.19 384.369 244.976 384.369Z" fill="#BDD0FB"/>
<path d="M243.547 393.544C243.547 394.508 244.19 395.294 244.976 395.294H281.03C281.816 395.294 282.459 394.508 282.459 393.544V392.473C282.459 391.509 281.816 390.724 280.994 390.724L244.94 391.795C244.154 391.83 243.547 392.616 243.547 393.544Z" fill="#BDD0FB"/>
<path d="M247.869 360.52L238.9 345.454C238.9 345.454 220.177 361.484 214.531 383.762L224.465 390.01C228.538 382.727 235.649 373.052 247.869 360.52Z" fill="url(#paint25_linear)"/>
<path d="M228.287 423.07C227.358 423.034 226.536 422.499 226.143 421.642C225.143 419.428 223.142 415.251 222.106 413.894C222.106 413.894 223.249 413.323 225.286 413.823C227.323 414.287 229.038 413.466 229.109 412.323L219.604 408.253C219.247 407.289 217.889 401.827 224.5 390.01L214.566 383.762C212.458 392.116 212.137 401.327 215.352 410.895C215.352 410.895 217.21 421.784 220.998 423.998C224.786 426.212 230.538 423.105 230.538 423.105L228.287 423.07Z" fill="url(#paint26_linear)"/>
<path d="M267.881 318.32C267.881 318.32 271.276 326.139 271.526 330.209C271.74 334.315 272.633 336.957 267.881 337.778C263.129 338.599 259.163 336.243 256.983 332.173C256.983 332.173 253.588 325.889 254.339 323.319C255.125 320.748 267.881 318.32 267.881 318.32Z" fill="url(#paint27_linear)"/>
<path d="M258.591 329.245H259.198C259.198 329.245 256.732 324.175 258.912 323.283C261.092 322.39 269.667 320.641 271.525 317.606C273.312 314.678 271.704 310.858 269.346 309.823C269.203 309.752 269.024 309.823 268.953 309.966L268.738 310.323C268.595 310.573 268.238 310.537 268.131 310.251C268.059 310.001 267.702 309.93 267.559 310.18C266.988 311.108 265.451 312.572 261.342 313.322C255.482 314.393 251.623 316.749 251.516 320.819C251.516 321.069 251.23 321.212 251.015 321.069C250.587 320.819 249.908 320.676 248.979 321.462C247.371 322.818 248.014 326.317 251.551 329.173C251.73 329.316 251.73 329.566 251.551 329.673C250.908 330.102 249.979 331.066 252.445 332.387C254.982 333.743 256.447 333.6 257.018 333.458C257.161 333.422 257.268 333.279 257.268 333.136L257.054 329.566C257.054 329.388 257.197 329.209 257.376 329.209H258.591V329.245Z" fill="url(#paint28_linear)"/>
<path d="M258.769 329.995C258.769 329.995 257.483 324.997 255.232 326.425C252.981 327.817 256.375 331.994 258.197 332.208L258.769 329.995Z" fill="url(#paint29_linear)"/>
<path d="M304.896 309.823V315.464C304.896 315.464 309.506 321.319 315.473 321.534C315.473 321.534 320.726 321.177 320.547 317.285L312.114 315.678C312.114 315.678 308.577 314.643 307.576 314.107C307.612 314.107 306.862 310.002 304.896 309.823Z" fill="url(#paint30_linear)"/>
<path d="M547.768 524C548.911 524 549.912 523.25 550.126 522.215L587.18 326.21C587.395 325.068 586.537 323.961 585.215 323.747C583.929 323.568 582.678 324.318 582.464 325.496L545.41 521.501C545.195 522.643 546.053 523.75 547.375 523.964C547.518 523.964 547.661 524 547.768 524Z" fill="#91B3FA"/>
<path d="M672.793 524C672.936 524 673.114 524 673.257 523.965C674.543 523.751 675.365 522.608 675.115 521.466L631.415 327.996C631.165 326.853 629.914 326.104 628.592 326.318C627.306 326.532 626.484 327.674 626.734 328.817L670.434 522.287C670.684 523.286 671.685 524 672.793 524Z" fill="#91B3FA"/>
<path d="M576.068 374.658H639.385C640.707 374.658 641.779 373.694 641.779 372.516C641.779 371.338 640.707 370.374 639.385 370.374H576.068C574.746 370.374 573.674 371.338 573.674 372.516C573.674 373.694 574.746 374.658 576.068 374.658Z" fill="#91B3FA"/>
<path d="M577.212 374.658H638.242C639.492 374.658 640.528 373.694 640.528 372.516C640.528 371.338 639.492 370.374 638.242 370.374H577.212C575.961 370.374 574.925 371.338 574.925 372.516C574.889 373.694 575.925 374.658 577.212 374.658Z" fill="#91B3FA"/>
<path d="M576.068 410.074H639.385C640.707 410.074 641.779 409.11 641.779 407.932C641.779 406.754 640.707 405.79 639.385 405.79H576.068C574.746 405.79 573.674 406.754 573.674 407.932C573.674 409.146 574.746 410.074 576.068 410.074Z" fill="#91B3FA"/>
<path d="M570.316 410.074H647.104C648.426 410.074 649.498 409.11 649.498 407.932C649.498 406.754 648.426 405.79 647.104 405.79H570.316C568.994 405.79 567.922 406.754 567.922 407.932C567.922 409.146 568.994 410.074 570.316 410.074Z" fill="#91B3FA"/>
<path d="M576.068 445.526H639.385C640.707 445.526 641.779 444.562 641.779 443.384C641.779 442.206 640.707 441.242 639.385 441.242H576.068C574.746 441.242 573.674 442.206 573.674 443.384C573.674 444.562 574.746 445.526 576.068 445.526Z" fill="#91B3FA"/>
<path d="M562.955 445.526H654.857C656.179 445.526 657.251 444.562 657.251 443.384C657.251 442.206 656.179 441.242 654.857 441.242H562.955C561.632 441.242 560.561 442.206 560.561 443.384C560.596 444.562 561.668 445.526 562.955 445.526Z" fill="#91B3FA"/>
<path d="M576.068 480.979H662.289C663.611 480.979 664.683 480.016 664.683 478.837C664.683 477.659 663.611 476.695 662.289 476.695H576.068C574.746 476.695 573.674 477.659 573.674 478.837C573.674 480.016 574.746 480.979 576.068 480.979Z" fill="#91B3FA"/>
<path d="M557.023 480.979H662.253C663.575 480.979 664.647 480.016 664.647 478.837C664.647 477.659 663.575 476.695 662.253 476.695H557.023C555.701 476.695 554.629 477.659 554.629 478.837C554.629 480.016 555.737 480.979 557.023 480.979Z" fill="#91B3FA"/>
<path d="M633.025 361.983C633.025 361.983 634.562 364.411 634.955 371.23C634.99 371.872 634.49 372.408 633.847 372.408H621.77C621.269 372.408 620.948 371.944 621.091 371.48C621.805 369.373 623.949 364.268 628.702 361.376L633.025 361.983Z" fill="url(#paint31_linear)"/>
<path d="M633.562 357.378L632.883 363.09C632.811 363.59 632.454 363.983 631.954 364.054C631.311 364.126 630.346 364.197 629.381 364.019C628.523 363.876 627.916 363.126 627.916 362.269V356.735L633.562 357.378Z" fill="url(#paint32_linear)"/>
<path d="M603.118 361.376C603.118 361.376 605.44 364.982 605.369 369.909C605.369 371.087 604.368 371.98 603.225 371.98H584.466C583.573 371.98 583.215 370.837 583.966 370.337C587.503 367.838 594.506 363.197 599.545 361.376H603.118Z" fill="url(#paint33_linear)"/>
<path d="M605.048 355.164L603.583 362.233C603.404 363.019 602.654 363.554 601.867 363.376C601.403 363.268 600.831 363.054 600.224 362.697C599.652 362.34 599.366 361.662 599.473 360.984L600.974 352.415L605.048 355.164Z" fill="url(#paint34_linear)"/>
<path d="M630.882 256.841C630.882 256.841 635.956 261.304 636.921 266.695C637.886 272.086 634.205 359.413 634.205 359.413C634.205 359.413 629.131 360.27 626.523 358.663C626.523 358.663 623.414 301.968 621.056 288.901C621.056 288.901 608.693 347.631 605.262 358.235C605.262 358.235 600.367 358.842 598.795 357.913C598.795 357.913 602.046 281.797 606.084 268.265L630.882 256.841Z" fill="url(#paint35_linear)"/>
<path d="M621.199 286.723C621.163 286.723 621.163 286.723 621.127 286.723C620.984 286.687 620.913 286.544 620.949 286.402L623.092 278.155C623.092 278.083 623.164 278.047 623.2 278.012L627.845 275.013C627.952 274.941 628.131 274.977 628.202 275.084C628.274 275.191 628.238 275.37 628.131 275.441L623.557 278.369L621.413 286.509C621.413 286.652 621.306 286.723 621.199 286.723Z" fill="url(#paint36_linear)"/>
<path d="M580.822 206.358C602.154 204.573 607.728 209 607.728 209L597.473 225.173C597.473 225.173 576.498 224.745 561.455 213.177C564.278 210.142 566.207 206.822 567.458 204.216C571.388 205.822 575.855 206.786 580.822 206.358Z" fill="url(#paint37_linear)"/>
<path d="M547.412 175.047C547.448 174.369 548.377 174.19 548.663 174.797L551.379 180.616C551.915 181.723 552.057 183.008 551.879 184.222L550.914 187.614C550.628 189.256 551.057 190.934 552.093 192.255C554.594 195.397 559.919 201.074 567.529 204.251C566.279 206.858 564.314 210.214 561.526 213.212C556.024 208.964 551.307 203.216 548.699 195.433C547.448 195.04 546.626 193.898 546.698 192.612L547.412 175.047Z" fill="url(#paint38_linear)"/>
<path d="M573.819 215.748C581.322 207.643 595.651 204.002 603.941 202.502C607.585 201.86 611.158 203.859 612.445 207.322C616.161 217.354 626.309 243.381 628.274 247.88C629.882 251.557 631.561 255.127 632.633 257.376C633.276 258.733 632.705 260.304 631.383 260.982C624.415 264.338 611.873 268.123 606.763 269.622C605.656 269.944 604.548 269.122 604.548 267.944C604.548 266.945 604.262 265.981 603.762 265.124L584.502 233.063C572.497 246.38 561.991 247.594 553.916 244.666C555.274 240.489 556.167 236.276 556.596 232.064C568.495 229.993 573.819 215.748 573.819 215.748Z" fill="url(#paint39_linear)"/>
<path d="M536.836 229.814L538.98 226.958C545.948 231.742 551.772 232.885 556.56 232.063C556.131 236.276 555.238 240.489 553.88 244.666C543.268 240.81 536.836 229.814 536.836 229.814Z" fill="url(#paint40_linear)"/>
<path d="M538.372 229.849L526.223 230.313L515.039 224.066C516.647 223.066 525.723 225.101 525.723 225.101C525.723 225.101 535.192 223.673 537.765 223.673C539.908 223.673 539.587 226.743 539.444 227.779C539.408 227.993 539.372 228.1 539.372 228.1L538.372 229.849Z" fill="url(#paint41_linear)"/>
<path d="M592.541 187.649L598.937 203.251C598.937 203.251 591.576 208.321 585.68 207.857L582.5 193.826L592.541 187.649Z" fill="url(#paint42_linear)"/>
<path d="M581.715 177.011C581.573 177.225 577.07 193.398 577.07 193.398L586.361 195.755L592.9 181.045C592.935 181.045 584.181 173.512 581.715 177.011Z" fill="url(#paint43_linear)"/>
<path d="M589.434 183.294L586.611 191.291C586.575 191.399 586.539 191.506 586.468 191.577C586.075 192.113 584.61 193.898 582.895 192.291C581.323 190.827 579.858 189.542 578.535 189.292C577.928 189.185 577.356 189.542 577.178 190.149C576.785 191.613 575.927 194.933 575.605 197.968C575.534 198.575 575.963 199.146 576.57 199.253C578.393 199.61 582.252 200.217 585.467 200.003C585.896 199.967 586.289 199.717 586.468 199.324C587.361 197.397 590.077 191.506 591.077 190.006C592.042 188.578 594.365 188.614 595.329 188.721C595.651 188.757 595.973 188.65 596.187 188.435C597.045 187.686 598.652 185.793 596.366 183.508C595.901 183.044 595.901 182.259 596.401 181.795C597.366 180.866 598.438 179.224 596.794 177.225C595.151 175.154 592.935 175.511 591.613 175.975C591.077 176.189 590.47 175.94 590.184 175.44C590.005 175.154 589.72 174.94 589.219 174.976C588.54 175.047 587.969 174.476 587.969 173.762C588.004 172.441 587.504 170.763 585.217 170.049C581.144 168.799 578.607 172.691 578.357 175.618C578.107 178.546 582.573 179.653 585.217 179.474C587.218 179.331 588.719 181.295 589.326 182.259C589.505 182.58 589.541 182.937 589.434 183.294Z" fill="url(#paint44_linear)"/>
<path d="M589.969 192.863C589.969 192.863 590.612 187.793 592.756 187.543C594.864 187.293 596.936 189.043 594.828 191.899C592.22 195.433 589.969 192.863 589.969 192.863Z" fill="url(#paint45_linear)"/>
<path d="M542.695 132.812L332.949 131.812C330.412 131.776 328.375 134.597 328.375 138.024L328.84 220.924C328.875 224.387 330.948 227.136 333.52 227.029L542.051 222.567C544.481 222.46 546.411 219.782 546.446 216.497L547.161 139.059C547.232 135.632 545.196 132.847 542.695 132.812Z" fill="url(#paint46_linear)"/>
<path opacity="0.73" d="M333.379 221.638C333.057 221.638 332.771 221.317 332.771 220.888L332.307 137.988C332.307 137.774 332.342 137.631 332.45 137.488C332.593 137.274 332.771 137.238 332.878 137.238L542.624 138.238C542.731 138.238 542.91 138.274 543.053 138.488C543.16 138.631 543.196 138.809 543.196 138.988L542.481 216.426C542.481 216.818 542.231 217.14 541.91 217.175L333.379 221.638ZM332.914 137.595C332.878 137.595 332.807 137.595 332.771 137.702C332.7 137.774 332.7 137.881 332.7 137.988L333.164 220.888C333.164 221.103 333.307 221.281 333.414 221.281L541.981 216.818C542.088 216.818 542.195 216.64 542.231 216.426L542.946 138.988C542.946 138.881 542.91 138.773 542.874 138.702C542.803 138.631 542.767 138.595 542.731 138.595L332.914 137.595Z" fill="white"/>
<g opacity="0.82">
<path opacity="0.82" d="M351.672 175.654H341.453V214.641H351.672V175.654Z" fill="white"/>
<path opacity="0.82" d="M368.752 189.043H358.533V214.606H368.752V189.043Z" fill="white"/>
<path opacity="0.82" d="M385.797 155.947H375.578V214.642H385.797V155.947Z" fill="white"/>
<path opacity="0.82" d="M402.84 200.539H392.621V214.641H402.84V200.539Z" fill="white"/>
<path opacity="0.82" d="M419.885 163.802H409.666V214.642H419.885V163.802Z" fill="white"/>
<path opacity="0.82" d="M436.965 172.584H426.746V214.605H436.965V172.584Z" fill="white"/>
<path opacity="0.82" d="M454.008 182.152H443.789V214.606H454.008V182.152Z" fill="white"/>
<path opacity="0.82" d="M471.051 144.094H460.832V214.641H471.051V144.094Z" fill="white"/>
<path opacity="0.82" d="M488.133 151.556H477.914V214.641H488.133V151.556Z" fill="white"/>
<path opacity="0.82" d="M505.176 162.837H494.957V214.641H505.176V162.837Z" fill="white"/>
<path opacity="0.82" d="M522.221 201.859H512.002V214.641H522.221V201.859Z" fill="white"/>
<path opacity="0.82" d="M539.264 177.011H529.045V214.641H539.264V177.011Z" fill="white"/>
</g>
<path d="M462.011 314.856C462.011 314.856 440.572 342.276 465.048 370.123L474.231 369.267C474.231 369.267 456.544 340.883 464.405 318.248L477.411 319.212L484.593 314.535L462.011 314.856Z" fill="url(#paint47_linear)"/>
<path d="M473.768 449.061C473.768 449.061 491.133 486.87 500.245 502.507C500.245 502.507 502.067 512.361 500.245 515.467L498.708 516.145L505.891 515.931C505.891 515.931 506.534 502.686 506.033 501.936C505.533 501.186 504.533 501.257 504.533 501.257C504.533 501.257 501.46 476.837 492.527 471.625L483.88 441.813L473.768 449.061Z" fill="url(#paint48_linear)"/>
<path d="M495.6 518.001C495.6 518.18 501.21 518.108 504.282 518.037C505.426 518.001 506.391 517.216 506.605 516.109L508.928 504.006C509.142 502.864 508.427 501.721 507.284 501.471L505.998 501.186C505.998 501.186 504.175 503.72 504.747 506.077C505.319 508.433 505.855 514.61 504.39 515.324C502.925 516.038 498.708 516.18 498.708 516.18C498.708 516.18 495.707 516.43 495.6 518.001Z" fill="url(#paint49_linear)"/>
<path d="M457.294 518.216C456.722 518.537 456.972 519.394 457.616 519.394C462.725 519.358 474.195 519.18 475.231 518.751C476.553 518.216 474.767 513.467 472.873 511.896L462.439 515.288L457.294 518.216Z" fill="url(#paint50_linear)"/>
<path d="M454.078 446.633C454.078 446.633 465.298 500.864 468.478 511.432L460.974 516.145C460.974 516.145 464.726 515.502 467.513 515.288C470.3 515.074 472.873 511.896 472.873 511.896L471.98 510.468C471.98 510.468 469.157 456.558 469.836 450.417L454.078 446.633Z" fill="url(#paint51_linear)"/>
<path d="M426.208 320.176C426.208 320.176 424.672 348.381 450.363 362.804L444.181 376.907C444.181 376.907 420.92 362.84 421.777 324.496C421.813 323.389 421.42 322.318 420.67 321.497L415.739 315.749C413.845 313.571 413.166 310.608 413.845 307.787L414.488 305.181C414.702 304.324 415.703 303.896 416.489 304.36L416.989 304.646C418.633 305.61 419.955 307.038 420.705 308.787L423.135 314.214C424.028 316.249 426.137 317.463 428.352 317.284L429.853 317.141L426.208 320.176Z" fill="url(#paint52_linear)"/>
<path d="M449.469 360.662C453.757 361.84 468.335 365.696 477.411 365.518L471.837 397.007L472.266 402.148L454.078 402.077C454.078 402.077 448.968 390.188 444.895 384.261C443.716 382.548 444.609 380.513 445.252 378.549L444.359 377.942C443.43 377.335 443.037 376.157 443.394 375.121L447.825 361.555C448.075 360.876 448.79 360.484 449.469 360.662Z" fill="url(#paint53_linear)"/>
<path d="M452.649 399.363L453.006 402.469C453.006 402.469 447.861 417.857 455.579 453.809C455.579 453.809 472.301 458.557 486.022 447.204C486.022 447.204 482.163 413.251 481.091 411.681C475.803 403.79 472.301 402.112 472.301 402.112L472.159 398.721C472.159 398.756 457.437 401.398 452.649 399.363Z" fill="url(#paint54_linear)"/>
<path d="M459.761 363.197C459.689 363.126 463.548 351.522 463.548 351.522L469.087 352.022L471.266 365.161C471.266 365.161 462.584 366.91 459.761 363.197Z" fill="url(#paint55_linear)"/>
<path d="M467.763 333.279C467.406 333.493 455.936 338.241 458.402 350.13C458.545 350.844 459.009 351.415 459.688 351.737C461.367 352.486 464.976 353.772 469.336 353.343C475.339 352.736 479.269 342.276 479.09 339.205C478.912 336.17 471.444 331.029 467.763 333.279Z" fill="url(#paint56_linear)"/>
<path d="M471.266 328.673C470.981 328.709 464.656 330.923 467.765 335.493C470.909 340.062 472.088 342.776 470.587 344.775C469.23 346.596 466.228 345.561 466.514 349.381C466.55 350.13 466.228 350.88 465.585 351.309C462.762 353.201 455.902 359.092 462.691 367.446C463.262 368.124 463.37 369.053 462.941 369.838C460.94 373.408 456.759 383.905 471.945 389.724C486.953 395.472 492.348 385.654 493.885 381.763C494.206 380.906 495.064 380.406 495.957 380.442C497.601 380.513 499.959 380.263 499.816 378.05C499.745 376.729 498.923 375.515 497.922 374.551C496.958 373.587 497.136 371.944 498.315 371.266C499.209 370.766 499.995 369.981 500.352 368.731C501.245 365.375 499.459 355.307 489.775 353.594C488.954 353.451 488.132 352.701 488.025 351.88V351.844C487.882 351.059 488.168 350.273 488.811 349.809C490.347 348.667 492.312 346.417 490.74 342.74C489.311 339.491 486.595 338.42 484.559 338.063C483.379 337.849 482.593 336.742 482.844 335.564C483.522 332.315 482.915 327.138 471.266 328.673Z" fill="url(#paint57_linear)"/>
<path d="M675.544 483.335C674.58 483.157 673.865 482.407 673.794 481.443C672.757 471.196 667.791 414.43 683.441 384.333C700.7 351.13 728.535 320.248 714.921 241.132C707.203 196.326 712.062 171.87 714.492 163.408C714.849 162.123 716.636 161.98 717.172 163.194C724.247 178.296 753.69 241.989 758.299 261.696C763.516 284.117 766.982 327.71 731.643 347.631C696.876 367.232 665.468 417.036 678.01 480.872C678.331 482.3 677.009 483.621 675.544 483.335Z" fill="#BDD0FB"/>
<path d="M683.155 484.691C682.119 484.513 681.297 483.727 681.083 482.692C679.153 473.588 671.757 429.96 701.629 403.219C732.787 375.3 755.548 373.479 761.658 355.985C762.015 354.914 763.552 354.986 763.802 356.092C767.268 371.766 775.879 425.89 734.43 446.74C693.303 467.447 686.836 476.944 686.157 482.513C685.978 483.977 684.62 484.941 683.155 484.691Z" fill="#BDD0FB"/>
<path d="M759.299 370.731C758.513 373.551 757.405 376.265 756.154 378.907C754.868 381.549 753.439 384.119 751.795 386.547C750.151 388.975 748.365 391.331 746.4 393.509C744.434 395.687 742.29 397.757 740.004 399.614C737.717 401.47 735.287 403.184 732.75 404.648C730.177 406.112 727.533 407.397 724.782 408.468L720.673 409.968C720.351 410.11 719.994 410.217 719.672 410.36L718.672 410.789C718.028 411.074 717.35 411.324 716.706 411.646C714.098 412.824 711.597 414.216 709.203 415.787C706.809 417.358 704.558 419.143 702.485 421.107C700.413 423.07 698.483 425.212 696.768 427.497C695.053 429.782 693.516 432.21 692.159 434.745C690.801 437.28 689.657 439.922 688.657 442.635C686.656 448.026 685.441 453.703 684.655 459.415C684.298 462.271 684.012 465.163 683.869 468.055C683.762 470.947 683.69 473.839 683.762 476.766C683.762 476.909 683.654 477.016 683.547 477.016C683.404 477.016 683.333 476.909 683.297 476.802C683.154 473.91 683.047 470.982 683.118 468.055C683.19 465.127 683.369 462.235 683.654 459.308C683.976 456.416 684.405 453.524 685.048 450.632C685.655 447.776 686.442 444.92 687.406 442.171C688.371 439.386 689.514 436.673 690.837 434.067C692.194 431.46 693.731 428.925 695.482 426.569C697.233 424.213 699.198 421.963 701.342 419.928C703.486 417.893 705.808 416.037 708.274 414.395C710.739 412.752 713.312 411.289 715.992 410.075C716.671 409.753 717.35 409.468 718.028 409.182L719.065 408.754C719.422 408.611 719.744 408.504 720.101 408.361L724.174 406.861C726.854 405.826 729.427 404.612 731.928 403.184C734.429 401.756 736.788 400.15 739.039 398.364C741.29 396.579 743.398 394.651 745.363 392.545C747.329 390.439 749.151 388.225 750.83 385.904C752.51 383.548 754.046 381.12 755.404 378.585C756.083 377.3 756.726 376.015 757.298 374.694C757.869 373.373 758.441 372.052 758.906 370.66C758.941 370.552 759.049 370.517 759.156 370.552C759.263 370.517 759.299 370.624 759.299 370.731Z" fill="url(#paint58_linear)"/>
</g>
<defs>
<linearGradient id="paint0_linear" x1="59.174" y1="303.59" x2="182.885" y2="303.59" gradientUnits="userSpaceOnUse">
<stop stop-color="#DAE3FE"/>
<stop offset="1" stop-color="#E9EFFD"/>
</linearGradient>
<linearGradient id="paint1_linear" x1="629.826" y1="121.515" x2="698.444" y2="121.515" gradientUnits="userSpaceOnUse">
<stop stop-color="#DAE3FE"/>
<stop offset="1" stop-color="#E9EFFD"/>
</linearGradient>
<linearGradient id="paint2_linear" x1="377.561" y1="512.418" x2="455.695" y2="-2.83722" gradientUnits="userSpaceOnUse">
<stop stop-color="#4042E2"/>
<stop offset="1" stop-color="#4F52FF"/>
</linearGradient>
<linearGradient id="paint3_linear" x1="330.816" y1="427.318" x2="535.698" y2="427.318" gradientUnits="userSpaceOnUse">
<stop stop-color="#DAE3FE"/>
<stop offset="1" stop-color="#E9EFFD"/>
</linearGradient>
<linearGradient id="paint4_linear" x1="332.447" y1="444.504" x2="532.136" y2="444.504" gradientUnits="userSpaceOnUse">
<stop stop-color="#DAE3FE"/>
<stop offset="1" stop-color="#E9EFFD"/>
</linearGradient>
<linearGradient id="paint5_linear" x1="332.874" y1="348.976" x2="537.756" y2="348.976" gradientUnits="userSpaceOnUse">
<stop stop-color="#DAE3FE"/>
<stop offset="1" stop-color="#E9EFFD"/>
</linearGradient>
<linearGradient id="paint6_linear" x1="336.436" y1="366.161" x2="536.125" y2="366.161" gradientUnits="userSpaceOnUse">
<stop stop-color="#DAE3FE"/>
<stop offset="1" stop-color="#E9EFFD"/>
</linearGradient>
<linearGradient id="paint7_linear" x1="254.489" y1="275.963" x2="557.498" y2="275.963" gradientUnits="userSpaceOnUse">
<stop stop-color="#EDA85A"/>
<stop offset="1" stop-color="#FF928E"/>
</linearGradient>
<linearGradient id="paint8_linear" x1="389.2" y1="167.828" x2="384.384" y2="217.095" gradientUnits="userSpaceOnUse">
<stop stop-color="#E1473D"/>
<stop offset="1" stop-color="#E9605A"/>
</linearGradient>
<linearGradient id="paint9_linear" x1="425.497" y1="171.376" x2="420.682" y2="220.643" gradientUnits="userSpaceOnUse">
<stop stop-color="#E1473D"/>
<stop offset="1" stop-color="#E9605A"/>
</linearGradient>
<linearGradient id="paint10_linear" x1="461.795" y1="174.922" x2="456.98" y2="224.189" gradientUnits="userSpaceOnUse">
<stop stop-color="#E1473D"/>
<stop offset="1" stop-color="#E9605A"/>
</linearGradient>
<linearGradient id="paint11_linear" x1="390.802" y1="167.983" x2="385.986" y2="217.25" gradientUnits="userSpaceOnUse">
<stop stop-color="#E1473D"/>
<stop offset="1" stop-color="#E9605A"/>
</linearGradient>
<linearGradient id="paint12_linear" x1="427.1" y1="171.531" x2="422.284" y2="220.798" gradientUnits="userSpaceOnUse">
<stop stop-color="#E1473D"/>
<stop offset="1" stop-color="#E9605A"/>
</linearGradient>
<linearGradient id="paint13_linear" x1="463.397" y1="175.079" x2="458.581" y2="224.346" gradientUnits="userSpaceOnUse">
<stop stop-color="#E1473D"/>
<stop offset="1" stop-color="#E9605A"/>
</linearGradient>
<linearGradient id="paint14_linear" x1="239.453" y1="514.93" x2="263.539" y2="514.93" gradientUnits="userSpaceOnUse">
<stop stop-color="#09005D"/>
<stop offset="1" stop-color="#1A0F91"/>
</linearGradient>
<linearGradient id="paint15_linear" x1="252.833" y1="510.757" x2="264.249" y2="439.349" gradientUnits="userSpaceOnUse">
<stop stop-color="#4042E2"/>
<stop offset="1" stop-color="#4F52FF"/>
</linearGradient>
<linearGradient id="paint16_linear" x1="197.143" y1="514.99" x2="208.421" y2="514.99" gradientUnits="userSpaceOnUse">
<stop stop-color="#09005D"/>
<stop offset="1" stop-color="#1A0F91"/>
</linearGradient>
<linearGradient id="paint17_linear" x1="205.248" y1="503.15" x2="216.664" y2="431.742" gradientUnits="userSpaceOnUse">
<stop stop-color="#4042E2"/>
<stop offset="1" stop-color="#4F52FF"/>
</linearGradient>
<linearGradient id="paint18_linear" x1="201.913" y1="507.222" x2="209.231" y2="507.222" gradientUnits="userSpaceOnUse">
<stop stop-color="#FF928E"/>
<stop offset="1" stop-color="#FEB3B1"/>
</linearGradient>
<linearGradient id="paint19_linear" x1="240.679" y1="506.743" x2="246.778" y2="506.743" gradientUnits="userSpaceOnUse">
<stop stop-color="#FF928E"/>
<stop offset="1" stop-color="#FEB3B1"/>
</linearGradient>
<linearGradient id="paint20_linear" x1="287.296" y1="406.584" x2="265.401" y2="430.879" gradientUnits="userSpaceOnUse">
<stop stop-color="#09005D"/>
<stop offset="1" stop-color="#1A0F91"/>
</linearGradient>
<linearGradient id="paint21_linear" x1="239.273" y1="433.476" x2="280.927" y2="394.407" gradientUnits="userSpaceOnUse">
<stop stop-color="#09005D"/>
<stop offset="1" stop-color="#1A0F91"/>
</linearGradient>
<linearGradient id="paint22_linear" x1="274.569" y1="347.993" x2="148.512" y2="540.591" gradientUnits="userSpaceOnUse">
<stop stop-color="#EDA85A"/>
<stop offset="1" stop-color="#FF928E"/>
</linearGradient>
<linearGradient id="paint23_linear" x1="331.561" y1="253.044" x2="324.069" y2="282.323" gradientUnits="userSpaceOnUse">
<stop stop-color="#FF928E"/>
<stop offset="1" stop-color="#FEB3B1"/>
</linearGradient>
<linearGradient id="paint24_linear" x1="260.82" y1="322.032" x2="260.107" y2="368.802" gradientUnits="userSpaceOnUse">
<stop stop-color="#FF928E"/>
<stop offset="1" stop-color="#FEB3B1"/>
</linearGradient>
<linearGradient id="paint25_linear" x1="253.844" y1="334.43" x2="127.787" y2="527.028" gradientUnits="userSpaceOnUse">
<stop stop-color="#EDA85A"/>
<stop offset="1" stop-color="#FF928E"/>
</linearGradient>
<linearGradient id="paint26_linear" x1="261.617" y1="343.782" x2="242.701" y2="372.715" gradientUnits="userSpaceOnUse">
<stop stop-color="#FF928E"/>
<stop offset="1" stop-color="#FEB3B1"/>
</linearGradient>
<linearGradient id="paint27_linear" x1="253.596" y1="285.84" x2="262.159" y2="324.045" gradientUnits="userSpaceOnUse">
<stop stop-color="#FF928E"/>
<stop offset="1" stop-color="#FEB3B1"/>
</linearGradient>
<linearGradient id="paint28_linear" x1="254.94" y1="313.465" x2="272.521" y2="336.12" gradientUnits="userSpaceOnUse">
<stop stop-color="#09005D"/>
<stop offset="1" stop-color="#1A0F91"/>
</linearGradient>
<linearGradient id="paint29_linear" x1="247.245" y1="287.264" x2="255.806" y2="325.468" gradientUnits="userSpaceOnUse">
<stop stop-color="#FF928E"/>
<stop offset="1" stop-color="#FEB3B1"/>
</linearGradient>
<linearGradient id="paint30_linear" x1="328.514" y1="252.265" x2="321.022" y2="281.544" gradientUnits="userSpaceOnUse">
<stop stop-color="#FF928E"/>
<stop offset="1" stop-color="#FEB3B1"/>
</linearGradient>
<linearGradient id="paint31_linear" x1="634.962" y1="366.889" x2="621.054" y2="366.889" gradientUnits="userSpaceOnUse">
<stop stop-color="#09005D"/>
<stop offset="1" stop-color="#1A0F91"/>
</linearGradient>
<linearGradient id="paint32_linear" x1="633.552" y1="360.432" x2="627.911" y2="360.432" gradientUnits="userSpaceOnUse">
<stop stop-color="#FF928E"/>
<stop offset="1" stop-color="#FEB3B1"/>
</linearGradient>
<linearGradient id="paint33_linear" x1="605.385" y1="366.666" x2="583.563" y2="366.666" gradientUnits="userSpaceOnUse">
<stop stop-color="#09005D"/>
<stop offset="1" stop-color="#1A0F91"/>
</linearGradient>
<linearGradient id="paint34_linear" x1="605.054" y1="357.929" x2="599.444" y2="357.929" gradientUnits="userSpaceOnUse">
<stop stop-color="#FF928E"/>
<stop offset="1" stop-color="#FEB3B1"/>
</linearGradient>
<linearGradient id="paint35_linear" x1="637.057" y1="308.212" x2="598.815" y2="308.212" gradientUnits="userSpaceOnUse">
<stop stop-color="#09005D"/>
<stop offset="1" stop-color="#1A0F91"/>
</linearGradient>
<linearGradient id="paint36_linear" x1="620.934" y1="280.846" x2="628.277" y2="280.846" gradientUnits="userSpaceOnUse">
<stop stop-color="#020039"/>
<stop offset="1" stop-color="#090056"/>
</linearGradient>
<linearGradient id="paint37_linear" x1="583.553" y1="216.656" x2="601.211" y2="125.615" gradientUnits="userSpaceOnUse">
<stop stop-color="#EDA85A"/>
<stop offset="1" stop-color="#FF928E"/>
</linearGradient>
<linearGradient id="paint38_linear" x1="567.523" y1="193.811" x2="546.675" y2="193.811" gradientUnits="userSpaceOnUse">
<stop stop-color="#FF928E"/>
<stop offset="1" stop-color="#FEB3B1"/>
</linearGradient>
<linearGradient id="paint39_linear" x1="586.704" y1="188.214" x2="598.097" y2="296.205" gradientUnits="userSpaceOnUse">
<stop stop-color="#EDA85A"/>
<stop offset="1" stop-color="#FF928E"/>
</linearGradient>
<linearGradient id="paint40_linear" x1="520.316" y1="198.353" x2="565.317" y2="254.385" gradientUnits="userSpaceOnUse">
<stop stop-color="#FF928E"/>
<stop offset="1" stop-color="#FEB3B1"/>
</linearGradient>
<linearGradient id="paint41_linear" x1="511.776" y1="205.211" x2="556.776" y2="261.243" gradientUnits="userSpaceOnUse">
<stop stop-color="#FF928E"/>
<stop offset="1" stop-color="#FEB3B1"/>
</linearGradient>
<linearGradient id="paint42_linear" x1="570.993" y1="164.512" x2="614.565" y2="244.637" gradientUnits="userSpaceOnUse">
<stop stop-color="#FF928E"/>
<stop offset="1" stop-color="#FEB3B1"/>
</linearGradient>
<linearGradient id="paint43_linear" x1="584.744" y1="179.269" x2="585.785" y2="211.201" gradientUnits="userSpaceOnUse">
<stop stop-color="#FF928E"/>
<stop offset="1" stop-color="#FEB3B1"/>
</linearGradient>
<linearGradient id="paint44_linear" x1="585.722" y1="156.16" x2="587.871" y2="235.732" gradientUnits="userSpaceOnUse">
<stop stop-color="#E1473D"/>
<stop offset="1" stop-color="#E9605A"/>
</linearGradient>
<linearGradient id="paint45_linear" x1="596.165" y1="212.03" x2="592.686" y2="190.166" gradientUnits="userSpaceOnUse">
<stop stop-color="#FF928E"/>
<stop offset="1" stop-color="#FEB3B1"/>
</linearGradient>
<linearGradient id="paint46_linear" x1="435.773" y1="194.902" x2="453.43" y2="5.86587" gradientUnits="userSpaceOnUse">
<stop stop-color="#EDA85A"/>
<stop offset="1" stop-color="#FF928E"/>
</linearGradient>
<linearGradient id="paint47_linear" x1="516.246" y1="296.764" x2="497.68" y2="314.273" gradientUnits="userSpaceOnUse">
<stop stop-color="#FF928E"/>
<stop offset="1" stop-color="#FEB3B1"/>
</linearGradient>
<linearGradient id="paint48_linear" x1="473.757" y1="478.974" x2="506.207" y2="478.974" gradientUnits="userSpaceOnUse">
<stop stop-color="#FF928E"/>
<stop offset="1" stop-color="#FEB3B1"/>
</linearGradient>
<linearGradient id="paint49_linear" x1="518.36" y1="406.467" x2="502.316" y2="510.839" gradientUnits="userSpaceOnUse">
<stop stop-color="#4042E2"/>
<stop offset="1" stop-color="#4F52FF"/>
</linearGradient>
<linearGradient id="paint50_linear" x1="484.356" y1="401.242" x2="468.313" y2="505.613" gradientUnits="userSpaceOnUse">
<stop stop-color="#4042E2"/>
<stop offset="1" stop-color="#4F52FF"/>
</linearGradient>
<linearGradient id="paint51_linear" x1="454.066" y1="481.385" x2="472.857" y2="481.385" gradientUnits="userSpaceOnUse">
<stop stop-color="#FF928E"/>
<stop offset="1" stop-color="#FEB3B1"/>
</linearGradient>
<linearGradient id="paint52_linear" x1="483.014" y1="209.48" x2="461.072" y2="263.579" gradientUnits="userSpaceOnUse">
<stop stop-color="#FF928E"/>
<stop offset="1" stop-color="#FEB3B1"/>
</linearGradient>
<linearGradient id="paint53_linear" x1="453.899" y1="360.502" x2="522.774" y2="497.029" gradientUnits="userSpaceOnUse">
<stop stop-color="#EDA85A"/>
<stop offset="1" stop-color="#FF928E"/>
</linearGradient>
<linearGradient id="paint54_linear" x1="509.673" y1="344.808" x2="489.334" y2="384.449" gradientUnits="userSpaceOnUse">
<stop stop-color="#09005D"/>
<stop offset="1" stop-color="#1A0F91"/>
</linearGradient>
<linearGradient id="paint55_linear" x1="459.764" y1="358.567" x2="471.263" y2="358.567" gradientUnits="userSpaceOnUse">
<stop stop-color="#FF928E"/>
<stop offset="1" stop-color="#FEB3B1"/>
</linearGradient>
<linearGradient id="paint56_linear" x1="478.038" y1="343.719" x2="561.735" y2="349.415" gradientUnits="userSpaceOnUse">
<stop stop-color="#FF928E"/>
<stop offset="1" stop-color="#FEB3B1"/>
</linearGradient>
<linearGradient id="paint57_linear" x1="491.796" y1="338.678" x2="462.374" y2="397.572" gradientUnits="userSpaceOnUse">
<stop stop-color="#09005D"/>
<stop offset="1" stop-color="#1A0F91"/>
</linearGradient>
<linearGradient id="paint58_linear" x1="683.078" y1="423.705" x2="759.291" y2="423.705" gradientUnits="userSpaceOnUse">
<stop stop-color="#DAE3FE"/>
<stop offset="1" stop-color="#E9EFFD"/>
</linearGradient>
<clipPath id="clip0">
<rect width="800" height="524" fill="white"/>
</clipPath>
</defs>
</svg>
