<svg width="826" height="543" viewBox="0 0 826 543" fill="none" xmlns="http://www.w3.org/2000/svg">
<path d="M813.843 386.27C785.71 452.349 710.757 489.374 645.766 479.386C635.187 477.757 606.194 472.92 580.522 450.082C531.106 406.119 520.537 319.083 560.402 257.736C589.415 213.095 641.429 187.781 690.846 189.045C701.488 189.317 742.284 190.999 778.137 220.492C783.405 224.827 795.021 235.118 805.485 251.447C830.067 289.778 832.183 343.206 813.843 386.27Z" fill="white"/>
<path d="M224.191 208.761C201.49 261.942 141.011 291.739 88.5694 283.701C80.0334 282.39 56.6396 278.497 35.925 260.117C-3.94914 224.737 -12.4767 154.69 19.6897 105.319C43.1003 69.3915 85.0705 49.019 124.945 50.0364C133.531 50.255 166.45 51.6087 195.379 75.3443C199.631 78.8336 209.003 87.1154 217.446 100.257C237.282 131.106 238.989 174.104 224.191 208.761Z" fill="white"/>
<g clip-path="url(#clip0)">
<path d="M362.395 538.326C510.62 538.326 630.779 418.416 630.779 270.5C630.779 122.584 510.62 2.67383 362.395 2.67383C214.171 2.67383 94.0117 122.584 94.0117 270.5C94.0117 418.416 214.171 538.326 362.395 538.326Z" fill="url(#paint0_linear)"/>
<path d="M95.4185 36.7392C94.8595 34.3925 98.1748 32.8345 100.218 34.4695C120.804 51.1461 170.321 101.099 157.985 188.368C142.507 297.872 168.971 337.822 201.912 362.193C201.912 362.193 156.655 350.729 128.186 310.182C58.295 210.642 105.249 78.5558 95.4185 36.7392Z" fill="#91B3FA"/>
<path d="M111.089 70.9576C113.672 83.1525 115.965 95.3667 117.739 107.658C119.589 119.93 121.015 132.24 121.979 144.569C122.885 156.899 123.54 169.248 123.579 181.616C123.675 193.965 123.174 206.313 122.596 218.701C122.114 231.088 121.536 243.571 122.442 256.132C123.328 268.673 125.988 281.329 131.231 293.178C132.542 296.14 133.93 299.083 135.491 301.93C136.994 304.796 138.652 307.623 140.367 310.412C143.818 315.971 147.711 321.357 152.048 326.454C160.76 336.649 171.265 345.689 182.83 353.345C184.044 354.152 185.798 353.96 186.724 352.902C187.649 351.863 187.437 350.402 186.28 349.594C183.524 347.67 180.806 345.708 178.185 343.65C176.855 342.65 175.583 341.592 174.291 340.553C173.038 339.476 171.747 338.438 170.533 337.341C165.618 332.975 161.069 328.32 156.944 323.396C148.636 313.605 141.987 302.68 136.956 291.351C134.508 285.657 132.561 279.829 131.135 273.885C129.708 267.942 128.822 261.902 128.321 255.805C127.338 243.61 127.781 231.261 128.166 218.854C128.533 206.467 128.803 194.003 128.475 181.558C128.34 175.326 128.051 169.113 127.646 162.9C127.473 159.784 127.222 156.687 126.971 153.591C126.702 150.494 126.393 147.397 126.065 144.3C124.735 131.913 122.943 119.564 120.726 107.292C118.433 95.0204 115.753 82.8063 112.554 70.7076C112.457 70.3614 112.053 70.1498 111.667 70.2267C111.262 70.2844 111.031 70.6114 111.089 70.9576Z" fill="white"/>
<path d="M144.858 298.833C142.333 301.507 137.881 300.737 136.358 297.39C127.974 278.906 108.988 224.529 140.329 161.862C166.793 108.946 176.122 77.7475 179.36 63.3022C180.054 60.2438 184.237 59.8399 185.509 62.7059C199.522 94.328 236.433 201.889 144.858 298.833Z" fill="#BDD0FB"/>
<path d="M140.271 296.89C140.175 296.909 140.098 296.909 140.001 296.909C139.211 296.89 138.575 296.236 138.594 295.447C138.613 294.543 140.367 204.736 173.829 129.508C174.156 128.777 175.004 128.45 175.737 128.777C176.469 129.104 176.797 129.951 176.469 130.681C143.239 205.351 141.485 294.601 141.466 295.505C141.447 296.197 140.946 296.774 140.271 296.89Z" fill="white"/>
<path d="M499.401 90.0382L492.866 78.7474C491.864 77.0162 490.033 75.9775 488.028 75.9775H474.96C472.955 75.9775 471.124 77.0162 470.122 78.7474L463.588 90.0574C462.585 91.7886 462.585 93.9044 463.588 95.6163L470.122 106.734C471.124 108.465 472.955 109.331 474.96 109.331H488.028C490.033 109.331 491.864 108.465 492.866 106.734L499.401 95.5009C500.403 93.789 500.403 91.7501 499.401 90.0382Z" fill="url(#paint1_linear)"/>
<path d="M497.241 89.9231L491.593 80.5749C490.726 79.0939 489.146 78.5938 487.411 78.5938H476.135C474.42 78.5938 472.82 79.0746 471.952 80.5749L466.305 90.1347C465.437 91.6158 465.437 93.3469 466.305 94.828L471.952 104.772C472.82 106.253 474.4 107.35 476.135 107.35H487.411C489.126 107.35 490.726 106.196 491.593 104.715L497.241 94.828C498.108 93.3469 498.108 91.4042 497.241 89.9231Z" fill="#7D97F4"/>
<path d="M621.835 83.248C621.835 86.6525 619.407 89.0569 616.612 89.0569H512.952C510.137 89.0569 507.844 86.6718 507.844 83.248V83.1903C507.844 79.7857 510.157 77.2852 512.952 77.2852H616.612C619.426 77.2852 621.835 79.7857 621.835 83.1903V83.248Z" fill="url(#paint2_linear)"/>
<path d="M588.529 78.5928H576.733H525.808H514.012C512.258 78.5928 510.812 80.9779 510.812 83.1707C510.812 85.3634 512.239 87.7486 514.012 87.7486H525.808H576.733H588.529C590.283 87.7486 591.729 85.3634 591.729 83.1707C591.709 80.9779 590.283 78.5928 588.529 78.5928Z" fill="#7D97F4"/>
<path d="M567.44 99.9441C567.44 101.868 565.879 103.426 563.951 103.426H514.588C512.661 103.426 511.1 101.868 511.1 99.9441V99.7325C511.1 97.809 512.661 96.251 514.588 96.251H563.951C565.879 96.251 567.44 97.809 567.44 99.7325V99.9441Z" fill="url(#paint3_linear)"/>
<path d="M486.004 87.134C486.004 89.6153 483.999 92.2889 481.513 92.2889C479.026 92.2889 477.021 89.6153 477.021 87.134C477.021 84.6527 479.026 82.9023 481.513 82.9023C483.999 82.9023 486.004 84.6527 486.004 87.134Z" fill="white"/>
<path d="M475.923 101.81H486.891C488.047 101.81 489.069 101.06 489.416 99.9635L490.013 98.117C490.437 96.7706 489.743 95.3087 488.413 94.8278C483.942 93.1929 479.335 93.4044 474.612 94.9817C473.282 95.4241 472.55 96.8283 472.916 98.1747L473.379 99.8481C473.687 101.002 474.728 101.81 475.923 101.81Z" fill="white"/>
<path d="M203.879 119.468L197.345 108.177C196.342 106.446 194.511 105.407 192.507 105.407H179.438C177.434 105.407 175.603 106.446 174.6 108.177L168.066 119.487C167.064 121.218 167.064 123.334 168.066 125.046L174.6 136.164C175.603 137.895 177.434 138.76 179.438 138.76H192.507C194.511 138.76 196.342 137.895 197.345 136.164L203.879 124.931C204.881 123.199 204.881 121.18 203.879 119.468Z" fill="url(#paint4_linear)"/>
<path d="M201.72 119.333L196.072 109.985C195.205 108.504 193.624 108.004 191.889 108.004H180.614C178.898 108.004 177.298 108.485 176.431 109.985L170.783 119.545C169.916 121.026 169.916 122.757 170.783 124.238L176.431 134.183C177.298 135.664 178.879 136.76 180.614 136.76H191.889C193.605 136.76 195.205 135.606 196.072 134.125L201.72 124.238C202.587 122.776 202.587 120.834 201.72 119.333Z" fill="#7D97F4"/>
<path d="M326.314 112.678C326.314 116.082 323.885 118.487 321.09 118.487H217.411C214.596 118.487 212.303 116.101 212.303 112.678V112.62C212.303 109.215 214.616 106.715 217.411 106.715H321.071C323.885 106.715 326.294 109.215 326.294 112.62V112.678H326.314Z" fill="url(#paint5_linear)"/>
<path d="M284.409 112.6C284.409 114.793 282.983 117.178 281.209 117.178H218.489C216.735 117.178 215.289 114.793 215.289 112.6C215.289 110.408 216.715 108.022 218.489 108.022H281.209C282.983 108.022 284.409 110.408 284.409 112.6Z" fill="#7D97F4"/>
<path d="M271.919 129.374C271.919 131.297 270.357 132.855 268.43 132.855H219.067C217.139 132.855 215.578 131.297 215.578 129.374V129.162C215.578 127.239 217.139 125.681 219.067 125.681H268.43C270.357 125.681 271.919 127.239 271.919 129.162V129.374Z" fill="url(#paint6_linear)"/>
<path d="M190.484 116.544C190.484 119.025 188.479 121.699 185.993 121.699C183.507 121.699 181.502 119.025 181.502 116.544C181.502 114.063 183.507 112.312 185.993 112.312C188.479 112.312 190.484 114.082 190.484 116.544Z" fill="white"/>
<path d="M180.421 131.24H191.389C192.545 131.24 193.567 130.49 193.914 129.393L194.511 127.547C194.935 126.2 194.241 124.738 192.911 124.258C188.44 122.623 183.833 122.834 179.111 124.411C177.781 124.854 177.048 126.258 177.414 127.604L177.877 129.278C178.166 130.432 179.207 131.24 180.421 131.24Z" fill="white"/>
<path d="M439.55 131.201L429.335 130.47L416.613 167.67L433.305 251.149L449.13 248.822L439.55 131.201Z" fill="url(#paint7_linear)"/>
<path d="M500.44 245.264L480.279 168.997L468.251 127.7L439.551 131.201L426.348 169.594L444.466 248.803H500.498L500.44 245.264Z" fill="#7D97F4"/>
<path d="M429.336 130.47L455.029 126.758L468.252 127.7L439.552 131.201L429.336 130.47Z" fill="url(#paint8_linear)"/>
<path d="M435.117 167.709L449.169 163.304V145.781L442.133 146.416L435.117 167.709Z" fill="#91B3FA"/>
<path d="M460.752 143.588L467.19 141.973L473.011 161.304H463.528L460.752 143.588Z" fill="#91B3FA"/>
<path d="M615.396 244.821H532.842C531.049 244.821 530.221 246.995 530.221 248.803V249.611H618.731V248.803C618.731 246.995 617.189 244.821 615.396 244.821Z" fill="url(#paint9_linear)"/>
<path d="M500.441 249.591H521.779C521.779 249.591 516.941 239.205 508.074 239.724C499.208 240.243 500.441 249.591 500.441 249.591Z" fill="url(#paint10_linear)"/>
<path d="M509.039 217.7C509.039 217.7 515.226 249.149 517.462 249.149C519.698 249.149 561.178 244.186 561.178 244.186V235.223L528.372 236.435L520.45 213.064L509.039 217.7Z" fill="url(#paint11_linear)"/>
<path d="M501.251 251.785H445.99L449.344 212.565C449.344 212.565 445.219 183.001 464.07 179.731C475.172 176.711 475.172 176.711 475.172 176.711C475.172 176.711 489.378 174.48 501.251 179.712C513.125 184.944 522.936 216.373 522.936 216.373L508.73 222.048L505.106 210.488L501.251 251.785Z" fill="url(#paint12_linear)"/>
<path d="M477.853 157.803L472.225 179.365C472.225 179.365 483.982 185.02 493.967 180.134L490.825 159.226L477.853 157.803Z" fill="url(#paint13_linear)"/>
<path d="M504.315 140.396C504.315 140.396 505.221 156.034 503.005 163.247C500.788 170.46 500.614 175.615 491.902 174.018C483.19 172.422 477.793 165.824 476.656 157.399C476.656 157.399 474.805 144.397 477.774 140.434C480.703 136.472 504.315 140.396 504.315 140.396Z" fill="url(#paint14_linear)"/>
<path d="M481.321 153.36L481.861 153.321C482.554 153.283 483.056 152.667 482.978 151.975C482.651 149.32 482.285 143.396 485.638 143.281C489.956 143.127 505.916 145.57 511.062 141.492C516.016 137.568 515.688 130.047 512.276 126.681C512.045 126.45 511.679 126.431 511.447 126.643L510.869 127.162C510.464 127.508 509.848 127.22 509.886 126.681C509.925 126.162 509.347 125.854 508.942 126.162C507.38 127.374 503.776 128.951 496.182 127.643C485.388 125.777 477.196 127.412 474.459 134.317C474.286 134.76 473.727 134.837 473.437 134.452C472.859 133.721 471.741 133.067 469.66 133.817C466.017 135.125 464.918 141.588 469.178 148.782C469.37 149.128 469.216 149.571 468.831 149.667C467.462 149.974 465.188 151.071 468.619 154.918C472.165 158.899 475.519 159.9 476.868 160.169C477.196 160.227 477.524 159.996 477.562 159.669L478.468 153.052C478.526 152.687 478.911 152.456 479.258 152.571L481.321 153.36Z" fill="url(#paint15_linear)"/>
<path d="M492.866 166.785C482.747 165.823 478.718 154.532 478.68 154.417L479.412 154.167C479.451 154.282 483.325 165.112 492.943 166.016L492.866 166.785Z" fill="url(#paint16_linear)"/>
<path d="M493.848 167.208L490.552 166.996C490.417 166.996 490.301 166.862 490.32 166.727L490.398 165.515C490.398 165.381 490.532 165.265 490.667 165.284L493.963 165.496C494.098 165.496 494.214 165.631 494.195 165.765L494.118 166.977C494.098 167.112 493.983 167.227 493.848 167.208Z" fill="url(#paint17_linear)"/>
<path d="M481.167 143.184C481.167 143.184 487.509 127.873 497.744 127.95C497.744 127.95 495.18 126.219 491.98 127.162C488.781 128.104 479.914 134.644 478.623 143.184C480.493 144.165 481.167 143.184 481.167 143.184Z" fill="url(#paint18_linear)"/>
<path d="M479.645 141.934C473.958 142.107 473.438 149.147 473.438 149.147C472.185 154.109 473.226 156.86 474.903 158.36C476.059 159.399 477.659 159.745 479.143 159.284C480.628 158.841 481.746 157.649 482.131 156.148C482.459 154.802 482.806 153.513 482.979 153.071C483.422 151.994 485.331 141.761 479.645 141.934Z" fill="url(#paint19_linear)"/>
<path d="M479.836 143.761C478.737 143.376 477.503 143.78 476.867 144.761C472.28 151.782 475.46 157.418 477.426 157.841C479.489 158.303 481.166 148.301 481.166 145.646C481.166 144.55 480.549 144.011 479.836 143.761Z" fill="url(#paint20_linear)"/>
<path d="M456.649 223.971C456.572 223.971 456.476 223.932 456.437 223.855L450.231 214.757C450.154 214.642 450.173 214.488 450.308 214.392C450.423 214.315 450.578 214.334 450.674 214.469L456.881 223.567C456.958 223.682 456.938 223.836 456.803 223.932C456.765 223.951 456.707 223.971 456.649 223.971Z" fill="url(#paint21_linear)"/>
<path d="M470.237 219.335C470.16 219.335 470.083 219.297 470.025 219.239C469.948 219.124 469.967 218.97 470.083 218.874L472.377 217.162L465.033 196.888C464.975 196.754 465.052 196.6 465.187 196.561C465.322 196.504 465.476 196.581 465.515 196.715L472.917 217.162C472.955 217.277 472.917 217.393 472.82 217.45L470.392 219.278C470.334 219.335 470.276 219.335 470.237 219.335Z" fill="url(#paint22_linear)"/>
<path d="M457.844 224.778L470.238 219.085L481.205 238.301C481.205 238.301 512.199 233.492 517.712 239.339C523.224 245.187 520.641 245.09 519.947 245.09C519.254 245.09 516.073 241.647 516.073 241.647C516.073 241.647 518.868 245.841 517.365 246.033C515.861 246.225 512.199 242.244 512.199 242.244C512.199 242.244 515.206 247.476 513.413 246.879C511.601 246.283 510.137 243.436 510.137 243.436C510.137 243.436 512.546 246.802 510.908 246.918C509.269 247.033 506.783 244.148 506.783 244.148C506.783 244.148 502.947 245.879 500.75 245.879C498.552 245.879 476.425 251.399 472.435 249.091C468.406 246.841 457.844 224.778 457.844 224.778Z" fill="url(#paint23_linear)"/>
<path d="M608.515 174.999L599.668 235.454C599.379 237.435 597.528 239.032 595.505 239.032H529.295C527.175 239.032 525.768 237.397 526.153 235.358L537.757 173.268C538.104 171.383 540.031 169.882 542.055 169.94L605.508 171.556C607.436 171.633 608.785 173.172 608.515 174.999Z" fill="url(#paint24_linear)"/>
<path d="M543.656 171.094L531.436 237.628C531.282 238.455 530.299 239.128 529.45 239.128C527.33 239.128 525.769 237.474 526.154 235.435L537.758 173.306C538.105 171.402 540.032 169.902 542.056 169.96L543.174 169.979C543.54 170.248 543.733 170.652 543.656 171.094Z" fill="url(#paint25_linear)"/>
<path d="M597.722 214.565C597.472 214.565 597.318 214.334 597.356 214.084L603.678 178.269C603.967 176.634 602.676 175.595 601.269 175.518L594.542 175.172C594.291 175.153 594.137 174.961 594.176 174.711C594.214 174.461 594.446 174.268 594.696 174.287L601.423 174.634C603.524 174.749 604.893 176.346 604.546 178.308L598.243 214.123C598.204 214.373 597.973 214.585 597.722 214.565Z" fill="#91B3FA"/>
<path d="M548.61 233.723L539.3 233.704C537.392 233.704 536.255 231.992 536.66 229.761L539.165 215.95C539.204 215.681 539.454 215.469 539.724 215.489C539.975 215.489 540.148 215.7 540.11 215.969L537.604 229.78C537.296 231.473 538.105 232.761 539.474 232.761L548.784 232.781C549.034 232.781 549.208 232.992 549.169 233.261C549.111 233.512 548.861 233.723 548.61 233.723Z" fill="#91B3FA"/>
<path d="M589.819 248.649V249.438L573.801 249.842H550.498C549.939 249.842 549.477 249.323 549.477 248.765C549.477 246.591 551.019 244.648 553.197 244.648H586.099C586.388 244.648 586.716 244.648 586.966 244.706C588.682 245.11 589.819 246.745 589.819 248.649Z" fill="url(#paint26_linear)"/>
<path d="M594.194 248.592C594.194 246.418 592.401 244.668 590.223 244.668L586.908 244.687L573.782 244.745L557.34 244.841C555.162 244.841 553.389 246.803 553.389 248.977C553.389 249.4 553.736 249.842 554.179 249.842H593.403C593.615 249.842 593.808 249.669 593.962 249.515C594.117 249.361 594.194 249.13 594.194 248.919V248.592Z" fill="url(#paint27_linear)"/>
<path d="M562.835 200.485C561.331 200.485 560.541 201.986 560.541 203.486V244.649H580.703V200.485H562.835Z" fill="url(#paint28_linear)"/>
<path d="M581.434 200.485H566.053C564.549 200.485 563.123 201.986 563.123 203.486V244.649H583.94V203.486C583.959 201.986 582.918 200.485 581.434 200.485Z" fill="url(#paint29_linear)"/>
<path d="M563.855 255.035H527.734H484.307H460.811H381.264C384.001 291.408 386.738 326.473 389.475 362.212C389.629 364.289 390.477 366.078 391.229 366.078H470.776H474.4H537.699H553.947H620.851C621.602 366.078 622.393 364.289 622.547 362.212C625.284 326.473 628.021 291.408 630.758 255.035H563.855Z" fill="url(#paint30_linear)"/>
<path d="M417.828 255.035C416.729 291.408 415.65 329.07 414.551 366.078H391.229C390.477 366.078 389.629 364.289 389.475 362.212C386.738 326.473 384.001 291.408 381.264 255.035H417.828Z" fill="url(#paint31_linear)"/>
<path d="M630.854 248.553H563.411H528.582H490.379H484.423H467.133V247.765C467.133 246.264 466.536 245.303 465.919 245.303H437.431C436.814 245.303 436.486 246.264 436.486 247.765V248.553H382.131C381.321 248.553 380.666 249.996 380.666 251.804C380.666 253.612 381.321 255.055 382.131 255.055H458.941H461.139H484.423H490.379H528.582H563.411H630.854C631.664 255.055 632.319 253.612 632.319 251.804C632.319 249.977 631.664 248.553 630.854 248.553Z" fill="url(#paint32_linear)"/>
<path d="M413.203 251.785C413.203 249.996 413.858 248.534 414.687 248.534H380.879C380.069 248.534 379.395 249.996 379.395 251.785C379.395 253.574 380.05 255.036 380.879 255.036H414.687C413.858 255.036 413.203 253.593 413.203 251.785Z" fill="url(#paint33_linear)"/>
<path d="M132.907 156.264L122.922 155.571L110.471 191.964L126.797 273.654L142.294 271.365L132.907 156.264Z" fill="url(#paint34_linear)"/>
<path d="M192.485 267.903L172.767 193.252L160.99 152.84L132.906 156.264L119.992 193.849L137.725 271.365H192.543L192.485 267.903Z" fill="#7D97F4"/>
<path d="M122.922 155.571L148.056 151.936L160.99 152.84L132.906 156.263L122.922 155.571Z" fill="url(#paint35_linear)"/>
<path d="M128.57 192.002L142.313 187.693V170.555L135.451 171.151L128.57 192.002Z" fill="#91B3FA"/>
<path d="M153.666 168.4L159.95 166.804L165.655 185.731H156.384L153.666 168.4Z" fill="#91B3FA"/>
<path d="M308.927 266.345H218.181C216.215 266.345 215.309 268.749 215.309 270.711V271.596H312.589V270.711C312.589 268.749 310.893 266.345 308.927 266.345Z" fill="url(#paint36_linear)"/>
<path d="M190.962 271.788H214.401C214.401 271.788 209.081 260.382 199.328 260.94C189.594 261.498 190.962 271.788 190.962 271.788Z" fill="url(#paint37_linear)"/>
<path d="M214.344 248.187C199.02 245.571 196.649 216.373 197.131 215.469L183.118 232.511C183.118 232.511 181.326 245.687 198.827 256.881C203.26 259.709 207.655 260.825 211.741 260.882C211.221 255.67 212.57 251.4 214.344 248.187Z" fill="url(#paint38_linear)"/>
<path d="M245.278 247.726C240.556 242.513 233.27 244.937 233.27 244.937C224.596 248.091 218.525 248.899 214.361 248.187C212.588 251.4 211.239 255.67 211.759 260.882C220.626 261.036 228.085 256.343 231.439 253.823C232.653 252.919 234.369 253.111 235.313 254.285C236.277 255.477 237.106 257.016 236.605 258.305C235.583 260.844 238.436 262.383 238.898 261.479C239.342 260.575 239.4 254.631 239.4 254.631C239.4 254.631 244.083 262.19 245.914 265.095C247.746 267.999 251.292 266.345 251.292 266.345C251.292 266.345 250.001 252.958 245.278 247.726Z" fill="url(#paint39_linear)"/>
<path d="M169.24 381.293H174.869V320.549H169.24V381.293Z" fill="url(#paint40_linear)"/>
<path d="M147.383 382.466H196.688C196.688 380.446 195.05 378.812 193.026 378.812H151.064C149.04 378.812 147.383 380.446 147.383 382.466Z" fill="url(#paint41_linear)"/>
<path d="M140.078 318.433C140.078 321.761 142.796 324.473 146.13 324.473H196.014C199.348 324.473 202.066 321.761 202.066 318.433V312.97C202.066 309.643 199.348 306.931 196.014 306.931H146.13C142.796 306.931 140.078 309.643 140.078 312.97V318.433Z" fill="url(#paint42_linear)"/>
<path d="M213.611 280.021C213.611 280.021 221.976 281.309 231.382 287.58C232.866 288.561 233.676 290.292 233.445 292.042C232.327 300.948 227.681 329.762 212.416 357.902C211.606 359.383 211.375 361.115 211.741 362.769L214.401 375.098L219.316 379.695H206.653L198.21 356.902L201.815 355.767C204.609 354.883 206.537 352.324 206.575 349.381L206.999 324.934C206.633 314.047 213.688 306.526 213.688 306.526L193.449 305.545L213.611 280.021Z" fill="url(#paint43_linear)"/>
<path d="M224.27 381.946C225.426 383.446 211.857 385.446 204.995 382.138C204.995 382.138 195.492 365.635 195.492 357.133C195.492 357.133 196.244 355.402 201.834 355.786C201.834 355.786 205.033 375.329 208.406 377.522C211.779 379.714 217.832 377.753 217.832 377.753C217.832 377.753 222.554 379.714 224.27 381.946Z" fill="url(#paint44_linear)"/>
<path d="M196.014 306.93C196.129 306.738 217.794 304.333 217.794 304.333C217.794 304.333 217.081 310.912 219.298 319.971C221.514 329.031 253.356 368.27 253.356 368.27L250.022 378.83C260.334 382.427 270.492 382.985 280.476 380.657L259.794 368.27C259.794 368.27 240.442 302.429 228.569 290.696L206.827 283.194L196.014 306.93Z" fill="url(#paint45_linear)"/>
<path d="M147.383 268.614C147.383 268.614 134.893 287.157 133.871 295.62C132.849 304.083 137.302 307.507 150.409 308.084C163.516 308.642 198.5 308.642 198.5 308.642L228.357 283.175C228.357 283.175 206.595 275.423 200.928 273.231C195.281 271.038 147.383 268.614 147.383 268.614Z" fill="url(#paint46_linear)"/>
<path d="M251.293 375.252C251.293 375.252 247.708 378.733 250.137 382.58C250.137 382.58 278.606 387.62 286.335 385.331C286.335 385.331 284.735 381.676 276.023 377.522L276.659 378.022C277.469 378.637 276.987 379.945 275.965 379.888C270.241 379.561 258.367 378.503 251.293 375.252Z" fill="url(#paint47_linear)"/>
<path d="M201.507 151.032C175.968 146.704 163.94 167.478 164.827 171.844C164.943 172.421 164.403 172.921 163.825 172.767C160.895 171.979 154.419 170.978 150.409 175.999C146.863 180.423 149.523 184.616 151.682 186.905C152.202 187.463 151.759 188.367 151.007 188.271C145.61 187.597 133.91 187.424 131.983 198.369C130.19 208.583 137.322 211.449 141.543 212.276C142.256 212.41 142.43 213.353 141.813 213.738C139.712 215.065 137.264 217.835 138.247 223.259C139.789 231.78 156.539 231.087 158.505 230.972C158.621 230.972 158.755 230.934 158.852 230.876L185.683 215.603C185.895 215.488 186.029 215.276 186.068 215.046L191.484 183.827C191.523 183.577 191.446 183.308 191.272 183.135L208.755 158.495C215.115 157.572 201.796 151.09 201.507 151.032Z" fill="url(#paint48_linear)"/>
<path d="M181.172 266.172C181.172 266.172 195.724 252.342 202.875 243.187C206.749 238.243 207.964 231.723 206.171 225.702C202.894 214.719 197.093 203.332 196.553 201.562C195.743 198.85 179.437 198.966 179.437 198.966C179.437 198.966 147.344 219.758 134.738 254.958L148.905 259.363C148.905 259.363 157.29 245.341 165.559 236.416C165.559 236.416 151.238 255.304 150.717 263.037L181.172 266.172Z" fill="url(#paint49_linear)"/>
<path d="M198.539 186.385C198.366 186.943 194.106 201.042 193.778 201.331C193.451 201.619 184.449 202.1 180.209 199.215L190.714 178.691L198.539 186.385Z" fill="url(#paint50_linear)"/>
<path d="M215.615 168.286C215.615 168.286 217.677 176.346 211.972 187.213C206.286 198.062 199.829 198.062 196.321 194.58C192.793 191.099 188.457 185.213 189.478 174.73C190.519 164.208 212.627 158.015 215.615 168.286Z" fill="url(#paint51_linear)"/>
<path d="M197.363 175.287C197.363 175.287 206.807 160.88 215.655 172.21L215.809 176.326C215.809 176.326 226.179 175.095 224.367 165.612C222.555 156.129 213.592 150.186 202.047 154.302C190.501 158.418 183.89 162.631 183.138 170.883C182.386 179.134 188.978 177.326 188.978 177.326C188.978 177.326 191.118 171.517 194.182 170.902C197.228 170.305 196.438 174.826 196.438 174.826L197.363 175.287Z" fill="url(#paint52_linear)"/>
<path d="M194.933 175.076C194.933 175.076 199.829 167.69 194.818 166.593C189.806 165.497 190.577 173.787 191.117 176.846L194.933 175.076Z" fill="url(#paint53_linear)"/>
<path d="M210.817 267.192L200.119 256.92L185.335 263.152C185.335 263.152 170.609 265.422 162.186 263.152C153.763 260.883 153.763 260.883 153.763 260.883L134.72 254.978L131.732 263.402C130.98 265.537 131.732 267.923 133.582 269.231C135.221 270.404 137.167 271.673 138.382 272.212C140.887 273.308 200.177 271.462 200.177 271.462L210.817 267.192Z" fill="url(#paint54_linear)"/>
<path d="M209.642 194.04C198.385 194.348 192.448 182.461 192.391 182.346L193.162 181.961C193.219 182.076 198.944 193.463 209.622 193.175L209.642 194.04Z" fill="url(#paint55_linear)"/>
<path d="M210.99 194.598H207.251C207.116 194.598 207.02 194.482 207.02 194.367V193.001C207.02 192.867 207.135 192.771 207.251 192.771H210.99C211.125 192.771 211.221 192.886 211.221 193.001V194.367C211.241 194.482 211.125 194.598 210.99 194.598Z" fill="url(#paint56_linear)"/>
<path d="M192.892 171.094C192.892 171.094 197.807 153.417 209.044 152.128C209.044 152.128 205.98 150.57 202.587 152.032C199.195 153.494 190.328 161.88 190.059 171.44C192.294 172.267 192.892 171.094 192.892 171.094Z" fill="url(#paint57_linear)"/>
<path d="M191.774 168.497C185.548 169.44 185.934 177.268 185.934 177.268C185.22 182.885 186.724 185.77 188.786 187.194C190.193 188.175 192.005 188.348 193.566 187.655C195.128 186.963 196.207 185.501 196.419 183.808C196.612 182.27 196.805 180.827 196.94 180.308C197.267 179.057 197.98 167.536 191.774 168.497Z" fill="url(#paint58_linear)"/>
<path d="M192.236 170.478C190.963 170.189 189.672 170.805 189.094 171.978C185.007 180.307 189.248 186.058 191.465 186.289C193.797 186.52 194.298 175.286 193.932 172.382C193.797 171.17 193.045 170.67 192.236 170.478Z" fill="url(#paint59_linear)"/>
<path d="M320.567 187.29L310.853 253.747C310.544 255.92 308.501 257.67 306.285 257.67H233.503C231.171 257.67 229.629 255.862 230.053 253.631L242.813 185.405C243.198 183.328 245.318 181.693 247.535 181.751L317.271 183.539C319.392 183.578 320.876 185.27 320.567 187.29Z" fill="url(#paint60_linear)"/>
<path d="M249.289 183.001L235.855 256.132C235.681 257.036 234.621 257.786 233.677 257.786C231.344 257.786 229.629 255.959 230.053 253.708L242.813 185.424C243.198 183.328 245.319 181.693 247.555 181.751L248.769 181.789C249.154 182.058 249.386 182.501 249.289 183.001Z" fill="url(#paint61_linear)"/>
<path d="M308.714 230.78C308.444 230.761 308.27 230.53 308.309 230.261L315.267 190.887C315.575 189.098 314.168 187.944 312.607 187.867L305.225 187.482C304.955 187.463 304.781 187.232 304.839 186.963C304.897 186.694 305.148 186.482 305.417 186.501L312.8 186.886C315.113 187.001 316.616 188.771 316.231 190.925L309.292 230.28C309.253 230.568 308.983 230.78 308.714 230.78Z" fill="#91B3FA"/>
<path d="M254.724 251.842L244.489 251.823C242.388 251.823 241.135 249.957 241.598 247.476L244.354 232.3C244.412 232.011 244.682 231.78 244.952 231.78C245.241 231.78 245.414 232.011 245.376 232.3L242.619 247.476C242.272 249.342 243.159 250.746 244.682 250.746L254.917 250.765C255.206 250.765 255.379 250.996 255.341 251.304C255.283 251.611 255.013 251.842 254.724 251.842Z" fill="#91B3FA"/>
<path d="M300.022 268.231V269.115L282.404 269.558H256.807C256.191 269.558 255.689 269 255.689 268.384C255.689 265.98 257.386 263.864 259.795 263.864H295.935C296.244 263.864 296.61 263.864 296.88 263.922C298.788 264.345 300.022 266.153 300.022 268.231Z" fill="url(#paint62_linear)"/>
<path d="M304.841 268.173C304.841 265.769 302.875 263.845 300.466 263.864L296.823 263.884L282.405 263.941L264.325 264.057C261.916 264.076 259.988 266.211 259.988 268.615C259.988 269.096 260.374 269.577 260.856 269.577H303.974C304.205 269.577 304.417 269.385 304.59 269.231C304.745 269.077 304.841 268.789 304.841 268.577V268.173Z" fill="url(#paint63_linear)"/>
<path d="M270.357 215.315C268.719 215.315 267.832 216.97 267.832 218.605V263.845H289.998V215.315H270.357Z" fill="url(#paint64_linear)"/>
<path d="M290.809 215.315H273.924C272.286 215.315 270.705 216.97 270.705 218.605V263.845H293.584V218.605C293.584 216.95 292.447 215.315 290.809 215.315Z" fill="url(#paint65_linear)"/>
<path d="M271.513 278.905H237.03H195.608H173.192H97.2871C108.775 319.472 132.676 400.739 135.143 400.95H182.694H186.144H246.533H262.03L312.568 400.181C313.301 400.181 325.444 318.818 335.332 278.905H271.513Z" fill="url(#paint66_linear)"/>
<path d="M184.314 278.905C181.711 318.875 179.109 360.269 176.507 400.95H135.163C133.351 400.95 107.04 316.048 97.3066 278.905H184.314Z" fill="url(#paint67_linear)"/>
<path d="M336.758 271.75H271.743H238.167H201.351H195.608H178.935V270.884C178.935 269.23 178.357 268.172 177.759 268.172H150.312C149.714 268.172 149.406 269.23 149.406 270.884V271.75H97.0164C96.2262 271.75 95.6094 273.327 95.6094 275.327C95.6094 277.308 96.2454 278.905 97.0164 278.905H171.032H173.152H195.588H201.332H238.167H271.743H336.758C337.548 278.905 338.165 277.328 338.165 275.327C338.165 273.346 337.529 271.75 336.758 271.75Z" fill="url(#paint68_linear)"/>
<path d="M182.29 275.328C182.29 273.366 184.063 271.75 186.241 271.75H96.2658C94.0877 271.75 92.3145 273.346 92.3145 275.328C92.3145 277.29 94.0877 278.905 96.2658 278.905H186.241C184.044 278.905 182.29 277.29 182.29 275.328Z" fill="url(#paint69_linear)"/>
<path d="M300.697 233.165L288.129 232.28L272.459 278.059L293.006 380.831L312.493 377.965L300.697 233.165Z" fill="#91B3FA"/>
<path d="M375.658 373.599L350.832 279.694L336.01 228.856L300.698 233.165L284.449 280.444L306.75 377.946H375.716L375.658 373.599Z" fill="#7D97F4"/>
<path d="M288.129 232.28L319.759 227.702L336.008 228.856L300.696 233.165L288.129 232.28Z" fill="#91B3FA"/>
<path d="M295.242 278.116L312.532 272.692V251.13L303.877 251.899L295.242 278.116Z" fill="#91B3FA"/>
<path d="M326.795 248.418L334.717 246.418L341.887 270.231H330.226L326.795 248.418Z" fill="#91B3FA"/>
<path d="M421.164 504.877L417.694 517.033C417.174 518.861 417.906 520.88 419.583 521.804C420.412 522.265 421.549 522.669 423.072 522.938C425.231 523.304 427.37 522.208 428.296 520.226L432.729 510.667L421.164 504.877Z" fill="url(#paint70_linear)"/>
<path d="M375 399.777C375 399.777 427.409 405.894 450.828 425.206C474.228 444.518 435.157 512.359 435.157 512.359C435.157 512.359 428.161 512.705 419.275 505.915C419.275 505.915 441.865 455.27 419.256 442.113C393.832 427.322 365.344 425.244 365.344 425.244L374.596 401.412L375 399.777Z" fill="url(#paint71_linear)"/>
<path d="M324.172 386.986C324.172 386.986 314.342 418.397 326.389 427.11C338.435 435.824 366.519 444.845 373.709 463.137C380.879 481.43 387.876 508.32 402.544 520.38C402.544 520.38 417.077 524.477 420.527 520.38C420.527 520.38 410.234 469.908 404.24 456.328C399.036 444.556 391.384 427.591 378.026 418.608C374.21 416.031 374.595 411.607 376.06 407.241L378.72 399.297L324.172 386.986Z" fill="url(#paint72_linear)"/>
<path d="M443.08 356.23C423.805 358.461 428.123 327.3 428.412 326.069L400.213 348.363C400.213 348.363 402.68 364.751 427.545 372.06C433.828 373.907 439.476 373.695 444.41 372.348C441.962 366.27 442.078 360.692 443.08 356.23Z" fill="url(#paint73_linear)"/>
<path d="M479.954 344.9C472.475 340.303 464.592 345.747 464.592 345.747C455.301 352.556 448.324 355.633 443.081 356.23C442.078 360.692 441.944 366.27 444.43 372.348C455.089 369.444 462.375 361.211 465.517 357.038C466.654 355.537 468.774 355.172 470.316 356.249C471.877 357.345 473.419 358.884 473.265 360.596C472.938 363.981 476.889 364.828 477.12 363.597C477.351 362.366 475.308 355.229 475.308 355.229C475.308 355.229 483.558 362.635 486.777 365.482C489.996 368.328 493.658 365.097 493.658 365.097C493.658 365.097 487.432 349.497 479.954 344.9Z" fill="url(#paint74_linear)"/>
<path d="M348.593 282.714C348.593 282.714 376.099 269.923 430.82 310.163C430.82 310.163 435.697 318.953 431.36 327.262C427.042 335.572 383.751 377.234 378.72 399.297C378.72 399.297 352.14 409.568 322.977 390.295C322.996 390.295 322.11 329.705 348.593 282.714Z" fill="url(#paint75_linear)"/>
<path d="M403.645 269.635L390.73 287.138C389.439 288.87 389.265 291.216 390.326 293.082C392.465 296.891 397.342 302.334 407.403 300.988C410.391 300.584 412.954 298.622 414.13 295.852L422.707 275.348L403.645 269.635Z" fill="url(#paint76_linear)"/>
<path d="M330.784 355.653C326.775 342.554 358.212 311.162 358.212 311.162L348.575 282.714C348.575 282.714 279.783 334.09 300.098 371.233C303.009 376.561 306.69 380.196 310.854 382.543C315.769 366.79 324.539 359.192 330.784 355.653Z" fill="url(#paint77_linear)"/>
<path d="M330.668 353.73C330.321 353.749 329.993 353.537 329.877 353.172C325.791 339.784 356.207 309.201 357.498 307.893C357.807 307.585 358.289 307.585 358.597 307.893C358.905 308.201 358.905 308.701 358.597 308.989C358.289 309.297 327.545 340.207 331.362 352.71C331.497 353.114 331.246 353.556 330.841 353.691C330.783 353.71 330.726 353.73 330.668 353.73Z" fill="url(#paint78_linear)"/>
<path d="M380.822 351.748C380.822 351.748 342.445 369.098 332.249 358.211C331.555 357.48 331.092 356.614 330.803 355.653C324.539 359.192 315.769 366.79 310.873 382.543C332.23 394.565 366.346 372.156 375.54 365.597C377.044 364.52 378.913 364.058 380.745 364.347C384.465 364.905 390.883 365.674 394.276 364.962C399.249 363.924 407.421 381.158 415.247 375.272C415.227 375.253 406.573 344.977 380.822 351.748Z" fill="url(#paint79_linear)"/>
<path d="M432.402 243.36C432.576 243.898 431.207 280.695 431.207 280.695L410.159 279.483L406.246 244.418C406.265 244.398 429.569 234.473 432.402 243.36Z" fill="url(#paint80_linear)"/>
<path d="M412.124 251.4L412.741 270.019C412.741 270.25 412.78 270.481 412.857 270.712C413.3 272.096 415.17 276.79 419.854 274.578C424.113 272.577 428.026 270.808 430.994 271.212C432.324 271.385 433.307 272.539 433.25 273.885C433.134 277.232 432.71 284.753 431.341 291.235C431.072 292.543 429.819 293.428 428.469 293.274C424.441 292.793 415.96 291.543 409.387 288.927C408.501 288.581 407.865 287.773 407.749 286.83C407.171 282.195 405.397 268.134 404.279 264.287C403.239 260.671 398.343 259.228 396.261 258.767C395.567 258.613 394.989 258.19 394.623 257.593C393.331 255.458 391.211 250.4 397.495 247.149C398.805 246.476 399.287 244.841 398.574 243.552C397.128 240.974 396.03 236.877 400.791 233.723C405.629 230.511 410.004 232.646 412.491 234.569C413.493 235.339 414.881 235.262 415.825 234.415C416.365 233.935 417.116 233.684 418.157 234.108C419.545 234.685 421.145 233.877 421.569 232.434C422.398 229.664 424.499 226.491 429.761 226.51C439.109 226.548 441.808 236.435 440.381 242.725C438.955 249.015 428.836 248.38 423.439 246.226C419.333 244.591 414.9 247.745 413.011 249.361C412.413 249.861 412.086 250.611 412.124 251.4Z" fill="url(#paint81_linear)"/>
<path d="M404.569 271.077C404.569 271.077 406.574 260.017 402.314 258.094C398.054 256.17 392.58 258.44 395.105 265.788C398.208 274.944 404.569 271.077 404.569 271.077Z" fill="url(#paint82_linear)"/>
<path d="M433.018 245.11C432.883 245.11 432.787 245.014 432.768 244.879C432.768 244.745 432.864 244.629 432.999 244.629C434.984 244.552 436.468 243.898 437.432 242.667C439.398 240.148 438.55 236.07 438.531 236.031C438.511 235.897 438.589 235.762 438.723 235.743C438.858 235.704 438.993 235.801 439.013 235.935C439.051 236.108 439.919 240.302 437.818 242.975C436.777 244.302 435.158 245.033 433.018 245.11Z" fill="white"/>
<path d="M421.144 282.195C408.211 282.541 401.368 268.884 401.311 268.749L402.197 268.326C402.255 268.461 408.828 281.541 421.125 281.214L421.144 282.195Z" fill="url(#paint83_linear)"/>
<path d="M422.088 282.695L418.06 282.445C417.925 282.445 417.809 282.31 417.828 282.175L417.925 280.598C417.925 280.464 418.06 280.348 418.195 280.367L422.223 280.617C422.358 280.617 422.474 280.752 422.454 280.887L422.358 282.464C422.339 282.599 422.223 282.695 422.088 282.695Z" fill="url(#paint84_linear)"/>
<path d="M401.889 255.823C401.889 255.823 407.536 235.511 420.47 234.03C420.47 234.03 416.942 232.222 413.049 233.915C409.155 235.608 398.959 245.225 398.65 256.227C401.195 257.151 401.889 255.823 401.889 255.823Z" fill="url(#paint85_linear)"/>
<path d="M400.598 252.822C393.447 253.919 393.89 262.901 393.89 262.901C393.061 269.364 394.815 272.673 397.167 274.327C398.786 275.462 400.868 275.654 402.66 274.846C404.453 274.038 405.706 272.365 405.937 270.422C406.149 268.672 406.38 266.998 406.554 266.402C406.92 264.959 407.749 251.726 400.598 252.822Z" fill="url(#paint86_linear)"/>
<path d="M401.137 255.112C399.672 254.785 398.188 255.497 397.532 256.843C392.829 266.422 397.706 273.039 400.25 273.289C402.93 273.558 403.508 260.652 403.084 257.305C402.93 255.901 402.081 255.324 401.137 255.112Z" fill="url(#paint87_linear)"/>
<path d="M512.45 371.637H426.562C424.692 371.637 423.844 373.906 423.844 375.772V376.599H515.92V375.772C515.901 373.906 514.301 371.637 512.45 371.637Z" fill="url(#paint88_linear)"/>
<path d="M536.968 285.157L525.962 360.461C525.595 362.923 523.282 364.924 520.777 364.924H438.319C435.678 364.924 433.924 362.885 434.406 360.346L448.843 283.041C449.286 280.694 451.676 278.829 454.201 278.906L533.209 280.925C535.638 280.964 537.295 282.868 536.968 285.157Z" fill="url(#paint89_linear)"/>
<path d="M456.205 280.29L440.978 363.154C440.785 364.193 439.571 365.039 438.492 365.039C435.851 365.039 433.904 362.962 434.386 360.423L448.842 283.06C449.286 280.694 451.676 278.828 454.201 278.886L455.588 278.925C456.051 279.232 456.302 279.732 456.205 280.29Z" fill="url(#paint90_linear)"/>
<path d="M523.534 334.436C523.225 334.417 523.033 334.167 523.071 333.84L530.955 289.235C531.321 287.215 529.702 285.907 527.948 285.811L519.582 285.388C519.274 285.368 519.081 285.118 519.139 284.81C519.197 284.503 519.486 284.272 519.794 284.291L528.16 284.714C530.781 284.849 532.477 286.849 532.053 289.292L524.208 333.879C524.131 334.186 523.842 334.436 523.534 334.436Z" fill="#91B3FA"/>
<path d="M462.354 358.288L450.751 358.268C448.38 358.268 446.954 356.153 447.474 353.344L450.597 336.148C450.654 335.821 450.963 335.552 451.29 335.571C451.618 335.571 451.83 335.841 451.772 336.168L448.65 353.364C448.264 355.479 449.267 357.076 450.982 357.076L462.586 357.095C462.913 357.095 463.125 357.364 463.067 357.691C462.99 358.018 462.682 358.288 462.354 358.288Z" fill="#91B3FA"/>
<path d="M514.242 376.869V377.869L493.715 377.426H464.706C464.012 377.426 463.434 377.119 463.434 376.426C463.434 373.714 465.342 371.637 468.079 371.637H509.019C509.366 371.637 510.06 371.771 510.387 371.829C512.565 372.329 514.242 374.503 514.242 376.869Z" fill="url(#paint91_linear)"/>
<path d="M519.139 376.791C519.139 374.079 516.922 371.886 514.185 371.905L510.041 371.925L493.696 372.002L473.226 372.117C470.508 372.136 468.311 374.098 468.311 376.81C468.311 377.349 468.754 377.426 469.294 377.426H518.155C518.425 377.426 518.657 377.676 518.849 377.483C519.042 377.291 519.139 377.233 519.139 376.964V376.791Z" fill="url(#paint92_linear)"/>
<path d="M480.068 316.99C478.198 316.99 476.926 318.76 476.926 320.626V371.617H503.467V316.99H480.068Z" fill="url(#paint93_linear)"/>
<path d="M503.237 316.99H484.096C482.227 316.99 481.07 318.76 481.07 320.626V371.617H506.783V320.626C506.783 318.779 505.106 316.99 503.237 316.99Z" fill="url(#paint94_linear)"/>
<path d="M389.091 376.6H411.277C411.277 376.6 406.246 365.789 397.013 366.328C387.8 366.867 389.091 376.6 389.091 376.6Z" fill="url(#paint95_linear)"/>
<path d="M572.684 379.908C572.684 382.158 570.699 384.043 568.251 384.043H259.795C257.347 384.043 255.361 382.158 255.361 379.908C255.361 377.657 257.347 375.772 259.795 375.772H568.251C570.699 375.772 572.684 377.657 572.684 379.908Z" fill="url(#paint96_linear)"/>
<path d="M568 384.044C559.751 428.746 551.501 472.986 543.251 517.476C542.77 520.073 540.418 522.266 538.124 522.266H287.339C285.045 522.266 282.52 520.073 282.038 517.476C273.788 472.967 265.539 428.727 257.289 384.044H568Z" fill="url(#paint97_linear)"/>
<path d="M346.397 384.044C343.737 429.573 341.077 476.756 338.417 522.285H281.595C279.744 522.285 277.701 520.092 277.296 517.495C270.627 472.986 263.958 428.746 257.289 384.063H346.397V384.044Z" fill="url(#paint98_linear)"/>
<path d="M349.345 379.908C349.345 382.158 348.728 384.043 347.977 384.043H253.163C252.412 384.043 251.795 382.158 251.795 379.908C251.795 377.657 252.412 375.772 253.163 375.772H347.977C348.728 375.772 349.345 377.657 349.345 379.908Z" fill="url(#paint99_linear)"/>
<g opacity="0.3">
<path opacity="0.3" d="M515.937 474.947C515.166 474.947 514.511 474.37 514.434 473.601C514.26 471.908 514.145 470.177 514.125 468.465C514.106 467.638 514.781 466.945 515.61 466.926C515.629 466.926 515.629 466.926 515.648 466.926C516.477 466.926 517.152 467.58 517.152 468.407C517.19 470.042 517.286 471.677 517.46 473.293C517.556 474.12 516.939 474.87 516.111 474.947C516.053 474.947 515.995 474.947 515.937 474.947ZM516.034 461.79C515.976 461.79 515.918 461.79 515.86 461.771C515.031 461.675 514.434 460.925 514.53 460.098C514.723 458.405 515.012 456.693 515.359 455.02C515.532 454.212 516.323 453.673 517.152 453.846C517.961 454.019 518.501 454.808 518.327 455.635C518 457.232 517.73 458.847 517.537 460.463C517.441 461.213 516.785 461.79 516.034 461.79ZM519.04 448.98C518.867 448.98 518.694 448.961 518.539 448.884C517.749 448.595 517.344 447.749 517.614 446.96C518.192 445.345 518.848 443.748 519.561 442.19C519.908 441.44 520.814 441.094 521.565 441.44C522.317 441.786 522.664 442.69 522.317 443.44C521.643 444.921 521.026 446.441 520.467 447.98C520.236 448.595 519.657 448.98 519.04 448.98ZM524.823 437.151C524.553 437.151 524.264 437.074 524.013 436.92C523.3 436.477 523.107 435.535 523.551 434.842C524.476 433.4 525.459 431.976 526.519 430.63C527.02 429.976 527.984 429.841 528.639 430.341C529.295 430.842 529.43 431.803 528.928 432.457C527.945 433.746 527.001 435.092 526.114 436.458C525.825 436.92 525.324 437.151 524.823 437.151ZM533.111 426.918C532.726 426.918 532.321 426.764 532.032 426.475C531.454 425.879 531.454 424.917 532.051 424.34C533.265 423.148 534.557 421.974 535.867 420.878C536.504 420.339 537.467 420.435 538.007 421.07C538.547 421.705 538.45 422.667 537.814 423.205C536.561 424.244 535.347 425.36 534.191 426.494C533.882 426.783 533.497 426.918 533.111 426.918ZM543.462 418.781C542.961 418.781 542.459 418.531 542.17 418.07C541.727 417.358 541.939 416.435 542.652 415.992C544.098 415.088 545.621 414.242 547.143 413.453C547.895 413.069 548.801 413.376 549.186 414.107C549.572 414.857 549.264 415.761 548.531 416.146C547.085 416.877 545.64 417.685 544.271 418.55C544.021 418.704 543.751 418.781 543.462 418.781ZM598.916 415.184C598.704 415.184 598.492 415.146 598.299 415.05C596.815 414.376 595.292 413.761 593.75 413.222C592.96 412.953 592.555 412.088 592.825 411.299C593.095 410.51 593.962 410.106 594.752 410.376C596.371 410.953 597.99 411.587 599.532 412.299C600.284 412.645 600.631 413.53 600.284 414.3C600.053 414.857 599.494 415.184 598.916 415.184ZM555.354 413.126C554.718 413.126 554.14 412.742 553.928 412.107C553.658 411.318 554.082 410.453 554.872 410.183C556.492 409.625 558.149 409.125 559.826 408.721C560.636 408.529 561.464 409.01 561.657 409.818C561.869 410.626 561.368 411.453 560.559 411.645C558.978 412.049 557.398 412.511 555.856 413.03C555.701 413.107 555.528 413.126 555.354 413.126ZM586.387 411.126C586.291 411.126 586.194 411.126 586.079 411.087C584.479 410.76 582.86 410.51 581.241 410.318C580.412 410.222 579.814 409.472 579.911 408.644C580.007 407.817 580.759 407.221 581.588 407.317C583.284 407.51 584.999 407.779 586.676 408.125C587.486 408.298 588.025 409.087 587.852 409.914C587.717 410.626 587.081 411.126 586.387 411.126ZM568.23 410.26C567.459 410.26 566.804 409.683 566.727 408.914C566.63 408.087 567.247 407.337 568.076 407.26C569.772 407.086 571.507 406.971 573.222 406.933C573.241 406.933 573.241 406.933 573.261 406.933C574.09 406.933 574.764 407.587 574.764 408.414C574.783 409.241 574.128 409.933 573.28 409.952C571.642 409.991 570.003 410.087 568.384 410.26C568.326 410.26 568.288 410.26 568.23 410.26Z" fill="#91B3FA"/>
<path opacity="0.3" d="M608.168 420.416C607.879 420.416 607.57 420.32 607.3 420.147C606.664 419.704 605.99 419.262 605.334 418.839C604.621 418.396 604.428 417.454 604.872 416.761C605.315 416.05 606.259 415.857 606.953 416.3C607.647 416.742 608.341 417.204 609.016 417.665C609.71 418.146 609.864 419.089 609.401 419.762C609.112 420.204 608.63 420.416 608.168 420.416Z" fill="#91B3FA"/>
</g>
<g opacity="0.3">
<path opacity="0.3" d="M632.743 459.386C632.011 459.386 631.375 458.867 631.259 458.117C631.144 457.347 630.989 456.578 630.835 455.809C630.662 454.981 631.201 454.193 632.011 454.02C632.84 453.847 633.63 454.385 633.804 455.193C633.977 456.001 634.112 456.828 634.247 457.636C634.382 458.463 633.823 459.232 632.994 459.367C632.898 459.386 632.821 459.386 632.743 459.386Z" fill="#91B3FA"/>
<path opacity="0.3" d="M574.61 527.554C573.916 527.554 573.222 527.535 572.509 527.516C571.68 527.497 571.025 526.785 571.044 525.958C571.063 525.131 571.776 524.477 572.605 524.496C574.224 524.554 575.843 524.535 577.424 524.458C578.253 524.419 578.966 525.054 579.004 525.9C579.043 526.727 578.407 527.439 577.559 527.477C576.614 527.535 575.612 527.554 574.61 527.554ZM564.568 526.708C564.491 526.708 564.394 526.708 564.317 526.689C562.659 526.4 560.982 526.054 559.344 525.631C558.535 525.419 558.053 524.592 558.265 523.784C558.477 522.976 559.306 522.496 560.115 522.707C561.657 523.111 563.257 523.438 564.837 523.707C565.666 523.842 566.206 524.631 566.071 525.458C565.936 526.189 565.3 526.708 564.568 526.708ZM585.5 526.535C584.787 526.535 584.151 526.035 584.016 525.304C583.862 524.477 584.401 523.688 585.23 523.534C586.811 523.246 588.372 522.88 589.933 522.438C590.743 522.207 591.572 522.688 591.803 523.496C592.034 524.304 591.552 525.131 590.743 525.362C589.124 525.804 587.447 526.189 585.789 526.516C585.693 526.535 585.597 526.535 585.5 526.535ZM552.097 523.13C551.904 523.13 551.711 523.092 551.519 523.015C549.957 522.38 548.415 521.649 546.912 520.88C546.16 520.495 545.871 519.591 546.256 518.841C546.642 518.091 547.548 517.802 548.3 518.187C549.726 518.918 551.191 519.591 552.675 520.207C553.446 520.514 553.812 521.399 553.504 522.169C553.253 522.784 552.694 523.13 552.097 523.13ZM597.894 522.746C597.316 522.746 596.757 522.399 596.506 521.842C596.178 521.072 596.525 520.187 597.296 519.86C598.761 519.226 600.226 518.533 601.633 517.764C602.366 517.379 603.291 517.648 603.676 518.379C604.062 519.11 603.792 520.034 603.06 520.418C601.575 521.207 600.033 521.957 598.491 522.63C598.299 522.707 598.106 522.746 597.894 522.746ZM609.17 516.34C608.707 516.34 608.245 516.129 607.936 515.725C607.454 515.052 607.589 514.109 608.264 513.609C609.555 512.667 610.827 511.666 612.042 510.628C612.678 510.089 613.622 510.147 614.181 510.782C614.721 511.416 614.663 512.359 614.027 512.917C612.755 514.013 611.406 515.071 610.056 516.071C609.787 516.244 609.478 516.34 609.17 516.34ZM618.769 507.627C618.422 507.627 618.055 507.512 617.766 507.242C617.13 506.685 617.072 505.742 617.631 505.107C618.692 503.915 619.713 502.645 620.677 501.376C621.178 500.702 622.122 500.568 622.797 501.068C623.472 501.568 623.607 502.511 623.105 503.184C622.103 504.53 621.024 505.857 619.906 507.127C619.597 507.454 619.173 507.627 618.769 507.627ZM626.228 497.048C625.977 497.048 625.727 496.99 625.496 496.856C624.763 496.452 624.493 495.528 624.898 494.797C625.669 493.393 626.382 491.951 627.038 490.489C627.384 489.719 628.271 489.392 629.042 489.719C629.813 490.066 630.141 490.95 629.813 491.72C629.139 493.259 628.368 494.778 627.558 496.259C627.269 496.759 626.768 497.048 626.228 497.048ZM631.182 485.065C631.047 485.065 630.893 485.045 630.758 485.007C629.948 484.776 629.485 483.93 629.717 483.141C630.16 481.602 630.546 480.025 630.854 478.467C631.008 477.64 631.818 477.121 632.627 477.274C633.456 477.428 633.977 478.236 633.822 479.044C633.495 480.698 633.09 482.352 632.627 483.968C632.435 484.641 631.837 485.065 631.182 485.065ZM633.379 472.312C633.34 472.312 633.321 472.312 633.283 472.312C632.454 472.254 631.818 471.542 631.856 470.715C631.933 469.542 631.972 468.349 631.972 467.176C631.972 466.753 631.972 466.33 631.953 465.907C631.933 465.079 632.589 464.387 633.437 464.368C634.285 464.329 634.96 465.003 634.979 465.849C634.998 466.291 634.998 466.734 634.998 467.195C634.998 468.426 634.96 469.677 634.882 470.927C634.844 471.696 634.169 472.312 633.379 472.312Z" fill="#91B3FA"/>
<path opacity="0.3" d="M540.685 516.879C540.377 516.879 540.088 516.783 539.818 516.61C539.143 516.148 538.469 515.648 537.813 515.148C537.158 514.648 537.023 513.686 537.524 513.032C538.025 512.378 538.989 512.243 539.645 512.743C540.261 513.224 540.917 513.686 541.553 514.128C542.227 514.609 542.401 515.552 541.919 516.225C541.63 516.667 541.167 516.879 540.685 516.879Z" fill="#91B3FA"/>
</g>
<path d="M542.731 499.356C542.923 499.587 543.232 499.683 543.521 499.567L551.597 496.605C554.777 499.048 558.382 501.01 562.295 502.356L564.261 510.704C564.338 510.993 564.569 511.224 564.877 511.243L575.151 512.282C575.459 512.32 575.729 512.147 575.864 511.878L579.469 504.087C583.574 503.549 587.487 502.356 591.111 500.587L598.435 505.107C598.686 505.261 599.013 505.242 599.264 505.049L607.263 498.529C607.494 498.336 607.591 498.029 607.475 497.74L604.507 489.681C606.955 486.507 608.921 482.91 610.27 479.005L618.635 477.043C618.924 476.966 619.156 476.736 619.175 476.428L620.216 466.176C620.254 465.868 620.081 465.599 619.811 465.464L612.005 461.867C611.465 457.77 610.27 453.865 608.516 450.249L613.045 442.94C613.2 442.69 613.18 442.363 612.988 442.113L606.453 434.13C606.261 433.9 605.952 433.803 605.663 433.919L597.587 436.881C594.407 434.438 590.802 432.476 586.889 431.13L584.923 422.782C584.846 422.493 584.615 422.262 584.306 422.243L574.033 421.205C573.725 421.166 573.455 421.339 573.32 421.608L569.715 429.399C565.61 429.937 561.697 431.13 558.073 432.899L550.749 428.379C550.498 428.225 550.171 428.244 549.92 428.437L541.921 434.957C541.69 435.15 541.593 435.458 541.709 435.746L544.677 443.806C542.229 446.979 540.263 450.576 538.914 454.481L530.549 456.443C530.26 456.52 530.028 456.751 530.009 457.058L528.968 467.31C528.93 467.618 529.103 467.888 529.373 468.022L537.179 471.619C537.719 475.716 538.914 479.621 540.687 483.237L536.158 490.546C536.004 490.796 536.023 491.123 536.216 491.373L542.731 499.356Z" fill="#91B3FA"/>
<path d="M574.592 477.12C569.542 477.12 565.089 473.408 564.337 468.272C563.508 462.617 567.421 457.347 573.088 456.52C575.825 456.116 578.562 456.808 580.798 458.462C583.015 460.117 584.48 462.521 584.884 465.271C585.713 470.927 581.8 476.197 576.134 477.024C575.594 477.082 575.093 477.12 574.592 477.12ZM574.611 458.828C574.225 458.828 573.821 458.847 573.435 458.905C569.098 459.54 566.091 463.579 566.727 467.926C567.363 472.254 571.411 475.274 575.767 474.62C580.104 473.985 583.111 469.946 582.475 465.599C582.167 463.502 581.049 461.655 579.352 460.386C577.945 459.366 576.307 458.828 574.611 458.828Z" fill="#BDD0FB"/>
<path d="M574.803 492.085C573.936 492.085 573.068 492.046 572.182 491.95C571.912 491.931 571.623 491.893 571.353 491.854C570.004 491.681 568.654 491.392 567.363 490.989C567.344 490.989 567.324 490.969 567.305 490.969C567.247 490.95 567.209 490.931 567.151 490.931C567.054 490.892 566.958 490.873 566.862 490.835C566.611 490.758 566.438 490.508 566.438 490.258C566.438 490.2 566.457 490.142 566.476 490.065C566.573 489.758 566.92 489.584 567.247 489.681C568.886 490.219 570.582 490.565 572.316 490.738C580.894 491.604 588.893 487.892 593.866 481.602C596.641 478.101 598.473 473.793 598.954 469.042C599.032 468.214 599.089 467.368 599.089 466.541C599.089 460.982 597.181 455.616 593.615 451.249C589.51 446.229 583.689 443.113 577.232 442.459C563.893 441.113 551.943 450.845 550.594 464.156C550.517 464.983 550.478 465.791 550.478 466.618C550.478 470.176 551.249 473.677 552.772 476.889C552.81 476.966 552.83 477.063 552.83 477.139C552.83 477.37 552.695 477.582 552.483 477.678C552.174 477.813 551.827 477.697 551.673 477.389C550.092 474.004 549.264 470.33 549.264 466.599C549.264 465.733 549.302 464.868 549.399 464.021C550.825 450.057 563.373 439.843 577.367 441.247C584.151 441.94 590.261 445.21 594.56 450.48C598.318 455.077 600.304 460.694 600.304 466.522C600.304 467.387 600.265 468.272 600.169 469.138C599.475 475.908 596.198 482.006 590.917 486.295C586.291 490.084 580.663 492.085 574.803 492.085Z" fill="#BDD0FB"/>
<g opacity="0.3">
<path opacity="0.3" d="M464.301 514.744C463.896 514.744 463.53 514.475 463.395 514.071C463.164 513.321 462.971 512.532 462.798 511.763C462.682 511.263 462.99 510.763 463.492 510.647C463.993 510.532 464.494 510.84 464.61 511.34C464.783 512.071 464.976 512.821 465.188 513.532C465.342 514.033 465.053 514.552 464.552 514.686C464.475 514.725 464.378 514.744 464.301 514.744Z" fill="#91B3FA"/>
<path opacity="0.3" d="M462.913 507.704C462.431 507.704 462.026 507.339 461.987 506.858C461.852 505.492 461.775 504.126 461.775 502.761C461.775 502.472 461.775 502.184 461.775 501.895C461.795 501.376 462.238 500.991 462.739 500.991C463.26 501.01 463.664 501.434 463.645 501.934C463.645 502.203 463.645 502.491 463.645 502.761C463.645 504.069 463.703 505.377 463.838 506.665C463.896 507.185 463.51 507.627 463.009 507.685C462.97 507.704 462.951 507.704 462.913 507.704ZM463.125 498.01C463.086 498.01 463.028 498.01 462.99 498.01C462.469 497.933 462.122 497.471 462.199 496.952C462.431 495.317 462.778 493.682 463.202 492.085C463.337 491.585 463.857 491.297 464.358 491.431C464.859 491.566 465.149 492.085 465.014 492.586C464.609 494.105 464.281 495.663 464.05 497.221C463.973 497.683 463.568 498.01 463.125 498.01ZM465.669 488.681C465.553 488.681 465.438 488.662 465.322 488.604C464.84 488.412 464.609 487.854 464.821 487.392C465.457 485.873 466.189 484.353 466.999 482.93C467.249 482.487 467.828 482.314 468.271 482.583C468.714 482.833 468.888 483.411 468.618 483.853C467.847 485.219 467.134 486.661 466.536 488.104C466.382 488.45 466.035 488.681 465.669 488.681ZM470.449 480.237C470.256 480.237 470.064 480.179 469.89 480.044C469.466 479.737 469.389 479.16 469.697 478.736C470.68 477.409 471.76 476.14 472.897 474.928C473.244 474.563 473.841 474.543 474.227 474.889C474.593 475.236 474.612 475.832 474.266 476.217C473.186 477.352 472.145 478.583 471.201 479.833C471.008 480.102 470.738 480.237 470.449 480.237ZM477.137 473.235C476.868 473.235 476.598 473.12 476.405 472.889C476.077 472.485 476.135 471.908 476.54 471.581C477.812 470.542 479.181 469.561 480.568 468.677C481.012 468.407 481.59 468.523 481.86 468.965C482.13 469.408 482.014 469.985 481.571 470.254C480.241 471.1 478.949 472.023 477.716 473.024C477.562 473.158 477.35 473.235 477.137 473.235ZM485.349 468.042C485.002 468.042 484.655 467.85 484.5 467.503C484.288 467.042 484.481 466.484 484.944 466.253C486.447 465.541 487.989 464.926 489.57 464.406C490.071 464.253 490.591 464.522 490.746 465.003C490.9 465.484 490.63 466.022 490.148 466.176C488.645 466.657 487.18 467.253 485.753 467.926C485.618 468.023 485.464 468.042 485.349 468.042ZM494.562 465.022C494.119 465.022 493.733 464.714 493.637 464.272C493.54 463.772 493.868 463.272 494.369 463.175C495.988 462.868 497.646 462.637 499.304 462.522C499.824 462.502 500.267 462.868 500.306 463.387C500.344 463.906 499.959 464.349 499.439 464.387C497.858 464.503 496.277 464.714 494.735 465.003C494.678 465.022 494.62 465.022 494.562 465.022ZM509.057 464.907C508.999 464.907 508.941 464.907 508.883 464.887C507.534 464.657 506.166 464.483 504.778 464.387C504.566 464.368 504.373 464.368 504.161 464.349C503.64 464.33 503.255 463.887 503.274 463.368C503.294 462.848 503.737 462.445 504.257 462.483C504.469 462.502 504.701 462.502 504.913 462.522C506.358 462.618 507.804 462.791 509.211 463.041C509.712 463.137 510.059 463.618 509.963 464.118C509.905 464.599 509.5 464.907 509.057 464.907Z" fill="#91B3FA"/>
</g>
<g opacity="0.3">
<path opacity="0.3" d="M502.697 543C502.196 543 501.772 542.596 501.772 542.077C501.772 541.558 502.177 541.134 502.697 541.134C504.258 541.115 505.819 541 507.342 540.788C507.843 540.731 508.325 541.077 508.402 541.596C508.479 542.115 508.113 542.577 507.593 542.654C505.974 542.866 504.335 542.981 502.697 543ZM497.917 542.789C497.878 542.789 497.859 542.789 497.82 542.789C496.201 542.616 494.582 542.346 493.002 541.981C492.501 541.865 492.192 541.365 492.308 540.865C492.423 540.365 492.925 540.057 493.426 540.173C494.929 540.519 496.49 540.788 498.032 540.942C498.553 541 498.919 541.461 498.861 541.962C498.803 542.423 498.399 542.789 497.917 542.789ZM512.161 541.731C511.737 541.731 511.371 541.461 511.255 541.038C511.12 540.538 511.428 540.038 511.93 539.903C513.433 539.499 514.917 539.019 516.363 538.442C516.845 538.249 517.384 538.48 517.577 538.961C517.77 539.442 517.539 539.98 517.057 540.173C515.553 540.769 513.992 541.288 512.411 541.692C512.315 541.731 512.238 541.731 512.161 541.731ZM488.626 540.634C488.511 540.634 488.414 540.615 488.299 540.577C486.776 540.019 485.253 539.365 483.808 538.634C483.345 538.403 483.171 537.845 483.403 537.384C483.634 536.922 484.193 536.749 484.656 536.98C486.043 537.691 487.47 538.307 488.935 538.845C489.417 539.019 489.667 539.557 489.494 540.038C489.359 540.404 488.993 540.634 488.626 540.634ZM521.027 538.211C520.7 538.211 520.372 538.038 520.199 537.73C519.948 537.268 520.121 536.71 520.565 536.46C521.933 535.71 523.263 534.883 524.516 533.979C524.94 533.671 525.518 533.767 525.827 534.191C526.135 534.614 526.039 535.191 525.615 535.499C524.285 536.441 522.897 537.326 521.471 538.095C521.336 538.172 521.182 538.211 521.027 538.211ZM528.795 532.671C528.545 532.671 528.294 532.575 528.101 532.363C527.754 531.979 527.774 531.402 528.159 531.036C529.296 529.978 530.395 528.863 531.397 527.689C531.725 527.305 532.322 527.247 532.708 527.593C533.093 527.92 533.151 528.516 532.804 528.901C531.744 530.132 530.607 531.305 529.393 532.421C529.238 532.594 529.007 532.671 528.795 532.671ZM535.002 525.439C534.828 525.439 534.635 525.381 534.481 525.285C534.057 524.996 533.942 524.419 534.231 523.996C535.098 522.707 535.888 521.342 536.582 519.976C536.814 519.514 537.372 519.322 537.835 519.553C538.298 519.784 538.49 520.342 538.259 520.803C537.527 522.246 536.698 523.669 535.792 525.035C535.599 525.285 535.291 525.439 535.002 525.439Z" fill="#91B3FA"/>
<path opacity="0.3" d="M480.068 536.268C479.894 536.268 479.702 536.21 479.547 536.114C478.892 535.672 478.237 535.191 477.601 534.729C477.196 534.421 477.119 533.825 477.427 533.421C477.736 533.017 478.333 532.94 478.738 533.248C479.335 533.71 479.952 534.152 480.588 534.575C481.012 534.864 481.128 535.441 480.839 535.864C480.665 536.133 480.376 536.268 480.068 536.268Z" fill="#91B3FA"/>
</g>
<path d="M480.858 524.227C480.993 524.381 481.205 524.439 481.378 524.381L486.775 522.4C488.915 524.035 491.324 525.343 493.926 526.247L495.237 531.844C495.276 532.036 495.449 532.19 495.642 532.21L502.523 532.902C502.716 532.921 502.909 532.806 503.005 532.633L505.414 527.42C508.151 527.074 510.792 526.266 513.201 525.093L518.097 528.113C518.271 528.228 518.483 528.209 518.637 528.074L523.995 523.708C524.149 523.573 524.207 523.361 524.149 523.169L522.164 517.783C523.803 515.648 525.113 513.244 526.019 510.647L531.628 509.339C531.821 509.301 531.975 509.128 531.994 508.935L532.688 502.069C532.707 501.876 532.592 501.684 532.418 501.588L527.195 499.183C526.848 496.452 526.038 493.817 524.863 491.412L527.889 486.527C528.004 486.354 527.985 486.142 527.85 485.988L523.475 480.641C523.34 480.487 523.128 480.429 522.954 480.487L517.557 482.468C515.418 480.833 513.009 479.525 510.406 478.621L509.096 473.024C509.057 472.832 508.884 472.678 508.691 472.658L501.81 471.966C501.617 471.947 501.424 472.062 501.328 472.235L498.919 477.448C496.182 477.794 493.541 478.602 491.132 479.775L486.236 476.755C486.062 476.64 485.85 476.659 485.696 476.794L480.338 481.16C480.183 481.295 480.126 481.506 480.183 481.699L482.169 487.085C480.53 489.22 479.22 491.624 478.314 494.221L472.705 495.529C472.512 495.567 472.358 495.74 472.339 495.933L471.645 502.799C471.625 502.992 471.741 503.184 471.915 503.28L477.138 505.685C477.485 508.416 478.295 511.051 479.47 513.456L476.444 518.341C476.328 518.514 476.348 518.726 476.483 518.88L480.858 524.227Z" fill="#91B3FA"/>
<path d="M502.158 509.474C500.654 509.474 499.189 508.993 497.956 508.089C496.433 506.974 495.45 505.319 495.18 503.454C494.602 499.607 497.281 496.01 501.136 495.452C504.991 494.894 508.596 497.549 509.155 501.396C509.424 503.261 508.962 505.127 507.844 506.627C506.726 508.147 505.068 509.128 503.198 509.397C502.852 509.436 502.505 509.474 502.158 509.474ZM502.177 497.222C501.926 497.222 501.676 497.241 501.406 497.279C498.572 497.702 496.606 500.338 497.011 503.165C497.223 504.531 497.936 505.743 499.054 506.57C500.172 507.397 501.541 507.743 502.909 507.531C504.278 507.32 505.492 506.608 506.321 505.493C507.15 504.377 507.497 503.011 507.285 501.646C506.938 499.087 504.721 497.222 502.177 497.222Z" fill="#BDD0FB"/>
<path d="M502.292 519.88C501.695 519.88 501.097 519.841 500.5 519.784C499.305 519.668 498.129 519.418 496.992 519.072C496.934 519.053 496.895 519.033 496.838 519.014C496.433 518.88 496.182 518.514 496.182 518.129C496.182 518.033 496.202 517.937 496.221 517.841C496.375 517.36 496.915 517.091 497.397 517.245C498.457 517.591 499.555 517.822 500.673 517.937C500.731 517.937 500.789 517.956 500.866 517.956C503.507 518.206 506.109 517.764 508.48 516.744C509.771 516.187 510.985 515.456 512.103 514.571L512.123 514.552C512.142 514.532 512.18 514.513 512.2 514.475C515.457 511.82 517.481 508.07 517.905 503.896C517.963 503.357 517.982 502.818 517.982 502.28C517.982 498.683 516.749 495.221 514.436 492.374C511.776 489.123 508.017 487.104 503.834 486.68C499.652 486.257 495.546 487.488 492.289 490.143C489.031 492.797 487.007 496.548 486.583 500.722C486.526 501.26 486.506 501.78 486.506 502.318C486.506 504.626 487.008 506.896 487.991 508.974C488.048 509.108 488.087 509.243 488.087 509.377C488.087 509.724 487.894 510.07 487.547 510.224C487.085 510.435 486.526 510.243 486.294 509.781C485.196 507.454 484.637 504.915 484.637 502.338C484.637 501.741 484.675 501.145 484.733 500.549C485.215 495.875 487.47 491.681 491.113 488.7C494.756 485.738 499.343 484.353 504.027 484.834C508.711 485.315 512.913 487.565 515.901 491.201C518.483 494.374 519.871 498.241 519.871 502.28C519.871 502.876 519.833 503.472 519.775 504.088C518.888 513.128 511.217 519.88 502.292 519.88Z" fill="#BDD0FB"/>
<path d="M196.014 509.839L189.479 498.548C188.477 496.817 186.646 495.778 184.642 495.778H171.573C169.569 495.778 167.737 496.817 166.735 498.548L160.201 509.858C159.199 511.589 159.199 513.705 160.201 515.417L166.735 526.535C167.737 528.266 169.569 529.132 171.573 529.132H184.642C186.646 529.132 188.477 528.266 189.479 526.535L196.014 515.302C197.016 513.59 197.016 511.551 196.014 509.839Z" fill="url(#paint100_linear)"/>
<path d="M193.854 509.724L188.207 500.376C187.339 498.895 185.759 498.395 184.024 498.395H172.748C171.033 498.395 169.433 498.875 168.566 500.376L162.918 509.935C162.051 511.417 162.051 513.148 162.918 514.629L168.566 524.573C169.433 526.054 171.014 527.151 172.748 527.151H184.024C185.74 527.151 187.339 525.997 188.207 524.516L193.854 514.629C194.722 513.148 194.722 511.205 193.854 509.724Z" fill="#7D97F4"/>
<path d="M318.448 503.049C318.448 506.453 316.02 508.858 313.225 508.858H209.545C206.731 508.858 204.438 506.473 204.438 503.049V502.991C204.438 499.586 206.75 497.086 209.545 497.086H313.206C316.02 497.086 318.429 499.586 318.429 502.991V503.049H318.448Z" fill="url(#paint101_linear)"/>
<path d="M276.544 502.971C276.544 505.164 275.117 507.549 273.344 507.549H210.623C208.869 507.549 207.424 505.164 207.424 502.971C207.424 500.779 208.85 498.394 210.623 498.394H273.344C275.117 498.394 276.544 500.779 276.544 502.971Z" fill="#7D97F4"/>
<path d="M264.053 519.745C264.053 521.668 262.492 523.227 260.565 523.227H211.202C209.274 523.227 207.713 521.668 207.713 519.745V519.533C207.713 517.61 209.274 516.052 211.202 516.052H260.565C262.492 516.052 264.053 517.61 264.053 519.533V519.745Z" fill="url(#paint102_linear)"/>
<path d="M182.619 506.935C182.619 509.416 180.614 512.09 178.128 512.09C175.641 512.09 173.637 509.416 173.637 506.935C173.637 504.453 175.641 502.703 178.128 502.703C180.614 502.703 182.619 504.453 182.619 506.935Z" fill="white"/>
<path d="M172.556 521.611H183.523C184.68 521.611 185.701 520.861 186.048 519.764L186.646 517.918C187.07 516.571 186.376 515.109 185.046 514.629C180.574 512.994 175.968 513.205 171.245 514.782C169.915 515.225 169.183 516.629 169.549 517.975L170.012 519.649C170.301 520.803 171.342 521.611 172.556 521.611Z" fill="white"/>
</g>
<defs>
<linearGradient id="paint0_linear" x1="94.0101" y1="270.506" x2="630.786" y2="270.506" gradientUnits="userSpaceOnUse">
<stop stop-color="white"/>
<stop offset="1" stop-color="#E9EFFD"/>
</linearGradient>
<linearGradient id="paint1_linear" x1="494.045" y1="40.2308" x2="485.56" y2="75.8761" gradientUnits="userSpaceOnUse">
<stop stop-color="#09005D"/>
<stop offset="1" stop-color="#1A0F91"/>
</linearGradient>
<linearGradient id="paint2_linear" x1="567.353" y1="52.863" x2="565.069" y2="80.3272" gradientUnits="userSpaceOnUse">
<stop stop-color="#09005D"/>
<stop offset="1" stop-color="#1A0F91"/>
</linearGradient>
<linearGradient id="paint3_linear" x1="539.262" y1="63.8762" x2="539.262" y2="100.494" gradientUnits="userSpaceOnUse">
<stop stop-color="#09005D"/>
<stop offset="1" stop-color="#1A0F91"/>
</linearGradient>
<linearGradient id="paint4_linear" x1="185.964" y1="52.2157" x2="185.964" y2="69.2169" gradientUnits="userSpaceOnUse">
<stop stop-color="#09005D"/>
<stop offset="1" stop-color="#1A0F91"/>
</linearGradient>
<linearGradient id="paint5_linear" x1="269.3" y1="46.5482" x2="269.3" y2="74.0117" gradientUnits="userSpaceOnUse">
<stop stop-color="#09005D"/>
<stop offset="1" stop-color="#1A0F91"/>
</linearGradient>
<linearGradient id="paint6_linear" x1="243.743" y1="67.4728" x2="243.743" y2="102.347" gradientUnits="userSpaceOnUse">
<stop stop-color="#09005D"/>
<stop offset="1" stop-color="#1A0F91"/>
</linearGradient>
<linearGradient id="paint7_linear" x1="477.454" y1="165.444" x2="630.593" y2="68.0578" gradientUnits="userSpaceOnUse">
<stop stop-color="#4F52FF"/>
<stop offset="1" stop-color="#4042E2"/>
</linearGradient>
<linearGradient id="paint8_linear" x1="450.56" y1="110.464" x2="457.52" y2="36.7898" gradientUnits="userSpaceOnUse">
<stop stop-color="#4F52FF"/>
<stop offset="1" stop-color="#4042E2"/>
</linearGradient>
<linearGradient id="paint9_linear" x1="530.18" y1="269.544" x2="591.704" y2="239.129" gradientUnits="userSpaceOnUse">
<stop stop-color="#09005D"/>
<stop offset="1" stop-color="#1A0F91"/>
</linearGradient>
<linearGradient id="paint10_linear" x1="500.387" y1="244.65" x2="521.776" y2="244.65" gradientUnits="userSpaceOnUse">
<stop stop-color="#09005D"/>
<stop offset="1" stop-color="#1A0F91"/>
</linearGradient>
<linearGradient id="paint11_linear" x1="478.962" y1="231.758" x2="716.652" y2="227.788" gradientUnits="userSpaceOnUse">
<stop stop-color="#FEBBBA"/>
<stop offset="1" stop-color="#FF928E"/>
</linearGradient>
<linearGradient id="paint12_linear" x1="502.191" y1="165.673" x2="488.262" y2="201.003" gradientUnits="userSpaceOnUse">
<stop stop-color="#FF928E"/>
<stop offset="1" stop-color="#EDA85A"/>
</linearGradient>
<linearGradient id="paint13_linear" x1="491.959" y1="154.029" x2="462.672" y2="226.548" gradientUnits="userSpaceOnUse">
<stop stop-color="#FEBBBA"/>
<stop offset="1" stop-color="#FF928E"/>
</linearGradient>
<linearGradient id="paint14_linear" x1="501.166" y1="152.708" x2="458.119" y2="166.043" gradientUnits="userSpaceOnUse">
<stop stop-color="#FEBBBA"/>
<stop offset="1" stop-color="#FF928E"/>
</linearGradient>
<linearGradient id="paint15_linear" x1="485.028" y1="123.702" x2="501.393" y2="175.422" gradientUnits="userSpaceOnUse">
<stop stop-color="#09005D"/>
<stop offset="1" stop-color="#1A0F91"/>
</linearGradient>
<linearGradient id="paint16_linear" x1="476.091" y1="167.152" x2="491.308" y2="156.814" gradientUnits="userSpaceOnUse">
<stop stop-color="#4F52FF"/>
<stop offset="1" stop-color="#4042E2"/>
</linearGradient>
<linearGradient id="paint17_linear" x1="490.311" y1="166.251" x2="494.185" y2="166.251" gradientUnits="userSpaceOnUse">
<stop stop-color="#4F52FF"/>
<stop offset="1" stop-color="#4042E2"/>
</linearGradient>
<linearGradient id="paint18_linear" x1="524.67" y1="128.998" x2="416.851" y2="146.849" gradientUnits="userSpaceOnUse">
<stop stop-color="#4F52FF"/>
<stop offset="1" stop-color="#4042E2"/>
</linearGradient>
<linearGradient id="paint19_linear" x1="508.769" y1="95.8876" x2="496.685" y2="117.814" gradientUnits="userSpaceOnUse">
<stop stop-color="#4F52FF"/>
<stop offset="1" stop-color="#4042E2"/>
</linearGradient>
<linearGradient id="paint20_linear" x1="478.589" y1="149.447" x2="513.537" y2="90.5329" gradientUnits="userSpaceOnUse">
<stop stop-color="#4F52FF"/>
<stop offset="1" stop-color="#4042E2"/>
</linearGradient>
<linearGradient id="paint21_linear" x1="497.804" y1="138.103" x2="426.782" y2="268.744" gradientUnits="userSpaceOnUse">
<stop stop-color="#E1473D"/>
<stop offset="1" stop-color="#E9605A"/>
</linearGradient>
<linearGradient id="paint22_linear" x1="504.586" y1="141.791" x2="433.564" y2="272.432" gradientUnits="userSpaceOnUse">
<stop stop-color="#E1473D"/>
<stop offset="1" stop-color="#E9605A"/>
</linearGradient>
<linearGradient id="paint23_linear" x1="421.203" y1="235.252" x2="709.842" y2="230.431" gradientUnits="userSpaceOnUse">
<stop stop-color="#FEBBBA"/>
<stop offset="1" stop-color="#FF928E"/>
</linearGradient>
<linearGradient id="paint24_linear" x1="625.845" y1="151.487" x2="542.464" y2="229.143" gradientUnits="userSpaceOnUse">
<stop stop-color="#09005D"/>
<stop offset="1" stop-color="#1A0F91"/>
</linearGradient>
<linearGradient id="paint25_linear" x1="535.753" y1="260.802" x2="534.505" y2="178.304" gradientUnits="userSpaceOnUse">
<stop stop-color="#09005D"/>
<stop offset="1" stop-color="#1A0F91"/>
</linearGradient>
<linearGradient id="paint26_linear" x1="586.321" y1="246.991" x2="525.83" y2="247.673" gradientUnits="userSpaceOnUse">
<stop stop-color="#09005D"/>
<stop offset="1" stop-color="#1A0F91"/>
</linearGradient>
<linearGradient id="paint27_linear" x1="571.467" y1="251.494" x2="598.926" y2="214.806" gradientUnits="userSpaceOnUse">
<stop stop-color="#09005D"/>
<stop offset="1" stop-color="#1A0F91"/>
</linearGradient>
<linearGradient id="paint28_linear" x1="573.786" y1="221.518" x2="646.246" y2="187.4" gradientUnits="userSpaceOnUse">
<stop stop-color="#09005D"/>
<stop offset="1" stop-color="#1A0F91"/>
</linearGradient>
<linearGradient id="paint29_linear" x1="634.817" y1="149.784" x2="584.269" y2="210.917" gradientUnits="userSpaceOnUse">
<stop stop-color="#09005D"/>
<stop offset="1" stop-color="#1A0F91"/>
</linearGradient>
<linearGradient id="paint30_linear" x1="571.542" y1="194.456" x2="511.772" y2="293.625" gradientUnits="userSpaceOnUse">
<stop stop-color="#BDD0FB"/>
<stop offset="1" stop-color="#7D97F4"/>
</linearGradient>
<linearGradient id="paint31_linear" x1="332.212" y1="374.398" x2="431.533" y2="277.489" gradientUnits="userSpaceOnUse">
<stop stop-color="#53D8FF"/>
<stop offset="1" stop-color="#BDD0FB"/>
</linearGradient>
<linearGradient id="paint32_linear" x1="509.114" y1="243.62" x2="538.271" y2="152.911" gradientUnits="userSpaceOnUse">
<stop stop-color="#4F52FF"/>
<stop offset="1" stop-color="#4042E2"/>
</linearGradient>
<linearGradient id="paint33_linear" x1="411.675" y1="251.638" x2="358.702" y2="252.235" gradientUnits="userSpaceOnUse">
<stop stop-color="#4F52FF"/>
<stop offset="1" stop-color="#4042E2"/>
</linearGradient>
<linearGradient id="paint34_linear" x1="260.451" y1="330.238" x2="40.8866" y2="135.621" gradientUnits="userSpaceOnUse">
<stop stop-color="#4F52FF"/>
<stop offset="1" stop-color="#4042E2"/>
</linearGradient>
<linearGradient id="paint35_linear" x1="179.879" y1="187.681" x2="115.721" y2="130.812" gradientUnits="userSpaceOnUse">
<stop stop-color="#4F52FF"/>
<stop offset="1" stop-color="#4042E2"/>
</linearGradient>
<linearGradient id="paint36_linear" x1="215.258" y1="293.527" x2="282.883" y2="260.096" gradientUnits="userSpaceOnUse">
<stop stop-color="#09005D"/>
<stop offset="1" stop-color="#1A0F91"/>
</linearGradient>
<linearGradient id="paint37_linear" x1="190.893" y1="266.351" x2="214.402" y2="266.351" gradientUnits="userSpaceOnUse">
<stop stop-color="#09005D"/>
<stop offset="1" stop-color="#1A0F91"/>
</linearGradient>
<linearGradient id="paint38_linear" x1="214.873" y1="288.09" x2="192.323" y2="224.115" gradientUnits="userSpaceOnUse">
<stop stop-color="#FF928E"/>
<stop offset="1" stop-color="#FE7062"/>
</linearGradient>
<linearGradient id="paint39_linear" x1="213.112" y1="249.81" x2="252.954" y2="259.116" gradientUnits="userSpaceOnUse">
<stop stop-color="#FEBBBA"/>
<stop offset="1" stop-color="#FF928E"/>
</linearGradient>
<linearGradient id="paint40_linear" x1="176.441" y1="378.507" x2="164.322" y2="302.116" gradientUnits="userSpaceOnUse">
<stop stop-color="#53D8FF"/>
<stop offset="1" stop-color="#3840F7"/>
</linearGradient>
<linearGradient id="paint41_linear" x1="171.561" y1="379.282" x2="159.442" y2="302.89" gradientUnits="userSpaceOnUse">
<stop stop-color="#53D8FF"/>
<stop offset="1" stop-color="#3840F7"/>
</linearGradient>
<linearGradient id="paint42_linear" x1="180.964" y1="377.79" x2="168.844" y2="301.399" gradientUnits="userSpaceOnUse">
<stop stop-color="#53D8FF"/>
<stop offset="1" stop-color="#3840F7"/>
</linearGradient>
<linearGradient id="paint43_linear" x1="233.486" y1="329.873" x2="193.455" y2="329.873" gradientUnits="userSpaceOnUse">
<stop stop-color="#FEBBBA"/>
<stop offset="1" stop-color="#FF928E"/>
</linearGradient>
<linearGradient id="paint44_linear" x1="208.992" y1="355.903" x2="214.856" y2="445.998" gradientUnits="userSpaceOnUse">
<stop stop-color="#CB236D"/>
<stop offset="1" stop-color="#4C246D"/>
</linearGradient>
<linearGradient id="paint45_linear" x1="280.489" y1="332.602" x2="196.017" y2="332.602" gradientUnits="userSpaceOnUse">
<stop stop-color="#FEBBBA"/>
<stop offset="1" stop-color="#FF928E"/>
</linearGradient>
<linearGradient id="paint46_linear" x1="228.366" y1="288.627" x2="133.732" y2="288.627" gradientUnits="userSpaceOnUse">
<stop stop-color="#FF928E"/>
<stop offset="1" stop-color="#FE7062"/>
</linearGradient>
<linearGradient id="paint47_linear" x1="265.81" y1="352.205" x2="271.674" y2="442.3" gradientUnits="userSpaceOnUse">
<stop stop-color="#CB236D"/>
<stop offset="1" stop-color="#4C246D"/>
</linearGradient>
<linearGradient id="paint48_linear" x1="161.707" y1="130.895" x2="175.586" y2="203.96" gradientUnits="userSpaceOnUse">
<stop stop-color="#09005D"/>
<stop offset="1" stop-color="#1A0F91"/>
</linearGradient>
<linearGradient id="paint49_linear" x1="222.678" y1="194.319" x2="151.063" y2="258.218" gradientUnits="userSpaceOnUse">
<stop stop-color="#EDA85A"/>
<stop offset="1" stop-color="#FE7062"/>
</linearGradient>
<linearGradient id="paint50_linear" x1="184.768" y1="222.295" x2="190.447" y2="185.779" gradientUnits="userSpaceOnUse">
<stop stop-color="#FEBBBA"/>
<stop offset="1" stop-color="#FF928E"/>
</linearGradient>
<linearGradient id="paint51_linear" x1="215.768" y1="183.591" x2="173.035" y2="169.145" gradientUnits="userSpaceOnUse">
<stop stop-color="#FEBBBA"/>
<stop offset="1" stop-color="#FF928E"/>
</linearGradient>
<linearGradient id="paint52_linear" x1="224.888" y1="145.51" x2="175.09" y2="200.833" gradientUnits="userSpaceOnUse">
<stop stop-color="#09005D"/>
<stop offset="1" stop-color="#1A0F91"/>
</linearGradient>
<linearGradient id="paint53_linear" x1="217.041" y1="179.826" x2="174.309" y2="165.38" gradientUnits="userSpaceOnUse">
<stop stop-color="#FEBBBA"/>
<stop offset="1" stop-color="#FF928E"/>
</linearGradient>
<linearGradient id="paint54_linear" x1="161.352" y1="263.753" x2="82" y2="263.753" gradientUnits="userSpaceOnUse">
<stop stop-color="#FEBBBA"/>
<stop offset="1" stop-color="#FF928E"/>
</linearGradient>
<linearGradient id="paint55_linear" x1="191.267" y1="196.693" x2="206.596" y2="183.289" gradientUnits="userSpaceOnUse">
<stop stop-color="#4F52FF"/>
<stop offset="1" stop-color="#4042E2"/>
</linearGradient>
<linearGradient id="paint56_linear" x1="207.017" y1="193.677" x2="211.236" y2="193.677" gradientUnits="userSpaceOnUse">
<stop stop-color="#4F52FF"/>
<stop offset="1" stop-color="#4042E2"/>
</linearGradient>
<linearGradient id="paint57_linear" x1="238.797" y1="149.682" x2="122.717" y2="183.817" gradientUnits="userSpaceOnUse">
<stop stop-color="#4F52FF"/>
<stop offset="1" stop-color="#4042E2"/>
</linearGradient>
<linearGradient id="paint58_linear" x1="213.21" y1="172.04" x2="149.271" y2="190.842" gradientUnits="userSpaceOnUse">
<stop stop-color="#4F52FF"/>
<stop offset="1" stop-color="#4042E2"/>
</linearGradient>
<linearGradient id="paint59_linear" x1="182.973" y1="179.544" x2="216.96" y2="174.801" gradientUnits="userSpaceOnUse">
<stop stop-color="#4F52FF"/>
<stop offset="1" stop-color="#4042E2"/>
</linearGradient>
<linearGradient id="paint60_linear" x1="326.234" y1="177.841" x2="241.858" y2="249.612" gradientUnits="userSpaceOnUse">
<stop stop-color="#09005D"/>
<stop offset="1" stop-color="#1A0F91"/>
</linearGradient>
<linearGradient id="paint61_linear" x1="240.603" y1="281.596" x2="239.231" y2="190.919" gradientUnits="userSpaceOnUse">
<stop stop-color="#09005D"/>
<stop offset="1" stop-color="#1A0F91"/>
</linearGradient>
<linearGradient id="paint62_linear" x1="296.185" y1="266.416" x2="229.697" y2="267.166" gradientUnits="userSpaceOnUse">
<stop stop-color="#09005D"/>
<stop offset="1" stop-color="#1A0F91"/>
</linearGradient>
<linearGradient id="paint63_linear" x1="279.861" y1="271.365" x2="310.041" y2="231.04" gradientUnits="userSpaceOnUse">
<stop stop-color="#09005D"/>
<stop offset="1" stop-color="#1A0F91"/>
</linearGradient>
<linearGradient id="paint64_linear" x1="307.925" y1="237.63" x2="357.723" y2="234.128" gradientUnits="userSpaceOnUse">
<stop stop-color="#09005D"/>
<stop offset="1" stop-color="#1A0F91"/>
</linearGradient>
<linearGradient id="paint65_linear" x1="340.748" y1="293.478" x2="293.659" y2="250.659" gradientUnits="userSpaceOnUse">
<stop stop-color="#09005D"/>
<stop offset="1" stop-color="#1A0F91"/>
</linearGradient>
<linearGradient id="paint66_linear" x1="208" y1="351.5" x2="260.698" y2="135.151" gradientUnits="userSpaceOnUse">
<stop stop-color="#7D97F4"/>
<stop offset="1" stop-color="#BDD0FB"/>
</linearGradient>
<linearGradient id="paint67_linear" x1="219.64" y1="267.683" x2="216.152" y2="270.741" gradientUnits="userSpaceOnUse">
<stop stop-color="#4F52FF"/>
<stop offset="1" stop-color="#BDD0FB"/>
</linearGradient>
<linearGradient id="paint68_linear" x1="225.566" y1="171.367" x2="220.781" y2="228.911" gradientUnits="userSpaceOnUse">
<stop stop-color="#4F52FF"/>
<stop offset="1" stop-color="#4042E2"/>
</linearGradient>
<linearGradient id="paint69_linear" x1="148.805" y1="296.11" x2="181.017" y2="371.575" gradientUnits="userSpaceOnUse">
<stop stop-color="#4F52FF"/>
<stop offset="1" stop-color="#4042E2"/>
</linearGradient>
<linearGradient id="paint70_linear" x1="417.301" y1="514.236" x2="432.867" y2="513.373" gradientUnits="userSpaceOnUse">
<stop stop-color="#FEBBBA"/>
<stop offset="1" stop-color="#FF928E"/>
</linearGradient>
<linearGradient id="paint71_linear" x1="393.485" y1="474.323" x2="454.328" y2="378.038" gradientUnits="userSpaceOnUse">
<stop stop-color="#2B3582"/>
<stop offset="0.2305" stop-color="#252A70"/>
<stop offset="0.7285" stop-color="#19164F"/>
<stop offset="1" stop-color="#150E42"/>
</linearGradient>
<linearGradient id="paint72_linear" x1="371.744" y1="515.383" x2="368.7" y2="397.275" gradientUnits="userSpaceOnUse">
<stop stop-color="#09005D"/>
<stop offset="1" stop-color="#1A0F91"/>
</linearGradient>
<linearGradient id="paint73_linear" x1="-1369.15" y1="2357.33" x2="-1285.9" y2="2264.15" gradientUnits="userSpaceOnUse">
<stop stop-color="#FF928E"/>
<stop offset="1" stop-color="#EDA85A"/>
</linearGradient>
<linearGradient id="paint74_linear" x1="442.172" y1="358.613" x2="493.133" y2="355.789" gradientUnits="userSpaceOnUse">
<stop stop-color="#FEBBBA"/>
<stop offset="1" stop-color="#FF928E"/>
</linearGradient>
<linearGradient id="paint75_linear" x1="302.454" y1="402.091" x2="390.725" y2="313.636" gradientUnits="userSpaceOnUse">
<stop stop-color="#FF928E"/>
<stop offset="1" stop-color="#EDA85A"/>
</linearGradient>
<linearGradient id="paint76_linear" x1="389.391" y1="286.24" x2="423.204" y2="284.367" gradientUnits="userSpaceOnUse">
<stop stop-color="#FEBBBA"/>
<stop offset="1" stop-color="#FF928E"/>
</linearGradient>
<linearGradient id="paint77_linear" x1="280.684" y1="380.365" x2="368.956" y2="291.91" gradientUnits="userSpaceOnUse">
<stop stop-color="#FF928E"/>
<stop offset="1" stop-color="#EDA85A"/>
</linearGradient>
<linearGradient id="paint78_linear" x1="455.685" y1="235.277" x2="283.232" y2="383.681" gradientUnits="userSpaceOnUse">
<stop stop-color="#E1473D"/>
<stop offset="1" stop-color="#EDA85A"/>
</linearGradient>
<linearGradient id="paint79_linear" x1="370.521" y1="363.176" x2="253.896" y2="594.988" gradientUnits="userSpaceOnUse">
<stop stop-color="#FEBBBA"/>
<stop offset="1" stop-color="#FF928E"/>
</linearGradient>
<linearGradient id="paint80_linear" x1="424.563" y1="246.109" x2="401.267" y2="312.201" gradientUnits="userSpaceOnUse">
<stop stop-color="#FEBBBA"/>
<stop offset="1" stop-color="#FF928E"/>
</linearGradient>
<linearGradient id="paint81_linear" x1="397.84" y1="268.731" x2="446.016" y2="253.387" gradientUnits="userSpaceOnUse">
<stop stop-color="#09005D"/>
<stop offset="1" stop-color="#1A0F91"/>
</linearGradient>
<linearGradient id="paint82_linear" x1="378.906" y1="307.033" x2="400.642" y2="263.601" gradientUnits="userSpaceOnUse">
<stop stop-color="#FEBBBA"/>
<stop offset="1" stop-color="#FF928E"/>
</linearGradient>
<linearGradient id="paint83_linear" x1="350.086" y1="-158.261" x2="357.542" y2="-105.199" gradientUnits="userSpaceOnUse">
<stop stop-color="#FF928E"/>
<stop offset="1" stop-color="#FE7062"/>
</linearGradient>
<linearGradient id="paint84_linear" x1="417.824" y1="281.516" x2="422.457" y2="281.516" gradientUnits="userSpaceOnUse">
<stop stop-color="#FF928E"/>
<stop offset="1" stop-color="#FE7062"/>
</linearGradient>
<linearGradient id="paint85_linear" x1="374.121" y1="716.189" x2="380.204" y2="634.974" gradientUnits="userSpaceOnUse">
<stop stop-color="#FF928E"/>
<stop offset="1" stop-color="#FE7062"/>
</linearGradient>
<linearGradient id="paint86_linear" x1="366.298" y1="715.603" x2="372.38" y2="634.388" gradientUnits="userSpaceOnUse">
<stop stop-color="#FF928E"/>
<stop offset="1" stop-color="#FE7062"/>
</linearGradient>
<linearGradient id="paint87_linear" x1="385.963" y1="316.14" x2="405.409" y2="241.118" gradientUnits="userSpaceOnUse">
<stop stop-color="#FF928E"/>
<stop offset="1" stop-color="#FE7062"/>
</linearGradient>
<linearGradient id="paint88_linear" x1="423.786" y1="397.35" x2="487.791" y2="365.708" gradientUnits="userSpaceOnUse">
<stop stop-color="#09005D"/>
<stop offset="1" stop-color="#1A0F91"/>
</linearGradient>
<linearGradient id="paint89_linear" x1="433.723" y1="366.408" x2="521.047" y2="293.651" gradientUnits="userSpaceOnUse">
<stop stop-color="#09005D"/>
<stop offset="1" stop-color="#1A0F91"/>
</linearGradient>
<linearGradient id="paint90_linear" x1="446.357" y1="392.005" x2="444.803" y2="289.268" gradientUnits="userSpaceOnUse">
<stop stop-color="#09005D"/>
<stop offset="1" stop-color="#1A0F91"/>
</linearGradient>
<linearGradient id="paint91_linear" x1="509.845" y1="374.536" x2="433.677" y2="375.394" gradientUnits="userSpaceOnUse">
<stop stop-color="#09005D"/>
<stop offset="1" stop-color="#1A0F91"/>
</linearGradient>
<linearGradient id="paint92_linear" x1="490.888" y1="379.979" x2="524.488" y2="335.086" gradientUnits="userSpaceOnUse">
<stop stop-color="#09005D"/>
<stop offset="1" stop-color="#1A0F91"/>
</linearGradient>
<linearGradient id="paint93_linear" x1="492.757" y1="343.725" x2="561.728" y2="312.23" gradientUnits="userSpaceOnUse">
<stop stop-color="#09005D"/>
<stop offset="1" stop-color="#1A0F91"/>
</linearGradient>
<linearGradient id="paint94_linear" x1="580.579" y1="308.73" x2="535.612" y2="327.542" gradientUnits="userSpaceOnUse">
<stop stop-color="#09005D"/>
<stop offset="1" stop-color="#1A0F91"/>
</linearGradient>
<linearGradient id="paint95_linear" x1="389.021" y1="371.451" x2="411.272" y2="371.451" gradientUnits="userSpaceOnUse">
<stop stop-color="#09005D"/>
<stop offset="1" stop-color="#1A0F91"/>
</linearGradient>
<linearGradient id="paint96_linear" x1="430.982" y1="181.736" x2="417.279" y2="342.592" gradientUnits="userSpaceOnUse">
<stop stop-color="#4F52FF"/>
<stop offset="1" stop-color="#4042E2"/>
</linearGradient>
<linearGradient id="paint97_linear" x1="391.5" y1="467.001" x2="515.346" y2="158.203" gradientUnits="userSpaceOnUse">
<stop stop-color="#7D97F4"/>
<stop offset="1" stop-color="#BDD0FB"/>
</linearGradient>
<linearGradient id="paint98_linear" x1="471.225" y1="327.069" x2="355.418" y2="411.647" gradientUnits="userSpaceOnUse">
<stop stop-color="#4F52FF"/>
<stop offset="1" stop-color="#BDD0FB"/>
</linearGradient>
<linearGradient id="paint99_linear" x1="340.925" y1="379.454" x2="194.636" y2="381.103" gradientUnits="userSpaceOnUse">
<stop stop-color="#4F52FF"/>
<stop offset="1" stop-color="#4042E2"/>
</linearGradient>
<linearGradient id="paint100_linear" x1="184.763" y1="504.909" x2="152.124" y2="542.376" gradientUnits="userSpaceOnUse">
<stop stop-color="#09005D"/>
<stop offset="1" stop-color="#1A0F91"/>
</linearGradient>
<linearGradient id="paint101_linear" x1="261.436" y1="421.556" x2="261.436" y2="466.674" gradientUnits="userSpaceOnUse">
<stop stop-color="#09005D"/>
<stop offset="1" stop-color="#1A0F91"/>
</linearGradient>
<linearGradient id="paint102_linear" x1="237.186" y1="487.833" x2="235.554" y2="527.721" gradientUnits="userSpaceOnUse">
<stop stop-color="#09005D"/>
<stop offset="1" stop-color="#1A0F91"/>
</linearGradient>
<clipPath id="clip0">
<rect width="546" height="543" fill="white" transform="translate(89)"/>
</clipPath>
</defs>
</svg>
