<svg width="531" height="530" viewBox="0 0 531 530" fill="none" xmlns="http://www.w3.org/2000/svg">
<g clip-path="url(#clip0)">
<path d="M508.851 359.351C455.377 484.442 314.191 538.161 203.592 529.011C173.386 526.519 112.63 521.478 65.182 476.586C-25.9319 390.338 -11.9027 210.121 75.3332 103.995C86.568 90.3373 164.318 -1.21721 285.467 0.0192438C374.167 0.913293 436.443 51.0561 444.009 57.3145C453.571 65.1897 474.672 83.9458 493.681 113.697C538.354 183.585 542.27 281.169 508.851 359.351Z" fill="white"/>
<path d="M510.355 125.795H210.02V377.631H510.355V125.795Z" fill="url(#paint0_linear)"/>
<path d="M520.771 93.1146L199.411 95.131C195.058 95.15 191.465 98.3457 191.465 102.264V150.239C191.465 154.005 194.849 157.068 199.05 157.106L520.79 159.122C525.562 159.16 529.573 155.907 529.573 151.894V100.343C529.573 96.3294 525.543 93.0765 520.771 93.1146Z" fill="url(#paint1_linear)"/>
<path d="M520.619 93.1146L199.03 95.15C194.829 95.169 191.445 98.2506 191.445 102.017L529.268 100.362C529.268 96.3294 525.39 93.0765 520.619 93.1146Z" fill="url(#paint2_linear)"/>
<path d="M199.03 157.105L520.619 159.122C525.39 159.16 529.268 155.907 529.268 151.893L191.445 150.238C191.445 154.005 194.829 157.086 199.03 157.105Z" fill="url(#paint3_linear)"/>
<path d="M521.039 173.123L199.413 172.457C194.908 172.457 191.201 175.71 191.144 179.724L190.535 229.258C190.497 233.157 193.957 236.334 198.291 236.372L521.02 239.187C525.659 239.225 529.575 235.992 529.575 231.959V180.408C529.575 176.395 525.659 173.142 521.039 173.123Z" fill="url(#paint4_linear)"/>
<path d="M520.888 173.123L199.052 172.457C194.718 172.457 191.182 175.577 191.125 179.457L529.271 180.408C529.271 176.395 525.507 173.142 520.888 173.123Z" fill="#F98B0E"/>
<path d="M198.291 236.372L520.868 239.187C525.506 239.225 529.27 235.991 529.27 231.958L190.516 229.238C190.478 233.157 193.938 236.334 198.291 236.372Z" fill="#F98B0E"/>
<path d="M521.17 253.302H199.848C195.209 253.302 191.445 256.726 191.445 260.911V312.195C191.445 316.228 195.057 319.309 199.543 319.309H521.17C525.637 319.309 529.572 316.228 529.572 312.195V260.625C529.572 256.612 525.637 253.302 521.17 253.302Z" fill="url(#paint5_linear)"/>
<path d="M521.17 253.302H199.543C195.076 253.302 191.445 256.498 191.445 260.359H529.268C529.268 256.517 525.637 253.302 521.17 253.302Z" fill="#F98B0E"/>
<path d="M199.543 319.309H521.17C525.637 319.309 529.268 316.113 529.268 312.252H191.445C191.445 316.113 195.076 319.309 199.543 319.309Z" fill="#F98B0E"/>
<path d="M521.512 334.794L200.019 333.538C195.285 333.519 191.445 336.886 191.445 341.071V392.355C191.445 396.369 195.133 399.641 199.696 399.641L521.341 399.755C525.732 399.755 529.306 396.559 529.325 392.603L529.458 341.965C529.458 338.027 525.903 334.813 521.512 334.794Z" fill="url(#paint6_linear)"/>
<path d="M521.512 334.794L199.696 333.538C195.133 333.519 191.445 336.772 191.445 340.805L529.458 342.003C529.458 338.027 525.903 334.813 521.512 334.794Z" fill="#F98B0E"/>
<path d="M199.696 399.64L521.342 399.755C525.733 399.755 529.307 396.559 529.326 392.602L191.465 392.336C191.446 396.369 195.134 399.621 199.696 399.64Z" fill="#F98B0E"/>
<path d="M388.696 140.918C388.905 141.299 389.342 141.489 389.76 141.413L401.907 139.187C405.804 143.429 410.405 147.081 415.614 149.954L416.355 162.28C416.374 162.718 416.678 163.079 417.096 163.193L431.354 167.169C431.772 167.283 432.209 167.131 432.456 166.769L439.471 156.612C445.402 156.859 451.238 156.117 456.77 154.5L466.008 162.699C466.332 162.984 466.807 163.041 467.187 162.832L480.076 155.565C480.456 155.356 480.646 154.919 480.57 154.5L478.346 142.345C482.585 138.445 486.235 133.823 489.105 128.63L501.424 127.888C501.861 127.869 502.222 127.564 502.336 127.146L506.309 112.879C506.423 112.461 506.271 112.023 505.91 111.776L495.759 104.757C496.006 98.8217 495.264 92.9819 493.649 87.4464L501.842 78.2015C502.127 77.8781 502.184 77.4026 501.975 77.0221L494.713 64.125C494.504 63.7445 494.067 63.5543 493.649 63.6304L481.501 65.856C477.604 61.614 473.004 57.9618 467.795 55.0894L467.054 42.7629C467.035 42.3254 466.731 41.964 466.313 41.8498L452.055 37.8742C451.637 37.76 451.2 37.9122 450.953 38.2736L443.938 48.4316C438.007 48.1843 432.171 48.9262 426.639 50.5431L417.4 42.3444C417.077 42.0591 416.602 42.002 416.222 42.2113L403.333 49.4778C402.953 49.687 402.763 50.1246 402.839 50.5431L405.063 62.6983C400.824 66.5979 397.174 71.2203 394.304 76.4134L381.985 77.1553C381.548 77.1743 381.187 77.4787 381.073 77.8972L377.1 92.1639C376.986 92.5824 377.138 93.0199 377.499 93.2672L387.65 100.286C387.403 106.221 388.144 112.061 389.76 117.597L381.567 126.842C381.282 127.165 381.225 127.641 381.434 128.021L388.696 140.918Z" fill="#DCE5FE"/>
<path d="M439.147 117.197C431.999 115.961 426.619 109.627 426.81 102.151C427.019 93.9331 433.862 87.4275 442.055 87.6367C446.028 87.7319 449.735 89.3678 452.473 92.2592C455.21 95.1315 456.674 98.917 456.56 102.893C456.351 111.11 449.507 117.616 441.314 117.407C440.592 117.388 439.85 117.312 439.147 117.197ZM443.671 91.27C443.12 91.1749 442.55 91.1178 441.979 91.0988C435.687 90.9466 430.44 95.9305 430.288 102.227C430.136 108.523 435.117 113.773 441.409 113.926C447.701 114.078 452.948 109.094 453.1 102.798C453.176 99.754 452.054 96.8435 449.963 94.637C448.253 92.8489 446.066 91.6885 443.671 91.27Z" fill="#BDD0FB"/>
<path d="M435.783 138.445C434.548 138.236 433.331 137.95 432.115 137.627C431.734 137.513 431.354 137.399 430.974 137.285C429.111 136.695 427.286 135.953 425.537 135.097C425.518 135.078 425.499 135.078 425.461 135.059C425.385 135.021 425.328 134.983 425.252 134.964C425.119 134.907 424.986 134.831 424.853 134.755C424.511 134.584 424.34 134.203 424.397 133.842C424.416 133.747 424.435 133.67 424.492 133.575C424.72 133.157 425.233 132.986 425.67 133.214C427.856 134.355 430.176 135.287 432.571 135.953C444.471 139.282 456.675 135.972 465.248 128.287C470.02 124.007 473.67 118.357 475.514 111.738C475.837 110.577 476.103 109.417 476.312 108.238C477.681 100.343 476.293 92.2969 472.32 85.2396C467.758 77.1171 460.287 71.2772 451.314 68.7663C432.799 63.5922 413.542 74.454 408.371 92.9817C408.048 94.1231 407.801 95.2834 407.592 96.4438C406.718 101.466 406.965 106.64 408.314 111.567C408.352 111.7 408.352 111.814 408.333 111.947C408.276 112.27 408.048 112.537 407.706 112.632C407.25 112.765 406.775 112.48 406.641 112.023C405.216 106.849 404.969 101.428 405.881 96.1394C406.09 94.922 406.356 93.7046 406.698 92.5062C412.116 73.0653 432.343 61.652 451.79 67.0733C461.199 69.6984 469.031 75.8426 473.841 84.3646C478.023 91.7833 479.468 100.229 478.042 108.504C477.833 109.74 477.548 110.958 477.206 112.175C474.582 121.591 468.442 129.428 459.926 134.241C452.512 138.426 444.072 139.872 435.783 138.445Z" fill="#BDD0FB"/>
<path d="M295.185 161.006C295.318 161.253 295.622 161.386 295.908 161.348L304.025 159.864C306.629 162.699 309.709 165.153 313.187 167.055L313.682 175.292C313.701 175.577 313.891 175.824 314.176 175.9L323.719 178.563C324.004 178.639 324.289 178.525 324.46 178.297L329.156 171.506C333.129 171.677 337.026 171.183 340.733 170.098L346.911 175.577C347.12 175.767 347.443 175.805 347.69 175.653L356.321 170.783C356.568 170.65 356.701 170.346 356.663 170.06L355.18 161.938C358.013 159.332 360.465 156.25 362.366 152.769L370.597 152.275C370.882 152.256 371.129 152.065 371.205 151.78L373.867 142.231C373.943 141.945 373.829 141.66 373.601 141.489L366.814 136.79C366.985 132.815 366.491 128.915 365.407 125.206L370.882 119.024C371.072 118.814 371.11 118.491 370.958 118.244L366.092 109.607C365.959 109.36 365.654 109.227 365.369 109.265L357.252 110.749C354.648 107.914 351.568 105.461 348.089 103.558L347.595 95.3217C347.576 95.0364 347.386 94.7891 347.101 94.713L337.558 92.0498C337.273 91.9738 336.988 92.0879 336.817 92.3162L332.121 99.1071C328.148 98.9359 324.251 99.4305 320.544 100.515L314.366 95.0364C314.157 94.8461 313.834 94.8081 313.587 94.9603L304.956 99.83C304.709 99.9631 304.576 100.267 304.614 100.553L306.097 108.675C303.264 111.281 300.812 114.363 298.911 117.844L290.68 118.339C290.395 118.358 290.148 118.548 290.072 118.833L287.41 128.382C287.334 128.668 287.448 128.953 287.676 129.124L294.463 133.823C294.292 137.799 294.786 141.698 295.87 145.407L290.395 151.59C290.205 151.799 290.167 152.122 290.319 152.37L295.185 161.006Z" fill="#DCE5FE"/>
<path d="M328.909 145.313C326.78 144.951 324.822 143.905 323.32 142.307C321.457 140.348 320.469 137.78 320.526 135.06C320.659 129.467 325.316 125.035 330.905 125.168C336.494 125.32 340.923 129.962 340.79 135.554C340.714 138.255 339.612 140.785 337.654 142.649C335.696 144.514 333.129 145.503 330.411 145.446C329.898 145.446 329.384 145.389 328.909 145.313ZM331.932 127.964C331.571 127.907 331.209 127.869 330.848 127.85C326.742 127.755 323.32 131.008 323.206 135.117C323.149 137.114 323.891 138.997 325.259 140.443C326.628 141.889 328.491 142.707 330.468 142.764C332.464 142.821 334.346 142.079 335.791 140.709C337.235 139.34 338.053 137.475 338.11 135.497C338.205 131.769 335.506 128.592 331.932 127.964Z" fill="#BDD0FB"/>
<path d="M326.532 160.093C325.696 159.941 324.859 159.75 324.023 159.522C322.369 159.066 320.753 158.438 319.232 157.639C319.156 157.601 319.099 157.563 319.023 157.525C318.491 157.239 318.225 156.669 318.32 156.117C318.339 155.984 318.396 155.851 318.453 155.718C318.795 155.071 319.613 154.824 320.259 155.147C321.666 155.889 323.186 156.498 324.726 156.916C324.802 156.935 324.897 156.954 324.973 156.992C328.642 157.981 332.425 158.019 336.018 157.144C337.976 156.669 339.877 155.946 341.683 154.938C341.702 154.938 341.721 154.919 341.721 154.919C341.759 154.9 341.816 154.862 341.854 154.843C347.101 151.875 350.884 147.043 352.5 141.242C352.709 140.481 352.88 139.739 353.013 138.978C353.887 133.88 352.994 128.668 350.427 124.083C347.462 118.833 342.633 115.048 336.835 113.431C331.037 111.814 324.935 112.556 319.689 115.504C314.442 118.472 310.659 123.304 309.043 129.105C308.834 129.847 308.663 130.589 308.53 131.35C307.96 134.603 308.131 137.951 309.005 141.147C309.062 141.337 309.062 141.546 309.024 141.736C308.929 142.231 308.568 142.668 308.055 142.801C307.332 142.992 306.61 142.573 306.401 141.869C305.412 138.293 305.241 134.565 305.869 130.913C306.021 130.076 306.211 129.239 306.439 128.402C308.245 121.896 312.484 116.494 318.358 113.184C324.232 109.874 331.037 109.037 337.539 110.863C344.04 112.67 349.439 116.912 352.747 122.79C355.636 127.907 356.625 133.728 355.636 139.454C355.484 140.31 355.294 141.147 355.066 141.983C351.625 154.576 339.136 162.28 326.532 160.093Z" fill="#BDD0FB"/>
<path d="M32.221 456.403C32.221 460.378 35.4717 463.612 39.4447 463.612H429.905C433.879 463.612 437.129 460.359 437.129 456.403L440.38 231.863C440.38 227.887 435.703 220.145 427.13 220.716L45.5278 210.843C40.5473 210.71 35.7188 212.632 32.202 216.151C28.6852 219.67 26.7462 224.482 26.8602 229.466L32.221 456.403Z" fill="url(#paint7_linear)"/>
<path d="M39.3489 449.479C39.3489 453.245 42.4285 456.308 46.1734 456.308H420.476C424.24 456.308 427.3 453.226 427.3 449.479L430.361 245.654C430 233.385 419.259 228.972 412.739 229.238L47.0099 219.423C43.5121 219.328 40.1283 220.678 37.638 223.151C35.1668 225.624 33.7981 229.01 33.8741 232.51L39.3489 449.479Z" fill="#DAE3FE"/>
<path d="M1.61481 482.254H459.788C460.378 482.254 460.872 481.778 460.872 481.17V463.593C460.872 463.003 460.397 462.509 459.788 462.509H1.61481C1.0255 462.509 0.53125 462.984 0.53125 463.593V481.17C0.55026 481.778 1.0255 482.254 1.61481 482.254Z" fill="url(#paint8_linear)"/>
<path d="M70.2738 289.727L70.2734 298.021L191.138 298.025L191.138 289.732L70.2738 289.727Z" fill="#ADBEFA"/>
<path d="M69.7191 234.359L69.7188 242.652L190.583 242.657L190.583 234.363L69.7191 234.359Z" fill="#ADBEFA"/>
<path d="M103.797 248.55L103.797 256.825L190.957 256.829L190.957 248.554L103.797 248.55Z" fill="#ADBEFA"/>
<path d="M85.3402 247.891L85.3398 256.166L97.8863 256.167L97.8866 247.892L85.3402 247.891Z" fill="#ADBEFA"/>
<path d="M103.715 262.406L103.715 270.681L190.875 270.684L190.875 262.409L103.715 262.406Z" fill="#ADBEFA"/>
<path d="M85.2777 261.753L85.2773 270.027L97.8238 270.028L97.8241 261.753L85.2777 261.753Z" fill="#ADBEFA"/>
<path d="M103.379 276.234L103.379 284.509L190.539 284.512L190.539 276.238L103.379 276.234Z" fill="#ADBEFA"/>
<path d="M84.5394 275.574L84.5391 283.849L97.0856 283.849L97.0859 275.574L84.5394 275.574Z" fill="#ADBEFA"/>
<path d="M69.7112 347.373L69.7109 355.667L190.575 355.671L190.575 347.378L69.7112 347.373Z" fill="#ADBEFA"/>
<path d="M103.215 306.216L103.215 314.49L190.375 314.493L190.375 306.219L103.215 306.216Z" fill="#ADBEFA"/>
<path d="M84.7738 305.537L84.7734 313.812L97.3199 313.812L97.3202 305.537L84.7738 305.537Z" fill="#ADBEFA"/>
<path d="M103.129 320.051L103.129 328.326L190.289 328.329L190.289 320.055L103.129 320.051Z" fill="#ADBEFA"/>
<path d="M84.7151 319.398L84.7148 327.673L97.2613 327.673L97.2616 319.399L84.7151 319.398Z" fill="#ADBEFA"/>
<path d="M102.813 333.88L102.812 342.154L189.972 342.158L189.973 333.883L102.813 333.88Z" fill="#ADBEFA"/>
<path d="M83.973 333.219L83.9727 341.494L96.5191 341.495L96.5194 333.22L83.973 333.219Z" fill="#ADBEFA"/>
<path d="M69.7191 404.946L69.7188 413.24L190.583 413.245L190.583 404.951L69.7191 404.946Z" fill="#ADBEFA"/>
<path d="M103.223 363.789L103.223 372.063L190.382 372.067L190.383 363.792L103.223 363.789Z" fill="#ADBEFA"/>
<path d="M84.762 363.111L84.7617 371.386L97.3082 371.386L97.3085 363.112L84.762 363.111Z" fill="#ADBEFA"/>
<path d="M103.137 377.626L103.137 385.9L190.296 385.904L190.297 377.629L103.137 377.626Z" fill="#ADBEFA"/>
<path d="M84.6995 376.972L84.6992 385.247L97.2457 385.248L97.246 376.973L84.6995 376.972Z" fill="#ADBEFA"/>
<path d="M102.821 391.454L102.82 399.729L189.98 399.732L189.98 391.457L102.821 391.454Z" fill="#ADBEFA"/>
<path d="M83.9613 390.794L83.9609 399.068L96.5074 399.069L96.5077 390.794L83.9613 390.794Z" fill="#ADBEFA"/>
<path d="M103.793 419.986L103.793 428.261L190.953 428.264L190.953 419.989L103.793 419.986Z" fill="#ADBEFA"/>
<path d="M85.3519 419.327L85.3516 427.602L97.898 427.602L97.8983 419.327L85.3519 419.327Z" fill="#ADBEFA"/>
<path d="M103.102 433.848L103.102 442.123L190.261 442.126L190.262 433.852L103.102 433.848Z" fill="#ADBEFA"/>
<path d="M84.6878 433.176L84.6875 441.45L97.234 441.451L97.2343 433.176L84.6878 433.176Z" fill="#ADBEFA"/>
<path d="M282.996 392.868L282.996 401.257L370.004 401.261L370.004 392.872L282.996 392.868Z" fill="#AEBEFA"/>
<path d="M247.606 378.847L247.605 387.236L388.753 387.243L388.753 378.854L247.606 378.847Z" fill="#AEBEFA"/>
<path d="M292.754 364.83L292.754 373.219L405.9 373.224L405.9 364.835L292.754 364.83Z" fill="#AEBEFA"/>
<path d="M292.762 350.805L292.762 359.193L357.281 359.196L357.281 350.807L292.762 350.805Z" fill="#AEBEFA"/>
<path d="M294.258 336.742L294.258 345.131L407.271 345.136L407.271 336.748L294.258 336.742Z" fill="#AEBEFA"/>
<path d="M284.145 322.729L284.145 331.118L379.631 331.122L379.631 322.734L284.145 322.729Z" fill="#AEBEFA"/>
<path d="M247.618 308.67L247.617 317.059L349.567 317.063L349.567 308.675L247.618 308.67Z" fill="#AEBEFA"/>
<path d="M293.129 294.647L293.129 303.036L409.45 303.042L409.45 294.653L293.129 294.647Z" fill="#AEBEFA"/>
<path d="M293.125 280.615L293.125 289.004L410.891 289.01L410.891 280.621L293.125 280.615Z" fill="#AEBEFA"/>
<path d="M294.262 266.589L294.262 274.978L410.278 274.983L410.279 266.594L294.262 266.589Z" fill="#AEBEFA"/>
<path d="M273.258 252.566L273.258 260.955L368.307 260.959L368.307 252.57L273.258 252.566Z" fill="#AEBEFA"/>
<path d="M213.629 294.299L213.629 302.688L238.266 302.689L238.266 294.3L213.629 294.299Z" fill="#AEBEFA"/>
<path d="M213.614 308.731L213.613 317.12L238.25 317.121L238.25 308.733L213.614 308.731Z" fill="#AEBEFA"/>
<path d="M213.621 322.573L213.621 330.962L238.258 330.963L238.258 322.574L213.621 322.573Z" fill="#AEBEFA"/>
<path d="M213.614 336.655L213.613 345.044L238.25 345.045L238.25 336.656L213.614 336.655Z" fill="#AEBEFA"/>
<path d="M213.621 351.088L213.621 359.477L238.258 359.478L238.258 351.089L213.621 351.088Z" fill="#AEBEFA"/>
<path d="M213.625 364.929L213.625 373.318L238.262 373.32L238.262 364.931L213.625 364.929Z" fill="#AEBEFA"/>
<path d="M214.868 378.725L214.867 387.113L239.504 387.114L239.504 378.726L214.868 378.725Z" fill="#AEBEFA"/>
<path d="M214.875 393.156L214.875 401.545L239.512 401.546L239.512 393.157L214.875 393.156Z" fill="#AEBEFA"/>
<path d="M214.86 406.999L214.859 415.388L239.496 415.389L239.496 407L214.86 406.999Z" fill="#AEBEFA"/>
<path d="M214.875 421.12L214.875 429.509L239.512 429.51L239.512 421.121L214.875 421.12Z" fill="#AEBEFA"/>
<path d="M214.86 435.552L214.859 443.94L239.496 443.942L239.497 435.553L214.86 435.552Z" fill="#AEBEFA"/>
<path d="M213.614 280.617L213.613 289.006L238.25 289.007L238.25 280.618L213.614 280.617Z" fill="#AEBEFA"/>
<path d="M213.614 266.595L213.613 274.984L238.25 274.986L238.25 266.597L213.614 266.595Z" fill="#AEBEFA"/>
<path d="M213.618 252.556L213.617 260.945L238.254 260.946L238.254 252.558L213.618 252.556Z" fill="#AEBEFA"/>
<path d="M213.625 238.526L213.625 246.915L238.262 246.916L238.262 238.527L213.625 238.526Z" fill="#AEBEFA"/>
<path d="M247.621 238.521V246.909H365.805C365.805 242.268 362.003 238.521 357.308 238.521H247.621Z" fill="#AEBEFA"/>
<path d="M293.879 436.116L293.879 444.505L413.051 444.511L413.052 436.122L293.879 436.116Z" fill="#AEBEFA"/>
<path d="M293.883 421.659L293.883 430.048L410.888 430.053L410.888 421.664L293.883 421.659Z" fill="#AEBEFA"/>
<path d="M293.871 407.838V416.227H368.294C368.294 411.585 365.899 407.838 362.934 407.838H293.871Z" fill="#AEBEFA"/>
<path d="M202.32 450.144H202.453C203.081 450.144 203.594 449.63 203.594 449.003V233.898C203.594 233.27 203.081 232.757 202.453 232.757H202.32C201.693 232.757 201.18 233.27 201.18 233.898V449.003C201.18 449.63 201.693 450.144 202.32 450.144Z" fill="#7D97F4"/>
<path d="M190.231 110.197C189.452 110.178 188.825 109.55 188.825 108.751C188.672 100.686 186.201 60.6436 151.394 52.2737C112.633 42.9528 94.8973 82.8806 94.8973 82.8806C94.8973 82.8806 46.9546 64.2388 37.7539 114.153C7.68044 121.477 -0.132577 161.253 19.4285 180.693C22.5271 183.775 26.7092 185.525 31.0435 185.563L219.335 187.275C224.867 187.332 229.753 183.661 231.33 178.297C237.223 158.19 244.922 111.49 190.231 110.197Z" fill="#91B3FA"/>
<path d="M185.935 111.052C185.155 111.033 184.528 110.405 184.528 109.607C184.376 101.864 181.924 64.7329 149.132 56.9528C112.481 48.2596 95.7142 85.5433 95.7142 85.5433C95.7142 85.5433 50.3759 68.1379 41.6694 114.743C13.5159 121.515 5.98806 158.018 23.8192 176.356C26.9368 179.571 31.195 181.397 35.6433 181.435L212.89 183.033C218.422 183.09 223.346 179.399 224.905 174.016C230.436 154.918 236.995 112.289 185.935 111.052Z" fill="#DAE3FE"/>
<path d="M9.67508 449.764C8.05925 452.141 1.67197 506.07 0.683459 525.967C0.60742 527.318 1.69098 528.44 3.04067 528.44C4.20027 528.44 5.18877 527.584 5.37887 526.443L17.0699 451.476L9.67508 449.764Z" fill="#7D97F4"/>
<path d="M61.0589 449.764C62.6747 452.141 69.062 506.07 70.0505 525.967C70.1265 527.318 69.043 528.44 67.6933 528.44C66.5337 528.44 65.5452 527.584 65.3551 526.443L53.6641 451.476L61.0589 449.764Z" fill="#7D97F4"/>
<path d="M0.000294349 445.541V446.13C-0.0377252 450.353 3.61215 453.834 8.15549 453.911L62.2003 454.824C66.6866 454.9 70.4315 451.647 70.6596 447.481L70.6786 446.948C70.9067 442.611 67.2189 438.94 62.5425 438.864L8.47865 437.894C3.85928 437.818 0.0383139 441.261 0.000294349 445.541Z" fill="#7D97F4"/>
<path d="M105.126 524.009C95.5263 524.009 91.2682 523.191 89.3672 522.43C89.7284 524.009 91.1351 525.264 92.922 525.264H126.911C128.052 525.264 128.774 524.161 128.508 523.172C124.63 523.476 116.399 524.009 105.126 524.009Z" fill="url(#paint9_linear)"/>
<path d="M128.508 523.171C128.451 522.962 128.375 522.772 128.223 522.6C125.638 519.291 120.429 514.098 113.357 514.193C102.997 514.345 99.3852 515.467 91.3251 514.25L89.4241 520.546C89.234 521.193 89.234 521.821 89.3671 522.429C91.268 523.19 95.5262 524.008 105.126 524.008C116.399 524.008 124.63 523.476 128.508 523.171Z" fill="url(#paint10_linear)"/>
<path d="M93.6624 507.459L91.3242 515.391C91.3242 515.391 96.4949 517.75 101.038 515.848L101.932 508.981L93.6624 507.459Z" fill="url(#paint11_linear)"/>
<path d="M164.093 519.005C156.603 525.035 152.782 527.052 150.824 527.661C152.098 528.65 153.961 528.745 155.349 527.622L181.848 506.317C182.742 505.595 182.628 504.301 181.791 503.692C178.978 506.375 172.895 511.948 164.093 519.005Z" fill="url(#paint12_linear)"/>
<path d="M181.791 503.711C181.62 503.597 181.43 503.483 181.221 503.445C177.134 502.494 169.853 501.733 164.397 506.241C156.413 512.842 154.303 515.981 147.27 520.089L149.722 526.176C149.969 526.804 150.368 527.299 150.843 527.679C152.801 527.071 156.622 525.054 164.112 519.024C172.895 511.948 178.978 506.374 181.791 503.711Z" fill="url(#paint13_linear)"/>
<path d="M43.7785 417.046C43.7785 417.046 101.283 421.744 113.088 427.299C124.893 432.853 103.469 510.75 103.469 510.75C103.469 510.75 100.257 512.291 93.1089 510.065C93.1089 510.065 100.447 452.58 94.9908 440.12L32.7148 429.924L43.7785 417.046Z" fill="url(#paint14_linear)"/>
<path d="M141.547 509.152C142.079 509.647 147.269 520.09 147.269 520.09C147.269 520.09 153.029 518.834 154.207 515.182L149.018 505.747L141.547 509.152Z" fill="url(#paint15_linear)"/>
<path d="M9.14411 416.551C9.14411 416.551 7.26214 421.059 7.33818 427.051C7.45224 435.345 14.1057 442.079 22.3939 442.497L90.3919 445.598C91.8366 445.655 93.0342 446.663 93.3954 448.052C94.9922 454.234 102.805 473.218 140.977 511.111C141.984 512.119 143.581 512.29 144.779 511.529L150.216 508.086C150.786 507.725 150.976 506.983 150.634 506.393L111.055 438.75C108.983 435.307 105.638 432.834 101.741 431.845L43.7989 417.026L9.14411 416.551Z" fill="url(#paint16_linear)"/>
<path d="M76.155 310.901C76.155 310.901 68.8742 323.779 61.4414 330.038L76.7823 338.598C76.7823 338.598 80.2421 324.959 88.1502 320.964L76.155 310.901Z" fill="url(#paint17_linear)"/>
<path d="M7.91016 417.046C7.91016 417.046 26.2736 421.516 43.7816 417.046C43.7816 417.046 68.3042 384.061 77.7711 375.101C77.7711 375.101 92.9029 398.993 126.569 402.379L128.451 398.175C128.451 398.175 101.647 385.811 93.3971 366.808C85.1469 347.804 81.8392 339.701 74.3303 334.755C69.6539 331.673 66.8595 329.562 65.4147 328.402C64.6163 327.774 63.5328 327.698 62.6583 328.23C54.6932 333.062 17.1869 358.761 7.91016 417.046Z" fill="url(#paint18_linear)"/>
<path d="M67.7109 357.354C67.7109 357.354 70.9806 365.857 76.7786 373.446L67.7109 357.354Z" fill="url(#paint19_linear)"/>
<path d="M124.551 395.969L128.334 394.961L139.835 392.298C141.222 391.975 142.667 392.222 143.884 392.983L153.769 399.203L126.452 399.165L124.551 395.969Z" fill="url(#paint20_linear)"/>
<path d="M87.7116 291.574C87.7116 291.574 94.7832 303.349 96.0189 309.855C97.2545 316.36 99.2125 320.431 91.8177 322.752C84.4229 325.073 77.5414 322.143 73.2261 316.056C73.2261 316.056 66.4777 306.716 67.162 302.436C67.8274 298.137 87.7116 291.574 87.7116 291.574Z" fill="url(#paint21_linear)"/>
<path d="M75.1836 311.015L76.1341 310.882C76.1341 310.882 71.1156 303.311 74.4042 301.428C77.6929 299.545 91.0568 294.941 93.376 289.672C95.6191 284.593 92.2734 278.868 88.2243 277.669C87.9772 277.593 87.6921 277.745 87.616 277.992L87.3879 278.639C87.2168 279.077 86.6085 279.096 86.4184 278.658C86.2473 278.259 85.658 278.24 85.4869 278.639C84.7646 280.218 82.6355 282.919 76.2102 284.993C67.0855 287.96 61.4016 292.545 62.1049 299.031C62.1429 299.45 61.7437 299.716 61.3635 299.564C60.6222 299.24 59.4816 299.183 58.1699 300.61C55.8887 303.102 57.6757 308.58 63.9109 312.442C64.215 312.632 64.253 313.051 63.9869 313.279C63.0554 314.078 61.7437 315.866 65.9639 317.445C70.2791 319.062 72.6363 318.529 73.5108 318.168C73.7389 318.073 73.872 317.825 73.8339 317.578L72.7314 311.89C72.6744 311.605 72.8835 311.32 73.1686 311.282L75.1836 311.015Z" fill="url(#paint22_linear)"/>
<path d="M75.5836 312.194C75.5836 312.194 72.466 304.49 69.1773 307.191C65.8886 309.893 72.2189 315.885 75.1274 315.809L75.5836 312.194Z" fill="url(#paint23_linear)"/>
<path d="M114.002 404.566C114.04 404.566 114.097 404.566 114.135 404.566L172.514 404.509C173.959 404.509 175.118 403.33 175.118 401.903C175.118 400.457 173.94 399.278 172.495 399.297L114.116 399.354C112.671 399.354 111.512 400.534 111.512 401.96C111.512 403.368 112.614 404.49 114.002 404.566Z" fill="url(#paint24_linear)"/>
<path d="M195.115 347.366C195.096 347.405 195.077 347.443 195.058 347.481L170.497 400.477C169.889 401.789 170.459 403.349 171.771 403.939C173.083 404.548 174.661 403.977 175.231 402.664L199.792 349.668C200.4 348.356 199.83 346.796 198.518 346.206C197.263 345.616 195.762 346.13 195.115 347.366Z" fill="url(#paint25_linear)"/>
<path d="M139.99 408.961C139.743 410.026 115.372 501.428 109.194 524.598C108.491 527.261 110.468 529.886 113.205 529.886C115.106 529.886 116.779 528.573 117.235 526.709L144.286 417.007L139.99 408.961Z" fill="#5177FF"/>
<path d="M153.331 408.961C153.578 410.026 177.949 501.428 184.127 524.598C184.831 527.261 182.854 529.886 180.116 529.886C178.215 529.886 176.542 528.573 176.086 526.709L149.035 417.007L153.331 408.961Z" fill="#5177FF"/>
<path d="M154.342 405.975H139.172V418.168C139.172 419.918 140.579 421.345 142.308 421.345H144.381V448.718C144.381 450.049 145.445 451.115 146.757 451.115C148.068 451.115 149.133 450.03 149.133 448.718V421.345H150.198C152.498 421.345 154.361 419.461 154.361 417.141V405.975H154.342Z" fill="#5177FF"/>
<path d="M101.873 403.045H186.581C187.759 403.045 188.805 403.863 189.09 405.023L190.269 409.665C190.687 411.339 189.451 412.956 187.74 412.956L100.828 412.442C99.1359 412.423 97.9193 410.825 98.3185 409.17L99.345 405.042C99.6491 403.863 100.695 403.045 101.873 403.045Z" fill="#5177FF"/>
</g>
<defs>
<linearGradient id="paint0_linear" x1="358.901" y1="39.3653" x2="357.619" y2="-172.097" gradientUnits="userSpaceOnUse">
<stop stop-color="#FED09C"/>
<stop offset="0.9999" stop-color="#FEB0A5"/>
<stop offset="1" stop-color="#FEB3B1"/>
</linearGradient>
<linearGradient id="paint1_linear" x1="301.788" y1="-383.244" x2="414.607" y2="325.483" gradientUnits="userSpaceOnUse">
<stop stop-color="#FF928E"/>
<stop offset="1" stop-color="#EDA85A"/>
</linearGradient>
<linearGradient id="paint2_linear" x1="468.742" y1="-160.262" x2="387.968" y2="33.8517" gradientUnits="userSpaceOnUse">
<stop stop-color="#FEBBBA"/>
<stop offset="1" stop-color="#F98B0E"/>
</linearGradient>
<linearGradient id="paint3_linear" x1="454.515" y1="-100.931" x2="385.278" y2="84.5404" gradientUnits="userSpaceOnUse">
<stop stop-color="#FEBBBA"/>
<stop offset="1" stop-color="#F98B0E"/>
</linearGradient>
<linearGradient id="paint4_linear" x1="292.272" y1="-382.143" x2="423.118" y2="403.481" gradientUnits="userSpaceOnUse">
<stop stop-color="#FF928E"/>
<stop offset="1" stop-color="#EDA85A"/>
</linearGradient>
<linearGradient id="paint5_linear" x1="283.429" y1="-381.121" x2="448.646" y2="589.476" gradientUnits="userSpaceOnUse">
<stop stop-color="#FF928E"/>
<stop offset="1" stop-color="#EDA85A"/>
</linearGradient>
<linearGradient id="paint6_linear" x1="274.176" y1="-380.052" x2="311.366" y2="-58.3785" gradientUnits="userSpaceOnUse">
<stop stop-color="#FF928E"/>
<stop offset="1" stop-color="#EDA85A"/>
</linearGradient>
<linearGradient id="paint7_linear" x1="270.328" y1="446.358" x2="178.002" y2="169.561" gradientUnits="userSpaceOnUse">
<stop stop-color="#09005D"/>
<stop offset="1" stop-color="#1A0F91"/>
</linearGradient>
<linearGradient id="paint8_linear" x1="55.7063" y1="429.798" x2="466.487" y2="529.652" gradientUnits="userSpaceOnUse">
<stop stop-color="#09005D"/>
<stop offset="1" stop-color="#1A0F91"/>
</linearGradient>
<linearGradient id="paint9_linear" x1="89.3789" y1="523.844" x2="128.564" y2="523.844" gradientUnits="userSpaceOnUse">
<stop stop-color="#4F52FF"/>
<stop offset="1" stop-color="#4042E2"/>
</linearGradient>
<linearGradient id="paint10_linear" x1="119.569" y1="448.447" x2="108.849" y2="522.464" gradientUnits="userSpaceOnUse">
<stop stop-color="#09005D"/>
<stop offset="1" stop-color="#1A0F91"/>
</linearGradient>
<linearGradient id="paint11_linear" x1="91.3352" y1="512.028" x2="101.937" y2="512.028" gradientUnits="userSpaceOnUse">
<stop stop-color="#FEBBBA"/>
<stop offset="1" stop-color="#FF928E"/>
</linearGradient>
<linearGradient id="paint12_linear" x1="150.836" y1="516.073" x2="182.474" y2="516.073" gradientUnits="userSpaceOnUse">
<stop stop-color="#4F52FF"/>
<stop offset="1" stop-color="#4042E2"/>
</linearGradient>
<linearGradient id="paint13_linear" x1="172.598" y1="456.126" x2="161.878" y2="530.144" gradientUnits="userSpaceOnUse">
<stop stop-color="#09005D"/>
<stop offset="1" stop-color="#1A0F91"/>
</linearGradient>
<linearGradient id="paint14_linear" x1="120.331" y1="422.177" x2="28.9176" y2="503.712" gradientUnits="userSpaceOnUse">
<stop stop-color="#09005D"/>
<stop offset="1" stop-color="#1A0F91"/>
</linearGradient>
<linearGradient id="paint15_linear" x1="141.551" y1="512.921" x2="154.209" y2="512.921" gradientUnits="userSpaceOnUse">
<stop stop-color="#FEBBBA"/>
<stop offset="1" stop-color="#FF928E"/>
</linearGradient>
<linearGradient id="paint16_linear" x1="145.206" y1="366.942" x2="120.85" y2="402.384" gradientUnits="userSpaceOnUse">
<stop stop-color="#09005D"/>
<stop offset="1" stop-color="#1A0F91"/>
</linearGradient>
<linearGradient id="paint17_linear" x1="71.2446" y1="334.438" x2="77.492" y2="318.694" gradientUnits="userSpaceOnUse">
<stop stop-color="#FEBBBA"/>
<stop offset="1" stop-color="#FF928E"/>
</linearGradient>
<linearGradient id="paint18_linear" x1="90.7736" y1="98.6849" x2="79.2318" y2="256.319" gradientUnits="userSpaceOnUse">
<stop stop-color="#FF928E"/>
<stop offset="1" stop-color="#EDA85A"/>
</linearGradient>
<linearGradient id="paint19_linear" x1="67.7114" y1="365.4" x2="76.7823" y2="365.4" gradientUnits="userSpaceOnUse">
<stop stop-color="#E1473D"/>
<stop offset="1" stop-color="#E9605A"/>
</linearGradient>
<linearGradient id="paint20_linear" x1="124.555" y1="395.679" x2="153.792" y2="395.679" gradientUnits="userSpaceOnUse">
<stop stop-color="#FEBBBA"/>
<stop offset="1" stop-color="#FF928E"/>
</linearGradient>
<linearGradient id="paint21_linear" x1="90.2959" y1="302.413" x2="62.346" y2="330.273" gradientUnits="userSpaceOnUse">
<stop stop-color="#FEBBBA"/>
<stop offset="1" stop-color="#FF928E"/>
</linearGradient>
<linearGradient id="paint22_linear" x1="66.001" y1="286.516" x2="98.9212" y2="319.025" gradientUnits="userSpaceOnUse">
<stop stop-color="#09005D"/>
<stop offset="1" stop-color="#1A0F91"/>
</linearGradient>
<linearGradient id="paint23_linear" x1="85.7799" y1="297.883" x2="57.8302" y2="325.742" gradientUnits="userSpaceOnUse">
<stop stop-color="#FEBBBA"/>
<stop offset="1" stop-color="#FF928E"/>
</linearGradient>
<linearGradient id="paint24_linear" x1="-6140.9" y1="-6297.11" x2="-6037.68" y2="-6186.82" gradientUnits="userSpaceOnUse">
<stop stop-color="#09005D"/>
<stop offset="1" stop-color="#1A0F91"/>
</linearGradient>
<linearGradient id="paint25_linear" x1="8903.03" y1="-2501.73" x2="8759.51" y2="-2454.73" gradientUnits="userSpaceOnUse">
<stop stop-color="#09005D"/>
<stop offset="1" stop-color="#1A0F91"/>
</linearGradient>
<clipPath id="clip0">
<rect width="531" height="530" fill="white"/>
</clipPath>
</defs>
</svg>
