<svg width="887" height="547" viewBox="0 0 887 547" fill="none" xmlns="http://www.w3.org/2000/svg">
<path d="M872.202 240.507C837.957 321.069 746.722 366.209 667.611 354.033C654.734 352.046 619.444 346.148 588.195 318.305C528.043 264.707 515.178 158.594 563.703 83.8018C599.019 29.376 662.333 -1.4861 722.485 0.0550972C735.438 0.386263 785.098 2.43694 828.739 38.3939C835.152 43.6798 849.291 56.2259 862.028 76.134C891.951 122.867 894.526 188.004 872.202 240.507Z" fill="white"/>
<path d="M484.115 380.604C435.095 496.036 304.498 560.714 191.256 543.267C172.823 540.42 122.307 531.97 77.5762 492.076C-8.52773 415.279 -26.9421 263.238 42.5177 156.073C93.0705 78.0906 183.7 33.8707 269.804 36.0789C288.346 36.5534 359.43 39.4917 421.9 91.0117C431.08 98.5855 451.32 116.562 469.551 145.087C512.384 212.046 516.071 305.377 484.115 380.604Z" fill="white"/>
<path d="M393.212 170.527C393.54 170.253 393.65 169.797 393.504 169.396L389.105 157.989C392.518 153.408 395.219 148.244 397.044 142.659L408.889 139.666C409.308 139.557 409.6 139.21 409.637 138.772L410.878 124.154C410.914 123.734 410.677 123.314 410.276 123.15L399.107 118.204C398.249 112.382 396.46 106.853 393.869 101.761L400.128 91.267C400.347 90.9019 400.311 90.4275 400.037 90.099L390.584 78.8934C390.31 78.5649 389.854 78.4554 389.452 78.6014L378.046 82.9997C373.465 79.5869 368.3 76.8859 362.716 75.0609L359.723 63.2166C359.613 62.7968 359.267 62.5048 358.829 62.4683L344.21 61.2273C343.791 61.1908 343.389 61.4281 343.206 61.8296L338.261 72.9986C332.439 73.8564 326.909 75.6449 321.817 78.2364L311.324 71.9766C310.959 71.7576 310.484 71.7941 310.156 72.0679L298.95 81.5214C298.622 81.7952 298.512 82.2514 298.658 82.6529L303.056 94.0592C299.644 98.64 296.943 103.805 295.118 109.389L283.273 112.382C282.853 112.492 282.561 112.839 282.525 113.277L281.284 127.895C281.247 128.315 281.485 128.716 281.886 128.899L293.055 133.844C293.913 139.666 295.702 145.196 298.293 150.288L292.033 160.782C291.814 161.147 291.851 161.621 292.125 161.95L301.578 173.155C301.852 173.484 302.308 173.593 302.71 173.447L314.116 169.049C318.697 172.462 323.861 175.163 329.446 176.988L332.439 188.832C332.548 189.252 332.895 189.544 333.333 189.58L347.952 190.821C348.371 190.858 348.773 190.62 348.955 190.219L353.901 179.05C359.723 178.192 365.253 176.404 370.344 173.812L380.838 180.072C381.203 180.291 381.678 180.254 382.006 179.981L393.212 170.527Z" fill="#274190"/>
<path d="M341.29 139.958C333.607 137.311 329.501 128.898 332.165 121.215C333.443 117.492 336.107 114.499 339.648 112.765C343.188 111.031 347.185 110.794 350.908 112.09C358.591 114.736 362.698 123.149 360.033 130.833C357.624 137.822 350.452 141.837 343.389 140.523C342.677 140.377 341.984 140.195 341.29 139.958ZM341.144 115.868C338.425 117.182 336.399 119.499 335.414 122.346C333.388 128.241 336.527 134.683 342.422 136.727C348.317 138.753 354.759 135.614 356.803 129.719C358.829 123.825 355.69 117.382 349.795 115.338C349.266 115.156 348.718 115.01 348.171 114.9C345.78 114.462 343.352 114.791 341.144 115.868Z" fill="#BDD0FB"/>
<path d="M339.155 161.384C340.36 161.603 341.601 161.785 342.842 161.895C343.225 161.931 343.627 161.949 344.028 161.968C345.963 162.077 347.915 162.022 349.832 161.803C349.85 161.803 349.886 161.803 349.905 161.803C349.978 161.803 350.051 161.785 350.124 161.785C350.27 161.767 350.416 161.749 350.562 161.73C350.945 161.676 351.237 161.402 351.292 161.037C351.31 160.946 351.31 160.854 351.292 160.763C351.237 160.289 350.799 159.96 350.324 160.015C347.897 160.325 345.433 160.38 342.97 160.161C330.779 159.121 320.595 151.839 315.284 141.728C312.328 136.107 310.904 129.61 311.488 122.821C311.598 121.635 311.744 120.449 311.963 119.299C313.423 111.506 317.492 104.516 323.625 99.3515C330.669 93.402 339.63 90.555 348.81 91.3397C367.79 92.9458 381.915 109.699 380.291 128.679C380.2 129.847 380.036 131.015 379.817 132.147C378.886 137.111 376.878 141.819 373.904 145.926C373.831 146.035 373.776 146.145 373.758 146.272C373.703 146.583 373.812 146.93 374.104 147.13C374.488 147.404 375.035 147.331 375.309 146.93C378.411 142.622 380.528 137.677 381.514 132.457C381.733 131.253 381.915 130.03 382.007 128.807C383.704 108.896 368.867 91.3032 348.956 89.606C339.301 88.7847 329.921 91.7777 322.511 98.0193C316.069 103.458 311.798 110.794 310.265 118.97C310.028 120.193 309.864 121.416 309.754 122.675C308.933 132.329 311.926 141.71 318.168 149.12C323.625 155.58 330.979 159.851 339.155 161.384Z" fill="#BDD0FB"/>
<g opacity="0.3">
<path opacity="0.3" d="M426.408 251.54C424.145 251.083 421.882 250.481 419.692 249.751C418.999 249.514 418.616 248.766 418.853 248.072C419.09 247.379 419.838 247.014 420.532 247.233C422.612 247.926 424.784 248.492 426.938 248.93C427.649 249.076 428.124 249.769 427.978 250.499C427.832 251.211 427.138 251.667 426.408 251.54C426.408 251.54 426.427 251.54 426.408 251.54ZM432.084 251.065C432.139 250.335 432.778 249.788 433.508 249.842C435.698 250.007 437.942 250.061 440.132 249.97C440.862 249.934 441.483 250.518 441.519 251.248C441.556 251.978 440.972 252.598 440.242 252.635C437.942 252.726 435.588 252.689 433.289 252.507C433.234 252.507 433.197 252.489 433.143 252.489C432.504 252.361 432.029 251.759 432.084 251.065ZM413.232 247.178C411.133 246.192 409.089 245.061 407.136 243.82C406.516 243.437 406.333 242.615 406.717 241.995C407.1 241.374 407.921 241.192 408.542 241.575C410.403 242.743 412.356 243.82 414.345 244.769C415.002 245.079 415.294 245.882 414.984 246.539C414.728 247.105 414.126 247.379 413.542 247.269C413.451 247.251 413.341 247.214 413.232 247.178ZM445.644 250.828C445.516 250.098 446.009 249.423 446.739 249.295C448.911 248.93 451.083 248.437 453.2 247.817C453.911 247.616 454.641 248.017 454.842 248.711C455.043 249.423 454.641 250.153 453.948 250.353C451.74 251.01 449.44 251.521 447.159 251.905C446.995 251.923 446.849 251.923 446.703 251.905C446.173 251.813 445.735 251.394 445.644 250.828ZM401.515 239.75C399.727 238.29 398.011 236.702 396.405 235.023C395.894 234.494 395.913 233.654 396.442 233.143C396.971 232.632 397.811 232.651 398.322 233.18C399.855 234.768 401.479 236.283 403.194 237.688C403.76 238.144 403.851 238.984 403.377 239.549C403.067 239.933 402.574 240.097 402.099 240.006C401.899 239.987 401.68 239.896 401.515 239.75ZM391.898 229.731C390.511 227.887 389.215 225.916 388.065 223.927C387.7 223.288 387.919 222.485 388.558 222.12C389.196 221.755 389.999 221.974 390.364 222.613C391.459 224.511 392.7 226.391 394.014 228.143C394.452 228.727 394.343 229.566 393.741 230.004C393.43 230.242 393.047 230.315 392.701 230.242C392.408 230.187 392.117 230.004 391.898 229.731ZM384.981 217.704C384.068 215.569 383.302 213.36 382.663 211.152C382.462 210.44 382.864 209.71 383.575 209.51C384.287 209.309 385.017 209.71 385.218 210.422C385.82 212.539 386.568 214.638 387.444 216.682C387.736 217.357 387.408 218.142 386.733 218.416C386.477 218.525 386.222 218.543 385.966 218.507C385.528 218.416 385.163 218.124 384.981 217.704Z" fill="#274190"/>
<path opacity="0.3" d="M459.77 248.054C460.025 248.109 460.281 248.073 460.536 247.963C461.577 247.507 462.617 247.032 463.602 246.521C464.259 246.193 464.515 245.39 464.186 244.733C463.858 244.076 463.055 243.82 462.398 244.149C461.449 244.623 460.463 245.098 459.46 245.518C458.784 245.81 458.474 246.594 458.766 247.27C458.985 247.708 459.35 247.981 459.77 248.054Z" fill="#274190"/>
</g>
<path d="M469.37 224.675C469.589 224.493 469.662 224.182 469.57 223.927L466.614 216.298C468.895 213.232 470.702 209.783 471.925 206.042L479.845 204.034C480.119 203.961 480.32 203.724 480.356 203.432L481.196 193.65C481.214 193.358 481.068 193.103 480.794 192.975L473.312 189.672C472.746 185.784 471.541 182.079 469.808 178.667L474.005 171.64C474.151 171.403 474.133 171.075 473.95 170.856L467.618 163.355C467.435 163.136 467.125 163.063 466.869 163.154L459.241 166.111C456.175 163.829 452.726 162.023 448.984 160.8L446.977 152.879C446.904 152.606 446.667 152.405 446.375 152.368L436.592 151.529C436.3 151.511 436.045 151.657 435.917 151.93L432.614 159.413C428.727 159.979 425.022 161.183 421.609 162.917L414.583 158.719C414.346 158.573 414.017 158.592 413.798 158.774L406.297 165.107C406.078 165.289 406.005 165.6 406.097 165.855L409.053 173.484C406.772 176.55 404.965 179.999 403.742 183.74L395.822 185.748C395.548 185.821 395.347 186.058 395.311 186.35L394.471 196.132C394.453 196.424 394.599 196.68 394.873 196.807L402.355 200.111C402.921 203.998 404.126 207.703 405.859 211.115L401.662 218.142C401.516 218.379 401.534 218.707 401.717 218.926L408.049 226.427C408.232 226.646 408.542 226.719 408.798 226.628L416.426 223.671C419.492 225.953 422.941 227.759 426.683 228.982L428.69 236.903C428.763 237.177 429 237.377 429.292 237.414L439.074 238.253C439.366 238.272 439.622 238.126 439.75 237.852L443.053 230.369C446.94 229.803 450.645 228.599 454.058 226.865L461.084 231.063C461.321 231.209 461.65 231.19 461.869 231.008L469.37 224.675Z" fill="#274190"/>
<path d="M434.549 204.381C432.012 203.505 429.968 201.699 428.8 199.29C427.632 196.88 427.468 194.161 428.325 191.624C430.132 186.387 435.844 183.613 441.1 185.401C446.338 187.208 449.13 192.938 447.324 198.176C446.448 200.713 444.641 202.757 442.232 203.925C440.279 204.874 438.107 205.166 435.99 204.765C435.516 204.673 435.023 204.546 434.549 204.381ZM430.844 192.482C430.205 194.344 430.315 196.351 431.191 198.122C432.048 199.892 433.563 201.224 435.425 201.863C437.286 202.502 439.294 202.392 441.064 201.516C442.834 200.658 444.166 199.144 444.805 197.282C446.137 193.431 444.075 189.215 440.224 187.883C439.878 187.755 439.531 187.664 439.184 187.609C435.644 186.971 432.048 188.978 430.844 192.482Z" fill="#BDD0FB"/>
<path d="M433.07 219.292C433.891 219.456 434.731 219.565 435.588 219.638C437.286 219.784 439.001 219.748 440.68 219.547C440.753 219.529 440.826 219.529 440.899 219.511C441.483 219.438 441.939 219 442.031 218.434C442.049 218.306 442.067 218.16 442.049 218.014C441.958 217.284 441.282 216.773 440.571 216.864C439.001 217.065 437.395 217.101 435.807 216.955C435.716 216.955 435.625 216.937 435.552 216.937C431.811 216.591 428.288 215.313 425.241 213.251C423.58 212.137 422.083 210.787 420.751 209.254C420.733 209.236 420.733 209.236 420.714 209.217C420.678 209.181 420.641 209.144 420.623 209.108C416.772 204.545 414.929 198.76 415.44 192.811C415.513 192.044 415.604 191.278 415.75 190.529C416.699 185.492 419.327 180.966 423.306 177.608C427.868 173.758 433.654 171.914 439.603 172.425C445.553 172.936 450.955 175.729 454.806 180.291C458.656 184.854 460.5 190.639 459.989 196.588C459.934 197.337 459.824 198.103 459.678 198.833C459.076 202.045 457.78 205.093 455.864 207.757C455.755 207.922 455.663 208.104 455.645 208.287C455.554 208.779 455.736 209.29 456.174 209.601C456.777 210.02 457.598 209.893 458.036 209.309C460.171 206.334 461.631 202.921 462.306 199.326C462.471 198.486 462.58 197.647 462.653 196.807C463.219 190.146 461.157 183.667 456.85 178.557C452.543 173.447 446.502 170.327 439.841 169.761C433.179 169.195 426.701 171.257 421.59 175.564C417.137 179.306 414.199 184.379 413.141 190.018C412.976 190.858 412.867 191.716 412.794 192.573C411.699 205.494 420.623 216.956 433.07 219.292Z" fill="#BDD0FB"/>
<path d="M2.89663 316.62C10.9814 282.985 37.3893 256.595 71.0242 248.51C94.147 242.962 116.321 245.937 135.082 254.934C141.305 257.909 148.697 254.533 150.412 247.853C166.983 183.613 225.31 136.145 294.734 136.145C377.06 136.145 443.782 202.885 443.782 285.193C443.782 287.383 443.746 290.358 443.691 293.223C443.983 299.373 446.666 302.001 450.681 302.64C482.929 305.998 508.278 332.588 509.683 365.384C511.289 403.034 480.647 434.241 442.961 434.241H94.3478C34.67 434.278 -12.0502 378.816 2.89663 316.62Z" fill="url(#paint0_linear)"/>
<path d="M29.8886 329.231C37.0974 299.209 60.6948 275.63 90.7162 268.421C111.357 263.457 131.158 266.122 147.912 274.152C153.46 276.816 160.066 273.805 161.599 267.837C176.4 210.477 228.486 168.101 290.463 168.101C363.956 168.101 423.543 227.687 423.543 301.18C423.543 303.133 423.506 305.797 423.47 308.352C423.725 313.846 426.134 316.182 429.711 316.766C458.51 319.759 481.14 343.502 482.399 372.775C483.841 406.392 456.484 434.242 422.831 434.242H111.558C58.2675 434.278 16.5478 384.766 29.8886 329.231Z" fill="url(#paint1_linear)"/>
<path d="M430.989 265.684C430.569 265.684 430.186 265.392 430.094 264.972C416.699 206.261 382.589 177.682 356.346 164.031C327.894 149.248 302.344 148.317 302.088 148.317C301.577 148.299 301.176 147.879 301.194 147.368C301.212 146.857 301.632 146.456 302.143 146.474C302.398 146.474 328.387 147.423 357.203 162.407C374.14 171.203 388.721 183.066 400.566 197.629C415.367 215.843 425.915 238.363 431.883 264.571C431.992 265.063 431.682 265.556 431.189 265.666C431.116 265.684 431.043 265.684 430.989 265.684Z" fill="#BDD0FB"/>
<g opacity="0.6">
<path opacity="0.6" d="M329.738 501.693C329.738 501.693 452.999 302.238 392.664 243.856C358.938 211.243 289.095 220.167 260.168 248.035V220.77C260.168 217.339 255.387 216.517 254.237 219.729L233.359 278.02L281.667 295.139C284.587 296.179 287.014 292.693 285.043 290.302L264.95 266.012C264.95 266.012 435.953 213.743 224.508 478.424L329.738 501.693Z" fill="white"/>
</g>
<path d="M218.868 228.654L152.365 225.186C146.926 224.913 142.601 229.147 142.747 234.603L144.462 295.76C144.608 300.76 148.934 304.574 154.062 304.319L217.207 301.198C221.496 300.979 225.018 297.183 225.146 292.694L226.679 237.907C226.825 233.052 223.339 228.891 218.868 228.654Z" fill="url(#paint2_linear)"/>
<g opacity="0.87">
<path opacity="0.87" d="M183.609 289.591C169.794 289.591 158.57 278.349 158.57 264.552C158.57 250.755 169.812 239.513 183.609 239.513C197.425 239.513 208.649 250.755 208.649 264.552C208.649 278.349 197.425 289.591 183.609 289.591ZM183.609 243.692C172.112 243.692 162.768 253.054 162.768 264.534C162.768 276.031 172.13 285.375 183.609 285.375C195.107 285.375 204.451 276.013 204.451 264.534C204.451 253.054 195.107 243.692 183.609 243.692Z" fill="white"/>
<path opacity="0.87" fill-rule="evenodd" clip-rule="evenodd" d="M175.762 274.188V256.175C175.762 254.259 177.86 253.055 179.503 254.04L194.669 263.037C196.293 264.005 196.293 266.341 194.669 267.308L179.503 276.305C177.86 277.309 175.762 276.123 175.762 274.188Z" fill="white"/>
</g>
<path d="M70.1304 63.7825L9.46709 60.6252C4.50307 60.3697 0.561053 64.2388 0.707053 69.221L2.27656 125.012C2.40431 129.574 6.34634 133.06 11.0366 132.823L68.6521 129.976C72.5576 129.775 75.7879 126.326 75.8974 122.219L77.3026 72.2505C77.3939 67.7975 74.2184 63.9833 70.1304 63.7825Z" fill="url(#paint3_linear)"/>
<g opacity="0.89">
<path opacity="0.89" d="M59.8925 118.149H17.3698C14.103 118.149 11.4385 115.485 11.4385 112.218V81.2291C11.4385 77.9624 14.103 75.2979 17.3698 75.2979H59.8925C63.1592 75.2979 65.8237 77.9624 65.8237 81.2291V112.218C65.842 115.485 63.1775 118.149 59.8925 118.149ZM17.3698 79.4041C16.366 79.4041 15.563 80.2254 15.563 81.2109V112.2C15.563 113.203 16.3843 114.006 17.3698 114.006H59.8925C60.8962 114.006 61.6992 113.185 61.6992 112.2V81.2291C61.6992 80.2254 60.878 79.4224 59.8925 79.4224H17.3698V79.4041Z" fill="white"/>
<path opacity="0.89" d="M38.6495 97.892C38.2297 97.892 37.81 97.7642 37.4632 97.5087L13.6469 80.6274C12.7161 79.9704 12.4971 78.6746 13.1541 77.7621C13.8111 76.8313 15.1069 76.6123 16.0194 77.2693L38.6495 93.3112L60.9693 77.4518C61.9001 76.7948 63.1776 77.0138 63.8346 77.9446C64.4916 78.8754 64.2726 80.1529 63.3418 80.8099L39.8357 97.5087C39.489 97.7642 39.0692 97.892 38.6495 97.892Z" fill="white"/>
<path opacity="0.89" d="M15.1622 117.2L14.5599 113.13L14.8519 115.174L13.1182 114.061C13.5744 113.331 22.152 98.3297 27.8095 88.4016C28.3752 87.4161 29.6345 87.0694 30.62 87.6351C31.6055 88.2009 31.9523 89.4601 31.3865 90.4456C31.3865 90.4456 27.7182 96.8879 24.0317 103.312C22.1885 106.524 20.3452 109.754 18.9582 112.163C16.1477 117.036 16.1477 117.036 15.1622 117.2Z" fill="white"/>
<path opacity="0.89" d="M62.0099 117.2C61.0061 117.036 61.0061 117.036 58.2138 112.163C56.8268 109.754 54.9836 106.524 53.1403 103.312C49.4538 96.8697 45.7855 90.4456 45.7855 90.4456C45.2198 89.4601 45.5665 88.2009 46.552 87.6351C47.5375 87.0694 48.7968 87.4161 49.3626 88.4016C55.0201 98.3114 63.5976 113.331 64.0539 114.061L62.3201 115.174L62.0099 117.2Z" fill="white"/>
</g>
<path d="M145.357 106.323L87.048 103.294C82.2847 103.038 78.4887 106.761 78.6164 111.561L80.1312 165.18C80.2589 169.56 84.0549 172.918 88.5444 172.681L143.915 169.943C147.675 169.76 150.777 166.421 150.887 162.479L152.237 114.444C152.347 110.174 149.281 106.524 145.357 106.323Z" fill="url(#paint4_linear)"/>
<path opacity="0.87" d="M119.587 116.361C118.62 116.014 117.598 116.744 117.598 117.766V119.865V123.989V144.521C115.572 142.86 112.744 141.82 109.605 141.82C103.436 141.82 98.4355 145.816 98.4355 150.744C98.4355 155.671 103.436 159.668 109.605 159.668C115.773 159.668 120.774 155.671 120.774 150.744C120.774 150.707 120.774 150.653 120.774 150.616V124.026C125.19 124.701 128.201 128.059 129.953 130.797C130.683 131.946 132.472 131.362 132.399 129.994C131.943 121.708 123.511 117.766 119.587 116.361Z" fill="white"/>
<path d="M129.023 183.704L80.0398 181.149C76.0431 180.948 72.8493 184.051 72.9588 188.084L74.218 233.125C74.3275 236.812 77.5031 239.622 81.2808 239.44L127.782 237.14C130.939 236.976 133.531 234.184 133.622 230.88L134.754 190.529C134.881 186.952 132.326 183.886 129.023 183.704Z" fill="url(#paint5_linear)"/>
<g opacity="0.87">
<path opacity="0.87" d="M120.355 229.748H85.2232C81.336 229.748 78.1787 226.591 78.1787 222.704V199.545C78.1787 195.657 81.336 192.5 85.2232 192.5H120.355C124.242 192.5 127.399 195.657 127.399 199.545V222.704C127.399 226.591 124.242 229.748 120.355 229.748ZM85.2232 195.822C83.161 195.822 81.5002 197.501 81.5002 199.545V222.704C81.5002 224.766 83.1792 226.427 85.2232 226.427H120.355C122.417 226.427 124.078 224.748 124.078 222.704V199.545C124.078 197.482 122.399 195.822 120.355 195.822H85.2232V195.822Z" fill="white"/>
<path opacity="0.87" d="M120.757 191.496C120.757 192.774 119.716 193.832 118.421 193.832H112.435C111.157 193.832 110.099 192.792 110.099 191.496C110.099 190.219 111.139 189.16 112.435 189.16H118.421C119.716 189.16 120.757 190.2 120.757 191.496Z" fill="white"/>
<path opacity="0.87" d="M118.748 202.647C118.748 203.651 117.927 204.472 116.923 204.472H110.591C109.587 204.472 108.766 203.651 108.766 202.647V202.301C108.766 201.297 109.587 200.476 110.591 200.476H116.923C117.927 200.476 118.748 201.297 118.748 202.301V202.647Z" fill="white"/>
<path opacity="0.87" d="M98.2181 222.43H97.3786C91.5569 222.43 86.8301 217.685 86.8301 211.881V211.042C86.8301 205.22 91.5751 200.493 97.3786 200.493H98.2181C104.04 200.493 108.767 205.238 108.767 211.042V211.881C108.785 217.703 104.04 222.43 98.2181 222.43ZM97.3786 203.796C93.4001 203.796 90.1516 207.045 90.1516 211.023V211.863C90.1516 215.841 93.4001 219.09 97.3786 219.09H98.2181C102.197 219.09 105.445 215.841 105.445 211.863V211.023C105.445 207.045 102.197 203.796 98.2181 203.796H97.3786Z" fill="white"/>
</g>
<path d="M208.776 161.019L162.147 158.592C158.333 158.391 155.304 161.366 155.413 165.198L156.618 208.086C156.709 211.59 159.757 214.273 163.352 214.09L207.645 211.9C210.638 211.754 213.12 209.09 213.211 205.932L214.288 167.516C214.361 164.103 211.915 161.183 208.776 161.019Z" fill="url(#paint6_linear)"/>
<g opacity="0.89">
<path opacity="0.89" d="M202.663 166.53H169.685C166.637 166.53 163.17 168.136 163.17 171.275V189.617C163.17 192.646 166.656 195.676 169.685 195.676H192.37C193.155 195.676 193.593 196.588 193.593 197.373V200.074C193.593 201.187 194.688 201.607 195.254 201.789C195.509 201.972 195.965 202.246 196.513 202.246C196.969 202.246 197.425 202.045 197.717 201.698L202.59 195.931C205.674 195.858 206.915 192.61 206.915 189.598V171.257C206.897 168.282 205.656 166.53 202.663 166.53ZM203.722 189.617C203.722 191.04 203.795 192.5 202.663 192.5H201.422L196.111 198.431V194.453C196.111 193.668 196.057 192.518 195.29 192.518H169.685C168.28 192.518 165.707 191.04 165.707 189.635V172.06C165.707 170.016 168.262 169.724 169.685 169.724H202.663C204.05 169.724 203.722 169.907 203.722 171.312V189.617V189.617Z" fill="white"/>
<path opacity="0.89" d="M200.564 175.583C200.564 176.185 200.072 176.678 199.469 176.678H169.995C169.393 176.678 168.9 176.185 168.9 175.583V175.254C168.9 174.652 169.393 174.159 169.995 174.159H199.469C200.072 174.159 200.564 174.652 200.564 175.254V175.583Z" fill="white"/>
<path opacity="0.89" d="M200.564 181.915C200.564 182.517 200.072 183.01 199.469 183.01H169.995C169.393 183.01 168.9 182.517 168.9 181.915V181.586C168.9 180.984 169.393 180.491 169.995 180.491H199.469C200.072 180.491 200.564 180.984 200.564 181.586V181.915Z" fill="white"/>
<path opacity="0.89" d="M200.564 188.248C200.564 188.85 200.072 189.343 199.469 189.343H169.995C169.393 189.343 168.9 188.85 168.9 188.248V187.919C168.9 187.317 169.393 186.824 169.995 186.824H199.469C200.072 186.824 200.564 187.317 200.564 187.919V188.248Z" fill="white"/>
</g>
<path d="M276.868 488.645C249.566 490.287 258.07 446.669 258.563 444.936L217.117 474.19C217.117 474.19 219.307 497.514 253.763 509.76C262.487 512.862 270.444 512.99 277.489 511.475C274.496 502.734 275.116 494.868 276.868 488.645Z" fill="url(#paint7_linear)"/>
<path d="M329.665 475.505C319.481 468.424 307.965 475.505 307.965 475.505C294.351 484.411 284.295 488.188 276.867 488.645C275.097 494.868 274.495 502.734 277.506 511.494C292.745 508.209 303.658 497.186 308.385 491.528C310.082 489.484 313.112 489.137 315.192 490.78C317.309 492.459 319.372 494.74 318.988 497.149C318.258 501.912 323.77 503.409 324.19 501.693C324.609 499.96 322.31 489.74 322.31 489.74C322.31 489.74 333.351 500.836 337.658 505.106C341.965 509.377 347.386 505.106 347.386 505.106C347.386 505.106 339.848 482.586 329.665 475.505Z" fill="url(#paint8_linear)"/>
<path d="M149.536 377.539C149.536 377.539 189.267 361.625 263.198 422.671C263.198 422.671 269.366 435.446 262.632 446.835C255.898 458.204 191.694 513.648 182.879 544.399C182.879 544.399 144.627 556.828 105.079 527.354C105.079 527.372 108.583 441.797 149.536 377.539Z" fill="url(#paint9_linear)"/>
<path d="M228.067 363.34L208.521 387.065C206.587 389.419 206.149 392.686 207.499 395.442C210.218 400.972 216.661 409.038 230.932 407.925C235.184 407.596 238.944 405.023 240.805 401.191L254.475 372.921L228.067 363.34Z" fill="url(#paint10_linear)"/>
<path d="M118.767 479.082C114.15 460.302 160.87 418.418 160.87 418.418L149.518 377.538C149.518 377.538 48.6317 444.698 74.3461 498.7C78.0326 506.438 82.9236 511.859 88.5994 515.49C96.739 493.627 109.678 483.608 118.767 479.082Z" fill="url(#paint11_linear)"/>
<path d="M118.731 476.362C118.238 476.362 117.782 476.034 117.654 475.523C112.946 456.324 158.169 415.498 160.085 413.783C160.542 413.381 161.235 413.418 161.637 413.874C162.038 414.33 162.002 415.024 161.545 415.425C161.089 415.845 115.373 457.072 119.771 474.993C119.917 475.577 119.552 476.18 118.968 476.326C118.913 476.344 118.822 476.362 118.731 476.362Z" fill="url(#paint12_linear)"/>
<path d="M189.523 477.476C189.523 477.476 134.134 498.975 120.611 482.805C119.698 481.71 119.096 480.451 118.767 479.1C109.679 483.608 96.7394 493.646 88.6182 515.509C117.745 534.124 167.55 505.161 181 496.62C183.208 495.215 185.873 494.722 188.446 495.252C193.647 496.328 202.608 497.916 207.444 497.168C214.525 496.073 224.691 521.039 236.17 513.338C236.17 513.319 226.333 469.921 189.523 477.476Z" fill="url(#paint13_linear)"/>
<path d="M270.626 328.518C270.826 329.285 266.045 381.115 266.045 381.115L236.516 377.757L233.742 327.953C233.742 327.953 267.341 315.762 270.626 328.518Z" fill="url(#paint14_linear)"/>
<path d="M241.444 338.283L240.842 364.617C240.842 364.964 240.878 365.293 240.951 365.603C241.462 367.61 243.743 374.363 250.514 371.625C256.664 369.125 262.304 366.953 266.465 367.738C268.326 368.085 269.622 369.8 269.439 371.68C269.001 376.389 267.833 386.974 265.406 396.026C264.913 397.869 263.088 399.001 261.209 398.672C255.569 397.687 243.725 395.241 234.655 391.062C233.432 390.496 232.611 389.31 232.52 387.959C232.082 381.371 230.658 361.387 229.399 355.876C228.212 350.711 221.442 348.265 218.522 347.444C217.573 347.17 216.77 346.532 216.295 345.656C214.653 342.553 212.043 335.253 221.15 331.128C223.066 330.271 223.869 328.026 222.956 326.146C221.131 322.405 219.89 316.51 226.844 312.44C233.907 308.298 239.893 311.656 243.251 314.539C244.601 315.707 246.572 315.689 247.977 314.576C248.78 313.937 249.857 313.645 251.281 314.32C253.197 315.251 255.496 314.211 256.208 312.221C257.595 308.371 260.789 304.064 268.198 304.502C281.357 305.305 284.386 319.448 281.904 328.208C279.422 336.969 265.205 335.289 257.778 331.84C252.138 329.212 245.641 333.337 242.867 335.454C241.973 336.129 241.462 337.169 241.444 338.283Z" fill="url(#paint15_linear)"/>
<path d="M229.271 365.457C229.271 365.457 232.958 349.999 227.099 346.97C221.241 343.922 213.375 346.696 216.332 357.281C220.018 370.44 229.271 365.457 229.271 365.457Z" fill="url(#paint16_linear)"/>
<path d="M217.901 519.871C217.992 519.871 218.084 519.871 218.175 519.871L334.391 519.743C337.257 519.743 339.593 517.407 339.593 514.542C339.593 511.677 337.257 509.286 334.391 509.341L218.175 509.469C215.31 509.469 212.974 511.805 212.974 514.67C212.974 517.48 215.164 519.743 217.901 519.871Z" fill="url(#paint17_linear)"/>
<path d="M438.855 414.367H342.074C334.939 414.367 328.442 418.492 325.394 424.952L280.645 519.816H400.913C405.512 519.816 409.654 517.006 411.333 512.717L446.027 424.916C448.053 419.86 444.311 414.367 438.855 414.367Z" fill="url(#paint18_linear)"/>
<path d="M385.191 467.687C387.288 461.172 385.737 454.844 381.726 453.553C377.716 452.263 372.765 456.497 370.668 463.012C368.571 469.526 370.122 475.854 374.133 477.145C378.143 478.436 383.094 474.201 385.191 467.687Z" fill="#7D97F4"/>
<path d="M19.4682 527.335C19.231 525.82 19.5595 524.251 20.3443 523.064C21.129 521.878 22.297 521.185 23.5198 521.185H440.625C442.25 521.185 443.746 522.225 444.622 523.922C445.498 525.619 445.608 527.773 444.932 529.616L440.406 541.844C439.366 544.654 437.121 546.443 434.658 546.443H26.3668C24.0673 546.443 22.0962 544.399 21.6582 541.588L19.4682 527.335Z" fill="#7D97F4"/>
<defs>
<linearGradient id="paint0_linear" x1="268.085" y1="643.338" x2="248.427" y2="212.106" gradientUnits="userSpaceOnUse">
<stop stop-color="#D6E3FF"/>
<stop offset="1" stop-color="#91B3FA"/>
</linearGradient>
<linearGradient id="paint1_linear" x1="349.822" y1="124.475" x2="472.681" y2="-180.214" gradientUnits="userSpaceOnUse">
<stop stop-color="#7D97F4"/>
<stop offset="1" stop-color="#BDD0FB"/>
</linearGradient>
<linearGradient id="paint2_linear" x1="154.765" y1="174.065" x2="244.897" y2="444.46" gradientUnits="userSpaceOnUse">
<stop stop-color="#FF928E"/>
<stop offset="1" stop-color="#EDA85A"/>
</linearGradient>
<linearGradient id="paint3_linear" x1="11.6592" y1="13.9771" x2="93.884" y2="260.652" gradientUnits="userSpaceOnUse">
<stop stop-color="#FF928E"/>
<stop offset="1" stop-color="#EDA85A"/>
</linearGradient>
<linearGradient id="paint4_linear" x1="91.3021" y1="61.1206" x2="133.686" y2="194.722" gradientUnits="userSpaceOnUse">
<stop stop-color="#FF928E"/>
<stop offset="1" stop-color="#EDA85A"/>
</linearGradient>
<linearGradient id="paint5_linear" x1="71.5307" y1="160.404" x2="110.346" y2="220.608" gradientUnits="userSpaceOnUse">
<stop stop-color="#FF928E"/>
<stop offset="1" stop-color="#EDA85A"/>
</linearGradient>
<linearGradient id="paint6_linear" x1="163.822" y1="122.741" x2="227.03" y2="312.364" gradientUnits="userSpaceOnUse">
<stop stop-color="#FF928E"/>
<stop offset="1" stop-color="#EDA85A"/>
</linearGradient>
<linearGradient id="paint7_linear" x1="285.527" y1="356.345" x2="233.927" y2="540.633" gradientUnits="userSpaceOnUse">
<stop stop-color="#FF928E"/>
<stop offset="1" stop-color="#EDA85A"/>
</linearGradient>
<linearGradient id="paint8_linear" x1="275.398" y1="491.924" x2="347.387" y2="491.924" gradientUnits="userSpaceOnUse">
<stop stop-color="#FEBBBA"/>
<stop offset="1" stop-color="#FF928E"/>
</linearGradient>
<linearGradient id="paint9_linear" x1="221.669" y1="338.466" x2="170.068" y2="522.754" gradientUnits="userSpaceOnUse">
<stop stop-color="#FF928E"/>
<stop offset="1" stop-color="#EDA85A"/>
</linearGradient>
<linearGradient id="paint10_linear" x1="206.71" y1="385.682" x2="254.474" y2="385.682" gradientUnits="userSpaceOnUse">
<stop stop-color="#FEBBBA"/>
<stop offset="1" stop-color="#FF928E"/>
</linearGradient>
<linearGradient id="paint11_linear" x1="151.086" y1="318.702" x2="99.4861" y2="502.99" gradientUnits="userSpaceOnUse">
<stop stop-color="#FF928E"/>
<stop offset="1" stop-color="#EDA85A"/>
</linearGradient>
<linearGradient id="paint12_linear" x1="172.584" y1="324.721" x2="120.984" y2="509.009" gradientUnits="userSpaceOnUse">
<stop stop-color="#E1473D"/>
<stop offset="1" stop-color="#E9605A"/>
</linearGradient>
<linearGradient id="paint13_linear" x1="174.139" y1="492.791" x2="-8.72738" y2="810.558" gradientUnits="userSpaceOnUse">
<stop stop-color="#FEBBBA"/>
<stop offset="1" stop-color="#FF928E"/>
</linearGradient>
<linearGradient id="paint14_linear" x1="259.371" y1="331.785" x2="221.293" y2="423.194" gradientUnits="userSpaceOnUse">
<stop stop-color="#FEBBBA"/>
<stop offset="1" stop-color="#FF928E"/>
</linearGradient>
<linearGradient id="paint15_linear" x1="219.975" y1="361.632" x2="289.039" y2="343.808" gradientUnits="userSpaceOnUse">
<stop stop-color="#0B1129"/>
<stop offset="1" stop-color="#396CAA"/>
</linearGradient>
<linearGradient id="paint16_linear" x1="190.324" y1="414.213" x2="224.419" y2="354.666" gradientUnits="userSpaceOnUse">
<stop stop-color="#FEBBBA"/>
<stop offset="1" stop-color="#FF928E"/>
</linearGradient>
<linearGradient id="paint17_linear" x1="198.191" y1="489.002" x2="290.445" y2="519.259" gradientUnits="userSpaceOnUse">
<stop stop-color="#0B1129"/>
<stop offset="1" stop-color="#274190"/>
</linearGradient>
<linearGradient id="paint18_linear" x1="324.919" y1="428.514" x2="391.357" y2="498.734" gradientUnits="userSpaceOnUse">
<stop stop-color="#274190"/>
<stop offset="1"/>
</linearGradient>
</defs>
</svg>
