<svg width="717" height="501" viewBox="0 0 717 501" fill="none" xmlns="http://www.w3.org/2000/svg">
<path d="M704.843 381.27C676.71 447.349 601.757 484.374 536.766 474.386C526.187 472.757 497.194 467.92 471.522 445.082C422.106 401.119 411.537 314.083 451.402 252.736C480.415 208.095 532.429 182.781 581.846 184.045C592.488 184.317 633.284 185.999 669.137 215.492C674.405 219.827 686.021 230.118 696.485 246.447C721.067 284.778 723.183 338.206 704.843 381.27Z" fill="white"/>
<g clip-path="url(#clip0)">
<path d="M429.518 409.182C417.053 422.037 405.915 429.582 397.375 435.291C314.157 490.891 219.019 474.873 189.62 469.382C142.16 460.546 102.114 454.31 67.6998 423.2C-10.5036 352.51 -6.70609 205.019 53.0549 113.655C60.1411 102.837 119.793 14.3277 215.131 1.85495C217.457 1.54586 219.201 1.38223 220.727 1.21859C235.481 -0.345047 326.876 -8.5996 401.391 53.8913C412.057 62.8368 429.227 78.964 445.144 103.564C503.361 193.51 503.542 332.837 429.518 409.182Z" fill="white"/>
<path d="M384.385 173.6L426.831 163.709C426.831 163.709 455.212 161.164 459.046 186.4C462.88 211.637 461.771 361.182 460.572 392.037C460.172 402.2 460.227 411.6 461.081 419.782C462.88 436.837 449.579 451.746 432.445 452.037L353.424 453.4L384.385 173.6Z" fill="url(#paint0_linear)"/>
<path d="M361.799 465.564C361.799 465.564 370.284 346.582 430.59 274.054C431.372 273.109 432.734 273.345 433.152 274.509C439.73 292.873 476.669 411.036 361.799 465.564Z" fill="#BDD0FB"/>
<path d="M427.993 308.582C427.484 315.528 426.485 322.382 425.322 329.219C424.123 336.037 422.705 342.837 421.034 349.564C417.709 363.037 413.566 376.31 408.46 389.237C405.88 395.691 403.154 402.091 400.102 408.328C398.612 411.473 396.959 414.528 395.378 417.619C393.688 420.655 392.053 423.728 390.236 426.691C383.168 438.673 374.9 449.946 365.47 460.11C365.197 460.419 364.707 460.437 364.416 460.146C364.125 459.873 364.107 459.437 364.325 459.146V459.128C372.72 448.237 380.297 436.782 386.856 424.764C388.546 421.782 390.054 418.71 391.671 415.691C393.161 412.619 394.724 409.564 396.123 406.437C396.813 404.873 397.576 403.346 398.267 401.764L400.338 397.055C401.01 395.491 401.646 393.891 402.319 392.31C402.991 390.728 403.609 389.146 404.226 387.546C405.498 384.364 406.679 381.146 407.879 377.946C409.023 374.71 410.168 371.491 411.222 368.219C413.42 361.728 415.383 355.146 417.273 348.546C419.126 341.928 420.834 335.291 422.378 328.582C423.959 321.891 425.34 315.146 426.539 308.4V308.382C426.612 307.982 426.993 307.71 427.411 307.782C427.757 307.855 428.029 308.2 427.993 308.582Z" fill="url(#paint1_linear)"/>
<path d="M369.285 452.546C369.285 452.546 431.463 347.891 499.109 346.255C500.309 346.218 501.217 347.328 500.981 348.509C498.092 362.182 477.942 433.782 369.285 452.546Z" fill="#91B3FA"/>
<path d="M484.773 362.855C480.667 367.164 476.451 371.31 472.181 375.401C470.019 377.419 467.857 379.455 465.677 381.455C463.478 383.437 461.298 385.437 459.063 387.401C450.178 395.237 441.038 402.783 431.644 410.001C426.975 413.655 422.16 417.092 417.381 420.619L410.095 425.71C408.877 426.546 407.66 427.401 406.443 428.237L402.718 430.673C392.888 437.292 382.622 443.237 372.265 449.001C371.901 449.201 371.447 449.073 371.247 448.71C371.047 448.346 371.175 447.91 371.52 447.71L371.538 447.692L379.169 443.219L382.985 440.983C384.239 440.219 385.493 439.419 386.728 438.637L394.232 433.946C396.703 432.328 399.138 430.674 401.609 429.055L405.298 426.601L408.914 424.055L416.163 418.964C420.906 415.437 425.703 412.001 430.336 408.346C435.024 404.764 439.621 401.055 444.218 397.364L451.013 391.71L457.736 385.946C459.971 384.019 462.17 382.037 464.386 380.092C466.585 378.128 468.765 376.128 470.928 374.128C475.252 370.128 479.558 366.073 483.701 361.892L483.719 361.873C484.01 361.583 484.482 361.583 484.773 361.873C485.046 362.092 485.064 362.564 484.773 362.855Z" fill="#BDD0FB"/>
<path d="M298.095 175.655C298.095 175.655 375.39 179.91 426.847 163.71C426.847 163.71 392.651 161.364 392.651 240.382C392.651 300.8 401.609 416.11 393.796 438C385.983 459.891 356.747 489.31 314.829 464.037C272.893 438.746 298.095 175.655 298.095 175.655Z" fill="#7D97F4"/>
<path d="M277.545 57.1821C277.545 57.1821 362.817 66.4912 373.809 52.0185C373.809 52.0185 365.07 25.9821 339.123 27.7276C313.176 29.473 277.545 57.1821 277.545 57.1821Z" fill="url(#paint2_linear)"/>
<path d="M0.180704 86.473C7.63038 170.091 23.2384 346.982 30.0339 433.146C31.542 452.364 46.932 467.527 66.1558 468.764C134.602 473.164 288.665 481.691 347.79 473.746C334.253 467.073 325.714 453.218 325.841 438.109L328.984 51.4548C329.093 37.8002 342.702 27.9821 355.476 32.7639C363.525 35.7821 369.63 42.2184 373.809 52.0002C368.231 35.7275 359.455 23.8184 339.123 27.7093C339.123 27.7093 140.271 29.6911 43.7886 35.6911C17.5512 37.3093 -2.14505 60.273 0.180704 86.473Z" fill="#91B3FA"/>
<mask id="mask0" style="mask-type:alpha" maskUnits="userSpaceOnUse" x="7" y="36" width="323" height="436">
<path d="M49.3657 46.7636L316.555 36.4727C305.526 118.109 310.177 284.364 314.393 448.2C314.647 457.909 320.334 466.654 329.11 470.8C329.11 470.8 150.899 472.854 74.3131 467.418C56.2885 466.145 41.5708 452.491 38.8999 434.6C28.3976 364.418 3.2504 183.073 8.48335 87.0545C9.68256 65.0727 27.3801 47.5999 49.3657 46.7636Z" fill="url(#paint3_linear)"/>
</mask>
<g mask="url(#mask0)">
<path opacity="0.53" d="M49.3657 46.7636L316.555 36.4727C305.526 118.109 310.177 284.364 314.393 448.2C314.647 457.909 320.334 466.654 329.11 470.8C329.11 470.8 150.899 472.854 74.3131 467.418C56.2885 466.145 41.5708 452.491 38.8999 434.6C28.3976 364.418 3.2504 183.073 8.48335 87.0545C9.68256 65.0727 27.3801 47.5999 49.3657 46.7636Z" fill="url(#paint4_linear)"/>
<path d="M45.8415 173.383L48.9668 203.328C49.53 208.819 54.0543 213.055 59.5598 213.255L76.9848 213.928C83.2716 214.164 88.5046 209.128 88.5046 202.837V170.546C88.5046 164.055 82.9627 158.964 76.5124 159.492L55.9622 161.183C49.7662 161.692 45.1874 167.201 45.8415 173.383Z" fill="url(#paint5_linear)"/>
<path d="M107.11 164.164C136.109 163.255 247.436 159.637 275.545 158.728C279.088 158.619 282.014 161.455 282.014 165C282.014 168.382 279.343 171.146 275.963 171.273L107.618 177.528C104.384 177.655 101.568 175.273 101.15 172.055L101.041 171.237C100.605 167.564 103.403 164.273 107.11 164.164Z" fill="url(#paint6_linear)"/>
<path d="M105.293 203.637C105.783 204.455 106.692 204.964 107.637 204.946L223.234 202.437C224.687 202.401 225.85 201.219 225.85 199.764V192.146C225.85 190.637 224.597 189.419 223.088 189.473L110.725 193.673C105.711 193.855 102.731 199.328 105.293 203.637Z" fill="url(#paint7_linear)"/>
<path d="M45.8415 256.509L48.9668 286.455C49.53 291.946 54.0543 296.182 59.5598 296.382L76.9848 297.055C83.2716 297.291 88.5046 292.255 88.5046 285.964V253.655C88.5046 247.164 82.9627 242.073 76.5124 242.6L55.9622 244.291C49.7662 244.818 45.1874 250.327 45.8415 256.509Z" fill="url(#paint8_linear)"/>
<path d="M107.11 247.272C136.109 246.363 247.436 242.745 275.545 241.836C279.088 241.727 282.014 244.563 282.014 248.109C282.014 251.491 279.343 254.254 275.963 254.382L107.618 260.636C104.384 260.763 101.568 258.382 101.15 255.163L101.041 254.345C100.605 250.672 103.403 247.382 107.11 247.272Z" fill="url(#paint9_linear)"/>
<path opacity="0.78" d="M105.293 286.763C105.783 287.581 106.692 288.09 107.637 288.072L223.234 285.563C224.687 285.527 225.85 284.345 225.85 282.89V275.272C225.85 273.763 224.597 272.545 223.088 272.599L110.725 276.799C105.711 276.963 102.731 282.454 105.293 286.763Z" fill="white"/>
<path d="M45.8415 339.619L48.9668 369.564C49.53 375.055 54.0543 379.291 59.5598 379.491L76.9848 380.164C83.2716 380.4 88.5046 375.364 88.5046 369.073V336.764C88.5046 330.273 82.9627 325.182 76.5124 325.709L55.9622 327.4C49.7662 327.928 45.1874 333.437 45.8415 339.619Z" fill="url(#paint10_linear)"/>
<path d="M107.11 330.4C136.109 329.491 247.436 325.873 275.545 324.964C279.088 324.855 282.014 327.691 282.014 331.237C282.014 334.619 279.343 337.382 275.963 337.509L107.618 343.764C104.384 343.891 101.568 341.509 101.15 338.291L101.041 337.473C100.605 333.8 103.403 330.509 107.11 330.4Z" fill="url(#paint11_linear)"/>
<path d="M105.293 369.873C105.783 370.691 106.692 371.2 107.637 371.182L223.234 368.673C224.687 368.637 225.85 367.455 225.85 366V358.364C225.85 356.855 224.597 355.637 223.088 355.691L110.725 359.891C105.711 360.091 102.731 365.564 105.293 369.873Z" fill="url(#paint12_linear)"/>
<path d="M193.146 454.346C191.82 454.346 190.511 453.728 189.112 452.437C183.988 447.728 182.662 440.491 182.298 433.6C179.936 436.255 177.52 438.819 175.121 441.382L173.795 440.146C176.611 437.146 179.446 434.109 182.189 430.982C181.953 421.546 182.389 412.019 183.48 402.655C184.152 396.909 185.097 390.819 187.586 385.273C188.385 383.509 189.694 380.964 191.965 379.382C194.327 377.728 197.434 377.546 199.505 378.946C201.831 380.509 202.467 383.491 202.74 385.582C204.32 397.909 199.524 409.219 195.199 416.528C192.001 421.946 188.131 426.928 184.025 431.637C184.243 438.691 185.206 446.4 190.33 451.109C191.402 452.091 192.346 452.564 193.219 452.528C194.654 452.473 195.817 451.073 196.78 449.709C201.104 443.509 204.466 436.8 206.81 429.691C207.082 427.546 207.682 425.455 208.59 423.491L210.298 424.091C209.808 426.128 209.226 428.128 208.59 430.091C208.354 432.109 208.427 434.164 208.827 436.146C209.045 437.2 209.935 440.709 212.515 441.2C214.441 441.564 216.44 440.109 218.657 436.728L227.742 422.909L226.597 427.855C226.197 429.6 225.507 433.764 227.941 434.782C229.322 435.346 230.794 434.528 232.484 433.564C234.174 432.619 235.918 431.619 237.899 431.891L238.825 432.019L238.662 432.946C238.571 433.473 237.844 438.164 240.261 438.691C241.369 438.946 242.296 438.164 243.695 436.873C244.803 435.855 245.93 434.8 247.42 434.437L247.837 436.2C246.802 436.455 245.875 437.309 244.912 438.2C243.531 439.473 241.969 440.928 239.843 440.455C237.081 439.837 236.409 436.728 236.699 433.691C235.609 433.855 234.501 434.473 233.338 435.128C231.503 436.164 229.413 437.346 227.215 436.437C225.398 435.691 224.416 433.891 224.344 431.309L220.128 437.709C218.42 440.291 215.749 443.655 212.115 442.964C209.626 442.491 207.7 440.073 206.991 436.491C206.901 436 206.81 435.491 206.755 434.982C204.52 440.509 201.668 445.782 198.234 450.728C197.107 452.364 195.508 454.237 193.255 454.309C193.237 454.346 193.2 454.346 193.146 454.346ZM196.307 379.819C195.108 379.819 193.909 380.273 193.037 380.873C191.147 382.2 189.984 384.437 189.276 386.019C186.895 391.346 185.951 397.255 185.315 402.855C184.315 411.473 183.879 420.237 183.988 428.909C187.55 424.709 190.875 420.328 193.655 415.6C197.816 408.528 202.467 397.637 200.959 385.819C200.596 383.037 199.832 381.346 198.524 380.455C197.852 380 197.071 379.819 196.307 379.819Z" fill="url(#paint13_linear)"/>
<path opacity="0.78" d="M272.784 126.746L59.9229 133.055C52.2734 133.273 45.8594 127.346 45.4778 119.691L44.6965 103.764C44.3149 95.8914 50.4745 89.2368 58.3421 89.0368L272.257 83.3823C280.252 83.1641 286.811 89.6732 286.666 97.6914L286.393 112.964C286.266 120.437 280.27 126.51 272.784 126.746Z" fill="white"/>
</g>
<path d="M205.737 294.546C205.737 294.546 198.633 289.892 197.652 290.964C197.307 291.346 196.489 292.637 195.726 294.055C195.181 295.055 195.362 296.292 196.144 297.11L197.979 299.001C199.723 300.801 202.667 300.673 204.211 298.692C204.974 297.692 205.592 296.346 205.737 294.546Z" fill="url(#paint14_linear)"/>
<path d="M212.969 285.691C212.969 285.691 210.534 279.273 207.681 279.855C204.828 280.437 201.721 282.637 201.721 282.637L197.143 288.819C197.143 288.819 209.971 293.873 214.495 290.982C214.495 290.982 227.595 293.255 244.148 290.528C241.75 285.473 240.333 280.401 239.479 276.455C231.12 281.219 222.09 284.764 212.969 285.691Z" fill="url(#paint15_linear)"/>
<path d="M282.415 239.146C282.415 239.146 263.645 262.801 239.516 276.474C240.351 280.401 241.787 285.474 244.185 290.547C256.704 288.492 271.204 283.583 283.487 272.674L282.415 239.146Z" fill="url(#paint16_linear)"/>
<path d="M305.817 343.983C302.146 326.528 298.476 316.437 286.193 283.365C282.323 272.965 278.816 262.437 280.506 251.456L282.414 239.128C282.414 239.128 306.289 231.037 332.781 238.783C332.781 238.783 368.903 254.492 344.373 332.037C333.29 344.437 320.353 347.965 305.817 343.983Z" fill="url(#paint17_linear)"/>
<path d="M286.467 223.419L292.663 238.31C293.062 239.255 293.898 239.928 294.898 240.091C298.477 240.71 307.108 241.655 312.777 237.928C313.449 237.491 313.631 236.564 313.158 235.891L301.711 219.455L286.467 223.419Z" fill="url(#paint18_linear)"/>
<path d="M292.881 200.637C292.626 200.873 281.906 221.946 281.906 221.946L294.062 227.819L307.181 209.364C307.162 209.364 297.242 196.546 292.881 200.637Z" fill="url(#paint19_linear)"/>
<path d="M301.656 211.583L295.605 221.692C295.514 221.837 295.405 221.983 295.278 222.11C294.551 222.783 292.099 224.728 290.191 222.073C288.574 219.801 287.047 217.746 285.412 216.892C284.449 216.401 283.286 216.783 282.795 217.746C281.796 219.728 279.87 223.764 278.653 227.583C278.344 228.546 278.834 229.564 279.779 229.946C282.232 230.946 287.102 232.746 291.408 233.346C292.117 233.437 292.825 233.146 293.243 232.564C295.097 230.019 300.33 222.91 302.11 221.128C303.764 219.473 306.834 220.092 308.215 220.492C308.742 220.637 309.305 220.564 309.76 220.292C311.159 219.455 313.594 217.346 311.359 213.783C310.795 212.892 311.086 211.728 311.958 211.146C313.521 210.11 315.211 208.183 313.594 205.055C311.958 201.892 309.033 201.601 307.052 201.855C306.18 201.964 305.272 201.51 304.945 200.673C304.799 200.31 304.49 200.001 303.945 199.892C302.91 199.673 302.219 198.728 302.419 197.673C302.764 195.892 302.51 193.564 299.639 191.983C294.406 189.092 289.809 193.801 288.646 197.764C287.483 201.728 293.334 204.528 297.023 205.001C299.73 205.346 301.22 208.31 301.819 209.855C302.019 210.437 301.965 211.055 301.656 211.583Z" fill="url(#paint20_linear)"/>
<path d="M299.529 224.164C299.529 224.164 302.128 218.019 305.126 218.273C308.106 218.528 310.45 221.492 306.761 224.837C302.146 229.001 299.529 224.164 299.529 224.164Z" fill="url(#paint21_linear)"/>
<path d="M303.454 497.746C309.214 498.237 319.225 499.055 327.129 499.401C331.872 499.601 334.597 499.146 336.178 498.51C336.178 498.692 336.178 498.855 336.16 499.019C336.124 499.855 335.451 500.51 334.615 500.564C319.698 501.401 307.833 500.855 303.617 500.601C302.745 500.546 302.218 499.601 302.673 498.855C302.891 498.473 303.163 498.092 303.454 497.746Z" fill="url(#paint22_linear)"/>
<path d="M327.129 499.401C319.243 499.055 309.231 498.237 303.453 497.746C309.122 490.783 327.129 486.092 327.129 486.092H332.216C335.705 491.128 336.214 495.946 336.177 498.51C334.615 499.146 331.871 499.601 327.129 499.401Z" fill="url(#paint23_linear)"/>
<path d="M333.072 477.782L332.6 487.2C332.545 488.219 331.782 489.073 330.764 489.219C329.747 489.364 328.384 489.382 326.949 488.91C326.058 488.619 325.404 487.873 325.241 486.946L323.605 477.782H333.072Z" fill="url(#paint24_linear)"/>
<path d="M399.1 499.328C401.607 498.983 402.734 497.674 403.206 496.292C403.206 496.31 403.206 496.31 403.225 496.328C403.588 497.801 402.734 499.31 401.026 500.037C398.973 500.91 396.701 501.056 394.957 500.983C393.086 500.91 391.359 500.128 390.415 498.892L390.396 498.874C392.286 499.801 394.939 499.91 399.1 499.328Z" fill="url(#paint25_linear)"/>
<path d="M387.308 477.71H391.505C397.882 477.583 401.898 491.055 403.206 496.274C402.734 497.655 401.607 498.964 399.1 499.31C394.921 499.892 392.286 499.783 390.396 498.855C386.944 494.31 385.236 487.655 384.419 483.783C383.492 479.364 387.308 477.71 387.308 477.71Z" fill="url(#paint26_linear)"/>
<path d="M390.96 468.982L393.286 478.255C393.577 479.382 393.032 480.564 391.978 481.11C390.67 481.782 388.835 482.473 387.163 482.273C386.363 482.182 385.709 481.619 385.455 480.873L382.039 471.128L390.96 468.982Z" fill="url(#paint27_linear)"/>
<path d="M393.742 471.655C390.853 474.219 381.423 474.564 381.423 474.564C347.482 393.055 333.327 370.619 333.327 370.619C338.233 401.383 334.381 480.346 334.381 480.346C328.785 482.819 321.553 480.346 321.553 480.346C321.099 429.983 314.013 375.855 304.873 341.237C327.804 340.728 340.268 335.71 344.265 332.564C363.398 363.401 393.742 471.655 393.742 471.655Z" fill="url(#paint28_linear)"/>
<path d="M299.111 364.018L303.327 390.291C304.072 394.873 308.305 398.054 312.92 397.491L376.097 389.782C379.186 389.4 381.53 386.818 381.585 383.727C381.712 376.945 381.457 364.854 378.605 353.854L299.111 364.018Z" fill="url(#paint29_linear)"/>
<path d="M315.066 395.71C314.957 395.71 314.866 395.637 314.866 395.528C314.848 395.419 314.938 395.31 315.047 395.291L316.701 395.091C316.828 395.073 316.919 395.164 316.937 395.273C316.955 395.382 316.864 395.491 316.755 395.51L315.102 395.71C315.084 395.71 315.084 395.71 315.066 395.71ZM311.214 395.637C311.195 395.637 311.177 395.637 311.159 395.637C310.614 395.51 310.069 395.31 309.56 395.073C309.451 395.019 309.415 394.891 309.469 394.8C309.524 394.691 309.651 394.655 309.742 394.71C310.232 394.946 310.741 395.128 311.268 395.255C311.377 395.273 311.45 395.4 311.413 395.51C311.395 395.582 311.304 395.637 311.214 395.637ZM320.571 395.037C320.462 395.037 320.371 394.964 320.371 394.855C320.353 394.746 320.444 394.637 320.553 394.619L322.206 394.419C322.315 394.4 322.424 394.491 322.443 394.6C322.461 394.71 322.37 394.819 322.261 394.837L320.607 395.037C320.589 395.037 320.571 395.037 320.571 395.037ZM326.077 394.364C325.967 394.364 325.877 394.291 325.877 394.182C325.858 394.073 325.949 393.964 326.058 393.946L327.712 393.746C327.839 393.728 327.93 393.819 327.948 393.928C327.966 394.037 327.875 394.146 327.766 394.164L326.113 394.364C326.095 394.364 326.077 394.364 326.077 394.364ZM331.564 393.691C331.455 393.691 331.364 393.619 331.364 393.51C331.346 393.4 331.437 393.291 331.546 393.273L333.199 393.073C333.326 393.055 333.417 393.146 333.435 393.255C333.454 393.364 333.363 393.473 333.254 393.491L331.6 393.691C331.582 393.691 331.582 393.691 331.564 393.691ZM337.069 393.019C336.96 393.019 336.869 392.946 336.869 392.837C336.851 392.728 336.942 392.619 337.051 392.6L338.705 392.4C338.832 392.382 338.923 392.473 338.941 392.582C338.959 392.691 338.868 392.8 338.759 392.819L337.106 393.019C337.088 393.019 337.087 393.019 337.069 393.019ZM306.671 392.673C306.617 392.673 306.544 392.637 306.508 392.6C306.162 392.146 305.853 391.673 305.617 391.146C305.563 391.037 305.617 390.91 305.708 390.873C305.817 390.819 305.944 390.873 305.981 390.964C306.217 391.455 306.507 391.91 306.835 392.346C306.907 392.437 306.889 392.564 306.798 392.637C306.762 392.655 306.707 392.673 306.671 392.673ZM342.575 392.364C342.466 392.364 342.375 392.291 342.375 392.182C342.357 392.073 342.448 391.964 342.557 391.946L344.21 391.746C344.337 391.728 344.428 391.819 344.446 391.928C344.464 392.037 344.374 392.146 344.265 392.164L342.611 392.364C342.593 392.346 342.575 392.364 342.575 392.364ZM348.08 391.691C347.971 391.691 347.88 391.619 347.88 391.51C347.862 391.4 347.953 391.291 348.062 391.273L349.716 391.073C349.825 391.055 349.934 391.146 349.952 391.255C349.97 391.364 349.879 391.473 349.77 391.491L348.117 391.691C348.08 391.691 348.08 391.691 348.08 391.691ZM353.568 391.019C353.459 391.019 353.368 390.946 353.368 390.837C353.35 390.728 353.44 390.619 353.549 390.6L355.203 390.4C355.33 390.382 355.421 390.473 355.439 390.582C355.457 390.691 355.366 390.8 355.257 390.819L353.604 391.019C353.586 391.019 353.586 391.019 353.568 391.019ZM359.073 390.346C358.964 390.346 358.873 390.273 358.873 390.164C358.855 390.055 358.946 389.946 359.055 389.928L360.708 389.728C360.836 389.71 360.926 389.8 360.945 389.91C360.963 390.019 360.872 390.128 360.763 390.146L359.109 390.346C359.091 390.346 359.073 390.346 359.073 390.346ZM364.579 389.673C364.47 389.673 364.379 389.6 364.379 389.491C364.361 389.382 364.451 389.273 364.56 389.255L366.214 389.055C366.341 389.037 366.432 389.128 366.45 389.237C366.468 389.346 366.377 389.455 366.268 389.473L364.615 389.673C364.597 389.673 364.579 389.673 364.579 389.673ZM370.066 389C369.957 389 369.866 388.928 369.866 388.819C369.848 388.71 369.939 388.6 370.048 388.582L371.701 388.382C371.828 388.364 371.919 388.455 371.937 388.564C371.956 388.673 371.865 388.782 371.756 388.8L370.102 389C370.084 389 370.084 389 370.066 389ZM375.553 388.2C375.462 388.2 375.39 388.146 375.353 388.055C375.317 387.946 375.372 387.837 375.481 387.782C375.989 387.6 376.462 387.364 376.898 387.055C376.989 386.982 377.116 387.019 377.189 387.11C377.261 387.2 377.225 387.328 377.134 387.4C376.662 387.728 376.153 388 375.608 388.182C375.59 388.2 375.571 388.2 375.553 388.2ZM304.836 387.51C304.727 387.51 304.654 387.437 304.636 387.328L304.363 385.691C304.345 385.582 304.418 385.473 304.527 385.455C304.636 385.437 304.745 385.51 304.763 385.619L305.036 387.255C305.054 387.364 304.981 387.473 304.872 387.491C304.854 387.51 304.854 387.51 304.836 387.51ZM379.278 384.382C379.26 384.382 379.242 384.382 379.224 384.364C379.115 384.328 379.06 384.219 379.096 384.11C379.26 383.6 379.351 383.073 379.351 382.528C379.351 382.419 379.442 382.328 379.551 382.328C379.66 382.328 379.751 382.419 379.751 382.546C379.732 383.128 379.641 383.691 379.46 384.237C379.46 384.328 379.369 384.382 379.278 384.382ZM303.964 382.037C303.855 382.037 303.782 381.964 303.764 381.855L303.491 380.219C303.473 380.11 303.546 380 303.655 379.982C303.764 379.964 303.873 380.037 303.891 380.146L304.164 381.782C304.182 381.891 304.109 382 304 382.019C303.982 382.037 303.964 382.037 303.964 382.037ZM379.569 378.855C379.46 378.855 379.369 378.764 379.369 378.655C379.369 378.11 379.351 377.564 379.351 377C379.351 376.891 379.442 376.782 379.551 376.782C379.678 376.764 379.769 376.873 379.769 376.982C379.787 377.546 379.787 378.11 379.787 378.655C379.787 378.764 379.696 378.855 379.569 378.855ZM303.073 376.564C302.964 376.564 302.892 376.491 302.874 376.382L302.601 374.746C302.583 374.637 302.655 374.528 302.765 374.51C302.874 374.491 302.983 374.564 303.001 374.673L303.273 376.309C303.291 376.419 303.219 376.528 303.11 376.546C303.092 376.564 303.092 376.564 303.073 376.564ZM379.405 373.309C379.296 373.309 379.205 373.219 379.205 373.11C379.169 372.564 379.151 372.019 379.115 371.455C379.115 371.346 379.187 371.237 379.314 371.237C379.46 371.237 379.532 371.309 379.532 371.437C379.569 372 379.605 372.564 379.623 373.11C379.623 373.219 379.532 373.309 379.405 373.309C379.423 373.309 379.423 373.309 379.405 373.309ZM302.201 371.091C302.092 371.091 302.02 371.019 302.001 370.909L301.729 369.273C301.711 369.164 301.783 369.055 301.892 369.037C302.001 369.019 302.11 369.091 302.129 369.2L302.401 370.837C302.419 370.946 302.347 371.055 302.238 371.073C302.219 371.091 302.201 371.091 302.201 371.091ZM379.006 367.782C378.896 367.782 378.806 367.709 378.806 367.6C378.751 367.055 378.697 366.509 378.642 365.946C378.624 365.837 378.715 365.728 378.824 365.709C378.933 365.691 379.042 365.782 379.06 365.891C379.115 366.455 379.187 367 379.242 367.546C379.26 367.655 379.169 367.764 379.06 367.764C379.024 367.782 379.024 367.782 379.006 367.782ZM301.311 365.619C301.202 365.619 301.129 365.546 301.111 365.437L300.82 363.582L302.347 363.382C302.456 363.364 302.565 363.455 302.583 363.564C302.601 363.673 302.51 363.782 302.401 363.8L301.311 363.946L301.547 365.382C301.565 365.491 301.493 365.6 301.384 365.619C301.347 365.619 301.329 365.619 301.311 365.619ZM306.217 363.309C306.108 363.309 306.017 363.237 306.017 363.128C305.999 363.019 306.09 362.909 306.199 362.891L307.852 362.673C307.979 362.655 308.07 362.746 308.088 362.855C308.106 362.964 308.016 363.073 307.907 363.091L306.253 363.309C306.235 363.309 306.217 363.309 306.217 363.309ZM311.704 362.6C311.595 362.6 311.504 362.528 311.504 362.419C311.486 362.309 311.577 362.2 311.686 362.182L313.339 361.964C313.467 361.946 313.557 362.037 313.576 362.146C313.594 362.255 313.503 362.364 313.394 362.382L311.74 362.6C311.722 362.6 311.722 362.6 311.704 362.6ZM378.333 362.273C378.224 362.273 378.152 362.2 378.133 362.091C378.043 361.546 377.97 361 377.879 360.455C377.861 360.346 377.934 360.237 378.043 360.219C378.17 360.2 378.261 360.273 378.279 360.382C378.37 360.928 378.46 361.473 378.551 362.037C378.569 362.146 378.497 362.255 378.37 362.273C378.351 362.273 378.333 362.273 378.333 362.273ZM317.21 361.909C317.101 361.909 317.01 361.837 317.01 361.728C316.992 361.619 317.082 361.509 317.191 361.491L318.845 361.273C318.972 361.255 319.063 361.346 319.081 361.455C319.099 361.564 319.008 361.673 318.899 361.691L317.246 361.909C317.228 361.909 317.21 361.909 317.21 361.909ZM322.697 361.2C322.588 361.2 322.497 361.128 322.497 361.019C322.479 360.909 322.57 360.8 322.679 360.782L324.332 360.564C324.459 360.546 324.55 360.637 324.568 360.746C324.587 360.855 324.496 360.964 324.387 360.982L322.733 361.2C322.715 361.2 322.715 361.2 322.697 361.2ZM328.202 360.491C328.093 360.491 328.003 360.419 328.003 360.309C327.984 360.2 328.075 360.091 328.184 360.073L329.838 359.855C329.965 359.837 330.056 359.928 330.074 360.037C330.092 360.146 330.001 360.255 329.892 360.273L328.239 360.491C328.221 360.491 328.202 360.491 328.202 360.491ZM333.69 359.8C333.581 359.8 333.49 359.728 333.49 359.619C333.472 359.509 333.563 359.4 333.672 359.382L335.325 359.164C335.452 359.146 335.543 359.237 335.561 359.346C335.579 359.455 335.489 359.564 335.38 359.582L333.726 359.8C333.708 359.8 333.708 359.8 333.69 359.8ZM339.195 359.091C339.086 359.091 338.995 359.019 338.995 358.909C338.977 358.8 339.068 358.691 339.177 358.673L340.831 358.455C340.958 358.437 341.049 358.528 341.067 358.637C341.085 358.746 340.994 358.855 340.885 358.873L339.232 359.091C339.213 359.091 339.195 359.091 339.195 359.091ZM344.683 358.382C344.574 358.382 344.483 358.309 344.483 358.2C344.464 358.091 344.555 357.982 344.664 357.964L346.318 357.746C346.445 357.728 346.536 357.819 346.554 357.928C346.572 358.037 346.481 358.146 346.372 358.164L344.719 358.382C344.701 358.382 344.701 358.382 344.683 358.382ZM350.188 357.673C350.079 357.673 349.988 357.6 349.988 357.491C349.97 357.382 350.061 357.273 350.17 357.255L351.823 357.037C351.951 357.019 352.041 357.109 352.06 357.219C352.078 357.328 351.987 357.437 351.878 357.455L350.224 357.673C350.206 357.673 350.188 357.673 350.188 357.673ZM355.675 356.982C355.566 356.982 355.475 356.909 355.475 356.8C355.457 356.691 355.548 356.582 355.657 356.564L357.311 356.346C357.438 356.328 357.529 356.419 357.547 356.528C357.565 356.637 357.474 356.746 357.365 356.764L355.712 356.982C355.694 356.982 355.694 356.982 355.675 356.982ZM377.334 356.837C377.243 356.837 377.152 356.764 377.134 356.673C377.007 356.128 376.898 355.6 376.752 355.055C376.734 354.946 376.789 354.837 376.898 354.8C377.007 354.764 377.116 354.837 377.152 354.946C377.279 355.491 377.407 356.037 377.534 356.564C377.552 356.673 377.479 356.782 377.37 356.819C377.352 356.819 377.352 356.837 377.334 356.837ZM361.181 356.273C361.072 356.273 360.981 356.2 360.981 356.091C360.963 355.982 361.054 355.873 361.163 355.855L362.816 355.637C362.943 355.619 363.034 355.709 363.052 355.819C363.07 355.928 362.98 356.037 362.871 356.055L361.217 356.273C361.199 356.273 361.181 356.273 361.181 356.273ZM366.668 355.564C366.559 355.564 366.468 355.491 366.468 355.382C366.45 355.273 366.541 355.164 366.65 355.146L368.303 354.928C368.431 354.909 368.521 355 368.54 355.109C368.558 355.219 368.467 355.328 368.358 355.346L366.704 355.564C366.686 355.564 366.686 355.564 366.668 355.564ZM372.174 354.873C372.065 354.873 371.974 354.8 371.974 354.691C371.956 354.582 372.046 354.473 372.155 354.455L373.809 354.237C373.936 354.219 374.027 354.309 374.045 354.419C374.063 354.528 373.972 354.637 373.863 354.655L372.21 354.873C372.192 354.873 372.174 354.873 372.174 354.873Z" fill="white"/>
<path d="M315.174 342.491L315.102 340.437C315.247 339.927 315.647 339.527 316.174 339.364C318.1 338.8 322.915 337.618 325.477 339.073L326.131 341.4L315.174 342.491Z" fill="url(#paint30_linear)"/>
<path d="M321.062 339.745C320.626 339.909 320.171 339.964 319.699 339.909C319.136 339.836 318.681 339.4 318.609 338.836L317.791 332.473L321.025 332.055L321.843 338.418C321.916 339 321.589 339.545 321.062 339.745Z" fill="url(#paint31_linear)"/>
<path d="M346.553 338.474L346.48 336.419C346.626 335.91 347.026 335.51 347.552 335.346C349.479 334.783 354.294 333.601 356.856 335.055L357.51 337.383L346.553 338.474Z" fill="url(#paint32_linear)"/>
<path d="M352.44 335.728C352.003 335.892 351.549 335.946 351.077 335.892C350.514 335.819 350.059 335.382 349.987 334.819L349.078 327.782L352.312 327.364L353.221 334.401C353.294 334.982 352.967 335.528 352.44 335.728Z" fill="url(#paint33_linear)"/>
<path d="M317.664 334.091L352.351 328.473C353.15 328.346 353.75 327.691 353.786 326.891C353.84 325.782 353.804 324.128 353.332 322.455C352.805 320.564 350.97 319.346 349.007 319.546C342.484 320.219 325.95 322.346 317.282 327.128C316.374 327.637 315.756 328.546 315.647 329.582C315.538 330.564 315.538 331.873 316.011 333.128C316.247 333.8 316.955 334.2 317.664 334.091Z" fill="url(#paint34_linear)"/>
<path d="M316.81 332.746C316.555 332.746 316.337 332.564 316.265 332.31C316.246 332.255 315.937 330.892 316.137 329.51C316.301 328.383 317.046 327.401 318.1 326.928C319.989 326.11 323.605 324.637 326.676 324.164C326.985 324.128 327.257 324.328 327.312 324.619C327.366 324.928 327.148 325.201 326.858 325.255C323.805 325.728 320.044 327.292 318.554 327.946C317.845 328.255 317.355 328.91 317.246 329.655C317.082 330.819 317.355 332.037 317.355 332.055C317.427 332.346 317.246 332.655 316.937 332.728C316.901 332.746 316.846 332.746 316.81 332.746Z" fill="url(#paint35_linear)"/>
<path d="M298.894 343.764C310.123 342.182 358.764 335.436 373.118 335.327C374.354 335.327 375.462 336.091 375.88 337.236C377.207 340.909 380.005 349.473 380.913 358.2C381.04 359.382 380.295 360.491 379.151 360.873L347.644 371.127L336.179 372.6L300.911 370.164C299.675 370.073 298.64 369.164 298.422 367.945C297.64 363.6 295.969 353.364 296.314 346.6C296.387 345.164 297.477 343.982 298.894 343.764Z" fill="url(#paint36_linear)"/>
<path d="M336.143 370.001L334.435 369.892C334.326 369.892 334.235 369.783 334.235 369.674C334.235 369.565 334.344 369.474 334.453 369.474L336.106 369.583L336.997 369.474C337.124 369.455 337.215 369.546 337.233 369.655C337.251 369.765 337.16 369.874 337.051 369.892L336.143 370.001ZM330.583 369.619L328.911 369.51C328.802 369.51 328.711 369.401 328.711 369.292C328.711 369.183 328.82 369.092 328.929 369.092L330.583 369.201C330.692 369.201 330.783 369.31 330.783 369.419C330.783 369.528 330.692 369.619 330.583 369.619ZM340.885 369.383C340.776 369.383 340.685 369.31 340.685 369.201C340.667 369.092 340.758 368.983 340.867 368.965L342.52 368.746C342.648 368.728 342.738 368.819 342.757 368.928C342.775 369.037 342.684 369.146 342.575 369.165L340.921 369.383C340.903 369.383 340.903 369.383 340.885 369.383ZM325.059 369.237C325.059 369.237 325.041 369.237 325.059 369.237L323.387 369.128C323.278 369.128 323.188 369.019 323.188 368.91C323.188 368.801 323.297 368.71 323.406 368.71L325.059 368.819C325.168 368.819 325.259 368.928 325.259 369.037C325.259 369.146 325.168 369.237 325.059 369.237ZM319.535 368.855C319.517 368.855 319.517 368.855 319.535 368.855L317.864 368.746C317.755 368.746 317.664 368.637 317.664 368.528C317.664 368.419 317.773 368.328 317.882 368.328L319.535 368.437C319.644 368.437 319.735 368.546 319.735 368.655C319.735 368.765 319.644 368.855 319.535 368.855ZM346.391 368.674C346.282 368.674 346.191 368.601 346.191 368.492C346.173 368.383 346.263 368.274 346.372 368.255L347.027 368.165L347.935 367.874C348.044 367.837 348.153 367.892 348.189 368.001C348.226 368.11 348.171 368.219 348.062 368.255L347.117 368.565L346.427 368.655C346.409 368.674 346.391 368.674 346.391 368.674ZM314.012 368.474C313.994 368.474 313.994 368.474 314.012 368.474L312.34 368.365C312.231 368.365 312.14 368.255 312.14 368.146C312.14 368.037 312.249 367.965 312.358 367.946L314.012 368.055C314.121 368.055 314.212 368.165 314.212 368.274C314.193 368.383 314.103 368.474 314.012 368.474ZM308.47 368.092L306.798 367.983C306.689 367.983 306.598 367.874 306.598 367.765C306.598 367.655 306.707 367.583 306.816 367.565L308.47 367.674C308.579 367.674 308.67 367.783 308.67 367.892C308.67 368.001 308.579 368.092 308.47 368.092ZM302.946 367.71C302.946 367.71 302.928 367.71 302.946 367.71L301.275 367.601C301.166 367.601 301.075 367.492 301.075 367.383C301.075 367.274 301.202 367.201 301.293 367.183L302.946 367.292C303.055 367.292 303.146 367.401 303.146 367.51C303.146 367.619 303.055 367.71 302.946 367.71ZM351.678 367.092C351.587 367.092 351.515 367.037 351.478 366.946C351.442 366.837 351.496 366.728 351.605 366.692L353.186 366.183C353.295 366.146 353.404 366.201 353.441 366.31C353.477 366.419 353.422 366.528 353.313 366.565L351.733 367.074C351.733 367.092 351.714 367.092 351.678 367.092ZM356.947 365.383C356.857 365.383 356.784 365.328 356.747 365.237C356.711 365.128 356.766 365.019 356.875 364.983L358.455 364.474C358.564 364.437 358.674 364.492 358.71 364.601C358.746 364.71 358.692 364.819 358.583 364.855L357.002 365.365C357.002 365.365 356.984 365.383 356.947 365.383ZM300.548 363.855C300.439 363.855 300.366 363.783 300.348 363.674C300.257 363.146 300.184 362.601 300.094 362.019C300.075 361.91 300.148 361.801 300.275 361.783C300.384 361.765 300.493 361.837 300.511 361.965C300.602 362.528 300.675 363.092 300.766 363.601C300.784 363.71 300.711 363.819 300.602 363.837C300.566 363.855 300.566 363.855 300.548 363.855ZM362.217 363.655C362.126 363.655 362.053 363.601 362.017 363.51C361.98 363.401 362.035 363.292 362.144 363.255L363.725 362.746C363.834 362.71 363.943 362.765 363.979 362.874C364.015 362.983 363.961 363.092 363.852 363.128L362.271 363.637C362.271 363.655 362.253 363.655 362.217 363.655ZM367.504 361.946C367.413 361.946 367.341 361.892 367.304 361.801C367.268 361.692 367.322 361.583 367.431 361.546L369.012 361.037C369.121 361.001 369.23 361.055 369.267 361.165C369.303 361.274 369.248 361.383 369.139 361.419L367.559 361.928C367.54 361.946 367.522 361.946 367.504 361.946ZM372.773 360.237C372.683 360.237 372.61 360.183 372.574 360.092C372.537 359.983 372.592 359.874 372.701 359.837L374.281 359.328C374.391 359.292 374.5 359.346 374.536 359.455C374.572 359.565 374.518 359.674 374.409 359.71L372.828 360.219C372.81 360.237 372.792 360.237 372.773 360.237ZM378.043 358.528C377.952 358.528 377.879 358.474 377.843 358.383C377.825 358.31 377.843 358.219 377.897 358.165C377.843 357.692 377.788 357.219 377.716 356.746C377.697 356.637 377.788 356.528 377.897 356.51C378.006 356.492 378.115 356.583 378.134 356.692C378.206 357.219 378.261 357.746 378.333 358.274L378.352 358.437L378.115 358.51C378.079 358.51 378.061 358.528 378.043 358.528ZM299.785 358.365C299.676 358.365 299.585 358.292 299.585 358.183C299.512 357.637 299.458 357.092 299.385 356.528C299.367 356.419 299.458 356.31 299.567 356.292C299.694 356.292 299.785 356.364 299.803 356.474C299.857 357.019 299.93 357.583 299.985 358.128C300.003 358.237 299.912 358.346 299.803 358.365H299.785ZM377.298 353.092C377.207 353.092 377.116 353.019 377.098 352.928C376.989 352.383 376.88 351.837 376.771 351.31C376.753 351.201 376.825 351.092 376.934 351.055C377.043 351.037 377.152 351.11 377.189 351.219C377.298 351.764 377.407 352.31 377.516 352.855C377.534 352.964 377.461 353.074 377.352 353.092C377.316 353.092 377.298 353.092 377.298 353.092ZM299.24 352.837C299.131 352.837 299.04 352.746 299.04 352.637C299.003 352.074 298.967 351.51 298.949 350.965C298.949 350.855 299.04 350.746 299.149 350.746C299.276 350.728 299.367 350.837 299.367 350.946C299.385 351.492 299.421 352.037 299.458 352.601C299.458 352.746 299.367 352.837 299.24 352.837ZM376.08 347.674C375.989 347.674 375.899 347.619 375.88 347.51C375.735 346.965 375.59 346.419 375.463 345.91C375.426 345.801 375.499 345.692 375.608 345.655C375.717 345.619 375.826 345.692 375.862 345.801C376.008 346.328 376.153 346.855 376.298 347.419C376.335 347.528 376.262 347.637 376.153 347.674C376.117 347.674 376.099 347.674 376.08 347.674ZM299.112 347.31C298.985 347.31 298.894 347.201 298.912 347.092L298.931 346.728C298.949 346.528 299.094 346.364 299.276 346.346L300.293 346.201C300.402 346.183 300.511 346.255 300.53 346.383C300.548 346.492 300.475 346.601 300.348 346.619L299.33 346.764V347.11C299.312 347.219 299.221 347.31 299.112 347.31ZM304.164 346.074C304.055 346.074 303.964 346.001 303.964 345.892C303.946 345.783 304.018 345.674 304.145 345.655L305.799 345.419C305.926 345.401 306.017 345.492 306.035 345.601C306.053 345.71 305.962 345.819 305.853 345.837L304.2 346.074C304.182 346.074 304.164 346.074 304.164 346.074ZM309.651 345.328C309.542 345.328 309.451 345.255 309.451 345.146C309.433 345.037 309.524 344.928 309.633 344.91L311.286 344.692C311.395 344.674 311.504 344.764 311.522 344.874C311.541 344.983 311.45 345.092 311.341 345.11L309.687 345.328C309.669 345.328 309.669 345.328 309.651 345.328ZM315.138 344.583C315.029 344.583 314.938 344.51 314.938 344.401C314.92 344.292 315.011 344.183 315.12 344.164L316.774 343.946C316.883 343.928 316.992 344.019 317.01 344.128C317.028 344.237 316.937 344.346 316.828 344.364L315.175 344.583C315.156 344.583 315.156 344.583 315.138 344.583ZM320.644 343.855C320.535 343.855 320.444 343.783 320.444 343.674C320.426 343.564 320.517 343.455 320.626 343.437L322.279 343.219C322.388 343.201 322.497 343.292 322.515 343.401C322.533 343.51 322.443 343.619 322.334 343.637L320.68 343.855C320.662 343.855 320.644 343.855 320.644 343.855ZM326.131 343.128C326.022 343.128 325.931 343.055 325.931 342.946C325.913 342.837 326.004 342.728 326.113 342.71L327.766 342.492C327.894 342.474 327.984 342.564 328.003 342.674C328.021 342.783 327.93 342.892 327.821 342.91L326.167 343.128C326.149 343.128 326.149 343.128 326.131 343.128ZM331.673 342.437L331.618 342.019L333.254 341.819C333.363 341.801 333.472 341.892 333.49 342.001C333.508 342.11 333.417 342.219 333.308 342.237L331.673 342.437ZM374.572 342.346C374.481 342.346 374.409 342.292 374.372 342.201C374.191 341.637 374.027 341.11 373.864 340.619C373.827 340.51 373.882 340.401 373.991 340.364C374.1 340.328 374.209 340.383 374.245 340.492C374.409 340.983 374.572 341.51 374.754 342.074C374.79 342.183 374.736 342.292 374.609 342.328C374.609 342.346 374.59 342.346 374.572 342.346ZM337.142 341.746C337.033 341.746 336.942 341.674 336.942 341.564C336.924 341.455 337.015 341.346 337.124 341.328L338.777 341.128C338.886 341.11 338.995 341.201 339.014 341.31C339.032 341.419 338.941 341.528 338.832 341.546L337.178 341.746C337.16 341.746 337.142 341.746 337.142 341.746ZM342.629 341.092C342.52 341.092 342.43 341.019 342.43 340.91C342.411 340.801 342.502 340.692 342.611 340.674L344.265 340.474C344.392 340.455 344.483 340.546 344.501 340.655C344.519 340.764 344.428 340.874 344.319 340.892L342.666 341.092C342.648 341.092 342.648 341.092 342.629 341.092ZM348.135 340.455C348.026 340.455 347.935 340.383 347.935 340.274C347.917 340.164 348.008 340.055 348.117 340.037L349.77 339.855C349.879 339.837 349.988 339.928 350.006 340.037C350.025 340.146 349.934 340.255 349.825 340.274L348.171 340.455C348.153 340.455 348.153 340.455 348.135 340.455ZM353.659 339.855C353.55 339.855 353.459 339.783 353.459 339.674C353.441 339.564 353.531 339.455 353.64 339.437L355.294 339.274C355.403 339.255 355.512 339.346 355.53 339.455C355.548 339.564 355.457 339.674 355.348 339.692L353.695 339.855C353.659 339.855 353.659 339.855 353.659 339.855ZM359.164 339.292C359.055 339.292 358.964 339.219 358.964 339.11C358.946 339.001 359.037 338.892 359.146 338.892C359.709 338.837 360.254 338.783 360.799 338.728C360.927 338.71 361.017 338.801 361.017 338.91C361.036 339.019 360.945 339.128 360.836 339.128C360.291 339.183 359.746 339.237 359.182 339.292H359.164ZM364.688 338.801C364.579 338.801 364.488 338.71 364.488 338.601C364.488 338.492 364.561 338.383 364.688 338.383C365.269 338.328 365.814 338.292 366.341 338.255C366.468 338.255 366.559 338.328 366.559 338.455C366.559 338.564 366.487 338.674 366.359 338.674C365.832 338.728 365.269 338.764 364.688 338.801ZM370.211 338.437C370.102 338.437 370.012 338.346 370.012 338.237C370.012 338.128 370.102 338.019 370.211 338.019C370.811 337.983 371.356 337.964 371.883 337.946C371.992 337.946 372.083 338.037 372.083 338.146C372.083 338.255 371.992 338.364 371.883 338.364C371.374 338.383 370.811 338.419 370.211 338.437C370.23 338.437 370.211 338.437 370.211 338.437Z" fill="white"/>
<path d="M347.209 376.092L337.161 377.382C335.853 377.546 334.617 376.71 334.29 375.437L331.892 365.91C331.51 364.401 332.546 362.873 334.109 362.673L346.173 361.128C347.7 360.928 349.063 362.092 349.117 363.619L349.499 373.401C349.535 374.764 348.554 375.928 347.209 376.092Z" fill="url(#paint37_linear)"/>
<path d="M345.737 374.473L338.088 375.455C337.088 375.583 336.143 374.946 335.907 373.964L334.09 366.71C333.799 365.546 334.581 364.401 335.78 364.255L344.974 363.073C346.137 362.928 347.173 363.801 347.227 364.964L347.518 372.419C347.518 373.455 346.773 374.346 345.737 374.473Z" fill="url(#paint38_linear)"/>
<path d="M339.759 297.383C342.121 307.183 342.194 316.765 341.831 320.255C341.703 321.565 340.631 322.601 339.323 322.692C337.833 322.801 335.78 322.928 333.963 323.037C331.964 323.146 329.729 321.892 328.258 320.819C327.495 320.274 326.513 321.128 326.95 321.946C327.676 323.383 328.948 324.51 330.202 325.455C330.965 326.037 333.472 327.055 333.309 328.183C333.254 328.546 333.036 328.855 332.8 329.128C331.401 330.801 329.293 331.71 327.204 332.346C326.95 332.419 326.659 332.51 326.477 332.71C326.423 334.055 330.583 335.565 331.656 335.928C333.254 336.455 334.962 336.692 336.652 336.51C340.831 336.074 344.701 333.183 346.955 329.692C352.969 320.383 356.094 309.146 357.221 300.546C351.606 294.983 343.139 296.401 339.759 297.383Z" fill="url(#paint39_linear)"/>
<path d="M357.201 301.456C361.671 267.692 335.67 241.729 335.67 241.729L320.207 259.783C331.945 274.438 337.541 287.856 340.085 298.401C343.446 297.419 351.605 295.856 357.201 301.456Z" fill="url(#paint40_linear)"/>
<path d="M339.704 298.238C339.268 298.238 338.886 297.947 338.777 297.51C335.634 284.51 329.002 271.656 319.081 259.274C318.754 258.856 318.808 258.256 319.226 257.929C319.644 257.601 320.244 257.656 320.571 258.074C330.673 270.674 337.414 283.783 340.63 297.056C340.758 297.565 340.431 298.092 339.922 298.22C339.849 298.238 339.776 298.238 339.704 298.238Z" fill="url(#paint41_linear)"/>
<path d="M130.204 498.382C130.204 498.219 130.204 498.055 130.15 497.891C127.661 488.018 115.305 481.873 115.305 481.873L110.417 482.255C107.601 490.946 107.964 496.291 108.419 498.673C108.437 498.746 108.455 498.8 108.473 498.873C112.507 499.2 120.811 499.437 130.204 498.382Z" fill="url(#paint42_linear)"/>
<path d="M108.473 498.854C108.691 499.654 109.272 500.272 110.017 500.418C115.759 501.618 124.88 500.654 128.714 500.145C129.568 500.036 130.186 499.254 130.186 498.363C120.81 499.436 112.506 499.2 108.473 498.854Z" fill="url(#paint43_linear)"/>
<path d="M108.457 474.946L110.528 484.928C110.674 485.655 111.237 486.2 111.927 486.273C112.763 486.346 113.944 486.4 115.144 486.219C116.216 486.055 116.961 484.982 116.761 483.8L115.325 474.928H108.457V474.946Z" fill="url(#paint44_linear)"/>
<path d="M151.392 498.728C145.996 498.582 143.198 497.946 141.744 497.346C141.744 497.891 141.744 498.437 141.762 499C141.78 499.6 142.235 500.091 142.78 500.091L172.451 499.891C173.396 499.891 173.959 498.782 173.542 497.909C169.653 498.237 159.751 498.964 151.392 498.728Z" fill="url(#paint45_linear)"/>
<path d="M173.541 497.909C173.505 497.836 173.468 497.763 173.432 497.691C170.815 494.018 164.129 486.727 150.956 483.563L144.633 483.363C144.633 483.363 141.816 488.254 141.762 497.345C143.215 497.945 145.995 498.581 151.41 498.727C159.75 498.963 169.653 498.236 173.541 497.909Z" fill="url(#paint46_linear)"/>
<path d="M143.16 474.073C143.251 474.546 144.577 481.637 145.086 484.4C145.213 485.055 145.722 485.528 146.322 485.564C147.412 485.619 149.156 485.637 150.646 485.219C151.464 485 152.009 484.164 151.936 483.255L151.228 472.019L143.16 474.073Z" fill="url(#paint47_linear)"/>
<path d="M138.364 342.909C138.364 342.909 147.067 402.745 153.354 473.964C153.463 475.291 152.409 476.436 151.119 476.727C149.193 477.127 146.377 477.618 144.051 477.545C142.797 477.509 141.761 476.582 141.561 475.364C139.417 462.8 124.155 395.418 120.139 380.6C120.139 380.6 115.542 443.6 117.014 476.273C117.05 477.091 116.451 477.782 115.651 477.891C114.434 478.036 112.471 478.145 109.964 477.873C109.019 477.764 108.256 477.055 108.111 476.109C106.584 465.491 97.8082 402.236 98.1898 356.673C98.208 354.109 101.206 333 101.206 333L138.364 342.909Z" fill="url(#paint48_linear)"/>
<path d="M99.8789 346.364C98.9885 346.036 98.3526 345.236 98.2617 344.291C97.0989 333.054 91.5025 263.382 126.879 234.727C126.879 234.727 128.914 229.418 145.576 242.473C162.256 255.527 153.317 269.218 149.337 288.091C144.504 310.927 136.037 329.6 139.78 343.654C140.034 344.618 139.526 345.636 138.581 345.982C125.644 350.764 112.743 350.927 99.8789 346.364Z" fill="url(#paint49_linear)"/>
<path d="M140.689 213.854C140.671 214.854 126.553 234.927 126.553 234.927C126.553 234.927 129.097 239.927 141.198 243.982L151.645 222.491L140.689 213.854Z" fill="url(#paint50_linear)"/>
<path d="M151.809 202.346C151.809 202.346 156.842 213.891 157.169 219.964C157.514 226.037 158.804 229.964 151.809 231.182C144.795 232.4 138.89 228.909 135.692 222.873C135.692 222.873 130.677 213.564 131.804 209.746C132.93 205.946 151.809 202.346 151.809 202.346Z" fill="url(#paint51_linear)"/>
<path d="M138.09 218.528L138.49 218.346C138.998 218.128 139.216 217.509 138.962 217.019C137.981 215.109 136.055 210.728 138.544 209.709C141.76 208.4 154.461 205.8 157.205 201.291C159.839 196.964 157.513 191.364 153.989 189.764C153.752 189.655 153.48 189.746 153.353 189.964L153.062 190.509C152.862 190.891 152.299 190.837 152.19 190.419C152.081 190.019 151.554 189.946 151.336 190.291C150.5 191.637 148.21 193.837 142.142 194.946C133.493 196.546 127.787 200.037 127.642 206.019C127.642 206.4 127.224 206.6 126.897 206.419C126.261 206.037 125.244 205.855 123.881 207C121.501 209 122.482 214.182 127.678 218.437C127.933 218.637 127.915 219.019 127.66 219.2C126.715 219.819 125.316 221.273 128.95 223.219C132.712 225.237 135.528 225.073 136.618 224.891C136.891 224.855 137.054 224.582 137 224.309L135.837 219.055C135.764 218.764 136 218.473 136.309 218.473H138.09V218.528Z" fill="url(#paint52_linear)"/>
<path d="M138.307 219.637C138.307 219.637 136.38 212.255 133.074 214.328C129.767 216.401 134.782 222.601 137.453 222.873L138.307 219.637Z" fill="url(#paint53_linear)"/>
<path d="M150.955 248.527L151.936 274.709C154.698 275.655 157.333 276.4 159.84 276.964C161.403 271.909 164.855 265.709 167.69 261.091C157.296 257.4 150.955 248.527 150.955 248.527Z" fill="url(#paint54_linear)"/>
<path d="M202.848 248.091C188.585 263.491 177.047 264.4 167.689 261.091C164.855 265.709 161.402 271.909 159.84 276.964C197.906 285.364 206.882 250.345 206.882 250.345L202.848 248.091Z" fill="url(#paint55_linear)"/>
<path d="M205.736 246.455C205.736 246.455 207.372 244.691 210.424 245.236C213.477 245.782 216.166 246.855 218.056 245.236C219.945 243.618 220.618 245.782 220.618 245.782L214.948 250.091L205.736 246.455Z" fill="url(#paint56_linear)"/>
<path d="M202.34 249.472C202.34 249.472 203.466 244.763 206.864 245.418C210.262 246.054 217.948 250.254 219.928 249.472C221.909 248.709 224.453 246.854 225.743 247.509L223.453 250.363C223.453 250.363 229.34 246.963 230.358 249.054L220.546 254.581C220.564 254.563 206.21 253.127 202.34 249.472Z" fill="url(#paint57_linear)"/>
<path d="M135.129 282.782C135.129 282.782 161.93 305.236 190.874 295.436C192.673 294.836 194.635 294.963 196.307 295.854L204.629 300.254C208.118 302.091 212.442 300.891 214.477 297.491C215.64 295.563 216.621 293.345 216.821 291.236L200.541 284.636L201.74 282.636C201.74 282.636 193.8 281.964 191.71 287.654C191.71 287.654 176.575 293.963 151.028 265.854C151.028 265.873 139.435 275.727 135.129 282.782Z" fill="url(#paint58_linear)"/>
<path d="M133.694 282.564C133.603 282.564 133.512 282.546 133.439 282.492C122.156 274.855 116.85 262.546 116.796 262.419C116.705 262.183 116.814 261.91 117.032 261.819C117.268 261.728 117.541 261.819 117.632 262.055C117.686 262.183 122.901 274.255 133.948 281.728C134.166 281.873 134.221 282.146 134.075 282.364C133.985 282.492 133.839 282.564 133.694 282.564Z" fill="url(#paint59_linear)"/>
<path d="M150.5 265.491C150.354 265.491 150.209 265.418 150.118 265.273C150.082 265.218 146.63 259.855 140.07 248.091C138.053 244.473 135.401 242.182 132.185 241.273C126.861 239.782 121.737 242.637 121.682 242.673C121.464 242.8 121.174 242.727 121.065 242.509C120.937 242.291 121.01 242 121.228 241.891C121.446 241.764 126.734 238.818 132.421 240.4C135.891 241.364 138.726 243.8 140.87 247.655C147.411 259.4 150.863 264.746 150.881 264.8C151.027 265.018 150.954 265.291 150.736 265.437C150.663 265.455 150.573 265.491 150.5 265.491Z" fill="url(#paint60_linear)"/>
</g>
<defs>
<linearGradient id="paint0_linear" x1="353.429" y1="308.522" x2="461.711" y2="308.522" gradientUnits="userSpaceOnUse">
<stop stop-color="#4F52FF"/>
<stop offset="1" stop-color="#396CAA"/>
</linearGradient>
<linearGradient id="paint1_linear" x1="364.164" y1="384.062" x2="427.997" y2="384.062" gradientUnits="userSpaceOnUse">
<stop stop-color="#DAE3FE"/>
<stop offset="1" stop-color="#E9EFFD"/>
</linearGradient>
<linearGradient id="paint2_linear" x1="368.39" y1="143.255" x2="213.852" y2="-177.768" gradientUnits="userSpaceOnUse">
<stop stop-color="#396CAA"/>
<stop offset="1" stop-color="#4F52FF"/>
</linearGradient>
<linearGradient id="paint3_linear" x1="289.258" y1="118.459" x2="-122.508" y2="645.049" gradientUnits="userSpaceOnUse">
<stop stop-color="white"/>
<stop offset="1"/>
</linearGradient>
<linearGradient id="paint4_linear" x1="289.258" y1="118.459" x2="-122.508" y2="645.049" gradientUnits="userSpaceOnUse">
<stop stop-color="white"/>
<stop offset="1" stop-color="white"/>
</linearGradient>
<linearGradient id="paint5_linear" x1="45.7787" y1="186.703" x2="88.4944" y2="186.703" gradientUnits="userSpaceOnUse">
<stop stop-color="#DAE3FE"/>
<stop offset="1" stop-color="#E9EFFD"/>
</linearGradient>
<linearGradient id="paint6_linear" x1="101.034" y1="168.126" x2="282.035" y2="168.126" gradientUnits="userSpaceOnUse">
<stop stop-color="#DAE3FE"/>
<stop offset="1" stop-color="#E9EFFD"/>
</linearGradient>
<linearGradient id="paint7_linear" x1="104.352" y1="197.202" x2="225.844" y2="197.202" gradientUnits="userSpaceOnUse">
<stop stop-color="#DAE3FE"/>
<stop offset="1" stop-color="#E9EFFD"/>
</linearGradient>
<linearGradient id="paint8_linear" x1="45.7787" y1="269.82" x2="88.4944" y2="269.82" gradientUnits="userSpaceOnUse">
<stop stop-color="#DAE3FE"/>
<stop offset="1" stop-color="#E9EFFD"/>
</linearGradient>
<linearGradient id="paint9_linear" x1="101.034" y1="251.242" x2="282.035" y2="251.242" gradientUnits="userSpaceOnUse">
<stop stop-color="#DAE3FE"/>
<stop offset="1" stop-color="#E9EFFD"/>
</linearGradient>
<linearGradient id="paint10_linear" x1="45.7787" y1="352.937" x2="88.4944" y2="352.937" gradientUnits="userSpaceOnUse">
<stop stop-color="#DAE3FE"/>
<stop offset="1" stop-color="#E9EFFD"/>
</linearGradient>
<linearGradient id="paint11_linear" x1="101.034" y1="334.36" x2="282.035" y2="334.36" gradientUnits="userSpaceOnUse">
<stop stop-color="#DAE3FE"/>
<stop offset="1" stop-color="#E9EFFD"/>
</linearGradient>
<linearGradient id="paint12_linear" x1="104.352" y1="363.436" x2="225.844" y2="363.436" gradientUnits="userSpaceOnUse">
<stop stop-color="#DAE3FE"/>
<stop offset="1" stop-color="#E9EFFD"/>
</linearGradient>
<linearGradient id="paint13_linear" x1="247.289" y1="335.018" x2="190.356" y2="480.689" gradientUnits="userSpaceOnUse">
<stop stop-color="#09005D"/>
<stop offset="1" stop-color="#1A0F91"/>
</linearGradient>
<linearGradient id="paint14_linear" x1="205.695" y1="294.362" x2="195.564" y2="296.349" gradientUnits="userSpaceOnUse">
<stop stop-color="#FEBBBA"/>
<stop offset="1" stop-color="#FF928E"/>
</linearGradient>
<linearGradient id="paint15_linear" x1="197.157" y1="284.18" x2="244.167" y2="284.18" gradientUnits="userSpaceOnUse">
<stop stop-color="#FEBBBA"/>
<stop offset="1" stop-color="#FF928E"/>
</linearGradient>
<linearGradient id="paint16_linear" x1="336.636" y1="126.29" x2="307.97" y2="182.778" gradientUnits="userSpaceOnUse">
<stop stop-color="#7D97F4"/>
<stop offset="1" stop-color="#1A0F91"/>
</linearGradient>
<linearGradient id="paint17_linear" x1="382.36" y1="149.495" x2="353.694" y2="205.982" gradientUnits="userSpaceOnUse">
<stop stop-color="#7D97F4"/>
<stop offset="1" stop-color="#1A0F91"/>
</linearGradient>
<linearGradient id="paint18_linear" x1="302.341" y1="237.13" x2="294.794" y2="214.503" gradientUnits="userSpaceOnUse">
<stop stop-color="#FEBBBA"/>
<stop offset="1" stop-color="#FF928E"/>
</linearGradient>
<linearGradient id="paint19_linear" x1="284.733" y1="209.359" x2="311.833" y2="221.134" gradientUnits="userSpaceOnUse">
<stop stop-color="#FEBBBA"/>
<stop offset="1" stop-color="#FF928E"/>
</linearGradient>
<linearGradient id="paint20_linear" x1="304.323" y1="225.604" x2="282.125" y2="202.038" gradientUnits="userSpaceOnUse">
<stop stop-color="#09005D"/>
<stop offset="1" stop-color="#1A0F91"/>
</linearGradient>
<linearGradient id="paint21_linear" x1="283.043" y1="213.245" x2="310.143" y2="225.02" gradientUnits="userSpaceOnUse">
<stop stop-color="#FEBBBA"/>
<stop offset="1" stop-color="#FF928E"/>
</linearGradient>
<linearGradient id="paint22_linear" x1="336.182" y1="499.369" x2="302.51" y2="499.369" gradientUnits="userSpaceOnUse">
<stop stop-color="#4042E2"/>
<stop offset="1" stop-color="#4F52FF"/>
</linearGradient>
<linearGradient id="paint23_linear" x1="417.456" y1="467.845" x2="295.521" y2="502.577" gradientUnits="userSpaceOnUse">
<stop stop-color="#09005D"/>
<stop offset="1" stop-color="#1A0F91"/>
</linearGradient>
<linearGradient id="paint24_linear" x1="333.075" y1="483.546" x2="323.59" y2="483.546" gradientUnits="userSpaceOnUse">
<stop stop-color="#FEBBBA"/>
<stop offset="1" stop-color="#FF928E"/>
</linearGradient>
<linearGradient id="paint25_linear" x1="403.31" y1="498.643" x2="390.406" y2="498.643" gradientUnits="userSpaceOnUse">
<stop stop-color="#4042E2"/>
<stop offset="1" stop-color="#4F52FF"/>
</linearGradient>
<linearGradient id="paint26_linear" x1="349.485" y1="460.778" x2="425.496" y2="510.241" gradientUnits="userSpaceOnUse">
<stop stop-color="#09005D"/>
<stop offset="1" stop-color="#1A0F91"/>
</linearGradient>
<linearGradient id="paint27_linear" x1="393.372" y1="475.634" x2="382.037" y2="475.634" gradientUnits="userSpaceOnUse">
<stop stop-color="#FEBBBA"/>
<stop offset="1" stop-color="#FF928E"/>
</linearGradient>
<linearGradient id="paint28_linear" x1="394.972" y1="492.288" x2="221.859" y2="253.108" gradientUnits="userSpaceOnUse">
<stop stop-color="#09005D"/>
<stop offset="1" stop-color="#1A0F91"/>
</linearGradient>
<linearGradient id="paint29_linear" x1="353.342" y1="461.133" x2="339.947" y2="364.87" gradientUnits="userSpaceOnUse">
<stop stop-color="#FE7062"/>
<stop offset="1" stop-color="#EDA85A"/>
</linearGradient>
<linearGradient id="paint30_linear" x1="321.513" y1="347.044" x2="319.607" y2="335.852" gradientUnits="userSpaceOnUse">
<stop stop-color="#EDA85A"/>
<stop offset="1" stop-color="#E9605A"/>
</linearGradient>
<linearGradient id="paint31_linear" x1="318.765" y1="330.227" x2="325.217" y2="362.173" gradientUnits="userSpaceOnUse">
<stop stop-color="#EDA85A"/>
<stop offset="1" stop-color="#E9605A"/>
</linearGradient>
<linearGradient id="paint32_linear" x1="352.672" y1="341.741" x2="350.766" y2="330.549" gradientUnits="userSpaceOnUse">
<stop stop-color="#EDA85A"/>
<stop offset="1" stop-color="#E9605A"/>
</linearGradient>
<linearGradient id="paint33_linear" x1="349.717" y1="323.978" x2="356.169" y2="355.924" gradientUnits="userSpaceOnUse">
<stop stop-color="#EDA85A"/>
<stop offset="1" stop-color="#E9605A"/>
</linearGradient>
<linearGradient id="paint34_linear" x1="334.842" y1="309.926" x2="334.651" y2="333.289" gradientUnits="userSpaceOnUse">
<stop stop-color="#EDA85A"/>
<stop offset="1" stop-color="#E9605A"/>
</linearGradient>
<linearGradient id="paint35_linear" x1="321.377" y1="326.18" x2="310.675" y2="265.441" gradientUnits="userSpaceOnUse">
<stop stop-color="#EDA85A"/>
<stop offset="1" stop-color="#FF928E"/>
</linearGradient>
<linearGradient id="paint36_linear" x1="338.072" y1="327.691" x2="340.313" y2="436.325" gradientUnits="userSpaceOnUse">
<stop stop-color="#EDA85A"/>
<stop offset="1" stop-color="#FE7062"/>
</linearGradient>
<linearGradient id="paint37_linear" x1="340.597" y1="340.81" x2="340.663" y2="377.227" gradientUnits="userSpaceOnUse">
<stop stop-color="#EDA85A"/>
<stop offset="1" stop-color="#E9605A"/>
</linearGradient>
<linearGradient id="paint38_linear" x1="334.507" y1="370.169" x2="347.652" y2="368.487" gradientUnits="userSpaceOnUse">
<stop stop-color="#EDA85A"/>
<stop offset="1" stop-color="#FE7062"/>
</linearGradient>
<linearGradient id="paint39_linear" x1="348.805" y1="302.859" x2="323.111" y2="352.239" gradientUnits="userSpaceOnUse">
<stop stop-color="#FEBBBA"/>
<stop offset="1" stop-color="#FF928E"/>
</linearGradient>
<linearGradient id="paint40_linear" x1="400.492" y1="158.697" x2="371.826" y2="215.185" gradientUnits="userSpaceOnUse">
<stop stop-color="#09005D"/>
<stop offset="1" stop-color="#1A0F91"/>
</linearGradient>
<linearGradient id="paint41_linear" x1="409.668" y1="187.546" x2="246.967" y2="371.441" gradientUnits="userSpaceOnUse">
<stop stop-color="#4042E2"/>
<stop offset="1" stop-color="#4F52FF"/>
</linearGradient>
<linearGradient id="paint42_linear" x1="108.112" y1="490.506" x2="130.201" y2="490.506" gradientUnits="userSpaceOnUse">
<stop stop-color="#09005D"/>
<stop offset="1" stop-color="#1A0F91"/>
</linearGradient>
<linearGradient id="paint43_linear" x1="163.41" y1="464.43" x2="83.0109" y2="527.52" gradientUnits="userSpaceOnUse">
<stop stop-color="#4042E2"/>
<stop offset="1" stop-color="#4F52FF"/>
</linearGradient>
<linearGradient id="paint44_linear" x1="114.257" y1="465.342" x2="110.032" y2="502.189" gradientUnits="userSpaceOnUse">
<stop stop-color="#A22B25"/>
<stop offset="1" stop-color="#C0423C"/>
</linearGradient>
<linearGradient id="paint45_linear" x1="177.688" y1="482.596" x2="97.2866" y2="545.686" gradientUnits="userSpaceOnUse">
<stop stop-color="#396CAA"/>
<stop offset="0.0375526" stop-color="#274190"/>
</linearGradient>
<linearGradient id="paint46_linear" x1="141.749" y1="491.067" x2="173.546" y2="491.067" gradientUnits="userSpaceOnUse">
<stop stop-color="#09005D"/>
<stop offset="1" stop-color="#1A0F91"/>
</linearGradient>
<linearGradient id="paint47_linear" x1="148.05" y1="469.234" x2="146.152" y2="506.274" gradientUnits="userSpaceOnUse">
<stop stop-color="#A22B25"/>
<stop offset="1" stop-color="#C0423C"/>
</linearGradient>
<linearGradient id="paint48_linear" x1="113.091" y1="507.478" x2="144.369" y2="278.725" gradientUnits="userSpaceOnUse">
<stop stop-color="#4F52FF"/>
<stop offset="1" stop-color="#274190"/>
</linearGradient>
<linearGradient id="paint49_linear" x1="559.818" y1="-280.506" x2="445.569" y2="-128.304" gradientUnits="userSpaceOnUse">
<stop stop-color="#FE7062"/>
<stop offset="1" stop-color="#EDA85A"/>
</linearGradient>
<linearGradient id="paint50_linear" x1="127.053" y1="255.808" x2="149.797" y2="204.668" gradientUnits="userSpaceOnUse">
<stop stop-color="#A22B25"/>
<stop offset="1" stop-color="#C0423C"/>
</linearGradient>
<linearGradient id="paint51_linear" x1="119.532" y1="175.726" x2="151.828" y2="224.944" gradientUnits="userSpaceOnUse">
<stop stop-color="#A22B25"/>
<stop offset="1" stop-color="#C0423C"/>
</linearGradient>
<linearGradient id="paint52_linear" x1="122.552" y1="184.336" x2="146.8" y2="212.717" gradientUnits="userSpaceOnUse">
<stop stop-color="#09005D"/>
<stop offset="1" stop-color="#1A0F91"/>
</linearGradient>
<linearGradient id="paint53_linear" x1="111.093" y1="181.262" x2="143.388" y2="230.481" gradientUnits="userSpaceOnUse">
<stop stop-color="#A22B25"/>
<stop offset="1" stop-color="#C0423C"/>
</linearGradient>
<linearGradient id="paint54_linear" x1="302.192" y1="113.631" x2="168.603" y2="249.15" gradientUnits="userSpaceOnUse">
<stop stop-color="#FE7062"/>
<stop offset="1" stop-color="#EDA85A"/>
</linearGradient>
<linearGradient id="paint55_linear" x1="221.661" y1="245.885" x2="160" y2="276.539" gradientUnits="userSpaceOnUse">
<stop stop-color="#A22B25"/>
<stop offset="1" stop-color="#C0423C"/>
</linearGradient>
<linearGradient id="paint56_linear" x1="220.758" y1="238.189" x2="199.658" y2="260.213" gradientUnits="userSpaceOnUse">
<stop stop-color="#A22B25"/>
<stop offset="1" stop-color="#C0423C"/>
</linearGradient>
<linearGradient id="paint57_linear" x1="221.955" y1="245.521" x2="160.293" y2="276.175" gradientUnits="userSpaceOnUse">
<stop stop-color="#A22B25"/>
<stop offset="1" stop-color="#C0423C"/>
</linearGradient>
<linearGradient id="paint58_linear" x1="247.716" y1="297.586" x2="68.8067" y2="265.256" gradientUnits="userSpaceOnUse">
<stop stop-color="#A22B25"/>
<stop offset="1" stop-color="#C0423C"/>
</linearGradient>
<linearGradient id="paint59_linear" x1="184.203" y1="161.183" x2="22.5136" y2="466.195" gradientUnits="userSpaceOnUse">
<stop stop-color="#EDA85A"/>
<stop offset="1" stop-color="#E9605A"/>
</linearGradient>
<linearGradient id="paint60_linear" x1="184.765" y1="161.482" x2="23.0756" y2="466.495" gradientUnits="userSpaceOnUse">
<stop stop-color="#EDA85A"/>
<stop offset="1" stop-color="#E9605A"/>
</linearGradient>
<clipPath id="clip0">
<rect width="501" height="501" fill="white"/>
</clipPath>
</defs>
</svg>
