<svg width="688" height="549" viewBox="0 0 688 549" fill="none" xmlns="http://www.w3.org/2000/svg">
<path d="M679.322 466.81C659.241 513.977 605.74 540.405 559.35 533.276C551.799 532.113 531.104 528.66 512.78 512.358C477.507 480.978 469.963 418.852 498.418 375.063C519.127 343.199 556.255 325.13 591.528 326.032C599.124 326.226 628.244 327.427 653.836 348.478C657.596 351.573 665.887 358.919 673.356 370.574C690.903 397.935 692.413 436.071 679.322 466.81Z" fill="white"/>
<g clip-path="url(#clip0)">
<path d="M24.3458 370.433C79.5973 499.205 225.477 554.497 339.782 545.078C370.983 542.497 433.778 537.315 482.805 491.107C576.96 402.355 562.462 216.833 472.326 107.608C460.724 93.5392 380.378 -0.689981 255.181 0.571136C163.509 1.49727 99.1766 53.1046 91.3567 59.5284C81.4686 67.6468 59.6831 86.9577 40.025 117.579C-6.12627 189.542 -10.184 289.978 24.3458 370.433Z" fill="white"/>
<path d="M136.562 82.1105C136.444 81.7164 136.109 81.4405 135.715 81.4208L124.291 80.7508C121.71 76.0611 118.362 71.7654 114.304 68.0411L116.353 56.7699C116.431 56.3758 116.234 55.9817 115.88 55.7847L103.884 49.0653C103.529 48.8682 103.096 48.9076 102.801 49.1835L94.252 56.7896C88.973 55.2526 83.5365 54.6418 78.1985 54.8782L71.6786 45.4593C71.4422 45.1243 71.0286 44.9863 70.6543 45.0849L57.4373 48.8091C57.0434 48.9273 56.7676 49.2623 56.7479 49.6564L56.0782 61.0853C51.3902 63.6666 47.0961 67.0165 43.3733 71.0757L32.1063 69.0461C31.7124 68.9673 31.3184 69.1643 31.1214 69.519L24.4046 81.4996C24.2076 81.8543 24.247 82.2878 24.5228 82.5834L32.126 91.1354C30.5896 96.4163 29.979 101.855 30.2153 107.195L20.7999 113.698C20.4651 113.934 20.3272 114.348 20.4257 114.722L24.1485 127.944C24.2667 128.338 24.6015 128.614 24.9955 128.634L36.4201 129.304C39.0004 133.994 42.349 138.289 46.4067 142.014L44.3582 153.285C44.2794 153.679 44.4763 154.073 44.8309 154.27L56.807 160.989C57.1615 161.186 57.5949 161.147 57.8904 160.871L66.4391 153.265C71.718 154.802 77.1545 155.413 82.4925 155.176L89.0124 164.595C89.2488 164.93 89.6624 165.068 90.0367 164.97L103.254 161.246C103.648 161.127 103.923 160.792 103.943 160.398L104.613 148.969C109.301 146.388 113.595 143.038 117.318 138.979L128.585 141.028C128.979 141.107 129.373 140.91 129.57 140.555L136.286 128.575C136.483 128.22 136.444 127.787 136.168 127.491L128.565 118.939C130.101 113.658 130.712 108.22 130.476 102.879L139.891 96.3572C140.226 96.1207 140.364 95.7069 140.265 95.3325L136.562 82.1105Z" fill="#91B3FA"/>
<path d="M90.3741 114.545C85.1345 120.063 76.3691 120.299 70.8538 115.058C68.175 112.516 66.6582 109.087 66.5598 105.402C66.4613 101.717 67.8007 98.2099 70.3417 95.53C75.5812 90.0126 84.3466 89.7762 89.8619 95.0177C94.8848 99.7863 95.5348 107.471 91.6741 112.969C91.2801 113.521 90.8468 114.033 90.3741 114.545ZM69.7705 105.323C69.8492 108.161 71.0114 110.782 73.0599 112.732C77.2949 116.752 84.0118 116.575 88.0301 112.338C92.0484 108.102 91.8711 101.382 87.6361 97.3626C83.4011 93.3428 76.6843 93.5201 72.666 97.7567C72.3114 98.1508 71.9766 98.5449 71.6811 98.9784C70.3811 100.811 69.7114 103.018 69.7705 105.323Z" fill="#BDD0FB"/>
<path d="M107.823 124.674C108.493 123.728 109.103 122.743 109.675 121.718C109.852 121.403 110.029 121.068 110.207 120.752C111.054 119.137 111.763 117.462 112.314 115.747C112.314 115.728 112.334 115.708 112.334 115.669C112.354 115.609 112.373 115.531 112.393 115.471C112.432 115.334 112.472 115.215 112.511 115.077C112.61 114.742 112.491 114.368 112.196 114.191C112.137 114.151 112.058 114.112 111.96 114.072C111.526 113.934 111.093 114.171 110.955 114.604C110.285 116.792 109.36 118.92 108.237 120.93C102.623 130.92 92.4591 136.792 81.783 137.383C75.8541 137.718 69.7479 136.418 64.1932 133.304C63.228 132.753 62.2825 132.162 61.3764 131.531C55.3096 127.255 50.917 121.087 48.8882 113.836C46.5442 105.52 47.5882 96.7912 51.8231 89.2442C60.5491 73.6773 80.3057 68.1402 95.8471 76.8695C96.8122 77.4015 97.738 77.9926 98.6244 78.6232C102.505 81.3425 105.735 84.8894 108.079 89.0077C108.138 89.1062 108.217 89.2048 108.316 89.2639C108.572 89.4412 108.907 89.4609 109.182 89.3033C109.576 89.0865 109.694 88.5939 109.478 88.1998C107.016 83.8844 103.608 80.1602 99.5502 77.303C98.6047 76.6527 97.6395 76.0221 96.635 75.4704C80.3057 66.3076 59.5642 72.1403 50.4049 88.456C45.973 96.3577 44.8699 105.54 47.3321 114.269C49.4594 121.876 54.0686 128.359 60.4309 132.832C61.3764 133.502 62.3613 134.112 63.3856 134.704C71.2843 139.137 80.4633 140.241 89.1893 137.777C96.8516 135.649 103.332 131.038 107.823 124.674Z" fill="#BDD0FB"/>
<path d="M212.24 38.1682C212.161 37.9121 211.944 37.7347 211.668 37.715L204.026 37.2618C202.292 34.1287 200.067 31.2518 197.348 28.7492L198.707 21.2022C198.747 20.9461 198.629 20.6702 198.392 20.5323L190.375 16.0395C190.139 15.9016 189.843 15.941 189.647 16.1184L183.934 21.2022C180.389 20.1776 176.764 19.7638 173.199 19.9214L168.826 13.6158C168.669 13.3991 168.393 13.3006 168.137 13.3597L159.293 15.8425C159.037 15.9213 158.859 16.1381 158.84 16.4139L158.387 24.0595C155.255 25.7935 152.379 28.0202 149.877 30.7394L142.333 29.3798C142.077 29.3404 141.801 29.4586 141.663 29.6951L137.172 37.715C137.034 37.9515 137.074 38.247 137.251 38.4441L142.333 44.1585C141.309 47.7054 140.895 51.3311 141.053 54.8977L134.75 59.2722C134.533 59.4299 134.434 59.7057 134.493 59.9619L136.975 68.8094C137.054 69.0656 137.271 69.243 137.547 69.2627L145.189 69.7159C146.923 72.849 149.148 75.7259 151.867 78.2284L150.508 85.7754C150.468 86.0316 150.586 86.3075 150.823 86.4454L158.84 90.9381C159.076 91.0761 159.371 91.0366 159.568 90.8593L165.281 85.7754C168.826 86.8001 172.451 87.2139 176.016 87.0562L180.389 93.3618C180.546 93.5786 180.822 93.6771 181.078 93.618L189.922 91.1352C190.178 91.0564 190.356 90.8396 190.375 90.5637L190.828 82.9182C193.96 81.1842 196.836 78.9575 199.338 76.2382L206.882 77.5979C207.138 77.6373 207.414 77.519 207.552 77.2826L212.043 69.2627C212.18 69.0262 212.141 68.7306 211.964 68.5336L206.882 62.8191C207.906 59.2722 208.32 55.6465 208.162 52.0799L214.465 47.7054C214.682 47.5478 214.781 47.2719 214.721 47.0158L212.24 38.1682Z" fill="#91B3FA"/>
<path d="M181.451 59.9812C179.717 61.8137 177.393 62.8384 174.872 62.9172C172.37 62.9763 169.967 62.0699 168.155 60.3359C164.393 56.7693 164.235 50.8184 167.8 47.035C171.366 43.2714 177.334 43.1137 181.096 46.6803C182.928 48.4144 183.952 50.7395 184.031 53.2618C184.09 55.3111 183.499 57.2619 182.337 58.8974C182.061 59.2718 181.766 59.6462 181.451 59.9812ZM169.869 58.523C171.208 59.8038 172.961 60.4738 174.813 60.4147C176.664 60.3753 178.378 59.6068 179.658 58.2668C180.919 56.9269 181.608 55.1732 181.549 53.3209C181.51 51.4686 180.742 49.7543 179.402 48.4735C176.625 45.8527 172.252 45.9709 169.613 48.7296C169.376 48.9858 169.16 49.242 168.963 49.5178C167.013 52.2962 167.347 56.1387 169.869 58.523Z" fill="#BDD0FB"/>
<path d="M193.586 67.0359C194.039 66.3856 194.452 65.7156 194.846 65.026C195.634 63.6269 196.265 62.1688 196.757 60.6515C196.777 60.5924 196.796 60.5135 196.816 60.4544C196.974 59.9224 196.777 59.3706 196.343 59.0751C196.245 58.9963 196.127 58.9371 195.989 58.8977C195.339 58.7007 194.63 59.0751 194.433 59.7253C193.999 61.1441 193.408 62.5234 192.68 63.824C192.64 63.9028 192.601 63.9619 192.561 64.0407C190.808 67.095 188.346 69.5975 185.431 71.4104C183.835 72.3956 182.102 73.1641 180.27 73.6962C180.251 73.6962 180.231 73.6962 180.231 73.7159C180.191 73.7356 180.132 73.7356 180.093 73.7553C174.716 75.2726 169.062 74.6026 164.177 71.8636C163.547 71.5089 162.936 71.1345 162.346 70.7207C158.406 67.962 155.57 63.9619 154.27 59.2721C152.753 53.8927 153.442 48.2373 156.18 43.3505C158.918 38.4834 163.389 34.9562 168.767 33.4389C174.144 31.9216 179.797 32.5916 184.682 35.3306C185.313 35.6853 185.904 36.0597 186.475 36.4735C188.977 38.2272 191.084 40.5327 192.601 43.1929C192.699 43.3505 192.818 43.4884 192.975 43.587C193.349 43.8628 193.881 43.9023 194.315 43.6461C194.905 43.3111 195.122 42.5426 194.768 41.9515C193.074 38.976 190.73 36.4144 187.913 34.4242C187.263 33.9709 186.593 33.5374 185.904 33.163C180.448 30.0891 174.125 29.3403 168.097 31.0349C162.07 32.7295 157.067 36.6508 154.013 42.1288C150.941 47.5871 150.192 53.9124 151.886 59.9421C153.363 65.1836 156.535 69.6566 160.927 72.7503C161.577 73.2035 162.267 73.637 162.976 74.0311C173.534 79.9032 186.77 76.7307 193.586 67.0359Z" fill="#BDD0FB"/>
<path d="M381.505 41.459V536.073C381.505 539.344 380.186 542.3 377.94 544.113C376.226 545.492 374.079 546.379 371.696 546.281L366.279 546.083C360.803 545.886 355.879 540.862 355.879 535.147V42.3063L381.505 41.459Z" fill="url(#paint0_linear)"/>
<path d="M391.806 23.7243C391.806 32.0792 387.571 39.5474 381.189 43.9416C377.604 46.4244 373.33 47.922 368.76 48.0599C366.495 48.119 364.288 47.8628 362.22 47.2914C360.664 46.8579 359.187 46.2667 357.769 45.5377C357.414 45.3406 357.059 45.1436 356.725 44.9465C350.185 41.0055 345.852 33.7344 345.852 25.3007C345.852 12.3348 356.094 1.43795 368.76 0.984733C381.465 0.452699 391.806 10.6599 391.806 23.7243Z" fill="url(#paint1_linear)"/>
<path d="M381.247 22.8576C381.247 29.3405 377.957 35.1535 372.994 38.5821C370.197 40.5132 366.887 41.6758 363.322 41.7743C361.549 41.8334 359.855 41.6167 358.24 41.1832C357.039 40.8482 355.877 40.395 354.793 39.8235C354.517 39.6659 354.242 39.528 353.966 39.3506C348.884 36.2963 345.516 30.641 345.516 24.0793C345.516 13.9903 353.473 5.53689 363.322 5.16249C373.21 4.7684 381.247 12.7095 381.247 22.8576Z" fill="url(#paint2_linear)"/>
<path d="M196.229 59.1341L198.199 60.1587L235.486 37.2812L418.102 64.2967L443.649 67.2131L442.133 71.9817C441.936 72.494 412.862 93.6768 412.862 93.6768L435.475 123.372L434.392 126.426C434.254 126.781 433.899 127.018 433.545 126.959L410.065 123.313L227.351 94.9971C226.839 94.9183 226.366 94.6621 226.012 94.2877L196.623 63.5283C196.229 63.1342 196.032 62.5627 196.071 61.9913L196.229 59.1341Z" fill="url(#paint3_linear)"/>
<path d="M237.536 35.2714L443.631 67.2131C443.828 67.2525 443.887 67.5087 443.71 67.6269L414.696 88.8689C414.302 89.1645 414.203 89.7162 414.459 90.13L435.221 122.958C435.319 123.116 435.181 123.333 435.004 123.313L228.771 91.3517C228.18 91.2532 227.648 90.9773 227.215 90.5438L196.487 59.41C196.349 59.272 196.388 59.0553 196.546 58.9568L235.685 35.6458C236.256 35.3108 236.906 35.1729 237.536 35.2714Z" fill="url(#paint4_linear)"/>
<path d="M214.152 251.947L216.24 252.459L246.2 222.251L424.778 205.896L448.612 202.921C449.104 202.862 449.538 203.256 449.518 203.749L449.321 207.65C449.242 208.182 426.59 234.922 426.59 234.922L454.757 257.839L454.423 260.972C454.383 261.346 454.107 261.642 453.753 261.661L430.746 263.612L251.775 278.765C251.282 278.805 250.77 278.687 250.337 278.411L215.551 256.026C215.098 255.73 214.783 255.257 214.684 254.706L214.152 251.947Z" fill="#7D97F4"/>
<path d="M247.678 219.867L448.947 202.823C449.361 202.783 449.617 203.276 449.341 203.591L427.181 229.937C426.886 230.291 426.905 230.863 427.24 231.198L454.383 257.504C454.521 257.642 454.443 257.858 454.246 257.878L252.248 274.982C251.676 275.022 251.085 274.884 250.593 274.588L214.448 252.164C214.29 252.065 214.271 251.848 214.409 251.73L246.003 220.675C246.476 220.183 247.047 219.907 247.678 219.867Z" fill="#91B3FA"/>
<path opacity="0.56" d="M367.222 232.597L255.045 241.366C254.631 241.405 254.257 241.09 254.237 240.676L253.824 235.514C253.784 235.1 254.099 234.725 254.513 234.706L366.69 225.937C367.104 225.898 367.478 226.213 367.498 226.627L367.912 231.789C367.951 232.183 367.636 232.558 367.222 232.597Z" fill="white"/>
<path opacity="0.56" d="M367.3 250.293L256.009 259.002C255.596 259.042 255.222 258.726 255.202 258.312L254.828 253.485C254.788 253.071 255.103 252.697 255.517 252.677L366.808 243.967C367.222 243.928 367.596 244.243 367.616 244.657L367.99 249.485C368.029 249.898 367.714 250.273 367.3 250.293Z" fill="white"/>
<path d="M539.045 151.019L536.878 151.886L499.295 127.53L303.66 142.545L276.418 144.102L277.521 148.358C277.698 148.871 306.752 171.236 306.752 171.236L280.338 198.547L281.244 201.562C281.342 201.917 281.717 202.153 282.091 202.114L307.264 200.025L503.117 183.749C503.668 183.709 504.18 183.492 504.594 183.138L538.277 155.196C538.71 154.822 538.986 154.309 538.986 153.738L539.045 151.019Z" fill="url(#paint5_linear)"/>
<path d="M497.267 125.481L276.812 143.806C276.458 143.846 276.32 144.299 276.595 144.516L305.216 166.507C305.61 166.802 305.669 167.354 305.354 167.748L280.633 198.172C280.515 198.33 280.633 198.547 280.83 198.527L501.896 180.162C502.526 180.103 503.117 179.866 503.609 179.492L538.75 151.275C538.888 151.156 538.888 150.94 538.73 150.841L499.217 125.973C498.645 125.579 497.956 125.422 497.267 125.481Z" fill="url(#paint6_linear)"/>
<path opacity="0.56" d="M494.216 146.959L384.639 155.531C384.225 155.571 383.851 155.255 383.831 154.841L383.417 149.462C383.378 149.048 383.693 148.674 384.107 148.654L493.684 140.082C494.098 140.043 494.472 140.358 494.492 140.772L494.905 146.152C494.945 146.565 494.63 146.92 494.216 146.959Z" fill="white"/>
<path opacity="0.56" d="M494.353 165.206L385.662 173.699C385.248 173.739 384.874 173.423 384.854 173.01L384.46 167.985C384.421 167.571 384.736 167.197 385.15 167.177L493.841 158.684C494.254 158.645 494.629 158.96 494.648 159.374L495.042 164.398C495.082 164.812 494.766 165.187 494.353 165.206Z" fill="white"/>
<path d="M368.64 93.1838C372.959 93.1838 376.46 89.6814 376.46 85.361C376.46 81.0405 372.959 77.5381 368.64 77.5381C364.321 77.5381 360.82 81.0405 360.82 85.361C360.82 89.6814 364.321 93.1838 368.64 93.1838Z" fill="url(#paint7_linear)"/>
<path d="M369.173 88.908C371.828 88.908 373.98 86.7554 373.98 84.1C373.98 81.4446 371.828 79.292 369.173 79.292C366.519 79.292 364.367 81.4446 364.367 84.1C364.367 86.7554 366.519 88.908 369.173 88.908Z" fill="url(#paint8_linear)"/>
<path d="M367.4 172.438C371.566 172.438 374.944 169.059 374.944 164.891C374.944 160.723 371.566 157.344 367.4 157.344C363.233 157.344 359.855 160.723 359.855 164.891C359.855 169.059 363.233 172.438 367.4 172.438Z" fill="url(#paint9_linear)"/>
<path d="M367.914 168.32C370.471 168.32 372.543 166.247 372.543 163.689C372.543 161.132 370.471 159.059 367.914 159.059C365.358 159.059 363.285 161.132 363.285 163.689C363.285 166.247 365.358 168.32 367.914 168.32Z" fill="url(#paint10_linear)"/>
<path d="M367.855 244.065C372.185 244.065 375.695 240.554 375.695 236.222C375.695 231.891 372.185 228.38 367.855 228.38C363.526 228.38 360.016 231.891 360.016 236.222C360.016 240.554 363.526 244.065 367.855 244.065Z" fill="url(#paint11_linear)"/>
<path d="M368.408 239.769C371.062 239.769 373.214 237.617 373.214 234.961C373.214 232.306 371.062 230.153 368.408 230.153C365.753 230.153 363.602 232.306 363.602 234.961C363.602 237.617 365.753 239.769 368.408 239.769Z" fill="url(#paint12_linear)"/>
<path opacity="0.56" d="M345.203 72.9667L244.943 57.1436C244.529 57.0845 244.254 56.6904 244.313 56.2766L245.081 51.4686C245.14 51.0548 245.534 50.7789 245.948 50.838L346.208 66.6611C346.622 66.7202 346.897 67.1143 346.838 67.5281L346.07 72.3362C346.011 72.75 345.617 73.0455 345.203 72.9667Z" fill="white"/>
<path opacity="0.56" d="M341.419 89.4199L241.947 73.7151C241.533 73.656 241.257 73.2619 241.317 72.8481L242.026 68.3553C242.085 67.9415 242.479 67.6656 242.892 67.7248L342.365 83.4296C342.778 83.4887 343.054 83.8828 342.995 84.2966L342.286 88.7894C342.207 89.2032 341.833 89.4987 341.419 89.4199Z" fill="white"/>
<path d="M200.561 295.988C138.495 294.373 69.8291 311.043 69.8291 311.043C53.4801 401.272 60.6697 503.344 63.4668 534.261C63.9789 540.054 68.3123 544.744 74.0246 545.808C106.092 551.7 139.933 548.133 156.931 545.532C163.55 544.527 168.848 539.522 170.247 532.98C181.494 480.624 213.621 365.113 213.621 365.113C243.994 361.645 269.05 353.113 289.752 341.743C274.23 323.398 267.06 300.166 263.968 286.451C241.946 293.072 219.707 296.501 200.561 295.988Z" fill="url(#paint13_linear)"/>
<path d="M384.793 206.272C378.766 198.843 373.113 199.158 373.113 199.158C363.618 237.681 313.311 271.613 263.969 286.431C267.061 300.146 274.231 323.378 289.753 341.724C371.852 296.599 384.793 206.272 384.793 206.272Z" fill="url(#paint14_linear)"/>
<path d="M383.292 208.143C383.903 210.173 376.497 213.207 372.222 204.852C372.104 200.872 369.859 183.808 372.262 180.596C385.085 163.452 409.825 142.053 409.825 142.053C413.942 146.191 410.475 150.171 410.475 150.171L398.46 162.467C400.902 166.999 403.916 170.822 405.275 176.28C406.319 180.418 405.61 184.812 403.502 188.537C401.375 192.281 398.479 197.148 395.741 200.951C390.561 208.143 383.292 208.143 383.292 208.143Z" fill="url(#paint15_linear)"/>
<path d="M393.18 170.467L382.248 179.57L378.762 188.694L388.335 199.512C388.335 199.512 391.762 181.364 394.205 177.462C396.647 173.541 395.406 171.629 393.18 170.467Z" fill="url(#paint16_linear)"/>
<path d="M93.0702 371.419L69.8271 311.062C69.8271 311.062 11.4634 349.921 1.45703 399.794C12.4088 400.7 32.323 403.755 51.7448 413.785C56.2555 390.237 93.0702 371.419 93.0702 371.419Z" fill="url(#paint17_linear)"/>
<path d="M143.201 428.484C143.201 428.484 77.7461 464.663 56.0788 433.036C51.5878 426.474 50.5438 419.972 51.7256 413.804C32.3039 403.754 12.3897 400.72 1.43787 399.813C-1.57585 414.848 -0.216718 430.888 8.48958 447.164C46.2891 517.945 151.651 444.642 151.651 444.642L143.201 428.484Z" fill="url(#paint18_linear)"/>
<path d="M138.156 244.972L117.868 301.919C117.533 302.865 117.907 303.909 118.774 304.402C124.132 307.436 143.455 316.225 166.974 301.623C169.416 300.106 171.11 297.604 171.504 294.746L178.378 245.346L138.156 244.972Z" fill="url(#paint19_linear)"/>
<path d="M181.632 192.478C181.632 192.478 202.925 233.523 199.99 249.996C197.055 266.47 170.187 265.031 146.846 251.395L130.871 207.138L181.632 192.478Z" fill="url(#paint20_linear)"/>
<path d="M148.087 229.759C149.052 229.346 149.407 228.183 148.836 227.296C147.122 224.616 143.911 219.178 142.926 214.429C142.926 214.429 139.046 211.887 152.913 208.714C166.76 205.542 187.423 200.596 191.875 188.872C196.208 177.443 185.374 148.476 167.45 171.295C166.76 172.162 165.441 172.162 164.791 171.295C161.915 167.492 154.371 159.57 143.734 164.221C133.767 168.575 132.585 175.827 132.684 179.492C132.723 180.576 131.738 181.403 130.694 181.187C125.691 180.182 113.675 179.255 107.924 191.532C103.196 201.66 106.151 207.434 108.869 210.291C109.756 211.217 109.342 212.715 108.121 213.069C104.812 214.054 100.537 216.793 100.892 224.538C101.384 235.218 113.321 234.39 116.729 233.937C117.28 233.858 117.851 234.055 118.226 234.489C121.101 237.74 134.102 251.553 148.284 253.346C149.505 253.504 150.47 252.302 150.076 251.12L144.108 233.188C143.832 232.36 144.246 231.454 145.034 231.099L148.087 229.759Z" fill="url(#paint21_linear)"/>
<path d="M150.55 232.321C150.55 232.321 135.206 221.582 133.984 230.489C132.763 239.395 147.773 243.553 155.238 240.302L150.55 232.321Z" fill="url(#paint22_linear)"/>
<path d="M129.829 485.668L165.481 361.113C165.895 359.694 167.096 358.669 168.554 358.492C175.015 357.743 193.727 355.615 215.336 353.782C241.376 351.575 271.592 349.802 289.674 351.319C292.235 351.536 293.791 354.255 292.648 356.561C282.366 377.35 240.115 461.923 218.96 489.628C218.251 490.555 217.167 491.087 216.025 491.067L133.295 490.298C130.892 490.298 129.159 487.993 129.829 485.668Z" fill="url(#paint23_linear)"/>
<path d="M138.437 455.578C138.437 455.578 133.474 435.144 135.483 427.892C137.492 420.641 141.372 411.321 154.314 413.39C167.255 415.459 182.52 420.917 182.52 420.917C182.52 420.917 181.752 430.356 171.923 427.321L178.029 432.05C178.029 432.05 177.163 439.617 168.85 435.577L174.523 441.844C174.523 441.844 170.958 448.051 164.852 444.07C158.706 440.07 155.771 458.041 138.437 455.578Z" fill="url(#paint24_linear)"/>
<path d="M212.973 390.985C212.973 396.758 217.661 401.448 223.432 401.448C229.203 401.448 233.891 396.758 233.891 390.985C233.891 385.211 229.203 380.522 223.432 380.522C217.641 380.502 212.973 385.192 212.973 390.985Z" fill="#91B3FA"/>
<path d="M169.519 397.882L176.787 373.251C177.673 370.216 180.116 367.95 183.13 367.32C205.88 362.571 268.164 361.566 268.794 361.546L268.755 358.768C266.194 358.807 205.585 359.792 182.578 364.6C178.56 365.448 175.31 368.462 174.128 372.463L166.859 397.094L169.519 397.882Z" fill="#BDD0FB"/>
<path d="M378.803 545.532C378.074 545.414 377.424 545 376.991 544.389C370.806 535.463 325.994 465.786 390.523 405.449C451.782 348.187 479.083 336.896 483.771 302.235C484.323 298.195 489.838 297.387 491.532 301.111C504.158 328.895 523.127 393.39 452.235 433.076C374.036 476.84 378.704 527.699 381.955 542.221C382.368 544.113 380.733 545.867 378.803 545.532Z" fill="#91B3FA"/>
<path d="M388.277 547.128C386.544 546.832 385.204 545.453 384.988 543.699C383.53 531.777 380.457 487.323 413.451 476.623C449.793 464.84 477.724 499.225 504.965 473.884C506.403 472.544 508.688 473.825 508.294 475.736C505.497 489.353 494.033 520.703 447.252 525.59C397.181 530.812 391.389 536.369 392.177 543.482C392.414 545.689 390.444 547.502 388.277 547.128Z" fill="#91B3FA"/>
<path opacity="0.47" d="M480.52 337.507C479.771 339.99 478.826 342.354 477.723 344.679C476.639 347.005 475.438 349.251 474.157 351.478C472.877 353.685 471.498 355.852 470.001 357.941C468.524 360.03 466.987 362.079 465.333 364.049C458.793 371.951 451.052 378.828 442.602 384.621C438.387 387.518 433.915 390.119 429.464 392.523C425.071 394.888 420.816 397.567 416.739 400.464C408.604 406.277 401.119 413.056 394.54 420.622C387.961 428.169 382.328 436.544 377.856 445.49C373.365 454.436 370.135 464.013 368.382 473.885C366.629 483.757 366.373 493.866 367.515 503.856C368.638 513.846 371.238 523.66 374.803 533.098C374.902 533.374 374.764 533.67 374.508 533.768C374.252 533.867 373.956 533.748 373.838 533.473C369.938 524.093 367.101 514.201 365.723 504.073C365.013 499.009 364.698 493.885 364.738 488.782C364.816 483.658 365.23 478.555 366.077 473.491C367.732 463.382 370.903 453.51 375.394 444.288C379.865 435.046 385.656 426.494 392.334 418.731C399.031 410.967 406.634 404.011 414.947 398.021C419.103 395.026 423.436 392.267 427.947 389.823L431.276 388.011C432.379 387.419 433.462 386.789 434.526 386.158L436.141 385.212L437.737 384.208L439.332 383.203L440.888 382.158C445.025 379.36 449.043 376.345 452.805 373.055C456.587 369.764 460.172 366.276 463.462 362.493C466.791 358.749 469.824 354.749 472.582 350.551C475.3 346.354 477.762 341.901 479.574 337.27L479.594 337.231C479.692 336.994 479.968 336.856 480.205 336.955C480.461 337.014 480.598 337.27 480.52 337.507Z" fill="white"/>
<path opacity="0.47" d="M386.762 539.009C386.841 538.595 386.821 538.181 386.821 537.787V536.566C386.821 535.758 386.86 534.95 386.88 534.122C386.939 532.506 387.037 530.871 387.156 529.255C387.412 526.024 387.806 522.792 388.357 519.58C389.48 513.176 391.154 506.831 393.971 500.9C395.37 497.944 397.083 495.126 399.151 492.564C401.22 490.003 403.702 487.756 406.518 486.022C409.335 484.308 412.506 483.126 415.756 482.574C417.391 482.298 419.026 482.141 420.681 482.121C422.335 482.081 423.97 482.2 425.605 482.397C427.24 482.594 428.836 482.889 430.431 483.145L435.218 483.993C438.409 484.564 441.6 485.195 444.771 485.825C451.133 487.086 457.456 488.466 463.818 489.648C466.99 490.22 470.181 490.752 473.391 491.067C476.582 491.382 479.813 491.5 482.984 491.126C486.155 490.791 489.248 489.885 492.045 488.367C494.842 486.87 497.324 484.781 499.53 482.456C499.688 482.278 499.963 482.278 500.141 482.436C500.318 482.594 500.318 482.87 500.16 483.027C497.935 485.431 495.413 487.599 492.518 489.195C489.622 490.811 486.392 491.776 483.122 492.17C479.852 492.564 476.543 492.446 473.313 492.131C470.063 491.816 466.852 491.303 463.661 490.732C457.279 489.569 450.936 488.21 444.574 486.968C438.231 485.727 431.83 484.525 425.487 483.579C423.911 483.382 422.316 483.264 420.72 483.283C419.125 483.283 417.549 483.421 415.973 483.678C412.841 484.19 409.808 485.293 407.09 486.929C404.371 488.584 401.968 490.712 399.959 493.195C397.93 495.658 396.256 498.417 394.857 501.294C392.041 507.087 390.307 513.353 389.145 519.698C388.574 522.871 388.141 526.083 387.845 529.295C387.707 530.91 387.589 532.526 387.51 534.122C387.471 534.93 387.451 535.738 387.431 536.546L387.412 537.748C387.412 538.142 387.392 538.556 387.491 538.95C387.55 539.147 387.412 539.344 387.215 539.403C387.018 539.462 386.821 539.324 386.762 539.127C386.762 539.127 386.762 539.068 386.762 539.009Z" fill="white"/>
</g>
<defs>
<linearGradient id="paint0_linear" x1="355.871" y1="293.879" x2="381.503" y2="293.879" gradientUnits="userSpaceOnUse">
<stop stop-color="#EDA85A"/>
<stop offset="1" stop-color="#FF928E"/>
</linearGradient>
<linearGradient id="paint1_linear" x1="341.71" y1="-20.9318" x2="398.381" y2="73.8943" gradientUnits="userSpaceOnUse">
<stop stop-color="#EDA85A"/>
<stop offset="1" stop-color="#E9605A"/>
</linearGradient>
<linearGradient id="paint2_linear" x1="342.3" y1="-11.8524" x2="386.36" y2="61.8723" gradientUnits="userSpaceOnUse">
<stop stop-color="#EDA85A"/>
<stop offset="1" stop-color="#FF928E"/>
</linearGradient>
<linearGradient id="paint3_linear" x1="330.909" y1="-16.5822" x2="307.85" y2="152.848" gradientUnits="userSpaceOnUse">
<stop stop-color="#EDA85A"/>
<stop offset="1" stop-color="#E9605A"/>
</linearGradient>
<linearGradient id="paint4_linear" x1="322.325" y1="34.8305" x2="312.224" y2="178.609" gradientUnits="userSpaceOnUse">
<stop stop-color="#EDA85A"/>
<stop offset="1" stop-color="#FF928E"/>
</linearGradient>
<linearGradient id="paint5_linear" x1="404.874" y1="-175.018" x2="406.195" y2="-25.8386" gradientUnits="userSpaceOnUse">
<stop stop-color="#4F52FF"/>
<stop offset="1" stop-color="#4042E2"/>
</linearGradient>
<linearGradient id="paint6_linear" x1="541.104" y1="44.9193" x2="785.312" y2="-143.776" gradientUnits="userSpaceOnUse">
<stop stop-color="#7D97F4"/>
<stop offset="1" stop-color="#4042E2"/>
</linearGradient>
<linearGradient id="paint7_linear" x1="373.603" y1="62.4583" x2="350.817" y2="167.449" gradientUnits="userSpaceOnUse">
<stop stop-color="#EDA85A"/>
<stop offset="1" stop-color="#E9605A"/>
</linearGradient>
<linearGradient id="paint8_linear" x1="368.78" y1="66.1834" x2="369.288" y2="89.2882" gradientUnits="userSpaceOnUse">
<stop stop-color="#EDA85A"/>
<stop offset="1" stop-color="#E9605A"/>
</linearGradient>
<linearGradient id="paint9_linear" x1="372.181" y1="142.833" x2="350.234" y2="243.959" gradientUnits="userSpaceOnUse">
<stop stop-color="#EDA85A"/>
<stop offset="1" stop-color="#E9605A"/>
</linearGradient>
<linearGradient id="paint10_linear" x1="367.537" y1="146.421" x2="368.025" y2="168.676" gradientUnits="userSpaceOnUse">
<stop stop-color="#EDA85A"/>
<stop offset="1" stop-color="#E9605A"/>
</linearGradient>
<linearGradient id="paint11_linear" x1="372.833" y1="213.31" x2="350.033" y2="318.363" gradientUnits="userSpaceOnUse">
<stop stop-color="#E1473D"/>
<stop offset="1" stop-color="#E9605A"/>
</linearGradient>
<linearGradient id="paint12_linear" x1="368.006" y1="217.037" x2="368.514" y2="240.155" gradientUnits="userSpaceOnUse">
<stop stop-color="#E1473D"/>
<stop offset="1" stop-color="#E9605A"/>
</linearGradient>
<linearGradient id="paint13_linear" x1="137.412" y1="287.426" x2="279.759" y2="835.251" gradientUnits="userSpaceOnUse">
<stop stop-color="#4F52FF"/>
<stop offset="1" stop-color="#4042E2"/>
</linearGradient>
<linearGradient id="paint14_linear" x1="264.119" y1="269.819" x2="384.184" y2="270.959" gradientUnits="userSpaceOnUse">
<stop stop-color="#FEBBBA"/>
<stop offset="1" stop-color="#FF928E"/>
</linearGradient>
<linearGradient id="paint15_linear" x1="357.616" y1="251.72" x2="275.258" y2="434.303" gradientUnits="userSpaceOnUse">
<stop stop-color="#FEBBBA"/>
<stop offset="1" stop-color="#FF928E"/>
</linearGradient>
<linearGradient id="paint16_linear" x1="384.365" y1="190.899" x2="418.491" y2="139.524" gradientUnits="userSpaceOnUse">
<stop stop-color="#FEBBBA"/>
<stop offset="1" stop-color="#FF928E"/>
</linearGradient>
<linearGradient id="paint17_linear" x1="29.1087" y1="315.7" x2="168.322" y2="851.467" gradientUnits="userSpaceOnUse">
<stop stop-color="#4F52FF"/>
<stop offset="1" stop-color="#4042E2"/>
</linearGradient>
<linearGradient id="paint18_linear" x1="-0.23551" y1="438.583" x2="151.703" y2="440.026" gradientUnits="userSpaceOnUse">
<stop stop-color="#FEBBBA"/>
<stop offset="1" stop-color="#FF928E"/>
</linearGradient>
<linearGradient id="paint19_linear" x1="117.978" y1="277.202" x2="178.052" y2="277.773" gradientUnits="userSpaceOnUse">
<stop stop-color="#FEBBBA"/>
<stop offset="1" stop-color="#FF928E"/>
</linearGradient>
<linearGradient id="paint20_linear" x1="192.707" y1="239.678" x2="127.026" y2="198.773" gradientUnits="userSpaceOnUse">
<stop stop-color="#FEBBBA"/>
<stop offset="1" stop-color="#FF928E"/>
</linearGradient>
<linearGradient id="paint21_linear" x1="92.4825" y1="155.937" x2="177.195" y2="224.135" gradientUnits="userSpaceOnUse">
<stop stop-color="#09005D"/>
<stop offset="1" stop-color="#1A0F91"/>
</linearGradient>
<linearGradient id="paint22_linear" x1="175.217" y1="254.542" x2="116.123" y2="217.739" gradientUnits="userSpaceOnUse">
<stop stop-color="#FEBBBA"/>
<stop offset="1" stop-color="#FF928E"/>
</linearGradient>
<linearGradient id="paint23_linear" x1="192.447" y1="342.005" x2="276.346" y2="691.454" gradientUnits="userSpaceOnUse">
<stop stop-color="#09005D"/>
<stop offset="1" stop-color="#1A0F91"/>
</linearGradient>
<linearGradient id="paint24_linear" x1="134.999" y1="434.456" x2="182.5" y2="434.456" gradientUnits="userSpaceOnUse">
<stop stop-color="#FEBBBA"/>
<stop offset="1" stop-color="#FF928E"/>
</linearGradient>
<clipPath id="clip0">
<rect width="547" height="549" fill="white"/>
</clipPath>
</defs>
</svg>
