<svg width="732" height="544" viewBox="0 0 732 544" fill="none" xmlns="http://www.w3.org/2000/svg">
<path d="M277.843 449.27C249.71 515.349 174.757 552.374 109.766 542.386C99.1867 540.757 70.1944 535.92 44.5225 513.082C-4.89423 469.119 -15.4626 382.083 24.4018 320.736C53.415 276.095 105.429 250.781 154.846 252.045C165.488 252.317 206.284 253.999 242.137 283.492C247.405 287.827 259.021 298.118 269.485 314.447C294.067 352.778 296.183 406.206 277.843 449.27Z" fill="white"/>
<path d="M710.756 330.828C661.483 445.996 531.431 495.467 429.517 487.031C401.701 484.72 345.711 480.099 302.008 438.76C218.059 359.379 230.991 193.451 311.358 95.7458C321.71 83.1722 393.336 -1.11717 504.958 0.0112256C586.686 0.835134 644.037 47.0098 651.023 52.7593C659.835 60.0312 679.268 77.2974 696.785 104.683C737.927 169.02 741.545 258.862 710.756 330.828Z" fill="white"/>
<path d="M605.082 123.257C605.314 123.544 605.726 123.669 606.085 123.526L616.24 119.801C620.234 122.881 624.766 125.353 629.674 127.037L632.145 137.568C632.235 137.944 632.539 138.213 632.915 138.249L645.829 139.556C646.205 139.592 646.564 139.395 646.725 139.037L651.256 129.222C656.415 128.559 661.34 127.037 665.872 124.834L675.078 130.529C675.4 130.726 675.812 130.708 676.099 130.458L686.147 122.254C686.434 122.022 686.559 121.61 686.416 121.251L682.69 111.096C685.771 107.102 688.243 102.57 689.926 97.6625L700.458 95.1908C700.834 95.1012 701.103 94.7967 701.139 94.4206L702.446 81.5067C702.482 81.1306 702.285 80.7724 701.927 80.6112L692.111 76.0797C691.449 70.9213 689.926 65.9958 687.723 61.4643L693.419 52.258C693.616 51.9356 693.598 51.5236 693.347 51.2371L685.144 41.189C684.911 40.9024 684.499 40.777 684.141 40.9203L673.985 44.6458C669.991 41.5651 665.46 39.0934 660.552 37.4097L658.08 26.878C657.991 26.5019 657.686 26.2332 657.31 26.1974L644.396 24.8899C644.02 24.8541 643.662 25.0511 643.501 25.4093L638.969 35.2246C633.811 35.8873 628.885 37.4097 624.354 39.6128L615.148 33.9171C614.825 33.7201 614.413 33.738 614.127 33.9887L604.079 42.192C603.792 42.4248 603.667 42.8368 603.81 43.195L607.535 53.3506C604.455 57.3447 601.983 61.8762 600.299 66.7839L589.768 69.2556C589.392 69.3451 589.123 69.6496 589.087 70.0258L587.78 82.9396C587.744 83.3158 587.941 83.674 588.299 83.8352L598.114 88.3667C598.777 93.5251 600.299 98.4506 602.502 102.982L596.807 112.188C596.61 112.511 596.628 112.923 596.878 113.209L605.082 123.257Z" fill="#91B3FA"/>
<path d="M645.112 95.245C638.753 95.245 633.165 90.5702 632.216 84.1043C631.159 76.9936 636.102 70.3486 643.213 69.2918C646.652 68.7903 650.091 69.6501 652.903 71.7277C655.697 73.8054 657.524 76.8503 658.025 80.2892C659.082 87.3999 654.139 94.0449 647.028 95.1017C646.383 95.2091 645.738 95.245 645.112 95.245ZM645.147 72.2113C644.664 72.2113 644.162 72.2472 643.661 72.3188C638.198 73.1248 634.419 78.2115 635.225 83.6744C636.031 89.1373 641.117 92.9165 646.58 92.1105C652.043 91.3045 655.822 86.2178 655.016 80.7549C654.622 78.1041 653.225 75.7756 651.094 74.1815C649.339 72.8919 647.279 72.2113 645.147 72.2113Z" fill="#BDD0FB"/>
<path d="M645.382 114.087C644.29 114.087 643.197 114.034 642.086 113.926C641.746 113.89 641.388 113.855 641.048 113.801C639.346 113.568 637.662 113.21 636.033 112.708C636.015 112.708 635.997 112.69 635.961 112.69C635.889 112.672 635.836 112.654 635.764 112.637C635.639 112.601 635.513 112.565 635.388 112.511C635.065 112.404 634.868 112.117 634.868 111.795C634.868 111.723 634.886 111.634 634.904 111.562C635.03 111.168 635.459 110.953 635.853 111.078C637.913 111.741 640.045 112.189 642.212 112.404C652.976 113.496 663.025 108.822 669.293 100.905C672.768 96.4987 675.079 91.0896 675.688 85.0894C675.795 84.0326 675.849 82.9938 675.849 81.9549C675.849 74.9517 673.449 68.1992 668.971 62.7005C663.813 56.3779 656.505 52.4375 648.373 51.6136C631.609 49.912 616.599 62.1632 614.898 78.928C614.79 79.9668 614.736 80.9877 614.736 82.0266C614.736 86.5043 615.721 90.9105 617.62 94.9763C617.674 95.0837 617.692 95.1912 617.692 95.2987C617.692 95.5853 617.53 95.8539 617.262 95.9793C616.886 96.1584 616.42 95.9972 616.241 95.6211C614.235 91.3761 613.214 86.7193 613.214 82.0266C613.214 80.9519 613.268 79.8593 613.375 78.7668C615.148 61.1781 630.928 48.318 648.517 50.0912C657.042 50.9509 664.708 55.0883 670.135 61.7154C674.846 67.5007 677.353 74.5756 677.371 81.9191C677.371 83.0117 677.318 84.1043 677.21 85.2147C676.35 93.7404 672.213 101.406 665.586 106.833C659.818 111.58 652.744 114.087 645.382 114.087Z" fill="#BDD0FB"/>
<path d="M527.33 154.566C527.491 154.763 527.76 154.834 527.993 154.745L534.781 152.255C537.468 154.315 540.495 155.963 543.772 157.091L545.438 164.13C545.492 164.381 545.707 164.56 545.958 164.578L554.591 165.456C554.841 165.473 555.092 165.348 555.182 165.115L558.209 158.542C561.666 158.094 564.961 157.091 567.988 155.604L574.15 159.42C574.364 159.545 574.633 159.527 574.83 159.366L581.565 153.885C581.762 153.724 581.833 153.455 581.744 153.222L579.254 146.434C581.314 143.747 582.962 140.72 584.09 137.443L591.129 135.777C591.38 135.723 591.559 135.508 591.577 135.258L592.455 126.624C592.473 126.374 592.347 126.123 592.114 126.033L585.541 123.006C585.093 119.55 584.09 116.254 582.604 113.227L586.419 107.066C586.544 106.851 586.526 106.582 586.365 106.385L580.884 99.6504C580.723 99.4534 580.454 99.3817 580.221 99.4713L573.433 101.961C570.746 99.9011 567.719 98.2533 564.442 97.1249L562.776 90.0859C562.722 89.8351 562.507 89.656 562.257 89.6381L553.623 88.7605C553.373 88.7426 553.122 88.8679 553.032 89.1008L550.005 95.6741C546.549 96.1219 543.253 97.1249 540.226 98.6116L534.065 94.7965C533.85 94.6711 533.563 94.689 533.384 94.8502L526.649 100.331C526.452 100.492 526.381 100.761 526.47 100.994L528.96 107.782C526.9 110.469 525.252 113.496 524.124 116.773L517.085 118.439C516.834 118.493 516.655 118.708 516.637 118.958L515.76 127.592C515.742 127.842 515.867 128.093 516.1 128.183L522.673 131.21C523.121 134.666 524.124 137.962 525.611 140.989L521.796 147.15C521.67 147.365 521.688 147.634 521.849 147.831L527.33 154.566Z" fill="#91B3FA"/>
<path d="M554.088 135.974C552.19 135.974 550.363 135.365 548.805 134.219C546.906 132.804 545.652 130.726 545.312 128.38C544.595 123.526 547.963 119.013 552.799 118.296C557.653 117.598 562.166 120.947 562.883 125.783C563.223 128.129 562.632 130.476 561.217 132.374C559.802 134.273 557.724 135.527 555.378 135.867C554.966 135.956 554.536 135.974 554.088 135.974ZM554.124 120.553C553.802 120.553 553.497 120.571 553.175 120.625C549.611 121.144 547.139 124.476 547.658 128.04C547.909 129.759 548.822 131.3 550.22 132.338C551.617 133.377 553.336 133.807 555.073 133.556C556.793 133.306 558.333 132.392 559.372 130.995C560.411 129.598 560.841 127.879 560.59 126.141C560.106 122.899 557.312 120.553 554.124 120.553Z" fill="#BDD0FB"/>
<path d="M554.268 149.085C553.534 149.085 552.781 149.049 552.029 148.977C550.525 148.834 549.038 148.529 547.605 148.064C547.533 148.046 547.48 148.028 547.408 148.01C546.907 147.849 546.602 147.383 546.602 146.9C546.602 146.774 546.62 146.649 546.656 146.541C546.853 145.932 547.515 145.592 548.142 145.789C549.468 146.219 550.865 146.506 552.262 146.649C552.334 146.649 552.423 146.667 552.495 146.667C555.808 146.971 559.086 146.434 562.059 145.144C563.671 144.446 565.212 143.532 566.627 142.404C566.644 142.386 566.644 142.386 566.662 142.368C566.698 142.332 566.734 142.314 566.77 142.279C570.854 138.947 573.415 134.201 573.934 128.953C574.006 128.272 574.042 127.591 574.042 126.929C574.042 122.397 572.501 118.027 569.582 114.463C566.25 110.379 561.504 107.818 556.256 107.298C551.008 106.761 545.85 108.319 541.766 111.651C537.682 114.982 535.121 119.728 534.602 124.976C534.53 125.639 534.494 126.32 534.494 126.982C534.494 129.884 535.121 132.732 536.357 135.365C536.429 135.526 536.464 135.705 536.464 135.866C536.464 136.314 536.214 136.726 535.784 136.923C535.193 137.192 534.494 136.941 534.225 136.35C532.846 133.413 532.13 130.206 532.13 126.982C532.13 126.23 532.166 125.478 532.237 124.744C532.828 118.869 535.676 113.567 540.261 109.824C544.847 106.08 550.596 104.361 556.471 104.952C562.346 105.543 567.647 108.391 571.391 112.976C574.651 116.97 576.37 121.842 576.37 126.929C576.37 127.681 576.334 128.433 576.263 129.203C575.116 140.577 565.462 149.085 554.268 149.085Z" fill="#BDD0FB"/>
<path d="M444.311 489.072H258.126V229.971C258.126 216.358 269.159 205.325 282.772 205.325H441.464C455.076 205.325 466.109 216.358 466.109 229.971V467.292C466.091 479.328 456.348 489.072 444.311 489.072Z" fill="#7D97F4"/>
<path d="M434.944 489.072H226.979V212.561C226.979 208.567 230.22 205.325 234.215 205.325H427.708C431.702 205.325 434.944 208.567 434.944 212.561V489.072Z" fill="#BDD0FB"/>
<path d="M655.393 382.735C655.393 382.735 628.724 378.257 627.255 378.257H552.996C548.034 378.257 543.986 382.305 543.986 387.266V395.416C543.986 400.377 548.034 404.425 552.996 404.425H627.255C627.953 404.425 628.634 404.335 629.297 404.174C637.984 402.759 646.688 395.613 655.393 382.735Z" fill="url(#paint0_linear)"/>
<path d="M655.106 383.845C756.321 143.317 568.811 143.103 592.167 370.734L655.106 383.845Z" fill="url(#paint1_linear)"/>
<path d="M648.139 381.534C749.355 136.421 556.417 142.977 579.773 374.943L648.139 381.534Z" fill="url(#paint2_linear)"/>
<path d="M598.848 397.762H590.967V483.036H598.848V397.762Z" fill="url(#paint3_linear)"/>
<path d="M629.44 484.684H560.375V480.063C560.375 479.777 560.608 479.544 560.894 479.544H628.903C629.207 479.544 629.458 479.795 629.458 480.099V484.684H629.44Z" fill="url(#paint4_linear)"/>
<path d="M553.084 471.321C553.084 471.321 530.57 487.549 534.474 498.457C534.474 498.457 559.12 487.835 562.093 479.453C565.067 471.071 561.592 467.381 561.592 467.381L553.084 471.321Z" fill="url(#paint5_linear)"/>
<path d="M556.469 457.709L560.159 468.348C560.714 469.96 560.159 471.787 558.726 472.683C558.01 473.131 557.025 473.56 555.681 473.865C553.783 474.295 551.83 473.417 550.917 471.698L546.511 463.405L556.469 457.709Z" fill="url(#paint6_linear)"/>
<path d="M592.309 361.903C592.309 361.903 546.062 369.927 526.217 388.25C506.371 406.573 544.432 465.035 544.432 465.035C544.432 465.035 550.665 464.999 558.224 458.515C558.224 458.515 535.656 414.544 555.107 401.72C576.959 387.301 602.16 384.059 602.16 384.059L592.774 363.3L592.309 361.903Z" fill="url(#paint7_linear)"/>
<path d="M538.397 492.421C543.358 490.128 557.365 480.313 559.729 479.883C562.093 479.453 566.195 482.229 566.195 482.229C566.195 482.229 567.198 484.021 566.123 487.155C562.828 491.131 555.52 498.725 545.705 501.555C538.486 503.633 533.418 501.699 530.283 499.424C532.003 496.773 535.101 493.943 538.397 492.421Z" fill="url(#paint8_linear)"/>
<path d="M545.703 501.556C555.518 498.726 562.826 491.132 566.122 487.155C565.405 489.269 563.74 491.991 560.193 495.179C551.381 503.096 534.563 505.944 530.98 505.407C528.115 504.959 528.383 502.308 530.282 499.424C533.416 501.681 538.485 503.633 545.703 501.556Z" fill="url(#paint9_linear)"/>
<path d="M570.404 475.298C570.35 476.659 567.556 481.334 565.926 483.967C565.156 485.221 563.795 485.973 562.326 485.973C561.395 485.973 560.32 485.901 559.353 485.615C557.884 485.203 557.078 483.644 557.508 482.176L560.696 471.304L570.404 475.298Z" fill="url(#paint10_linear)"/>
<path d="M636.817 348.022C636.817 348.022 647.08 375.48 636.817 383.845C626.554 392.191 602.034 401.594 596.571 418.234C591.09 434.873 581.813 467.203 569.382 478.648C569.382 478.648 560.642 477.806 557.382 474.313C557.382 474.313 564.457 426.043 569.132 413.666C573.179 402.938 579.126 387.463 590.553 378.812C593.813 376.34 593.258 372.417 591.735 368.602L588.977 361.671L636.817 348.022Z" fill="url(#paint11_linear)"/>
<path d="M529.692 326.493C546.923 327.532 541.549 300.02 541.245 298.928L567.377 317.394C567.377 317.394 565.998 332.117 544.254 339.819C538.755 341.771 533.722 341.861 529.28 340.911C531.197 335.377 530.803 330.415 529.692 326.493Z" fill="url(#paint12_linear)"/>
<path d="M496.395 318.218C502.807 313.759 510.079 318.218 510.079 318.218C518.659 323.825 525.017 326.225 529.692 326.493C530.802 330.416 531.196 335.377 529.298 340.894C519.68 338.834 512.802 331.867 509.811 328.302C508.736 327.013 506.837 326.798 505.512 327.837C504.169 328.893 502.879 330.344 503.112 331.849C503.578 334.84 500.103 335.807 499.834 334.715C499.565 333.622 501.016 327.174 501.016 327.174C501.016 327.174 494.049 334.177 491.344 336.864C488.622 339.551 485.219 336.864 485.219 336.864C485.219 336.864 489.983 322.678 496.395 318.218Z" fill="url(#paint13_linear)"/>
<path d="M610.006 256.424C610.006 256.424 584.949 246.394 538.326 284.885C538.326 284.885 534.439 292.945 538.684 300.127C542.929 307.31 583.426 342.272 588.979 361.652C588.979 361.652 613.105 369.497 638.037 350.905C638.037 350.923 635.834 296.957 610.006 256.424Z" fill="url(#paint14_linear)"/>
<path d="M560.481 247.487L572.822 262.443C574.04 263.93 574.309 265.989 573.467 267.727C571.747 271.219 567.699 276.306 558.69 275.608C556.003 275.393 553.639 273.781 552.475 271.363L543.842 253.541L560.481 247.487Z" fill="url(#paint15_linear)"/>
<path d="M629.403 320.475C632.305 308.635 602.841 282.217 602.841 282.217L609.987 256.425C609.987 256.425 673.607 298.784 657.398 332.833C655.069 337.723 651.989 341.144 648.407 343.419C643.302 329.645 635.134 323.323 629.403 320.475Z" fill="url(#paint16_linear)"/>
<path d="M629.422 318.755C629.726 318.755 630.013 318.54 630.102 318.218C633.076 306.11 604.561 280.372 603.343 279.279C603.057 279.028 602.627 279.046 602.358 279.333C602.107 279.619 602.125 280.067 602.412 280.318C602.698 280.587 631.535 306.576 628.759 317.895C628.669 318.271 628.902 318.648 629.26 318.737C629.314 318.737 629.368 318.755 629.422 318.755Z" fill="url(#paint17_linear)"/>
<path d="M584.786 319.453C584.786 319.453 619.713 333.012 628.238 322.821C628.811 322.122 629.187 321.334 629.402 320.474C635.134 323.322 643.301 329.645 648.424 343.436C630.047 355.168 598.649 336.899 590.159 331.525C588.762 330.648 587.079 330.325 585.467 330.666C582.189 331.346 576.529 332.349 573.484 331.866C569.024 331.185 562.612 346.929 555.376 342.075C555.376 342.057 561.573 314.689 584.786 319.453Z" fill="url(#paint18_linear)"/>
<path d="M533.633 225.511C533.507 225.994 536.516 258.682 536.516 258.682L555.144 256.568L556.881 225.17C556.899 225.152 535.71 217.469 533.633 225.511Z" fill="url(#paint19_linear)"/>
<path d="M552.045 231.672L552.421 248.275C552.421 248.49 552.403 248.687 552.349 248.902C552.027 250.174 550.594 254.419 546.313 252.699C542.445 251.123 538.88 249.744 536.265 250.246C535.083 250.461 534.277 251.553 534.385 252.735C534.653 255.709 535.406 262.389 536.928 268.085C537.232 269.249 538.397 269.966 539.579 269.751C543.143 269.124 550.594 267.601 556.326 264.951C557.096 264.592 557.615 263.858 557.669 262.998C557.956 258.843 558.851 246.234 559.639 242.759C560.391 239.499 564.654 237.959 566.499 237.439C567.108 237.278 567.61 236.866 567.896 236.311C568.935 234.359 570.583 229.755 564.833 227.158C563.633 226.621 563.114 225.206 563.705 224.006C564.851 221.642 565.639 217.934 561.251 215.355C556.791 212.74 553.012 214.853 550.899 216.68C550.039 217.415 548.803 217.415 547.925 216.698C547.424 216.304 546.743 216.107 545.848 216.537C544.63 217.11 543.197 216.465 542.731 215.212C541.854 212.776 539.847 210.071 535.173 210.34C526.88 210.841 524.963 219.761 526.522 225.296C528.098 230.812 537.053 229.773 541.728 227.588C545.292 225.922 549.376 228.52 551.131 229.863C551.705 230.311 552.027 230.973 552.045 231.672Z" fill="url(#paint20_linear)"/>
<path d="M559.71 248.813C559.71 248.813 557.4 239.069 561.09 237.152C564.779 235.236 569.741 236.991 567.878 243.654C565.549 251.947 559.71 248.813 559.71 248.813Z" fill="url(#paint21_linear)"/>
<path d="M566.875 346.196C566.822 346.196 566.768 346.196 566.714 346.196L493.422 346.124C491.613 346.124 490.145 344.656 490.145 342.847C490.145 341.038 491.613 339.533 493.422 339.569L566.714 339.641C568.523 339.641 569.992 341.109 569.992 342.918C569.992 344.674 568.613 346.107 566.875 346.196Z" fill="url(#paint22_linear)"/>
<path d="M427.546 279.656H488.587C493.083 279.656 497.184 282.253 499.101 286.319L527.311 346.16H451.457C448.556 346.16 445.941 344.387 444.884 341.682L422.997 286.319C421.743 283.113 424.107 279.656 427.546 279.656Z" fill="url(#paint23_linear)"/>
<path d="M470.55 310.337C471.875 314.439 470.89 318.433 468.365 319.257C465.839 320.063 462.723 317.394 461.397 313.293C460.072 309.191 461.057 305.197 463.583 304.373C466.09 303.549 469.225 306.218 470.55 310.337Z" fill="#7D97F4"/>
<path d="M437.434 503.383C437.022 503.383 436.61 503.311 436.216 503.132C434.658 502.487 433.923 500.732 434.604 499.209L499.191 353.843C499.872 352.339 501.681 351.64 503.239 352.285C504.797 352.93 505.532 354.685 504.851 356.208L440.264 501.574C439.762 502.72 438.634 503.383 437.434 503.383Z" fill="#274190"/>
<path d="M510.206 503.383C509.006 503.383 507.877 502.702 507.376 501.574L442.789 356.208C442.108 354.703 442.842 352.948 444.401 352.285C445.959 351.64 447.768 352.339 448.449 353.843L513.036 499.209C513.716 500.714 512.982 502.469 511.424 503.132C511.03 503.311 510.6 503.383 510.206 503.383Z" fill="#274190"/>
<path d="M637.374 503.383C636.962 503.383 636.551 503.311 636.156 503.132C634.598 502.487 633.864 500.732 634.544 499.209L699.132 353.843C699.812 352.339 701.621 351.64 703.18 352.285C704.738 352.93 705.472 354.685 704.792 356.208L640.204 501.574C639.703 502.72 638.574 503.383 637.374 503.383Z" fill="#274190"/>
<path d="M710.147 503.383C708.947 503.383 707.819 502.702 707.317 501.574L642.73 356.208C642.049 354.703 642.784 352.948 644.342 352.285C645.9 351.64 647.709 352.339 648.39 353.843L712.977 499.209C713.658 500.714 712.923 502.469 711.365 503.132C710.953 503.311 710.541 503.383 710.147 503.383Z" fill="#274190"/>
<path d="M717.723 349.366C717.884 348.417 717.67 347.431 717.114 346.679C716.559 345.927 715.735 345.497 714.875 345.497H421.027C419.88 345.497 418.824 346.142 418.215 347.217C417.606 348.291 417.516 349.652 418 350.799L421.188 358.518C421.922 360.292 423.498 361.42 425.236 361.42H712.851C714.463 361.42 715.861 360.13 716.165 358.357L717.723 349.366Z" fill="#BDD0FB"/>
<path d="M335.395 336.237C335.395 336.237 366.542 281.572 356.888 273.441C347.216 265.291 347.055 288.952 343.151 285.602C339.246 282.253 345.622 262.515 343.885 248.795C342.148 235.075 338.368 216.717 333.497 235.165C328.625 253.613 329.234 271.793 327.12 262.39C325.007 252.986 317.735 204.018 308.367 218.633C299 233.248 297.048 252.27 306.469 263.357C315.908 274.444 328.571 286.82 313.006 278.653C297.424 270.486 286.82 274.121 303.478 288.934C303.478 288.934 328.535 309.675 317.645 308.69C306.773 307.723 289.453 319.204 307.293 327.496C307.275 327.478 332.637 331.168 335.395 336.237Z" fill="#7D97F4"/>
<path d="M322.445 386.083C322.445 386.083 261.726 383.199 264.413 369.139C267.099 355.079 286.909 364.5 295.739 365.396C304.551 366.291 299.375 360.255 281.428 347.61C263.464 334.965 253.595 316.445 272.616 325.078C291.638 333.711 299.232 349.921 297.942 338.493C296.653 327.048 272.204 294.862 292.891 308.045C313.561 321.227 312.146 333.425 312.773 343.043C313.4 352.661 316.158 324.415 322.624 328.624C329.09 332.833 325.418 337.15 323.107 348.344C320.797 359.539 327.281 350.512 329.412 346.84C331.561 343.168 336.809 351.98 331.669 364.124C326.493 376.286 322.445 386.083 322.445 386.083Z" fill="#274190"/>
<path d="M334.535 450.08C334.499 450.116 334.463 450.152 334.463 450.205C334.463 450.205 334.463 450.295 334.463 450.223V450.044L334.499 449.346L334.553 447.931L334.642 445.083L334.785 439.351L334.982 427.888C335.072 420.24 335.108 412.592 335.09 404.944C335.054 389.648 334.768 374.352 334.194 359.074C333.89 351.444 333.514 343.796 333.03 336.184C332.529 328.554 331.902 320.941 331.132 313.347C330.343 305.753 329.358 298.194 328.051 290.69C326.708 283.221 325.078 275.752 322.391 268.749L322.373 268.713C322.104 268.032 322.445 267.262 323.143 266.993C323.824 266.725 324.594 267.065 324.863 267.746C327.764 275.035 329.502 282.594 330.988 290.152C332.421 297.729 333.532 305.341 334.427 312.971C335.323 320.601 336.039 328.249 336.648 335.897C337.239 343.545 337.723 351.211 338.135 358.877C338.923 374.209 339.424 389.541 339.675 404.873C339.801 412.539 339.872 420.204 339.89 427.888L339.854 439.405L339.783 445.172L339.729 448.056L339.693 449.525L339.675 450.277V450.456C339.675 450.51 339.657 450.707 339.639 450.832C339.604 451.119 339.568 451.388 339.496 451.674C339.048 453.035 337.58 453.77 336.218 453.304C334.821 452.91 334.087 451.441 334.535 450.08Z" fill="#7D97F4"/>
<path d="M334.193 453.035C334.176 453.107 334.158 453.178 334.158 453.25C334.158 453.268 334.176 453.357 334.158 453.321L334.14 453.214L334.086 452.784L333.943 451.889L333.656 450.08L333.047 446.462L331.793 439.208C330.934 434.372 330.038 429.536 329.125 424.717C327.28 415.063 325.292 405.445 323.142 395.845C320.975 386.262 318.647 376.716 315.96 367.295C314.617 362.584 313.148 357.909 311.518 353.306C309.87 348.721 308.061 344.171 305.715 340.034L305.697 339.998C305.339 339.353 305.554 338.547 306.198 338.171C306.825 337.813 307.631 338.028 308.008 338.655C310.623 343.025 312.539 347.628 314.33 352.267C316.103 356.906 317.662 361.617 319.13 366.345C322.05 375.802 324.593 385.349 326.975 394.931C329.34 404.514 331.543 414.15 333.602 423.786C334.641 428.604 335.644 433.44 336.594 438.294L338.008 445.566L338.689 449.22L339.012 451.047L339.173 451.978L339.244 452.462L339.262 452.587L339.298 452.874C339.316 453.089 339.334 453.321 339.316 453.536C339.173 454.951 337.901 456.008 336.486 455.865C335.107 455.722 334.068 454.45 334.193 453.035Z" fill="#274190"/>
<path d="M347.216 347.271C347.216 347.271 408.759 337.455 402.902 324.416C397.027 311.359 379.94 325.115 371.557 328.034C363.193 330.954 361.993 329.485 376.519 313.025C391.063 296.564 392.424 279.477 375.91 292.284C359.414 305.09 365.127 316.965 363.73 305.538C362.333 294.111 384.382 250.497 367.33 268.122C350.279 285.746 348.184 300.738 349.813 310.231C351.443 319.741 342.201 292.893 336.9 298.481C331.58 304.069 336.165 307.436 341.001 317.771C345.837 328.124 337.455 320.852 334.517 317.771C331.58 314.69 328.499 324.488 336.344 335.109C344.171 345.748 347.216 347.271 347.216 347.271Z" fill="#274190"/>
<path d="M342.576 451.727C342.522 451.476 342.469 451.226 342.451 450.975C342.433 450.867 342.415 450.688 342.415 450.634V450.491L342.397 449.936L342.361 448.843L342.325 446.676L342.289 442.36L342.271 433.744C342.289 427.995 342.361 422.263 342.469 416.532C342.683 405.051 343.077 393.588 343.704 382.125C344.349 370.662 345.191 359.199 346.57 347.771C347.251 342.058 348.093 336.362 349.185 330.684C350.296 325.024 351.621 319.346 353.824 313.866C354.093 313.185 354.881 312.845 355.561 313.131C356.242 313.4 356.565 314.17 356.314 314.851L356.296 314.887C354.308 320.081 353.108 325.651 352.123 331.221C351.155 336.81 350.421 342.47 349.848 348.129C348.702 359.467 348.057 370.876 347.627 382.304C347.215 393.713 347.036 405.158 347.036 416.586C347.036 422.299 347.072 428.013 347.161 433.726L347.322 442.288L347.448 446.569L347.519 448.7L347.573 449.757L347.591 450.258V450.384C347.591 450.437 347.591 450.33 347.591 450.312C347.573 450.24 347.555 450.169 347.502 450.097C347.949 451.458 347.215 452.927 345.872 453.375C344.492 453.805 343.024 453.07 342.576 451.727Z" fill="#274190"/>
<path d="M313.113 439.853H364.07C367.419 439.853 369.873 442.951 369.139 446.211C365.879 460.343 361.975 474.672 353.968 489.215C352.5 491.902 349.688 493.586 346.607 493.586H329.985C326.958 493.586 324.2 491.92 322.767 489.269C316.355 477.358 310.194 463.173 307.149 447.071C306.45 443.327 309.298 439.853 313.113 439.853Z" fill="#274190"/>
<path d="M247.827 52.1152C247.827 52.1152 228.035 63.0767 226.405 81.6326C224.776 100.188 226.262 177.206 265.953 196.156C305.644 215.106 358.159 210.735 378.273 208.676C398.387 206.598 409.528 192.932 412.018 183.529C414.507 174.125 418.537 139.073 397.384 127.771C376.231 116.47 354.022 99.1496 331.812 82.2774C309.62 65.4052 271.577 37.8759 247.827 52.1152Z" fill="#7D97F4"/>
<path d="M391.133 134.147C391.133 134.147 385.796 134.434 385.133 145.413C385.133 145.413 397.509 156.518 414.256 159.151C415.51 159.348 412.501 150.572 412.053 149.39C409.904 143.748 403.116 140.112 391.133 134.147Z" fill="url(#paint24_linear)"/>
<path d="M330.988 121.234H342.255C342.255 121.234 376.841 83.0296 399.534 79.1787C399.534 79.1787 415.332 99.3466 398.692 137.013C397.349 140.04 393.606 141.384 390.811 139.611C389.97 139.073 389.379 138.357 389.02 137.461L390.364 105.293C390.364 105.293 360.846 131.103 355.724 136.082C350.601 141.061 324.523 138.017 330.988 121.234Z" fill="url(#paint25_linear)"/>
<path d="M439.959 201.457C435.23 197.319 427.707 192.68 416.853 191.337L413.182 193.576C413.182 193.576 415.528 197.033 419.809 200.686C423.749 202.979 429.821 206.06 434.854 206.74C439.726 207.385 440.46 204.43 439.959 201.457Z" fill="url(#paint26_linear)"/>
<path d="M412.054 149.408C409.152 150.357 407.863 154.477 400.483 151.754C393.337 149.121 388.035 145.718 385.295 143.748C385.241 144.285 385.187 144.841 385.151 145.432C385.151 145.432 398.209 157.862 414.937 160.495C416.191 160.692 417.194 159.438 416.729 158.256C415.923 156.107 414.454 152.883 412.054 149.408Z" fill="#7D97F4"/>
<path d="M443.523 204.985C442.592 203.928 441.41 202.71 439.959 201.457C440.46 204.448 439.726 207.403 434.836 206.74C429.803 206.078 423.731 202.979 419.791 200.687C424.717 204.896 432.221 209.356 441.696 209.087C443.792 209.033 444.902 206.561 443.523 204.985Z" fill="#91B3FA"/>
<path d="M331.4 129.383L384.184 129.956C384.184 129.956 414.328 154.888 419.791 192.931C419.791 192.931 420.704 195.725 415.242 196.209C415.242 196.209 397.026 184.298 385.133 163.271C370.571 137.461 341.699 149.085 341.699 149.085C332.206 142.243 318.809 140.846 308.725 138.571L331.4 129.383Z" fill="url(#paint27_linear)"/>
<path d="M332.654 86.8623C332.654 86.8623 338.332 115.341 366.183 126.607L376.088 125.443L378.417 129.168L355.186 129.903C355.186 129.903 335.323 122.04 324.809 100.6C324.451 99.9015 318.665 87.937 332.654 86.8623Z" fill="url(#paint28_linear)"/>
<path d="M335.698 128.917C335.698 128.917 329.232 111.346 327.853 94.2771C327.853 94.2771 332.581 90.2113 335.537 88.456C336.486 87.8828 336.862 86.6828 336.379 85.6798C334.211 81.1841 321.065 63.5059 320.08 63.2551C314.724 61.9118 292.801 51.4876 277.344 72.6226C270.717 81.6856 278.651 109.609 308.742 138.517L314.939 139.7L335.698 128.917Z" fill="url(#paint29_linear)"/>
<path d="M310.784 98.1465C310.784 98.1465 328.731 119.407 351.693 122.506C351.693 122.506 357.621 117.096 362.027 119.031C366.434 120.965 372.487 129.491 372.487 129.491H343.024C343.024 129.491 315.154 128.506 301.237 111.616C302.366 105.687 305.715 102.159 310.784 98.1465Z" fill="url(#paint30_linear)"/>
<path d="M300.325 48.3896L296.402 61.4826C296.223 62.0916 296.438 62.7364 296.957 63.0946C298.856 64.3842 303.799 66.9634 310.57 64.4559C311.34 64.1693 311.877 63.4529 311.949 62.6289L312.88 51.2196L300.325 48.3896Z" fill="url(#paint31_linear)"/>
<path d="M323.323 37.768C323.323 37.768 321.389 51.3446 316.177 55.5179C310.965 59.6912 300.791 56.5567 297.37 46.3116L304.212 28.8125L323.323 37.768Z" fill="url(#paint32_linear)"/>
<path d="M303.423 40.1501C303.817 40.2755 304.229 40.0247 304.301 39.6128C304.498 38.359 304.964 35.8694 305.913 34.1857C305.913 34.1857 305.412 32.4125 310.409 35.0992C315.406 37.7858 322.929 41.7442 327.335 39.3978C331.651 37.1052 336.021 25.5526 324.612 27.684C324.182 27.7736 323.788 27.4153 323.806 26.9855C323.949 25.0869 323.752 20.7166 319.328 19.3195C315.191 18.012 317.412 20.1255 316.481 21.2539C316.212 21.5942 316.821 20.1255 310.946 20.9853C308.922 21.2718 306.343 15.9165 301.382 18.1016C297.298 19.8927 296.671 22.4182 296.725 23.9764C296.743 24.4779 296.223 24.8362 295.775 24.6212C294.522 24.0481 292.516 23.7436 290.581 26.1616C287.912 29.493 291.728 32.3946 292.874 33.1469C293.053 33.2723 293.178 33.4693 293.178 33.7021C293.196 35.4395 293.465 43.0159 297.262 47.2787C297.584 47.6548 298.193 47.5474 298.39 47.0817L301.31 40.1143C301.453 39.7919 301.811 39.6307 302.134 39.7381L303.423 40.1501Z" fill="url(#paint33_linear)"/>
<path d="M303.495 41.565C303.495 41.565 301.704 34.2931 298.999 36.6573C296.295 39.0216 299.698 44.2158 302.814 45.2009L303.495 41.565Z" fill="url(#paint34_linear)"/>
<path d="M371.02 131.138L384.256 87.0055C384.793 85.1965 386.387 83.9248 388.268 83.7994L406.125 82.5815C407.934 82.4561 409.295 84.2293 408.687 85.9488L393.892 128.093C393.408 129.455 392.19 130.404 390.758 130.547L373.169 132.5L371.02 131.138Z" fill="#7D97F4"/>
<path d="M395.415 101.961C394.43 103.949 392.728 105.132 391.6 104.576C390.489 104.021 390.382 101.961 391.367 99.9553C392.352 97.9672 394.054 96.785 395.182 97.3403C396.31 97.8955 396.4 99.9553 395.415 101.961Z" fill="#91B3FA"/>
<path d="M373.187 132.5C373.151 132.5 373.133 132.5 373.097 132.5L335.61 130.601C334.678 130.547 333.962 129.759 334.016 128.846C334.069 127.915 334.857 127.198 335.771 127.252L373.259 129.15C374.19 129.204 374.906 129.992 374.853 130.906C374.817 131.801 374.065 132.5 373.187 132.5Z" fill="#7D97F4"/>
<path d="M327.835 94.5821C327.674 94.5821 327.531 94.4567 327.531 94.2776C327.549 86.4505 324.54 76.0441 324.504 75.9367C324.45 75.7755 324.54 75.6143 324.701 75.5605C324.862 75.5068 325.023 75.5964 325.077 75.7576C325.113 75.865 328.158 86.343 328.122 94.2597C328.14 94.4567 327.997 94.5821 327.835 94.5821Z" fill="url(#paint35_linear)"/>
<path d="M310.802 98.4329C310.712 98.4329 310.623 98.3971 310.569 98.3254C310.479 98.218 302.294 87.7937 299.464 80.6472C299.41 80.486 299.482 80.3248 299.625 80.2532C299.787 80.1995 299.948 80.2711 300.019 80.4144C302.813 87.4713 310.945 97.8239 311.035 97.9314C311.142 98.0568 311.106 98.2538 310.981 98.3433C310.927 98.415 310.856 98.4329 310.802 98.4329Z" fill="url(#paint36_linear)"/>
<path d="M299.25 114.374L299.035 114.284C287.178 109.197 279.852 95.0474 279.781 94.9042C279.709 94.7609 279.763 94.5818 279.906 94.5101C280.049 94.4385 280.228 94.4922 280.3 94.6355C280.372 94.7788 287.518 108.57 299.053 113.639L300.271 111.92C300.36 111.776 300.557 111.758 300.683 111.848C300.826 111.938 300.844 112.135 300.754 112.26L299.25 114.374Z" fill="url(#paint37_linear)"/>
<defs>
<linearGradient id="paint0_linear" x1="624.221" y1="339.557" x2="574.643" y2="429.055" gradientUnits="userSpaceOnUse">
<stop stop-color="#FF928E"/>
<stop offset="1" stop-color="#EDA85A"/>
</linearGradient>
<linearGradient id="paint1_linear" x1="482.426" y1="187.791" x2="636.651" y2="293.762" gradientUnits="userSpaceOnUse">
<stop stop-color="#EDA85A"/>
<stop offset="1" stop-color="#EDA85A"/>
</linearGradient>
<linearGradient id="paint2_linear" x1="611.915" y1="389.61" x2="642.09" y2="206.731" gradientUnits="userSpaceOnUse">
<stop stop-color="#FF928E"/>
<stop offset="1" stop-color="#EDA85A"/>
</linearGradient>
<linearGradient id="paint3_linear" x1="588.746" y1="479.118" x2="605.79" y2="371.907" gradientUnits="userSpaceOnUse">
<stop stop-color="#FF928E"/>
<stop offset="1" stop-color="#EDA85A"/>
</linearGradient>
<linearGradient id="paint4_linear" x1="595.32" y1="479.724" x2="613.107" y2="367.835" gradientUnits="userSpaceOnUse">
<stop stop-color="#FF928E"/>
<stop offset="1" stop-color="#EDA85A"/>
</linearGradient>
<linearGradient id="paint5_linear" x1="533.897" y1="454.955" x2="547.818" y2="482.332" gradientUnits="userSpaceOnUse">
<stop stop-color="#09005D"/>
<stop offset="1" stop-color="#1A0F91"/>
</linearGradient>
<linearGradient id="paint6_linear" x1="560.368" y1="465.85" x2="546.501" y2="465.85" gradientUnits="userSpaceOnUse">
<stop stop-color="#FEBBBA"/>
<stop offset="1" stop-color="#FF928E"/>
</linearGradient>
<linearGradient id="paint7_linear" x1="579.557" y1="429.159" x2="520.627" y2="346.564" gradientUnits="userSpaceOnUse">
<stop stop-color="#09005D"/>
<stop offset="1" stop-color="#396CAA"/>
</linearGradient>
<linearGradient id="paint8_linear" x1="541.976" y1="482.636" x2="590.233" y2="545.742" gradientUnits="userSpaceOnUse">
<stop stop-color="#09005D"/>
<stop offset="1" stop-color="#1A0F91"/>
</linearGradient>
<linearGradient id="paint9_linear" x1="566.125" y1="496.303" x2="528.836" y2="496.303" gradientUnits="userSpaceOnUse">
<stop stop-color="#4042E2"/>
<stop offset="1" stop-color="#4F52FF"/>
</linearGradient>
<linearGradient id="paint10_linear" x1="570.395" y1="478.648" x2="557.381" y2="478.648" gradientUnits="userSpaceOnUse">
<stop stop-color="#FEBBBA"/>
<stop offset="1" stop-color="#FF928E"/>
</linearGradient>
<linearGradient id="paint11_linear" x1="600.797" y1="470.317" x2="597.549" y2="359.881" gradientUnits="userSpaceOnUse">
<stop stop-color="#396CAA"/>
<stop offset="1" stop-color="#1A0F91"/>
</linearGradient>
<linearGradient id="paint12_linear" x1="520.191" y1="355.911" x2="453.945" y2="444.916" gradientUnits="userSpaceOnUse">
<stop stop-color="#7D97F4"/>
<stop offset="1" stop-color="#4F52FF"/>
</linearGradient>
<linearGradient id="paint13_linear" x1="530.627" y1="328.567" x2="485.227" y2="328.567" gradientUnits="userSpaceOnUse">
<stop stop-color="#FEBBBA"/>
<stop offset="1" stop-color="#FF928E"/>
</linearGradient>
<linearGradient id="paint14_linear" x1="551.568" y1="274.196" x2="653.651" y2="348.438" gradientUnits="userSpaceOnUse">
<stop stop-color="#7D97F4"/>
<stop offset="1" stop-color="#4F52FF"/>
</linearGradient>
<linearGradient id="paint15_linear" x1="573.946" y1="261.564" x2="543.823" y2="261.564" gradientUnits="userSpaceOnUse">
<stop stop-color="#FEBBBA"/>
<stop offset="1" stop-color="#FF928E"/>
</linearGradient>
<linearGradient id="paint16_linear" x1="566.207" y1="254.067" x2="668.29" y2="328.309" gradientUnits="userSpaceOnUse">
<stop stop-color="#7D97F4"/>
<stop offset="1" stop-color="#4F52FF"/>
</linearGradient>
<linearGradient id="paint17_linear" x1="658.322" y1="190.675" x2="633.937" y2="253.264" gradientUnits="userSpaceOnUse">
<stop stop-color="#09005D"/>
<stop offset="1" stop-color="#1A0F91"/>
</linearGradient>
<linearGradient id="paint18_linear" x1="594.487" y1="329.112" x2="709.811" y2="529.512" gradientUnits="userSpaceOnUse">
<stop stop-color="#FEBBBA"/>
<stop offset="1" stop-color="#FF928E"/>
</linearGradient>
<linearGradient id="paint19_linear" x1="540.735" y1="227.574" x2="564.749" y2="285.222" gradientUnits="userSpaceOnUse">
<stop stop-color="#FEBBBA"/>
<stop offset="1" stop-color="#FF928E"/>
</linearGradient>
<linearGradient id="paint20_linear" x1="565.58" y1="246.397" x2="522.025" y2="235.157" gradientUnits="userSpaceOnUse">
<stop stop-color="#09005D"/>
<stop offset="1" stop-color="#1A0F91"/>
</linearGradient>
<linearGradient id="paint21_linear" x1="584.279" y1="279.557" x2="562.777" y2="242.004" gradientUnits="userSpaceOnUse">
<stop stop-color="#FEBBBA"/>
<stop offset="1" stop-color="#FF928E"/>
</linearGradient>
<linearGradient id="paint22_linear" x1="579.318" y1="326.724" x2="521.139" y2="345.806" gradientUnits="userSpaceOnUse">
<stop stop-color="#09005D"/>
<stop offset="1" stop-color="#1A0F91"/>
</linearGradient>
<linearGradient id="paint23_linear" x1="499.397" y1="288.577" x2="457.499" y2="332.862" gradientUnits="userSpaceOnUse">
<stop stop-color="#09005D"/>
<stop offset="1" stop-color="#396CAA"/>
</linearGradient>
<linearGradient id="paint24_linear" x1="396.539" y1="144.599" x2="415.902" y2="164.823" gradientUnits="userSpaceOnUse">
<stop stop-color="#09005D"/>
<stop offset="1" stop-color="#1A0F91"/>
</linearGradient>
<linearGradient id="paint25_linear" x1="429.783" y1="-41.4323" x2="405.094" y2="23.4896" gradientUnits="userSpaceOnUse">
<stop stop-color="#09005D"/>
<stop offset="1" stop-color="#1A0F91"/>
</linearGradient>
<linearGradient id="paint26_linear" x1="422.225" y1="195.36" x2="458.852" y2="222.242" gradientUnits="userSpaceOnUse">
<stop stop-color="#09005D"/>
<stop offset="1" stop-color="#1A0F91"/>
</linearGradient>
<linearGradient id="paint27_linear" x1="441.527" y1="-36.9667" x2="416.839" y2="27.9553" gradientUnits="userSpaceOnUse">
<stop stop-color="#09005D"/>
<stop offset="1" stop-color="#1A0F91"/>
</linearGradient>
<linearGradient id="paint28_linear" x1="363.051" y1="96.0113" x2="338.186" y2="125.581" gradientUnits="userSpaceOnUse">
<stop stop-color="#FEBBBA"/>
<stop offset="1" stop-color="#FF928E"/>
</linearGradient>
<linearGradient id="paint29_linear" x1="269.123" y1="-42.9794" x2="308.963" y2="96.7922" gradientUnits="userSpaceOnUse">
<stop stop-color="#FF928E"/>
<stop offset="1" stop-color="#EDA85A"/>
</linearGradient>
<linearGradient id="paint30_linear" x1="334.056" y1="122.917" x2="383.759" y2="54.9211" gradientUnits="userSpaceOnUse">
<stop stop-color="#FEBBBA"/>
<stop offset="1" stop-color="#FF928E"/>
</linearGradient>
<linearGradient id="paint31_linear" x1="303.653" y1="66.5689" x2="305.483" y2="50.0919" gradientUnits="userSpaceOnUse">
<stop stop-color="#FEBBBA"/>
<stop offset="1" stop-color="#FF928E"/>
</linearGradient>
<linearGradient id="paint32_linear" x1="313.418" y1="52.1957" x2="305.349" y2="25.581" gradientUnits="userSpaceOnUse">
<stop stop-color="#FEBBBA"/>
<stop offset="1" stop-color="#FF928E"/>
</linearGradient>
<linearGradient id="paint33_linear" x1="306.152" y1="3.41919" x2="313.638" y2="46.1148" gradientUnits="userSpaceOnUse">
<stop stop-color="#09005D"/>
<stop offset="1" stop-color="#1A0F91"/>
</linearGradient>
<linearGradient id="paint34_linear" x1="305.059" y1="54.7297" x2="296.99" y2="28.1149" gradientUnits="userSpaceOnUse">
<stop stop-color="#FEBBBA"/>
<stop offset="1" stop-color="#FF928E"/>
</linearGradient>
<linearGradient id="paint35_linear" x1="324.504" y1="85.0832" x2="328.139" y2="85.0832" gradientUnits="userSpaceOnUse">
<stop stop-color="#E1473D"/>
<stop offset="1" stop-color="#E9605A"/>
</linearGradient>
<linearGradient id="paint36_linear" x1="299.438" y1="89.343" x2="311.091" y2="89.343" gradientUnits="userSpaceOnUse">
<stop stop-color="#E1473D"/>
<stop offset="1" stop-color="#E9605A"/>
</linearGradient>
<linearGradient id="paint37_linear" x1="279.742" y1="104.418" x2="300.812" y2="104.418" gradientUnits="userSpaceOnUse">
<stop stop-color="#E1473D"/>
<stop offset="1" stop-color="#E9605A"/>
</linearGradient>
</defs>
</svg>
