<svg width="717" height="501" viewBox="0 0 717 501" fill="none" xmlns="http://www.w3.org/2000/svg">
<path d="M704.843 381.27C676.71 447.349 601.757 484.374 536.766 474.386C526.187 472.757 497.194 467.92 471.522 445.082C422.106 401.119 411.537 314.083 451.402 252.736C480.415 208.095 532.429 182.781 581.846 184.045C592.488 184.317 633.284 185.999 669.137 215.492C674.405 219.827 686.021 230.118 696.485 246.447C721.067 284.778 723.183 338.206 704.843 381.27Z" fill="white"/>
<path d="M469.593 326.607C422.694 436.3 298.903 483.421 201.907 475.397C175.419 473.199 122.137 468.787 80.5332 429.418C0.644486 353.796 12.935 195.739 89.4362 102.69C99.2754 90.6965 167.452 10.4071 273.71 11.4804C351.504 12.264 406.097 56.2332 412.736 61.7187C421.128 68.6352 439.615 85.0917 456.298 111.173C495.45 172.485 498.889 258.055 469.593 326.607Z" fill="white"/>
<path d="M21.1582 9.38413C20.6986 7.47613 23.3712 6.21549 25.0054 7.54427C41.5687 20.9854 81.3683 61.2408 71.444 131.598C59.0002 219.86 80.2789 252.075 106.767 271.717C106.767 271.717 70.3885 262.484 47.5097 229.792C-8.666 149.554 29.0568 43.0808 21.1582 9.38413Z" fill="#BDD0FB"/>
<path d="M33.754 36.9487C35.8308 46.7783 37.6692 56.625 39.0992 66.5227C40.5802 76.4205 41.7207 86.3352 42.5037 96.2841C43.2357 106.233 43.7634 116.182 43.7805 126.148C43.8656 136.114 43.44 146.062 42.9974 156.045C42.6059 166.028 42.1463 176.096 42.8782 186.216C43.5932 196.318 45.7211 206.522 49.9428 216.079C50.9982 218.464 52.1047 220.832 53.3644 223.132C54.573 225.449 55.9008 227.715 57.2797 229.963C60.0544 234.444 63.1866 238.788 66.6763 242.893C73.6728 251.105 82.1161 258.396 91.4107 264.563C92.398 265.21 93.7939 265.057 94.5429 264.205C95.2749 263.37 95.1217 262.195 94.1854 261.531C91.9724 259.98 89.7765 258.396 87.6826 256.743C86.6102 255.926 85.5888 255.074 84.5504 254.239C83.5461 253.37 82.5077 252.536 81.5374 251.65C77.588 248.14 73.9281 244.376 70.6086 240.406C63.9356 232.502 58.5904 223.711 54.539 214.58C52.5813 209.997 50.9982 205.296 49.8577 200.509C48.7171 195.722 48.0022 190.849 47.5936 185.926C46.7935 176.096 47.151 166.131 47.4574 156.148C47.7468 146.165 47.9681 136.114 47.6957 126.08C47.5766 121.071 47.3553 116.046 47.0318 111.037C46.8786 108.533 46.6914 106.029 46.4871 103.524C46.2658 101.02 46.0275 98.5328 45.7551 96.0286C44.6827 86.0456 43.2528 76.0968 41.4653 66.199C39.6269 56.3013 37.482 46.4546 34.8945 36.7102C34.8264 36.4376 34.503 36.2502 34.1795 36.3184C33.9072 36.4036 33.7029 36.6761 33.754 36.9487Z" fill="white"/>
<path d="M64.0569 220.645C62.0311 222.808 58.4563 222.178 57.2307 219.487C50.4896 204.58 35.237 160.747 60.431 110.236C81.7097 67.579 89.1997 42.4343 91.8043 30.7819C92.349 28.3117 95.7366 27.988 96.7409 30.3049C107.993 55.8073 137.664 142.502 64.0569 220.645Z" fill="#91B3FA"/>
<path d="M60.3794 219.078C60.3113 219.095 60.2262 219.095 60.1581 219.095C59.5112 219.078 59.0176 218.567 59.0176 217.919C59.0346 217.187 60.4305 144.802 87.3438 84.1548C87.5991 83.5756 88.28 83.303 88.8758 83.5585C89.4546 83.8141 89.727 84.4955 89.4716 85.0918C62.7626 145.296 61.3497 217.238 61.3497 217.953C61.3157 218.515 60.9071 218.975 60.3794 219.078Z" fill="white"/>
<path d="M53.57 117.221L444.519 110.611C460.265 110.339 472.896 123.848 471.96 139.947L458.495 371.53C457.763 384.205 447.566 394.136 435.173 394.256L59.3749 397.969C50.0974 398.055 42.42 390.576 42.0625 381.07L33.0914 139.367C32.6488 127.408 41.8923 117.408 53.57 117.221Z" fill="url(#paint0_linear_1239:2)"/>
<path d="M59.5631 123.115L440.315 116.829C455.636 116.574 467.944 129.436 467.041 144.751L453.934 365.091C453.219 377.152 443.294 386.59 431.225 386.709L65.2317 390.252C56.1925 390.337 48.7194 383.217 48.379 374.171L39.6122 144.189C39.1866 132.809 48.1747 123.303 59.5631 123.115Z" fill="#91B3FA"/>
<path d="M66.6776 130.713L429.249 124.717C443.838 124.478 455.567 136.71 454.699 151.292L442.221 361.104C441.54 372.586 432.092 381.581 420.602 381.7L72.0909 385.074C63.4773 385.159 56.3787 378.379 56.0383 369.758L47.68 150.781C47.2715 139.947 55.851 130.884 66.6776 130.713Z" fill="#BDD0FB"/>
<path d="M441.183 116.642L58.8473 122.962C47.4249 123.149 38.3857 132.706 38.8113 144.137L39.4241 160.355H467.092L468.028 144.7C468.947 129.299 456.588 116.386 441.183 116.642Z" fill="url(#paint1_linear_1239:2)"/>
<g opacity="0.85">
<path opacity="0.85" d="M70.8656 130.798C70.8656 132.706 69.3335 134.24 67.4269 134.24C65.5204 134.24 63.9883 132.706 63.9883 130.798C63.9883 128.89 65.5204 127.357 67.4269 127.357C69.3335 127.357 70.8656 128.89 70.8656 130.798Z" fill="white"/>
<path opacity="0.85" d="M70.8656 140.884C70.8656 142.792 69.3335 144.325 67.4269 144.325C65.5203 144.325 63.9883 142.792 63.9883 140.884C63.9883 138.976 65.5203 137.442 67.4269 137.442C69.3335 137.442 70.8656 138.976 70.8656 140.884Z" fill="white"/>
<path opacity="0.85" d="M70.8656 150.969C70.8656 152.877 69.3335 154.41 67.4269 154.41C65.5203 154.41 63.9883 152.877 63.9883 150.969C63.9883 149.061 65.5203 147.527 67.4269 147.527C69.3335 147.527 70.8656 149.061 70.8656 150.969Z" fill="white"/>
</g>
<g opacity="0.8">
<path opacity="0.8" d="M201.856 362.263L171.146 363.864V316.795L201.856 315.687V362.263Z" fill="white"/>
<path opacity="0.8" d="M251.613 359.656L221.977 361.207V299.742L251.613 298.839V359.656Z" fill="white"/>
<path opacity="0.8" d="M299.67 357.152L271.037 358.634V278.362L299.67 277.698V357.152Z" fill="white"/>
<path opacity="0.8" d="M346.092 354.716L318.43 356.164V251.275L346.092 250.883V354.716Z" fill="white"/>
<path opacity="0.8" d="M334.822 187.97C332.575 186.676 329.613 187.306 328.252 189.401C326.771 191.65 325.256 193.848 323.672 195.994C294.206 236.079 245.792 259.81 177.684 266.232C175.471 266.437 173.717 266.607 172.407 266.778C171.555 266.897 170.347 267.05 169.172 267.527C167.981 268.004 166.84 268.805 166.176 270.202C165.019 272.638 166.312 275.398 169.053 276.352C169.734 276.59 170.449 276.692 171.13 276.675C171.913 276.658 172.696 276.488 173.394 276.181C174.381 276.028 176.526 275.824 178.603 275.619C191.064 274.393 219.833 271.599 250.695 260.117C285.269 247.238 312.267 227.442 331.503 201.224C333.205 198.907 334.857 196.539 336.423 194.103C337.784 192.025 337.07 189.265 334.822 187.97Z" fill="white"/>
<path opacity="0.8" d="M336.934 215.33C334.449 215.33 332.338 213.524 332.168 211.156L330.806 191.599L310.736 203.984C308.506 205.364 305.476 204.802 303.978 202.723C302.48 200.645 303.075 197.834 305.322 196.471L339.266 175.654L341.683 210.594C341.854 213.047 339.862 215.159 337.241 215.33C337.138 215.33 337.036 215.33 336.934 215.33Z" fill="white"/>
</g>
<path d="M374.5 419.23H370.006V467.816H374.5V419.23Z" fill="#7D97F4"/>
<path d="M391.915 468.753H352.592C352.592 467.134 353.903 465.823 355.52 465.823H389.004C390.604 465.823 391.915 467.134 391.915 468.753Z" fill="#7D97F4"/>
<path d="M397.737 417.543C397.737 420.201 395.558 422.382 392.902 422.382H353.12C350.464 422.382 348.285 420.201 348.285 417.543V413.182C348.285 410.525 350.464 408.344 353.12 408.344H392.902C395.558 408.344 397.737 410.525 397.737 413.182V417.543Z" fill="#7D97F4"/>
<path d="M339.111 386.828C339.111 386.828 332.438 387.867 324.948 392.876C323.773 393.659 323.126 395.039 323.296 396.453C324.199 403.574 327.893 426.624 340.064 449.128C340.711 450.32 340.898 451.7 340.609 453.012L338.498 462.858L334.583 466.538H344.694L351.418 448.31L348.541 447.407C346.311 446.709 344.779 444.647 344.745 442.313L344.405 422.773C344.694 414.068 339.077 408.055 339.077 408.055L355.214 407.271L339.111 386.828Z" fill="url(#paint2_linear_1239:2)"/>
<path d="M330.616 468.327C329.696 469.537 340.523 471.121 345.987 468.48C345.987 468.48 353.563 455.278 353.563 448.48C353.563 448.48 352.967 447.1 348.507 447.407C348.507 447.407 345.953 463.046 343.281 464.784C340.591 466.538 335.757 464.954 335.757 464.954C335.757 464.954 331.96 466.538 330.616 468.327Z" fill="url(#paint3_linear_1239:2)"/>
<path d="M353.139 408.327C353.054 408.174 335.758 406.249 335.758 406.249C335.758 406.249 336.32 411.513 334.55 418.753C332.779 425.993 307.398 457.373 307.398 457.373L310.054 465.823C301.831 468.685 293.728 469.145 285.762 467.288L302.257 457.373C302.257 457.373 317.697 404.716 327.145 395.329L344.474 389.333L353.139 408.327Z" fill="url(#paint4_linear_1239:2)"/>
<path d="M391.916 377.697C391.916 377.697 401.874 392.518 402.691 399.281C403.508 406.044 399.968 408.787 389.515 409.247C379.063 409.707 351.163 409.69 351.163 409.69L327.348 389.315C327.348 389.315 344.711 383.114 349.222 381.36C353.716 379.639 391.916 377.697 391.916 377.697Z" fill="url(#paint5_linear_1239:2)"/>
<path d="M309.065 462.978C309.065 462.978 311.925 465.755 310.002 468.838C310.002 468.838 287.293 472.858 281.131 471.036C281.131 471.036 282.408 468.105 289.353 464.784L288.842 465.175C288.195 465.669 288.57 466.709 289.387 466.657C293.949 466.419 303.414 465.584 309.065 462.978Z" fill="url(#paint6_linear_1239:2)"/>
<path d="M346.719 307.442C346.719 308.822 359.146 359.98 359.146 359.98L394.57 370.406C401.396 372.416 408.733 369.639 412.529 363.609C421.96 348.617 417.449 328.822 402.469 319.401L397.447 316.249C386.757 309.52 377.513 300.713 370.296 290.338L368.406 287.629L346.719 307.442Z" fill="url(#paint7_linear_1239:2)"/>
<path d="M407.049 356.879C406.998 356.879 406.947 356.862 406.93 356.811C406.896 356.743 406.913 356.658 406.981 356.607C411.169 354.086 411.577 348.362 411.543 346.028C411.492 341.377 410.267 336.777 407.969 332.74C403.849 325.466 396.716 320.525 389.822 315.738L388.392 314.75C381.345 309.844 373.548 303.881 370.382 295.244C370.348 295.176 370.399 295.091 370.467 295.057C370.535 295.023 370.62 295.074 370.654 295.142C373.804 303.694 381.549 309.622 388.562 314.512L389.992 315.5C396.921 320.304 404.07 325.261 408.241 332.587C410.556 336.675 411.799 341.309 411.85 346.011C411.867 348.396 411.458 354.256 407.134 356.845C407.1 356.862 407.083 356.879 407.049 356.879Z" fill="#7D97F4"/>
<path d="M404.189 349.264C404.172 349.264 404.172 349.264 404.155 349.264C404.07 349.247 404.019 349.179 404.036 349.094C404.972 344.358 404.836 340.116 403.627 336.505C401.448 329.98 395.644 325.21 390.843 321.803C389.873 321.121 388.886 320.423 387.915 319.759C383.455 316.692 378.842 313.506 375.505 309.179C375.454 309.111 375.471 309.026 375.522 308.975C375.591 308.924 375.676 308.941 375.727 309.009C379.046 313.302 383.642 316.471 388.085 319.52C389.056 320.184 390.043 320.866 391.013 321.564C395.848 325.006 401.704 329.793 403.9 336.402C405.125 340.065 405.262 344.341 404.325 349.145C404.308 349.213 404.257 349.264 404.189 349.264Z" fill="#7D97F4"/>
<path d="M364.967 375.738C364.967 375.738 353.375 364.682 347.655 357.356C344.574 353.404 343.604 348.191 345.033 343.37C347.638 334.58 352.268 325.483 352.694 324.069C353.341 321.905 366.346 321.99 366.346 321.99C366.346 321.99 391.949 338.617 401.992 366.777L390.706 370.304C390.706 370.304 384.016 359.077 377.428 351.956C377.428 351.956 388.851 367.067 389.259 373.251L364.967 375.738Z" fill="url(#paint8_linear_1239:2)"/>
<path d="M349.205 308.958C349.341 309.418 354.652 323.66 354.925 323.881C355.197 324.12 362.364 324.494 365.751 322.195L357.376 305.789L349.205 308.958Z" fill="url(#paint9_linear_1239:2)"/>
<path d="M341.34 376.556L349.868 368.328L361.665 373.319C361.665 373.319 373.394 375.142 380.118 373.319C386.842 371.496 386.842 371.496 386.842 371.496L402.027 366.76L404.41 373.506C405.023 375.21 404.41 377.118 402.929 378.174C401.618 379.111 400.069 380.133 399.099 380.559C397.107 381.428 349.817 379.946 349.817 379.946L341.34 376.556Z" fill="url(#paint10_linear_1239:2)"/>
<path d="M350.584 285.398C350.584 285.398 344.438 288.413 340.676 297.766C336.914 307.118 340.353 311.139 344.404 311.496C348.456 311.854 354.465 311.411 360.474 305.176C366.483 298.924 358.585 281.769 350.584 285.398Z" fill="url(#paint11_linear_1239:2)"/>
<path d="M355.911 300.542C355.911 300.542 359.912 286.948 348.098 287.459L345.425 289.554C345.425 289.554 340.676 282.416 347.587 278.481C354.499 274.546 365.291 277.084 368.866 286.505C372.441 295.926 371.011 302.212 366.244 307.084C361.478 311.956 359.095 306.88 359.095 306.88C359.095 306.88 361.597 302.433 360.354 300.202C359.112 297.97 356.694 300.883 356.694 300.883L355.911 300.542Z" fill="url(#paint12_linear_1239:2)"/>
<path d="M355.945 302.927C355.945 302.927 361.444 297.067 363.452 301.275C365.461 305.483 357.988 306.505 355.162 306.675L355.945 302.927Z" fill="url(#paint13_linear_1239:2)"/>
<path d="M373.581 380.44C373.547 380.44 373.513 380.44 373.462 380.44L324.027 380.389C322.802 380.389 321.814 379.401 321.814 378.174C321.814 376.948 322.819 375.942 324.027 375.959L373.462 376.011C374.688 376.011 375.675 376.999 375.675 378.225C375.692 379.401 374.756 380.372 373.581 380.44Z" fill="url(#paint14_linear_1239:2)"/>
<path d="M279.598 335.517H320.777C323.807 335.517 326.581 337.271 327.875 340.014L346.907 380.406H295.736C293.778 380.406 292.025 379.213 291.293 377.39L276.534 340.014C275.683 337.851 277.266 335.517 279.598 335.517Z" fill="url(#paint15_linear_1239:2)"/>
<path d="M429.963 462.62C429.963 462.62 430.474 465.499 430.695 468.923C430.78 470.388 429.708 471.649 428.244 471.785C423.188 472.279 411.663 473.182 404.309 472.126C403.271 471.973 402.863 470.712 403.629 469.997C406.659 467.169 413.978 461.666 426.048 460.474L429.963 462.62Z" fill="url(#paint16_linear_1239:2)"/>
<path d="M432.464 456.13L429.911 462.399C429.553 463.25 428.685 463.796 427.766 463.693C427.136 463.625 426.404 463.506 425.672 463.284C424.225 462.842 423.408 461.308 423.851 459.86L425.774 453.404L432.464 456.13Z" fill="url(#paint17_linear_1239:2)"/>
<path d="M476.215 467.612C476.215 467.612 471.091 471.905 469.099 477.407C468.555 478.923 469.712 480.508 471.312 480.508H481.85C483.399 480.508 484.573 479.111 484.301 477.595C483.637 473.813 481.713 467.629 476.215 467.612Z" fill="url(#paint18_linear_1239:2)"/>
<path d="M482.564 462.041C482.564 462.041 481.526 466.624 480.726 469.656C480.59 470.201 479.994 470.508 479.466 470.32C477.866 469.741 476.572 469.503 475.636 469.622C475.193 469.673 474.819 469.315 474.819 468.872L474.717 461.257L482.564 462.041Z" fill="url(#paint19_linear_1239:2)"/>
<path d="M455.31 358.89L424.141 454.034C424.141 454.034 430.116 457.952 432.958 457.782L469.966 381.326C469.966 381.326 476.435 428.447 473.303 462.262L483.908 463.08C483.908 463.08 501.152 376.641 488.096 347.033L455.31 358.89Z" fill="url(#paint20_linear_1239:2)"/>
<path d="M469.796 380.508C469.813 380.508 469.813 380.508 469.83 380.508C470.001 380.491 470.12 380.338 470.086 380.167L468.877 370.559C468.86 370.389 468.707 370.287 468.537 370.304C468.366 370.321 468.247 370.474 468.281 370.644L469.49 380.252C469.507 380.389 469.643 380.508 469.796 380.508Z" fill="url(#paint21_linear_1239:2)"/>
<path d="M449.471 275.176C449.471 275.176 474.716 277.425 471.141 295.415C471.141 295.415 485.1 321.701 491.62 352.655C491.824 353.66 491.16 354.648 490.139 354.818L448.092 362.024C446.935 362.229 445.811 361.496 445.522 360.355L435.478 321.496L431.563 339.554L419.119 336.317L429.588 283.234C429.605 283.251 431.069 275.5 449.471 275.176Z" fill="url(#paint22_linear_1239:2)"/>
<path d="M435.275 319.776C435.292 319.776 435.326 319.776 435.343 319.776C435.513 319.742 435.615 319.571 435.581 319.401L432.074 303.302C432.04 303.132 431.87 303.03 431.7 303.064C431.53 303.098 431.428 303.268 431.462 303.438L434.968 319.537C435.002 319.673 435.122 319.776 435.275 319.776Z" fill="url(#paint23_linear_1239:2)"/>
<path d="M437.811 367.697C439.138 366.965 440.687 366.76 442.151 367.135L445.079 367.868C445.709 368.021 446.322 367.595 446.39 366.965L449.42 339.997C453.199 341.803 458.664 341.581 460.468 341.445L453.506 373.234H429.129L437.811 367.697Z" fill="url(#paint24_linear_1239:2)"/>
<path d="M373.021 309.214L373.753 306.76C374.179 305.346 375.217 304.205 376.579 303.66L389.908 298.294C389.908 298.294 390.113 296.59 387.099 295.415C384.086 294.256 384.784 290.866 384.784 290.866C384.784 290.866 388.904 292.74 394.947 295.738C398.403 297.442 400.343 300.457 401.365 302.723L431.563 339.571L428.023 342.007C423.358 345.21 416.941 343.643 414.302 338.634L397.943 307.237C389.721 309.708 381.414 310.185 373.021 309.214Z" fill="url(#paint25_linear_1239:2)"/>
<path d="M441.284 257.987L449.047 279.742C449.047 279.742 442.169 285.125 437.148 283.302L433.232 270.832C433.249 270.815 436.245 255.585 441.284 257.987Z" fill="url(#paint26_linear_1239:2)"/>
<path d="M418.115 250.168C418.115 250.508 425.588 271.36 425.588 271.36L437.402 266.829L433.249 246.011C433.249 246.011 418.115 244.563 418.115 250.168Z" fill="url(#paint27_linear_1239:2)"/>
<path d="M431.172 251.088L434.22 261.871C434.254 262.008 434.271 262.144 434.271 262.297C434.271 263.183 434.049 266.198 430.968 265.789C428.176 265.415 425.606 265.108 423.989 265.875C423.257 266.215 422.916 267.067 423.189 267.817C423.87 269.708 425.487 273.95 427.444 277.425C427.836 278.123 428.721 278.396 429.453 278.072C431.666 277.067 436.296 274.801 439.582 272.11C440.024 271.752 440.246 271.173 440.144 270.611C439.633 267.851 438.084 259.452 438.016 257.05C437.948 254.784 440.484 253.064 441.591 252.416C441.948 252.212 442.22 251.854 442.323 251.445C442.68 249.997 442.969 246.709 438.782 245.977C437.897 245.824 437.335 244.989 437.505 244.12C437.863 242.382 437.743 239.827 434.441 238.89C431.087 237.936 428.977 239.946 427.904 241.497C427.479 242.127 426.661 242.331 425.963 242.008C425.572 241.837 425.095 241.82 424.568 242.263C423.87 242.842 422.814 242.672 422.321 241.922C421.35 240.474 419.563 239.043 416.567 240.014C411.239 241.735 411.494 247.902 413.435 251.241C415.392 254.58 421.061 252.382 423.751 250.168C425.793 248.481 428.908 249.486 430.287 250.066C430.73 250.253 431.053 250.628 431.172 251.088Z" fill="url(#paint28_linear_1239:2)"/>
<path d="M439.072 261.002C439.072 261.002 435.923 255.023 438 253.149C440.093 251.275 443.617 251.582 443.532 256.249C443.43 262.059 439.072 261.002 439.072 261.002Z" fill="url(#paint29_linear_1239:2)"/>
<path d="M458.017 341.837C459.736 341.837 460.962 341.701 461.098 341.684L461.319 341.667L470.511 298.771C470.545 298.6 470.443 298.43 470.273 298.396C470.103 298.362 469.933 298.464 469.899 298.634L460.808 341.087C459.446 341.207 452.127 341.701 448.279 338.958L456.246 301.684L454.578 298.549C454.493 298.396 454.306 298.345 454.152 298.413C453.999 298.498 453.948 298.685 454.016 298.839L455.565 301.769L447.564 339.213L447.718 339.333C450.526 341.445 455.004 341.837 458.017 341.837Z" fill="url(#paint30_linear_1239:2)"/>
<path d="M405.52 379.435H454.171V374.409H405.52C406.558 374.409 406.558 379.435 405.52 379.435Z" fill="#91B3FA"/>
<path d="M454.017 379.435C454.119 379.435 454.187 379.367 454.187 379.264V374.58C454.187 374.494 454.119 374.409 454.017 374.409H404.225C404.123 374.409 404.055 374.341 404.055 374.239V373.438C404.055 373.336 404.123 373.268 404.225 373.268H456.979C458.137 373.268 459.073 374.205 459.073 375.363V378.583C459.073 379.673 458.188 380.559 457.098 380.559H404.225C404.123 380.559 404.055 380.491 404.055 380.389V379.588C404.055 379.503 404.123 379.418 404.225 379.418H454.017V379.435Z" fill="url(#paint31_linear_1239:2)"/>
<path d="M250.644 475.073C250.44 475.073 250.219 475.022 250.015 474.937C249.197 474.562 248.823 473.523 249.18 472.637L282.767 387.339C283.124 386.453 284.06 386.045 284.878 386.419C285.695 386.794 286.069 387.833 285.712 388.719L252.125 474.017C251.853 474.681 251.274 475.073 250.644 475.073Z" fill="#7D97F4"/>
<path d="M288.486 475.073C287.873 475.073 287.277 474.681 287.022 474.017L253.436 388.719C253.078 387.833 253.47 386.794 254.27 386.419C255.087 386.045 256.023 386.453 256.381 387.339L289.967 472.637C290.324 473.523 289.933 474.562 289.133 474.937C288.929 475.022 288.707 475.073 288.486 475.073Z" fill="#7D97F4"/>
<path d="M410.404 473.199C410.2 473.199 409.979 473.148 409.774 473.063C408.957 472.688 408.583 471.649 408.94 470.763L442.526 385.465C442.884 384.58 443.82 384.171 444.637 384.545C445.454 384.92 445.829 385.959 445.471 386.845L411.885 472.143C411.613 472.807 411.017 473.199 410.404 473.199Z" fill="#7D97F4"/>
<path d="M448.246 473.199C447.633 473.199 447.037 472.807 446.782 472.143L413.196 386.845C412.838 385.959 413.23 384.92 414.03 384.545C414.847 384.171 415.783 384.58 416.14 385.465L449.727 470.763C450.084 471.649 449.693 472.688 448.893 473.063C448.671 473.165 448.45 473.199 448.246 473.199Z" fill="#7D97F4"/>
<path d="M461.251 382.825C461.37 382.263 461.2 381.683 460.791 381.24C460.366 380.798 459.753 380.542 459.089 380.542H236.752C235.884 380.542 235.084 380.917 234.625 381.564C234.165 382.194 234.097 382.995 234.454 383.677L236.872 388.208C237.416 389.247 238.625 389.912 239.936 389.912H457.574C458.8 389.912 459.855 389.162 460.076 388.106L461.251 382.825Z" fill="#7D97F4"/>
<g opacity="0.3">
<path opacity="0.3" d="M416.974 168.754C416.702 168.345 416.77 167.783 417.144 167.459C417.996 166.744 418.881 166.045 419.8 165.415C420.243 165.108 420.856 165.211 421.162 165.653C421.162 165.653 421.162 165.671 421.179 165.671C421.485 166.113 421.366 166.71 420.941 167.033C420.072 167.647 419.238 168.294 418.421 168.975C418.013 169.333 417.383 169.282 417.042 168.856C417.008 168.805 416.991 168.771 416.974 168.754ZM424.073 163.984C424.056 163.95 424.039 163.916 424.005 163.882C423.749 163.405 423.937 162.809 424.43 162.553C425.418 162.042 426.439 161.565 427.46 161.139C427.954 160.935 428.533 161.173 428.737 161.667C428.941 162.161 428.703 162.74 428.209 162.945C427.239 163.354 426.269 163.797 425.333 164.291C424.907 164.529 424.362 164.393 424.073 163.984ZM432.057 160.901C431.989 160.815 431.954 160.713 431.92 160.594C431.784 160.066 432.091 159.538 432.618 159.401C433.691 159.129 434.797 158.89 435.887 158.703C436.414 158.618 436.925 158.976 437.027 159.504C437.112 160.032 436.755 160.543 436.227 160.645C435.189 160.815 434.133 161.054 433.112 161.309C432.703 161.412 432.295 161.241 432.057 160.901ZM440.534 159.691C440.432 159.538 440.364 159.367 440.364 159.163C440.347 158.618 440.772 158.175 441.317 158.158C442.424 158.124 443.564 158.141 444.671 158.209C445.215 158.243 445.624 158.703 445.59 159.248C445.556 159.793 445.096 160.202 444.551 160.168C443.496 160.117 442.424 160.1 441.368 160.134C441.028 160.134 440.721 159.964 440.534 159.691ZM449.063 160.389C448.926 160.185 448.858 159.912 448.909 159.64C449.011 159.112 449.522 158.754 450.067 158.873C451.156 159.095 452.246 159.35 453.318 159.657C453.846 159.81 454.135 160.355 453.999 160.866C453.846 161.395 453.301 161.684 452.791 161.548C451.769 161.258 450.731 161.003 449.692 160.798C449.42 160.747 449.199 160.594 449.063 160.389ZM457.217 162.962C457.029 162.689 456.995 162.332 457.131 162.008C457.353 161.514 457.931 161.292 458.425 161.514C459.447 161.957 460.451 162.468 461.421 162.996C461.898 163.251 462.068 163.848 461.813 164.325C461.557 164.802 460.962 164.972 460.485 164.717C459.566 164.205 458.595 163.728 457.642 163.303C457.455 163.234 457.319 163.115 457.217 162.962ZM479.397 191.429C479.329 191.309 479.261 191.19 479.244 191.037C479.057 189.998 478.836 188.941 478.563 187.919C478.427 187.391 478.734 186.863 479.261 186.727C479.789 186.59 480.317 186.897 480.453 187.425C480.742 188.498 480.981 189.606 481.168 190.696C481.253 191.224 480.895 191.735 480.368 191.837C479.976 191.906 479.602 191.735 479.397 191.429ZM464.604 167.289C464.383 166.948 464.366 166.488 464.621 166.148C464.945 165.705 465.558 165.619 466 165.943C466.886 166.608 467.771 167.323 468.588 168.056C468.996 168.413 469.03 169.044 468.673 169.435C468.315 169.844 467.686 169.878 467.294 169.521C466.511 168.822 465.677 168.141 464.826 167.51C464.741 167.459 464.656 167.374 464.604 167.289ZM476.997 183.217C476.963 183.166 476.929 183.098 476.895 183.047C476.486 182.076 476.027 181.105 475.533 180.168C475.278 179.691 475.465 179.095 475.942 178.839C476.418 178.584 477.014 178.771 477.27 179.248C477.78 180.236 478.257 181.258 478.699 182.28C478.904 182.774 478.665 183.354 478.172 183.575C477.746 183.745 477.253 183.592 476.997 183.217ZM470.835 173.149C470.562 172.74 470.631 172.178 471.005 171.855C471.414 171.497 472.044 171.548 472.384 171.974C473.099 172.826 473.797 173.711 474.444 174.614C474.444 174.614 474.444 174.631 474.461 174.631C474.767 175.074 474.648 175.671 474.222 175.977C473.78 176.284 473.167 176.182 472.861 175.739C472.248 174.87 471.584 174.035 470.903 173.234C470.869 173.2 470.852 173.166 470.835 173.149Z" fill="#7D97F4"/>
<path opacity="0.3" d="M479.942 198.311C479.839 198.158 479.771 197.953 479.771 197.749C479.771 197.238 479.771 196.727 479.754 196.216C479.737 195.67 480.163 195.227 480.708 195.21C481.252 195.193 481.695 195.619 481.712 196.164C481.729 196.693 481.729 197.238 481.729 197.783C481.729 198.328 481.286 198.754 480.742 198.754C480.418 198.737 480.129 198.566 479.942 198.311Z" fill="#7D97F4"/>
</g>
<g opacity="0.3">
<path opacity="0.3" d="M467.974 225.773C467.702 225.381 467.753 224.836 468.11 224.512C468.485 224.171 468.842 223.796 469.2 223.439C469.574 223.047 470.204 223.047 470.596 223.422C470.987 223.796 470.987 224.427 470.613 224.819C470.238 225.21 469.847 225.585 469.472 225.943C469.081 226.318 468.451 226.301 468.076 225.909C468.042 225.858 468.008 225.807 467.974 225.773Z" fill="#7D97F4"/>
<path opacity="0.3" d="M410.112 219.52C409.857 219.146 409.602 218.771 409.363 218.379C409.074 217.919 409.21 217.306 409.67 217.016C410.129 216.727 410.742 216.863 411.032 217.323C411.593 218.209 412.189 219.077 412.819 219.895C413.142 220.321 413.057 220.951 412.632 221.275C412.206 221.599 411.576 221.514 411.253 221.088C410.844 220.577 410.47 220.048 410.112 219.52ZM406.895 213.813C406.861 213.762 406.844 213.711 406.81 213.66C406.35 212.655 405.942 211.633 405.567 210.611C405.38 210.1 405.652 209.537 406.163 209.35C406.674 209.163 407.235 209.435 407.423 209.946C407.78 210.917 408.172 211.905 408.597 212.842C408.819 213.336 408.597 213.916 408.104 214.137C407.678 214.359 407.15 214.205 406.895 213.813ZM414.623 224.989C414.368 224.614 414.402 224.086 414.743 223.745C415.134 223.37 415.747 223.37 416.138 223.745C416.87 224.478 417.637 225.193 418.437 225.875C418.845 226.232 418.896 226.846 418.556 227.255C418.198 227.663 417.585 227.715 417.177 227.374C416.343 226.658 415.526 225.909 414.76 225.142C414.692 225.091 414.657 225.04 414.623 224.989ZM404.256 205.807C404.188 205.704 404.137 205.585 404.103 205.449C403.882 204.376 403.695 203.285 403.558 202.195C403.49 201.65 403.882 201.173 404.41 201.105C404.954 201.037 405.431 201.428 405.499 201.957C405.618 202.996 405.806 204.035 406.01 205.04C406.129 205.568 405.789 206.096 405.244 206.198C404.869 206.301 404.478 206.13 404.256 205.807ZM421.177 230.253C420.956 229.946 420.939 229.52 421.16 229.18C421.45 228.72 422.062 228.583 422.522 228.873C423.39 229.435 424.309 229.963 425.229 230.44C425.705 230.696 425.893 231.292 425.637 231.769C425.382 232.246 424.786 232.433 424.31 232.178C423.339 231.667 422.386 231.122 421.45 230.525C421.348 230.457 421.262 230.372 421.177 230.253ZM428.752 233.967C428.582 233.711 428.531 233.387 428.633 233.081C428.821 232.57 429.382 232.297 429.893 232.485C430.88 232.842 431.885 233.149 432.872 233.422C433.4 233.558 433.706 234.103 433.57 234.631C433.434 235.159 432.889 235.466 432.361 235.33C431.306 235.04 430.25 234.716 429.212 234.341C429.025 234.256 428.855 234.12 428.752 233.967ZM436.923 235.926C436.787 235.738 436.736 235.5 436.753 235.244C436.821 234.699 437.315 234.324 437.843 234.393C438.881 234.529 439.92 234.614 440.958 234.648C441.503 234.665 441.928 235.125 441.894 235.67C441.877 236.215 441.418 236.641 440.873 236.607C439.783 236.556 438.677 236.471 437.587 236.335C437.332 236.318 437.077 236.147 436.923 235.926ZM445.35 236.062C445.265 235.926 445.197 235.772 445.18 235.602C445.129 235.057 445.52 234.58 446.065 234.529C447.103 234.427 448.142 234.29 449.163 234.103C449.691 234.001 450.201 234.358 450.304 234.887C450.406 235.415 450.048 235.926 449.52 236.028C448.448 236.215 447.342 236.369 446.252 236.471C445.878 236.522 445.537 236.352 445.35 236.062ZM453.589 234.341C453.538 234.273 453.504 234.188 453.47 234.086C453.3 233.575 453.589 233.013 454.1 232.842C455.087 232.519 456.074 232.144 457.028 231.735C457.521 231.531 458.1 231.752 458.321 232.263C458.526 232.757 458.304 233.336 457.794 233.558C456.789 233.984 455.751 234.376 454.712 234.716C454.287 234.853 453.827 234.682 453.589 234.341ZM461.249 230.849C461.232 230.832 461.232 230.815 461.215 230.798C460.943 230.338 461.096 229.725 461.556 229.452C462.22 229.06 462.867 228.652 463.496 228.209C463.718 228.055 463.956 227.902 464.177 227.732C464.62 227.425 465.233 227.527 465.539 227.97C465.863 228.413 465.743 229.026 465.318 229.333C465.079 229.503 464.841 229.674 464.603 229.827C463.939 230.287 463.258 230.713 462.56 231.122C462.118 231.394 461.539 231.275 461.249 230.849Z" fill="#7D97F4"/>
<path opacity="0.3" d="M403.457 197.391C403.355 197.238 403.287 197.033 403.287 196.829C403.287 196.301 403.321 195.756 403.338 195.21C403.372 194.665 403.832 194.256 404.377 194.291C404.921 194.325 405.33 194.785 405.296 195.33C405.262 195.841 405.245 196.352 405.245 196.863C405.245 197.408 404.785 197.834 404.24 197.834C403.917 197.817 403.628 197.647 403.457 197.391Z" fill="#7D97F4"/>
</g>
<path d="M413.62 192.076C413.569 192.263 413.637 192.468 413.791 192.587L418.336 195.841C418.182 198.447 418.438 201.105 419.153 203.694L415.374 207.817C415.237 207.953 415.22 208.175 415.306 208.345L418.506 214.239C418.591 214.41 418.795 214.512 418.983 214.478L424.498 213.558C426.285 215.568 428.362 217.238 430.626 218.532L430.865 224.12C430.865 224.307 431.001 224.478 431.188 224.546L437.606 226.454C437.793 226.505 437.997 226.437 438.116 226.284L441.368 221.735C443.972 221.888 446.628 221.633 449.215 220.917L453.335 224.699C453.471 224.836 453.692 224.853 453.862 224.767L459.752 221.565C459.923 221.48 460.025 221.275 459.991 221.088L459.071 215.568C461.08 213.779 462.748 211.701 464.042 209.435L469.626 209.197C469.813 209.197 469.983 209.061 470.051 208.873L471.958 202.451C472.009 202.263 471.941 202.059 471.788 201.94L467.242 198.686C467.396 196.079 467.14 193.422 466.425 190.832L470.204 186.71C470.341 186.573 470.358 186.352 470.273 186.182L467.072 180.287C466.987 180.117 466.783 180.015 466.596 180.049L461.08 180.969C459.293 178.958 457.216 177.289 454.952 175.994L454.714 170.406C454.714 170.219 454.577 170.049 454.39 169.981L447.973 168.073C447.785 168.021 447.581 168.09 447.462 168.243L444.21 172.791C441.606 172.638 438.95 172.894 436.363 173.609L432.243 169.827C432.107 169.691 431.886 169.674 431.716 169.759L425.826 172.962C425.655 173.047 425.553 173.251 425.587 173.439L426.507 178.958C424.498 180.747 422.83 182.826 421.536 185.091L415.952 185.33C415.765 185.33 415.595 185.466 415.527 185.653L413.62 192.076Z" fill="#7D97F4"/>
<path d="M437.214 201.037C435.358 198.328 435.733 194.58 438.218 192.28C440.959 189.759 445.214 189.946 447.734 192.672C448.959 194.001 449.589 195.722 449.504 197.51C449.436 199.316 448.653 200.969 447.342 202.195C444.601 204.716 440.346 204.529 437.826 201.803C437.588 201.565 437.384 201.309 437.214 201.037ZM447.053 194.359C446.917 194.154 446.746 193.95 446.576 193.762C444.653 191.667 441.367 191.531 439.273 193.456C437.179 195.381 437.043 198.669 438.967 200.764C440.89 202.86 444.176 202.996 446.27 201.071C447.291 200.134 447.87 198.856 447.938 197.476C447.989 196.352 447.666 195.262 447.053 194.359Z" fill="#BDD0FB"/>
<path d="M429.247 206.624C428.924 206.164 428.634 205.67 428.362 205.176C428.277 205.023 428.192 204.853 428.106 204.699C427.715 203.899 427.374 203.081 427.119 202.246C427.119 202.229 427.119 202.229 427.102 202.212C427.085 202.178 427.085 202.144 427.068 202.11C427.051 202.042 427.034 201.991 427.017 201.923C426.966 201.752 427.034 201.582 427.17 201.48C427.204 201.463 427.238 201.446 427.289 201.429C427.494 201.36 427.715 201.48 427.783 201.701C428.089 202.774 428.532 203.813 429.06 204.802C431.715 209.725 436.635 212.655 441.844 213.03C444.738 213.234 447.717 212.655 450.458 211.173C450.934 210.917 451.394 210.628 451.836 210.321C454.832 208.277 457.011 205.296 458.05 201.786C459.258 197.749 458.799 193.473 456.807 189.776C452.654 182.127 443.07 179.265 435.426 183.422C434.95 183.677 434.49 183.95 434.064 184.257C432.158 185.551 430.558 187.255 429.383 189.248C429.349 189.299 429.315 189.333 429.264 189.367C429.145 189.452 428.975 189.452 428.838 189.384C428.651 189.265 428.583 189.027 428.702 188.839C429.945 186.744 431.613 184.955 433.622 183.592C434.081 183.285 434.558 182.979 435.052 182.723C443.087 178.362 453.147 181.36 457.505 189.401C459.616 193.285 460.076 197.783 458.816 202.025C457.726 205.721 455.428 208.856 452.279 210.986C451.819 211.309 451.326 211.599 450.815 211.871C446.917 213.984 442.44 214.444 438.201 213.183C434.507 212.076 431.375 209.776 429.247 206.624Z" fill="#BDD0FB"/>
<g opacity="0.3">
<path opacity="0.3" d="M376.716 155.585C376.563 155.364 376.58 155.074 376.75 154.853C377.074 154.461 377.414 154.069 377.772 153.677C377.993 153.439 378.385 153.422 378.623 153.643C378.878 153.865 378.878 154.257 378.657 154.495C378.317 154.853 377.993 155.228 377.687 155.602C377.482 155.858 377.091 155.892 376.836 155.688C376.801 155.688 376.75 155.637 376.716 155.585Z" fill="#7D97F4"/>
<path opacity="0.3" d="M380.002 152.263C379.831 152.008 379.865 151.667 380.121 151.463C380.802 150.884 381.517 150.355 382.249 149.844C382.402 149.742 382.555 149.64 382.708 149.538C382.998 149.35 383.372 149.453 383.542 149.708C383.73 149.998 383.645 150.372 383.372 150.543C383.219 150.645 383.066 150.747 382.93 150.832C382.232 151.309 381.551 151.821 380.904 152.366C380.649 152.587 380.257 152.553 380.053 152.298C380.036 152.298 380.019 152.28 380.002 152.263ZM385.279 148.839C385.262 148.822 385.245 148.788 385.228 148.771C385.075 148.464 385.211 148.107 385.5 147.953C386.47 147.476 387.475 147.068 388.479 146.71C388.803 146.608 389.143 146.778 389.245 147.085C389.347 147.408 389.194 147.749 388.871 147.851C387.9 148.192 386.947 148.584 386.028 149.027C385.772 149.18 385.449 149.078 385.279 148.839ZM391.237 146.778C391.186 146.71 391.169 146.642 391.152 146.556C391.084 146.233 391.288 145.909 391.628 145.841C392.684 145.62 393.756 145.466 394.829 145.381C395.169 145.347 395.459 145.602 395.476 145.943C395.51 146.284 395.254 146.574 394.914 146.591C393.892 146.676 392.871 146.829 391.867 147.033C391.611 147.085 391.373 146.982 391.237 146.778ZM397.518 146.267C397.45 146.165 397.416 146.028 397.416 145.909C397.433 145.568 397.706 145.313 398.046 145.33C399.118 145.381 400.208 145.483 401.263 145.654C401.587 145.705 401.825 146.028 401.757 146.352C401.706 146.676 401.383 146.914 401.059 146.846C400.055 146.676 399.016 146.574 397.995 146.539C397.791 146.522 397.62 146.42 397.518 146.267ZM403.732 147.289C403.63 147.136 403.595 146.965 403.647 146.778C403.749 146.454 404.072 146.267 404.396 146.369C405.434 146.676 406.438 147.051 407.426 147.476C407.732 147.613 407.868 147.97 407.749 148.277C407.613 148.584 407.255 148.72 406.949 148.601C406.013 148.192 405.042 147.834 404.055 147.545C403.919 147.493 403.8 147.408 403.732 147.289ZM409.502 149.793C409.366 149.606 409.366 149.35 409.485 149.146C409.656 148.856 410.03 148.754 410.32 148.924C411.239 149.47 412.141 150.083 412.992 150.73C413.265 150.935 413.299 151.309 413.094 151.582C412.89 151.855 412.516 151.889 412.243 151.684C411.426 151.054 410.575 150.475 409.69 149.964C409.622 149.93 409.554 149.861 409.502 149.793ZM414.49 153.643C414.337 153.405 414.354 153.081 414.558 152.877C414.797 152.638 415.171 152.638 415.409 152.877C416.175 153.626 416.89 154.444 417.554 155.279C417.759 155.551 417.708 155.926 417.452 156.131C417.197 156.335 416.805 156.301 416.601 156.028C415.971 155.228 415.273 154.444 414.558 153.729C414.541 153.694 414.524 153.677 414.49 153.643ZM419.852 161.395C419.835 161.361 419.818 161.326 419.801 161.309C419.444 160.509 419.035 159.708 418.576 158.924C418.508 158.805 418.439 158.686 418.371 158.584C418.201 158.294 418.286 157.919 418.576 157.749C418.865 157.579 419.24 157.664 419.41 157.953C419.478 158.073 419.563 158.192 419.631 158.328C420.108 159.129 420.533 159.981 420.908 160.832C421.044 161.139 420.908 161.497 420.601 161.633C420.329 161.718 420.023 161.633 419.852 161.395Z" fill="#7D97F4"/>
</g>
<g opacity="0.3">
<path opacity="0.3" d="M375.541 186.556C375.354 186.284 375.422 185.909 375.694 185.722C375.966 185.534 376.341 185.602 376.545 185.875C377.124 186.71 377.754 187.493 378.435 188.243C378.656 188.498 378.639 188.873 378.384 189.095C378.128 189.316 377.754 189.299 377.532 189.044C376.818 188.26 376.154 187.425 375.541 186.556ZM373.924 183.916C373.907 183.899 373.907 183.882 373.89 183.865C373.396 182.928 372.953 181.957 372.562 180.969C372.443 180.662 372.596 180.304 372.902 180.185C373.209 180.066 373.566 180.219 373.685 180.526C374.043 181.463 374.468 182.4 374.945 183.285C375.098 183.575 374.996 183.95 374.69 184.103C374.434 184.256 374.094 184.171 373.924 183.916ZM379.677 191.173C379.524 190.952 379.541 190.645 379.728 190.44C379.95 190.185 380.324 190.168 380.58 190.389C381.346 191.054 382.146 191.667 382.98 192.246C383.252 192.434 383.337 192.808 383.15 193.081C382.963 193.354 382.588 193.439 382.316 193.251C381.448 192.655 380.597 192.008 379.797 191.309C379.745 191.258 379.711 191.207 379.677 191.173ZM371.677 178.124C371.643 178.073 371.608 178.004 371.591 177.936C371.336 176.914 371.132 175.858 370.996 174.819C370.962 174.478 371.183 174.188 371.523 174.137C371.847 174.103 372.153 174.325 372.204 174.665C372.323 175.67 372.528 176.676 372.766 177.647C372.851 177.97 372.647 178.294 372.323 178.379C372.085 178.447 371.813 178.328 371.677 178.124ZM384.818 194.648C384.699 194.478 384.682 194.239 384.784 194.035C384.937 193.728 385.295 193.626 385.601 193.779C386.504 194.239 387.423 194.648 388.376 194.989C388.7 195.108 388.853 195.449 388.734 195.773C388.614 196.079 388.274 196.25 387.95 196.13C386.963 195.773 385.976 195.33 385.04 194.853C384.937 194.785 384.869 194.716 384.818 194.648ZM390.623 196.778C390.538 196.642 390.487 196.471 390.538 196.301C390.623 195.977 390.947 195.773 391.27 195.841C392.257 196.079 393.262 196.25 394.249 196.352C394.589 196.386 394.828 196.693 394.777 197.016C394.743 197.357 394.436 197.596 394.113 197.544C393.057 197.425 392.019 197.238 390.981 196.999C390.827 196.999 390.708 196.897 390.623 196.778ZM396.785 197.459C396.717 197.357 396.683 197.255 396.683 197.119C396.683 196.778 396.956 196.505 397.279 196.505C398.283 196.488 399.305 196.42 400.309 196.284C400.633 196.233 400.939 196.471 400.99 196.812C401.041 197.153 400.803 197.442 400.462 197.493C399.424 197.63 398.351 197.715 397.296 197.715C397.075 197.732 396.888 197.63 396.785 197.459Z" fill="#7D97F4"/>
<path opacity="0.3" d="M370.911 171.94C370.843 171.838 370.809 171.718 370.809 171.599C370.809 171.088 370.826 170.56 370.843 170.049C370.86 169.708 371.149 169.453 371.49 169.47C371.83 169.487 372.085 169.776 372.068 170.117C372.034 170.611 372.034 171.105 372.034 171.599C372.034 171.94 371.762 172.212 371.421 172.212C371.2 172.212 371.013 172.11 370.911 171.94Z" fill="#7D97F4"/>
</g>
<path d="M377.669 167.953C377.635 168.073 377.686 168.209 377.788 168.294L380.835 170.475C380.733 172.212 380.903 173.984 381.38 175.722L378.86 178.481C378.775 178.584 378.758 178.72 378.809 178.839L380.937 182.791C381.005 182.911 381.124 182.962 381.261 182.945L384.938 182.331C386.129 183.677 387.525 184.785 389.04 185.653L389.193 189.384C389.193 189.52 389.295 189.623 389.415 189.674L393.704 190.951C393.823 190.986 393.96 190.934 394.045 190.832L396.224 187.783C397.96 187.885 399.73 187.715 401.467 187.238L404.225 189.759C404.327 189.844 404.463 189.861 404.582 189.81L408.531 187.681C408.65 187.612 408.702 187.493 408.685 187.357L408.072 183.677C409.417 182.485 410.523 181.088 411.391 179.572L415.119 179.418C415.255 179.418 415.358 179.316 415.409 179.197L416.685 174.904C416.719 174.785 416.668 174.648 416.566 174.563L413.519 172.383C413.621 170.645 413.451 168.873 412.974 167.136L415.494 164.376C415.579 164.274 415.596 164.137 415.545 164.018L413.417 160.066C413.349 159.947 413.23 159.895 413.093 159.912L409.417 160.526C408.225 159.18 406.829 158.073 405.314 157.204L405.161 153.473C405.161 153.337 405.059 153.234 404.939 153.183L400.65 151.906C400.531 151.872 400.394 151.923 400.309 152.025L398.13 155.074C396.394 154.972 394.624 155.142 392.887 155.619L390.13 153.098C390.027 153.013 389.891 152.996 389.772 153.047L385.823 155.177C385.704 155.245 385.652 155.364 385.669 155.5L386.282 159.18C384.937 160.372 383.831 161.769 382.963 163.286L379.235 163.439C379.099 163.439 378.996 163.541 378.945 163.66L377.669 167.953Z" fill="#7D97F4"/>
<path d="M393.381 173.984C392.836 173.166 392.547 172.212 392.598 171.224C392.649 169.998 393.176 168.873 394.079 168.038C395.934 166.318 398.845 166.437 400.564 168.311C402.284 170.185 402.164 173.081 400.292 174.802C399.39 175.636 398.215 176.062 396.989 176.011C395.764 175.96 394.64 175.432 393.806 174.529C393.653 174.359 393.5 174.171 393.381 173.984ZM399.969 169.521C399.883 169.384 399.781 169.248 399.662 169.129C398.402 167.766 396.258 167.664 394.896 168.924C394.232 169.538 393.84 170.372 393.806 171.275C393.772 172.178 394.079 173.03 394.691 173.711C395.304 174.376 396.138 174.768 397.041 174.802C397.943 174.836 398.811 174.529 399.475 173.916C400.7 172.757 400.888 170.883 399.969 169.521Z" fill="#BDD0FB"/>
<path d="M387.832 177.868C387.611 177.544 387.407 177.221 387.237 176.88C386.862 176.199 386.573 175.466 386.334 174.733C386.317 174.699 386.317 174.665 386.3 174.631C386.232 174.376 386.334 174.103 386.539 173.967C386.59 173.933 386.641 173.899 386.709 173.882C387.032 173.779 387.373 173.967 387.458 174.291C387.662 174.989 387.935 175.67 388.292 176.301C388.309 176.335 388.326 176.369 388.343 176.403C389.177 177.902 390.352 179.146 391.765 180.049C392.531 180.543 393.365 180.917 394.267 181.207H394.284C394.301 181.207 394.335 181.224 394.352 181.224C396.974 182.008 399.731 181.718 402.132 180.406C402.438 180.236 402.744 180.049 403.034 179.861C404.974 178.549 406.387 176.607 407.068 174.325C407.851 171.701 407.562 168.941 406.251 166.539C404.957 164.137 402.796 162.383 400.174 161.616C397.552 160.832 394.795 161.122 392.395 162.434C392.088 162.604 391.799 162.774 391.509 162.979C390.267 163.814 389.228 164.921 388.479 166.216C388.428 166.301 388.377 166.352 388.292 166.403C388.105 166.539 387.849 166.539 387.645 166.42C387.356 166.25 387.254 165.875 387.424 165.585C388.275 164.137 389.433 162.911 390.811 161.974C391.135 161.752 391.458 161.548 391.799 161.377C394.488 159.929 397.569 159.606 400.497 160.475C403.425 161.343 405.843 163.302 407.29 165.994C408.737 168.686 409.06 171.769 408.192 174.699C407.443 177.255 405.86 179.401 403.681 180.883C403.357 181.105 403.017 181.309 402.676 181.497C397.518 184.308 391.084 182.655 387.832 177.868Z" fill="#BDD0FB"/>
<path d="M91.8535 164.768C91.8535 142.723 119.312 124.853 153.187 124.853C187.063 124.853 214.521 142.723 214.521 164.768C214.521 186.812 187.063 204.682 153.187 204.682C148.914 204.682 144.744 204.393 140.709 203.848C135.483 203.149 130.938 207.527 131.398 212.774C131.823 217.664 133.236 221.974 134.462 224.887C135.041 226.301 133.526 227.663 132.198 226.931C119.89 220.117 115.362 207.357 113.694 198.584C113.268 196.318 111.924 194.359 110 193.098C98.7989 185.892 91.8535 175.858 91.8535 164.768Z" fill="url(#paint32_linear_1239:2)"/>
<path d="M111.55 468.566C111.55 468.566 110.562 473.83 110.069 479.06C109.864 481.104 111.431 482.893 113.473 482.995C120.419 483.353 135.28 484.051 140.625 483.864C141.425 483.83 141.953 483.012 141.663 482.262C141.425 481.632 140.948 481.121 140.336 480.831L115.891 469.298L111.55 468.566Z" fill="url(#paint33_linear_1239:2)"/>
<path d="M110.818 465.465L111.499 471.785C111.499 471.785 115.789 473.83 118.734 471.598L117.015 464.545L110.818 465.465Z" fill="url(#paint34_linear_1239:2)"/>
<path d="M112.503 346.811C112.163 348.464 109.984 429.043 118.257 465.261C118.393 465.857 118.087 466.453 117.525 466.675C116.197 467.203 113.61 467.952 110.495 468.038C109.541 468.055 108.673 467.424 108.418 466.504C106.035 458.106 94.6461 415.993 93.4886 375.874C92.1948 331.036 93.5056 374.341 93.5056 374.341L94.7823 346.641L112.503 346.811Z" fill="url(#paint35_linear_1239:2)"/>
<path d="M83.2753 471.053C83.2753 471.053 81.7603 473.71 80.2623 480.763C79.9899 482.041 80.8751 483.267 82.1688 483.404C84.4669 483.659 87.9907 483.983 90.8165 483.983C92.1273 483.983 93.1486 482.859 93.0125 481.564C92.7231 478.974 91.7868 474.733 88.8078 471.394L83.2753 471.053Z" fill="url(#paint36_linear_1239:2)"/>
<path d="M82.0488 462.927L83.7001 472.484C83.7001 472.484 85.4194 473.796 88.841 472.893L88.109 462.62L82.0488 462.927Z" fill="url(#paint37_linear_1239:2)"/>
<path d="M78.4064 348.958C70.9673 391.428 78.9341 454.085 81.7088 466.368C81.879 467.118 82.4748 467.697 83.2409 467.833C84.5346 468.055 86.6455 468.259 88.7563 467.663C89.4713 467.458 89.999 466.811 90.033 466.061C90.5097 456.164 90.3905 395.363 97.1827 371.394C97.5231 370.184 98.2721 369.128 99.3105 368.396L112.129 359.452L113.252 344.818L78.4064 348.958Z" fill="url(#paint38_linear_1239:2)"/>
<path d="M124.046 268.788C102.954 268.243 79.5987 273.916 79.5987 273.916C72.9597 310.593 77.7432 352.995 77.7432 352.995C94.0342 357.442 112.538 350.713 112.538 350.713C115.398 335.38 128.489 292.297 128.489 292.297C138.805 291.122 147.333 288.226 154.363 284.358C149.086 278.123 146.652 270.219 145.597 265.551C138.107 267.8 130.548 268.958 124.046 268.788Z" fill="url(#paint39_linear_1239:2)"/>
<path d="M186.672 238.277C184.629 235.756 181.991 236.914 181.991 236.914C178.756 250.014 162.38 260.508 145.596 265.551C146.651 270.219 149.085 278.123 154.363 284.358C182.28 268.992 186.672 238.277 186.672 238.277Z" fill="url(#paint40_linear_1239:2)"/>
<path d="M186.162 238.924C186.366 239.623 183.846 240.645 182.399 237.8C182.365 236.454 181.599 230.645 182.416 229.555C186.774 223.728 195.184 216.454 195.184 216.454C196.58 217.851 195.405 219.214 195.405 219.214L191.319 223.388C192.154 224.921 193.175 226.233 193.635 228.089C193.992 229.486 193.754 230.986 193.022 232.263C192.307 233.541 191.319 235.193 190.383 236.488C188.63 238.924 186.162 238.924 186.162 238.924Z" fill="url(#paint41_linear_1239:2)"/>
<path d="M189.514 226.096L185.803 229.197L184.611 232.297L187.863 235.977C187.863 235.977 189.02 229.81 189.854 228.481C190.706 227.153 190.28 226.505 189.514 226.096Z" fill="url(#paint42_linear_1239:2)"/>
<path d="M87.4963 294.444L79.5977 273.916C79.5977 273.916 59.7659 287.135 56.3613 304.086C60.0894 304.392 66.8475 305.432 73.4524 308.839C74.9844 300.849 87.4963 294.444 87.4963 294.444Z" fill="url(#paint43_linear_1239:2)"/>
<path d="M104.554 313.847C104.554 313.847 82.3046 326.147 74.9337 315.398C73.4016 313.166 73.0611 310.951 73.4527 308.856C66.8478 305.449 60.0897 304.41 56.3616 304.103C55.3403 309.214 55.7999 314.665 58.7619 320.202C71.6142 344.273 107.43 319.35 107.43 319.35L104.554 313.847Z" fill="url(#paint44_linear_1239:2)"/>
<path d="M102.834 251.445L95.9396 270.815C95.8204 271.139 95.9566 271.496 96.246 271.667C98.0675 272.689 104.638 275.687 112.622 270.713C113.456 270.202 114.035 269.35 114.154 268.379L116.486 251.582L102.834 251.445Z" fill="url(#paint45_linear_1239:2)"/>
<path d="M117.611 233.592C117.611 233.592 124.846 247.544 123.859 253.149C122.854 258.754 113.73 258.26 105.798 253.626L100.367 238.566L117.611 233.592Z" fill="url(#paint46_linear_1239:2)"/>
<path d="M106.205 246.267C106.529 246.13 106.648 245.721 106.461 245.432C105.882 244.529 104.793 242.672 104.452 241.054C104.452 241.054 103.141 240.185 107.84 239.112C112.555 238.038 119.568 236.352 121.084 232.365C122.565 228.481 118.871 218.618 112.776 226.386C112.538 226.675 112.095 226.675 111.874 226.386C110.904 225.091 108.333 222.4 104.707 223.984C101.32 225.466 100.911 227.936 100.945 229.18C100.962 229.555 100.622 229.827 100.264 229.759C98.5622 229.418 94.4767 229.095 92.519 233.285C90.9189 236.727 91.9232 238.703 92.8425 239.657C93.1489 239.963 92.9957 240.474 92.5871 240.594C91.4636 240.934 90.0167 241.871 90.1358 244.495C90.306 248.123 94.3575 247.851 95.5151 247.698C95.7023 247.681 95.8896 247.732 96.0258 247.885C97.0131 248.992 101.422 253.694 106.24 254.29C106.665 254.341 106.989 253.933 106.852 253.541L104.827 247.442C104.724 247.152 104.878 246.846 105.15 246.726L106.205 246.267Z" fill="url(#paint47_linear_1239:2)"/>
<path d="M107.041 247.135C107.041 247.135 101.832 243.473 101.406 246.505C100.997 249.537 106.087 250.951 108.641 249.844L107.041 247.135Z" fill="url(#paint48_linear_1239:2)"/>
<path d="M99.992 333.302L112.112 290.951C112.249 290.474 112.657 290.116 113.151 290.065C115.347 289.81 121.713 289.094 129.05 288.464C137.902 287.714 148.184 287.101 154.312 287.629C155.18 287.697 155.708 288.634 155.317 289.418C151.827 296.488 137.46 325.244 130.259 334.665C130.02 334.972 129.646 335.159 129.254 335.159L101.133 334.903C100.367 334.869 99.7707 334.086 99.992 333.302Z" fill="url(#paint49_linear_1239:2)"/>
<path d="M102.92 323.063C102.92 323.063 101.235 316.113 101.916 313.643C102.597 311.173 103.925 308.004 108.317 308.719C112.708 309.418 117.9 311.275 117.9 311.275C117.9 311.275 117.645 314.478 114.292 313.455L116.368 315.057C116.368 315.057 116.079 317.629 113.253 316.249L115.177 318.379C115.177 318.379 113.968 320.491 111.891 319.128C109.815 317.782 108.81 323.898 102.92 323.063Z" fill="url(#paint50_linear_1239:2)"/>
<path d="M113.322 303.387L112.76 303.217L115.228 294.835C115.603 293.541 116.658 292.553 117.969 292.297C125.765 290.662 147.01 290.321 147.231 290.321L147.248 290.9C147.027 290.9 125.85 291.241 118.088 292.859C116.998 293.081 116.113 293.915 115.79 295.006L113.322 303.387Z" fill="#91B3FA"/>
<defs>
<linearGradient id="paint0_linear_1239:2" x1="426.113" y1="117.647" x2="80.0397" y2="380.952" gradientUnits="userSpaceOnUse">
<stop stop-color="#7D97F4"/>
<stop offset="1" stop-color="#4042E2"/>
</linearGradient>
<linearGradient id="paint1_linear_1239:2" x1="220.869" y1="264.868" x2="321.53" y2="-93.7107" gradientUnits="userSpaceOnUse">
<stop stop-color="#7D97F4"/>
<stop offset="1" stop-color="#4042E2"/>
</linearGradient>
<linearGradient id="paint2_linear_1239:2" x1="323.254" y1="426.685" x2="355.176" y2="426.685" gradientUnits="userSpaceOnUse">
<stop stop-color="#FEBBBA"/>
<stop offset="1" stop-color="#FF928E"/>
</linearGradient>
<linearGradient id="paint3_linear_1239:2" x1="342.785" y1="447.501" x2="338.083" y2="519.547" gradientUnits="userSpaceOnUse">
<stop stop-color="#7D97F4"/>
<stop offset="1" stop-color="#4042E2"/>
</linearGradient>
<linearGradient id="paint4_linear_1239:2" x1="285.774" y1="428.868" x2="353.135" y2="428.868" gradientUnits="userSpaceOnUse">
<stop stop-color="#FEBBBA"/>
<stop offset="1" stop-color="#FF928E"/>
</linearGradient>
<linearGradient id="paint5_linear_1239:2" x1="327.337" y1="393.701" x2="402.8" y2="393.701" gradientUnits="userSpaceOnUse">
<stop stop-color="#09005D"/>
<stop offset="1" stop-color="#1A0F91"/>
</linearGradient>
<linearGradient id="paint6_linear_1239:2" x1="297.478" y1="444.544" x2="292.776" y2="516.589" gradientUnits="userSpaceOnUse">
<stop stop-color="#7D97F4"/>
<stop offset="1" stop-color="#4042E2"/>
</linearGradient>
<linearGradient id="paint7_linear_1239:2" x1="331.531" y1="279.376" x2="413.338" y2="377.32" gradientUnits="userSpaceOnUse">
<stop stop-color="#09005D"/>
<stop offset="1" stop-color="#1A0F91"/>
</linearGradient>
<linearGradient id="paint8_linear_1239:2" x1="352.073" y1="358.009" x2="515.147" y2="275.955" gradientUnits="userSpaceOnUse">
<stop stop-color="#EDA85A"/>
<stop offset="1" stop-color="#FF928E"/>
</linearGradient>
<linearGradient id="paint9_linear_1239:2" x1="361.392" y1="340.767" x2="356.839" y2="311.57" gradientUnits="userSpaceOnUse">
<stop stop-color="#FEBBBA"/>
<stop offset="1" stop-color="#FF928E"/>
</linearGradient>
<linearGradient id="paint10_linear_1239:2" x1="380.775" y1="373.809" x2="444.053" y2="373.809" gradientUnits="userSpaceOnUse">
<stop stop-color="#FEBBBA"/>
<stop offset="1" stop-color="#FF928E"/>
</linearGradient>
<linearGradient id="paint11_linear_1239:2" x1="340.902" y1="293.466" x2="372.689" y2="312.503" gradientUnits="userSpaceOnUse">
<stop stop-color="#FEBBBA"/>
<stop offset="1" stop-color="#FF928E"/>
</linearGradient>
<linearGradient id="paint12_linear_1239:2" x1="338.684" y1="268.946" x2="427.372" y2="363.651" gradientUnits="userSpaceOnUse">
<stop stop-color="#09005D"/>
<stop offset="1" stop-color="#1A0F91"/>
</linearGradient>
<linearGradient id="paint13_linear_1239:2" x1="347.177" y1="284.406" x2="368.787" y2="319.119" gradientUnits="userSpaceOnUse">
<stop stop-color="#FEBBBA"/>
<stop offset="1" stop-color="#FF928E"/>
</linearGradient>
<linearGradient id="paint14_linear_1239:2" x1="381.977" y1="367.288" x2="342.725" y2="380.152" gradientUnits="userSpaceOnUse">
<stop stop-color="#09005D"/>
<stop offset="1" stop-color="#1A0F91"/>
</linearGradient>
<linearGradient id="paint15_linear_1239:2" x1="328.065" y1="341.536" x2="299.779" y2="371.41" gradientUnits="userSpaceOnUse">
<stop stop-color="#09005D"/>
<stop offset="1" stop-color="#396CAA"/>
</linearGradient>
<linearGradient id="paint16_linear_1239:2" x1="416.534" y1="514.835" x2="416.116" y2="559.107" gradientUnits="userSpaceOnUse">
<stop stop-color="#09005D"/>
<stop offset="1" stop-color="#1A0F91"/>
</linearGradient>
<linearGradient id="paint17_linear_1239:2" x1="427.196" y1="465.394" x2="429.495" y2="447.435" gradientUnits="userSpaceOnUse">
<stop stop-color="#FEBBBA"/>
<stop offset="1" stop-color="#FF928E"/>
</linearGradient>
<linearGradient id="paint18_linear_1239:2" x1="476.304" y1="515.399" x2="475.886" y2="559.671" gradientUnits="userSpaceOnUse">
<stop stop-color="#09005D"/>
<stop offset="1" stop-color="#1A0F91"/>
</linearGradient>
<linearGradient id="paint19_linear_1239:2" x1="477.367" y1="471.549" x2="479.607" y2="454.049" gradientUnits="userSpaceOnUse">
<stop stop-color="#FEBBBA"/>
<stop offset="1" stop-color="#FF928E"/>
</linearGradient>
<linearGradient id="paint20_linear_1239:2" x1="492.998" y1="405.048" x2="424.149" y2="405.048" gradientUnits="userSpaceOnUse">
<stop stop-color="#09005D"/>
<stop offset="1" stop-color="#1A0F91"/>
</linearGradient>
<linearGradient id="paint21_linear_1239:2" x1="478.717" y1="394.478" x2="476.21" y2="389.467" gradientUnits="userSpaceOnUse">
<stop stop-color="#4F52FF"/>
<stop offset="1" stop-color="#4042E2"/>
</linearGradient>
<linearGradient id="paint22_linear_1239:2" x1="436.127" y1="350.167" x2="528.711" y2="229.32" gradientUnits="userSpaceOnUse">
<stop stop-color="#EDA85A"/>
<stop offset="1" stop-color="#FF928E"/>
</linearGradient>
<linearGradient id="paint23_linear_1239:2" x1="-342.62" y1="-1079.09" x2="-154.634" y2="-742.802" gradientUnits="userSpaceOnUse">
<stop stop-color="#E1473D"/>
<stop offset="1" stop-color="#EDA85A"/>
</linearGradient>
<linearGradient id="paint24_linear_1239:2" x1="460.461" y1="356.605" x2="429.111" y2="356.605" gradientUnits="userSpaceOnUse">
<stop stop-color="#FEBBBA"/>
<stop offset="1" stop-color="#FF928E"/>
</linearGradient>
<linearGradient id="paint25_linear_1239:2" x1="431.571" y1="317.277" x2="373.026" y2="317.277" gradientUnits="userSpaceOnUse">
<stop stop-color="#FEBBBA"/>
<stop offset="1" stop-color="#FF928E"/>
</linearGradient>
<linearGradient id="paint26_linear_1239:2" x1="452.649" y1="284.416" x2="432.258" y2="263.512" gradientUnits="userSpaceOnUse">
<stop stop-color="#FEBBBA"/>
<stop offset="1" stop-color="#FF928E"/>
</linearGradient>
<linearGradient id="paint27_linear_1239:2" x1="423.099" y1="250.316" x2="448.526" y2="283.928" gradientUnits="userSpaceOnUse">
<stop stop-color="#FEBBBA"/>
<stop offset="1" stop-color="#FF928E"/>
</linearGradient>
<linearGradient id="paint28_linear_1239:2" x1="442.5" y1="258.428" x2="412.157" y2="258.428" gradientUnits="userSpaceOnUse">
<stop stop-color="#09005D"/>
<stop offset="1" stop-color="#1A0F91"/>
</linearGradient>
<linearGradient id="paint29_linear_1239:2" x1="460.306" y1="276.948" x2="439.915" y2="256.044" gradientUnits="userSpaceOnUse">
<stop stop-color="#FEBBBA"/>
<stop offset="1" stop-color="#FF928E"/>
</linearGradient>
<linearGradient id="paint30_linear_1239:2" x1="-326.351" y1="-1088.18" x2="-138.364" y2="-751.893" gradientUnits="userSpaceOnUse">
<stop stop-color="#E1473D"/>
<stop offset="1" stop-color="#EDA85A"/>
</linearGradient>
<linearGradient id="paint31_linear_1239:2" x1="431.076" y1="404.652" x2="431.285" y2="392.127" gradientUnits="userSpaceOnUse">
<stop stop-color="#4F52FF"/>
<stop offset="1" stop-color="#4042E2"/>
</linearGradient>
<linearGradient id="paint32_linear_1239:2" x1="190.956" y1="77.3095" x2="130.173" y2="217.874" gradientUnits="userSpaceOnUse">
<stop stop-color="#EDA85A"/>
<stop offset="1" stop-color="#FF928E"/>
</linearGradient>
<linearGradient id="paint33_linear_1239:2" x1="140.045" y1="461.553" x2="49.1071" y2="558.529" gradientUnits="userSpaceOnUse">
<stop stop-color="#09005D"/>
<stop offset="1" stop-color="#1A0F91"/>
</linearGradient>
<linearGradient id="paint34_linear_1239:2" x1="110.785" y1="468.545" x2="118.774" y2="468.621" gradientUnits="userSpaceOnUse">
<stop stop-color="#FEBBBA"/>
<stop offset="1" stop-color="#FF928E"/>
</linearGradient>
<linearGradient id="paint35_linear_1239:2" x1="-3849.83" y1="4880.88" x2="-3776.71" y2="4798.31" gradientUnits="userSpaceOnUse">
<stop stop-color="#09005D"/>
<stop offset="1" stop-color="#1A0F91"/>
</linearGradient>
<linearGradient id="paint36_linear_1239:2" x1="120.047" y1="442.795" x2="29.1043" y2="539.775" gradientUnits="userSpaceOnUse">
<stop stop-color="#09005D"/>
<stop offset="1" stop-color="#1A0F91"/>
</linearGradient>
<linearGradient id="paint37_linear_1239:2" x1="81.9962" y1="467.86" x2="88.8935" y2="467.926" gradientUnits="userSpaceOnUse">
<stop stop-color="#FEBBBA"/>
<stop offset="1" stop-color="#FF928E"/>
</linearGradient>
<linearGradient id="paint38_linear_1239:2" x1="-3861.61" y1="4870.44" x2="-3788.49" y2="4787.87" gradientUnits="userSpaceOnUse">
<stop stop-color="#09005D"/>
<stop offset="1" stop-color="#1A0F91"/>
</linearGradient>
<linearGradient id="paint39_linear_1239:2" x1="-1680.46" y1="-2015.28" x2="-1799.66" y2="-2169.66" gradientUnits="userSpaceOnUse">
<stop stop-color="#EDA85A"/>
<stop offset="1" stop-color="#FF928E"/>
</linearGradient>
<linearGradient id="paint40_linear_1239:2" x1="145.647" y1="260.283" x2="186.462" y2="260.67" gradientUnits="userSpaceOnUse">
<stop stop-color="#FEBBBA"/>
<stop offset="1" stop-color="#FF928E"/>
</linearGradient>
<linearGradient id="paint41_linear_1239:2" x1="177.435" y1="253.739" x2="149.421" y2="315.821" gradientUnits="userSpaceOnUse">
<stop stop-color="#FEBBBA"/>
<stop offset="1" stop-color="#FF928E"/>
</linearGradient>
<linearGradient id="paint42_linear_1239:2" x1="186.527" y1="233.056" x2="198.134" y2="215.589" gradientUnits="userSpaceOnUse">
<stop stop-color="#FEBBBA"/>
<stop offset="1" stop-color="#FF928E"/>
</linearGradient>
<linearGradient id="paint43_linear_1239:2" x1="-1698.05" y1="-2001.69" x2="-1817.25" y2="-2156.07" gradientUnits="userSpaceOnUse">
<stop stop-color="#EDA85A"/>
<stop offset="1" stop-color="#FF928E"/>
</linearGradient>
<linearGradient id="paint44_linear_1239:2" x1="55.7867" y1="317.285" x2="107.437" y2="317.775" gradientUnits="userSpaceOnUse">
<stop stop-color="#FEBBBA"/>
<stop offset="1" stop-color="#FF928E"/>
</linearGradient>
<linearGradient id="paint45_linear_1239:2" x1="95.9726" y1="262.404" x2="116.394" y2="262.598" gradientUnits="userSpaceOnUse">
<stop stop-color="#FEBBBA"/>
<stop offset="1" stop-color="#FF928E"/>
</linearGradient>
<linearGradient id="paint46_linear_1239:2" x1="121.376" y1="249.644" x2="99.0443" y2="235.741" gradientUnits="userSpaceOnUse">
<stop stop-color="#FEBBBA"/>
<stop offset="1" stop-color="#FF928E"/>
</linearGradient>
<linearGradient id="paint47_linear_1239:2" x1="87.3055" y1="221.166" x2="116.111" y2="244.348" gradientUnits="userSpaceOnUse">
<stop stop-color="#09005D"/>
<stop offset="1" stop-color="#1A0F91"/>
</linearGradient>
<linearGradient id="paint48_linear_1239:2" x1="115.431" y1="254.699" x2="95.3382" y2="242.19" gradientUnits="userSpaceOnUse">
<stop stop-color="#FEBBBA"/>
<stop offset="1" stop-color="#FF928E"/>
</linearGradient>
<linearGradient id="paint49_linear_1239:2" x1="121.287" y1="284.442" x2="149.828" y2="403.273" gradientUnits="userSpaceOnUse">
<stop stop-color="#09005D"/>
<stop offset="1" stop-color="#1A0F91"/>
</linearGradient>
<linearGradient id="paint50_linear_1239:2" x1="101.758" y1="315.881" x2="117.906" y2="315.881" gradientUnits="userSpaceOnUse">
<stop stop-color="#FEBBBA"/>
<stop offset="1" stop-color="#FF928E"/>
</linearGradient>
</defs>
</svg>
