<svg width="785" height="498" viewBox="0 0 785 498" fill="none" xmlns="http://www.w3.org/2000/svg">
<g clip-path="url(#clip0)">
<path d="M762.934 270.476C749.428 256.742 733.429 243.38 729.261 224.733C722.043 192.501 752.888 164.995 762.971 133.507C769.966 111.734 766.357 86.9456 753.446 67.9263C740.535 48.9442 718.583 36.1034 695.403 34.0191C655.516 30.446 616.449 56.7976 577.158 49.1676C545.68 43.0635 520.826 16.1164 488.865 13.2133C451.286 9.82631 420.069 40.2348 384.201 51.6985C341.263 65.3954 294.717 51.0658 252.487 35.359C210.294 19.6523 165.868 2.12182 121.368 9.64021C71.8453 18.0146 30.3219 60.3335 23.699 109.166C17.1133 157.551 72.1802 196.409 25.2989 254.509C10.6765 272.672 0.928157 297.981 7.40223 320.239C13.6903 341.864 40.4795 355.56 40.6656 378.041C40.8144 395.795 23.7362 409.938 22.3596 427.618C21.1689 442.803 32.3311 456.873 46.0234 464.056C59.7157 471.277 75.6405 473.026 91.0815 474.664C90.2257 475.594 89.9653 476.897 90.449 478.013C90.9327 479.167 92.0861 479.949 93.3883 480.023C168.994 486.202 245.045 484.713 320.911 483.224C444.179 480.805 567.447 478.386 690.752 475.966C703.44 475.706 716.388 475.408 728.22 470.904C740.014 466.401 750.618 456.724 752.404 444.441C755.455 423.524 733.168 405.36 735.215 384.331C737.856 357.459 776.44 347.112 783.807 321.095C788.979 302.708 776.44 284.21 762.934 270.476Z" fill="white"/>
<path d="M605.771 284.768C600.86 396.837 498.837 483.41 377.876 478.088C256.915 472.765 162.855 377.594 167.804 265.526C172.715 153.457 274.738 66.884 395.699 72.2065C516.622 77.4917 610.682 172.662 605.771 284.768Z" fill="url(#paint0_linear)"/>
<g opacity="0.68">
<path opacity="0.68" d="M442.915 276.133C442.915 294.073 442.245 311.976 440.868 329.878C439.455 347.744 437.259 365.572 434.097 383.214C432.497 392.035 430.636 400.819 428.441 409.529C426.209 418.238 423.679 426.836 420.516 435.285C417.353 443.696 413.67 451.996 408.721 459.552C406.228 463.311 403.363 466.921 399.866 469.899C398.117 471.388 396.182 472.69 394.062 473.658C391.941 474.626 389.634 475.221 387.253 475.259C384.909 475.333 382.565 474.886 380.369 473.993C378.211 473.137 376.202 471.872 374.416 470.457C370.807 467.591 367.905 464.018 365.375 460.296C360.315 452.778 356.594 444.515 353.394 436.103C350.231 427.692 347.627 419.057 345.394 410.385C343.162 401.675 341.302 392.929 339.665 384.107C336.428 366.465 334.232 348.637 332.744 330.772C331.256 312.906 330.512 294.966 330.437 277.026C330.4 268.056 330.66 259.086 330.958 250.154C331.293 241.184 331.814 232.251 332.446 223.318C333.786 205.453 335.758 187.624 338.734 169.908C340.223 161.05 341.934 152.266 344.018 143.519C346.101 134.81 348.52 126.138 351.534 117.689C354.547 109.24 358.082 100.903 362.994 93.3097C365.449 89.5505 368.314 85.9402 371.849 83.0743C373.635 81.6599 375.57 80.3944 377.728 79.5756C379.848 78.7196 382.155 78.3101 384.462 78.3846C386.769 78.459 389.039 79.0173 391.122 79.9478C393.206 80.8783 395.141 82.1438 396.889 83.5581C400.424 86.424 403.326 89.9227 405.931 93.6075C411.103 101.014 414.972 109.203 418.321 117.503C421.67 125.84 424.423 134.4 426.841 143.035C429.223 151.67 431.269 160.417 433.018 169.201C436.515 186.806 438.934 204.597 440.534 222.462C442.134 240.253 442.878 258.193 442.915 276.133ZM439.975 276.133C440.013 258.268 439.343 240.439 437.855 222.648C436.404 204.857 434.208 187.141 430.897 169.573C429.26 160.789 427.325 152.08 425.055 143.445C422.786 134.81 420.144 126.286 416.907 117.986C413.67 109.686 409.912 101.572 404.926 94.203C402.433 90.5554 399.606 87.094 396.22 84.2653C394.508 82.8509 392.685 81.6227 390.713 80.7294C388.741 79.8361 386.583 79.2406 384.425 79.2034C382.267 79.129 380.072 79.5756 378.063 80.3944C376.053 81.2133 374.193 82.4415 372.519 83.8187C369.133 86.6474 366.379 90.1832 363.998 93.9052C359.273 101.424 355.85 109.724 352.948 118.135C350.083 126.584 347.776 135.182 345.804 143.891C343.832 152.601 342.232 161.385 340.855 170.206C335.46 205.49 333.674 241.295 333.786 276.989C333.711 294.855 334.307 312.683 335.646 330.474C336.986 348.265 339.032 366.019 342.083 383.586C343.609 392.37 345.394 401.117 347.553 409.752C349.711 418.387 352.203 426.985 355.254 435.322C358.343 443.659 361.952 451.847 366.826 459.217C369.282 462.864 372.072 466.326 375.458 469.08C377.132 470.457 378.993 471.611 380.965 472.43C382.937 473.249 385.057 473.695 387.178 473.621C389.299 473.584 391.383 472.988 393.355 472.095C395.289 471.202 397.113 469.973 398.75 468.559C402.061 465.73 404.777 462.194 407.196 458.51C411.996 451.066 415.53 442.877 418.581 434.503C421.595 426.129 424.088 417.568 426.209 408.896C428.33 400.224 430.078 391.477 431.604 382.693C434.655 365.125 436.664 347.372 438.003 329.543C439.343 311.827 439.975 293.961 439.975 276.133Z" fill="white"/>
<path opacity="0.68" d="M533.293 276.133C533.181 299.209 530.204 322.323 524.028 344.58C517.74 366.8 508.252 388.164 495.378 407.333C482.505 426.464 466.133 443.473 446.562 455.755C436.777 461.897 426.21 466.773 415.159 470.122C404.109 473.472 392.575 475.184 381.003 475.221C369.469 475.221 357.897 473.509 346.847 470.159C335.796 466.847 325.192 461.934 315.407 455.83C295.798 443.51 279.39 426.538 266.516 407.407C253.605 388.239 244.08 366.838 237.755 344.617C234.63 333.489 232.323 322.137 230.797 310.673C229.272 299.209 228.49 287.671 228.453 276.096C228.528 264.52 229.272 252.982 230.834 241.519C232.36 230.055 234.704 218.703 237.829 207.574C244.192 185.354 253.717 163.99 266.628 144.822C279.539 125.691 295.91 108.756 315.518 96.4734C325.304 90.3694 335.871 85.5308 346.921 82.181C357.972 78.8685 369.469 77.1191 381.003 77.1191C392.537 77.1564 404.072 78.8685 415.085 82.2182C426.136 85.5308 436.702 90.4066 446.451 96.5106C466.022 108.793 482.393 125.765 495.267 144.859C508.14 164.027 517.666 185.354 523.954 207.574C530.167 229.943 533.144 253.02 533.293 276.133ZM529.907 276.133C529.87 253.355 527.042 230.502 521.051 208.505C515.024 186.545 505.945 165.33 493.406 146.236C487.156 136.708 480.049 127.701 472.087 119.55C464.124 111.399 455.306 104.029 445.707 97.8878C436.07 91.7837 425.652 86.8707 414.75 83.5582C403.848 80.2456 392.463 78.4963 381.04 78.4591C369.618 78.4963 358.232 80.2828 347.33 83.5954C336.429 86.9079 326.011 91.8582 316.411 97.9622C306.812 104.103 297.994 111.51 290.068 119.661C282.106 127.85 275.037 136.82 268.786 146.348C256.284 165.442 247.243 186.62 241.215 208.616C238.239 219.596 236.043 230.799 234.592 242.114C233.104 253.392 232.397 264.781 232.36 276.17C232.397 287.559 233.141 298.949 234.592 310.226C236.081 321.504 238.239 332.707 241.252 343.724C247.28 365.684 256.359 386.862 268.86 405.918C275.111 415.446 282.18 424.416 290.143 432.568C298.105 440.719 306.886 448.088 316.486 454.229C326.122 460.333 336.503 465.209 347.405 468.522C358.269 471.872 369.655 473.621 381.04 473.695C392.426 473.658 403.811 471.909 414.713 468.559C425.615 465.247 435.996 460.371 445.632 454.304C455.269 448.2 464.05 440.83 472.012 432.679C479.975 424.528 487.081 415.558 493.332 406.03C505.871 386.973 514.949 365.758 521.014 343.799C527.005 321.727 529.87 298.912 529.907 276.133Z" fill="white"/>
<path opacity="0.68" d="M203.487 197.338L249.178 196.929L294.868 196.706C310.086 196.594 325.341 196.631 340.559 196.594L386.212 196.52L477.593 196.743L523.284 197.003L568.974 197.45C569.049 197.45 569.123 197.524 569.123 197.599C569.123 197.673 569.049 197.748 568.974 197.748L523.284 198.194L477.593 198.455L386.212 198.678L340.522 198.604C325.304 198.567 310.049 198.567 294.831 198.492L249.14 198.269L203.45 197.859C203.338 197.859 203.227 197.748 203.227 197.636C203.264 197.45 203.338 197.338 203.487 197.338Z" fill="white"/>
<path opacity="0.68" d="M256.471 120.815C267.299 120.629 278.089 120.554 288.916 120.406L321.361 120.182C332.188 120.071 342.978 120.108 353.806 120.071L386.251 119.996L418.695 120.071C429.523 120.108 440.313 120.108 451.14 120.182L483.585 120.443C494.412 120.592 505.202 120.666 516.03 120.889C516.104 120.889 516.178 120.964 516.178 121.038C516.178 121.113 516.104 121.187 516.03 121.187C505.202 121.41 494.412 121.485 483.585 121.634L451.14 121.894C440.313 122.006 429.523 121.969 418.695 122.006L386.213 122.08L353.769 122.006C342.941 121.969 332.151 121.969 321.324 121.894L288.879 121.671C278.052 121.522 267.262 121.448 256.434 121.262C256.323 121.262 256.211 121.15 256.211 121.038C256.248 120.889 256.36 120.815 256.471 120.815Z" fill="white"/>
<path opacity="0.68" d="M187.598 273.9L237.27 273.49L286.942 273.267L386.248 273.081L485.554 273.304L535.226 273.565L584.898 274.012C584.972 274.012 585.047 274.086 585.047 274.16C585.047 274.235 584.972 274.309 584.898 274.309L535.226 274.756L485.554 275.016L386.248 275.24L286.942 275.054L237.27 274.83L187.598 274.421C187.487 274.421 187.375 274.309 187.375 274.198C187.375 274.012 187.487 273.9 187.598 273.9Z" fill="white"/>
<path opacity="0.68" d="M203.487 350.46L249.178 350.051L294.868 349.828C310.086 349.716 325.341 349.753 340.559 349.716L386.249 349.642L477.631 349.865L523.321 350.125L569.012 350.572C569.086 350.572 569.161 350.647 569.161 350.721C569.161 350.795 569.086 350.87 569.012 350.87L523.321 351.316L477.631 351.577L386.212 351.726L340.522 351.651C325.304 351.614 310.049 351.614 294.831 351.54L249.14 351.316L203.45 350.907C203.338 350.907 203.227 350.795 203.227 350.684C203.264 350.535 203.338 350.46 203.487 350.46Z" fill="white"/>
<path opacity="0.68" d="M522.503 427.99H263.02C262.573 427.99 262.238 427.655 262.238 427.208C262.238 426.762 262.573 426.427 263.02 426.427H522.503C522.95 426.427 523.285 426.762 523.285 427.208C523.285 427.655 522.95 427.99 522.503 427.99Z" fill="white"/>
</g>
<path d="M523.021 121.56C523.021 121.56 517.812 121.82 517.18 132.577C517.18 132.577 529.272 143.445 545.643 146.013C546.871 146.199 543.932 137.638 543.485 136.485C541.327 130.939 534.704 127.366 523.021 121.56Z" fill="url(#paint1_linear)"/>
<path d="M464.233 108.905H475.246C475.246 108.905 509.067 71.5738 531.206 67.7773C531.206 67.7773 546.647 87.4666 530.387 124.314C529.085 127.292 525.439 128.594 522.685 126.845C521.867 126.324 521.271 125.617 520.937 124.761L522.239 93.3101C522.239 93.3101 493.403 118.545 488.38 123.421C483.394 128.297 457.907 125.319 464.233 108.905Z" fill="url(#paint2_linear)"/>
<path d="M570.719 187.327C566.106 183.27 558.738 178.729 548.134 177.427L544.562 179.623C544.562 179.623 546.869 183.01 551.037 186.583C554.869 188.816 560.822 191.831 565.733 192.501C570.496 193.134 571.203 190.268 570.719 187.327Z" fill="url(#paint3_linear)"/>
<path d="M543.446 136.447C540.618 137.378 539.353 141.397 532.135 138.718C525.14 136.149 519.968 132.8 517.289 130.901C517.215 131.422 517.178 131.981 517.141 132.539C517.141 132.539 529.903 144.673 546.237 147.278C547.465 147.464 548.432 146.236 547.986 145.082C547.241 143.035 545.79 139.871 543.446 136.447Z" fill="url(#paint4_linear)"/>
<path d="M574.182 190.788C573.289 189.746 572.098 188.555 570.722 187.326C571.205 190.23 570.498 193.133 565.736 192.5C560.825 191.83 554.871 188.815 551.039 186.582C555.839 190.676 563.169 195.068 572.433 194.808C574.48 194.733 575.559 192.314 574.182 190.788Z" fill="url(#paint5_linear)"/>
<path d="M464.64 116.907L516.21 117.466C516.21 117.466 545.678 141.844 550.999 179.027C550.999 179.027 551.892 181.744 546.571 182.228C546.571 182.228 528.749 170.578 517.14 150.033C502.89 124.798 480.007 133.805 480.007 133.805C452.213 143.296 442.725 129.227 442.465 125.877L464.64 116.907Z" fill="url(#paint6_linear)"/>
<path d="M465.871 75.333C465.871 75.333 471.415 103.173 498.613 114.19L508.287 113.037L510.557 116.684L487.86 117.391C487.86 117.391 468.475 109.687 458.169 88.7693C457.834 88.0622 452.179 76.3752 465.871 75.333Z" fill="url(#paint7_linear)"/>
<path d="M468.847 116.423C468.847 116.423 462.522 99.2648 461.182 82.5531C461.182 82.5531 465.796 78.5706 468.698 76.8585C469.628 76.3002 470 75.1464 469.517 74.1414C467.396 69.7495 454.559 52.4796 453.592 52.219C448.383 50.9163 426.914 40.7181 411.845 61.3751C405.371 70.2334 413.147 97.5154 442.541 125.802L443.509 125.989C446.82 126.621 450.206 126.1 453.182 124.574L468.847 116.423Z" fill="url(#paint8_linear)"/>
<path d="M444.515 86.3496C444.515 86.3496 462.039 107.118 484.476 110.17C484.476 110.17 490.28 104.885 494.596 106.783C498.912 108.681 504.828 117.019 504.828 117.019H476.029C476.029 117.019 448.794 116.051 435.176 99.5254C436.255 93.7191 439.529 90.2577 444.515 86.3496Z" fill="url(#paint9_linear)"/>
<path d="M434.284 37.7031L430.452 50.5067C430.265 51.1022 430.489 51.735 431.01 52.0699C432.87 53.3354 437.67 55.8664 444.33 53.4099C445.074 53.1121 445.595 52.4049 445.669 51.6233L446.562 40.4574L434.284 37.7031Z" fill="url(#paint10_linear)"/>
<path d="M456.758 27.3561C456.758 27.3561 454.861 40.6436 449.763 44.7005C444.666 48.7947 434.731 45.7055 431.383 35.6933L438.08 18.5723L456.758 27.3561Z" fill="url(#paint11_linear)"/>
<path d="M437.297 29.6641C437.669 29.7758 438.079 29.5525 438.153 29.143C438.339 27.9148 438.785 25.4955 439.716 23.8578C439.716 23.8578 439.232 22.1085 444.106 24.7511C448.98 27.3937 456.347 31.2646 460.663 28.9569C464.868 26.7238 469.147 15.409 458.022 17.5305C457.612 17.6049 457.203 17.2699 457.24 16.8605C457.389 14.9995 457.203 10.7193 452.887 9.37936C448.831 8.11389 446.636 9.93765 445.706 11.017C445.446 11.352 444.925 11.352 444.701 11.017C443.474 9.41658 440.199 6.0668 435.362 8.18833C431.381 9.93765 430.749 12.3942 430.823 13.9202C430.86 14.404 430.339 14.739 429.893 14.5529C428.665 13.9946 426.693 13.6968 424.833 16.0417C422.228 19.317 425.949 22.1457 427.065 22.8901C427.251 23.0018 427.363 23.2251 427.363 23.4484C427.363 25.1605 427.623 32.53 431.344 36.7359C431.679 37.1081 432.274 36.9964 432.46 36.5498L435.325 29.7385C435.474 29.4408 435.809 29.2547 436.144 29.3664L437.297 29.6641Z" fill="url(#paint12_linear)"/>
<path d="M437.371 31.0415C437.371 31.0415 435.622 23.9325 432.981 26.2402C430.339 28.5478 433.688 33.6097 436.701 34.5774L437.371 31.0415Z" fill="url(#paint13_linear)"/>
<path d="M503.34 118.582L516.288 75.4447C516.809 73.6954 518.372 72.4299 520.195 72.3183L537.645 71.1273C539.431 71.0156 540.733 72.7277 540.138 74.4026L525.701 115.605C525.218 116.945 524.027 117.875 522.65 118.024L505.461 119.922L503.34 118.582Z" fill="#7D97F4"/>
<path d="M505.458 119.922C505.42 119.922 505.383 119.922 505.383 119.922L468.771 118.061C467.878 118.024 467.171 117.242 467.208 116.349C467.246 115.456 468.027 114.748 468.92 114.786L505.532 116.647C506.425 116.684 507.132 117.465 507.095 118.359C507.058 119.252 506.313 119.922 505.458 119.922Z" fill="#7D97F4"/>
<path d="M461.143 82.9259C460.957 82.9259 460.808 82.777 460.808 82.5909C460.845 74.9237 457.869 64.7999 457.869 64.6883C457.831 64.5022 457.906 64.3161 458.092 64.2788C458.278 64.2416 458.464 64.3161 458.501 64.5022C458.538 64.6138 461.515 74.8492 461.478 82.5909C461.478 82.777 461.329 82.9259 461.143 82.9259Z" fill="url(#paint14_linear)"/>
<path d="M444.513 86.6848C444.401 86.6848 444.327 86.6476 444.252 86.5731C444.178 86.4615 436.141 76.2633 433.388 69.3032C433.313 69.1171 433.388 68.931 433.574 68.8938C433.723 68.8193 433.946 68.8938 433.983 69.0799C436.699 75.9655 444.662 86.0893 444.736 86.2009C444.848 86.3498 444.811 86.5359 444.699 86.6476C444.662 86.6476 444.587 86.6848 444.513 86.6848Z" fill="url(#paint15_linear)"/>
<path d="M433.242 102.279L432.981 102.168C421.372 97.1803 414.229 83.3346 414.154 83.2229C414.08 83.074 414.154 82.8507 414.303 82.7763C414.452 82.7018 414.675 82.7763 414.75 82.9252C414.824 83.074 421.782 96.5104 433.018 101.461L434.209 99.7857C434.321 99.6368 434.507 99.5996 434.655 99.7112C434.804 99.8229 434.841 100.009 434.73 100.158L433.242 102.279Z" fill="url(#paint16_linear)"/>
<path d="M231.761 328.352C214.832 328.166 200.544 314.693 199.167 297.683L196.079 259.049C195.335 249.819 198.386 240.811 204.376 234.298C210.143 228.045 217.994 224.584 226.552 224.584L528.08 224.025C537.531 224.025 545.753 227.785 551.372 234.633C557.102 241.63 559.26 251.159 557.288 260.798L549.028 301.331C545.605 318.154 529.196 331.367 511.709 331.367L231.761 328.352Z" fill="url(#paint17_linear)"/>
<path d="M528.08 231.879L226.552 232.437C212.86 232.475 202.777 244.31 203.893 258.454L206.981 297.088C208.023 310.04 219.111 320.387 231.836 320.536L511.411 323.551C525.215 323.7 538.61 313.316 541.363 299.805L549.623 259.273C552.637 244.422 543.038 231.842 528.08 231.879Z" fill="url(#paint18_linear)"/>
<path d="M296.577 259.719L282.661 302.261H282.624C281.954 304.346 280.317 305.835 278.531 306.244H278.494C278.457 306.244 278.345 306.281 278.271 306.281H278.159C278.122 306.281 278.048 306.318 278.01 306.318H277.899H277.75H277.564H277.415H277.304H277.155H277.043H276.931H276.783H276.671C276.634 306.318 276.559 306.281 276.522 306.281H276.411C276.373 306.281 276.262 306.244 276.187 306.244H276.076C274.253 305.797 272.615 304.309 271.908 302.261L263.128 275.463L254.347 302.261C253.677 304.346 252.04 305.835 250.254 306.244H250.217C250.105 306.244 250.068 306.281 249.993 306.281H249.882C249.845 306.281 249.77 306.318 249.733 306.318H249.621H249.472H249.361H249.212H249.1H248.914H248.803H248.654H248.542H248.431C248.393 306.318 248.319 306.281 248.282 306.281H248.17C248.059 306.281 248.021 306.244 247.947 306.244H247.91C246.049 305.797 244.45 304.309 243.743 302.261L229.827 259.719V259.608C229.604 258.938 229.492 258.23 229.492 257.598C229.492 255.067 230.98 252.722 233.287 251.903C233.845 251.68 234.441 251.643 234.999 251.643C237.343 251.643 239.613 253.28 240.357 255.848C240.394 255.96 245.194 270.476 249.138 282.535C253.082 270.476 257.844 255.96 257.844 255.848C258.439 253.987 259.704 252.685 261.23 252.015L261.267 251.978C261.304 251.978 261.379 251.94 261.416 251.94H261.453C261.49 251.94 261.49 251.903 261.565 251.903H261.676C261.714 251.866 261.788 251.866 261.825 251.866L261.863 251.829C261.974 251.829 262.011 251.829 262.086 251.791H262.123C262.235 251.791 262.272 251.791 262.346 251.754H262.383H262.607H262.644C262.756 251.754 262.793 251.754 262.867 251.717H262.979H263.09H263.239H263.351C263.388 251.754 263.462 251.754 263.5 251.754H263.611H263.834C263.946 251.791 263.983 251.791 264.095 251.791C264.207 251.829 264.244 251.829 264.318 251.829C264.355 251.829 264.355 251.829 264.355 251.866C264.467 251.866 264.504 251.866 264.579 251.903H264.69C264.69 251.903 264.727 251.94 264.802 251.94H264.839C264.876 251.94 264.951 251.978 264.988 251.978L265.025 252.015C266.551 252.685 267.816 253.987 268.411 255.848C268.411 255.96 273.174 270.476 277.118 282.535C281.061 270.476 285.824 255.96 285.824 255.848C286.643 253.28 288.875 251.643 291.256 251.643C291.814 251.643 292.41 251.68 292.968 251.903C295.275 252.722 296.763 255.067 296.763 257.598C296.763 258.268 296.651 258.975 296.428 259.608V259.719H296.577Z" fill="url(#paint19_linear)"/>
<path d="M366.748 259.719L352.833 302.261H352.796C352.126 304.346 350.489 305.835 348.703 306.244H348.628C348.591 306.244 348.48 306.281 348.405 306.281H348.294C348.256 306.281 348.182 306.318 348.145 306.318H348.033H347.884H347.773H347.624H347.512H347.363H347.252H347.14H346.991H346.88C346.843 306.318 346.768 306.281 346.731 306.281H346.619C346.582 306.281 346.47 306.244 346.396 306.244H346.359C344.536 305.797 342.899 304.309 342.192 302.261L333.411 275.463L324.63 302.261C323.96 304.346 322.323 305.835 320.537 306.244H320.5C320.388 306.244 320.351 306.281 320.277 306.281H320.165C320.128 306.281 320.053 306.318 320.016 306.318H319.904H319.756H319.644H319.495H319.384H319.235H319.123H318.974H318.863H318.751C318.714 306.318 318.639 306.281 318.602 306.281H318.491C318.379 306.281 318.342 306.244 318.267 306.244H318.23C316.37 305.797 314.77 304.309 314.063 302.261L300.147 259.719V259.608C299.924 258.938 299.812 258.23 299.812 257.598C299.812 255.067 301.301 252.722 303.608 251.903C304.166 251.68 304.761 251.643 305.319 251.643C307.663 251.643 309.933 253.28 310.677 255.848C310.714 255.96 315.514 270.476 319.458 282.535C323.402 270.476 328.164 255.96 328.164 255.848C328.76 253.987 330.025 252.685 331.55 252.015L331.588 251.978C331.625 251.978 331.699 251.94 331.736 251.94H331.774C331.811 251.94 331.811 251.903 331.885 251.903H331.997C332.034 251.866 332.108 251.866 332.146 251.866L332.183 251.829C332.294 251.829 332.332 251.829 332.406 251.791H332.443C332.555 251.791 332.592 251.791 332.667 251.754H332.704H332.927H332.964C333.076 251.754 333.113 251.754 333.187 251.717H333.299H333.411H333.56H333.671C333.708 251.754 333.783 251.754 333.82 251.754H333.932H334.155C334.266 251.791 334.304 251.791 334.415 251.791C334.527 251.829 334.564 251.829 334.639 251.829C334.676 251.829 334.676 251.829 334.676 251.866C334.787 251.866 334.825 251.866 334.899 251.903H335.011C335.011 251.903 335.048 251.94 335.122 251.94H335.159C335.197 251.94 335.271 251.978 335.308 251.978L335.345 252.015C336.871 252.685 338.136 253.987 338.731 255.848C338.731 255.96 343.494 270.476 347.438 282.535C351.382 270.476 356.144 255.96 356.144 255.848C356.963 253.28 359.195 251.643 361.577 251.643C362.135 251.643 362.73 251.68 363.288 251.903C365.595 252.722 367.083 255.067 367.083 257.598C367.083 258.268 366.972 258.975 366.748 259.608V259.719V259.719Z" fill="url(#paint20_linear)"/>
<path d="M436.961 259.719L423.046 302.261H423.009C422.339 304.346 420.702 305.835 418.916 306.244H418.879C418.841 306.244 418.73 306.281 418.655 306.281H418.544C418.506 306.281 418.432 306.318 418.395 306.318H418.283H418.134H418.023H417.874H417.762H417.613H417.502H417.39H417.241H417.13C417.093 306.318 417.018 306.281 416.981 306.281H416.869C416.832 306.281 416.72 306.244 416.646 306.244H416.609C414.786 305.797 413.149 304.309 412.442 302.261L403.661 275.463L394.88 302.261C394.21 304.346 392.573 305.835 390.787 306.244H390.75C390.638 306.244 390.601 306.281 390.527 306.281H390.415C390.378 306.281 390.303 306.318 390.266 306.318H390.154H390.006H389.894H389.745H389.634H389.485H389.373H389.224H389.113H389.001C388.964 306.318 388.889 306.281 388.852 306.281H388.741C388.629 306.281 388.592 306.244 388.517 306.244H388.48C386.62 305.797 385.02 304.309 384.313 302.261L370.397 259.719V259.608C370.174 258.938 370.062 258.23 370.062 257.598C370.062 255.067 371.551 252.722 373.858 251.903C374.416 251.68 375.011 251.643 375.569 251.643C377.913 251.643 380.183 253.28 380.927 255.848C380.964 255.96 385.764 270.476 389.708 282.535C393.652 270.476 398.414 255.96 398.414 255.848C399.01 253.987 400.275 252.685 401.8 252.015L401.838 251.978C401.875 251.978 401.949 251.94 401.986 251.94H402.024C402.061 251.94 402.061 251.903 402.135 251.903H402.247C402.284 251.866 402.358 251.866 402.396 251.866L402.433 251.829C402.544 251.829 402.582 251.829 402.656 251.791H402.693C402.805 251.791 402.842 251.791 402.917 251.754H402.954H403.177H403.214C403.326 251.754 403.363 251.754 403.437 251.717H403.549H403.661H403.81H403.921C403.958 251.754 404.033 251.754 404.07 251.754H404.182H404.405C404.516 251.791 404.554 251.791 404.665 251.791C404.777 251.829 404.814 251.829 404.889 251.829C404.926 251.829 404.926 251.829 404.926 251.866C405.037 251.866 405.075 251.866 405.149 251.903H405.261C405.261 251.903 405.298 251.94 405.372 251.94H405.409C405.447 251.94 405.521 251.978 405.558 251.978L405.595 252.015C407.121 252.685 408.386 253.987 408.981 255.848C408.981 255.96 413.744 270.476 417.688 282.535C421.632 270.476 426.394 255.96 426.394 255.848C427.213 253.28 429.445 251.643 431.827 251.643C432.385 251.643 432.98 251.68 433.538 251.903C435.845 252.722 437.333 255.067 437.333 257.598C437.333 258.268 437.222 258.975 436.998 259.608V259.719H436.961Z" fill="url(#paint21_linear)"/>
<path d="M451.844 307.212C451.844 308.514 450.803 309.557 449.5 309.557C448.198 309.557 447.156 308.514 447.156 307.212V242.077C447.156 240.775 448.198 239.732 449.5 239.732C450.803 239.732 451.844 240.775 451.844 242.077V307.212Z" fill="url(#paint22_linear)"/>
<path d="M576.262 361.366L541.176 318.527C540.915 318.192 540.804 317.745 540.952 317.298C541.101 316.889 541.436 316.554 541.845 316.479L572.839 309.035C574.104 308.738 575.072 307.696 575.258 306.43C575.481 305.165 574.886 303.862 573.807 303.192L485.365 247.288C484.286 246.618 482.909 246.618 481.867 247.325C480.825 248.032 480.267 249.298 480.453 250.526L498.834 361.59C499.057 362.93 500.099 363.972 501.401 364.232C502.741 364.493 504.08 363.86 504.75 362.706L521.902 333.898C522.126 333.526 522.498 333.303 522.907 333.266C523.316 333.228 523.725 333.414 523.986 333.749L556.654 375.659C558.514 378.078 561.937 378.599 564.467 376.887L574.96 369.741C576.299 368.81 577.192 367.396 577.416 365.796C577.713 364.27 577.267 362.632 576.262 361.366Z" fill="url(#paint23_linear)"/>
<path d="M181.497 430.521C177.851 415.224 179.563 400.224 185.255 388.574C190.353 378.153 191.32 366.131 187.711 355.114C187.339 353.96 187.004 352.769 186.706 351.541C182.316 333.117 190.018 315.512 203.933 312.199C217.849 308.887 232.695 321.095 237.085 339.519C237.978 343.278 238.387 347 238.313 350.61C238.127 362.037 242.071 373.202 249.736 381.651C256.619 389.207 261.977 399.182 264.693 410.646C268.786 427.767 266.144 444.478 258.74 456.612C255.949 461.19 253.977 466.252 253.01 471.537C251.373 480.321 245.866 487.281 238.053 489.179C229.644 491.189 220.9 486.685 215.542 478.46C212.491 473.807 208.584 469.825 204.157 466.55C193.627 458.733 185.181 446.004 181.497 430.521Z" fill="#91B3FA"/>
<path d="M203.785 332.968C204.864 345.548 206.352 358.129 207.99 370.672C208.399 373.798 208.845 376.925 209.292 380.051L209.962 384.741L210.669 389.43C211.152 392.557 211.599 395.683 212.12 398.81L213.682 408.152C214.799 414.368 215.878 420.621 217.105 426.799C217.701 429.888 218.259 433.015 218.929 436.104L220.901 445.372C223.654 457.729 226.742 469.974 230.426 482.07L230.947 481.921L228.528 472.765L227.933 470.495L227.375 468.187L226.296 463.572L225.179 458.957C224.807 457.431 224.51 455.868 224.138 454.342C223.468 451.252 222.761 448.163 222.128 445.074C219.598 432.717 217.254 420.286 215.171 407.854C214.166 401.639 213.124 395.386 212.157 389.17L211.413 384.48L210.706 379.791C210.259 376.664 209.776 373.538 209.329 370.411C208.399 364.158 207.543 357.905 206.725 351.652C205.869 345.399 205.087 339.147 204.306 332.856L203.785 332.968Z" fill="#BDD0FB"/>
<path d="M185.701 470.272C180.529 463.126 178.185 455.012 178.631 447.791C179.003 441.315 176.92 434.876 172.715 429.963C172.269 429.442 171.86 428.921 171.413 428.325C165.199 419.765 165.385 409.008 171.822 404.281C178.296 399.591 188.566 402.718 194.816 411.278C196.081 413.028 197.086 414.889 197.83 416.75C200.174 422.705 204.639 427.618 210.406 430.372C215.578 432.791 220.489 436.811 224.359 442.134C230.163 450.099 232.396 459.329 231.168 467.145C230.721 470.123 230.796 473.138 231.428 476.078C232.47 480.954 231.131 485.755 227.522 488.398C223.615 491.226 218.145 490.78 213.606 487.691C211.039 485.941 208.174 484.713 205.16 483.969C198.016 482.219 190.91 477.492 185.701 470.272Z" fill="#BDD0FB"/>
<path d="M176.176 415.038C179.45 421.328 182.91 427.469 186.445 433.61C187.338 435.136 188.231 436.662 189.124 438.188L190.463 440.459L191.84 442.729C192.77 444.255 193.663 445.781 194.593 447.27L197.421 451.774C199.319 454.751 201.216 457.729 203.188 460.669C204.156 462.158 205.123 463.647 206.128 465.098L209.141 469.453C213.234 475.222 217.439 480.917 221.978 486.388L222.201 486.202L219.001 481.996L218.183 480.954L217.402 479.874L215.839 477.716L214.276 475.557C213.755 474.85 213.271 474.105 212.751 473.398C211.746 471.947 210.704 470.495 209.737 469.044C205.793 463.2 201.886 457.282 198.128 451.29C196.268 448.275 194.37 445.297 192.547 442.283L191.17 440.012L189.794 437.742C188.901 436.216 187.971 434.727 187.078 433.201C185.254 430.186 183.468 427.134 181.682 424.045C179.897 420.993 178.148 417.941 176.399 414.852L176.176 415.038Z" fill="url(#paint24_linear)"/>
<path d="M695.814 431.265H690.68V486.908H695.814V431.265Z" fill="#7D97F4"/>
<path d="M715.753 487.987H670.695V485.568C670.695 485.047 671.105 484.638 671.625 484.638H714.749C715.307 484.638 715.753 485.084 715.753 485.643V487.987V487.987Z" fill="#7D97F4"/>
<path d="M724.276 429.218C724.276 432.456 721.634 435.099 718.397 435.099H669.953C666.716 435.099 664.074 432.456 664.074 429.218V423.895C664.074 420.657 666.716 418.015 669.953 418.015H718.397C721.634 418.015 724.276 420.657 724.276 423.895V429.218Z" fill="#7D97F4"/>
<path d="M647.67 470.011C647.67 470.011 631.038 477.157 632.005 484.675C632.005 484.675 649.195 481.363 652.283 476.45C655.372 471.537 653.66 468.671 653.66 468.671L647.67 470.011Z" fill="url(#paint25_linear)"/>
<path d="M651.726 461.822L652.582 469.117C652.693 470.234 652.098 471.313 651.056 471.686C650.535 471.872 649.865 472.02 648.935 472.02C647.67 472.02 646.554 471.202 646.219 469.973L644.582 464.055L651.726 461.822Z" fill="url(#paint26_linear)"/>
<path d="M688.037 405.845C688.037 405.845 657.452 404.43 642.235 413.289C627.017 422.184 643.016 464.763 643.016 464.763C643.016 464.763 646.997 465.62 652.727 462.567C652.727 462.567 644.541 431.377 658.755 425.943C674.717 419.839 691.199 421.328 691.199 421.328L688.148 406.775L688.037 405.845Z" fill="url(#paint27_linear)"/>
<path d="M635.315 481.401C638.775 480.656 649.119 476.376 650.682 476.413C652.244 476.488 654.477 478.833 654.477 478.833C654.477 478.833 654.849 480.098 653.733 481.959C651.091 484.043 645.361 487.84 638.701 488.249C633.789 488.547 630.85 486.612 629.176 484.713C630.627 483.262 633.008 481.885 635.315 481.401Z" fill="url(#paint28_linear)"/>
<path d="M638.703 488.249C645.363 487.84 651.093 484.043 653.735 481.959C652.99 483.187 651.539 484.713 648.823 486.239C642.089 490.036 631.001 489.477 628.768 488.621C627.02 487.951 627.54 486.276 629.178 484.713C630.852 486.611 633.791 488.547 638.703 488.249Z" fill="url(#paint29_linear)"/>
<path d="M658.124 474.999C657.901 475.855 655.445 478.46 654.068 479.875C653.399 480.545 652.431 480.842 651.501 480.656C650.906 480.545 650.236 480.321 649.641 480.023C648.785 479.54 648.45 478.46 648.934 477.567L652.506 471.091L658.124 474.999Z" fill="url(#paint30_linear)"/>
<path d="M718.364 403.276C718.364 403.276 721.042 422.221 713.303 426.092C705.601 429.963 688.672 432.494 682.831 442.32C676.989 452.146 666.534 471.426 657.009 476.971C657.009 476.971 651.576 475.185 649.977 472.505C649.977 472.505 661.288 442.766 666.013 435.546C670.106 429.293 676.059 420.249 684.579 416.378C686.998 415.261 687.184 412.693 686.775 410.05L685.993 405.249L718.364 403.276Z" fill="url(#paint31_linear)"/>
<path d="M646.813 381.8C657.64 384.889 662.477 354.444 662.44 353.699L679.034 373.091C679.034 373.091 669.137 390.472 654.217 392.333C650.422 392.817 647.222 392.147 644.543 390.919C646.515 387.681 646.961 384.48 646.813 381.8Z" fill="url(#paint32_linear)"/>
<path d="M626.795 371.862C631.52 369.927 635.502 373.798 635.502 373.798C640.19 378.599 643.873 380.981 646.813 381.837C646.961 384.48 646.515 387.718 644.543 390.956C638.701 388.276 635.316 382.879 633.902 380.199C633.381 379.232 632.227 378.822 631.223 379.306C630.218 379.79 629.176 380.534 629.139 381.539C629.028 383.512 626.646 383.624 626.646 382.917C626.646 382.172 628.469 378.301 628.469 378.301C628.469 378.301 623.037 381.763 620.954 383.103C618.833 384.443 617.047 382.247 617.047 382.247C617.047 382.247 622.07 373.798 626.795 371.862Z" fill="url(#paint33_linear)"/>
<path d="M714.194 341.157C714.194 341.157 699.646 331.219 664.522 349.196C664.522 349.196 660.913 353.774 662.588 358.948C664.299 364.121 685.135 392.111 685.954 405.249C685.954 405.249 700.204 413.661 718.696 405.324C718.733 405.324 724.91 370.635 714.194 341.157Z" fill="url(#paint34_linear)"/>
<path d="M680.337 325.636L689.639 339.742C690.197 340.859 690.086 342.198 689.304 343.203C687.704 345.176 684.43 347.856 678.774 346.144C677.1 345.623 675.798 344.283 675.426 342.571L672.449 329.99L680.337 325.636Z" fill="url(#paint35_linear)"/>
<path d="M724.947 380.497C725.915 373.649 707.832 360.362 707.832 360.362L714.157 341.156C714.157 341.156 748.686 365.796 741.43 385.932C740.388 388.797 738.826 390.919 736.928 392.408C733.319 384.889 728.333 381.8 724.947 380.497Z" fill="url(#paint36_linear)"/>
<path d="M699.722 382.396C699.722 382.396 720.186 388.128 724.428 381.875C724.726 381.466 724.875 380.982 724.949 380.498C728.335 381.801 733.283 384.89 736.967 392.408C727.256 400.038 708.541 391.478 703.443 388.91C702.625 388.5 701.657 388.389 700.764 388.686C698.941 389.245 695.816 390.138 694.067 390.026C691.5 389.877 688.783 399.145 684.43 396.8C684.393 396.8 686.365 381.019 699.722 382.396Z" fill="url(#paint37_linear)"/>
<path d="M659.09 316.703C659.09 316.926 663.294 331.591 665.49 339.072C666.159 341.342 668.652 342.533 670.847 341.64L672.522 340.933C674.829 339.965 678.81 337.025 679.033 334.531L678.289 316.815C678.289 316.815 659.425 311.269 659.09 316.703Z" fill="url(#paint38_linear)"/>
<path d="M678.14 311.902C678.587 310.227 678.624 307.77 675.461 306.691C672.262 305.574 670.141 307.435 669.024 308.85C668.578 309.445 667.759 309.594 667.127 309.259C666.755 309.073 666.308 309.036 665.787 309.408C665.081 309.929 664.076 309.706 663.629 308.961C662.774 307.51 661.137 306.021 658.16 306.803C652.914 308.18 652.839 314.135 654.551 317.485C656.262 320.834 661.843 319.011 664.56 317.001C666.606 315.475 669.583 316.629 670.885 317.261C671.294 317.447 671.592 317.857 671.703 318.303L673.154 324.891C674.792 325.04 676.392 325.338 677.991 325.673C677.954 325.189 677.954 324.78 677.954 324.445C678.029 322.249 680.559 320.723 681.675 320.164C682.047 319.978 682.307 319.643 682.419 319.271C682.828 317.894 683.312 314.73 679.294 313.8C678.438 313.577 677.917 312.721 678.14 311.902Z" fill="url(#paint39_linear)"/>
<path d="M678.772 328.278C678.772 328.278 676.056 322.323 678.177 320.648C680.298 318.936 683.683 319.42 683.349 323.961C682.902 329.544 678.772 328.278 678.772 328.278Z" fill="url(#paint40_linear)"/>
<path d="M673.598 395.423C673.561 395.423 673.524 395.423 673.487 395.423L625.675 395.386C624.485 395.386 623.555 394.418 623.555 393.227C623.555 392.036 624.522 391.068 625.713 391.106L673.524 391.143C674.715 391.143 675.645 392.11 675.645 393.301C675.608 394.455 674.715 395.386 673.598 395.423Z" fill="url(#paint41_linear)"/>
<path d="M582.703 352.024H622.515C625.454 352.024 628.133 353.737 629.361 356.379L647.779 395.423H598.293C596.395 395.423 594.684 394.269 594.014 392.519L579.727 356.379C578.945 354.295 580.471 352.024 582.703 352.024Z" fill="url(#paint42_linear)"/>
<path d="M589.178 498C588.917 498 588.657 497.963 588.396 497.852C587.392 497.442 586.908 496.288 587.354 495.283L629.473 400.448C629.92 399.443 631.11 398.996 632.115 399.443C633.119 399.852 633.603 401.006 633.157 402.011L591.038 496.847C590.703 497.554 589.959 498 589.178 498Z" fill="#91B3FA"/>
<path d="M636.619 498C635.837 498 635.093 497.553 634.758 496.809L592.64 401.973C592.193 400.968 592.677 399.851 593.681 399.405C594.686 398.995 595.877 399.442 596.323 400.41L638.442 495.246C638.888 496.25 638.404 497.367 637.4 497.814C637.177 497.925 636.879 498 636.619 498Z" fill="#91B3FA"/>
<path d="M719.553 498C719.292 498 719.032 497.962 718.771 497.851C717.767 497.441 717.283 496.287 717.729 495.282L759.848 400.447C760.295 399.442 761.485 398.995 762.49 399.442C763.494 399.851 763.978 401.005 763.532 402.01L721.413 496.846C721.078 497.553 720.334 498 719.553 498Z" fill="#91B3FA"/>
<path d="M767.029 498C766.247 498 765.503 497.553 765.168 496.809L723.05 401.973C722.603 400.968 723.087 399.851 724.091 399.405C725.096 398.995 726.287 399.442 726.733 400.41L768.852 495.246C769.298 496.25 768.815 497.367 767.81 497.814C767.55 497.925 767.289 498 767.029 498Z" fill="#91B3FA"/>
<path d="M771.976 397.507C772.087 396.874 771.938 396.241 771.566 395.757C771.194 395.273 770.673 394.976 770.115 394.976H578.46C577.716 394.976 577.009 395.385 576.637 396.092C576.228 396.799 576.191 397.693 576.488 398.437L578.572 403.462C579.056 404.616 580.06 405.36 581.214 405.36H768.813C769.855 405.36 770.785 404.504 770.971 403.35L771.976 397.507Z" fill="#91B3FA"/>
<path d="M131.953 99.8447L132.325 110.787L139.581 105.8L131.953 99.8447Z" fill="#7D97F4"/>
<path d="M181.029 91.8054L152.342 118.827C151.784 119.348 151.04 119.609 150.296 119.571C149.552 119.534 148.845 119.199 148.324 118.641L122.279 88.8278C121.981 88.4928 121.907 88.0089 122.13 87.5995C122.316 87.1901 122.762 86.9668 123.209 87.004L181.029 91.8054Z" fill="#91B3FA"/>
<path d="M131.953 99.8451L181.03 91.8057L136.158 104.646L136.12 107.699L131.953 99.8451Z" fill="#7D97F4"/>
<path d="M138.649 107.512L132.324 110.788L136.157 104.646L138.649 107.512Z" fill="#7D97F4"/>
<path d="M125.052 248.144C132.716 253.28 139.786 264.781 125.684 283.354C113.071 299.991 100.086 310.896 102.02 321.132C103.955 331.367 88.9605 357.198 58.4877 340.337C28.387 323.7 34.1541 291.691 70.6545 279.52C91.9743 272.411 96.9229 229.385 125.052 248.144Z" fill="url(#paint43_linear)"/>
<path d="M149.46 312.162C149.46 312.162 137.554 326.454 125.536 314.842L120.922 325.598C120.922 325.598 138.447 339.184 151.73 317.82L149.46 312.162Z" fill="url(#paint44_linear)"/>
<path d="M120.028 285.661C116.716 284.656 107.08 282.833 97.9267 291.282C96.364 292.733 95.7314 294.892 96.2895 296.939C98.7452 305.983 105.257 332.782 99.5638 344.357C99.5638 344.357 109.61 355.411 120.549 346.516C120.549 346.516 125.46 325.114 131.897 315.698C136.325 309.222 124.828 291.319 121.888 287.001C121.442 286.369 120.809 285.885 120.028 285.661Z" fill="url(#paint45_linear)"/>
<path d="M114.933 268.392C114.933 268.392 108.273 281.456 107.082 287.485C107.082 287.485 112.105 290.649 117.723 287.188C117.723 287.188 120.067 273.565 121.184 271.183L114.933 268.392Z" fill="url(#paint46_linear)"/>
<path d="M129.888 261.022C129.888 261.022 131.115 283.018 121.888 283.316C112.661 283.614 111.73 267.982 111.73 267.982C111.73 267.982 114.447 258.118 118.874 256.965C123.265 255.811 129.888 261.022 129.888 261.022Z" fill="url(#paint47_linear)"/>
<path d="M127.171 254.211C127.171 254.211 131.413 258.528 130.669 261.208C129.962 263.888 120.883 261.096 118.651 259.831L111.172 267.796C111.172 267.796 111.395 255.997 116.567 252.35C121.702 248.739 127.171 254.211 127.171 254.211Z" fill="url(#paint48_linear)"/>
<path d="M114.522 268.205C114.522 268.205 113.406 260.65 109.722 262.771C106.039 264.893 109.983 270.736 112.885 270.364L114.522 268.205Z" fill="url(#paint49_linear)"/>
<path d="M133.313 391.44C133.275 392.408 134.987 400.113 135.917 404.244C136.289 405.882 136.029 407.631 135.173 409.12L103.026 463.237C102.654 463.907 102.356 464.614 102.17 465.359C101.575 467.89 100.347 474.105 100.98 479.8L102.654 483.262L95.4729 481.624L93.9102 462.307L95.9566 461.079C97.7053 459.999 99.082 458.399 99.8633 456.501C102.765 449.429 109.984 431.452 111.844 422.705C113.965 412.73 125.015 404.653 125.015 404.653L123.081 400.075L133.313 391.44Z" fill="url(#paint50_linear)"/>
<path d="M87.5078 474.923C87.5078 474.923 91.3774 468.745 91.8611 466.363C92.3076 463.981 93.5726 459.738 95.9911 461.003C95.9911 461.003 97.1073 472.653 96.7352 477.194C96.3632 481.735 101.87 481.586 101.87 481.586C101.87 481.586 103.395 481.809 104.512 482.926C105.293 483.707 104.735 485.047 103.656 485.122C101.833 485.233 98.9677 485.27 95.9539 484.675C94.9121 484.489 94.1307 483.558 94.0563 482.516L93.275 469.117L88.3636 475.296L87.5078 474.923Z" fill="url(#paint51_linear)"/>
<path d="M114.112 400.075C114.112 400.075 112.996 448.498 112.81 455.383C112.661 462.269 113.889 477.492 120.772 482.07L117.758 484.303C117.758 484.303 114 481.102 110.354 474.998C106.224 468.113 104.996 466.847 104.996 466.847L106.373 464.056C106.968 462.827 107.154 461.45 106.857 460.11C105.368 452.89 100.42 428.92 99.043 423.747C97.4431 417.643 97.3315 409.491 102.913 402.68C108.494 395.832 114.112 400.075 114.112 400.075Z" fill="url(#paint52_linear)"/>
<path d="M107.75 486.425C107.527 486.425 107.341 486.276 107.341 486.053C107.118 484.452 106.15 477.976 105.369 476.301C104.476 474.366 101.536 466.289 105.369 465.619C105.369 465.619 114.857 479.502 116.68 481.363C118.503 483.224 120.81 482.033 120.81 482.033C120.81 482.033 122.596 482.554 123.935 484.266C124.568 485.085 123.972 486.276 122.931 486.276L116.531 486.35C114.671 486.35 112.996 485.234 112.327 483.522C111.21 480.693 109.276 476.599 107.006 474.738L108.159 485.941C108.197 486.202 108.011 486.425 107.75 486.425Z" fill="url(#paint53_linear)"/>
<path d="M122.036 341.268C122.036 341.268 120.585 345.846 122.817 353.438L136.547 401.415C136.77 402.159 136.361 402.941 135.617 403.238C131.524 404.727 118.017 408.896 99.5626 407.593C98.6325 407.519 97.8511 406.886 97.6651 405.955C96.4372 400.484 92.3072 381.837 91.4515 378.003C88.2144 363.376 85.0518 349.493 101.014 339.965C108.381 343.129 114.78 343.129 122.036 341.268Z" fill="url(#paint54_linear)"/>
<path d="M105.482 297.832C105.482 297.832 102.728 337.359 128.252 317.521C128.252 317.521 132.01 313.948 134.726 313.539C136.178 313.315 137.852 313.167 139.043 313.055C139.601 313.018 139.861 313.725 139.415 314.06C138.522 314.693 137.405 315.325 136.401 315.437C134.466 315.623 136.512 317.037 134.429 320.722C132.345 324.407 129.331 323.03 129.331 323.03C129.331 323.03 100.086 352.992 94.2449 300.735C94.0589 290.984 103.398 291.505 105.482 297.832Z" fill="url(#paint55_linear)"/>
<path d="M157.312 302.335L148.642 301.182C147.6 300.996 146.521 301.628 145.889 302.745L140.159 315.362C139.08 317.261 139.861 319.754 141.573 320.052L148.531 320.945C149.2 321.057 149.87 320.648 150.242 319.866L157.981 304.457C158.465 303.564 158.093 302.447 157.312 302.335Z" fill="url(#paint56_linear)"/>
<path d="M151.394 319.383C151.394 319.383 157.235 310.896 156.565 309.817C155.896 308.775 150.761 307.286 149.57 306.914C148.343 306.579 146.073 314.283 151.394 319.383Z" fill="url(#paint57_linear)"/>
<path d="M62.3962 333.712C62.5079 333.712 62.6567 333.637 62.6939 333.526C62.7683 333.377 62.6939 333.191 62.5079 333.116C56.8896 330.883 52.3503 326.156 50.3411 320.461C48.3319 314.767 48.89 308.253 51.8294 302.968C55.9966 295.561 63.9589 291.43 71.6609 287.41L72.591 286.927C80.9255 282.572 89.0367 277.435 92.0133 269.061C92.0877 268.912 91.976 268.726 91.8272 268.652C91.6784 268.577 91.4923 268.689 91.4179 268.838C88.5158 276.989 80.5162 282.088 72.2934 286.331L71.3632 286.815C63.5869 290.872 55.5501 295.04 51.2712 302.633C48.2202 308.067 47.6621 314.804 49.7457 320.648C51.8294 326.491 56.5175 331.367 62.2846 333.674C62.3218 333.712 62.359 333.712 62.3962 333.712Z" fill="#91B3FA"/>
<path d="M70.9905 330.772C71.1393 330.772 71.2509 330.66 71.2881 330.548C71.3253 330.362 71.2137 330.213 71.0649 330.176C64.5908 328.538 59.1957 324.481 56.5912 319.345C53.6891 313.539 54.6192 306.318 58.7865 302.15C58.8981 302.038 58.8981 301.815 58.7865 301.703C58.6748 301.591 58.4516 301.591 58.34 301.703C53.9495 306.058 52.9821 313.576 56.0331 319.643C58.712 324.965 64.2559 329.134 70.916 330.809C70.9533 330.772 70.9533 330.772 70.9905 330.772Z" fill="#91B3FA"/>
<path d="M632.638 32.2793L589.254 30.0089C585.719 29.8228 582.892 32.5771 583.003 36.1502L584.119 76.0497C584.194 79.325 587.022 81.8188 590.37 81.6327L631.559 79.5856C634.349 79.4367 636.656 76.9802 636.731 74.0398L637.735 38.3089C637.847 35.1452 635.577 32.4282 632.638 32.2793Z" fill="#91B3FA"/>
<path d="M609.643 72.0295C600.638 72.0295 593.309 64.6972 593.309 55.69C593.309 46.6829 600.638 39.3506 609.643 39.3506C618.647 39.3506 625.977 46.6829 625.977 55.69C625.977 64.6972 618.647 72.0295 609.643 72.0295ZM609.643 42.1048C602.127 42.1048 596.062 48.2089 596.062 55.69C596.062 63.2084 602.164 69.2752 609.643 69.2752C617.159 69.2752 623.223 63.1712 623.223 55.69C623.261 48.1717 617.159 42.1048 609.643 42.1048Z" fill="url(#paint58_linear)"/>
<path fill-rule="evenodd" clip-rule="evenodd" d="M604.547 61.9807V50.2192C604.547 48.9538 605.924 48.1722 607.003 48.8421L616.9 54.7228C617.941 55.3556 617.941 56.8816 616.9 57.5143L607.003 63.395C605.886 64.0278 604.547 63.2462 604.547 61.9807Z" fill="url(#paint59_linear)"/>
<path d="M708.638 158.279L665.254 156.009C661.719 155.823 658.892 158.577 659.003 162.15L660.119 202.05C660.194 205.325 663.022 207.819 666.37 207.633L707.559 205.586C710.349 205.437 712.656 202.98 712.731 200.04L713.735 164.309C713.847 161.145 711.577 158.428 708.638 158.279Z" fill="#7D97F4"/>
<path d="M701.718 196.727H671.171C668.566 196.727 666.445 194.605 666.445 192V170.077C666.445 167.472 668.566 165.351 671.171 165.351H701.718C704.322 165.351 706.443 167.472 706.443 170.077V192C706.443 194.605 704.322 196.727 701.718 196.727ZM671.171 169.296C670.724 169.296 670.352 169.668 670.352 170.115V192.037C670.352 192.484 670.724 192.856 671.171 192.856H701.718C702.164 192.856 702.536 192.484 702.536 192.037V170.077C702.536 169.631 702.164 169.259 701.718 169.259H671.171V169.296Z" fill="url(#paint60_linear)"/>
<path d="M686.164 183.178C685.755 183.178 685.383 183.067 685.048 182.806L668.007 170.747C667.114 170.114 666.928 168.886 667.561 168.03C668.193 167.137 669.421 166.951 670.277 167.583L686.164 178.861L701.829 167.732C702.722 167.1 703.949 167.323 704.545 168.179C705.177 169.072 704.954 170.3 704.098 170.896L687.281 182.843C686.946 183.067 686.536 183.178 686.164 183.178Z" fill="url(#paint61_linear)"/>
<path d="M669.458 196.95L668.863 193.079L669.161 195.014L667.523 193.972C667.858 193.414 673.998 182.695 678.016 175.66C678.537 174.73 679.765 174.395 680.695 174.916C681.625 175.437 681.96 176.665 681.439 177.596C681.439 177.596 678.797 182.211 676.193 186.789C674.89 189.096 673.551 191.404 672.584 193.116C670.388 196.801 670.388 196.801 669.458 196.95Z" fill="url(#paint62_linear)"/>
<path d="M702.758 196.95C701.827 196.801 701.827 196.801 699.707 193.116C698.702 191.404 697.4 189.097 696.097 186.789C693.456 182.174 690.851 177.596 690.851 177.596C690.33 176.665 690.628 175.474 691.595 174.916C692.526 174.395 693.716 174.693 694.274 175.66C698.293 182.732 704.432 193.414 704.767 193.972L703.13 195.014L702.758 196.95Z" fill="url(#paint63_linear)"/>
<path d="M54.7667 214.199L11.3829 211.929C7.84824 211.743 5.02048 214.497 5.1321 218.07L6.24832 257.97C6.32273 261.245 9.15049 263.739 12.4991 263.553L53.6877 261.506C56.4782 261.357 58.7851 258.9 58.8595 255.96L59.8641 220.229C59.9757 217.065 57.706 214.348 54.7667 214.199Z" fill="#7D97F4"/>
<path d="M35.6059 221.643C34.8989 221.383 34.1176 221.941 34.1176 222.685V224.248V227.338V242.598C32.5921 241.37 30.5085 240.588 28.1644 240.588C23.5879 240.588 19.8672 243.566 19.8672 247.213C19.8672 250.898 23.5879 253.875 28.1644 253.875C32.7409 253.875 36.4617 250.898 36.4617 247.213C36.4617 247.176 36.4617 247.139 36.4617 247.101V227.301C39.7359 227.784 41.9683 230.315 43.3078 232.325C43.8659 233.181 45.1682 232.735 45.131 231.73C44.8333 225.626 38.5453 222.685 35.6059 221.643Z" fill="url(#paint64_linear)"/>
<path d="M628.84 99.2269L609.678 98.222C608.116 98.1475 606.851 99.3758 606.925 100.939L607.409 118.581C607.446 120.033 608.711 121.112 610.162 121.038L628.356 120.144C629.584 120.07 630.626 118.991 630.626 117.688L631.072 101.907C631.147 100.492 630.142 99.2641 628.84 99.2269Z" fill="white"/>
<path d="M659.795 67.9256L646.475 67.2184C645.396 67.1439 644.503 68 644.54 69.1166L644.875 81.3619C644.912 82.3668 645.768 83.1112 646.81 83.074L659.46 82.4412C660.316 82.404 661.023 81.6224 661.06 80.7291L661.358 69.7493C661.395 68.8188 660.725 67.9628 659.795 67.9256Z" fill="white"/>
</g>
<defs>
<linearGradient id="paint0_linear" x1="377.865" y1="254.801" x2="288.331" y2="50.4111" gradientUnits="userSpaceOnUse">
<stop stop-color="#EDA85A"/>
<stop offset="1" stop-color="#FF928E"/>
</linearGradient>
<linearGradient id="paint1_linear" x1="528.29" y1="131.762" x2="547.217" y2="151.525" gradientUnits="userSpaceOnUse">
<stop stop-color="#09005D"/>
<stop offset="1" stop-color="#1A0F91"/>
</linearGradient>
<linearGradient id="paint2_linear" x1="499.085" y1="112.153" x2="518.798" y2="37.9257" gradientUnits="userSpaceOnUse">
<stop stop-color="#09005D"/>
<stop offset="1" stop-color="#1A0F91"/>
</linearGradient>
<linearGradient id="paint3_linear" x1="559.122" y1="176.718" x2="554.654" y2="201.034" gradientUnits="userSpaceOnUse">
<stop stop-color="#09005D"/>
<stop offset="1" stop-color="#1A0F91"/>
</linearGradient>
<linearGradient id="paint4_linear" x1="536.854" y1="147.29" x2="555.964" y2="185.994" gradientUnits="userSpaceOnUse">
<stop stop-color="#4042E2"/>
<stop offset="1" stop-color="#4F52FF"/>
</linearGradient>
<linearGradient id="paint5_linear" x1="566.705" y1="194.411" x2="607.899" y2="251.964" gradientUnits="userSpaceOnUse">
<stop stop-color="#4042E2"/>
<stop offset="1" stop-color="#4F52FF"/>
</linearGradient>
<linearGradient id="paint6_linear" x1="530.93" y1="91.2025" x2="521.995" y2="107.329" gradientUnits="userSpaceOnUse">
<stop stop-color="#09005D"/>
<stop offset="1" stop-color="#1A0F91"/>
</linearGradient>
<linearGradient id="paint7_linear" x1="488.286" y1="90.0345" x2="463.965" y2="136.18" gradientUnits="userSpaceOnUse">
<stop stop-color="#FF928E"/>
<stop offset="1" stop-color="#FEB3B1"/>
</linearGradient>
<linearGradient id="paint8_linear" x1="467.722" y1="53.0835" x2="344.437" y2="214.249" gradientUnits="userSpaceOnUse">
<stop stop-color="#4042E2"/>
<stop offset="1" stop-color="#4F52FF"/>
</linearGradient>
<linearGradient id="paint9_linear" x1="486.39" y1="76.4438" x2="477.704" y2="92.8181" gradientUnits="userSpaceOnUse">
<stop stop-color="#FF928E"/>
<stop offset="1" stop-color="#FEB3B1"/>
</linearGradient>
<linearGradient id="paint10_linear" x1="440.13" y1="41.2062" x2="434.173" y2="69.2443" gradientUnits="userSpaceOnUse">
<stop stop-color="#FF928E"/>
<stop offset="1" stop-color="#FEB3B1"/>
</linearGradient>
<linearGradient id="paint11_linear" x1="442.932" y1="2.56484" x2="444.173" y2="34.3258" gradientUnits="userSpaceOnUse">
<stop stop-color="#FF928E"/>
<stop offset="1" stop-color="#FEB3B1"/>
</linearGradient>
<linearGradient id="paint12_linear" x1="439.953" y1="-6.32867" x2="447.289" y2="35.4984" gradientUnits="userSpaceOnUse">
<stop stop-color="#09005D"/>
<stop offset="1" stop-color="#1A0F91"/>
</linearGradient>
<linearGradient id="paint13_linear" x1="433.642" y1="2.92837" x2="434.883" y2="34.6892" gradientUnits="userSpaceOnUse">
<stop stop-color="#FF928E"/>
<stop offset="1" stop-color="#FEB3B1"/>
</linearGradient>
<linearGradient id="paint14_linear" x1="462.583" y1="21.6224" x2="460.845" y2="52.6389" gradientUnits="userSpaceOnUse">
<stop stop-color="#09005D"/>
<stop offset="1" stop-color="#1A0F91"/>
</linearGradient>
<linearGradient id="paint15_linear" x1="442.306" y1="20.4862" x2="440.568" y2="51.5025" gradientUnits="userSpaceOnUse">
<stop stop-color="#09005D"/>
<stop offset="1" stop-color="#1A0F91"/>
</linearGradient>
<linearGradient id="paint16_linear" x1="428.475" y1="19.7108" x2="426.738" y2="50.7271" gradientUnits="userSpaceOnUse">
<stop stop-color="#09005D"/>
<stop offset="1" stop-color="#1A0F91"/>
</linearGradient>
<linearGradient id="paint17_linear" x1="378.469" y1="252.14" x2="338.455" y2="418.026" gradientUnits="userSpaceOnUse">
<stop stop-color="#4042E2"/>
<stop offset="1" stop-color="#4F52FF"/>
</linearGradient>
<linearGradient id="paint18_linear" x1="376.992" y1="29.3051" x2="376.992" y2="190.094" gradientUnits="userSpaceOnUse">
<stop stop-color="#4042E2"/>
<stop offset="1" stop-color="#4F52FF"/>
</linearGradient>
<linearGradient id="paint19_linear" x1="229.463" y1="278.952" x2="296.906" y2="278.952" gradientUnits="userSpaceOnUse">
<stop stop-color="#DAE3FE"/>
<stop offset="1" stop-color="#E9EFFD"/>
</linearGradient>
<linearGradient id="paint20_linear" x1="299.649" y1="278.952" x2="367.092" y2="278.952" gradientUnits="userSpaceOnUse">
<stop stop-color="#DAE3FE"/>
<stop offset="1" stop-color="#E9EFFD"/>
</linearGradient>
<linearGradient id="paint21_linear" x1="369.839" y1="278.952" x2="437.282" y2="278.952" gradientUnits="userSpaceOnUse">
<stop stop-color="#DAE3FE"/>
<stop offset="1" stop-color="#E9EFFD"/>
</linearGradient>
<linearGradient id="paint22_linear" x1="447.149" y1="274.643" x2="451.854" y2="274.643" gradientUnits="userSpaceOnUse">
<stop stop-color="#DAE3FE"/>
<stop offset="1" stop-color="#E9EFFD"/>
</linearGradient>
<linearGradient id="paint23_linear" x1="480.43" y1="312.384" x2="577.554" y2="312.384" gradientUnits="userSpaceOnUse">
<stop stop-color="#DAE3FE"/>
<stop offset="1" stop-color="#E9EFFD"/>
</linearGradient>
<linearGradient id="paint24_linear" x1="176.178" y1="450.676" x2="222.26" y2="450.676" gradientUnits="userSpaceOnUse">
<stop stop-color="#DAE3FE"/>
<stop offset="1" stop-color="#E9EFFD"/>
</linearGradient>
<linearGradient id="paint25_linear" x1="637.738" y1="456.897" x2="642.747" y2="476.297" gradientUnits="userSpaceOnUse">
<stop stop-color="#09005D"/>
<stop offset="1" stop-color="#1A0F91"/>
</linearGradient>
<linearGradient id="paint26_linear" x1="653.059" y1="467.568" x2="644.228" y2="465.614" gradientUnits="userSpaceOnUse">
<stop stop-color="#FF928E"/>
<stop offset="1" stop-color="#FEB3B1"/>
</linearGradient>
<linearGradient id="paint27_linear" x1="670.448" y1="446.901" x2="644.548" y2="385.987" gradientUnits="userSpaceOnUse">
<stop stop-color="#2B3582"/>
<stop offset="0.2305" stop-color="#252A70"/>
<stop offset="0.7285" stop-color="#19164F"/>
<stop offset="1" stop-color="#150E42"/>
</linearGradient>
<linearGradient id="paint28_linear" x1="638.978" y1="475.667" x2="660.827" y2="522.666" gradientUnits="userSpaceOnUse">
<stop stop-color="#09005D"/>
<stop offset="1" stop-color="#1A0F91"/>
</linearGradient>
<linearGradient id="paint29_linear" x1="640.605" y1="493.688" x2="641.102" y2="446.295" gradientUnits="userSpaceOnUse">
<stop stop-color="#4042E2"/>
<stop offset="1" stop-color="#4F52FF"/>
</linearGradient>
<linearGradient id="paint30_linear" x1="657.639" y1="477.134" x2="649.351" y2="475.301" gradientUnits="userSpaceOnUse">
<stop stop-color="#FF928E"/>
<stop offset="1" stop-color="#FEB3B1"/>
</linearGradient>
<linearGradient id="paint31_linear" x1="678.176" y1="476.114" x2="691.68" y2="405.312" gradientUnits="userSpaceOnUse">
<stop stop-color="#09005D"/>
<stop offset="1" stop-color="#1A0F91"/>
</linearGradient>
<linearGradient id="paint32_linear" x1="665.486" y1="387.88" x2="649.173" y2="362.099" gradientUnits="userSpaceOnUse">
<stop stop-color="#4042E2"/>
<stop offset="1" stop-color="#4F52FF"/>
</linearGradient>
<linearGradient id="paint33_linear" x1="647.119" y1="383.268" x2="618.208" y2="376.872" gradientUnits="userSpaceOnUse">
<stop stop-color="#FF928E"/>
<stop offset="1" stop-color="#FEB3B1"/>
</linearGradient>
<linearGradient id="paint34_linear" x1="674.934" y1="328.582" x2="731.218" y2="428.425" gradientUnits="userSpaceOnUse">
<stop stop-color="#4042E2"/>
<stop offset="1" stop-color="#4F52FF"/>
</linearGradient>
<linearGradient id="paint35_linear" x1="668.103" y1="316.774" x2="691.431" y2="356.468" gradientUnits="userSpaceOnUse">
<stop stop-color="#FF928E"/>
<stop offset="1" stop-color="#FEB3B1"/>
</linearGradient>
<linearGradient id="paint36_linear" x1="696.551" y1="316.395" x2="752.836" y2="416.238" gradientUnits="userSpaceOnUse">
<stop stop-color="#4042E2"/>
<stop offset="1" stop-color="#4F52FF"/>
</linearGradient>
<linearGradient id="paint37_linear" x1="725.722" y1="360.981" x2="718.029" y2="377.604" gradientUnits="userSpaceOnUse">
<stop stop-color="#FF928E"/>
<stop offset="1" stop-color="#FEB3B1"/>
</linearGradient>
<linearGradient id="paint38_linear" x1="518.664" y1="1158.29" x2="525.869" y2="1118.43" gradientUnits="userSpaceOnUse">
<stop stop-color="#FF928E"/>
<stop offset="1" stop-color="#FEB3B1"/>
</linearGradient>
<linearGradient id="paint39_linear" x1="682.74" y1="316.372" x2="653.449" y2="314.732" gradientUnits="userSpaceOnUse">
<stop stop-color="#09005D"/>
<stop offset="1" stop-color="#1A0F91"/>
</linearGradient>
<linearGradient id="paint40_linear" x1="529.171" y1="1160.19" x2="536.376" y2="1120.33" gradientUnits="userSpaceOnUse">
<stop stop-color="#FF928E"/>
<stop offset="1" stop-color="#FEB3B1"/>
</linearGradient>
<linearGradient id="paint41_linear" x1="681.7" y1="382.73" x2="643.753" y2="395.171" gradientUnits="userSpaceOnUse">
<stop stop-color="#09005D"/>
<stop offset="1" stop-color="#1A0F91"/>
</linearGradient>
<linearGradient id="paint42_linear" x1="637.556" y1="390.731" x2="604.063" y2="369.402" gradientUnits="userSpaceOnUse">
<stop stop-color="#09005D"/>
<stop offset="1" stop-color="#1A0F91"/>
</linearGradient>
<linearGradient id="paint43_linear" x1="48.7816" y1="244.949" x2="89.0266" y2="292.754" gradientUnits="userSpaceOnUse">
<stop stop-color="#09005D"/>
<stop offset="1" stop-color="#1A0F91"/>
</linearGradient>
<linearGradient id="paint44_linear" x1="142.941" y1="297.209" x2="132.33" y2="336.458" gradientUnits="userSpaceOnUse">
<stop stop-color="#FF928E"/>
<stop offset="1" stop-color="#FEB3B1"/>
</linearGradient>
<linearGradient id="paint45_linear" x1="96.8516" y1="204.41" x2="65.3794" y2="4.3989" gradientUnits="userSpaceOnUse">
<stop stop-color="#4042E2"/>
<stop offset="1" stop-color="#4F52FF"/>
</linearGradient>
<linearGradient id="paint46_linear" x1="119.239" y1="267.249" x2="106.953" y2="302.606" gradientUnits="userSpaceOnUse">
<stop stop-color="#FF928E"/>
<stop offset="1" stop-color="#FEB3B1"/>
</linearGradient>
<linearGradient id="paint47_linear" x1="166.432" y1="172.365" x2="148.13" y2="211.633" gradientUnits="userSpaceOnUse">
<stop stop-color="#FF928E"/>
<stop offset="1" stop-color="#FEB3B1"/>
</linearGradient>
<linearGradient id="paint48_linear" x1="98.5324" y1="213.391" x2="119.07" y2="259.509" gradientUnits="userSpaceOnUse">
<stop stop-color="#09005D"/>
<stop offset="1" stop-color="#1A0F91"/>
</linearGradient>
<linearGradient id="paint49_linear" x1="157.19" y1="168.057" x2="138.888" y2="207.325" gradientUnits="userSpaceOnUse">
<stop stop-color="#FF928E"/>
<stop offset="1" stop-color="#FEB3B1"/>
</linearGradient>
<linearGradient id="paint50_linear" x1="74.9499" y1="510.094" x2="133.05" y2="405.26" gradientUnits="userSpaceOnUse">
<stop stop-color="#FF928E"/>
<stop offset="1" stop-color="#FEB3B1"/>
</linearGradient>
<linearGradient id="paint51_linear" x1="87.4719" y1="473.099" x2="104.736" y2="472.935" gradientUnits="userSpaceOnUse">
<stop stop-color="#09005D"/>
<stop offset="1" stop-color="#1A0F91"/>
</linearGradient>
<linearGradient id="paint52_linear" x1="177.553" y1="370.047" x2="144.056" y2="406.881" gradientUnits="userSpaceOnUse">
<stop stop-color="#FF928E"/>
<stop offset="1" stop-color="#FEB3B1"/>
</linearGradient>
<linearGradient id="paint53_linear" x1="103.509" y1="476.067" x2="124.088" y2="475.871" gradientUnits="userSpaceOnUse">
<stop stop-color="#09005D"/>
<stop offset="1" stop-color="#1A0F91"/>
</linearGradient>
<linearGradient id="paint54_linear" x1="130.701" y1="337.524" x2="82.4149" y2="447.922" gradientUnits="userSpaceOnUse">
<stop stop-color="#09005D"/>
<stop offset="1" stop-color="#1A0F91"/>
</linearGradient>
<linearGradient id="paint55_linear" x1="118.763" y1="274.313" x2="117.646" y2="294.411" gradientUnits="userSpaceOnUse">
<stop stop-color="#FF928E"/>
<stop offset="1" stop-color="#FEB3B1"/>
</linearGradient>
<linearGradient id="paint56_linear" x1="145.298" y1="303.574" x2="153.516" y2="313.033" gradientUnits="userSpaceOnUse">
<stop stop-color="#09005D"/>
<stop offset="1" stop-color="#1A0F91"/>
</linearGradient>
<linearGradient id="paint57_linear" x1="154.658" y1="301.359" x2="149.065" y2="322.044" gradientUnits="userSpaceOnUse">
<stop stop-color="#FF928E"/>
<stop offset="1" stop-color="#FEB3B1"/>
</linearGradient>
<linearGradient id="paint58_linear" x1="593.312" y1="55.6886" x2="625.981" y2="55.6886" gradientUnits="userSpaceOnUse">
<stop stop-color="#DAE3FE"/>
<stop offset="1" stop-color="#E9EFFD"/>
</linearGradient>
<linearGradient id="paint59_linear" x1="604.531" y1="56.1081" x2="617.664" y2="56.1081" gradientUnits="userSpaceOnUse">
<stop stop-color="#DAE3FE"/>
<stop offset="1" stop-color="#E9EFFD"/>
</linearGradient>
<linearGradient id="paint60_linear" x1="666.443" y1="181.051" x2="706.434" y2="181.051" gradientUnits="userSpaceOnUse">
<stop stop-color="#DAE3FE"/>
<stop offset="1" stop-color="#E9EFFD"/>
</linearGradient>
<linearGradient id="paint61_linear" x1="667.164" y1="175.173" x2="704.924" y2="175.173" gradientUnits="userSpaceOnUse">
<stop stop-color="#DAE3FE"/>
<stop offset="1" stop-color="#E9EFFD"/>
</linearGradient>
<linearGradient id="paint62_linear" x1="667.475" y1="185.81" x2="681.633" y2="185.81" gradientUnits="userSpaceOnUse">
<stop stop-color="#DAE3FE"/>
<stop offset="1" stop-color="#E9EFFD"/>
</linearGradient>
<linearGradient id="paint63_linear" x1="690.565" y1="185.811" x2="704.724" y2="185.811" gradientUnits="userSpaceOnUse">
<stop stop-color="#DAE3FE"/>
<stop offset="1" stop-color="#E9EFFD"/>
</linearGradient>
<linearGradient id="paint64_linear" x1="19.8948" y1="237.742" x2="45.1437" y2="237.742" gradientUnits="userSpaceOnUse">
<stop stop-color="#DAE3FE"/>
<stop offset="1" stop-color="#E9EFFD"/>
</linearGradient>
<clipPath id="clip0">
<rect width="785" height="498" fill="white"/>
</clipPath>
</defs>
</svg>
