<svg width="573" height="546" viewBox="0 0 573 546" fill="none" xmlns="http://www.w3.org/2000/svg">
<g clip-path="url(#clip0)">
<path d="M475.816 466.33C464.905 477.806 454.579 485.223 446.44 491.078C350.582 559.857 237.157 539.813 213.051 534.914C177.448 527.693 108.644 513.718 58.8899 455.205C-16.3754 366.693 -4.66396 227.261 53.7174 135.217C64.3943 118.373 120.804 24.9431 235.459 9.95372C304.849 0.878115 385.716 19.1855 444.293 68.2523C567.243 171.246 558.479 379.321 475.816 466.33Z" fill="white"/>
<path d="M5.85695 2.69346C5.34946 0.546539 8.3749 -0.878233 10.2292 0.624608C29.0455 15.8872 74.2711 61.5775 63.0086 141.443C48.8768 241.645 73.0414 278.201 103.14 300.49C103.14 300.49 61.8179 290.009 35.8186 252.907C-28.028 161.819 14.8357 40.9476 5.85695 2.69346Z" fill="#91B3FA"/>
<path d="M20.183 33.9991C22.5448 45.1436 24.6333 56.3466 26.2534 67.5886C27.9516 78.8111 29.2398 90.0922 30.1182 101.373C30.9575 112.654 31.5431 123.955 31.5821 135.275C31.6797 146.576 31.2113 157.876 30.6842 169.216C30.2353 180.555 29.7083 191.973 30.5476 203.469C31.3674 214.945 33.7878 226.519 38.5699 237.371C39.7606 240.084 41.0293 242.777 42.4542 245.373C43.8401 248.008 45.343 250.584 46.9045 253.141C50.0666 258.235 53.6191 263.153 57.5814 267.818C65.5257 277.147 75.129 285.423 85.6888 292.41C86.8014 293.151 88.4019 292.956 89.2413 292C90.0806 291.063 89.8854 289.716 88.8314 288.975C86.3134 287.218 83.8345 285.423 81.4337 283.549C80.2235 282.632 79.0523 281.656 77.8812 280.719C76.7491 279.743 75.5584 278.787 74.4654 277.772C69.976 273.771 65.8185 269.516 62.0513 265.007C54.4584 256.049 48.388 246.056 43.801 235.692C41.5758 230.481 39.7801 225.153 38.4723 219.707C37.1646 214.262 36.3643 208.739 35.8958 203.157C34.9979 191.993 35.4078 180.692 35.7592 169.352C36.091 158.013 36.3448 146.615 36.0324 135.216C35.8958 129.517 35.6421 123.838 35.2907 118.139C35.1346 115.289 34.9003 112.459 34.6661 109.61C34.4124 106.78 34.1391 103.93 33.8463 101.1C32.6166 89.7604 30.9965 78.4793 28.9666 67.2373C26.878 56.0148 24.4382 44.8313 21.5103 33.7649C21.4322 33.4526 21.0614 33.2575 20.6905 33.316C20.3392 33.3941 20.1049 33.6868 20.183 33.9991Z" fill="white"/>
<path d="M54.6129 250.116C52.3097 252.555 48.2497 251.853 46.8639 248.788C39.2124 231.886 21.8795 182.117 50.4944 124.775C74.6589 76.3715 83.1692 47.8175 86.1361 34.5847C86.7607 31.7937 90.6059 31.4229 91.7576 34.0382C104.503 62.9826 138.213 161.389 54.6129 250.116Z" fill="#BDD0FB"/>
<path d="M50.4175 248.32C50.3394 248.339 50.2418 248.339 50.1637 248.339C49.4415 248.32 48.856 247.734 48.8755 247.012C48.895 246.192 50.4955 164.005 81.0623 95.1666C81.3551 94.503 82.1359 94.2103 82.7995 94.503C83.4632 94.7958 83.7559 95.5765 83.4632 96.2401C53.1111 164.571 51.5105 246.251 51.5105 247.051C51.491 247.695 51.0226 248.222 50.4175 248.32Z" fill="white"/>
<path d="M233.739 400.751L222.047 505.618H357.723L340.039 400.751H233.739Z" fill="url(#paint0_linear)"/>
<path d="M5.83594 142.36V382.541C5.83594 402.293 21.5878 418.453 41.341 418.961C129.079 421.225 435.918 426.709 519.44 425.479C533.786 425.265 545.419 413.788 545.829 399.424C547.449 343.623 550.065 209.441 540.384 147.161C538.354 134.045 527.267 124.228 513.994 123.818C440.485 121.476 115.201 114.001 31.7181 115.874C17.3326 116.206 5.83594 127.956 5.83594 142.36Z" fill="url(#paint1_linear)"/>
<path d="M20.9062 141.188V369.386C20.9062 380.921 30.1583 390.328 41.694 390.504L507.418 396.262C518.856 396.437 528.225 387.225 528.264 375.788L529.045 149.639C529.084 141.462 522.564 134.767 514.386 134.572L37.5755 124.911C28.4406 124.696 20.9062 132.054 20.9062 141.188Z" fill="#91B3FA"/>
<path d="M386.944 527.067H188.377C182.99 527.067 178.93 523.222 179.984 519.104L182.541 509.033C183.302 506.008 186.64 503.783 190.602 503.646L382.025 497.674C386.163 497.537 389.833 499.743 390.73 502.885L395.317 518.929C396.489 523.105 392.429 527.067 386.944 527.067Z" fill="url(#paint2_linear)"/>
<path opacity="0.44" d="M427.604 211.53H375.84C372.6 211.53 369.965 208.895 369.965 205.655C369.965 202.415 372.6 199.78 375.84 199.78H427.604C430.845 199.78 433.48 202.415 433.48 205.655C433.48 208.895 430.864 211.53 427.604 211.53Z" fill="white"/>
<path opacity="0.43" d="M446.652 202.278H502.516C506.029 202.278 508.859 212.72 508.859 225.621V363.063C508.859 375.944 506.01 386.406 502.516 386.406H446.652C443.139 386.406 440.309 375.964 440.309 363.063V225.621C440.309 212.72 443.158 202.278 446.652 202.278Z" fill="white"/>
<path opacity="0.46" d="M375.84 218.067H427.604C430.845 218.067 433.48 220.702 433.48 223.942V258.605C433.48 261.845 430.845 264.48 427.604 264.48H375.84C372.6 264.48 369.965 261.845 369.965 258.605V223.962C369.965 220.702 372.6 218.067 375.84 218.067Z" fill="white"/>
<path opacity="0.38" d="M375.84 274.863H427.604C430.845 274.863 433.48 281.206 433.48 289.033V372.528C433.48 380.355 430.845 386.698 427.604 386.698H375.84C372.6 386.698 369.965 380.355 369.965 372.528V289.052C369.965 281.206 372.6 274.863 375.84 274.863Z" fill="white"/>
<path opacity="0.42" d="M508.238 192.48H44.5056C39.1379 192.48 34.7852 188.128 34.7852 182.761V144.097C34.7852 138.632 39.294 134.241 44.7594 134.377L508.472 146.107C513.743 146.244 517.939 150.557 517.939 155.827V182.78C517.959 188.148 513.606 192.48 508.238 192.48Z" fill="white"/>
<path opacity="0.58" d="M353.097 351.509H196.847C192.904 351.509 189.723 348.327 189.723 344.385V211.12C189.723 207.177 192.904 203.996 196.847 203.996H353.097C357.04 203.996 360.221 207.177 360.221 211.12V344.385C360.221 348.308 357.04 351.509 353.097 351.509Z" fill="white"/>
<path opacity="0.28" d="M359.775 389.158L38.4917 386.464C34.5879 386.425 31.4648 383.263 31.4648 379.36V368.02C31.4648 362.595 35.8566 358.203 41.2829 358.203H359.345C361.434 358.203 363.132 359.901 363.132 361.989V385.82C363.132 387.674 361.629 389.177 359.775 389.158Z" fill="white"/>
<path opacity="0.47" d="M173.095 348.093H38.1794C34.4708 348.093 31.4648 345.088 31.4648 341.379V206.494C31.4648 202.786 34.4708 199.78 38.1794 199.78H173.095C176.803 199.78 179.809 202.786 179.809 206.494V341.399C179.809 345.088 176.803 348.093 173.095 348.093Z" fill="white"/>
<path d="M48.2734 489.497H230.327V459.928H48.2734C52.1577 459.928 52.1577 489.497 48.2734 489.497Z" fill="#91B3FA"/>
<path d="M230.328 482.1V468.574C230.328 463.812 226.736 459.947 222.286 459.947H49.0351C45.5412 459.947 42.7109 457.644 42.7109 454.814C42.7109 453.956 43.5698 453.253 44.6238 453.253H233.978C238.311 453.253 245.221 458.796 245.221 465.627V484.52C245.221 490.961 238.526 496.191 234.427 496.191H45.6388C44.0187 496.191 42.7305 495.137 42.7305 493.83C42.7305 491.449 45.1118 489.516 48.0591 489.516H223.457C227.244 489.497 230.328 486.179 230.328 482.1Z" fill="url(#paint3_linear)"/>
<path opacity="0.76" d="M225.271 466.642H54.5777C54.2068 466.642 53.9141 466.349 53.9141 465.978C53.9141 465.607 54.2068 465.314 54.5777 465.314H225.271C225.642 465.314 225.935 465.607 225.935 465.978C225.935 466.349 225.642 466.642 225.271 466.642Z" fill="white"/>
<path opacity="0.76" d="M225.271 471.033H54.5777C54.2068 471.033 53.9141 470.74 53.9141 470.37C53.9141 469.999 54.2068 469.706 54.5777 469.706H225.271C225.642 469.706 225.935 469.999 225.935 470.37C225.935 470.74 225.642 471.033 225.271 471.033Z" fill="white"/>
<path opacity="0.76" d="M225.271 475.425H54.5777C54.2068 475.425 53.9141 475.132 53.9141 474.761C53.9141 474.39 54.2068 474.098 54.5777 474.098H225.271C225.642 474.098 225.935 474.39 225.935 474.761C225.935 475.132 225.642 475.425 225.271 475.425Z" fill="white"/>
<path opacity="0.76" d="M225.271 479.816H54.5777C54.2068 479.816 53.9141 479.524 53.9141 479.153C53.9141 478.782 54.2068 478.489 54.5777 478.489H225.271C225.642 478.489 225.935 478.782 225.935 479.153C225.935 479.524 225.642 479.816 225.271 479.816Z" fill="white"/>
<path opacity="0.76" d="M225.271 484.208H54.5777C54.2068 484.208 53.9141 483.915 53.9141 483.544C53.9141 483.174 54.2068 482.881 54.5777 482.881H225.271C225.642 482.881 225.935 483.174 225.935 483.544C225.935 483.915 225.642 484.208 225.271 484.208Z" fill="white"/>
<path d="M249.24 546H12.006C10.425 546 9.13672 544.712 9.13672 543.131V499.451C9.13672 497.87 10.425 496.582 12.006 496.582H249.24C250.821 496.582 252.109 497.87 252.109 499.451V543.131C252.109 544.712 250.821 546 249.24 546Z" fill="url(#paint4_linear)"/>
<path d="M60.3952 540.321H41.3642C38.7291 540.321 36.6016 538.193 36.6016 535.558V507.024C36.6016 504.389 38.7291 502.262 41.3642 502.262H60.3952C63.0303 502.262 65.1579 504.389 65.1579 507.024V535.558C65.1383 538.193 63.0108 540.321 60.3952 540.321Z" fill="#7D97F4"/>
<path d="M76.1832 540.321H73.2163C71.0888 540.321 69.3516 538.584 69.3516 536.456V506.146C69.3516 504.018 71.0888 502.281 73.2163 502.281H76.1832C78.3108 502.281 80.048 504.018 80.048 506.146V536.456C80.048 538.584 78.3108 540.321 76.1832 540.321Z" fill="#7D97F4"/>
<path d="M132.046 320.3C131.929 320.515 124.492 325.98 124.492 325.98C124.492 325.98 126.132 337.71 132.788 342.355C140.107 347.449 150.452 338.159 150.452 338.159C150.452 338.159 158.69 340.111 163.062 322.994C164.057 319.071 158.26 318.739 151.272 319.461C142.274 320.379 132.046 320.3 132.046 320.3Z" fill="url(#paint5_linear)"/>
<path d="M118.165 360.331C121.073 358.34 124.275 356.818 127.69 355.9C128.979 355.549 135.869 357.559 140.144 357.462C145.999 357.325 151.972 354.651 156.793 355.861C161.595 357.052 165.518 358.613 167.782 360.233C174.575 365.054 178.557 374.071 180.977 382.971C176.371 387.694 170.593 389.783 170.593 389.783L169.52 433.131L143.891 446.247L114.632 431.569L115.686 389.217C115.686 389.217 106.395 384.884 105.712 383.322C105.048 381.741 109.967 365.971 118.165 360.331Z" fill="url(#paint6_linear)"/>
<path d="M106.164 383.127C106.164 383.127 93.7107 417.634 122.111 431.823C128.006 431.042 125.741 421.244 125.741 421.244C125.741 421.244 113.405 418.512 117.114 389.724C113.698 386.913 106.164 383.127 106.164 383.127Z" fill="url(#paint7_linear)"/>
<path d="M180.411 383.127C180.411 383.127 188.98 419.156 164.464 431.823C158.569 431.042 160.834 421.244 160.834 421.244C160.834 421.244 170.769 416.346 169.461 389.724C172.877 386.913 180.411 383.127 180.411 383.127Z" fill="url(#paint8_linear)"/>
<path d="M168.899 434.243H115.944C115.046 434.243 114.324 433.501 114.324 432.623V397.921C114.324 397.023 115.066 396.301 115.944 396.301H168.899C169.797 396.301 170.519 397.042 170.519 397.921V432.623C170.539 433.501 169.797 434.243 168.899 434.243Z" fill="url(#paint9_linear)"/>
<path d="M195.193 445.485C188.751 444.001 173.897 444.801 173.897 444.801L173.292 446.441L172.297 454.58C172.297 454.58 186.448 457.136 193.436 457.117C194.139 457.117 194.802 457 195.388 456.824C195.603 456.629 195.817 456.434 196.013 456.219C198.96 452.999 198.101 448.256 195.193 445.485Z" fill="url(#paint10_linear)"/>
<path d="M169.621 444.353L172.139 444.47C173.485 444.528 174.774 445.192 175.671 446.304C176.589 447.417 177.057 448.881 176.96 450.383C176.901 451.574 176.413 452.686 175.593 453.487C174.793 454.287 173.72 454.677 172.646 454.599L168.801 454.326L169.621 444.353Z" fill="url(#paint11_linear)"/>
<path d="M84.966 444.705C91.4268 443.416 106.281 444.685 106.281 444.685L106.847 446.344L107.647 454.502C107.647 454.502 93.4372 456.61 86.4494 456.395C85.7467 456.376 85.0831 456.239 84.4975 456.044C84.2828 455.849 84.0876 455.634 83.8924 455.42C81.0036 452.102 81.9796 447.378 84.966 444.705Z" fill="url(#paint12_linear)"/>
<path d="M110.556 444.354L108.038 444.393C106.691 444.412 105.403 445.037 104.466 446.11C103.529 447.203 103.022 448.647 103.061 450.15C103.1 451.341 103.549 452.473 104.349 453.293C105.13 454.112 106.184 454.542 107.257 454.503L111.122 454.346L110.556 444.354Z" fill="url(#paint13_linear)"/>
<path d="M196.987 419.976C194.079 413.262 186.935 412.169 180.865 415.311C180.767 415.448 142.295 435.161 108.391 443.787C109.367 446.891 109.855 450.209 109.972 453.468C109.991 454.19 109.972 454.912 109.933 455.615C135.932 454.288 164.176 445.602 188.419 437.991C195.933 435.571 200.208 427.412 196.987 419.976Z" fill="url(#paint14_linear)"/>
<path d="M169.795 453.994C169.698 450.247 170.42 446.753 171.981 443.513C172.02 443.357 172.079 443.221 172.118 443.084C170.186 442.479 167.687 441.679 164.388 440.566C140.302 432.33 121.935 423.996 104.407 414.432C97.5944 410.705 89.8453 413.203 87.6592 421.264C85.7073 428.465 89.982 434.594 96.4818 436.76C115.884 443.221 105.792 441.425 112.117 443.474C129.137 448.744 150.335 453.526 169.815 454.833C169.815 454.541 169.795 454.267 169.795 453.994Z" fill="url(#paint15_linear)"/>
<path d="M127.691 355.9C127.691 355.9 130.287 367.123 142.858 366.889C155.662 366.654 156.814 355.861 156.814 355.861L148.44 354.066L147.737 344.736L135.148 345.673L134.913 354.534L127.691 355.9Z" fill="url(#paint16_linear)"/>
<path d="M136.924 318.349C136.924 318.349 122.499 346.278 139.617 353.07C151.68 357.852 159.253 334.529 156.989 328.205C153.495 318.427 151.212 319.598 151.212 319.598L136.924 318.349Z" fill="url(#paint17_linear)"/>
<path d="M160.446 315.792C167.571 317.743 161.481 333.201 150.745 329.551C140.01 325.902 135.794 325.96 134.135 328.888C132.456 331.835 132.105 342.296 128.474 337.124C124.492 331.464 122.287 320.085 127.147 316.416C131.5 313.137 132.515 308.063 137.746 308.238C144.675 308.473 150.043 305.389 153.185 307.614C156.796 310.151 155.215 314.347 160.446 315.792Z" fill="url(#paint18_linear)"/>
<path d="M133.49 331.308C133.49 331.308 130.406 327.99 129.918 331.991C129.43 335.973 131.011 341.125 132.865 338.295C134.719 335.465 133.49 331.308 133.49 331.308Z" fill="url(#paint19_linear)"/>
<path d="M145.748 412.286C146.041 414.296 144.967 416.131 142.957 416.424C140.947 416.716 139.073 415.331 138.78 413.32C138.487 411.31 139.405 409.3 141.415 409.007C143.406 408.714 145.436 410.276 145.748 412.286Z" fill="#91B3FA"/>
<path d="M107.084 306.17C143.413 306.17 172.863 276.722 172.863 240.396C172.863 204.07 143.413 174.622 107.084 174.622C70.755 174.622 41.3047 204.07 41.3047 240.396C41.3047 276.722 70.755 306.17 107.084 306.17Z" fill="white"/>
<path d="M52.8594 237.195L66.6593 229.993V233.057C66.6593 233.292 66.6008 233.506 66.4836 233.701C66.3665 233.897 66.1713 234.053 65.9176 234.189L59.5934 237.429C59.3202 237.566 59.0469 237.683 58.7541 237.781C58.4613 237.878 58.149 237.976 57.7977 238.054C58.1295 238.132 58.4418 238.23 58.7541 238.327C59.0469 238.425 59.3397 238.542 59.5934 238.678L65.9176 241.938C66.1909 242.074 66.3861 242.25 66.4836 242.426C66.6008 242.621 66.6593 242.836 66.6593 243.07V246.134L52.8594 238.913V237.195Z" fill="#91B3FA"/>
<path d="M72.9648 249.803V223.903H77.2785V233.857C77.9812 233.194 78.7425 232.667 79.5818 232.257C80.4211 231.847 81.3971 231.652 82.5292 231.652C83.5051 231.652 84.364 231.808 85.1252 232.14C85.8864 232.471 86.511 232.94 87.0185 233.525C87.526 234.13 87.9164 234.833 88.1702 235.672C88.4239 236.512 88.5605 237.409 88.5605 238.424V249.803H84.2468V238.424C84.2468 237.331 83.9931 236.492 83.4856 235.887C82.9781 235.282 82.2169 234.989 81.2019 234.989C80.4601 234.989 79.7575 235.165 79.1133 235.497C78.4692 235.828 77.8446 236.297 77.259 236.882V249.822H72.9648V249.803Z" fill="#91B3FA"/>
<path d="M98.6516 250.076C97.1095 250.076 95.9189 249.647 95.0796 248.768C94.2403 247.89 93.8304 246.68 93.8304 245.138V235.145H92.0151C91.7809 235.145 91.5857 235.067 91.41 234.911C91.2343 234.755 91.1562 234.54 91.1562 234.228V232.53L94.0255 232.061L94.9234 227.182C94.9625 226.948 95.0796 226.772 95.2552 226.636C95.4309 226.499 95.6261 226.44 95.8994 226.44H98.1245V232.061H102.829V235.126H98.1245V244.806C98.1245 245.372 98.2612 245.802 98.5344 246.114C98.8077 246.426 99.1786 246.582 99.647 246.582C99.9203 246.582 100.135 246.543 100.311 246.485C100.486 246.426 100.642 246.348 100.779 246.29C100.916 246.212 101.033 246.153 101.13 246.094C101.228 246.036 101.345 245.997 101.443 245.997C101.579 245.997 101.677 246.036 101.755 246.094C101.833 246.153 101.931 246.251 102.009 246.387L103.297 248.476C102.672 249.003 101.95 249.393 101.13 249.666C100.369 249.959 99.5299 250.076 98.6516 250.076Z" fill="#91B3FA"/>
<path d="M106.262 249.803V231.925H108.897C109.463 231.925 109.814 232.178 109.99 232.705L110.263 234.033C110.575 233.681 110.907 233.369 111.239 233.076C111.59 232.783 111.942 232.53 112.332 232.334C112.723 232.12 113.132 231.964 113.581 231.847C114.03 231.729 114.518 231.671 115.045 231.671C116.177 231.671 117.095 231.983 117.817 232.588C118.539 233.193 119.086 234.013 119.437 235.028C119.71 234.442 120.062 233.935 120.491 233.506C120.901 233.076 121.369 232.744 121.877 232.471C122.384 232.198 122.911 232.003 123.477 231.886C124.044 231.749 124.61 231.69 125.176 231.69C126.171 231.69 127.049 231.847 127.811 232.139C128.572 232.432 129.216 232.881 129.743 233.466C130.27 234.052 130.66 234.755 130.934 235.594C131.207 236.433 131.344 237.39 131.344 238.463V249.842H127.069V238.463C127.069 237.331 126.815 236.472 126.327 235.887C125.82 235.321 125.098 235.028 124.122 235.028C123.673 235.028 123.263 235.106 122.892 235.262C122.521 235.418 122.189 235.633 121.896 235.906C121.604 236.199 121.389 236.55 121.233 236.98C121.077 237.409 120.999 237.897 120.999 238.463V249.842H116.685V238.463C116.685 237.272 116.451 236.394 115.963 235.848C115.475 235.301 114.772 235.028 113.835 235.028C113.21 235.028 112.644 235.184 112.098 235.496C111.551 235.809 111.063 236.218 110.595 236.765V249.861H106.262V249.803Z" fill="#91B3FA"/>
<path d="M140.208 223.903V249.803H135.895V223.903H140.208Z" fill="#91B3FA"/>
<path d="M146.746 246.154V243.089C146.746 242.855 146.805 242.64 146.922 242.445C147.039 242.25 147.234 242.094 147.488 241.957L153.812 238.698C154.319 238.444 154.925 238.23 155.608 238.073C155.276 237.995 154.964 237.898 154.651 237.8C154.359 237.703 154.066 237.585 153.812 237.449L147.488 234.209C147.215 234.072 147.019 233.897 146.922 233.721C146.805 233.526 146.746 233.311 146.746 233.077V230.013L160.546 237.215V238.952L146.746 246.154Z" fill="#91B3FA"/>
<path d="M257.983 255.853C289.989 255.853 315.935 229.91 315.935 197.906C315.935 165.903 289.989 139.959 257.983 139.959C225.977 139.959 200.031 165.903 200.031 197.906C200.031 229.91 225.977 255.853 257.983 255.853Z" fill="white"/>
<path d="M227.34 198.005L244.087 189.28V193.008C244.087 193.281 244.009 193.555 243.872 193.789C243.736 194.023 243.502 194.218 243.17 194.394L235.499 198.317C235.167 198.492 234.835 198.629 234.464 198.746C234.113 198.863 233.723 198.98 233.313 199.078C233.723 199.176 234.113 199.293 234.464 199.41C234.816 199.527 235.167 199.683 235.499 199.839L243.17 203.801C243.502 203.977 243.736 204.172 243.872 204.406C244.009 204.64 244.087 204.894 244.087 205.167V208.895L227.34 200.132V198.005Z" fill="#91B3FA"/>
<path d="M253.552 213.364C253.434 213.696 253.259 213.969 253.064 214.204C252.868 214.438 252.634 214.653 252.38 214.809C252.127 214.965 251.853 215.101 251.58 215.18C251.307 215.258 251.014 215.316 250.76 215.316H248.555L260.91 183.737C261.144 183.151 261.496 182.683 261.945 182.371C262.394 182.058 262.94 181.902 263.565 181.902H265.79L253.552 213.364Z" fill="#91B3FA"/>
<path d="M270.145 208.876V205.148C270.145 204.875 270.223 204.601 270.359 204.387C270.496 204.153 270.73 203.957 271.062 203.782L278.733 199.82C279.358 199.507 280.08 199.254 280.919 199.059C280.509 198.961 280.119 198.844 279.767 198.727C279.416 198.61 279.065 198.453 278.733 198.297L271.062 194.374C270.73 194.199 270.496 194.003 270.359 193.769C270.223 193.535 270.145 193.281 270.145 192.989V189.261L286.892 197.985V200.093L270.145 208.876Z" fill="#91B3FA"/>
<g opacity="0.64">
<path opacity="0.64" d="M554.067 444.685C553.891 444.685 553.735 444.627 553.598 444.49C553.344 444.236 553.344 443.807 553.618 443.553C554.008 443.182 554.379 442.792 554.769 442.401C555.023 442.148 555.433 442.128 555.706 442.382C555.96 442.636 555.979 443.046 555.726 443.319C555.335 443.709 554.945 444.1 554.555 444.49C554.398 444.627 554.242 444.685 554.067 444.685Z" fill="url(#paint20_linear)"/>
<path opacity="0.64" d="M513.117 461.977C512.765 461.977 512.473 461.684 512.453 461.333C512.453 460.962 512.726 460.669 513.097 460.669C514.151 460.65 515.244 460.591 516.298 460.513C516.65 460.494 516.982 460.748 517.001 461.118C517.021 461.489 516.767 461.801 516.396 461.821C515.322 461.899 514.21 461.958 513.117 461.977C513.117 461.977 513.136 461.977 513.117 461.977ZM509.857 461.977H509.838C508.745 461.938 507.651 461.88 506.558 461.801C506.188 461.762 505.934 461.45 505.953 461.099C505.992 460.747 506.305 460.474 506.656 460.494C507.71 460.591 508.803 460.65 509.857 460.669C510.228 460.689 510.501 460.982 510.501 461.353C510.501 461.684 510.209 461.977 509.857 461.977ZM519.597 461.47C519.265 461.47 518.992 461.235 518.953 460.904C518.914 460.552 519.168 460.221 519.519 460.162C520.573 460.025 521.647 459.85 522.701 459.655C523.052 459.596 523.403 459.83 523.462 460.181C523.52 460.533 523.286 460.884 522.935 460.943C521.861 461.138 520.768 461.313 519.695 461.47C519.656 461.47 519.617 461.47 519.597 461.47ZM503.377 461.431C503.338 461.431 503.318 461.431 503.279 461.431C502.186 461.274 501.113 461.099 500.039 460.904C499.688 460.826 499.454 460.494 499.512 460.142C499.571 459.791 499.922 459.557 500.273 459.615C501.327 459.811 502.381 459.986 503.455 460.142C503.806 460.201 504.06 460.533 504.021 460.884C503.982 461.196 503.709 461.431 503.377 461.431ZM525.98 460.26C525.687 460.26 525.414 460.064 525.336 459.752C525.258 459.401 525.472 459.049 525.824 458.952C526.858 458.698 527.893 458.405 528.927 458.113C529.279 458.015 529.649 458.21 529.747 458.542C529.845 458.893 529.649 459.264 529.318 459.362C528.264 459.674 527.21 459.967 526.156 460.221C526.077 460.26 526.038 460.26 525.98 460.26ZM496.994 460.201C496.936 460.201 496.897 460.201 496.838 460.181C495.784 459.928 494.71 459.615 493.676 459.303C493.325 459.206 493.129 458.835 493.246 458.483C493.344 458.132 493.715 457.937 494.066 458.054C495.081 458.366 496.135 458.659 497.17 458.913C497.521 458.991 497.736 459.362 497.658 459.713C497.56 460.006 497.306 460.201 496.994 460.201ZM532.206 458.386C531.933 458.386 531.679 458.21 531.582 457.956C531.465 457.625 531.64 457.234 531.972 457.117C532.968 456.746 533.983 456.356 534.959 455.946C535.29 455.81 535.681 455.966 535.817 456.297C535.954 456.629 535.798 457.02 535.466 457.156C534.451 457.586 533.436 457.996 532.402 458.347C532.363 458.366 532.285 458.386 532.206 458.386ZM490.787 458.308C490.709 458.308 490.631 458.288 490.553 458.269C489.518 457.898 488.503 457.488 487.488 457.059C487.157 456.922 487 456.532 487.137 456.2C487.274 455.868 487.664 455.712 487.996 455.849C488.972 456.258 489.987 456.668 490.982 457.039C491.314 457.156 491.49 457.547 491.373 457.878C491.314 458.132 491.06 458.308 490.787 458.308ZM538.199 455.849C537.965 455.849 537.73 455.712 537.613 455.478C537.457 455.146 537.594 454.756 537.925 454.599C538.882 454.131 539.838 453.624 540.775 453.116C541.088 452.941 541.497 453.058 541.673 453.37C541.849 453.682 541.732 454.092 541.419 454.268C540.463 454.795 539.487 455.302 538.511 455.79C538.394 455.829 538.296 455.849 538.199 455.849ZM484.814 455.751C484.717 455.751 484.619 455.732 484.521 455.692C483.546 455.205 482.57 454.697 481.613 454.17C481.301 453.994 481.184 453.585 481.359 453.272C481.535 452.96 481.925 452.843 482.257 453.019C483.194 453.546 484.151 454.033 485.107 454.502C485.439 454.658 485.576 455.048 485.4 455.38C485.283 455.614 485.048 455.751 484.814 455.751ZM543.879 452.706C543.664 452.706 543.449 452.589 543.313 452.394C543.118 452.082 543.215 451.672 543.527 451.496C544.425 450.93 545.343 450.325 546.202 449.72C546.494 449.505 546.904 449.584 547.119 449.876C547.334 450.169 547.256 450.579 546.963 450.794C546.065 451.418 545.148 452.023 544.23 452.609C544.113 452.667 543.996 452.706 543.879 452.706ZM479.134 452.589C479.017 452.589 478.9 452.55 478.783 452.492C477.865 451.906 476.948 451.301 476.05 450.657C475.757 450.442 475.679 450.032 475.894 449.74C476.109 449.447 476.519 449.369 476.811 449.584C477.69 450.208 478.588 450.794 479.486 451.379C479.798 451.574 479.876 451.984 479.681 452.277C479.564 452.472 479.349 452.589 479.134 452.589ZM549.188 448.978C548.993 448.978 548.798 448.9 548.68 448.725C548.466 448.432 548.505 448.022 548.798 447.807C549.637 447.144 550.476 446.461 551.277 445.758C551.55 445.524 551.96 445.543 552.194 445.817C552.428 446.09 552.409 446.5 552.135 446.734C551.316 447.456 550.476 448.159 549.617 448.842C549.481 448.92 549.344 448.978 549.188 448.978ZM473.845 448.822C473.708 448.822 473.552 448.783 473.435 448.686C472.576 448.003 471.737 447.3 470.917 446.578C470.643 446.344 470.624 445.914 470.858 445.66C471.092 445.387 471.522 445.368 471.776 445.602C472.576 446.305 473.396 447.007 474.235 447.671C474.528 447.905 474.567 448.315 474.333 448.588C474.215 448.744 474.04 448.822 473.845 448.822ZM468.984 444.529C468.809 444.529 468.653 444.47 468.516 444.333C467.735 443.572 466.974 442.772 466.232 441.972C465.978 441.698 465.998 441.289 466.271 441.035C466.544 440.801 466.954 440.801 467.208 441.074C467.93 441.855 468.672 442.635 469.433 443.397C469.687 443.65 469.687 444.06 469.433 444.333C469.316 444.47 469.14 444.529 468.984 444.529ZM464.612 439.727C464.417 439.727 464.241 439.649 464.105 439.493C463.421 438.654 462.738 437.775 462.094 436.897C461.879 436.604 461.938 436.195 462.231 435.98C462.524 435.765 462.933 435.824 463.148 436.116C463.773 436.975 464.436 437.834 465.12 438.654C465.354 438.927 465.315 439.356 465.022 439.571C464.905 439.688 464.749 439.727 464.612 439.727ZM460.767 434.477C460.552 434.477 460.337 434.379 460.22 434.184C459.615 433.267 459.049 432.33 458.503 431.393C458.327 431.081 458.425 430.671 458.737 430.495C459.049 430.32 459.459 430.417 459.635 430.73C460.162 431.647 460.728 432.564 461.313 433.462C461.509 433.774 461.43 434.165 461.118 434.379C461.021 434.458 460.884 434.477 460.767 434.477ZM457.507 428.856C457.273 428.856 457.039 428.719 456.922 428.505C456.687 428.056 456.453 427.587 456.238 427.119C455.985 426.592 455.75 426.065 455.516 425.538C455.36 425.206 455.516 424.816 455.848 424.679C456.18 424.523 456.57 424.679 456.707 425.011C456.941 425.519 457.175 426.046 457.429 426.553C457.644 427.002 457.878 427.47 458.093 427.919C458.249 428.251 458.132 428.641 457.8 428.797C457.722 428.836 457.624 428.856 457.507 428.856ZM454.872 422.923C454.599 422.923 454.365 422.767 454.267 422.493C453.877 421.478 453.506 420.424 453.174 419.39C453.057 419.039 453.252 418.668 453.603 418.57C453.955 418.453 454.326 418.648 454.423 419C454.755 420.015 455.106 421.03 455.497 422.025C455.633 422.357 455.458 422.747 455.126 422.864C455.028 422.903 454.95 422.923 454.872 422.923ZM452.881 416.736C452.588 416.736 452.335 416.541 452.257 416.248C451.983 415.194 451.73 414.12 451.495 413.047C451.417 412.696 451.651 412.344 452.003 412.266C452.354 412.188 452.705 412.422 452.784 412.774C452.998 413.828 453.252 414.882 453.525 415.896C453.623 416.248 453.408 416.599 453.057 416.697C452.979 416.736 452.92 416.736 452.881 416.736ZM451.554 410.373C451.242 410.373 450.949 410.139 450.91 409.807C450.754 408.734 450.617 407.641 450.5 406.548C450.461 406.196 450.734 405.865 451.085 405.825C451.456 405.786 451.769 406.06 451.808 406.411C451.905 407.465 452.042 408.538 452.198 409.592C452.257 409.944 452.003 410.295 451.651 410.334C451.612 410.373 451.573 410.373 451.554 410.373ZM450.91 403.913C450.558 403.913 450.266 403.64 450.246 403.288C450.207 402.41 450.188 401.532 450.188 400.653V400.009C450.188 399.638 450.519 399.346 450.851 399.365C451.222 399.365 451.515 399.658 451.495 400.029V400.653C451.495 401.512 451.515 402.39 451.554 403.23C451.573 403.6 451.281 403.893 450.929 403.913C450.929 403.913 450.929 403.913 450.91 403.913Z" fill="url(#paint21_linear)"/>
<path opacity="0.64" d="M450.988 397.375C450.968 397.375 450.968 397.375 450.949 397.375C450.578 397.355 450.305 397.043 450.344 396.672C450.383 396.126 450.422 395.56 450.48 395.013C450.519 394.662 450.832 394.389 451.202 394.428C451.573 394.467 451.827 394.779 451.788 395.15C451.729 395.696 451.69 396.223 451.651 396.77C451.632 397.101 451.339 397.375 450.988 397.375Z" fill="url(#paint22_linear)"/>
</g>
<g opacity="0.64">
<path opacity="0.64" d="M471.697 355.451C471.521 355.451 471.326 355.373 471.209 355.217C470.975 354.944 470.994 354.534 471.268 354.3C471.677 353.929 472.107 353.578 472.536 353.226C472.81 352.992 473.239 353.031 473.454 353.324C473.688 353.597 473.649 354.027 473.356 354.241C472.946 354.593 472.517 354.944 472.126 355.295C472.009 355.393 471.853 355.451 471.697 355.451Z" fill="url(#paint23_linear)"/>
<path opacity="0.64" d="M572.259 404.557C572.24 404.557 572.24 404.557 572.22 404.557C571.85 404.538 571.576 404.225 571.596 403.874C571.654 402.762 571.693 401.649 571.693 400.556C571.693 400.185 571.986 399.892 572.357 399.892C572.728 399.892 573.021 400.185 573.021 400.556C573.021 401.669 572.982 402.801 572.923 403.933C572.904 404.284 572.611 404.557 572.259 404.557ZM572.259 397.863C571.908 397.863 571.615 397.589 571.596 397.238C571.537 396.145 571.44 395.033 571.323 393.94C571.284 393.588 571.537 393.257 571.908 393.217C572.259 393.178 572.591 393.432 572.63 393.803C572.747 394.916 572.845 396.048 572.904 397.18C572.923 397.55 572.65 397.843 572.279 397.863C572.279 397.863 572.279 397.863 572.259 397.863ZM571.518 391.227C571.205 391.227 570.932 390.993 570.874 390.68C570.698 389.607 570.483 388.514 570.229 387.44C570.151 387.089 570.366 386.738 570.717 386.66C571.069 386.582 571.42 386.796 571.498 387.148C571.752 388.241 571.967 389.373 572.142 390.466C572.201 390.817 571.967 391.168 571.596 391.227C571.596 391.207 571.557 391.227 571.518 391.227ZM570.054 384.688C569.761 384.688 569.507 384.493 569.429 384.22C569.136 383.166 568.785 382.093 568.434 381.058C568.317 380.707 568.492 380.336 568.844 380.219C569.175 380.102 569.566 380.277 569.683 380.629C570.054 381.683 570.386 382.776 570.698 383.849C570.796 384.2 570.6 384.552 570.249 384.669C570.171 384.688 570.112 384.688 570.054 384.688ZM567.868 378.365C567.614 378.365 567.36 378.209 567.263 377.955C566.853 376.94 566.404 375.925 565.935 374.93C565.779 374.598 565.916 374.208 566.248 374.051C566.579 373.895 566.97 374.032 567.126 374.364C567.614 375.379 568.063 376.433 568.492 377.467C568.629 377.799 568.473 378.189 568.141 378.326C568.024 378.345 567.946 378.365 567.868 378.365ZM564.998 372.314C564.764 372.314 564.53 372.197 564.413 371.963C563.886 371.007 563.339 370.031 562.754 369.094C562.559 368.782 562.656 368.372 562.968 368.196C563.281 368.001 563.691 368.099 563.866 368.411C564.452 369.367 565.018 370.363 565.564 371.338C565.74 371.651 565.623 372.061 565.291 372.236C565.213 372.295 565.096 372.314 564.998 372.314ZM561.505 366.615C561.29 366.615 561.095 366.518 560.958 366.323C560.333 365.425 559.67 364.527 559.006 363.649C558.791 363.356 558.83 362.946 559.123 362.731C559.416 362.517 559.826 362.556 560.041 362.848C560.724 363.746 561.407 364.664 562.051 365.581C562.266 365.874 562.188 366.283 561.875 366.498C561.758 366.576 561.622 366.615 561.505 366.615ZM557.386 361.326C557.21 361.326 557.015 361.248 556.898 361.092C556.176 360.272 555.434 359.452 554.653 358.652C554.4 358.398 554.4 357.969 554.673 357.715C554.927 357.462 555.356 357.462 555.61 357.735C556.391 358.535 557.171 359.374 557.893 360.214C558.128 360.487 558.108 360.897 557.835 361.131C557.698 361.287 557.542 361.326 557.386 361.326ZM552.721 356.544C552.565 356.544 552.409 356.486 552.272 356.369C551.472 355.627 550.632 354.905 549.774 354.202C549.5 353.968 549.461 353.558 549.676 353.285C549.91 353.012 550.32 352.973 550.593 353.187C551.472 353.909 552.331 354.651 553.15 355.412C553.424 355.666 553.443 356.076 553.189 356.349C553.072 356.466 552.897 356.544 552.721 356.544ZM475.601 352.348C475.406 352.348 475.191 352.25 475.074 352.075C474.86 351.782 474.918 351.372 475.211 351.157C476.109 350.494 477.046 349.85 477.983 349.225C478.295 349.03 478.685 349.108 478.9 349.42C479.095 349.733 479.017 350.123 478.705 350.338C477.787 350.943 476.87 351.567 475.992 352.231C475.875 352.289 475.738 352.348 475.601 352.348ZM547.548 352.289C547.412 352.289 547.275 352.25 547.158 352.153C546.28 351.509 545.362 350.865 544.445 350.279C544.133 350.084 544.055 349.674 544.25 349.362C544.445 349.05 544.855 348.972 545.167 349.167C546.104 349.772 547.041 350.435 547.958 351.099C548.251 351.314 548.31 351.723 548.095 352.016C547.958 352.211 547.763 352.289 547.548 352.289ZM481.203 348.679C480.969 348.679 480.754 348.562 480.637 348.347C480.462 348.035 480.559 347.625 480.871 347.449C481.847 346.883 482.843 346.337 483.838 345.849C484.17 345.693 484.561 345.81 484.717 346.142C484.873 346.473 484.756 346.864 484.424 347.02C483.448 347.508 482.472 348.054 481.516 348.601C481.437 348.659 481.32 348.679 481.203 348.679ZM541.946 348.64C541.829 348.64 541.732 348.62 541.615 348.562C540.658 348.015 539.682 347.488 538.706 346.981C538.374 346.825 538.257 346.415 538.413 346.102C538.57 345.771 538.98 345.654 539.292 345.81C540.287 346.317 541.302 346.864 542.278 347.41C542.591 347.586 542.708 347.996 542.512 348.308C542.395 348.523 542.181 348.64 541.946 348.64ZM487.176 345.654C486.922 345.654 486.688 345.497 486.571 345.263C486.434 344.931 486.571 344.541 486.903 344.404C487.937 343.956 488.991 343.526 490.026 343.136C490.358 342.999 490.748 343.175 490.865 343.526C491.002 343.858 490.826 344.248 490.475 344.365C489.44 344.756 488.406 345.166 487.41 345.615C487.352 345.634 487.274 345.654 487.176 345.654ZM535.974 345.634C535.876 345.634 535.798 345.615 535.72 345.576C534.724 345.146 533.69 344.717 532.655 344.326C532.324 344.19 532.148 343.819 532.265 343.487C532.402 343.155 532.773 342.98 533.104 343.097C534.158 343.487 535.212 343.917 536.247 344.365C536.579 344.502 536.735 344.892 536.579 345.224C536.481 345.478 536.227 345.634 535.974 345.634ZM493.442 343.292C493.168 343.292 492.895 343.116 492.817 342.824C492.7 342.472 492.895 342.101 493.247 342.004C494.32 341.672 495.413 341.36 496.506 341.087C496.858 340.989 497.209 341.204 497.306 341.555C497.404 341.906 497.189 342.258 496.838 342.355C495.764 342.628 494.691 342.941 493.656 343.253C493.578 343.292 493.5 343.292 493.442 343.292ZM529.708 343.292C529.649 343.292 529.571 343.272 529.513 343.253C528.459 342.921 527.405 342.628 526.331 342.355C525.98 342.258 525.765 341.906 525.863 341.555C525.96 341.204 526.312 340.989 526.663 341.087C527.756 341.36 528.849 341.672 529.923 342.004C530.274 342.121 530.469 342.472 530.352 342.824C530.255 343.116 529.981 343.292 529.708 343.292ZM499.922 341.653C499.61 341.653 499.336 341.438 499.278 341.126C499.2 340.774 499.434 340.423 499.805 340.364C500.918 340.15 502.03 339.954 503.143 339.798C503.494 339.74 503.826 339.994 503.884 340.364C503.943 340.716 503.689 341.047 503.318 341.106C502.225 341.262 501.132 341.438 500.059 341.653C500.02 341.653 499.961 341.653 499.922 341.653ZM523.228 341.653C523.189 341.653 523.15 341.653 523.091 341.633C522.018 341.418 520.905 341.243 519.831 341.087C519.48 341.028 519.226 340.696 519.265 340.345C519.324 339.994 519.656 339.74 520.007 339.779C521.12 339.935 522.232 340.13 523.345 340.345C523.696 340.423 523.93 340.755 523.872 341.106C523.813 341.438 523.54 341.653 523.228 341.653ZM516.591 340.716C516.572 340.716 516.552 340.716 516.533 340.716C515.44 340.618 514.327 340.56 513.234 340.54C512.863 340.521 512.59 340.228 512.59 339.857C512.609 339.486 512.922 339.213 513.273 339.213C514.405 339.252 515.537 339.31 516.65 339.408C517.021 339.447 517.274 339.759 517.255 340.111C517.216 340.462 516.923 340.716 516.591 340.716ZM506.558 340.716C506.227 340.716 505.934 340.462 505.914 340.111C505.875 339.74 506.149 339.428 506.519 339.408C507.632 339.31 508.784 339.252 509.896 339.213C510.248 339.193 510.56 339.486 510.579 339.857C510.579 340.228 510.306 340.521 509.935 340.54C508.842 340.579 507.73 340.638 506.637 340.716C506.598 340.716 506.578 340.716 506.558 340.716Z" fill="url(#paint24_linear)"/>
<path opacity="0.64" d="M571.773 409.573C571.734 409.573 571.714 409.573 571.675 409.573C571.324 409.514 571.07 409.183 571.109 408.831C571.188 408.304 571.246 407.758 571.305 407.231C571.344 406.88 571.675 406.606 572.027 406.645C572.378 406.684 572.651 407.016 572.612 407.367C572.554 407.914 572.476 408.46 572.398 409.007C572.378 409.339 572.105 409.573 571.773 409.573Z" fill="url(#paint25_linear)"/>
</g>
<path d="M563.827 414.687C563.964 414.355 563.866 413.965 563.593 413.731L555.746 407.095C556.41 402.333 556.332 397.453 555.434 392.593L562.968 385.606C563.242 385.352 563.32 384.982 563.164 384.65L558.186 373.369C558.05 373.037 557.698 372.842 557.347 372.861L547.099 373.72C544.133 369.777 540.58 366.401 536.618 363.688L537.008 353.422C537.028 353.071 536.813 352.739 536.462 352.602L524.965 348.133C524.633 347.996 524.243 348.094 524.008 348.367L517.372 356.213C512.609 355.549 507.73 355.627 502.869 356.525L495.882 348.991C495.628 348.718 495.257 348.64 494.925 348.796L483.643 353.773C483.311 353.91 483.116 354.261 483.136 354.612L483.995 364.859C480.052 367.826 476.675 371.378 473.962 375.34L463.695 374.95C463.343 374.93 463.012 375.145 462.875 375.496L458.405 386.992C458.268 387.324 458.366 387.714 458.639 387.948L466.486 394.584C465.822 399.346 465.9 404.226 466.798 409.086L459.264 416.073C458.991 416.327 458.913 416.697 459.069 417.029L464.046 428.31C464.183 428.642 464.534 428.837 464.885 428.818L475.133 427.959C478.1 431.901 481.652 435.278 485.615 437.991L485.224 448.257C485.205 448.608 485.419 448.94 485.771 449.077L497.267 453.546C497.599 453.683 497.99 453.585 498.224 453.312L504.86 445.466C509.623 446.13 514.503 446.052 519.363 445.154L526.351 452.687C526.605 452.961 526.975 453.039 527.307 452.883L538.589 447.906C538.921 447.769 539.116 447.418 539.097 447.067L538.238 436.82C542.181 433.853 545.557 430.301 548.271 426.339L558.538 426.729C558.889 426.749 559.221 426.534 559.357 426.183L563.827 414.687Z" fill="url(#paint26_linear)"/>
<path d="M511.105 412.443C507.65 412.443 504.215 410.901 501.931 407.973C497.989 402.918 498.906 395.618 503.942 391.676C506.382 389.763 509.427 388.924 512.511 389.314C515.595 389.705 518.327 391.247 520.24 393.706C522.153 396.145 522.992 399.19 522.602 402.274C522.212 405.358 520.67 408.09 518.21 410.003C516.122 411.642 513.604 412.443 511.105 412.443ZM511.086 390.524C508.802 390.524 506.596 391.286 504.781 392.71C500.311 396.204 499.491 402.684 502.985 407.153C506.479 411.623 512.96 412.423 517.429 408.949C519.596 407.251 520.982 404.831 521.314 402.098C521.646 399.366 520.904 396.672 519.225 394.506C517.527 392.34 515.107 390.954 512.374 390.622C511.945 390.563 511.496 390.524 511.086 390.524Z" fill="#91B3FA"/>
<path d="M510.891 431.179C499.199 431.179 488.015 424.387 482.998 413.028C481.242 409.046 480.422 404.889 480.422 400.81C480.422 389.119 487.214 377.936 498.575 372.939C506.011 369.66 514.287 369.485 521.861 372.432C529.434 375.379 535.407 381.098 538.686 388.534C539.564 390.524 540.228 392.593 540.658 394.701C540.658 394.74 540.677 394.799 540.677 394.838C540.677 395.15 540.462 395.423 540.15 395.482C539.799 395.56 539.447 395.326 539.369 394.974C538.959 392.964 538.315 390.973 537.476 389.08C537.281 388.651 537.086 388.241 536.89 387.831C536.89 387.812 536.871 387.792 536.871 387.792C536.871 387.792 536.871 387.792 536.871 387.773C533.631 381.312 528.185 376.335 521.392 373.7C514.151 370.89 506.226 371.066 499.121 374.188C488.229 378.99 481.749 389.666 481.749 400.869C481.749 404.772 482.549 408.754 484.209 412.56C490.669 427.256 507.885 433.931 522.583 427.471C527.404 425.344 531.562 421.948 534.607 417.673C534.821 417.38 535.231 417.302 535.524 417.517C535.7 417.654 535.797 417.849 535.797 418.064C535.797 418.2 535.758 418.317 535.68 418.434C532.518 422.904 528.165 426.456 523.129 428.681C519.128 430.34 514.99 431.179 510.891 431.179Z" fill="#91B3FA"/>
<g opacity="0.64">
<path opacity="0.64" d="M430.453 155.476C430.278 155.476 430.102 155.418 429.985 155.281C429.731 155.027 429.731 154.598 430.004 154.344C430.395 153.973 430.785 153.583 431.156 153.193C431.41 152.939 431.82 152.919 432.093 153.173C432.347 153.427 432.366 153.837 432.113 154.11C431.722 154.5 431.332 154.891 430.941 155.281C430.785 155.418 430.629 155.476 430.453 155.476Z" fill="url(#paint27_linear)"/>
<path opacity="0.64" d="M396.782 169.079C395.884 169.079 394.986 169.06 394.108 169.001C393.737 168.982 393.463 168.67 393.483 168.318C393.502 167.947 393.815 167.674 394.166 167.694C395.259 167.752 396.352 167.772 397.445 167.752C397.797 167.752 398.089 168.045 398.109 168.396C398.109 168.767 397.816 169.06 397.465 169.06C397.231 169.079 397.016 169.079 396.782 169.079ZM400.783 168.923C400.451 168.923 400.158 168.67 400.139 168.318C400.1 167.947 400.373 167.635 400.744 167.616C401.837 167.518 402.93 167.401 404.004 167.225C404.355 167.167 404.706 167.42 404.745 167.772C404.804 168.123 404.55 168.474 404.199 168.513C403.086 168.689 401.974 168.806 400.861 168.904C400.803 168.923 400.783 168.923 400.783 168.923ZM390.828 168.728C390.809 168.728 390.77 168.728 390.75 168.728C389.638 168.591 388.525 168.416 387.432 168.201C387.081 168.123 386.846 167.791 386.905 167.44C386.983 167.089 387.315 166.854 387.666 166.913C388.74 167.128 389.813 167.284 390.906 167.42C391.258 167.459 391.531 167.791 391.472 168.162C391.433 168.474 391.16 168.728 390.828 168.728ZM407.341 167.908C407.049 167.908 406.775 167.694 406.697 167.401C406.619 167.05 406.834 166.698 407.185 166.62C408.239 166.386 409.313 166.093 410.347 165.8C410.699 165.703 411.07 165.898 411.167 166.249C411.265 166.601 411.07 166.971 410.718 167.069C409.645 167.381 408.552 167.674 407.459 167.928C407.439 167.908 407.38 167.908 407.341 167.908ZM384.309 167.459C384.25 167.459 384.192 167.459 384.133 167.44C383.06 167.147 381.967 166.835 380.913 166.464C380.561 166.347 380.386 165.976 380.503 165.625C380.62 165.273 380.991 165.098 381.342 165.215C382.377 165.566 383.431 165.879 384.485 166.171C384.836 166.269 385.051 166.62 384.953 166.971C384.856 167.264 384.602 167.459 384.309 167.459ZM413.705 166.015C413.431 166.015 413.197 165.859 413.08 165.586C412.943 165.254 413.119 164.864 413.47 164.746C414.485 164.376 415.5 163.946 416.496 163.497C416.828 163.341 417.218 163.497 417.374 163.829C417.53 164.161 417.374 164.551 417.042 164.707C416.027 165.176 414.973 165.605 413.939 165.996C413.861 166.015 413.783 166.015 413.705 166.015ZM378.024 165.332C377.946 165.332 377.848 165.312 377.77 165.273C376.736 164.844 375.721 164.376 374.706 163.868C374.374 163.712 374.257 163.302 374.413 162.99C374.569 162.658 374.979 162.541 375.291 162.697C376.267 163.185 377.263 163.654 378.278 164.063C378.609 164.2 378.766 164.59 378.629 164.922C378.531 165.176 378.278 165.332 378.024 165.332ZM419.756 163.283C419.521 163.283 419.287 163.166 419.17 162.931C418.994 162.619 419.111 162.209 419.443 162.034C420.4 161.526 421.356 160.96 422.273 160.394C422.586 160.199 422.976 160.297 423.171 160.609C423.367 160.921 423.269 161.331 422.957 161.507C422 162.092 421.024 162.678 420.048 163.205C419.97 163.263 419.853 163.283 419.756 163.283ZM372.09 162.346C371.973 162.346 371.856 162.326 371.758 162.248C370.802 161.682 369.845 161.077 368.908 160.433C368.616 160.238 368.538 159.828 368.733 159.516C368.928 159.223 369.338 159.145 369.65 159.34C370.548 159.945 371.485 160.55 372.422 161.097C372.734 161.272 372.832 161.682 372.656 161.995C372.519 162.229 372.305 162.346 372.09 162.346ZM425.377 159.75C425.182 159.75 424.967 159.652 424.85 159.477C424.635 159.184 424.694 158.774 424.987 158.559C425.865 157.915 426.743 157.232 427.563 156.549C427.836 156.315 428.266 156.354 428.481 156.627C428.715 156.9 428.676 157.31 428.403 157.545C427.544 158.267 426.646 158.969 425.748 159.613C425.65 159.711 425.514 159.75 425.377 159.75ZM366.605 158.598C366.469 158.598 366.312 158.559 366.195 158.462C365.317 157.759 364.458 157.037 363.619 156.276C363.346 156.042 363.326 155.612 363.58 155.339C363.834 155.066 364.243 155.046 364.517 155.3C365.317 156.022 366.156 156.744 367.015 157.427C367.308 157.662 367.347 158.072 367.132 158.345C366.996 158.52 366.8 158.598 366.605 158.598ZM361.686 154.149C361.511 154.149 361.335 154.09 361.218 153.953C360.437 153.153 359.695 152.294 358.973 151.436C358.739 151.162 358.778 150.752 359.051 150.518C359.325 150.284 359.735 150.323 359.969 150.596C360.671 151.436 361.394 152.255 362.155 153.036C362.409 153.29 362.389 153.719 362.135 153.973C362.018 154.07 361.862 154.149 361.686 154.149ZM357.431 149.035C357.236 149.035 357.021 148.937 356.904 148.762C356.26 147.864 355.616 146.927 355.03 145.971C354.835 145.658 354.933 145.249 355.245 145.073C355.557 144.878 355.948 144.975 356.143 145.288C356.729 146.205 357.334 147.122 357.978 148.001C358.193 148.293 358.114 148.703 357.822 148.918C357.705 148.996 357.568 149.035 357.431 149.035ZM353.918 143.414C353.684 143.414 353.449 143.297 353.332 143.063C353 142.438 352.669 141.774 352.356 141.13C352.181 140.76 352.005 140.408 351.849 140.037C351.693 139.706 351.849 139.315 352.181 139.159C352.513 139.003 352.903 139.159 353.039 139.491C353.196 139.842 353.371 140.194 353.527 140.545C353.84 141.169 354.152 141.814 354.484 142.419C354.66 142.731 354.542 143.141 354.211 143.316C354.133 143.394 354.035 143.414 353.918 143.414ZM351.205 137.364C350.931 137.364 350.678 137.207 350.58 136.934C350.19 135.88 349.838 134.807 349.526 133.733C349.428 133.382 349.624 133.011 349.975 132.914C350.326 132.816 350.697 133.011 350.795 133.362C351.107 134.397 351.458 135.451 351.829 136.466C351.946 136.798 351.79 137.188 351.439 137.305C351.361 137.344 351.283 137.364 351.205 137.364ZM349.331 130.981C349.038 130.981 348.765 130.767 348.687 130.474C348.453 129.381 348.238 128.268 348.082 127.156C348.023 126.805 348.277 126.453 348.628 126.414C348.98 126.356 349.331 126.609 349.37 126.961C349.526 128.034 349.741 129.127 349.975 130.181C350.053 130.532 349.838 130.884 349.468 130.962C349.409 130.981 349.37 130.981 349.331 130.981ZM348.335 124.423C348.004 124.423 347.711 124.17 347.672 123.818C347.574 122.706 347.535 121.574 347.516 120.461C347.516 120.091 347.808 119.798 348.16 119.798C348.511 119.798 348.823 120.091 348.823 120.442C348.843 121.535 348.882 122.628 348.98 123.721C348.999 124.092 348.745 124.404 348.374 124.423C348.374 124.423 348.355 124.423 348.335 124.423Z" fill="url(#paint28_linear)"/>
<path opacity="0.64" d="M348.278 117.768C348.258 117.768 348.258 117.768 348.239 117.768C347.868 117.749 347.595 117.436 347.614 117.066C347.653 116.519 347.692 115.953 347.731 115.407C347.77 115.055 348.083 114.782 348.454 114.821C348.805 114.86 349.078 115.172 349.039 115.543C348.981 116.09 348.942 116.617 348.922 117.163C348.903 117.495 348.61 117.768 348.278 117.768Z" fill="url(#paint29_linear)"/>
</g>
<g opacity="0.64">
<path opacity="0.64" d="M364.849 83.9256C364.674 83.9256 364.478 83.8475 364.361 83.6914C364.127 83.4182 364.147 83.0083 364.42 82.7741C364.83 82.4033 365.259 82.052 365.689 81.7007C365.962 81.4664 366.391 81.525 366.606 81.7982C366.84 82.0715 366.782 82.5009 366.508 82.7155C366.079 83.0473 365.669 83.3987 365.279 83.75C365.162 83.8671 365.005 83.9256 364.849 83.9256Z" fill="url(#paint30_linear)"/>
<path opacity="0.64" d="M445.269 122.277H445.25C444.879 122.257 444.606 121.965 444.625 121.594C444.645 121.008 444.664 120.423 444.664 119.837C444.664 119.349 444.664 118.861 444.645 118.354C444.625 117.983 444.918 117.69 445.289 117.671C445.66 117.671 445.953 117.944 445.972 118.315C445.992 118.822 445.992 119.33 445.992 119.837C445.992 120.442 445.972 121.028 445.952 121.633C445.913 121.984 445.621 122.277 445.269 122.277ZM445.074 115.739C444.742 115.739 444.45 115.485 444.43 115.153C444.332 114.099 444.176 113.006 444.001 111.952C443.942 111.601 444.176 111.25 444.547 111.191C444.898 111.132 445.25 111.367 445.308 111.738C445.484 112.83 445.64 113.923 445.738 115.016C445.777 115.368 445.504 115.7 445.152 115.739C445.113 115.739 445.094 115.739 445.074 115.739ZM443.981 109.298C443.688 109.298 443.415 109.103 443.337 108.79C443.083 107.756 442.81 106.702 442.478 105.687C442.361 105.336 442.556 104.965 442.908 104.867C443.259 104.75 443.63 104.945 443.727 105.297C444.059 106.351 444.352 107.424 444.606 108.498C444.684 108.849 444.469 109.2 444.118 109.298C444.079 109.298 444.04 109.298 443.981 109.298ZM442.049 103.052C441.795 103.052 441.541 102.896 441.444 102.623C441.053 101.627 440.624 100.632 440.175 99.6562C440.019 99.3244 440.155 98.9341 440.487 98.7779C440.819 98.6218 441.209 98.7584 441.366 99.0902C441.834 100.086 442.263 101.12 442.673 102.135C442.81 102.467 442.634 102.857 442.302 102.994C442.205 103.052 442.127 103.052 442.049 103.052ZM439.277 97.1385C439.043 97.1385 438.828 97.0214 438.691 96.8067C438.164 95.8698 437.618 94.933 437.052 94.0352C436.857 93.7229 436.954 93.3326 437.247 93.1374C437.559 92.9422 437.95 93.0398 438.145 93.3326C438.73 94.2499 439.296 95.2062 439.843 96.1821C440.019 96.4944 439.902 96.9043 439.589 97.0799C439.492 97.0994 439.394 97.1385 439.277 97.1385ZM435.764 91.6346C435.568 91.6346 435.373 91.537 435.237 91.3613C434.592 90.5026 433.929 89.6438 433.226 88.8436C432.992 88.5703 433.031 88.1605 433.304 87.9262C433.577 87.692 433.987 87.7311 434.222 88.0043C434.924 88.8436 435.627 89.7219 436.271 90.6001C436.486 90.8929 436.427 91.3028 436.134 91.5175C436.037 91.5955 435.9 91.6346 435.764 91.6346ZM431.528 86.6576C431.352 86.6576 431.177 86.5991 431.059 86.4624C430.318 85.7013 429.537 84.9401 428.737 84.2375C428.463 84.0032 428.444 83.5739 428.678 83.3006C428.912 83.0274 429.342 83.0079 429.615 83.2421C430.435 83.9837 431.235 84.7449 431.996 85.5256C432.25 85.7793 432.25 86.2087 431.977 86.4624C431.86 86.5991 431.704 86.6576 431.528 86.6576ZM426.668 82.2857C426.531 82.2857 426.375 82.2467 426.258 82.1491C425.418 81.4855 424.54 80.8609 423.662 80.2559C423.369 80.0607 423.291 79.6509 423.486 79.3386C423.681 79.0458 424.091 78.9678 424.403 79.1629C425.321 79.7875 426.219 80.4316 427.078 81.1147C427.37 81.3294 427.409 81.7587 427.195 82.032C427.058 82.2076 426.863 82.2857 426.668 82.2857ZM368.716 80.9C368.501 80.9 368.306 80.8024 368.169 80.6267C367.954 80.334 368.033 79.9241 368.325 79.7094C369.223 79.0849 370.16 78.4603 371.097 77.8943C371.409 77.6991 371.819 77.7967 371.995 78.109C372.19 78.4213 372.092 78.8311 371.78 79.0068C370.863 79.5728 369.965 80.1583 369.087 80.7829C368.969 80.8609 368.852 80.9 368.716 80.9ZM421.261 78.636C421.144 78.636 421.027 78.6164 420.929 78.5384C420.012 77.9919 419.055 77.4844 418.099 77.016C417.767 76.8599 417.65 76.4695 417.806 76.1377C417.962 75.8059 418.353 75.6888 418.684 75.845C419.66 76.3329 420.656 76.8599 421.593 77.4259C421.905 77.6015 422.003 78.0114 421.827 78.3237C421.71 78.5189 421.495 78.636 421.261 78.636ZM374.298 77.4844C374.064 77.4844 373.83 77.3478 373.713 77.1331C373.537 76.8208 373.674 76.411 373.986 76.2548C374.474 76.0011 374.981 75.7474 375.489 75.5132C375.977 75.279 376.484 75.0448 376.972 74.8301C377.304 74.6739 377.694 74.8301 377.831 75.1619C377.968 75.4937 377.831 75.884 377.499 76.0206C377.011 76.2353 376.523 76.45 376.055 76.6842C375.567 76.9184 375.079 77.1722 374.591 77.4064C374.493 77.4649 374.396 77.4844 374.298 77.4844ZM415.405 75.7279C415.327 75.7279 415.23 75.7083 415.151 75.6693C414.156 75.2594 413.141 74.8691 412.126 74.5373C411.775 74.4202 411.599 74.0494 411.716 73.6981C411.833 73.3467 412.204 73.1711 412.555 73.2882C413.59 73.6395 414.644 74.0298 415.659 74.4592C415.991 74.5959 416.147 74.9862 416.01 75.318C415.913 75.5717 415.678 75.7279 415.405 75.7279ZM380.271 74.8691C379.998 74.8691 379.744 74.6934 379.646 74.4397C379.529 74.1079 379.705 73.7176 380.037 73.6005C381.071 73.2296 382.125 72.8783 383.179 72.5856C383.531 72.488 383.901 72.6831 383.999 73.0345C384.097 73.3858 383.901 73.7371 383.55 73.8542C382.516 74.1469 381.481 74.4787 380.486 74.8496C380.427 74.8496 380.349 74.8691 380.271 74.8691ZM409.218 73.62C409.159 73.62 409.101 73.62 409.042 73.6005C408.008 73.3272 406.953 73.0735 405.899 72.8783C405.548 72.8002 405.314 72.4685 405.372 72.1171C405.451 71.7658 405.782 71.5316 406.134 71.5902C407.207 71.8049 408.3 72.0586 409.354 72.3318C409.706 72.4294 409.92 72.7807 409.823 73.132C409.784 73.4248 409.51 73.62 409.218 73.62ZM386.556 73.054C386.244 73.054 385.99 72.8393 385.912 72.527C385.834 72.1757 386.068 71.8244 386.419 71.7463C387.493 71.5121 388.586 71.3169 389.679 71.1608C390.03 71.1022 390.362 71.356 390.421 71.7073C390.479 72.0586 390.226 72.3904 389.874 72.4489C388.82 72.6051 387.747 72.8003 386.693 73.0149C386.654 73.054 386.595 73.054 386.556 73.054ZM402.815 72.3709C402.796 72.3709 402.757 72.3709 402.737 72.3709C401.664 72.2342 400.59 72.1367 399.536 72.0781C399.165 72.0586 398.892 71.7463 398.912 71.3755C398.931 71.0046 399.243 70.7314 399.614 70.7509C400.707 70.8095 401.82 70.9266 402.913 71.0632C403.264 71.1022 403.518 71.434 403.479 71.8049C403.421 72.1171 403.147 72.3709 402.815 72.3709ZM393.017 72.1171C392.685 72.1171 392.392 71.8634 392.353 71.5121C392.334 71.1413 392.587 70.829 392.958 70.8095C394.051 70.7314 395.164 70.6729 396.277 70.6729C396.628 70.6729 396.921 70.9656 396.94 71.3169C396.94 71.6878 396.647 71.9805 396.296 71.9805C395.223 71.9805 394.149 72.0391 393.075 72.1171C393.056 72.1171 393.036 72.1171 393.017 72.1171Z" fill="url(#paint31_linear)"/>
<path opacity="0.64" d="M444.839 127.175C444.8 127.175 444.781 127.175 444.742 127.175C444.391 127.117 444.137 126.785 444.176 126.434C444.254 125.907 444.312 125.36 444.371 124.833C444.41 124.482 444.722 124.209 445.093 124.248C445.444 124.287 445.718 124.599 445.679 124.97C445.62 125.517 445.562 126.063 445.484 126.629C445.444 126.941 445.171 127.175 444.839 127.175Z" fill="url(#paint32_linear)"/>
</g>
<path d="M438.473 131.138C438.571 130.864 438.493 130.572 438.278 130.376L432.012 125.068C432.559 121.262 432.481 117.358 431.759 113.474L437.79 107.892C438.005 107.697 438.063 107.385 437.946 107.131L433.964 98.1141C433.847 97.8409 433.574 97.6848 433.281 97.7043L425.103 98.3874C422.721 95.2256 419.891 92.5322 416.709 90.3657L417.022 82.1489C417.041 81.8561 416.866 81.6024 416.592 81.4853L407.399 77.9136C407.126 77.816 406.833 77.8941 406.638 78.1088L401.328 84.3739C397.522 83.8274 393.618 83.9055 389.734 84.6276L384.152 78.5967C383.956 78.382 383.644 78.3235 383.39 78.4406L374.373 82.4221C374.099 82.5392 373.943 82.8125 373.963 83.1052L374.646 91.283C371.484 93.6642 368.79 96.4942 366.624 99.6755L358.406 99.3633C358.113 99.3437 357.86 99.5194 357.742 99.7926L354.17 108.985C354.073 109.259 354.151 109.551 354.366 109.747L360.631 115.055C360.085 118.861 360.163 122.765 360.885 126.649L354.854 132.231C354.639 132.426 354.58 132.738 354.697 132.992L358.679 142.009C358.796 142.282 359.07 142.438 359.363 142.419L367.541 141.736C369.922 144.897 372.753 147.591 375.934 149.757L375.622 157.974C375.602 158.267 375.778 158.521 376.051 158.638L385.245 162.209C385.518 162.307 385.811 162.229 386.006 162.014L391.315 155.749C395.121 156.296 399.025 156.218 402.909 155.495L408.492 161.526C408.687 161.741 408.999 161.8 409.253 161.682L418.271 157.701C418.544 157.584 418.7 157.311 418.681 157.018L417.998 148.84C421.16 146.459 423.853 143.629 426.02 140.447L434.237 140.76C434.53 140.779 434.784 140.604 434.901 140.33L438.473 131.138Z" fill="url(#paint33_linear)"/>
<path d="M396.349 129.479C395.959 129.479 395.569 129.459 395.178 129.401C392.68 129.088 390.455 127.82 388.913 125.848C387.371 123.858 386.687 121.398 387 118.9C387.312 116.402 388.581 114.177 390.552 112.635C392.543 111.093 395.003 110.41 397.501 110.722C399.999 111.035 402.225 112.303 403.767 114.275C406.948 118.373 406.226 124.287 402.127 127.488C400.448 128.796 398.438 129.479 396.349 129.479ZM396.33 111.972C394.534 111.972 392.797 112.557 391.372 113.689C389.674 115.016 388.581 116.929 388.308 119.076C388.034 121.223 388.62 123.35 389.967 125.048C391.294 126.746 393.207 127.839 395.354 128.113C397.501 128.386 399.629 127.8 401.327 126.454C403.025 125.126 404.118 123.214 404.391 121.067C404.665 118.92 404.079 116.792 402.732 115.094C401.405 113.396 399.492 112.303 397.345 112.03C396.994 111.991 396.662 111.972 396.33 111.972Z" fill="#91B3FA"/>
<path d="M396.176 144.449C386.768 144.449 377.789 139.003 373.768 129.849C372.363 126.649 371.699 123.311 371.699 120.032C371.699 110.625 377.145 101.647 386.299 97.6262C392.272 94.9913 398.928 94.8547 404.999 97.2163C411.089 99.5779 415.89 104.184 418.525 110.156C419.169 111.64 419.677 113.182 420.028 114.743C420.048 114.86 420.087 114.997 420.106 115.114C420.106 115.153 420.126 115.211 420.126 115.25C420.126 115.563 419.911 115.836 419.599 115.895C419.248 115.973 418.896 115.738 418.818 115.387C418.486 113.787 417.979 112.206 417.315 110.703C414.973 105.375 410.776 101.198 405.487 98.8558C405.174 98.7192 404.842 98.5826 404.53 98.4654C398.772 96.2209 392.487 96.3576 386.826 98.8558C378.18 102.662 373.007 111.171 373.007 120.052C373.007 123.155 373.632 126.317 374.978 129.342C380.112 141.013 393.814 146.322 405.487 141.189C409.332 139.491 412.631 136.798 415.031 133.402C415.246 133.109 415.656 133.031 415.949 133.246C416.124 133.382 416.222 133.577 416.222 133.792C416.222 133.929 416.183 134.046 416.105 134.163C413.567 137.754 410.074 140.604 406.014 142.399C402.793 143.785 399.455 144.449 396.176 144.449Z" fill="#91B3FA"/>
</g>
<defs>
<linearGradient id="paint0_linear" x1="289.88" y1="390.189" x2="289.88" y2="626.614" gradientUnits="userSpaceOnUse">
<stop stop-color="#09005D"/>
<stop offset="1" stop-color="#1A0F91"/>
</linearGradient>
<linearGradient id="paint1_linear" x1="273.489" y1="10.5679" x2="277.43" y2="416.429" gradientUnits="userSpaceOnUse">
<stop stop-color="#09005D"/>
<stop offset="1" stop-color="#1A0F91"/>
</linearGradient>
<linearGradient id="paint2_linear" x1="304.106" y1="323.042" x2="287.033" y2="527.943" gradientUnits="userSpaceOnUse">
<stop stop-color="#09005D"/>
<stop offset="1" stop-color="#1A0F91"/>
</linearGradient>
<linearGradient id="paint3_linear" x1="140.242" y1="287.049" x2="142.212" y2="388.843" gradientUnits="userSpaceOnUse">
<stop stop-color="#FF928E"/>
<stop offset="1" stop-color="#EDA85A"/>
</linearGradient>
<linearGradient id="paint4_linear" x1="138.143" y1="674.547" x2="132.391" y2="557.278" gradientUnits="userSpaceOnUse">
<stop stop-color="#4F52FF"/>
<stop offset="1" stop-color="#4042E2"/>
</linearGradient>
<linearGradient id="paint5_linear" x1="176.414" y1="280.242" x2="145.967" y2="323.514" gradientUnits="userSpaceOnUse">
<stop stop-color="#09005D"/>
<stop offset="1" stop-color="#1A0F91"/>
</linearGradient>
<linearGradient id="paint6_linear" x1="209.079" y1="231.556" x2="153.917" y2="366.847" gradientUnits="userSpaceOnUse">
<stop stop-color="#FF928E"/>
<stop offset="1" stop-color="#EDA85A"/>
</linearGradient>
<linearGradient id="paint7_linear" x1="99.8075" y1="373.844" x2="148.508" y2="491.494" gradientUnits="userSpaceOnUse">
<stop stop-color="#FEBBBA"/>
<stop offset="1" stop-color="#FF928E"/>
</linearGradient>
<linearGradient id="paint8_linear" x1="186.152" y1="373.591" x2="137.451" y2="491.241" gradientUnits="userSpaceOnUse">
<stop stop-color="#FEBBBA"/>
<stop offset="1" stop-color="#FF928E"/>
</linearGradient>
<linearGradient id="paint9_linear" x1="143.074" y1="389.048" x2="140.543" y2="491.582" gradientUnits="userSpaceOnUse">
<stop stop-color="#09005D"/>
<stop offset="1" stop-color="#1A0F91"/>
</linearGradient>
<linearGradient id="paint10_linear" x1="172.309" y1="450.743" x2="198.926" y2="450.948" gradientUnits="userSpaceOnUse">
<stop stop-color="#09005D"/>
<stop offset="1" stop-color="#1A0F91"/>
</linearGradient>
<linearGradient id="paint11_linear" x1="189.875" y1="402.756" x2="161.784" y2="478.852" gradientUnits="userSpaceOnUse">
<stop stop-color="#FEBBBA"/>
<stop offset="1" stop-color="#FF928E"/>
</linearGradient>
<linearGradient id="paint12_linear" x1="107.709" y1="450.613" x2="81.0858" y2="450.08" gradientUnits="userSpaceOnUse">
<stop stop-color="#09005D"/>
<stop offset="1" stop-color="#1A0F91"/>
</linearGradient>
<linearGradient id="paint13_linear" x1="133.584" y1="379.825" x2="105.477" y2="455.962" gradientUnits="userSpaceOnUse">
<stop stop-color="#FEBBBA"/>
<stop offset="1" stop-color="#FF928E"/>
</linearGradient>
<linearGradient id="paint14_linear" x1="201.785" y1="401.288" x2="128.75" y2="456.156" gradientUnits="userSpaceOnUse">
<stop stop-color="#4F52FF"/>
<stop offset="1" stop-color="#4042E2"/>
</linearGradient>
<linearGradient id="paint15_linear" x1="135.733" y1="450.493" x2="116.593" y2="401.683" gradientUnits="userSpaceOnUse">
<stop stop-color="#4F52FF"/>
<stop offset="1" stop-color="#4042E2"/>
</linearGradient>
<linearGradient id="paint16_linear" x1="142.564" y1="383.558" x2="141.916" y2="327.175" gradientUnits="userSpaceOnUse">
<stop stop-color="#FEBBBA"/>
<stop offset="1" stop-color="#FF928E"/>
</linearGradient>
<linearGradient id="paint17_linear" x1="140.685" y1="352.26" x2="150.566" y2="304.159" gradientUnits="userSpaceOnUse">
<stop stop-color="#FEBBBA"/>
<stop offset="1" stop-color="#FF928E"/>
</linearGradient>
<linearGradient id="paint18_linear" x1="177.659" y1="273.656" x2="143.399" y2="322.346" gradientUnits="userSpaceOnUse">
<stop stop-color="#09005D"/>
<stop offset="1" stop-color="#1A0F91"/>
</linearGradient>
<linearGradient id="paint19_linear" x1="134.136" y1="358.648" x2="127.054" y2="282.026" gradientUnits="userSpaceOnUse">
<stop stop-color="#FEBBBA"/>
<stop offset="1" stop-color="#FF928E"/>
</linearGradient>
<linearGradient id="paint20_linear" x1="553.419" y1="443.446" x2="555.89" y2="443.446" gradientUnits="userSpaceOnUse">
<stop stop-color="#4F52FF"/>
<stop offset="1" stop-color="#4042E2"/>
</linearGradient>
<linearGradient id="paint21_linear" x1="450.205" y1="430.661" x2="552.35" y2="430.661" gradientUnits="userSpaceOnUse">
<stop stop-color="#4F52FF"/>
<stop offset="1" stop-color="#4042E2"/>
</linearGradient>
<linearGradient id="paint22_linear" x1="450.333" y1="395.899" x2="451.775" y2="395.899" gradientUnits="userSpaceOnUse">
<stop stop-color="#4F52FF"/>
<stop offset="1" stop-color="#4042E2"/>
</linearGradient>
<linearGradient id="paint23_linear" x1="471.049" y1="354.267" x2="473.616" y2="354.267" gradientUnits="userSpaceOnUse">
<stop stop-color="#4F52FF"/>
<stop offset="1" stop-color="#4042E2"/>
</linearGradient>
<linearGradient id="paint24_linear" x1="474.945" y1="371.894" x2="573.009" y2="371.894" gradientUnits="userSpaceOnUse">
<stop stop-color="#4F52FF"/>
<stop offset="1" stop-color="#4042E2"/>
</linearGradient>
<linearGradient id="paint25_linear" x1="571.117" y1="408.097" x2="572.635" y2="408.097" gradientUnits="userSpaceOnUse">
<stop stop-color="#4F52FF"/>
<stop offset="1" stop-color="#4042E2"/>
</linearGradient>
<linearGradient id="paint26_linear" x1="458.325" y1="400.831" x2="563.876" y2="400.831" gradientUnits="userSpaceOnUse">
<stop stop-color="#4F52FF"/>
<stop offset="1" stop-color="#4042E2"/>
</linearGradient>
<linearGradient id="paint27_linear" x1="429.803" y1="154.244" x2="432.279" y2="154.244" gradientUnits="userSpaceOnUse">
<stop stop-color="#4F52FF"/>
<stop offset="1" stop-color="#4042E2"/>
</linearGradient>
<linearGradient id="paint28_linear" x1="347.531" y1="144.438" x2="428.647" y2="144.438" gradientUnits="userSpaceOnUse">
<stop stop-color="#4F52FF"/>
<stop offset="1" stop-color="#4042E2"/>
</linearGradient>
<linearGradient id="paint29_linear" x1="347.611" y1="116.285" x2="349.048" y2="116.285" gradientUnits="userSpaceOnUse">
<stop stop-color="#4F52FF"/>
<stop offset="1" stop-color="#4042E2"/>
</linearGradient>
<linearGradient id="paint30_linear" x1="364.192" y1="82.7366" x2="366.762" y2="82.7366" gradientUnits="userSpaceOnUse">
<stop stop-color="#4F52FF"/>
<stop offset="1" stop-color="#4042E2"/>
</linearGradient>
<linearGradient id="paint31_linear" x1="368.056" y1="96.4695" x2="445.963" y2="96.4695" gradientUnits="userSpaceOnUse">
<stop stop-color="#4F52FF"/>
<stop offset="1" stop-color="#4042E2"/>
</linearGradient>
<linearGradient id="paint32_linear" x1="444.186" y1="125.708" x2="445.698" y2="125.708" gradientUnits="userSpaceOnUse">
<stop stop-color="#4F52FF"/>
<stop offset="1" stop-color="#4042E2"/>
</linearGradient>
<linearGradient id="paint33_linear" x1="354.15" y1="120.063" x2="438.527" y2="120.063" gradientUnits="userSpaceOnUse">
<stop stop-color="#4F52FF"/>
<stop offset="1" stop-color="#4042E2"/>
</linearGradient>
<clipPath id="clip0">
<rect width="573" height="546" fill="white"/>
</clipPath>
</defs>
</svg>
