<svg width="647" height="397" viewBox="0 0 647 397" fill="none" xmlns="http://www.w3.org/2000/svg">
<g clip-path="url(#clip0)">
<path d="M635.753 172.193C618.585 148.37 582.179 135.611 581.259 99.9194C580.655 76.7288 591.238 64.142 574.271 44.3423C533.264 -3.50458 470.114 -9.10827 416.166 10.8639C362.247 30.836 319.169 70.9239 259.211 68.51C226.572 67.1881 196.234 51.8139 163.911 48.9115C153.961 48.0206 144.644 48.7965 135.959 51.0093C103.349 59.3142 74.5635 90.465 63.7221 125.093C54.9226 153.169 66.1665 180.871 52.3632 208.344C37.6685 237.627 8.71032 257.944 1.40608 291.767C-7.36475 332.343 26.1082 367.661 62.0542 368.753C84.9447 369.443 127.332 365.822 146.772 351.798C170.439 334.728 193.703 333.608 221.281 334.24C273.791 335.476 326.301 347.229 378.121 355.591C422.521 362.747 466.318 373.351 511.322 374.701C544.393 375.679 572.431 376.138 590.317 340.476C611.741 297.83 671.757 222.137 635.753 172.193Z" fill="white"/>
<path d="M615.453 178.743C610.075 201.302 573.41 331.25 445.184 318.778C445.184 318.778 447.283 227.021 612.98 176.416C614.418 175.956 615.798 177.249 615.453 178.743Z" fill="#BDD0FB"/>
<path d="M597.71 193.744C597.71 193.744 596.128 196.129 593.224 200.21C591.757 202.25 589.974 204.721 587.904 207.509C585.833 210.325 583.446 213.457 580.801 216.848C578.155 220.239 575.251 223.889 572.116 227.682C569.01 231.504 565.617 235.441 562.109 239.522C558.543 243.545 554.862 247.712 550.98 251.821C550.002 252.856 549.053 253.89 548.075 254.925C547.098 255.93 546.091 256.965 545.085 257.999C543.1 260.069 541.059 262.08 539.017 264.092C538.011 265.098 536.975 266.103 535.94 267.08C534.905 268.057 533.87 269.063 532.834 270.04C530.764 271.994 528.636 273.92 526.565 275.816C524.437 277.684 522.367 279.552 520.239 281.334C519.175 282.225 518.111 283.116 517.076 283.978C516.04 284.868 515.005 285.731 513.941 286.564C509.743 289.955 505.602 293.116 501.604 295.99C500.598 296.708 499.591 297.398 498.614 298.087C497.636 298.777 496.658 299.467 495.68 300.099C493.725 301.363 491.856 302.628 490.044 303.777C488.204 304.898 486.421 305.961 484.753 306.996C483.056 308.002 481.388 308.864 479.864 309.726C479.088 310.157 478.34 310.559 477.621 310.962C476.873 311.335 476.183 311.68 475.493 312.025C474.142 312.686 472.876 313.318 471.755 313.893C471.208 314.18 470.633 314.41 470.116 314.64C469.598 314.87 469.109 315.071 468.678 315.272C467.786 315.674 467.01 315.991 466.406 316.278C465.169 316.824 464.508 317.111 464.508 317.111C463.99 317.341 463.358 317.111 463.128 316.565C462.898 316.048 463.128 315.416 463.674 315.186L463.732 315.157C463.732 315.157 464.393 314.87 465.601 314.353C466.205 314.094 466.981 313.778 467.844 313.375C468.275 313.174 468.764 312.973 469.282 312.772C469.799 312.542 470.346 312.341 470.892 312.054C472.014 311.508 473.25 310.904 474.602 310.243C475.263 309.927 475.982 309.582 476.701 309.209C477.42 308.835 478.139 308.433 478.915 308.002C480.439 307.168 482.078 306.306 483.775 305.329C485.443 304.323 487.197 303.289 489.038 302.197C490.849 301.076 492.718 299.84 494.645 298.605C495.623 298.001 496.572 297.312 497.55 296.651C498.527 295.961 499.534 295.271 500.54 294.582C504.538 291.765 508.679 288.633 512.877 285.3C513.941 284.495 514.976 283.604 516.012 282.742C517.047 281.88 518.111 280.989 519.175 280.127C521.274 278.345 523.373 276.506 525.501 274.667C527.572 272.77 529.7 270.874 531.77 268.948C532.806 267.971 533.841 266.994 534.876 266.017C535.911 265.04 536.946 264.063 537.953 263.057C539.995 261.046 542.036 259.063 544.021 257.022C545.027 256.017 546.005 254.982 547.011 253.976C547.989 252.942 548.967 251.936 549.945 250.901C553.827 246.821 557.536 242.711 561.131 238.717C564.668 234.694 568.061 230.757 571.196 226.992C574.359 223.228 577.264 219.607 579.938 216.245C582.584 212.883 584.999 209.75 587.098 206.963C589.198 204.175 590.981 201.733 592.476 199.692C595.409 195.64 596.991 193.255 596.991 193.255C597.135 193.054 597.393 192.997 597.595 193.14C597.796 193.284 597.825 193.543 597.71 193.744Z" fill="#DCE5FE"/>
<path d="M589.113 55.3763C590.062 81.3257 589.429 232.51 447.342 257.397C447.342 257.397 422.122 157.737 585.748 53.5946C587.186 52.675 589.055 53.6808 589.113 55.3763Z" fill="#91B3FA"/>
<path d="M574.389 76.8713C574.389 76.8713 570.449 89.4006 563.03 107.62C559.32 116.729 554.719 127.247 549.37 138.311C544.022 149.374 537.868 160.984 531.139 172.249C524.409 183.514 517.076 194.434 509.571 204.176C502.037 213.918 494.33 222.481 487.169 229.292C483.604 232.683 480.181 235.671 477.047 238.2C476.271 238.832 475.494 239.436 474.775 240.011C474.028 240.585 473.309 241.131 472.618 241.649C471.238 242.712 469.915 243.603 468.736 244.436C468.449 244.637 468.161 244.838 467.874 245.04C467.586 245.241 467.298 245.413 467.04 245.586C466.493 245.93 466.004 246.275 465.544 246.591C464.624 247.224 463.79 247.712 463.129 248.114C461.806 248.919 461.116 249.35 461.116 249.35C460.656 249.637 460.08 249.494 459.793 249.034C459.505 248.574 459.649 247.999 460.109 247.712L460.138 247.683C460.138 247.683 460.828 247.252 462.122 246.476C462.784 246.074 463.589 245.586 464.509 244.982C464.969 244.666 465.458 244.35 466.004 244.005C466.263 243.833 466.551 243.66 466.838 243.459C467.126 243.258 467.385 243.057 467.701 242.856C468.851 242.051 470.174 241.16 471.526 240.126C472.216 239.608 472.935 239.091 473.682 238.516C474.401 237.942 475.178 237.338 475.954 236.735C479.031 234.234 482.453 231.332 486.019 227.97C493.151 221.274 500.858 212.797 508.392 203.141C515.926 193.486 523.259 182.652 530.046 171.473C536.804 160.266 543.015 148.742 548.393 137.736C553.799 126.73 558.429 116.241 562.196 107.189C565.963 98.1079 568.839 90.4639 570.765 85.0901C572.692 79.7163 573.699 76.584 573.699 76.584C573.756 76.3828 573.986 76.2679 574.216 76.3253C574.331 76.4116 574.446 76.6414 574.389 76.8713Z" fill="#DCE5FE"/>
<path d="M259.617 335.331C259.617 335.331 196.323 311.048 177.056 231.993C158.307 155.151 150.111 46.2666 60.3322 20.8632C57.3127 20.0011 54.7246 23.1622 56.1624 25.9784C64.6457 42.5021 84.9768 85.7223 91.8497 133.109C100.621 193.543 152.038 334.44 259.617 335.331Z" fill="#91B3FA"/>
<path d="M81.7269 47.0138C81.7269 47.0138 81.7844 47.0425 81.9282 47.1287C82.0432 47.1862 82.302 47.3586 82.5896 47.531C83.1072 47.8759 83.8836 48.3644 84.8039 49.0541C86.7018 50.4335 89.3474 52.56 92.4532 55.5486C94.006 57.0429 95.6739 58.7384 97.3994 60.6925C98.2908 61.6408 99.1248 62.7041 100.045 63.7674C100.476 64.3134 100.936 64.8594 101.368 65.4341C101.828 66.0088 102.288 66.5836 102.719 67.1871C103.151 67.7905 103.611 68.394 104.071 69.0262C104.502 69.6584 104.962 70.2906 105.423 70.9516C106.343 72.2447 107.205 73.6529 108.126 75.0322C109.88 77.9059 111.663 80.9233 113.302 84.228C114.165 85.866 114.912 87.5615 115.746 89.2857C116.149 90.1478 116.494 91.0387 116.896 91.9295C117.27 92.8204 117.673 93.7112 118.018 94.6595C118.737 96.4987 119.456 98.3666 120.088 100.321C120.405 101.298 120.75 102.246 121.066 103.252C121.354 104.258 121.67 105.235 121.958 106.24C124.345 114.287 126.07 122.994 127.105 132.075C127.22 133.196 127.364 134.345 127.479 135.495C127.565 136.644 127.652 137.794 127.738 138.943C127.824 140.093 127.91 141.242 127.997 142.391C128.083 143.541 128.14 144.69 128.227 145.869C128.543 150.495 129.032 155.093 129.578 159.806C130.729 169.174 132.368 178.6 134.467 187.968C136.566 197.308 139.126 206.561 142.059 215.556C144.992 224.521 148.299 233.229 151.894 241.476C155.488 249.724 159.399 257.511 163.454 264.696C167.509 271.88 171.765 278.432 175.963 284.294C180.162 290.157 184.331 295.272 188.242 299.668C190.255 301.795 192.067 303.864 193.907 305.617C194.799 306.508 195.661 307.37 196.495 308.175C197.358 308.95 198.163 309.698 198.94 310.416C200.464 311.882 201.93 313.06 203.167 314.123C203.8 314.64 204.375 315.158 204.892 315.589C205.439 316.02 205.928 316.393 206.388 316.738C208.171 318.117 209.12 318.865 209.12 318.865C209.12 318.865 208.142 318.146 206.33 316.824C205.87 316.479 205.353 316.106 204.806 315.704C204.26 315.273 203.685 314.813 203.023 314.295C201.758 313.261 200.263 312.111 198.681 310.703C197.876 310.014 197.042 309.267 196.179 308.519C195.316 307.743 194.454 306.881 193.505 306.019C191.636 304.295 189.738 302.283 187.667 300.186C183.641 295.875 179.328 290.846 174.957 285.07C166.214 273.518 157.415 258.948 149.852 242.453C146.056 234.206 142.548 225.499 139.471 216.504C136.365 207.509 133.662 198.199 131.39 188.773C129.118 179.347 127.306 169.835 126.012 160.381C125.38 155.668 124.805 150.926 124.431 146.271C124.229 143.972 124.057 141.673 123.856 139.374C123.769 138.253 123.654 137.133 123.568 135.983C123.424 134.862 123.309 133.742 123.165 132.65C122.073 123.799 120.347 115.321 117.96 107.505C115.574 99.7172 112.727 92.533 109.506 86.2109C107.924 83.0211 106.199 80.0899 104.531 77.3312C103.64 75.9805 102.834 74.6299 101.943 73.3942C101.512 72.762 101.08 72.1585 100.649 71.5263C100.218 70.9229 99.7862 70.3481 99.3548 69.7734C95.9328 65.1467 92.5395 61.4397 89.6063 58.5373C86.6443 55.6636 84.1712 53.5945 82.417 52.3014C81.5543 51.6404 80.8642 51.1806 80.4328 50.8645C80.2315 50.7496 80.1165 50.6634 79.9727 50.5771C79.8577 50.4909 79.7714 50.4622 79.7714 50.4622L79.7427 50.4335C78.8224 49.9162 78.5349 48.738 79.0525 47.8184C79.6564 46.8126 80.8067 46.5252 81.7269 47.0138Z" fill="#DCE5FE"/>
<g opacity="0.74">
<path opacity="0.74" d="M24.1814 117.017C23.0024 115.523 24.4978 113.396 26.3094 113.942C44.8288 119.546 92.8527 140.064 116.031 205.929C145.133 288.576 175.471 308.979 204.285 316.307C204.285 316.307 172.48 321.882 140.704 301.68C62.7156 252.052 44.9439 143.771 24.1814 117.017Z" fill="#BDD0FB"/>
<path opacity="0.74" d="M46.5833 135.869C46.5833 135.869 46.7271 135.984 47.0434 136.214C47.331 136.444 47.7911 136.788 48.3375 137.277C48.625 137.507 48.9126 137.765 49.2577 138.053C49.574 138.34 49.9478 138.685 50.3217 139.03C51.0981 139.72 51.9608 140.553 52.9098 141.501C53.8875 142.421 54.894 143.542 56.0155 144.691C57.1371 145.869 58.2586 147.191 59.5239 148.599C60.7604 150.007 61.997 151.559 63.3485 153.168C64.6138 154.835 65.9654 156.588 67.3745 158.398C68.6973 160.266 70.1064 162.22 71.5442 164.261C72.9246 166.33 74.3336 168.485 75.7715 170.669C77.1518 172.911 78.5609 175.238 79.9987 177.595C81.3791 179.98 82.7306 182.48 84.1397 184.98C86.8429 190.067 89.5748 195.354 92.0766 200.843C92.7093 202.222 93.3707 203.573 94.0033 204.952C94.6072 206.36 95.2111 207.74 95.815 209.148C97.0228 211.935 98.2306 214.751 99.4096 217.539C100.013 218.947 100.617 220.355 101.221 221.735C101.825 223.114 102.4 224.551 103.062 225.901C104.385 228.603 105.65 231.304 106.973 233.948C108.382 236.563 109.762 239.178 111.142 241.764C112.609 244.293 114.076 246.793 115.485 249.236C116.98 251.65 118.475 254.006 119.913 256.334C121.437 258.604 122.904 260.845 124.342 263.001C125.837 265.127 127.304 267.196 128.713 269.179C130.179 271.133 131.588 273.03 132.969 274.84C134.378 276.622 135.729 278.346 136.995 279.955C138.318 281.565 139.554 283.088 140.733 284.496C141.941 285.904 143.062 287.197 144.098 288.404C145.162 289.582 146.139 290.674 147.031 291.68C147.922 292.657 148.728 293.519 149.418 294.266C150.137 295.014 150.741 295.646 151.201 296.134C151.69 296.623 152.063 297.025 152.322 297.284C152.581 297.542 152.696 297.657 152.696 297.657L152.725 297.686C153.472 298.433 153.472 299.64 152.754 300.387C152.035 301.135 150.827 301.135 150.079 300.445C150.079 300.445 149.935 300.301 149.648 300.043C149.389 299.784 148.986 299.382 148.469 298.893C147.951 298.376 147.318 297.744 146.6 296.996C145.881 296.249 145.047 295.358 144.126 294.381C143.206 293.376 142.2 292.284 141.107 291.077C140.043 289.87 138.893 288.548 137.656 287.14C136.448 285.703 135.183 284.18 133.832 282.571C132.509 280.933 131.128 279.208 129.719 277.398C128.339 275.559 126.901 273.633 125.406 271.651C123.968 269.61 122.473 267.512 120.948 265.357C119.482 263.144 117.987 260.903 116.434 258.575C114.967 256.219 113.472 253.805 111.976 251.362C110.538 248.862 109.101 246.305 107.634 243.718C106.254 241.074 104.873 238.431 103.464 235.729C102.113 232.999 100.847 230.212 99.5246 227.424C98.8345 226.045 98.3168 224.637 97.7129 223.229C97.109 221.821 96.5339 220.413 95.93 219.005L95.0386 216.849L94.1758 214.751C93.6007 213.343 93.0256 211.935 92.4792 210.556C91.9041 209.148 91.3289 207.768 90.7825 206.36C90.1787 204.981 89.546 203.63 88.9421 202.251C86.5553 196.762 83.9672 191.503 81.4078 186.417C80.0562 183.917 78.7622 181.445 77.4681 179.032C76.1166 176.646 74.7937 174.319 73.4997 172.049C72.1194 169.836 70.7965 167.681 69.5025 165.583C68.1509 163.542 66.8281 161.56 65.5628 159.663C64.24 157.824 62.9747 156.042 61.7381 154.347C60.4728 152.709 59.2938 151.128 58.1435 149.691C56.9645 148.283 55.9005 146.904 54.8365 145.697C53.7725 144.49 52.8235 143.369 51.9033 142.421C50.9831 141.444 50.1779 140.582 49.459 139.863C49.0851 139.49 48.7688 139.174 48.4525 138.857C48.1362 138.57 47.8486 138.283 47.5898 138.053C47.0722 137.564 46.6696 137.219 46.4108 136.961C46.1232 136.731 45.9794 136.587 45.9794 136.587C45.7781 136.415 45.7493 136.07 45.9219 135.869C46.0657 135.754 46.3532 135.725 46.5833 135.869Z" fill="#DCE5FE"/>
</g>
<path d="M287.221 261.707L277.961 344.441H385.109L371.133 261.707H287.221Z" fill="url(#paint0_linear)"/>
<path d="M408.171 361.395H251.389C247.133 361.395 243.941 358.377 244.746 355.101L246.759 347.141C247.363 344.756 250.008 343.003 253.114 342.888L404.26 338.175C407.538 338.06 410.414 339.813 411.133 342.285L414.756 354.958C415.705 358.262 412.485 361.395 408.171 361.395Z" fill="url(#paint1_linear)"/>
<path d="M152.812 57.8185V247.338C152.812 262.942 165.235 275.673 180.85 276.075C250.126 277.857 428.533 282.196 494.472 281.219C505.803 281.047 514.976 271.994 515.321 260.672C516.587 216.647 518.657 110.781 511.008 61.6117C509.397 51.2665 500.655 43.5075 490.188 43.1914C432.156 41.3235 239.169 35.4324 173.259 36.9268C161.9 37.1854 152.812 46.4674 152.812 57.8185Z" fill="url(#paint2_linear)"/>
<path d="M164.719 56.8989V236.964C164.719 246.074 172.023 253.488 181.139 253.632L484.984 258.172C494.013 258.316 501.404 251.045 501.461 242.022L502.065 63.5659C502.094 57.1001 496.946 51.8125 490.476 51.6688L177.889 44.0535C170.671 43.8811 164.719 49.686 164.719 56.8989Z" fill="url(#paint3_linear)"/>
<path opacity="0.48" d="M424.336 76.8423C420.827 76.8423 417.98 73.9974 417.98 70.4915C417.98 66.9856 420.827 64.1406 424.336 64.1406C427.844 64.1406 430.691 66.9856 430.691 70.4915C430.691 73.9974 427.844 76.8423 424.336 76.8423ZM424.336 65.2614C421.46 65.2614 419.102 67.6178 419.102 70.4915C419.102 73.3652 421.46 75.7216 424.336 75.7216C427.211 75.7216 429.569 73.3652 429.569 70.4915C429.569 67.6178 427.211 65.2614 424.336 65.2614Z" fill="white"/>
<path opacity="0.48" d="M446.91 76.8423C443.402 76.8423 440.555 73.9974 440.555 70.4915C440.555 66.9856 443.402 64.1406 446.91 64.1406C450.418 64.1406 453.265 66.9856 453.265 70.4915C453.265 73.9974 450.418 76.8423 446.91 76.8423ZM446.91 65.2614C444.034 65.2614 441.676 67.6178 441.676 70.4915C441.676 73.3652 444.034 75.7216 446.91 75.7216C449.786 75.7216 452.144 73.3652 452.144 70.4915C452.144 67.6178 449.786 65.2614 446.91 65.2614Z" fill="white"/>
<path opacity="0.48" d="M469.457 76.8423C465.948 76.8423 463.102 73.9974 463.102 70.4915C463.102 66.9856 465.948 64.1406 469.457 64.1406C472.965 64.1406 475.812 66.9856 475.812 70.4915C475.841 73.9974 472.965 76.8423 469.457 76.8423ZM469.457 65.2614C466.581 65.2614 464.223 67.6178 464.223 70.4915C464.223 73.3652 466.581 75.7216 469.457 75.7216C472.333 75.7216 474.691 73.3652 474.691 70.4915C474.691 67.6178 472.361 65.2614 469.457 65.2614Z" fill="white"/>
<path d="M364.119 219.349L188.443 220.527C183.411 220.556 179.356 215.929 179.529 210.354L182.893 100.493C183.037 95.4928 186.747 91.5271 191.262 91.5558L362.307 92.3604C366.908 92.3892 370.647 96.556 370.618 101.671L370.1 212.739C370.071 216.389 367.397 219.349 364.119 219.349Z" fill="url(#paint4_linear)"/>
<path d="M368 236.964H182.116C180.822 236.964 179.758 235.757 179.758 234.234V229.262C179.758 227.739 180.822 226.532 182.145 226.532L368.029 229.377C369.323 229.406 370.358 230.613 370.358 232.107V234.234C370.358 235.728 369.294 236.964 368 236.964Z" fill="url(#paint5_linear)"/>
<path opacity="0.48" d="M483.17 248.516C483.113 248.516 483.055 248.516 482.998 248.516L180.821 243.085C174.868 242.97 170.095 238.027 170.181 232.079L172.913 64.3991C172.97 61.1231 174.293 58.0483 176.68 55.7781C179.038 53.5079 182.172 52.3009 185.451 52.3871L481.617 59.5714C487.512 59.715 492.114 64.4279 492.114 70.3189V239.608C492.114 242.022 491.165 244.292 489.439 245.988C487.743 247.626 485.528 248.516 483.17 248.516ZM185.134 53.5079C182.259 53.5079 179.527 54.5999 177.456 56.6115C175.3 58.6805 174.092 61.468 174.034 64.4279L171.302 232.108C171.216 237.453 175.501 241.878 180.821 241.964L483.026 247.396C485.126 247.424 487.139 246.648 488.634 245.154C490.129 243.689 490.963 241.706 490.963 239.579V70.2902C490.963 65.0314 486.851 60.807 481.56 60.6634L185.393 53.4791C185.336 53.5079 185.221 53.5079 185.134 53.5079Z" fill="white"/>
<path opacity="0.48" d="M475.261 144.69L388.904 143.024C385.051 142.937 381.945 139.776 381.945 135.926V98.8262C381.945 93.6536 386.144 89.458 391.32 89.458H475.261C480.437 89.458 484.636 93.6536 484.636 98.8262V135.322C484.636 140.495 480.437 144.69 475.261 144.69ZM391.32 90.2914C386.604 90.2914 382.779 94.1134 382.779 98.8262V135.926C382.779 139.317 385.54 142.104 388.904 142.19L475.232 143.857C479.949 143.857 483.773 140.035 483.773 135.322V98.8262C483.773 94.1134 479.949 90.2914 475.232 90.2914H391.32V90.2914Z" fill="white"/>
<path d="M480.897 237.309H385.655C383.843 237.309 382.348 235.844 382.348 234.004V229.493C382.348 227.653 383.872 226.159 385.712 226.188L480.955 228.142C482.767 228.171 484.204 229.636 484.204 231.447V234.004C484.204 235.844 482.738 237.309 480.897 237.309Z" fill="url(#paint6_linear)"/>
<path opacity="0.48" d="M479.347 220.957C479.318 220.957 479.29 220.957 479.261 220.957L386.894 219.607C384.018 219.578 381.66 217.193 381.66 214.319V187.766C381.66 186.329 382.235 185.007 383.242 184.002C384.248 182.996 385.6 182.45 387.038 182.479L479.405 183.887C482.28 183.944 484.61 186.301 484.61 189.174V215.67C484.61 217.107 484.063 218.428 483.028 219.434C482.05 220.411 480.756 220.957 479.347 220.957ZM479.29 220.095C480.469 220.095 481.619 219.664 482.482 218.831C483.344 217.997 483.804 216.877 483.804 215.67V189.174C483.804 186.76 481.849 184.778 479.433 184.72L387.066 183.312C385.859 183.283 384.737 183.743 383.874 184.576C383.012 185.41 382.552 186.531 382.552 187.737V214.29C382.552 216.704 384.507 218.687 386.923 218.745L479.29 220.095Z" fill="white"/>
<path opacity="0.48" d="M477.852 177.881C477.823 177.881 477.795 177.881 477.766 177.881L388.534 176.502C385.773 176.473 383.559 174.174 383.559 171.444V150.782C383.559 149.403 384.105 148.11 385.083 147.162C386.06 146.213 387.354 145.696 388.735 145.725L477.967 147.708C480.699 147.765 482.913 150.035 482.913 152.765V172.824C482.913 174.203 482.367 175.467 481.389 176.445C480.44 177.364 479.204 177.881 477.852 177.881ZM388.62 146.558C387.498 146.558 386.463 146.989 385.687 147.765C384.881 148.57 384.421 149.633 384.421 150.782V171.444C384.421 173.743 386.29 175.611 388.562 175.669L477.795 177.048C478.916 177.077 480.009 176.646 480.814 175.841C481.619 175.036 482.08 173.973 482.08 172.824V152.765C482.08 150.495 480.239 148.598 477.967 148.541L388.735 146.558C388.677 146.558 388.649 146.558 388.62 146.558Z" fill="white"/>
<path d="M186.686 60.1748L402.65 66.0658C405.008 66.1233 406.877 68.0487 406.877 70.4051V81.4688C406.877 83.8827 404.922 85.8368 402.506 85.8081L184.587 84.1988C182.2 84.1701 180.273 82.2447 180.273 79.8596V66.382C180.273 62.9048 183.178 60.0886 186.686 60.1748Z" fill="url(#paint7_linear)"/>
<path opacity="0.48" d="M399.802 81.7562H399.773L187.634 80.8366C185.046 80.8366 183.004 79.5722 183.004 77.963V69.2557C183.004 68.7097 183.263 68.1637 183.723 67.7039C184.586 66.8705 186.138 66.3533 187.778 66.382L399.917 69.7442C402.447 69.7729 404.46 71.0374 404.46 72.6179V78.8825C404.46 79.4285 404.23 79.9745 403.77 80.4056C402.936 81.239 401.441 81.7562 399.802 81.7562ZM187.663 67.2154C186.282 67.2154 184.988 67.6177 184.327 68.3074C184.01 68.5947 183.867 68.9108 183.867 69.2557V77.963C183.867 79.055 185.592 79.9745 187.634 80.0033L399.773 80.9229C401.182 80.9229 402.476 80.5205 403.166 79.8309C403.454 79.5435 403.626 79.2274 403.626 78.9113V72.6466C403.626 71.5834 401.93 70.6638 399.917 70.6063L187.778 67.2154C187.749 67.2154 187.691 67.2154 187.663 67.2154Z" fill="white"/>
<path d="M297.974 370.044C297.974 372.602 296.048 374.7 293.689 374.7H62.2544C59.8964 374.7 57.9697 372.602 57.9697 370.044L56.043 225.297C56.043 222.739 58.8036 217.739 63.8936 218.112L290.066 211.733C293.028 211.647 295.875 212.882 297.974 215.152C300.073 217.423 301.224 220.526 301.137 223.745L297.974 370.044Z" fill="url(#paint8_linear)"/>
<path d="M293.749 365.561C293.749 367.975 291.937 369.958 289.694 369.958H67.8351C65.6209 369.958 63.7804 367.975 63.7804 365.561L61.9688 234.176C62.17 226.274 68.5541 223.429 72.4075 223.601C72.4075 223.601 249.204 218.429 289.176 217.279C291.247 217.222 293.26 218.084 294.727 219.693C296.193 221.302 296.998 223.458 296.941 225.728L293.749 365.561Z" fill="url(#paint9_linear)"/>
<path d="M73.5568 358.291C73.7869 347.429 73.7006 251.275 73.1255 242.97C72.5503 234.665 84.4269 233.113 102.687 232.165C120.948 231.217 274.912 227.538 278.881 227.194C287.795 226.418 289.636 240.901 288.744 272.368C288.083 296.018 286.961 334.957 286.444 352.86C286.3 358.205 282.274 362.429 277.385 362.429C240.346 362.544 98.3165 362.975 88.8555 363.291C78.0141 363.636 73.4706 362.602 73.5568 358.291Z" fill="#7D97F4"/>
<path d="M314.598 386.711H46.0669C44.8879 386.711 43.9102 385.734 43.9102 384.556V376.165C43.9102 374.987 44.8879 374.01 46.0669 374.01H314.598C315.777 374.01 316.755 374.987 316.755 376.165V384.556C316.755 385.734 315.777 386.711 314.598 386.711Z" fill="url(#paint10_linear)"/>
<path d="M270.112 345.158H92.2794C89.72 345.158 87.707 343.031 87.707 340.33V249.09C87.707 246.447 89.6912 244.349 92.2506 244.291L270.054 240.987C271.291 240.958 272.498 241.446 273.39 242.366C274.281 243.257 274.799 244.521 274.799 245.786V340.359C274.77 343.003 272.671 345.158 270.112 345.158ZM92.2506 244.895C90.0363 244.924 88.3109 246.763 88.3109 249.09V340.359C88.3109 342.715 90.0363 344.583 92.2794 344.583H270.112C272.355 344.583 274.195 342.686 274.195 340.359V245.786C274.195 244.665 273.735 243.573 272.959 242.797C272.182 241.992 271.147 241.59 270.054 241.59L92.2506 244.895Z" fill="#BDD0FB"/>
<path d="M255.849 279.897H218.148C215.704 279.897 213.777 277.972 213.777 275.5V261.161C213.777 258.747 215.704 256.821 218.148 256.821H255.849C258.437 256.821 260.708 258.833 260.708 261.161V275.5C260.737 277.857 258.465 279.897 255.849 279.897ZM218.148 257.454C215.992 257.454 214.381 259.063 214.381 261.161V275.5C214.381 277.368 215.79 279.294 218.148 279.294H255.849C258.092 279.294 260.105 277.483 260.105 275.5V261.161C260.105 259.178 258.12 257.454 255.849 257.454H218.148Z" fill="#BDD0FB"/>
<path d="M255.849 308.663H218.148C215.647 308.663 213.777 306.823 213.777 304.381V290.041C213.777 287.254 215.992 285.587 218.148 285.587H255.849C258.408 285.587 260.708 287.713 260.708 290.041V304.381C260.737 306.709 258.494 308.663 255.849 308.663ZM218.148 286.219C215.79 286.219 214.381 288.173 214.381 290.07V304.41C214.381 306.507 215.992 308.059 218.148 308.059H255.849C258.12 308.059 260.105 306.364 260.105 304.41V290.07C260.105 288.058 258.063 286.219 255.849 286.219H218.148Z" fill="#BDD0FB"/>
<path d="M255.849 337.457H218.148C215.618 337.457 213.777 335.704 213.777 333.318V318.979C213.777 316.766 215.445 314.381 218.148 314.381H255.849C258.408 314.381 260.709 316.565 260.709 318.979V333.318C260.737 335.589 258.552 337.457 255.849 337.457ZM218.148 314.984C215.819 314.984 214.381 317.053 214.381 318.95V333.29C214.381 335.33 215.963 336.824 218.148 336.824H255.849C258.149 336.824 260.105 335.215 260.105 333.29V318.979C260.105 316.938 258.034 315.013 255.849 315.013H218.148V314.984Z" fill="#BDD0FB"/>
<path d="M166.905 330.416C156.294 330.387 108.184 330.272 97.5435 330.387C96.3932 330.387 95.3867 331.335 95.3867 332.456V333.606C95.3867 334.726 96.3069 335.675 97.4284 335.703L166.675 337.284C167.25 337.284 167.94 337.083 168.343 336.68C168.745 336.278 169.119 335.761 169.119 335.186V332.485C169.119 331.364 168.055 330.416 166.905 330.416Z" fill="#91B3FA"/>
<path d="M103.149 250.413L195.027 248.918C200.088 248.832 204.229 252.913 204.229 257.97V283.834C204.229 288.891 200.088 292.972 195.027 292.886L103.149 291.363C98.203 291.276 94.2345 287.253 94.2345 282.311V259.436C94.2058 254.522 98.1742 250.499 103.149 250.413Z" fill="#91B3FA"/>
<path d="M95.6719 317.255V301.363C95.6719 298.087 98.3463 295.443 101.653 295.501L201.324 297.024C205.293 297.081 208.485 300.243 208.485 304.122V318.577C208.485 322.542 205.178 325.732 201.094 325.675L102.746 324.41C98.8351 324.381 95.6719 321.192 95.6719 317.255Z" fill="#91B3FA"/>
<path d="M431.38 205.641C426.549 206.044 422.81 210.067 422.781 214.923C422.58 244.609 422.034 346.941 423.817 383.178C424.018 387.029 427.152 390.046 430.977 390.103C449.985 390.391 504.71 390.994 535.767 389.126C542.237 388.753 547.299 383.408 547.327 376.913C547.414 345.762 547.27 258.172 543.158 218.142C542.669 213.343 538.815 209.578 534.013 209.176C513.308 207.509 458.21 203.429 431.38 205.641Z" fill="url(#paint11_linear)"/>
<path d="M430.688 224.033C430.084 248.344 428.244 329.21 429.826 359.068C430.056 363.436 433.564 366.913 437.935 367.085C455.937 367.804 502.092 369.298 528.404 366.74C533.149 366.281 536.801 362.372 536.974 357.602C537.865 332.802 540.367 257.483 538.843 227.941C538.613 223.228 534.874 219.435 530.158 219.119C510.69 217.711 460.653 214.464 438.28 216.073C434.082 216.389 430.774 219.809 430.688 224.033Z" fill="url(#paint12_linear)"/>
<path d="M435.633 229.55C435.087 251.764 433.476 325.704 434.914 353.004C435.116 356.998 438.279 360.16 442.19 360.332C458.322 360.993 499.646 362.401 523.255 360.045C527.511 359.614 530.79 356.05 530.933 351.711C531.739 329.037 533.924 260.184 532.544 233.171C532.314 228.861 528.978 225.412 524.779 225.096C507.324 223.803 462.521 220.814 442.449 222.28C438.681 222.567 435.748 225.7 435.633 229.55Z" fill="#7D97F4"/>
<path opacity="0.5" d="M469.712 210.153C469.741 211.073 470.459 211.791 471.351 211.82C475.837 211.964 488.519 212.423 494.155 212.653C495.277 212.711 496.139 211.676 495.909 210.584L495.881 210.412C495.737 209.665 495.104 209.119 494.328 209.061C490.503 208.774 478.943 208.027 471.322 208.429C470.402 208.458 469.683 209.234 469.712 210.153Z" fill="white"/>
<path opacity="0.27" d="M516.843 325.331L447.999 324.526C442.765 324.469 438.567 320.13 438.682 314.9L440.292 240.96C440.407 235.787 444.663 231.677 449.84 231.735L518.223 232.626C523.428 232.683 527.598 236.994 527.541 242.195L526.419 316.049C526.304 321.222 522.048 325.388 516.843 325.331Z" fill="white"/>
<path d="M492.027 349.987C492.056 354.757 488.202 358.637 483.429 358.666C478.655 358.694 473.939 355.102 473.91 350.332C473.882 345.562 478.569 341.423 483.343 341.395C488.116 341.366 492.027 345.217 492.027 349.987Z" fill="url(#paint13_linear)"/>
<path opacity="0.48" d="M481.847 355.332C481.271 355.332 480.782 354.9 480.696 354.326L479.891 347.055C479.805 346.337 480.409 345.733 481.128 345.791L481.904 345.848C482.508 345.906 482.968 346.394 482.968 346.998L482.997 354.211C482.997 354.814 482.479 355.332 481.847 355.332Z" fill="white"/>
<path opacity="0.48" d="M484.293 346.855L484.322 354.182C484.322 354.815 484.839 355.332 485.472 355.332H485.645C486.277 355.332 486.766 354.843 486.795 354.211L487.025 346.883C487.054 346.222 486.536 345.705 485.875 345.705H485.414C484.782 345.705 484.293 346.222 484.293 346.855Z" fill="white"/>
<path d="M510.26 349.871C510.289 353.521 507.356 356.481 503.704 356.481C500.052 356.51 496.457 353.751 496.457 350.13C496.457 346.509 500.023 343.348 503.646 343.319C507.27 343.319 510.232 346.251 510.26 349.871Z" fill="url(#paint14_linear)"/>
<path opacity="0.48" d="M500.914 347.084L500.943 352.946C500.943 353.434 501.345 353.866 501.863 353.866H502.007C502.496 353.866 502.927 353.463 502.927 352.975L503.1 347.112C503.128 346.595 502.697 346.164 502.179 346.164H501.834C501.317 346.164 500.914 346.595 500.914 347.084Z" fill="white"/>
<path opacity="0.48" d="M504.453 346.882L504.165 353.032C504.136 353.492 504.683 353.722 504.999 353.406L507.961 350.331C508.134 350.158 508.134 349.871 507.99 349.67L505.315 346.595C505.028 346.25 504.453 346.451 504.453 346.882Z" fill="white"/>
<path d="M456.828 350.159C456.857 353.809 459.819 356.74 463.442 356.712C467.095 356.683 470.66 353.924 470.632 350.274C470.603 346.625 467.008 343.521 463.385 343.55C459.733 343.579 456.8 346.539 456.828 350.159Z" fill="url(#paint15_linear)"/>
<path opacity="0.48" d="M466.115 347.286L466.144 353.148C466.144 353.637 465.741 354.068 465.252 354.068H465.109C464.62 354.068 464.188 353.694 464.188 353.177L463.958 347.315C463.93 346.797 464.361 346.366 464.879 346.366H465.224C465.713 346.366 466.115 346.769 466.115 347.286Z" fill="white"/>
<path opacity="0.48" d="M462.577 347.113L462.922 353.263C462.951 353.722 462.405 353.952 462.089 353.636L459.098 350.59C458.925 350.418 458.897 350.13 459.069 349.929L461.715 346.826C462.002 346.481 462.549 346.653 462.577 347.113Z" fill="white"/>
<path d="M444.266 333.29L444.352 334.066C444.438 334.756 445.013 335.302 445.732 335.302L519.666 334.928C520.414 334.928 521.018 334.296 521.018 333.549C521.018 332.802 520.414 332.198 519.666 332.198L445.675 331.825C444.812 331.767 444.179 332.457 444.266 333.29Z" fill="url(#paint16_linear)"/>
<path d="M491.568 334.153C491.482 333.434 491.367 332.716 491.251 331.997L445.614 331.768C444.809 331.768 444.148 332.457 444.234 333.291L444.32 334.067C444.407 334.756 444.982 335.302 445.701 335.302L491.712 335.072C491.654 334.727 491.597 334.411 491.568 334.153Z" fill="url(#paint17_linear)"/>
<path d="M494.415 333.434C494.415 334.785 493.322 335.906 491.942 335.906C490.59 335.906 489.469 334.814 489.469 333.434C489.469 332.084 490.561 330.963 491.942 330.963C493.293 330.963 494.415 332.055 494.415 333.434Z" fill="white"/>
<path d="M484.436 300.33C473.796 300.531 465.025 292.054 464.824 281.45C464.623 270.817 473.106 262.052 483.717 261.851C494.357 261.65 503.128 270.127 503.329 280.731V280.76C503.531 291.364 495.047 300.129 484.436 300.33ZM483.775 262.972C473.767 263.144 465.802 271.421 465.974 281.392C466.147 291.393 474.429 299.353 484.407 299.18C494.415 299.008 502.38 290.732 502.208 280.76V280.731C502.035 270.788 493.753 262.799 483.775 262.972Z" fill="url(#paint18_linear)"/>
<path d="M478.944 290.847C478.397 290.847 477.966 290.445 477.937 289.899L477.19 272.915C477.161 272.369 477.42 271.823 477.88 271.507C478.34 271.191 478.915 271.134 479.433 271.363L496.371 278.921C496.917 279.18 497.291 279.697 497.32 280.329C497.348 280.933 497.032 281.508 496.486 281.795L481.791 289.956C481.302 290.215 480.698 290.042 480.439 289.583C480.18 289.094 480.353 288.491 480.813 288.232L494.818 280.444L479.174 273.461L479.893 289.813C479.95 290.359 479.519 290.818 478.944 290.847C478.973 290.847 478.973 290.847 478.944 290.847Z" fill="url(#paint19_linear)"/>
<path d="M501.748 290.041C501.661 290.329 502.754 290.789 503.387 289.582C503.416 289.007 503.761 286.478 503.416 285.99C501.546 283.432 497.923 280.242 497.923 280.242C497.319 280.846 497.808 281.449 497.808 281.449L499.562 283.288C499.188 283.949 498.757 284.524 498.527 285.329C498.354 285.932 498.469 286.593 498.786 287.139C499.102 287.685 499.505 288.432 499.907 288.978C500.655 290.041 501.748 290.041 501.748 290.041Z" fill="url(#paint20_linear)"/>
<path d="M500.338 284.467L501.949 285.817L502.466 287.168L501.029 288.749C501.029 288.749 500.54 286.076 500.195 285.473C499.821 284.927 499.993 284.639 500.338 284.467Z" fill="url(#paint21_linear)"/>
<path d="M533.263 390.218C533.263 390.218 533.666 392.517 533.867 394.787C533.953 395.678 533.263 396.454 532.372 396.482C529.352 396.597 522.882 396.856 520.553 396.741C520.207 396.712 519.977 396.367 520.092 396.051C520.207 395.793 520.409 395.563 520.668 395.448L531.365 390.534L533.263 390.218Z" fill="url(#paint22_linear)"/>
<path d="M533.608 388.867L533.292 391.626C533.292 391.626 531.423 392.488 530.129 391.511L530.905 388.465L533.608 388.867Z" fill="url(#paint23_linear)"/>
<path d="M533.349 337.256C533.493 337.974 534.097 373.033 530.358 388.724C530.301 388.982 530.416 389.241 530.675 389.356C531.25 389.586 532.371 389.931 533.723 389.988C534.154 389.988 534.528 389.729 534.643 389.327C535.707 385.678 540.854 367.43 541.516 349.986C542.264 330.503 541.516 349.325 541.516 349.325L541.084 337.285L533.349 337.256Z" fill="url(#paint24_linear)"/>
<path d="M545.571 391.425C545.571 391.425 546.204 392.574 546.836 395.649C546.951 396.195 546.549 396.741 546.002 396.799C544.996 396.885 543.472 397.029 542.235 397.029C541.66 397.029 541.229 396.54 541.286 395.965C541.43 394.845 541.862 393.005 543.156 391.568L545.571 391.425Z" fill="url(#paint25_linear)"/>
<path d="M546.147 387.89L545.399 392.028C545.399 392.028 544.652 392.574 543.156 392.172L543.53 387.718L546.147 387.89Z" fill="url(#paint26_linear)"/>
<path d="M548.186 338.348C551.263 356.855 547.525 384.069 546.259 389.385C546.173 389.701 545.914 389.96 545.598 390.017C545.023 390.103 544.103 390.19 543.211 389.931C542.895 389.845 542.665 389.557 542.665 389.241C542.492 384.931 542.809 358.493 539.933 348.061C539.789 347.544 539.473 347.084 539.013 346.739L533.463 342.802L533.031 336.423L548.186 338.348Z" fill="url(#paint27_linear)"/>
<path d="M528.663 303.289C537.865 303.146 547.988 305.703 547.988 305.703C550.72 321.681 548.477 340.101 548.477 340.101C541.374 341.969 533.35 338.952 533.35 338.952C532.171 332.285 526.65 313.491 526.65 313.491C522.164 312.945 518.454 311.652 515.406 309.927C517.736 307.226 518.828 303.807 519.288 301.795C522.538 302.801 525.816 303.347 528.663 303.289Z" fill="url(#paint28_linear)"/>
<path d="M501.516 289.783C502.407 288.691 503.557 289.208 503.557 289.208C504.909 294.927 512.012 299.554 519.287 301.795C518.799 303.807 517.706 307.255 515.405 309.928C503.299 303.146 501.516 289.783 501.516 289.783Z" fill="url(#paint29_linear)"/>
<path d="M544.449 314.611L547.986 305.731C547.986 305.731 556.556 311.565 557.994 318.95C556.383 319.065 553.421 319.496 550.546 320.962C549.884 317.427 544.449 314.611 544.449 314.611Z" fill="url(#paint30_linear)"/>
<path d="M537.953 295.847L540.886 304.295C540.943 304.439 540.886 304.583 540.742 304.669C539.937 305.1 537.061 306.393 533.61 304.18C533.237 303.95 533.007 303.577 532.949 303.146L532 295.847H537.953Z" fill="url(#paint31_linear)"/>
<path d="M531.595 288.03C531.595 288.03 528.374 294.065 528.805 296.508C529.208 298.95 533.205 298.778 536.685 296.795L539.1 290.272L531.595 288.03Z" fill="url(#paint32_linear)"/>
<path d="M536.515 293.576C536.371 293.519 536.314 293.346 536.4 293.202C536.659 292.8 537.147 291.996 537.291 291.306C537.291 291.306 537.866 290.932 535.825 290.444C533.783 289.955 530.735 289.208 530.073 287.455C529.441 285.76 531.08 281.478 533.725 284.898C533.812 285.041 534.013 285.041 534.128 284.898C534.559 284.352 535.681 283.173 537.263 283.892C538.729 284.553 538.902 285.616 538.873 286.162C538.873 286.334 539.017 286.449 539.16 286.421C539.908 286.277 541.691 286.162 542.525 287.972C543.215 289.467 542.755 290.329 542.352 290.731C542.209 290.875 542.266 291.076 542.468 291.133C542.956 291.277 543.589 291.708 543.531 292.829C543.445 294.409 541.691 294.266 541.173 294.208C541.087 294.208 541.001 294.237 540.943 294.294C540.512 294.783 538.557 296.795 536.457 297.053C536.285 297.082 536.141 296.881 536.198 296.708L537.119 294.065C537.147 293.95 537.09 293.806 536.975 293.748L536.515 293.576Z" fill="url(#paint33_linear)"/>
<path d="M536.137 293.95C536.137 293.95 538.409 292.369 538.581 293.691C538.754 295.013 536.511 295.617 535.418 295.099L536.137 293.95Z" fill="url(#paint34_linear)"/>
<path d="M550.52 320.934C550.52 320.934 553.51 334.469 550.807 342.055C554.143 343.607 553.51 343.32 553.51 343.32C553.51 343.32 560.096 324.066 557.968 318.951C553.798 318.491 551.699 319.612 550.52 320.934Z" fill="url(#paint35_linear)"/>
<path d="M550.805 342.055C550.805 342.055 549.08 344.268 549.223 345.158C549.367 346.049 549.396 346.394 549.396 346.394C549.396 346.394 550.259 345.791 550.201 345.043C550.086 347.429 549.281 350.159 550 350.015C550.719 349.871 554.486 346.423 553.652 342.716C551.725 341.394 551.179 341.538 550.805 342.055Z" fill="url(#paint36_linear)"/>
<path d="M126.272 299.869L55.7313 346.164C52.7693 348.118 52.1079 352.141 54.2647 354.958L54.6098 355.418C56.5365 357.889 60.1023 358.32 62.5467 356.395L129.291 304.065L126.272 299.869Z" fill="url(#paint37_linear)"/>
<path opacity="0.27" d="M166.588 312.004C187.624 307.038 200.719 286.272 195.838 265.621C190.956 244.97 169.945 232.255 148.909 237.221C127.873 242.187 114.778 262.954 119.659 283.604C124.541 304.255 145.552 316.97 166.588 312.004Z" fill="white"/>
<path d="M147.928 233.027C124.52 238.545 109.94 261.649 115.375 284.639C120.81 307.6 144.189 321.767 167.597 316.221C191.005 310.703 205.585 287.599 200.15 264.609C194.715 241.62 171.336 227.481 147.928 233.027ZM166.159 310.1C146.173 314.813 126.245 302.743 121.615 283.145C116.985 263.546 129.408 243.832 149.394 239.12C169.38 234.407 189.309 246.476 193.939 266.075C198.568 285.673 186.117 305.387 166.159 310.1Z" fill="url(#paint38_linear)"/>
<path d="M59.5822 355.82C57.0229 355.561 55.4412 354.498 54.9236 352.688C54.406 350.848 55.1537 348.837 56.8216 347.716L65.2473 341.911C65.3048 341.854 65.4199 341.882 65.4774 341.94C65.5349 341.997 65.5061 342.112 65.4486 342.17L57.0229 347.975C55.47 349.038 54.7798 350.906 55.2399 352.601C55.7288 354.297 57.1954 355.274 59.611 355.504C59.6972 355.504 59.7548 355.59 59.7548 355.676C59.726 355.762 59.6685 355.82 59.5822 355.82Z" fill="url(#paint39_linear)"/>
<path d="M67.9237 340.388C67.8662 340.388 67.8375 340.359 67.8087 340.331C67.7512 340.273 67.7799 340.158 67.8374 340.101L68.9302 339.354C68.9877 339.296 69.1027 339.325 69.1603 339.382C69.2178 339.44 69.189 339.555 69.1315 339.612L68.0387 340.359C67.9812 340.388 67.9525 340.388 67.9237 340.388Z" fill="url(#paint40_linear)"/>
<path d="M78.6787 348.837L71.7195 350.561L73.4449 363.579C73.4449 363.579 70.8281 366.194 69.9654 369.642C69.1027 373.12 68.2975 387.689 68.2975 387.689L66.6583 388.695L66.457 389.528L71.2594 395.965L70.4542 390.85C70.3392 390.046 70.5405 388.379 70.483 388.35C73.0999 381.396 78.6499 361.855 78.6499 361.855V348.837H78.6787Z" fill="url(#paint41_linear)"/>
<path d="M80.6896 389.643C80.6033 389.643 80.5458 389.643 80.4595 389.643C80.8046 385.448 82.3287 367.027 83.8528 360.131C85.5782 352.314 81.2359 336.71 81.2359 336.71L73.4141 344.526L77.7563 359.268C74.7944 363.723 78.2452 389.844 78.1589 389.844V389.902L77.0374 391.454L77.1812 392.287L84.1116 396.368L81.3797 391.942C80.9771 391.253 80.7471 390.448 80.6896 389.643Z" fill="url(#paint42_linear)"/>
<path d="M71.9212 302.054C71.9212 302.054 56.7088 323.147 71.9212 333.98L73.4741 332.601C73.4741 332.601 65.911 323.693 73.4741 312.801L71.9212 302.054Z" fill="url(#paint43_linear)"/>
<path d="M84.6005 397H82.3862C81.9836 397 81.581 396.799 81.3222 396.483C80.632 395.592 79.1942 393.839 78.5328 393.81C77.6126 393.753 77.7276 397 77.7276 397H77.21L76.5486 392.948C76.376 391.943 76.8936 390.908 77.8139 390.448C77.8139 390.448 78.0152 392 79.1654 392.69C80.3157 393.379 83.7953 395.822 83.7953 395.822C83.7953 395.822 84.2266 395.765 84.6867 395.851C85.4057 395.966 85.3194 397 84.6005 397Z" fill="url(#paint44_linear)"/>
<path d="M71.4311 396.77L69.3894 395.908C69.0156 395.736 68.728 395.42 68.613 395.017C68.3254 393.925 67.6928 391.77 67.0889 391.454C66.2549 391.052 65.1046 394.098 65.1046 394.098L64.6445 393.897L65.6223 389.902C65.8811 388.896 66.715 388.178 67.7503 388.092C67.7503 388.092 67.3477 389.615 68.1241 390.678C68.9005 391.741 71.1723 395.362 71.1723 395.362C71.1723 395.362 71.6037 395.477 71.9775 395.736C72.5814 396.109 72.0925 397.029 71.4311 396.77Z" fill="url(#paint45_linear)"/>
<path d="M83.2758 323.491C83.2758 323.491 83.017 325.043 83.3908 329.353C83.7647 333.664 85.5476 343.75 85.2025 353.406C85.2025 353.406 80.1126 354.584 71.2842 354.038C71.2842 354.038 67.5458 338.951 68.4661 333.233C69.3863 327.485 74.3037 323.376 74.3037 323.376L83.2758 323.491Z" fill="url(#paint46_linear)"/>
<path d="M79.51 294.754L80.1427 302.053H74.2188L75.6854 290.903L79.51 294.754Z" fill="url(#paint47_linear)"/>
<path d="M72.466 301.048C74.5077 300.933 79.0513 300.732 82.3008 300.904C83.9975 300.99 85.4353 302.226 85.7804 303.893L86.5568 307.657C86.8444 309.065 86.8157 310.502 86.4418 311.91L83.2786 323.52C83.2786 323.52 80.4604 325.215 74.2777 323.405C74.2777 323.405 68.8426 310.473 71.0857 302.226C71.2582 301.536 71.8046 301.076 72.466 301.048Z" fill="url(#paint48_linear)"/>
<path d="M85.6078 303.203C86.4705 305.502 87.2757 307.887 88.1096 310.128C88.541 311.249 88.9723 312.37 89.4325 313.375C89.6625 313.893 89.9213 314.353 90.1514 314.755C90.3814 315.157 90.669 315.531 90.784 315.674C90.8128 315.703 90.7265 315.703 90.6978 315.732C90.669 315.732 91.2729 315.818 91.4742 315.876H92.1931C93.2284 315.818 94.4074 315.646 95.5864 315.416C97.9732 314.985 100.446 314.353 103.006 313.864H103.034C103.523 313.778 103.983 314.094 104.07 314.582C104.127 314.899 104.012 315.215 103.782 315.416C102.747 316.307 101.654 317.054 100.533 317.772C99.9575 318.117 99.3823 318.462 98.8072 318.778C98.2033 319.094 97.5994 319.382 96.9955 319.669C95.7302 320.215 94.4361 320.732 92.9408 321.048C92.5382 321.106 92.1644 321.192 91.7618 321.249C91.3016 321.278 90.8991 321.307 90.4102 321.278C90.1514 321.249 89.8926 321.221 89.605 321.192C89.4612 321.163 89.3749 321.163 89.2024 321.106C89.0299 321.048 88.8286 320.991 88.656 320.933C88.2822 320.79 88.0521 320.646 87.7358 320.473C87.477 320.301 87.2469 320.129 87.0456 319.956C86.2404 319.267 85.7228 318.577 85.2627 317.916C84.8026 317.255 84.4575 316.594 84.1412 315.933C83.5085 314.64 83.0197 313.347 82.5883 312.054C81.7831 309.467 81.208 306.91 80.9779 304.18C80.8629 302.887 81.8407 301.737 83.1347 301.622C84.1987 301.536 85.1764 302.168 85.5503 303.145L85.6078 303.203Z" fill="url(#paint49_linear)"/>
<path d="M102.258 315.014L103.322 312.514L108.872 311.135C108.872 311.135 109.304 312.083 106.974 312.514C106.974 312.514 107.808 313.434 107.377 314.526C106.917 315.589 102.201 316.681 102.258 315.014Z" fill="url(#paint50_linear)"/>
<path d="M82.0139 286.306C82.2151 286.421 83.883 292.283 82.5027 294.726C81.1224 297.169 76.8664 294.439 75.7161 290.875C74.5371 287.369 76.4063 283.001 82.0139 286.306Z" fill="url(#paint51_linear)"/>
<path d="M70.9989 290.904C70.0499 295.559 66.8867 294.295 64.6436 296.364C61.0203 299.726 55.8153 296.249 50.7829 299.438C47.1307 301.737 45.3766 307.628 47.1307 312.399C49.5463 318.98 57.8283 321.71 62.113 319.698C66.1965 317.773 65.6214 312.025 71.1427 309.812C73.472 308.864 74.651 309.496 76.0313 308.088C78.4757 305.646 77.8143 300.904 77.5555 299.065C77.0091 295.099 75.6575 294.381 76.3189 292.628C77.5555 289.237 83.3356 289.927 83.7957 287.541C84.227 285.357 80.0573 281.219 76.1176 281.88C70.0499 282.915 71.4303 288.835 70.9989 290.904Z" fill="url(#paint52_linear)"/>
<path d="M365.9 362.487C393.736 348.665 415.217 326.969 417.604 281.507C417.604 281.507 345.137 305.675 365.9 362.487Z" fill="#BDD0FB"/>
<path d="M370.385 352.286C370.528 352.286 370.672 352.2 370.73 352.027C383.383 315.991 407.912 295.128 408.171 294.927C408.315 294.783 408.344 294.553 408.229 294.41C408.085 294.266 407.855 294.237 407.711 294.352C407.452 294.553 382.779 315.531 370.068 351.768C370.011 351.97 370.097 352.171 370.298 352.228C370.298 352.286 370.356 352.286 370.385 352.286Z" fill="white"/>
<path d="M368.691 361.366C388.246 363.177 407.024 358.607 423.416 334.957C423.416 334.957 376.427 323.922 368.691 361.366Z" fill="#91B3FA"/>
<path d="M379.791 355.131C379.906 355.131 379.992 355.073 380.078 354.987C391.121 341.969 415.823 337.774 416.082 337.745C416.283 337.716 416.427 337.515 416.398 337.314C416.369 337.113 416.168 336.969 415.967 336.998C415.708 337.027 390.747 341.28 379.532 354.499C379.388 354.642 379.417 354.872 379.561 355.016C379.647 355.102 379.733 355.131 379.791 355.131Z" fill="white"/>
</g>
<defs>
<linearGradient id="paint0_linear" x1="351.203" y1="257.346" x2="287.436" y2="451.366" gradientUnits="userSpaceOnUse">
<stop stop-color="#09005D"/>
<stop offset="1" stop-color="#1A0F91"/>
</linearGradient>
<linearGradient id="paint1_linear" x1="334.74" y1="291.071" x2="327.847" y2="381.602" gradientUnits="userSpaceOnUse">
<stop stop-color="#09005D"/>
<stop offset="1" stop-color="#1A0F91"/>
</linearGradient>
<linearGradient id="paint2_linear" x1="335.963" y1="-7.70916" x2="333.378" y2="261.294" gradientUnits="userSpaceOnUse">
<stop stop-color="#09005D"/>
<stop offset="1" stop-color="#24578B"/>
</linearGradient>
<linearGradient id="paint3_linear" x1="469.474" y1="6.14785" x2="162.545" y2="330.545" gradientUnits="userSpaceOnUse">
<stop stop-color="#EDA85A"/>
<stop offset="1" stop-color="#FF928E"/>
</linearGradient>
<linearGradient id="paint4_linear" x1="368.978" y1="-76.2744" x2="225.926" y2="284.19" gradientUnits="userSpaceOnUse">
<stop stop-color="#EDA85A"/>
<stop offset="1" stop-color="#FEB3B1"/>
</linearGradient>
<linearGradient id="paint5_linear" x1="393.594" y1="-66.5055" x2="250.542" y2="293.959" gradientUnits="userSpaceOnUse">
<stop stop-color="#EDA85A"/>
<stop offset="1" stop-color="#FEB3B1"/>
</linearGradient>
<linearGradient id="paint6_linear" x1="530.264" y1="-12.2664" x2="387.212" y2="348.199" gradientUnits="userSpaceOnUse">
<stop stop-color="#EDA85A"/>
<stop offset="1" stop-color="#FEB3B1"/>
</linearGradient>
<linearGradient id="paint7_linear" x1="355.361" y1="-81.6778" x2="212.309" y2="278.787" gradientUnits="userSpaceOnUse">
<stop stop-color="#EDA85A"/>
<stop offset="1" stop-color="#FEB3B1"/>
</linearGradient>
<linearGradient id="paint8_linear" x1="178.628" y1="223.321" x2="173.832" y2="461.353" gradientUnits="userSpaceOnUse">
<stop stop-color="#09005D"/>
<stop offset="1" stop-color="#1A0F91"/>
</linearGradient>
<linearGradient id="paint9_linear" x1="334.338" y1="392.487" x2="70.877" y2="224.472" gradientUnits="userSpaceOnUse">
<stop stop-color="#4042E2"/>
<stop offset="1" stop-color="#4F52FF"/>
</linearGradient>
<linearGradient id="paint10_linear" x1="200.43" y1="239.718" x2="186.024" y2="340.629" gradientUnits="userSpaceOnUse">
<stop stop-color="#09005D"/>
<stop offset="1" stop-color="#1A0F91"/>
</linearGradient>
<linearGradient id="paint11_linear" x1="529.763" y1="174.204" x2="444.272" y2="407.901" gradientUnits="userSpaceOnUse">
<stop stop-color="#09005D"/>
<stop offset="1" stop-color="#1A0F91"/>
</linearGradient>
<linearGradient id="paint12_linear" x1="557.316" y1="213.295" x2="405.049" y2="374.539" gradientUnits="userSpaceOnUse">
<stop stop-color="#4042E2"/>
<stop offset="1" stop-color="#4F52FF"/>
</linearGradient>
<linearGradient id="paint13_linear" x1="489.816" y1="325.71" x2="467.579" y2="405.604" gradientUnits="userSpaceOnUse">
<stop stop-color="#EDA85A"/>
<stop offset="1" stop-color="#FF928E"/>
</linearGradient>
<linearGradient id="paint14_linear" x1="509.366" y1="328.468" x2="487.129" y2="408.362" gradientUnits="userSpaceOnUse">
<stop stop-color="#EDA85A"/>
<stop offset="1" stop-color="#FF928E"/>
</linearGradient>
<linearGradient id="paint15_linear" x1="470.274" y1="334.595" x2="446.443" y2="391.122" gradientUnits="userSpaceOnUse">
<stop stop-color="#EDA85A"/>
<stop offset="1" stop-color="#FF928E"/>
</linearGradient>
<linearGradient id="paint16_linear" x1="444.259" y1="333.515" x2="520.995" y2="333.515" gradientUnits="userSpaceOnUse">
<stop stop-color="#DAE3FE"/>
<stop offset="1" stop-color="#E9EFFD"/>
</linearGradient>
<linearGradient id="paint17_linear" x1="479.807" y1="314.021" x2="440.083" y2="380.863" gradientUnits="userSpaceOnUse">
<stop stop-color="#EDA85A"/>
<stop offset="1" stop-color="#FF928E"/>
</linearGradient>
<linearGradient id="paint18_linear" x1="464.828" y1="281.09" x2="503.345" y2="281.09" gradientUnits="userSpaceOnUse">
<stop stop-color="#DAE3FE"/>
<stop offset="1" stop-color="#E9EFFD"/>
</linearGradient>
<linearGradient id="paint19_linear" x1="477.177" y1="281.046" x2="497.321" y2="281.046" gradientUnits="userSpaceOnUse">
<stop stop-color="#DAE3FE"/>
<stop offset="1" stop-color="#E9EFFD"/>
</linearGradient>
<linearGradient id="paint20_linear" x1="877.639" y1="630.449" x2="851.008" y2="606.1" gradientUnits="userSpaceOnUse">
<stop stop-color="#FF928E"/>
<stop offset="1" stop-color="#FEB3B1"/>
</linearGradient>
<linearGradient id="paint21_linear" x1="501.202" y1="274.01" x2="501.202" y2="294.126" gradientUnits="userSpaceOnUse">
<stop stop-color="#FF928E"/>
<stop offset="1" stop-color="#FEB3B1"/>
</linearGradient>
<linearGradient id="paint22_linear" x1="520.888" y1="387.043" x2="560.023" y2="429.641" gradientUnits="userSpaceOnUse">
<stop stop-color="#09005D"/>
<stop offset="1" stop-color="#1A0F91"/>
</linearGradient>
<linearGradient id="paint23_linear" x1="533.601" y1="390.205" x2="530.122" y2="390.205" gradientUnits="userSpaceOnUse">
<stop stop-color="#FF928E"/>
<stop offset="1" stop-color="#FEB3B1"/>
</linearGradient>
<linearGradient id="paint24_linear" x1="517.804" y1="338.9" x2="551.1" y2="384.059" gradientUnits="userSpaceOnUse">
<stop stop-color="#4042E2"/>
<stop offset="1" stop-color="#4F52FF"/>
</linearGradient>
<linearGradient id="paint25_linear" x1="529.675" y1="378.971" x2="568.81" y2="421.569" gradientUnits="userSpaceOnUse">
<stop stop-color="#09005D"/>
<stop offset="1" stop-color="#1A0F91"/>
</linearGradient>
<linearGradient id="paint26_linear" x1="546.139" y1="390.027" x2="543.135" y2="390.027" gradientUnits="userSpaceOnUse">
<stop stop-color="#FF928E"/>
<stop offset="1" stop-color="#FEB3B1"/>
</linearGradient>
<linearGradient id="paint27_linear" x1="523.742" y1="334.522" x2="557.037" y2="379.681" gradientUnits="userSpaceOnUse">
<stop stop-color="#4042E2"/>
<stop offset="1" stop-color="#4F52FF"/>
</linearGradient>
<linearGradient id="paint28_linear" x1="1077.21" y1="165.104" x2="1173.82" y2="137.354" gradientUnits="userSpaceOnUse">
<stop stop-color="#EDA85A"/>
<stop offset="1" stop-color="#FF928E"/>
</linearGradient>
<linearGradient id="paint29_linear" x1="875.22" y1="633.092" x2="848.589" y2="608.743" gradientUnits="userSpaceOnUse">
<stop stop-color="#FF928E"/>
<stop offset="1" stop-color="#FEB3B1"/>
</linearGradient>
<linearGradient id="paint30_linear" x1="1076.38" y1="162.192" x2="1172.99" y2="134.442" gradientUnits="userSpaceOnUse">
<stop stop-color="#EDA85A"/>
<stop offset="1" stop-color="#FF928E"/>
</linearGradient>
<linearGradient id="paint31_linear" x1="537.106" y1="291.68" x2="535.383" y2="314.287" gradientUnits="userSpaceOnUse">
<stop stop-color="#FF928E"/>
<stop offset="1" stop-color="#FEB3B1"/>
</linearGradient>
<linearGradient id="paint32_linear" x1="924.473" y1="-239.086" x2="916.162" y2="-227.754" gradientUnits="userSpaceOnUse">
<stop stop-color="#FF928E"/>
<stop offset="1" stop-color="#FEB3B1"/>
</linearGradient>
<linearGradient id="paint33_linear" x1="558.634" y1="254.835" x2="551.165" y2="266.622" gradientUnits="userSpaceOnUse">
<stop stop-color="#E1473D"/>
<stop offset="1" stop-color="#E9605A"/>
</linearGradient>
<linearGradient id="paint34_linear" x1="927.373" y1="-236.957" x2="919.062" y2="-225.626" gradientUnits="userSpaceOnUse">
<stop stop-color="#FF928E"/>
<stop offset="1" stop-color="#FEB3B1"/>
</linearGradient>
<linearGradient id="paint35_linear" x1="548.353" y1="365.977" x2="555.573" y2="314.092" gradientUnits="userSpaceOnUse">
<stop stop-color="#FF928E"/>
<stop offset="1" stop-color="#FEB3B1"/>
</linearGradient>
<linearGradient id="paint36_linear" x1="549.212" y1="360.986" x2="554.973" y2="319.582" gradientUnits="userSpaceOnUse">
<stop stop-color="#FF928E"/>
<stop offset="1" stop-color="#FEB3B1"/>
</linearGradient>
<linearGradient id="paint37_linear" x1="142.055" y1="298.069" x2="59.2678" y2="350.422" gradientUnits="userSpaceOnUse">
<stop stop-color="#09005D"/>
<stop offset="1" stop-color="#1A0F91"/>
</linearGradient>
<linearGradient id="paint38_linear" x1="193.749" y1="203.057" x2="138.597" y2="312.862" gradientUnits="userSpaceOnUse">
<stop stop-color="#09005D"/>
<stop offset="1" stop-color="#1A0F91"/>
</linearGradient>
<linearGradient id="paint39_linear" x1="163.63" y1="253.444" x2="35.0313" y2="373.524" gradientUnits="userSpaceOnUse">
<stop stop-color="#4042E2"/>
<stop offset="1" stop-color="#4F52FF"/>
</linearGradient>
<linearGradient id="paint40_linear" x1="162.477" y1="252.203" x2="33.8734" y2="372.283" gradientUnits="userSpaceOnUse">
<stop stop-color="#4042E2"/>
<stop offset="1" stop-color="#4F52FF"/>
</linearGradient>
<linearGradient id="paint41_linear" x1="71.6505" y1="371.158" x2="144.393" y2="398.779" gradientUnits="userSpaceOnUse">
<stop stop-color="#FF928E"/>
<stop offset="1" stop-color="#FEB3B1"/>
</linearGradient>
<linearGradient id="paint42_linear" x1="108.113" y1="342.506" x2="75.9261" y2="372.989" gradientUnits="userSpaceOnUse">
<stop stop-color="#FF928E"/>
<stop offset="1" stop-color="#FEB3B1"/>
</linearGradient>
<linearGradient id="paint43_linear" x1="65.1488" y1="318.016" x2="73.4626" y2="318.016" gradientUnits="userSpaceOnUse">
<stop stop-color="#FF928E"/>
<stop offset="1" stop-color="#FEB3B1"/>
</linearGradient>
<linearGradient id="paint44_linear" x1="71.9186" y1="380.927" x2="79.1861" y2="393.235" gradientUnits="userSpaceOnUse">
<stop stop-color="#4042E2"/>
<stop offset="1" stop-color="#4F52FF"/>
</linearGradient>
<linearGradient id="paint45_linear" x1="65.9886" y1="377.02" x2="67.9176" y2="391.18" gradientUnits="userSpaceOnUse">
<stop stop-color="#4042E2"/>
<stop offset="1" stop-color="#4F52FF"/>
</linearGradient>
<linearGradient id="paint46_linear" x1="73.4197" y1="350.748" x2="54.5531" y2="394.913" gradientUnits="userSpaceOnUse">
<stop stop-color="#EDA85A"/>
<stop offset="1" stop-color="#FF928E"/>
</linearGradient>
<linearGradient id="paint47_linear" x1="74.2254" y1="296.482" x2="80.1301" y2="296.482" gradientUnits="userSpaceOnUse">
<stop stop-color="#FF928E"/>
<stop offset="1" stop-color="#FEB3B1"/>
</linearGradient>
<linearGradient id="paint48_linear" x1="84.865" y1="302.875" x2="53.6243" y2="342.981" gradientUnits="userSpaceOnUse">
<stop stop-color="#EDA85A"/>
<stop offset="1" stop-color="#FF928E"/>
</linearGradient>
<linearGradient id="paint49_linear" x1="82.3026" y1="294.924" x2="93.5062" y2="314.184" gradientUnits="userSpaceOnUse">
<stop stop-color="#FF928E"/>
<stop offset="1" stop-color="#FEB3B1"/>
</linearGradient>
<linearGradient id="paint50_linear" x1="91.7187" y1="289.448" x2="102.922" y2="308.708" gradientUnits="userSpaceOnUse">
<stop stop-color="#FF928E"/>
<stop offset="1" stop-color="#FEB3B1"/>
</linearGradient>
<linearGradient id="paint51_linear" x1="84.062" y1="296.48" x2="72.5985" y2="279.705" gradientUnits="userSpaceOnUse">
<stop stop-color="#FF928E"/>
<stop offset="1" stop-color="#FEB3B1"/>
</linearGradient>
<linearGradient id="paint52_linear" x1="46.4535" y1="301.095" x2="83.84" y2="301.095" gradientUnits="userSpaceOnUse">
<stop stop-color="#09005D"/>
<stop offset="1" stop-color="#1A0F91"/>
</linearGradient>
<clipPath id="clip0">
<rect width="647" height="397" fill="white"/>
</clipPath>
</defs>
</svg>
