<svg width="791" height="510" viewBox="0 0 791 510" fill="none" xmlns="http://www.w3.org/2000/svg">
<path d="M342.036 389.268C307.399 472.101 215.13 518.503 135.131 505.98C122.11 503.94 86.4147 497.872 54.8225 469.255C-6.02881 414.154 -19.0358 305.054 30.0421 228.168C65.7644 172.195 129.78 140.477 190.618 142.061C203.719 142.396 253.95 144.503 298.08 181.47C304.557 186.893 318.864 199.805 331.751 220.262C362.015 268.329 364.603 335.295 342.036 389.268Z" fill="white"/>
<path d="M628.026 344.549C579.752 459.971 451.154 524.631 339.656 507.18C321.509 504.337 271.759 495.883 227.728 456.006C142.918 379.226 124.79 227.201 193.191 120.065C242.978 42.0692 332.199 -2.12817 416.991 0.0788988C435.25 0.546497 505.258 3.48301 566.763 54.9936C575.79 62.55 595.731 80.5432 613.691 109.048C655.872 176.027 659.479 269.341 628.026 344.549Z" fill="white"/>
<path d="M138.861 323.021C147.103 287.821 174.052 260.176 208.365 251.722C231.951 245.905 254.583 249.029 273.72 258.437C280.056 261.56 287.606 258.025 289.363 251.03C306.276 183.771 365.782 134.074 436.613 134.074C520.601 134.074 588.684 203.933 588.684 290.121C588.684 292.403 588.647 295.527 588.61 298.538C588.909 304.991 591.656 307.721 595.749 308.414C628.66 311.93 654.507 339.761 655.946 374.102C657.59 413.53 626.324 446.187 587.881 446.187H232.194C171.305 446.187 123.63 388.13 138.861 323.021Z" fill="url(#paint0_linear)"/>
<path opacity="0.21" d="M166.408 336.207C173.771 304.766 197.824 280.096 228.474 272.539C249.536 267.358 269.739 270.126 286.821 278.543C292.483 281.33 299.211 278.169 300.781 271.941C315.882 211.882 369.014 167.517 432.258 167.517C507.237 167.517 568.032 229.894 568.032 306.842C568.032 308.881 567.995 311.668 567.958 314.361C568.219 320.122 570.668 322.553 574.331 323.171C603.709 326.313 626.809 351.17 628.08 381.826C629.556 417.027 601.635 446.186 567.304 446.186H249.742C195.376 446.186 152.802 394.339 166.408 336.207Z" fill="#91B3FA"/>
<path d="M314.658 487.014C314.658 490.098 317.179 492.622 320.281 492.622H624.07C627.152 492.622 629.694 490.098 629.694 487.014L632.215 312.305C632.215 309.22 628.573 303.192 621.909 303.632L325.024 295.941C321.142 295.841 317.4 297.343 314.658 300.067C311.916 302.811 310.415 306.556 310.495 310.422L314.658 487.014Z" fill="url(#paint1_linear)"/>
<path d="M320.197 481.626C320.197 484.55 322.599 486.953 325.521 486.953H616.742C619.663 486.953 622.065 484.55 622.065 481.626L624.446 323.02C624.166 313.466 615.801 310.041 610.738 310.242L326.201 302.611C323.479 302.531 320.838 303.592 318.916 305.515C316.995 307.438 315.935 310.081 315.995 312.805L320.197 481.626Z" fill="#BDD0FB"/>
<path d="M618.902 406.279C618.902 406.279 618.882 406.279 618.902 406.279C618.461 406.279 618.121 405.918 618.121 405.478L618.301 392.619C618.301 392.199 618.661 391.858 619.082 391.858C619.522 391.858 619.862 392.219 619.862 392.66L619.682 405.518C619.662 405.938 619.322 406.279 618.902 406.279Z" fill="white"/>
<path d="M619.364 374.754C618.924 374.754 618.583 374.393 618.583 373.953L619.304 324.682C619.284 321.758 618.403 319.415 616.662 317.753C613.42 314.648 608.277 314.808 608.057 314.808L517.1 312.365C516.68 312.345 516.34 312.004 516.34 311.564C516.36 311.143 516.68 310.763 517.14 310.803L608.037 313.246C608.597 313.206 614.081 313.126 617.743 316.611C619.804 318.574 620.845 321.298 620.865 324.682L620.144 373.973C620.144 374.413 619.784 374.754 619.364 374.754Z" fill="white"/>
<path d="M291.141 507.142H647.022C647.643 507.142 648.163 506.641 648.163 506.001V492.922C648.163 492.301 647.663 491.78 647.022 491.78H291.141C290.52 491.78 290 492.281 290 492.922V506.001C290 506.641 290.52 507.142 291.141 507.142Z" fill="url(#paint2_linear)"/>
<path d="M446.536 479.222H334.426C330.283 479.222 326.941 475.877 326.941 471.731V325.263C326.941 321.017 330.464 317.612 334.706 317.772L446.836 322.058C450.858 322.218 454.04 325.523 454.04 329.549V471.731C454.02 475.857 450.678 479.222 446.536 479.222Z" fill="#91B3FA"/>
<path opacity="0.51" d="M424.245 385.108H349.979C349.398 385.108 348.918 384.628 348.918 384.047V376.296C348.918 375.715 349.398 375.234 349.979 375.234H424.245C424.825 375.234 425.305 375.715 425.305 376.296V384.047C425.305 384.628 424.825 385.108 424.245 385.108Z" fill="white"/>
<path opacity="0.51" d="M424.382 400.871H350.115C349.535 400.871 349.055 400.391 349.055 399.81V392.059C349.055 391.478 349.535 390.997 350.115 390.997H424.382C424.962 390.997 425.442 391.478 425.442 392.059V399.81C425.462 400.391 424.982 400.871 424.382 400.871Z" fill="white"/>
<path opacity="0.51" d="M424.846 416.974H350.58C350 416.974 349.52 416.493 349.52 415.912V408.161C349.52 407.58 350 407.1 350.58 407.1H424.846C425.427 407.1 425.907 407.58 425.907 408.161V415.912C425.907 416.513 425.427 416.974 424.846 416.974Z" fill="white"/>
<path opacity="0.51" d="M424.987 432.757H350.721C350.14 432.757 349.66 432.276 349.66 431.695V423.944C349.66 423.364 350.14 422.883 350.721 422.883H424.987C425.567 422.883 426.048 423.364 426.048 423.944V431.695C426.068 432.276 425.587 432.757 424.987 432.757Z" fill="white"/>
<path opacity="0.51" d="M587.123 385.088H479.416C478.836 385.088 478.355 384.607 478.355 384.026V376.275C478.355 375.695 478.836 375.214 479.416 375.214H587.123C587.703 375.214 588.184 375.695 588.184 376.275V384.026C588.184 384.607 587.703 385.088 587.123 385.088Z" fill="white"/>
<path opacity="0.51" d="M587.467 400.87H479.76C479.18 400.87 478.699 400.39 478.699 399.809V392.058C478.699 391.477 479.18 390.996 479.76 390.996H587.467C588.047 390.996 588.528 391.477 588.528 392.058V399.809C588.528 400.39 588.047 400.87 587.467 400.87Z" fill="white"/>
<path opacity="0.51" d="M542.719 416.974H479.76C479.18 416.974 478.699 416.493 478.699 415.912V408.161C478.699 407.58 479.18 407.1 479.76 407.1H542.719C543.299 407.1 543.78 407.58 543.78 408.161V415.912C543.78 416.513 543.299 416.974 542.719 416.974Z" fill="white"/>
<g opacity="0.51">
<path opacity="0.51" d="M536.652 338.402H534.97C534.13 338.402 533.47 337.721 533.47 336.899V331.171C533.47 329.128 531.809 327.466 529.767 327.466H519.401C517.36 327.466 515.699 329.128 515.699 331.171V336.899C515.699 337.741 515.018 338.402 514.198 338.402H512.517C511.676 338.402 511.016 337.721 511.016 336.899V331.171C511.016 326.525 514.778 322.779 519.401 322.779H529.767C534.41 322.779 538.152 326.545 538.152 331.171V336.899C538.152 337.721 537.492 338.402 536.652 338.402Z" fill="white"/>
<path opacity="0.51" d="M538.733 339.743H510.435C508.694 339.743 507.293 341.145 507.293 342.888V364.619C507.293 366.361 508.694 367.763 510.435 367.763H538.713C540.454 367.763 541.854 366.361 541.854 364.619V342.888C541.875 341.145 540.454 339.743 538.733 339.743ZM528.626 360.733C528.806 361.474 528.246 362.175 527.506 362.175H521.682C520.921 362.175 520.381 361.474 520.561 360.733L521.922 355.065C520.321 354.104 519.26 352.301 519.38 350.278C519.521 347.654 521.642 345.491 524.284 345.331C527.325 345.151 529.867 347.554 529.867 350.559C529.867 352.481 528.846 354.144 527.305 355.065L528.626 360.733Z" fill="white"/>
</g>
<path d="M202.515 240.106C202.515 240.106 208.981 240.443 209.785 253.76C209.785 253.76 194.796 267.208 174.537 270.426C173.023 270.669 176.668 260.026 177.21 258.586C179.808 251.74 188.012 247.326 202.515 240.106Z" fill="url(#paint3_linear)"/>
<path d="M275.346 224.451H261.703C261.703 224.451 219.821 178.158 192.33 173.482C192.33 173.482 173.211 197.91 193.357 243.566C194.983 247.232 199.506 248.878 202.889 246.708C203.898 246.054 204.627 245.193 205.075 244.108L203.449 205.129C203.449 205.129 239.183 236.402 245.387 242.444C251.611 248.466 283.176 244.801 275.346 224.451Z" fill="#2047D3"/>
<path d="M143.403 321.655C149.122 316.643 158.242 311.013 171.399 309.404L175.847 312.135C175.847 312.135 173.006 316.325 167.829 320.739C163.064 323.507 155.719 327.267 149.608 328.071C143.665 328.856 142.805 325.284 143.403 321.655Z" fill="url(#paint4_linear)"/>
<path d="M177.193 258.586C180.725 259.727 182.257 264.721 191.209 261.41C199.862 258.212 206.291 254.097 209.599 251.722C209.674 252.358 209.73 253.031 209.786 253.76C209.786 253.76 193.975 268.817 173.716 272.015C172.203 272.259 170.988 270.744 171.53 269.303C172.502 266.722 174.277 262.794 177.193 258.586Z" fill="#91B3FA"/>
<path d="M139.085 325.938C140.207 324.647 141.646 323.188 143.403 321.655C142.804 325.265 143.683 328.856 149.607 328.07C155.7 327.266 163.063 323.506 167.829 320.738C161.867 325.826 152.766 331.25 141.309 330.932C138.749 330.857 137.403 327.865 139.085 325.938Z" fill="#91B3FA"/>
<path d="M274.862 234.327L210.946 235.019C210.946 235.019 174.447 265.245 167.831 311.331C167.831 311.331 166.728 314.717 173.325 315.296C173.325 315.296 195.397 300.876 209.788 275.364C227.43 244.091 262.378 258.175 262.378 258.175C279.179 261.878 292.542 260.513 302.316 245.437L274.862 234.327Z" fill="#2047D3"/>
<path d="M273.346 182.798C273.346 182.798 266.469 217.307 232.754 230.96L220.756 229.539L217.934 234.047L246.06 234.944C246.06 234.944 270.113 225.405 282.84 199.444C283.27 198.603 290.278 184.107 273.346 182.798Z" fill="url(#paint5_linear)"/>
<path d="M269.666 233.766C269.666 233.766 277.496 212.481 279.178 191.794C279.178 191.794 273.459 186.875 269.871 184.743C268.712 184.051 268.283 182.592 268.862 181.395C271.497 175.933 287.401 154.536 288.597 154.236C295.082 152.628 321.639 139.984 340.347 165.59C348.383 176.588 338.758 210.423 302.334 245.456C290.597 247.363 279.627 243.978 269.666 233.766Z" fill="url(#paint6_linear)"/>
<path d="M299.808 196.47C299.808 196.47 278.073 222.225 250.282 226.003C250.282 226.003 243.106 219.457 237.761 221.795C232.416 224.133 225.09 234.457 225.09 234.457H260.767C260.767 234.457 294.5 233.26 311.376 212.798C310.012 205.616 305.957 201.333 299.808 196.47Z" fill="url(#paint7_linear)"/>
<path d="M312.484 136.169L317.25 152.049C317.474 152.778 317.194 153.564 316.577 153.994C314.278 155.565 308.298 158.688 300.093 155.658C299.159 155.303 298.505 154.443 298.43 153.433L297.309 139.61L312.484 136.169Z" fill="url(#paint8_linear)"/>
<path d="M284.633 123.3C284.633 123.3 286.969 139.76 293.286 144.828C299.603 149.897 311.919 146.082 316.068 133.681L307.788 112.471L284.633 123.3Z" fill="url(#paint9_linear)"/>
<path d="M308.724 126.181C308.238 126.33 307.733 126.031 307.659 125.526C307.434 124.011 306.855 121 305.715 118.961C305.715 118.961 306.313 116.81 300.258 120.064C294.203 123.319 285.101 128.126 279.756 125.264C274.542 122.477 269.253 108.487 283.045 111.068C283.569 111.161 284.055 110.75 284.017 110.207C283.849 107.907 284.073 102.614 289.437 100.912C294.446 99.3217 297.193 101.585 298.333 102.95C298.669 103.362 299.286 103.343 299.604 102.932C301.099 100.968 305.192 96.7967 311.191 99.4339C316.143 101.622 316.91 104.671 316.816 106.56C316.798 107.177 317.414 107.589 317.975 107.327C319.489 106.635 321.918 106.261 324.254 109.197C327.488 113.237 322.871 116.754 321.488 117.67C321.264 117.82 321.115 118.063 321.115 118.344C321.096 120.438 320.778 129.622 316.181 134.803C315.788 135.252 315.041 135.121 314.817 134.56L311.284 126.124C311.116 125.732 310.686 125.526 310.275 125.657L308.724 126.181Z" fill="url(#paint10_linear)"/>
<path d="M308.648 127.902C308.648 127.902 310.816 119.092 314.087 121.954C317.376 124.815 313.227 131.1 309.471 132.297L308.648 127.902Z" fill="url(#paint11_linear)"/>
<path d="M226.886 236.44L210.87 182.965C210.215 180.777 208.272 179.243 206.01 179.075L184.369 177.597C182.163 177.448 180.537 179.599 181.266 181.675L199.17 232.736C199.75 234.382 201.226 235.542 202.964 235.71L224.269 238.086L226.886 236.44Z" fill="url(#paint12_linear)"/>
<path d="M197.337 201.09C198.533 203.503 200.608 204.924 201.953 204.251C203.299 203.577 203.43 201.071 202.234 198.658C201.038 196.245 198.963 194.824 197.618 195.497C196.253 196.171 196.141 198.677 197.337 201.09Z" fill="#91B3FA"/>
<path d="M224.267 238.105C224.304 238.105 224.342 238.105 224.379 238.105L269.775 235.804C270.896 235.748 271.756 234.794 271.7 233.672C271.643 232.55 270.69 231.671 269.569 231.746L224.174 234.046C223.052 234.102 222.193 235.056 222.249 236.178C222.286 237.263 223.183 238.105 224.267 238.105Z" fill="url(#paint13_linear)"/>
<path d="M279.158 192.112C278.99 192.112 278.84 191.981 278.84 191.794C278.803 182.199 282.503 169.518 282.541 169.387C282.597 169.219 282.765 169.125 282.933 169.181C283.101 169.237 283.195 169.406 283.139 169.574C283.101 169.705 279.438 182.311 279.476 191.794C279.476 191.981 279.345 192.112 279.158 192.112Z" fill="url(#paint14_linear)"/>
<path d="M299.809 196.769C299.735 196.769 299.679 196.751 299.622 196.695C299.492 196.582 299.454 196.395 299.566 196.246C299.66 196.115 309.528 183.565 312.91 174.998C312.966 174.83 313.153 174.755 313.321 174.83C313.49 174.886 313.564 175.073 313.49 175.241C310.07 183.882 300.164 196.508 300.052 196.639C299.996 196.732 299.903 196.769 299.809 196.769Z" fill="url(#paint15_linear)"/>
<path d="M313.789 216.071L311.995 213.528C311.901 213.378 311.92 213.191 312.069 213.098C312.219 213.004 312.406 213.023 312.499 213.172L313.994 215.305C327.992 209.17 336.664 192.392 336.739 192.224C336.813 192.074 337 191.999 337.169 192.093C337.318 192.168 337.393 192.355 337.299 192.523C337.206 192.692 328.347 209.843 313.994 215.997L313.789 216.071Z" fill="url(#paint16_linear)"/>
<path d="M579.063 208.012C579.003 208.709 579.397 209.377 580.033 209.65L598.341 217.598C599.765 226.819 602.645 235.859 607.04 244.383L596.946 261.583C596.583 262.19 596.674 262.948 597.128 263.494L612.678 281.695C613.132 282.241 613.86 282.423 614.527 282.15L633.077 274.84C640.806 280.512 649.293 284.789 658.174 287.611L663.205 306.934C663.387 307.601 663.963 308.117 664.66 308.147L688.515 309.998C689.212 310.058 689.879 309.664 690.151 309.027L698.093 290.705C707.307 289.279 716.34 286.397 724.857 281.999L742.013 292.07C742.619 292.434 743.377 292.343 743.922 291.888L762.109 276.326C762.654 275.871 762.836 275.143 762.563 274.476L755.258 255.911C760.927 248.175 765.2 239.681 768.019 230.793L787.327 225.758C787.994 225.576 788.479 224.999 788.539 224.302L790.388 200.428C790.449 199.73 790.055 199.063 789.418 198.79L771.111 190.842C769.686 181.62 766.807 172.581 762.412 164.056L772.505 146.857C772.869 146.25 772.778 145.491 772.323 144.945L756.774 126.744C756.319 126.198 755.592 126.016 754.925 126.289L736.375 133.6C728.646 127.927 720.159 123.65 711.278 120.829L706.246 101.506C706.064 100.838 705.489 100.323 704.791 100.292L680.937 98.4419C680.24 98.3813 679.573 98.7756 679.3 99.4127L671.359 117.735C662.144 119.161 653.112 122.043 644.595 126.441L627.409 116.34C626.802 115.976 626.045 116.067 625.499 116.522L607.313 132.083C606.767 132.538 606.585 133.266 606.858 133.934L614.163 152.499C608.495 160.234 604.221 168.728 601.402 177.616L582.094 182.652C581.427 182.834 580.912 183.41 580.882 184.108L579.063 208.012Z" fill="#91B3FA"/>
<path opacity="0.7" d="M684.758 181.438C689.426 181.438 693.973 182.864 697.853 185.624C708.098 192.874 710.553 207.132 703.278 217.385C699.762 222.36 694.518 225.666 688.517 226.698C682.515 227.729 676.484 226.364 671.513 222.845C666.542 219.326 663.238 214.078 662.207 208.072C661.177 202.066 662.541 196.029 666.057 191.054C669.573 186.079 674.817 182.773 680.818 181.741C682.182 181.559 683.485 181.438 684.758 181.438ZM684.667 223.968C685.789 223.968 686.91 223.877 688.032 223.664C693.215 222.785 697.762 219.903 700.793 215.626C707.067 206.737 704.976 194.421 696.095 188.112C691.79 185.078 686.577 183.895 681.394 184.775C676.211 185.655 671.664 188.536 668.633 192.814C665.602 197.121 664.42 202.339 665.299 207.526C666.178 212.713 669.058 217.264 673.331 220.297C676.696 222.724 680.636 223.968 684.667 223.968Z" fill="white"/>
<path opacity="0.7" d="M685.149 144.915C686.695 144.915 688.271 144.976 689.847 145.097C705.639 146.341 719.976 153.621 730.281 165.664C739.556 176.494 744.527 189.993 744.527 204.129C744.527 205.676 744.467 207.253 744.345 208.831C743.103 224.635 735.828 238.984 723.795 249.298C711.762 259.581 696.455 264.586 680.663 263.343C664.871 262.099 650.534 254.819 640.229 242.776C637.47 239.56 635.076 236.072 633.075 232.371L635.773 230.915C637.652 234.403 639.956 237.74 642.563 240.773C652.323 252.179 665.932 259.126 680.905 260.279C695.879 261.432 710.398 256.699 721.794 246.931C733.191 237.164 740.132 223.543 741.284 208.558C741.405 207.071 741.466 205.585 741.466 204.099C741.466 190.721 736.768 177.92 727.978 167.636C718.218 156.23 704.608 149.283 689.635 148.131C674.661 146.978 660.143 151.71 648.746 161.478C641.017 168.121 635.197 176.706 631.984 186.322L629.074 185.352C632.469 175.22 638.562 166.15 646.745 159.173C657.536 149.89 671.024 144.915 685.149 144.915Z" fill="white"/>
<path d="M444.003 143.104C443.973 143.473 444.188 143.812 444.526 143.965L454.06 148.121C454.799 152.922 456.306 157.632 458.612 162.095L453.353 171.052C453.168 171.36 453.199 171.76 453.445 172.037L461.565 181.517C461.811 181.794 462.18 181.886 462.518 181.763L472.175 177.947C476.204 180.902 480.633 183.118 485.246 184.595L487.86 194.66C487.953 194.999 488.26 195.276 488.629 195.307L501.055 196.261C501.424 196.292 501.762 196.076 501.916 195.737L506.068 186.196C510.865 185.457 515.571 183.949 520.031 181.64L528.98 186.904C529.288 187.088 529.688 187.058 529.965 186.811L539.437 178.685C539.714 178.439 539.806 178.07 539.683 177.731L535.87 168.066C538.822 164.034 541.036 159.602 542.513 154.985L552.57 152.368C552.908 152.276 553.185 151.968 553.216 151.599L554.169 139.164C554.2 138.794 553.984 138.456 553.646 138.302L544.112 134.147C543.374 129.345 541.867 124.636 539.56 120.172L544.819 111.215C545.004 110.908 544.973 110.508 544.727 110.23L536.608 100.75C536.362 100.473 535.993 100.381 535.654 100.504L525.997 104.321C521.968 101.366 517.539 99.1497 512.926 97.6722L510.312 87.6071C510.22 87.2686 509.912 86.9916 509.543 86.9608L497.118 86.0066C496.749 85.9758 496.41 86.1913 496.257 86.5298L492.105 96.0717C487.307 96.8104 482.601 98.3186 478.142 100.627L469.192 95.3637C468.884 95.179 468.485 95.2098 468.208 95.4561L458.735 103.582C458.458 103.828 458.366 104.198 458.489 104.536L462.303 114.201C459.35 118.233 457.136 122.666 455.66 127.283L445.603 129.899C445.264 129.991 444.988 130.299 444.957 130.668L444.003 143.104Z" fill="#DCE5FE"/>
<path opacity="0.7" d="M499.087 128.514C501.671 128.514 504.193 129.315 506.346 130.854C512.035 134.886 513.389 142.765 509.36 148.46C507.422 151.23 504.5 153.046 501.179 153.6C497.857 154.185 494.505 153.415 491.768 151.445C489 149.506 487.185 146.582 486.631 143.258C486.047 139.934 486.816 136.579 488.784 133.839C490.722 131.069 493.644 129.253 496.965 128.699C497.642 128.576 498.38 128.514 499.087 128.514ZM499.057 150.676C502.04 150.676 504.992 149.291 506.838 146.644C509.882 142.365 508.837 136.394 504.562 133.378C502.501 131.9 499.948 131.346 497.457 131.777C494.935 132.208 492.752 133.593 491.306 135.655C489.83 137.718 489.276 140.272 489.707 142.765C490.138 145.289 491.522 147.475 493.582 148.921C495.212 150.091 497.15 150.676 499.057 150.676Z" fill="white"/>
<path opacity="0.7" d="M499.272 109.461C500.102 109.461 500.933 109.492 501.794 109.553C510.221 110.2 517.879 114.109 523.384 120.542C528.489 126.513 530.98 133.808 530.98 141.103C530.98 150.029 527.228 158.924 519.909 165.173C506.653 176.531 486.631 174.961 475.283 161.695C475.19 161.602 475.098 161.479 475.006 161.387C473.776 159.909 472.668 158.34 471.746 156.678C471.746 156.678 471.746 156.678 471.746 156.647C471.746 156.616 471.715 156.585 471.715 156.585C471.684 156.554 471.654 156.493 471.654 156.462C471.654 156.431 471.623 156.401 471.623 156.401C471.592 156.339 471.531 156.247 471.5 156.185L474.237 154.708C475.19 156.493 476.359 158.186 477.682 159.725C484.909 168.189 496.073 171.36 506.222 168.866C510.405 167.851 514.403 165.85 517.909 162.864C524.491 157.232 527.874 149.198 527.874 141.134C527.874 134.577 525.629 127.96 521.047 122.573C510.805 110.6 492.782 109.184 480.819 119.434C476.882 122.789 473.96 127.159 472.33 132.053L469.378 131.069C471.192 125.651 474.452 120.819 478.82 117.094C484.54 112.139 491.737 109.461 499.272 109.461Z" fill="white"/>
<defs>
<linearGradient id="paint0_linear" x1="177.84" y1="23.6567" x2="580.719" y2="648.311" gradientUnits="userSpaceOnUse">
<stop stop-color="#4F52FF"/>
<stop offset="1" stop-color="#A3B9FE"/>
</linearGradient>
<linearGradient id="paint1_linear" x1="499.916" y1="479.208" x2="428.064" y2="263.826" gradientUnits="userSpaceOnUse">
<stop stop-color="#09005D"/>
<stop offset="1" stop-color="#1A0F91"/>
</linearGradient>
<linearGradient id="paint2_linear" x1="332.978" y1="466.334" x2="652.474" y2="543.986" gradientUnits="userSpaceOnUse">
<stop stop-color="#09005D"/>
<stop offset="1" stop-color="#1A0F91"/>
</linearGradient>
<linearGradient id="paint3_linear" x1="195.976" y1="252.765" x2="172.509" y2="277.254" gradientUnits="userSpaceOnUse">
<stop stop-color="#09005D"/>
<stop offset="1" stop-color="#1A0F91"/>
</linearGradient>
<linearGradient id="paint4_linear" x1="164.874" y1="314.281" x2="120.498" y2="346.824" gradientUnits="userSpaceOnUse">
<stop stop-color="#09005D"/>
<stop offset="1" stop-color="#1A0F91"/>
</linearGradient>
<linearGradient id="paint5_linear" x1="236.526" y1="193.884" x2="266.664" y2="229.695" gradientUnits="userSpaceOnUse">
<stop stop-color="#FEBBBA"/>
<stop offset="1" stop-color="#FF928E"/>
</linearGradient>
<linearGradient id="paint6_linear" x1="385.821" y1="105.683" x2="295.143" y2="200.063" gradientUnits="userSpaceOnUse">
<stop stop-color="#FF928E"/>
<stop offset="1" stop-color="#EDA85A"/>
</linearGradient>
<linearGradient id="paint7_linear" x1="271.633" y1="226.488" x2="211.386" y2="144.133" gradientUnits="userSpaceOnUse">
<stop stop-color="#FEBBBA"/>
<stop offset="1" stop-color="#FF928E"/>
</linearGradient>
<linearGradient id="paint8_linear" x1="308.454" y1="158.203" x2="306.234" y2="138.236" gradientUnits="userSpaceOnUse">
<stop stop-color="#FEBBBA"/>
<stop offset="1" stop-color="#FF928E"/>
</linearGradient>
<linearGradient id="paint9_linear" x1="296.626" y1="140.785" x2="306.411" y2="108.536" gradientUnits="userSpaceOnUse">
<stop stop-color="#FEBBBA"/>
<stop offset="1" stop-color="#FF928E"/>
</linearGradient>
<linearGradient id="paint10_linear" x1="305.444" y1="81.5625" x2="296.346" y2="133.417" gradientUnits="userSpaceOnUse">
<stop stop-color="#09005D"/>
<stop offset="1" stop-color="#1A0F91"/>
</linearGradient>
<linearGradient id="paint11_linear" x1="306.747" y1="143.856" x2="316.532" y2="111.607" gradientUnits="userSpaceOnUse">
<stop stop-color="#FEBBBA"/>
<stop offset="1" stop-color="#FF928E"/>
</linearGradient>
<linearGradient id="paint12_linear" x1="226.882" y1="207.845" x2="181.085" y2="207.845" gradientUnits="userSpaceOnUse">
<stop stop-color="#09005D"/>
<stop offset="1" stop-color="#1A0F91"/>
</linearGradient>
<linearGradient id="paint13_linear" x1="221.321" y1="227.881" x2="257.945" y2="237.91" gradientUnits="userSpaceOnUse">
<stop stop-color="#09005D"/>
<stop offset="1" stop-color="#1A0F91"/>
</linearGradient>
<linearGradient id="paint14_linear" x1="289.11" y1="54.9124" x2="274.932" y2="273.086" gradientUnits="userSpaceOnUse">
<stop stop-color="#EDA85A"/>
<stop offset="1" stop-color="#E9605A"/>
</linearGradient>
<linearGradient id="paint15_linear" x1="314.882" y1="56.5866" x2="300.704" y2="274.761" gradientUnits="userSpaceOnUse">
<stop stop-color="#EDA85A"/>
<stop offset="1" stop-color="#E9605A"/>
</linearGradient>
<linearGradient id="paint16_linear" x1="334.058" y1="57.8323" x2="319.879" y2="276.006" gradientUnits="userSpaceOnUse">
<stop stop-color="#EDA85A"/>
<stop offset="1" stop-color="#E9605A"/>
</linearGradient>
</defs>
</svg>
