<svg width="79" height="100" viewBox="0 0 79 100" fill="none" xmlns="http://www.w3.org/2000/svg">
<path d="M28.2409 22.9155C25.7254 22.9155 23.6794 25.0364 23.6794 27.6439C23.6794 30.2516 25.7254 32.3732 28.2409 32.3732C30.7565 32.3732 32.804 30.2516 32.804 27.6439C32.804 25.0364 30.7565 22.9155 28.2409 22.9155ZM28.2409 30.8108C26.5569 30.8108 25.1867 29.3902 25.1867 27.6439C25.1867 25.8984 26.5569 24.478 28.2409 24.478C29.9263 24.478 31.2967 25.8984 31.2967 27.6439C31.2967 29.3902 29.9263 30.8108 28.2409 30.8108Z" fill="#EDF4F5"/>
<path d="M56.7967 33.5538C56.3565 32.2804 55.6766 31.1207 54.7728 30.106C54.5461 29.8527 54.1898 29.7749 53.8822 29.9091L51.985 30.7507C51.346 30.2441 50.6248 29.8345 49.8579 29.5431L49.6593 27.5632C49.6238 27.2031 49.3634 26.9101 49.0205 26.8437C47.6868 26.5843 46.3355 26.5843 45.0019 26.8437C44.659 26.9101 44.3985 27.2023 44.3631 27.5625L44.163 29.5423C43.3976 29.8337 42.6748 30.2441 42.036 30.7507L41.0228 30.3005C41.2411 30.187 41.4034 29.9734 41.4413 29.7109C41.6371 28.3398 41.6371 26.949 41.4413 25.5781C41.3884 25.2119 41.0984 24.9311 40.7422 24.9022L37.9469 24.6747C37.7305 23.9011 37.4346 23.1603 37.0623 22.4608L38.8845 20.2489C39.1157 19.9674 39.1303 19.5563 38.9169 19.2586C38.1206 18.1455 37.1727 17.1629 36.0996 16.3374C35.8096 16.1162 35.4167 16.1299 35.1428 16.3718L33.01 18.2608C32.3343 17.8732 31.6189 17.5657 30.8757 17.343L30.6549 14.4454C30.6268 14.076 30.356 13.7756 30.0028 13.7213C28.6809 13.5154 27.3386 13.5154 26.0167 13.7213C25.6635 13.7756 25.3927 14.076 25.3646 14.4454L25.1438 17.343C24.4006 17.5657 23.6852 17.8732 23.0095 18.2608L20.8767 16.3718C20.6028 16.1315 20.2084 16.1177 19.9199 16.3374C18.8484 17.1615 17.9004 18.1441 17.1011 19.2579C16.8877 19.5563 16.9025 19.9674 17.135 20.2489L18.9572 22.4608C18.5834 23.1627 18.2875 23.9034 18.0726 24.6747L15.2773 24.9022C14.9212 24.9311 14.6312 25.2111 14.5782 25.5773C14.3794 26.949 14.3794 28.3398 14.5782 29.7116C14.6312 30.0779 14.9212 30.3579 15.2773 30.3868L18.0726 30.6141C18.2875 31.3855 18.5834 32.1263 18.9572 32.8282L17.135 35.0399C16.9025 35.3214 16.8877 35.7335 17.1011 36.031C17.9004 37.1449 18.8484 38.1275 19.9199 38.9522C20.2069 39.172 20.6043 39.1583 20.8767 38.918L23.0095 37.0281C23.6852 37.4156 24.4006 37.7231 25.1438 37.9459L25.3646 40.8436C25.3927 41.2128 25.6635 41.5134 26.0167 41.5676C26.6776 41.6706 27.3444 41.7217 28.0098 41.7217C28.6751 41.7217 29.3419 41.6706 30.0028 41.5676C30.356 41.5134 30.6268 41.2128 30.6549 40.8436L30.8757 37.9459C31.6189 37.7231 32.3343 37.4156 33.01 37.0281L35.1428 38.918C35.2672 39.0281 35.4207 39.0773 35.5748 39.0922C34.4282 38.8466 33.2605 38.7912 32.0973 38.9545C31.7764 38.9995 31.5219 39.2551 31.4688 39.5855L31.1494 41.5889C30.3692 41.8361 29.6245 42.21 28.9592 42.6884L27.1354 41.7301C26.8558 41.5851 26.5157 41.637 26.289 41.8643C25.3529 42.8126 24.6199 43.9235 24.1121 45.1663C23.9825 45.4829 24.0753 45.8507 24.3358 46.0627L25.9107 47.3407C25.7415 48.1288 25.6929 48.9444 25.7695 49.7455L24.0503 50.8303C23.7677 51.0088 23.6352 51.3605 23.7264 51.6902C24.0812 52.9803 24.6787 54.1705 25.5001 55.2278C25.6988 55.4834 26.0299 55.575 26.3273 55.4651L28.2512 54.7289C28.8547 55.2812 29.5479 55.7383 30.2913 56.0762L30.3723 58.0987C30.3855 58.436 30.6122 58.7243 30.9272 58.806C31.7647 59.0242 32.6169 59.1334 33.4736 59.1334C33.9329 59.1334 34.395 59.102 34.8558 59.0387C35.1767 58.9945 35.4328 58.7388 35.4859 58.4078L35.8037 56.4043C36.5854 56.1564 37.3287 55.7833 37.994 55.305L39.8178 56.2631C40.0989 56.4089 40.4374 56.3578 40.6641 56.1289C41.6003 55.1806 42.3333 54.0689 42.8411 52.8261C42.9707 52.5095 42.878 52.1417 42.6174 51.9297L41.0424 50.6525C41.2146 49.8591 41.2617 49.0535 41.1837 48.2479L42.903 47.1629C43.1856 46.9844 43.3181 46.6327 43.2268 46.303C42.9066 45.1396 42.3808 44.0651 41.6838 43.0926L42.0374 42.9356C42.6763 43.4421 43.3976 43.8526 44.163 44.1448L44.3631 46.123C44.3985 46.4824 44.659 46.7746 45.0006 46.8418C45.6672 46.9723 46.3399 47.0377 47.0111 47.0377C47.6825 47.0377 48.3552 46.9723 49.0218 46.8418C49.3634 46.7746 49.6238 46.4824 49.6593 46.1223L49.8579 44.1448C50.6233 43.8526 51.346 43.4421 51.985 42.9356L53.8822 43.777C54.1898 43.9128 54.5461 43.8349 54.7728 43.5803C55.6766 42.567 56.3565 41.4065 56.7967 40.1317C56.9174 39.7808 56.7938 39.3894 56.4979 39.1795L54.8479 38.0169C54.9671 37.2409 54.9671 36.4452 54.8479 35.6686L56.4979 34.5058C56.7953 34.2961 56.9174 33.9047 56.7967 33.5538ZM37.3662 33.1971L37.0623 32.8282C37.4346 32.1287 37.7305 31.3869 37.9469 30.6141L38.9033 30.5363C38.2556 31.3435 37.7409 32.2346 37.3662 33.1971ZM33.5914 35.4496C33.3368 35.2253 32.9687 35.1986 32.6847 35.3802C31.8515 35.9219 30.9419 36.3133 29.9807 36.5428C29.6539 36.6208 29.4139 36.9091 29.3876 37.2555L29.1741 40.0714C28.3998 40.1494 27.6197 40.1494 26.8454 40.0714L26.632 37.2555C26.6056 36.9091 26.3656 36.6208 26.0388 36.5428C25.0776 36.3133 24.168 35.9219 23.3348 35.3802C23.0508 35.1971 22.6827 35.2238 22.4282 35.4496L20.3556 37.2852C19.7565 36.7733 19.2045 36.2019 18.7085 35.5786L20.4792 33.4302C20.697 33.1661 20.7251 32.7855 20.5469 32.491C20.0245 31.6266 19.6477 30.6835 19.4254 29.6873C19.3503 29.3485 19.072 29.0998 18.7379 29.0723L16.0222 28.851C15.9456 28.0484 15.9456 27.2404 16.0222 26.4379L18.7379 26.2167C19.072 26.1892 19.3503 25.9404 19.4254 25.6017C19.6477 24.6053 20.0245 23.6623 20.5469 22.798C20.7251 22.5034 20.697 22.1227 20.4792 21.858L18.7085 19.7103C19.2045 19.0871 19.755 18.5157 20.3556 18.0036L22.4282 19.8393C22.6842 20.065 23.0537 20.0917 23.3348 19.9088C24.168 19.3671 25.0776 18.9757 26.0388 18.746C26.3656 18.6682 26.6056 18.3797 26.632 18.0335L26.8454 15.2174C27.6197 15.1396 28.3998 15.1396 29.1741 15.2174L29.3876 18.0335C29.4139 18.3797 29.6539 18.6682 29.9807 18.746C30.9419 18.9757 31.8515 19.3671 32.6847 19.9088C32.9673 20.0903 33.3353 20.0636 33.5914 19.8393L35.6639 18.0036C36.2645 18.5163 36.815 19.0871 37.3095 19.7096L35.5388 21.8588C35.3225 22.1227 35.2944 22.5034 35.4726 22.798C35.9937 23.6586 36.3705 24.6023 36.5942 25.6033C36.6692 25.9412 36.9475 26.1892 37.2816 26.2167L39.9973 26.4379C40.0724 27.2404 40.0724 28.0484 39.9973 28.851L37.2816 29.0723C36.9475 29.0998 36.6692 29.3477 36.5942 29.6857C36.3705 30.6866 35.9937 31.6304 35.4726 32.491C35.2944 32.7855 35.3225 33.1661 35.5388 33.4302L37.3095 35.5786C36.815 36.2019 36.2645 36.7733 35.6639 37.2859L33.5914 35.4496ZM36.0996 38.9522C37.1727 38.1267 38.1206 37.1441 38.9169 36.0302C39.0123 35.8971 39.0465 35.7388 39.0516 35.5821L39.1745 35.6686C39.0552 36.4452 39.0552 37.2409 39.1745 38.0169L37.5229 39.1795C37.2242 39.3894 37.102 39.7808 37.2227 40.1325C37.6077 41.2464 38.1864 42.2642 38.9253 43.1781L38.7021 43.2635C38.0971 42.7112 37.4037 42.2542 36.6618 41.917L36.5809 39.8945C36.5676 39.5572 36.3409 39.2697 36.0261 39.1872C35.8946 39.153 35.7618 39.1331 35.6297 39.1037C35.7938 39.1064 35.9597 39.0594 36.0996 38.9522ZM40.009 47.2049C39.753 47.3674 39.6176 47.6755 39.6676 47.983C39.8178 48.9032 39.7634 49.8263 39.5058 50.7266C39.4188 51.0264 39.5189 51.3506 39.756 51.5436L41.2529 52.7575C40.9188 53.4434 40.4992 54.0773 39.9988 54.6495L38.2546 53.7333C37.9955 53.5991 37.6909 53.6295 37.4655 53.8156C36.7369 54.4131 35.9023 54.8303 34.9853 55.057C34.6983 55.1279 34.479 55.3706 34.4305 55.6734L34.1272 57.5853C33.3544 57.6426 32.5801 57.599 31.8177 57.4495L31.7412 55.5208C31.7279 55.2119 31.538 54.9417 31.2569 54.8358C30.387 54.5084 29.5877 53.982 28.9429 53.3136C28.7414 53.1039 28.441 53.0367 28.1688 53.1367L26.3302 53.8401C25.9005 53.2122 25.5589 52.5355 25.3102 51.8191L26.9441 50.7875C27.2017 50.625 27.3371 50.3161 27.2855 50.0078C27.1339 49.0893 27.1884 48.1669 27.4475 47.2666C27.5344 46.9668 27.4356 46.6418 27.1972 46.4488L25.7003 45.2349C26.0345 44.5492 26.4539 43.9159 26.9544 43.3437L28.6986 44.2599C28.9548 44.392 29.2609 44.3615 29.4876 44.1776C30.2059 43.5885 31.0641 43.159 31.9664 42.9362C32.2549 42.866 32.4742 42.6228 32.5227 42.3198L32.8275 40.4072C33.6046 40.3484 34.3715 40.3942 35.1354 40.5429L35.212 42.4725C35.2252 42.7814 35.4152 43.0523 35.6963 43.1574C36.5648 43.4832 37.3641 44.0098 38.0102 44.6796C38.2133 44.8901 38.518 44.9596 38.7844 44.8565L40.6243 44.1524C41.0527 44.7787 41.3942 45.4554 41.6429 46.1741L40.009 47.2049ZM53.5275 34.6196C53.2567 34.811 53.1286 35.156 53.2051 35.4871C53.4098 36.3742 53.4098 37.3119 53.2051 38.1984C53.1286 38.5287 53.2567 38.8744 53.5275 39.0659L55.0848 40.1629C54.7979 40.8329 54.4269 41.46 53.9735 42.0375L52.166 41.2357C51.8878 41.1122 51.5669 41.1662 51.3358 41.3723C50.6455 41.9979 49.805 42.4739 48.9026 42.7493C48.5965 42.8432 48.3741 43.1201 48.3419 43.4498L48.152 45.3273C47.3925 45.4249 46.6284 45.4249 45.8689 45.3273L45.6791 43.449C45.6467 43.1193 45.4244 42.8432 45.1183 42.7493C44.216 42.4739 43.3754 41.9979 42.6851 41.3723C42.454 41.1648 42.1346 41.1122 41.855 41.2357L40.0488 42.0382C39.5955 41.4615 39.2232 40.8336 38.9347 40.1629L40.4933 39.0659C40.7657 38.8751 40.8938 38.5295 40.8173 38.1984C40.6126 37.3119 40.6126 36.3742 40.8173 35.4871C40.8938 35.156 40.7657 34.8103 40.4933 34.6196L38.9347 33.5224C39.2232 32.8526 39.597 32.2255 40.0488 31.6487L41.855 32.4505C42.1361 32.5757 42.4584 32.5199 42.6851 32.314C43.3754 31.6883 44.216 31.2123 45.1168 30.9384C45.4244 30.8454 45.6467 30.5684 45.6791 30.2388L45.8689 28.359C46.6284 28.2628 47.3925 28.2628 48.152 28.359L48.3419 30.2381C48.3741 30.5684 48.5965 30.8454 48.9041 30.9384C49.805 31.2123 50.6455 31.6883 51.3358 32.314C51.5625 32.5199 51.8847 32.5757 52.166 32.4505L53.9735 31.6487C54.4254 32.2269 54.7979 32.8541 55.0848 33.5224L53.5275 34.6196Z" fill="#EDF4F5"/>
<path d="M78.4889 51.7838C78.461 51.4283 78.3137 51.0933 78.0768 50.8355C78.0224 50.7767 72.8587 45.1706 69.6484 40.4114C71.3014 34.2355 70.6139 28.627 69.9958 25.6463C70.8892 25.5845 71.8299 25.3205 72.4789 24.6117C72.8749 24.1792 73.4755 23.217 73.0471 21.6317C68.9742 6.59719 59.9983 5.57328 57.6328 5.57328C57.621 5.57328 57.6093 5.57328 57.599 5.57328C55.6708 4.44953 47.2541 0.00609375 35.6478 0C24.0179 0.030625 0 7.73859 0 31.3706C0 44.7755 4.11412 51.6991 7.74395 57.8072C10.4656 62.3894 12.8178 66.3475 12.5823 72.2916C12.1466 83.2605 3.89768 97.4847 3.81387 97.6273C3.53261 98.1095 3.52236 98.7122 3.79021 99.2044C4.05669 99.6956 4.55862 100 5.1032 100H50.0302C50.4967 100 50.9369 99.775 51.2225 99.392C51.508 99.0091 51.6067 98.51 51.489 98.0416C50.9355 95.8497 49.9654 89.5303 52.0792 86.6464C52.8283 85.627 53.9279 85.1197 55.4456 85.0961C62.0472 84.9908 66.0686 83.8456 68.1028 81.4919C70.0576 79.2298 69.8 76.4275 69.5733 73.9556C69.488 73.0264 69.4069 72.1375 69.4408 71.3287C70.3961 70.5255 70.9363 69.6786 71.0895 68.7547C71.2557 67.7445 70.9172 66.922 70.5506 66.3109C72.2258 65.7861 72.9367 64.7781 73.2371 63.9969C73.9052 62.2612 73.2016 60.3134 72.1257 58.3741C78.6303 56.0647 78.5272 52.2477 78.4889 51.7838ZM69.4365 55.935C68.9624 56.0562 68.5738 56.4088 68.3957 56.8803C68.2162 57.3517 68.2692 57.8842 68.5371 58.3077C69.0979 59.1942 70.8024 61.8905 70.4373 62.838C70.355 63.0517 69.9958 63.25 69.4526 63.3828C68.8756 63.5231 67.5258 63.8536 67.1005 65.0528C66.7148 66.137 67.3433 67.025 67.7186 67.5561C67.8541 67.7475 68.1072 68.1047 68.1176 68.2283C68.1176 68.2283 68.0395 68.5737 67.1505 69.2025C66.8002 69.4512 66.5661 69.8411 66.5087 70.2775C66.3306 71.605 66.4543 72.95 66.572 74.2508C66.7648 76.3505 66.9312 78.1633 65.8567 79.4075C64.4627 81.0205 60.9447 81.8825 55.3984 81.9711C52.9638 82.0092 50.984 82.9736 49.6769 84.7603C47.176 88.1745 47.681 93.8805 48.177 96.875H7.69542C10.1535 92.2005 15.2332 81.5164 15.5939 72.4198C15.8676 65.5213 13.168 60.978 10.3095 56.1684C6.89023 50.4136 3.01456 43.8905 3.01456 31.3706C3.01456 10.0938 25.0055 3.15328 35.6565 3.125C35.6934 3.125 35.7302 3.125 35.767 3.125C47.7987 3.125 56.3493 8.43203 56.4347 8.48547C56.7143 8.66172 57.041 8.73719 57.3723 8.70672C57.4444 8.68922 66.2085 7.94609 70.1444 22.4762L70.1459 22.4839C69.747 22.5678 68.9537 22.5342 68.331 22.3931C67.7982 22.2656 67.2432 22.4541 66.8812 22.8738C66.5161 23.2941 66.3997 23.8869 66.5749 24.4217C66.5999 24.4966 68.9963 31.9992 66.5603 40.2261C66.4263 40.6763 66.497 41.1652 66.7502 41.5558C69.4983 45.7939 73.8391 50.718 75.3596 52.4033C75.0313 53.1769 73.8273 54.8105 69.4365 55.935Z" fill="#EDF4F5"/>
</svg>
