<svg width="95" height="90" viewBox="0 0 95 90" fill="none" xmlns="http://www.w3.org/2000/svg">
<path d="M67.1477 79.4187C66.6282 79.4187 66.1273 79.1583 65.7377 78.6612C64.9956 77.667 65.0142 76.081 65.7934 75.1342L91.693 43.2011C92.4722 42.2543 93.7153 42.2779 94.4574 43.2721C95.1995 44.2664 95.1809 45.8524 94.4017 46.7992L68.5021 78.7323C68.1125 79.182 67.6301 79.4187 67.1477 79.4187Z" fill="#EDF4F5"/>
<path d="M93.047 47.4856C92.5646 47.4856 92.0637 47.2489 91.6926 46.7755L65.7744 14.8661C64.9952 13.9192 64.9767 12.3332 65.7188 11.339C66.4609 10.3448 67.7039 10.3212 68.4831 11.268L94.3828 43.2011C95.162 44.1479 95.1806 45.7339 94.4384 46.7281C94.0674 47.2489 93.5479 47.4856 93.047 47.4856Z" fill="#EDF4F5"/>
<path d="M27.8527 79.4187C27.3703 79.4187 26.8694 79.182 26.4983 78.7086L0.598666 46.7992C-0.18055 45.8524 -0.199103 44.2664 0.543007 43.2721C1.28512 42.2779 2.52815 42.2543 3.30737 43.2011L29.207 75.1342C29.9862 76.081 30.0048 77.667 29.2627 78.6612C28.8731 79.182 28.3721 79.4187 27.8527 79.4187Z" fill="#EDF4F5"/>
<path d="M1.95302 47.4856C1.43354 47.4856 0.932615 47.2252 0.543007 46.7281C-0.199103 45.7339 -0.18055 44.1479 0.598666 43.2011L26.4983 11.268C27.2775 10.3212 28.5206 10.3448 29.2627 11.339C30.0048 12.3332 29.9862 13.9192 29.207 14.8661L3.32592 46.7991C2.93631 47.2726 2.45394 47.4856 1.95302 47.4856Z" fill="#EDF4F5"/>
<path d="M38.1864 90C38.0195 90 37.8339 89.9763 37.667 89.9053C36.628 89.5266 36.0158 88.1536 36.3126 86.828L54.921 1.82364C55.2179 0.498038 56.294 -0.283121 57.3329 0.095623C58.3719 0.474367 58.9841 1.84731 58.6873 3.17292L40.0788 88.1773C39.8376 89.2899 39.0399 90 38.1864 90Z" fill="#EDF4F5"/>
</svg>
