<svg width="77" height="101" viewBox="0 0 77 101" fill="none" xmlns="http://www.w3.org/2000/svg">
<path d="M76.4871 21.3772H72.7284C72.9292 20.8243 73.0341 20.2412 73.0388 19.653V16.2047C73.0388 14.8329 72.4938 13.5173 71.5238 12.5473C70.5538 11.5773 69.2382 11.0323 67.8664 11.0323H66.1422V7.03233C66.1422 3.4806 64.0215 0.6875 61.3319 0.6875H57.1595C54.4698 0.6875 52.3491 3.4806 52.3491 7.03233V11.0323H9.24569C7.87388 11.0323 6.55826 11.5773 5.58824 12.5473C4.61822 13.5173 4.07328 14.8329 4.07328 16.2047V19.653C4.07794 20.2412 4.18289 20.8243 4.38362 21.3772H0.625V24.8254H5.26293L13.4526 95.0151C13.6042 96.5479 14.3127 97.9719 15.4439 99.0173C16.5752 100.063 18.0505 100.657 19.5905 100.687H56.056C57.5912 100.652 59.0602 100.056 60.185 99.0103C61.3097 97.965 62.0122 96.5435 62.1595 95.0151L70.3664 24.8254H76.4871V21.3772ZM55.7974 7.03233C55.7974 5.30819 56.6767 4.13578 57.1595 4.13578H61.3319C61.8147 4.13578 62.694 5.23922 62.694 7.03233V11.0323H55.7974V7.03233ZM7.52155 16.2047C7.52155 15.7475 7.7032 15.3089 8.02654 14.9856C8.34988 14.6623 8.78842 14.4806 9.24569 14.4806H67.8664C68.3236 14.4806 68.7622 14.6623 69.0855 14.9856C69.4089 15.3089 69.5905 15.7475 69.5905 16.2047V19.653C69.5905 20.1103 69.4089 20.5488 69.0855 20.8722C68.7622 21.1955 68.3236 21.3772 67.8664 21.3772H9.24569C8.78842 21.3772 8.34988 21.1955 8.02654 20.8722C7.7032 20.5488 7.52155 20.1103 7.52155 19.653V16.2047ZM58.7457 94.6013C58.6962 95.2934 58.3954 95.9435 57.9001 96.4293C57.4047 96.9151 56.7489 97.2031 56.056 97.2392H19.5905C18.8976 97.2031 18.2418 96.9151 17.7465 96.4293C17.2511 95.9435 16.9504 95.2934 16.9009 94.6013L8.72845 24.8254H66.8836L58.7457 94.6013Z" fill="#EDF4F5"/>
<path d="M38.556 61.0324C40.602 61.0324 42.6021 60.4257 44.3033 59.289C46.0045 58.1523 47.3304 56.5367 48.1134 54.6464C48.8964 52.7561 49.1012 50.6761 48.7021 48.6694C48.3029 46.6627 47.3177 44.8195 45.8709 43.3727C44.4242 41.926 42.5809 40.9407 40.5742 40.5416C38.5675 40.1424 36.4875 40.3473 34.5972 41.1302C32.7069 41.9132 31.0913 43.2391 29.9546 44.9403C28.8179 46.6415 28.2112 48.6416 28.2112 50.6876C28.2112 53.4312 29.3011 56.0625 31.2411 58.0025C33.1811 59.9425 35.8124 61.0324 38.556 61.0324ZM38.556 43.7911C39.92 43.7911 41.2534 44.1955 42.3875 44.9533C43.5217 45.7111 44.4056 46.7882 44.9276 48.0484C45.4496 49.3086 45.5862 50.6953 45.32 52.0331C45.0539 53.3709 44.3971 54.5997 43.4326 55.5642C42.4681 56.5287 41.2393 57.1855 39.9015 57.4516C38.5637 57.7177 37.177 57.5812 35.9168 57.0592C34.6566 56.5372 33.5795 55.6533 32.8217 54.5191C32.0639 53.385 31.6595 52.0516 31.6595 50.6876C31.6595 48.8585 32.3861 47.1044 33.6794 45.811C34.9728 44.5177 36.7269 43.7911 38.556 43.7911V43.7911Z" fill="#EDF4F5"/>
</svg>
