<svg width="82" height="100" viewBox="0 0 82 100" fill="none" xmlns="http://www.w3.org/2000/svg">
<path d="M62.44 0H0.839966V100H81.1955V18.7556L62.44 0ZM62.1289 4.08889L77.1066 19.0778H62.1289V4.08889ZM3.9733 96.8778V3.12222H58.9844V22.2222H78.0622V96.8889L3.9733 96.8778Z" fill="#EDF4F5"/>
<path d="M45.9845 44.4447C45.3571 45.0671 44.8584 45.8069 44.5168 46.6219C44.1753 47.437 43.9977 48.3113 43.9941 49.195C43.9868 50.9797 44.6888 52.6943 45.9456 53.9614C47.2024 55.2286 48.9112 55.9445 50.6959 55.9518C52.4806 55.9591 54.1951 55.2571 55.4623 54.0003V54.0003C56.7294 52.7435 57.4454 51.0347 57.4527 49.25C57.46 47.4653 56.758 45.7508 55.5012 44.4836C54.2443 43.2165 52.5356 42.5005 50.7509 42.4932C48.9662 42.4859 47.2516 43.1879 45.9845 44.4447V44.4447ZM53.24 51.7892C52.7348 52.2882 52.0933 52.6267 51.3962 52.7621C50.6991 52.8974 49.9775 52.8236 49.3223 52.5498C48.667 52.276 48.1074 51.8146 47.7137 51.2235C47.3201 50.6325 47.1101 49.9382 47.1101 49.2281C47.1101 48.5179 47.3201 47.8237 47.7137 47.2326C48.1074 46.6415 48.667 46.1801 49.3223 45.9063C49.9775 45.6326 50.6991 45.5587 51.3962 45.6941C52.0933 45.8294 52.7348 46.1679 53.24 46.667C53.579 47.0018 53.8481 47.4006 54.0318 47.8402C54.2155 48.2799 54.3101 48.7516 54.3101 49.2281C54.3101 49.7045 54.2155 50.1763 54.0318 50.6159C53.8481 51.0555 53.579 51.4543 53.24 51.7892V51.7892Z" fill="#EDF4F5"/>
<path d="M67.6177 29.5665C59.3955 28.6332 51.9733 29.922 45.6955 33.3776C42.1345 35.3464 38.9274 37.8963 36.2066 40.922H22.1844C21.7457 40.9195 21.3108 41.0036 20.9047 41.1695C20.4986 41.3354 20.1292 41.5798 19.8177 41.8887L10.3622 51.1109C10.0378 51.422 9.77977 51.7955 9.60348 52.2089C9.42718 52.6223 9.3363 53.0671 9.3363 53.5165C9.3363 53.9659 9.42718 54.4107 9.60348 54.8241C9.77977 55.2375 10.0378 55.6109 10.3622 55.922L14.4955 60.0554C15.0982 60.6313 15.8882 60.9707 16.7207 61.0115C17.5533 61.0523 18.3727 60.7918 19.0288 60.2776C20.7288 58.8534 22.8568 58.0397 25.0733 57.9665C24.0733 59.9554 23.1844 61.8109 22.4733 63.3221L22.0066 64.3109L35.6733 77.9776L36.6622 77.5109C38.2177 76.7776 40.1511 75.8665 42.2177 74.822C42.1078 77.1482 41.2284 79.372 39.7177 81.1443C39.1754 81.7883 38.8969 82.6137 38.9381 83.4546C38.9793 84.2955 39.3372 85.0897 39.9399 85.6776L43.8733 89.6109C44.1841 89.9318 44.5562 90.187 44.9675 90.3612C45.3788 90.5355 45.821 90.6253 46.2677 90.6253C46.7144 90.6253 47.1566 90.5355 47.5679 90.3612C47.9793 90.187 48.3514 89.9318 48.6622 89.6109L58.1177 80.1554C58.424 79.8408 58.6651 79.4688 58.8272 79.0607C58.9892 78.6527 59.0691 78.2166 59.0622 77.7776V63.7776C62.0763 61.0545 64.6149 57.8475 66.5733 54.2887C70.0288 47.9776 71.3177 40.5998 70.3844 32.3554C70.3084 31.6455 69.993 30.9826 69.4902 30.4757C68.9873 29.9689 68.327 29.6482 67.6177 29.5665V29.5665ZM63.8511 52.7887C61.9348 56.2374 59.4304 59.3246 56.4511 61.9109L55.9288 62.3776V77.7776C55.9289 77.8127 55.9221 77.8474 55.9088 77.8798C55.8954 77.9122 55.8758 77.9417 55.8511 77.9665L46.4066 87.4109C46.3571 87.4578 46.2915 87.484 46.2233 87.484C46.1551 87.484 46.0895 87.4578 46.04 87.4109L42.1288 83.4998C42.0859 83.4528 42.0621 83.3913 42.0621 83.3276C42.0621 83.2639 42.0859 83.2025 42.1288 83.1554C43.3644 81.6396 44.2808 79.8898 44.8231 78.0109C45.3653 76.1321 45.5222 74.1631 45.2844 72.2221L45.1177 69.822L42.9955 70.9332C40.5955 72.1998 38.2399 73.3443 36.3288 74.2665L25.7622 63.6998C26.6511 61.8109 27.7622 59.522 28.9955 57.1998L30.1066 55.0665L27.6844 54.8887C27.1066 54.8887 26.5733 54.8887 26.0511 54.8887C22.7686 54.7754 19.5574 55.8617 17.0177 57.9443C16.9959 57.9682 16.9693 57.9873 16.9396 58.0004C16.91 58.0134 16.8779 58.0202 16.8455 58.0202C16.8131 58.0202 16.781 58.0134 16.7514 58.0004C16.7217 57.9873 16.6951 57.9682 16.6733 57.9443L12.5399 53.8109C12.5154 53.7871 12.4959 53.7586 12.4826 53.7271C12.4693 53.6956 12.4624 53.6618 12.4624 53.6276C12.4624 53.5934 12.4693 53.5596 12.4826 53.5281C12.4959 53.4966 12.5154 53.4681 12.5399 53.4443L21.9955 44.1998C22.0422 44.1515 22.1061 44.1236 22.1733 44.122H37.5955L38.0622 43.5998C40.6512 40.6158 43.7422 38.1076 47.1955 36.1887C52.9177 33.0554 59.7066 31.8887 67.2733 32.7443C68.1622 40.2998 67.0066 47.0554 63.8622 52.7998L63.8511 52.7887Z" fill="#EDF4F5"/>
</svg>
