<svg width="80" height="80" viewBox="0 0 80 80" fill="none" xmlns="http://www.w3.org/2000/svg">
<g clip-path="url(#clip0)">
<path d="M27.1396 79.9999H71.7905C71.7905 79.9999 58.804 69.5183 59.0338 58.1275C59.2626 51.7497 71.7905 43.7762 71.5637 26.0065C71.5637 17.1217 62.9047 2.31366 48.3244 0.491133C33.7442 -1.33139 22.8101 1.85905 18.0259 10.9717C13.2418 20.0843 12.7862 27.8301 13.2418 29.4268C13.6974 30.7937 15.0643 33.7553 15.0643 33.7553C15.0643 33.7553 7.77422 45.1461 8.22985 46.9696C8.68548 48.7912 13.6974 49.7034 13.6974 49.7034C13.6974 49.7034 14.1531 51.0703 13.2418 53.3485C12.3305 55.6256 15.0643 58.8151 15.7478 59.7263C16.4312 60.6376 14.6087 63.825 15.2921 65.6485C15.9756 67.47 18.9372 69.5234 22.3544 69.0647C25.7717 68.6081 30.328 67.6958 31.9227 67.47C35.5698 75.8982 27.1396 79.9999 27.1396 79.9999ZM49.0099 38.991C48.5553 39.2198 48.3265 39.4466 48.0987 39.4466C48.0987 39.2188 48.0987 39.2188 48.0987 38.991C48.0987 38.5364 48.3275 37.8529 47.644 36.9407C46.505 35.5738 44.4536 35.8016 43.3135 37.3953C42.8599 38.0797 42.8599 38.7632 43.0867 39.6734C43.5403 40.5847 43.998 40.8115 44.6794 41.0403C44.9072 41.0403 44.9072 41.0403 45.134 41.2692C44.9041 41.499 44.6794 41.499 44.4506 41.7248L41.4889 43.5463L39.6664 40.5857C38.983 39.4456 38.5273 38.99 37.8439 38.99C37.3883 38.99 37.1604 39.2188 36.9326 39.4456C36.7048 39.6734 36.477 40.128 36.477 40.3569C36.2492 40.8115 36.2492 40.8115 35.7935 41.0403C35.1101 41.2692 34.4266 40.8115 34.1988 40.1291C34.1988 39.9012 33.971 39.2178 34.4266 38.7632C34.6545 38.5354 34.8823 38.5354 35.1101 38.5354C35.3379 38.5354 35.3379 38.5354 35.5657 38.5354C35.7935 38.5354 36.0214 38.5354 36.2492 38.5354H36.477C36.9326 38.5354 37.1604 38.3055 37.3883 38.0797C37.6161 37.6241 37.3883 36.9407 36.9326 35.8016L35.1101 32.84L38.0717 31.0174C39.2108 30.334 39.6664 29.8794 39.6664 29.1949C39.6664 28.7393 39.4386 28.5115 39.2108 28.2837C38.983 28.0538 38.5273 27.828 38.2995 27.828C37.8439 27.6002 37.8439 27.6002 37.6161 27.1446C37.3883 26.6889 37.6161 26.4601 37.8439 26.2333C38.2995 25.5499 39.4386 25.322 39.8942 26.0055C40.122 26.4601 40.122 26.4601 40.122 26.9168C40.122 27.1456 40.122 27.6002 40.122 27.828C40.122 28.9671 41.2611 29.1949 43.0847 28.2837L46.0453 26.4601L47.8678 29.4217C48.0976 29.8763 48.3234 30.1052 48.3234 30.333C48.0946 30.333 48.0946 30.333 47.8678 30.333C47.1843 30.333 46.5009 30.333 45.8174 30.7886C44.9062 31.4721 44.6784 32.6111 45.133 33.5224C45.5876 34.8893 47.1843 35.7995 48.5482 35.1161C49.4594 34.6605 49.6873 34.2048 49.9161 33.5224C49.9161 33.2936 49.9161 33.2936 50.1459 33.0678C50.3758 33.2956 50.3758 33.5224 50.5995 33.7512L52.4231 36.7128L49.0099 38.991ZM59.9451 23.5005C59.7173 23.5005 59.7173 23.5005 59.4905 23.5005C58.806 23.5005 58.1226 23.5005 57.4391 23.9562C56.5278 24.6396 56.3 25.7777 56.7557 26.69C57.2093 28.0569 58.806 28.9681 60.1709 28.2847C61.0821 27.829 61.311 27.3734 61.5378 26.69C61.5378 26.4611 61.5378 26.4611 61.7676 26.2343C61.9975 26.4642 61.9975 26.69 62.2232 26.9188L64.0458 29.8804L61.0842 31.7019C59.9451 32.3854 59.4905 32.841 59.4905 33.5255C59.4905 33.9801 59.7203 34.2089 59.9451 34.4367C60.1739 34.6645 60.6285 34.8923 60.8563 34.8923C61.313 35.1202 61.313 35.1202 61.5408 35.5758C61.7696 36.0304 61.5408 36.2592 61.313 36.4871C60.8563 37.1715 59.7193 37.3983 59.2606 36.7169C59.0318 36.2613 59.0318 36.2613 59.0318 35.8056C59.0318 35.5768 59.0318 35.1222 59.0318 34.8944C59.0318 34.2109 58.5772 33.9831 57.8917 33.9831C57.4381 33.9831 56.9804 34.2109 56.0702 34.6666L53.1096 36.4891L51.2871 33.5275C50.6016 32.3894 50.148 31.9348 49.4645 31.9348C49.0089 31.9348 48.7801 32.1626 48.5533 32.3894C48.3244 32.6183 48.0987 33.0729 48.0987 33.3007C47.8688 33.7563 47.8688 33.7563 47.4152 33.9841C46.7318 34.212 46.0463 33.7563 45.8215 33.0729C45.8215 32.843 45.5917 32.1616 46.0493 31.7039C46.2782 31.4761 46.505 31.4761 46.7348 31.4761C46.9616 31.4761 46.9616 31.4761 47.1884 31.4761C47.4172 31.4761 47.8719 31.4761 48.0997 31.4761C48.5543 31.4761 48.7831 31.2483 49.0109 31.0205C49.2398 30.5659 49.2398 29.8814 48.5563 28.7423L46.7348 25.7828L49.6944 23.9592C50.15 23.7304 50.3799 23.5046 50.6056 23.5046C50.6056 23.7324 50.6056 23.7324 50.6056 23.9592C50.6056 24.4138 50.3788 25.0973 51.0623 26.0106C52.2004 27.3775 54.2517 27.1497 55.3908 25.555C55.8454 24.8715 55.8454 24.1881 55.6196 23.2768C55.165 22.3655 54.7084 22.1387 54.027 21.9099C53.7971 21.9099 53.7971 21.9099 53.5703 21.6821C53.8002 21.4543 54.027 21.4543 54.2548 21.2264L57.2154 19.4039L59.0389 22.3655C59.7193 23.0459 59.9451 23.2727 59.9451 23.5005ZM43.0887 12.1108C43.5423 11.8819 43.7722 11.6551 44 11.6551C44 11.8829 44 11.8829 44 12.1108C44 12.5654 43.7712 13.2498 44.4546 14.1611C45.5927 15.528 47.6451 15.0724 48.7831 13.7065C49.2377 13.023 49.2377 12.3396 49.012 11.4283C48.5573 10.5171 48.1007 10.2892 47.4193 10.0614C47.1894 10.0614 47.1894 10.0614 46.9626 9.8326C47.1925 9.60479 47.4193 9.60478 47.6481 9.37799L50.6077 7.55444L52.4322 10.516C53.1157 11.6551 53.5693 12.1108 54.2538 12.1108C54.7094 12.1108 54.9382 11.8819 55.165 11.6551C55.3949 11.4273 55.6206 10.9717 55.6206 10.7439C55.8495 10.2882 55.8495 10.2882 56.3041 10.0604C56.9875 9.83158 57.673 10.2882 57.8968 10.9717C57.8968 11.1995 58.1266 11.8829 57.67 12.3396C57.4401 12.5664 57.2133 12.5664 56.9845 12.5664C56.7567 12.5664 56.7567 12.5664 56.5299 12.5664C56.301 12.5664 55.8464 12.5664 55.6186 12.5664C55.163 12.5664 54.9352 12.7952 54.7074 13.2509C54.4785 13.7065 54.7074 14.3899 55.1609 15.528L56.9835 18.4896L54.0239 20.3132C52.8838 20.9966 52.4292 21.4512 52.4292 22.1347C52.4292 22.5903 52.658 22.8181 52.8838 23.0459C53.1137 23.2748 53.5673 23.5016 53.7951 23.5016C54.2487 23.7294 54.2487 23.7294 54.4785 24.185C54.7084 24.6406 54.4785 24.8685 54.2487 25.0963C53.7951 25.7817 52.656 26.0075 52.1973 25.3261C51.9705 24.8695 51.9705 24.8695 51.9705 24.4128C51.9705 24.184 51.9705 23.7284 51.9705 23.5016C51.9705 22.8181 51.5149 22.5903 50.8314 22.5903C50.3778 22.5903 49.9202 22.8191 49.0089 23.2737L46.0473 25.0973L44.4546 21.68C44.2248 21.2244 44 20.9956 44 20.7688C44.2278 20.7688 44.2278 20.7688 44.4546 20.7688C45.1381 20.7688 45.8225 20.7688 46.506 20.3132C47.4172 19.6297 47.6451 18.4916 47.1894 17.5794C46.7358 16.2125 45.1381 15.3012 43.7742 15.9846C42.863 16.4403 42.6341 16.8959 42.4053 17.5794C42.4053 17.8082 42.4053 17.8082 42.1775 18.035C41.9497 17.8051 41.9497 17.5783 41.7229 17.3505L39.9003 14.3889L43.0887 12.1108ZM32.6072 28.5135C32.3794 28.0579 32.1515 27.8301 32.1515 27.6022C32.3794 27.6022 32.3794 27.6022 32.6072 27.6022C33.2906 27.8301 33.9741 27.6022 34.6575 27.1466C35.5688 26.4621 35.7966 25.3241 35.341 24.4128C34.8853 23.0459 33.2906 22.1347 31.9237 22.8181C31.0125 23.2748 30.7846 23.7294 30.5568 24.4128C30.5568 24.6417 30.5568 24.6417 30.329 24.8685C30.1012 24.6406 30.1012 24.4128 29.8734 24.185L28.0509 21.2234L31.0125 19.4009C32.1515 18.7174 32.6072 18.2618 32.6072 17.5783C32.6072 17.1227 32.3794 16.8949 32.1515 16.6671C31.9237 16.4382 31.4681 16.2104 31.2403 16.2104C30.7846 15.9836 30.7846 15.9836 30.5568 15.527C30.329 15.0724 30.5568 14.8435 30.7846 14.6157C31.2403 13.9323 32.3794 13.7045 32.835 14.3879C33.0628 14.8425 33.0628 14.8425 33.0628 15.2992C33.0628 15.527 33.0628 15.9836 33.0628 16.2104C33.2906 17.3505 34.2019 17.5783 36.0244 16.6671L38.986 14.8435L40.8085 17.8051C41.492 18.9442 41.9466 19.3999 42.6301 19.3999C43.0867 19.3999 43.3135 19.171 43.5413 18.9442C43.7702 18.7164 43.9969 18.2608 43.9969 18.033C44.2248 17.5773 44.2248 17.5773 44.6804 17.3495C45.3638 17.1207 46.0473 17.5773 46.2731 18.2608C46.2731 18.4886 46.5029 19.172 46.0442 19.6287C45.8164 19.8565 45.5896 19.8565 45.3608 19.8565C45.132 19.8565 45.132 19.8565 44.9052 19.8565C44.6784 19.8565 44.2217 19.8565 43.9939 19.8565C43.5383 19.8565 43.3084 20.0843 43.0826 20.3121C42.8538 20.7667 42.8538 21.4502 43.5373 22.5893L45.3598 25.5509L42.1693 27.1456C41.7178 27.3734 41.49 27.6012 41.2601 27.6012C41.2601 27.3714 41.2601 27.3714 41.2601 27.1456C41.2601 26.69 41.49 26.0065 40.8065 25.0942C39.6654 23.7263 37.6151 23.9562 36.478 25.5488C36.0224 26.2323 36.0224 26.9157 36.2502 27.827C36.7058 28.7383 37.1615 28.9661 37.8449 29.1939C38.0727 29.1939 38.0727 29.1939 38.3005 29.4227C38.0727 29.6516 37.8449 29.6516 37.6171 29.8773L34.6555 31.6999L32.6072 28.5135Z" fill="#F2B134"/>
</g>
<defs>
<clipPath id="clip0">
<rect width="80" height="80" fill="white"/>
</clipPath>
</defs>
</svg>
