<svg width="80" height="80" viewBox="0 0 80 80" fill="none" xmlns="http://www.w3.org/2000/svg">
<g clip-path="url(#clip0)">
<path d="M25.8127 16.646C28.9494 16.646 31.4922 14.1032 31.4922 10.9665C31.4922 7.82988 28.9494 5.28711 25.8127 5.28711C22.6761 5.28711 20.1333 7.82988 20.1333 10.9665C20.1333 14.1032 22.6761 16.646 25.8127 16.646Z" fill="#F2B134"/>
<path d="M79.507 47.2259L73.0638 38.3742C72.9161 38.1712 72.7394 37.991 72.5396 37.8392L63.0632 30.6431C62.3405 30.0943 61.4219 29.9879 60.6281 30.2758C59.9312 30.344 60.2026 30.292 53.2395 32.9507C52.4153 33.2653 51.7633 33.8338 51.3364 34.5326L55.3801 33.6643L46.6401 38.0676C38.5615 33.4678 38.4705 33.2336 37.3854 33.3394C36.8699 32.9638 36.6896 32.9718 34.0972 32.3055L27.8913 30.7104L24.6744 21.4677L27.1228 25.1236L27.5477 24.0106C28.3035 22.031 27.3116 19.8136 25.332 19.0577C18.3785 16.4026 18.6399 16.4504 17.9397 16.3826C17.2678 16.1397 16.4993 16.1737 15.8239 16.5451L5.32142 22.3234C4.83262 22.5923 4.44443 23.013 4.21546 23.5216L0.227409 32.3812C-0.355916 33.6771 0.221654 35.2005 1.51752 35.7838C2.81269 36.367 4.33649 35.7901 4.92016 34.4937L8.55543 26.418L11.7648 24.652L7.07401 37.264C7.07401 37.264 6.74547 40.4267 5.08251 63.0977C4.96114 64.7486 6.20103 66.1854 7.85195 66.3068C7.86573 66.3078 7.87933 66.3075 7.89311 66.3083H2.90965C2.25152 66.3083 1.71807 66.8418 1.71807 67.4999V73.5231C1.71807 74.1812 2.25152 74.7147 2.90965 74.7147H27.6414C28.2995 74.7147 28.833 74.1812 28.833 73.5231V67.4999C28.833 66.8418 28.2995 66.3083 27.6414 66.3083H23.1793C24.7746 66.2405 26.0482 64.9296 26.0482 63.3176V49.2017C26.0482 48.6313 25.8855 48.0729 25.5793 47.5919L21.181 40.6843L22.6886 36.736C21.695 35.9096 21.1083 34.7356 21.0272 33.962L19.9317 23.4984L23.484 33.7048C23.7667 34.5166 24.4368 35.136 25.2737 35.3512C36.2071 38.1612 35.5022 38.0387 36.1189 37.9788C36.3173 38.1229 35.509 37.6519 45.2925 43.2225C46.0484 43.6529 46.9694 43.6642 47.7234 43.2844L57.3747 38.422L52.7126 42.3274L56.432 52.0681L52.5508 55.154C52.0397 55.5605 51.6752 56.1227 51.5129 56.7552L47.867 70.9632C47.4556 72.5666 48.4219 74.2 50.0252 74.6114C51.6285 75.0228 53.262 74.0565 53.6733 72.4532L57.0692 59.22L63.2486 54.3067L64.3369 53.8911L63.206 60.3284C63.0751 61.0743 63.2311 61.8419 63.643 62.4774L70.683 73.3386C71.5836 74.7281 73.4399 75.1236 74.8284 74.2234C76.2174 73.3231 76.6136 71.4671 75.7132 70.0781L69.3141 60.2055L70.8611 51.4002L67.5599 40.52L69.1256 41.709L75.346 50.2546C76.1825 51.404 77.7919 51.6569 78.9406 50.8207C80.09 49.9842 80.3434 48.3747 79.507 47.2259ZM22.9223 66.3082H8.21363C9.70743 66.2389 10.9487 65.066 11.0612 63.5372L12.8319 39.4623L13.4454 39.6966L20.0533 50.0747V63.3173C20.0535 64.9295 21.327 66.2403 22.9223 66.3082Z" fill="#F2B134"/>
<path d="M52.7583 30.5393C55.895 30.5393 58.4377 27.9965 58.4377 24.8599C58.4377 21.7232 55.895 19.1804 52.7583 19.1804C49.6216 19.1804 47.0789 21.7232 47.0789 24.8599C47.0789 27.9965 49.6216 30.5393 52.7583 30.5393Z" fill="#F2B134"/>
</g>
<defs>
<clipPath id="clip0">
<rect width="80" height="80" fill="white"/>
</clipPath>
</defs>
</svg>
