<svg width="80" height="80" viewBox="0 0 80 80" fill="none" xmlns="http://www.w3.org/2000/svg">
<g clip-path="url(#clip0)">
<path d="M40.0008 12.3079C26.5832 12.3113 15.6677 22.8676 15.6677 35.8376C15.6677 44.2561 19.0838 49.2637 21.5995 52.9538C23.1467 55.2244 24.0233 56.5759 24.0233 57.9358C24.0233 60.9877 25.659 63.8642 28.5662 66.0208C28.6394 67.8301 28.9066 72.2487 28.9066 72.2487C28.9066 72.2504 28.9066 72.2521 28.9066 72.2538C28.9542 73.5083 29.6147 76.0801 33.938 77.5167C34.4469 78.2656 35.1158 78.9311 35.926 79.4724C36.4332 79.8145 37.0324 80 37.6451 80H42.3565C42.9693 80 43.5667 79.8196 44.0756 79.4724C44.8875 78.9294 45.5581 78.2656 46.0637 77.5167C50.4261 76.0648 51.061 73.464 51.0968 72.2453C51.0968 72.2453 51.3623 67.8335 51.4355 66.0225C54.3426 63.8642 55.9801 60.9894 55.9801 57.9375C55.9801 56.5776 56.8549 55.2244 58.4174 52.9368C60.9144 49.2773 64.3373 44.2646 64.3373 35.8359C64.3356 22.8625 53.4184 12.3079 40.0008 12.3079ZM53.318 49.4884C51.5206 52.1232 49.8253 54.6116 49.8253 57.9358C49.8253 59.3962 48.5045 60.5724 47.5207 61.2515H32.4827C31.4989 60.5741 30.1781 59.3962 30.1781 57.9358C30.1781 54.6116 28.4811 52.1232 26.6632 49.4577C24.3943 46.1301 21.8208 42.3566 21.8208 35.8393C21.8208 26.2616 29.9772 18.466 40.0025 18.4626C50.0295 18.4626 58.1843 26.2565 58.1843 35.8359C58.1843 42.3668 55.6056 46.1352 53.318 49.4884Z" fill="#F2B134"/>
<path d="M40.0007 7.69175C40.8501 7.69175 41.5377 7.00411 41.5377 6.15306V1.53869C41.5377 0.689347 40.8501 0 40.0007 0C39.1514 0 38.462 0.689347 38.462 1.53869V6.15306C38.462 7.00411 39.1514 7.69175 40.0007 7.69175Z" fill="#F2B134"/>
<path d="M23.6557 10.9463C23.9417 11.4399 24.4574 11.7157 24.9902 11.7157C25.2506 11.7157 25.5161 11.6493 25.7578 11.5097C26.4948 11.0842 26.7467 10.1446 26.3212 9.40764L24.0132 5.41112C23.5877 4.67412 22.6481 4.42221 21.9111 4.84773C21.1758 5.27326 20.9239 6.21281 21.3477 6.94982L23.6557 10.9463Z" fill="#F2B134"/>
<path d="M14.769 19.8329L10.7725 17.5266C10.0355 17.101 9.09598 17.3546 8.67046 18.09C8.24664 18.8253 8.49855 19.7665 9.23385 20.192L13.2304 22.4984C13.4721 22.6379 13.7376 22.7043 13.998 22.7043C14.5308 22.7043 15.0465 22.4286 15.3324 21.935C15.7563 21.1997 15.5044 20.2584 14.769 19.8329Z" fill="#F2B134"/>
<path d="M11.5146 36.1781C11.5146 35.3287 10.8253 34.6394 9.97594 34.6394H5.36157C4.51222 34.6394 3.82288 35.3287 3.82288 36.1781C3.82288 37.0274 4.51222 37.7168 5.36157 37.7168H9.97594C10.8253 37.7168 11.5146 37.0274 11.5146 36.1781Z" fill="#F2B134"/>
<path d="M13.2303 49.8576L9.23207 52.1623C8.49676 52.5878 8.24315 53.529 8.66697 54.2626C8.95122 54.7579 9.47036 55.032 10.0014 55.032C10.2618 55.032 10.5274 54.9656 10.7691 54.826L14.7656 52.5214C15.5026 52.0959 15.7545 51.1546 15.3307 50.421C14.9068 49.6823 13.9673 49.4321 13.2303 49.8576Z" fill="#F2B134"/>
<path d="M70.7695 52.1657L66.773 49.8577C66.0343 49.4322 65.0964 49.6824 64.6709 50.4194C64.2454 51.1564 64.4956 52.0959 65.2326 52.5215L69.2291 54.8278C69.4742 54.9691 69.7363 55.0337 69.9968 55.0337C70.5295 55.0337 71.0453 54.758 71.3312 54.2661C71.7533 53.5325 71.5048 52.5878 70.7695 52.1657Z" fill="#F2B134"/>
<path d="M74.6401 34.6411L70.0292 34.6394C69.1781 34.6394 68.4905 35.3288 68.4905 36.1764C68.4905 37.0274 69.1781 37.7151 70.0258 37.7151L74.6401 37.7168C75.4878 37.7168 76.1771 37.0274 76.1771 36.1798C76.1771 35.3305 75.4912 34.6411 74.6401 34.6411Z" fill="#F2B134"/>
<path d="M66.002 22.7025C66.2642 22.7025 66.5297 22.6361 66.7697 22.4966L70.7679 20.1919C71.5049 19.7681 71.7568 18.8268 71.333 18.0915C70.9075 17.3545 69.9645 17.1026 69.2309 17.5282L65.2344 19.8328C64.4957 20.2583 64.2455 21.1996 64.6693 21.9332C64.9553 22.4268 65.4727 22.7025 66.002 22.7025Z" fill="#F2B134"/>
<path d="M54.244 11.5062C54.4857 11.6475 54.7495 11.7139 55.0116 11.7139C55.5427 11.7139 56.0584 11.4381 56.3444 10.9445L58.649 6.94973C59.0745 6.21443 58.8243 5.27317 58.0873 4.84935C57.3503 4.42212 56.4107 4.67403 55.9852 5.41274L53.6806 9.40755C53.2568 10.1412 53.5104 11.0824 54.244 11.5062Z" fill="#F2B134"/>
<path d="M37.9379 45.4698C38.1235 46.8315 38.7822 47.2076 40.0009 47.2076C41.2179 47.2076 41.8783 46.8315 42.0655 45.4698L43.5191 34.4964C43.611 33.7475 43.7029 32.9969 43.7029 32.2939V26.854C43.7029 24.4626 42.3429 23.2422 39.9992 23.2422C37.6537 23.2422 36.2937 24.4609 36.2937 26.854V32.2939C36.2937 32.9969 36.3873 33.7475 36.4809 34.4964L37.9379 45.4698Z" fill="#F2B134"/>
<path d="M40.0008 50.2507C37.8885 50.2507 36.1541 51.9869 36.1541 54.0975C36.1541 56.2081 37.8902 57.9425 40.0008 57.9425C42.1114 57.9425 43.8458 56.2081 43.8458 54.0975C43.8475 51.9869 42.1114 50.2507 40.0008 50.2507Z" fill="#F2B134"/>
</g>
<defs>
<clipPath id="clip0">
<rect width="80" height="80" fill="white"/>
</clipPath>
</defs>
</svg>
