<svg width="99" height="90" viewBox="0 0 99 90" fill="none" xmlns="http://www.w3.org/2000/svg">
<path d="M66.3308 46.9689C66.1416 47.0419 65.5297 47.3166 65.5297 47.8981C65.5297 48.36 65.9416 48.6798 66.328 48.8256C66.5634 48.9135 66.771 48.9566 66.9758 48.9566C67.475 48.9566 67.8204 48.7733 68.0204 48.6178C68.2049 48.4775 68.4295 48.2345 68.4295 47.8978C68.4295 47.5593 68.2044 47.318 68.0204 47.176C67.8232 47.0226 67.4778 46.8396 66.9758 46.8396C66.771 46.8399 66.5611 46.8827 66.3308 46.9689Z" fill="#3C9EAA"/>
<path d="M69.9197 9.3574C69.9197 4.21476 64.1573 0 57.1105 0H13.742C6.691 0 0.931396 4.2151 0.931396 9.3574V80.6405C0.931396 85.787 6.691 90 13.742 90H57.1105C64.1577 90 69.9197 85.7866 69.9197 80.6405V74.2398L64.6078 74.2436V80.6409H7.15811V9.3574H64.6083V21.5536H69.9202V9.3574H69.9197ZM27.5392 84.674C27.5392 84.0381 28.2507 83.5217 29.1137 83.5217H41.7388C42.6028 83.5217 43.3143 84.0381 43.3143 84.674V85.2517C43.3143 85.8821 42.6028 86.4019 41.7388 86.4019H29.1137C28.2507 86.4019 27.5392 85.8821 27.5392 85.2517V84.674ZM35.4248 7.20314C34.6086 7.20314 33.9466 6.71335 33.9466 6.1205C33.9466 5.52386 34.6086 5.03786 35.4248 5.03786C36.2402 5.03786 36.9083 5.52386 36.9083 6.1205C36.9083 6.71301 36.2402 7.20314 35.4248 7.20314ZM43.3143 3.02561C43.3143 3.33962 42.6028 3.59778 41.7388 3.59778H29.1137C28.2507 3.59778 27.5392 3.33962 27.5392 3.02561V2.7378C27.5392 2.42173 28.2507 2.15805 29.1137 2.15805H41.7388C42.6028 2.15805 43.3143 2.42173 43.3143 2.7378V3.02561Z" fill="#3C9EAA"/>
<path d="M70.9897 37.4376C69.7124 37.1759 68.3635 37.0281 66.9758 37.0281C66.1053 37.0281 65.2631 37.0936 64.4388 37.1946C61.3441 37.5834 58.5745 38.657 56.4446 40.2109C53.7519 42.1783 52.0916 44.8971 52.0916 47.8986C52.0916 50.9018 53.7519 53.6193 56.4446 55.5864C58.3801 56.9965 60.8326 58.0078 63.5763 58.4755C64.6719 58.6606 65.801 58.7695 66.9758 58.7695C68.23 58.7695 69.4487 58.6441 70.616 58.4272C73.2625 57.943 75.6254 56.952 77.4967 55.5867C80.1922 53.6196 81.8587 50.9022 81.8587 47.899C81.8587 44.8975 80.1922 42.1786 77.4967 40.2112C75.7155 38.9093 73.4828 37.9498 70.9897 37.4376ZM70.9897 50.6905C69.9762 51.4685 68.5555 51.9566 66.9758 51.9566C66.0544 51.9566 65.1989 51.7787 64.4388 51.4871C62.6548 50.8122 61.4234 49.4659 61.4234 47.8986C61.4234 46.3276 62.6544 44.9795 64.4388 44.3064C65.1989 44.0203 66.0544 43.839 66.9758 43.839C68.5555 43.839 69.9757 44.3288 70.9897 45.1029C71.9423 45.8323 72.5359 46.8118 72.5359 47.8986C72.5359 48.9792 71.9418 49.9612 70.9897 50.6905Z" fill="#3C9EAA"/>
<path d="M98.0571 44.723L91.3354 44.1412C90.6956 41.9046 89.4868 39.8234 87.8279 37.9721L92.021 34.0865C92.3258 33.8114 92.2923 33.3813 91.9469 33.1328L87.1885 29.6508C86.8502 29.4057 86.2614 29.3795 85.8778 29.5984L80.5589 32.6616C78.0247 31.4552 75.1782 30.5707 72.1188 30.1051L71.3229 25.1889C71.2974 25.0131 71.1719 24.8542 70.9902 24.7381C70.8161 24.624 70.5859 24.5547 70.3452 24.5547H64.4394H63.6075C63.1258 24.5547 62.6884 24.8408 62.6299 25.1886L61.8358 30.1047C58.7718 30.5704 55.9229 31.4549 53.3939 32.6612L48.0669 29.5981C47.6933 29.3792 47.1073 29.4054 46.76 29.6505L42.0025 33.1324C41.6581 33.3809 41.6175 33.8111 41.9247 34.0862L46.1202 37.9717C44.4655 39.823 43.2534 41.9045 42.6131 44.1408L35.891 44.7227C35.4097 44.7654 35.0219 45.0853 35.0219 45.4368V50.3568C35.0219 50.7067 35.4097 51.03 35.891 51.0727L42.6131 51.6528C43.2529 53.8891 44.465 55.9686 46.1202 57.8236L43.385 60.3577L41.9247 61.7096C41.6175 61.9867 41.6586 62.4165 42.0025 62.6633L45.3983 65.1447L45.462 65.195L46.76 66.1394C47.0978 66.39 47.6933 66.4141 48.0717 66.1935L49.8099 65.195L49.8915 65.1447L53.3934 63.1324C55.1495 63.9721 57.0718 64.6376 59.1021 65.1371C59.179 65.154 59.2455 65.1781 59.3172 65.1971C60.1415 65.3897 60.9762 65.5617 61.8358 65.6941L62.6299 70.6048C62.6884 70.9567 63.1263 71.2369 63.6075 71.2407L70.3448 71.2369C70.8208 71.2407 71.2663 70.9567 71.3224 70.6048L72.1184 65.6941C72.9681 65.5614 73.8051 65.3894 74.6294 65.1971C76.739 64.6976 78.7381 64.0038 80.5579 63.1324L84.1311 65.1915L85.8769 66.1939C86.2609 66.4145 86.8493 66.39 87.1876 66.1398L88.4851 65.1915L91.946 62.6633C92.2914 62.4162 92.3253 61.9864 92.0201 61.7096L87.8269 57.824C89.4859 55.9689 90.6942 53.8895 91.3345 51.6532L98.0562 51.0731C98.5327 51.0303 98.9314 50.707 98.9314 50.3572V45.4375C98.9328 45.086 98.5336 44.7661 98.0571 44.723ZM69.2237 60.8779C68.4867 60.9471 67.7365 60.994 66.9759 60.994C64.7432 60.994 62.6191 60.6835 60.6534 60.1392C53.8751 58.269 49.0521 53.5007 49.0521 47.8979C49.0521 41.2948 55.7464 35.8513 64.4389 34.9482C65.2684 34.862 66.1082 34.8041 66.9759 34.8041C68.3555 34.8041 69.6946 34.9292 70.9898 35.1426C78.9509 36.4796 84.8997 41.6767 84.8997 47.8979C84.8997 54.5668 78.0596 60.0665 69.2237 60.8779Z" fill="#E96C6C"/>
</svg>
