<svg width="99" height="90" viewBox="0 0 99 90" fill="none" xmlns="http://www.w3.org/2000/svg">
<path d="M96.1114 0H3.55801C2.05773 0 0.833984 1.16178 0.833984 2.58682V54.3644V55.5799V61.6343C0.833984 63.2307 2.05738 64.5374 3.55801 64.5374H24.513C25.2423 64.264 25.9869 63.9888 26.7485 63.7081C28.2224 63.1648 29.7452 62.605 31.2642 62.0007C34.7061 60.6386 36.7976 59.7394 38.0071 59.1908L38.0418 55.7766C37.5075 55.1457 36.8861 54.232 36.3036 52.9951H6.30736V6.43361H93.141V52.9951H63.3651C62.7836 54.2323 62.1604 55.1457 61.6296 55.7766L61.6619 59.1908C62.8686 59.7378 64.9577 60.6389 68.4027 62.0007C69.9217 62.603 71.4463 63.1644 72.9167 63.7061C73.6811 63.9885 74.4229 64.2636 75.1567 64.5371H96.112C97.6102 64.5371 98.834 63.2303 98.834 61.634V55.5796V54.3641V2.58649C98.8333 1.16178 97.6095 0 96.1114 0Z" fill="#3C9EAA"/>
<path d="M83.3035 72.4654C81.2102 69.3659 74.1832 67.4407 67.2237 64.6862C67.0957 64.6361 66.977 64.5896 66.8511 64.5376C60.2175 61.903 58.6176 60.9784 58.6176 60.9784L58.5555 54.6397C58.5555 54.6397 59.1859 54.1731 59.9239 52.9952C60.6879 51.7781 61.5578 49.8061 61.9717 46.7761C63.5983 47.2249 65.3113 44.4677 65.4015 43.0123C65.492 41.6147 65.1759 37.73 63.1878 38.1207C63.5945 35.1962 63.8883 32.5692 63.7468 31.1787C63.2291 26.0858 57.9511 20.7178 49.8338 20.7178C41.7162 20.7178 36.4378 26.0858 35.9198 31.1787C35.7779 32.5695 36.0732 35.1962 36.4798 38.1207C34.491 37.73 34.1746 41.6147 34.2651 43.0123C34.3574 44.4677 36.0673 47.2249 37.7004 46.7761C38.1109 49.8061 38.9821 51.7781 39.7448 52.9952C40.4828 54.1731 41.1142 54.6397 41.1142 54.6397L41.05 60.9784C41.05 60.9784 39.4481 61.903 32.8155 64.5376C32.6875 64.5896 32.5709 64.6361 32.4411 64.6862C25.4848 67.4407 18.4567 69.3659 16.3652 72.4654C14.4905 75.24 15.0533 84.7 15.0533 84.7H49.8342H84.6133C84.6133 84.7 85.1781 75.24 83.3035 72.4654Z" fill="#E96C6C"/>
<path d="M13.4407 17.0188L17.342 20.7216L13.4407 24.4263L15.1162 26.0175L20.6936 20.7216L15.1162 15.427L13.4407 17.0188Z" fill="#3C9EAA"/>
<path d="M30.8643 18.4729H23.7563V20.7217H30.8643V18.4729Z" fill="#3C9EAA"/>
<path d="M90.9478 90H8.57925C8.57925 90 5.98916 75.5974 8.57925 73.2323C21.5197 61.4145 76.3874 62.487 90.9478 73.2323C93.8598 75.3829 90.9478 90 90.9478 90Z" fill="#3C9EAA"/>
</svg>
