<svg width="135" height="158" viewBox="0 0 135 158" fill="none" xmlns="http://www.w3.org/2000/svg">
<path d="M68.8721 13.7089C68.1884 13.1762 67.2288 13.1779 66.5434 13.7129C60.367 18.5339 55.2836 24.7987 51.8403 31.8312C48.3966 38.8645 46.5687 46.7156 46.5547 54.5355L46.5229 72.3806L35.2785 86.9411C35.0221 87.2731 34.8829 87.68 34.882 88.0986L34.8376 112.934C34.8364 113.637 35.2249 114.282 35.8468 114.608C36.4683 114.934 37.221 114.888 37.801 114.489L48.9429 106.819L52.6327 106.813L50.8211 112.87C50.6496 113.444 50.7586 114.063 51.1151 114.542C51.4717 115.02 52.0336 115.302 52.6313 115.301L82.4206 115.247C82.9265 115.246 83.4074 115.044 83.7606 114.69C83.8246 114.626 83.8847 114.557 83.9399 114.483C84.2981 114.004 84.4093 113.383 84.2399 112.811L82.45 106.759L86.1399 106.753L97.2545 114.383C97.8334 114.78 98.5856 114.823 99.2084 114.495C99.3796 114.404 99.5331 114.29 99.6662 114.157C100.017 113.807 100.222 113.327 100.223 112.817L100.268 87.9813C100.268 87.5629 100.131 87.1563 99.8755 86.8254L88.683 72.3046L88.7147 54.4593C88.7287 46.6394 86.929 38.795 83.5104 31.774C80.092 24.7539 75.0298 18.5068 68.8721 13.7089ZM46.4671 103.934L38.6315 109.328L38.6679 88.7375L46.5122 78.5799L46.4671 103.934ZM79.8895 111.465L55.1769 111.51L56.5835 106.806L78.4996 106.767L79.8895 111.465ZM96.4796 88.6343L96.4429 109.225L88.6265 103.86L88.6718 78.5048L96.4796 88.6343ZM84.928 54.467L84.8414 102.969L50.2551 103.03L50.3415 54.5286C50.3539 47.4814 51.9601 40.4094 54.9832 34.0313C58.7072 36.5411 63.1283 37.9031 67.6645 37.8948C72.2006 37.8869 76.6264 36.5093 80.3598 33.9862C83.3596 40.3533 84.9404 47.4199 84.928 54.467ZM78.5993 30.6108C75.4185 32.8675 71.594 34.1011 67.6712 34.1083C63.7484 34.1154 59.9283 32.8952 56.7556 30.6498C59.5995 25.7178 63.3276 21.2777 67.7006 17.6352C72.0609 21.2619 75.773 25.689 78.5993 30.6108Z" fill="#3C9EAA"/>
<path d="M56.1333 62.9377C56.1222 69.2715 61.2657 74.415 67.5995 74.4039C70.7666 74.3982 73.6401 73.1049 75.724 71.021C77.8072 68.9378 79.101 66.0631 79.1067 62.8967L79.1069 62.8965C79.1182 56.5629 73.9745 51.4192 67.6405 51.4305C61.3067 51.442 56.1448 56.6043 56.1333 62.9377ZM75.3199 62.9032C75.3122 67.1495 71.8514 70.6095 67.6063 70.6169C63.3604 70.6247 59.9123 67.1766 59.9201 62.9307C59.9237 60.8081 60.7909 58.8816 62.1876 57.485C63.5845 56.0881 65.5109 55.2212 67.6334 55.2174C71.8793 55.2097 75.3273 58.6577 75.3199 62.9032Z" fill="#3C9EAA"/>
<path d="M67.7829 118.689C66.5595 118.678 65.5769 119.661 65.5878 120.884L65.826 147.755C65.8368 148.978 66.8372 149.979 68.0601 149.989C68.6717 149.995 69.2235 149.752 69.6206 149.355C70.0177 148.957 70.2609 148.406 70.2554 147.794L70.017 120.923C70.0062 119.7 69.0058 118.7 67.7829 118.689Z" fill="#3C9EAA"/>
<path d="M73.1973 120.44L73.1788 130.79C73.1769 131.836 74.0232 132.682 75.0687 132.68C75.5916 132.679 76.0655 132.466 76.4087 132.123C76.7519 131.78 76.9648 131.306 76.9657 130.783L76.9842 120.432C76.9861 119.387 76.1399 118.54 75.0943 118.543C74.0484 118.545 73.1993 119.394 73.1973 120.44Z" fill="#3C9EAA"/>
<path d="M73.7262 134.967C73.1651 135.528 73.0135 136.401 73.3495 137.116C73.6909 137.843 74.4838 138.277 75.2812 138.184C76.0966 138.088 76.7813 137.443 76.925 136.635C77.0783 135.772 76.6036 134.885 75.7889 134.555C75.0954 134.259 74.2584 134.435 73.7262 134.967Z" fill="#3C9EAA"/>
<path d="M75.7887 134.554C75.902 134.6 75.6773 134.507 75.7887 134.554V134.554Z" fill="#3C9EAA"/>
<path d="M73.159 141.987L73.1564 143.412C73.1544 144.458 74.0006 145.305 75.0463 145.303C75.5692 145.302 76.043 145.089 76.3864 144.746C76.7295 144.402 76.9424 143.929 76.9434 143.406L76.9459 141.981C76.948 140.935 76.1017 140.089 75.0562 140.091C74.0107 140.093 73.1607 140.942 73.159 141.987Z" fill="#3C9EAA"/>
<path d="M60.4292 131.192C59.3833 131.194 58.5342 132.043 58.5324 133.088L58.5139 143.439C58.512 144.485 59.3582 145.331 60.4038 145.329C60.9267 145.328 61.4006 145.115 61.7438 144.772C62.087 144.429 62.2999 143.955 62.3008 143.432L62.3193 133.081C62.3212 132.036 61.4749 131.19 60.4292 131.192Z" fill="#3C9EAA"/>
<path d="M62.057 128.538C62.4649 127.858 62.4008 126.977 61.9015 126.364C61.4127 125.764 60.5788 125.531 59.8456 125.773C59.067 126.03 58.5271 126.787 58.5436 127.607C58.5613 128.485 59.1965 129.245 60.0547 129.423C60.0279 129.418 60.0079 129.414 60.0625 129.426C60.118 129.436 60.0984 129.432 60.0718 129.427C60.8452 129.568 61.6492 129.219 62.057 128.538Z" fill="#3C9EAA"/>
<path d="M62.3394 121.884L62.3418 120.459C62.3437 119.413 61.4974 118.567 60.4517 118.569C59.4053 118.571 58.5562 119.421 58.5552 120.466L58.5528 121.891C58.551 122.937 59.3972 123.783 60.4429 123.781C60.9658 123.78 61.4394 123.567 61.7826 123.224C62.1258 122.88 62.3387 122.407 62.3394 121.884Z" fill="#3C9EAA"/>
</svg>
