<svg width="80" height="80" viewBox="0 0 80 80" fill="none" xmlns="http://www.w3.org/2000/svg">
<path d="M70.7214 12.3077C65.2069 12.3077 60.7214 7.82166 60.7214 2.30774C60.7214 1.03333 59.6881 0 58.4137 0H21.4905C20.2161 0 19.1827 1.03333 19.1827 2.30774C19.1827 7.82166 14.6967 12.3077 9.18274 12.3077C7.90833 12.3077 6.875 13.3411 6.875 14.6155V53.1696C6.875 59.1919 10.1874 64.6722 15.52 67.4719L38.8794 79.7357C39.2151 79.9121 39.5837 80 39.9518 80C40.3204 80 40.6891 79.9121 41.0248 79.7357L64.3842 67.4719C69.7162 64.6722 73.0286 59.1919 73.0286 53.1696V14.6155C73.0286 13.3411 71.9958 12.3077 70.7214 12.3077ZM68.4137 53.1696C68.4137 57.4713 66.0474 61.3861 62.2382 63.3856L39.9518 75.0861L17.6654 63.3856C13.8568 61.3861 11.4905 57.4713 11.4905 53.1696V16.7413C17.7051 15.7513 22.6263 10.8301 23.6163 4.61548H56.2878C57.2778 10.8301 62.1991 15.7513 68.4131 16.7413V53.1696H68.4137Z" fill="#F2B134"/>
<path d="M53.3459 10.5463C52.9633 9.74243 52.1527 9.23096 51.2628 9.23096H28.6414C27.7515 9.23096 26.9403 9.74243 26.5582 10.5463C24.657 14.5374 21.4124 17.782 17.4213 19.6826C16.618 20.0653 16.106 20.8759 16.106 21.7664V53.1689C16.106 55.7501 17.5256 58.0994 19.8108 59.2987L38.8794 69.3097C39.2151 69.4861 39.5837 69.5746 39.9524 69.5746C40.3204 69.5746 40.6891 69.4861 41.0248 69.3097L60.0934 59.2987C62.3785 58.0994 63.7982 55.7507 63.7982 53.1696V21.7664C63.7982 20.8759 63.2861 20.0653 62.4823 19.6832C58.4918 17.782 55.2466 14.5374 53.3459 10.5463ZM59.1827 53.1696C59.1827 54.0295 58.7097 54.8126 57.948 55.2124L39.9518 64.66L21.9562 55.2124C21.1945 54.8126 20.7214 54.0295 20.7214 53.1689V23.172C24.6313 21.001 27.876 17.7563 30.047 13.8464H49.8566C52.0276 17.7563 55.2722 21.001 59.1827 23.172V53.1696Z" fill="#F2B134"/>
<path d="M37.644 33.0767H46.106C47.3804 33.0767 48.4137 32.0433 48.4137 30.7689C48.4137 29.4945 47.3804 28.4612 46.106 28.4612H42.2595V24.6154C42.2595 23.3409 41.2262 22.3076 39.9518 22.3076C38.6774 22.3076 37.644 23.3409 37.644 24.6154V28.4612C34.2511 28.4612 31.4905 31.2218 31.4905 34.6154C31.4905 38.0083 34.2511 40.7689 37.644 40.7689H42.2595C43.1079 40.7689 43.7982 41.4592 43.7982 42.3076C43.7982 43.156 43.1079 43.8463 42.2595 43.8463H33.7982C32.5238 43.8463 31.4905 44.879 31.4905 46.1534C31.4905 47.4285 32.5238 48.4612 33.7982 48.4612H37.644V52.3076C37.644 53.582 38.6774 54.6153 39.9518 54.6153C41.2262 54.6153 42.2595 53.582 42.2595 52.3076V48.4612C45.6531 48.4612 48.4137 45.7006 48.4137 42.3076C48.4137 38.9141 45.6531 36.1534 42.2595 36.1534H37.644C36.7957 36.1534 36.106 35.4637 36.106 34.6154C36.106 33.767 36.7957 33.0767 37.644 33.0767Z" fill="#F2B134"/>
</svg>
