<svg width="98" height="85" viewBox="0 0 98 85" fill="none" xmlns="http://www.w3.org/2000/svg">
<path d="M31.7268 47.1558L32.5114 44.1201L33.2922 47.1558H31.7268ZM65.2155 30.4244H63.7185L64.0784 30.8156H65.575L65.2155 30.4244ZM62.7042 30.8156V30.2252L60.5585 27.8974L58.9543 29.6443L57.8807 30.8153H62.0494H62.7042V30.8156ZM70.6359 30.8156L71.1722 30.2378H73.421L72.0027 28.694H69.8704L67.9179 30.8156H68.9171H70.6359ZM13.2481 30.8156H11.3359C16.0236 13.0314 31.091 0 49.0067 0C66.9089 0 81.9768 13.0318 86.6623 30.8156H85.533C83.6226 23.8192 80.0798 17.5785 75.3444 12.6643H70.5668L70.3332 13.9569L69.2575 14.7286L66.9971 14.986L67.1118 13.4337L65.0888 13.0502L65.4487 11.5002L62.344 12.2785L60.6827 15.3799L57.808 17.71L57.584 20.6688L60.4417 21.4447L62.1091 22.2249L62.9456 21.3205V16.4113H64.0191V18.8676H66.0389V21.4444H64.138V23.2494H59.3738V25.0629H57.808L55.6775 22.7393V21.187H53.1796V23.7764V25.0629L52.5118 25.7684L53.7656 27.1295L55.324 25.4487L56.503 26.7371L55.8465 27.453V28.424H54.8378V30.8153H42.9057L42.5077 32.6482L42.144 30.8153H36.5341L37.7417 29.5196L38.2815 30.0986L39.5869 28.6813H37.5635V27.5153H38.9952V25.7122H40.4251V21.3201H37.089V20.538H33.8616V26.8721L32.679 27.258L31.7162 24.8013L28.868 22.6146L27.1972 20.1621L30.0527 20.5376L31.0138 18.8672L30.1734 17.8236L29.8174 16.531L33.3987 16.282L33.8616 13.5642L21.9274 13.4441C18.1376 17.5769 15.1648 22.5813 13.2491 28.1459V30.8156H13.2481ZM44.9586 18.868L46.8631 20.9346L49.1235 18.4802L53.4608 13.7623L55.2601 11.8222H57.3427V7.10809V3.75118H54.6035V1.62262C52.7774 1.32586 50.9055 1.16601 49.0067 1.16601C48.5607 1.16601 48.1339 1.19507 47.713 1.21189L47.575 1.55417V4.7887H45.1901V11.1105H45.5482H46.8631V13.5649H44.9586V18.868V18.868ZM26.1088 9.4795L27.0811 10.5315H30.5936L32.0789 8.91313V6.72414H33.6235V10.4608H36.014V18.214H39.4673V7.48937H37.9283H34.944V5.17609H37.088L38.3436 3.81696L37.6373 3.05365C33.4301 4.47511 29.5429 6.67251 26.1088 9.4795ZM81.8829 54.3469L80.9607 58.4342H75.0918V61.6168H72.4201V67.1083L70.3336 69.362H65.4279V64.4819L62.7808 61.6168V54.5209L61.7665 58.4338H50.081V63.0359H46.8634L45.1904 65.6253V71.4309L40.302 75.3063V82.2798L34.8219 76.8666V62.642L29.1965 56.9263L28.8063 58.4346H16.8738L15.9608 54.3511L15.0403 58.4346H12.6744C18.4911 74.0038 32.552 85 49.007 85C65.4508 85 79.51 74.0038 85.3245 58.4346H82.796L81.8829 54.3469Z" fill="#3C9EAA"/>
<path d="M31.1507 37.5856L32.0771 34.0034H29.4301H28.9058H25.4106L23.642 42.1605C23.443 43.0213 23.2592 44.1648 23.0944 45.5817C22.9279 47.0008 22.8111 48.1856 22.7406 49.1359H22.6679C22.6566 49.1271 22.6432 49.1172 22.6298 49.1068C22.4883 47.5714 22.1475 45.4302 21.6095 42.6833L19.9118 34.0034H12.2729L11.9783 35.3675L10.4165 42.5731C9.80403 45.7973 9.47874 47.9863 9.44416 49.1359H9.33691C9.25471 47.285 8.95412 44.9614 8.43515 42.1605L6.80838 34.0034H0L5.46455 55.2482H12.7323L14.7651 46.2314C14.92 45.5342 15.1825 44.0829 15.5519 41.8878C15.6687 41.1991 15.7946 40.4438 15.9326 39.6097H16.0398L16.3919 42.0664L16.6025 43.2691L16.9239 45.1239L19.1864 55.2489H26.5784L27.3496 52.2718L30.7492 39.1325L31.1507 37.5856Z" fill="#E96C6C"/>
<path d="M63.7108 39.1307L65.0395 34.0028H62.3903H62.3652H58.3708L56.6022 42.1599C56.4032 43.0207 56.2194 44.1642 56.0546 45.581C55.8899 47.0002 55.7731 48.185 55.7026 49.1353H55.5949C55.4535 47.5957 55.1109 45.446 54.5711 42.6827L52.8734 34.0028H49.7938H45.2342L43.3756 42.5729C42.8207 45.4984 42.5028 47.5605 42.4245 48.7785C42.4167 48.9028 42.4072 49.0293 42.4051 49.1357H42.2961C42.2922 49.0523 42.2827 48.9548 42.2788 48.8703C42.1811 47.061 41.8903 44.8346 41.3964 42.1603L39.7693 34.0032H35.608H32.9588L34.2797 39.1353L34.5838 40.317L34.6872 40.7204L38.1231 54.0781L38.4255 55.2483H39.6409H40.1136H45.6914L47.726 46.2315C47.9039 45.4162 48.2334 43.5706 48.7118 40.7044C48.7693 40.3537 48.8286 39.9927 48.8935 39.6099H48.9993L49.1563 40.7044L49.3535 42.0666L49.8838 45.1237L52.146 55.2487H59.5382L63.3682 40.4554L63.7108 39.1307Z" fill="#E96C6C"/>
<path d="M91.3328 34.0024L89.5642 42.1595C89.3634 43.0204 89.1792 44.1638 89.0166 45.5807C88.8501 46.9999 88.7333 48.1846 88.6624 49.1349H88.5551C88.4137 47.5953 88.0711 45.4457 87.5313 42.6823L85.8851 34.269L85.8336 34.0024H78.1947L76.3362 42.5725C75.7929 45.4338 75.4768 47.4752 75.3886 48.7035C75.3773 48.8569 75.3695 49.0064 75.366 49.1353H75.2566C75.2527 49.0397 75.2432 48.9234 75.2354 48.8259C75.1359 47.027 74.8488 44.8132 74.357 42.1595L73.8479 39.6053L72.7302 34.0024H68.571H65.9218L67.2402 39.1346L68.9076 45.6078L70.5538 52.0169L71.3864 55.2472H78.6523L80.6869 46.2304C80.8231 45.6143 81.0468 44.3963 81.3534 42.6047C81.5005 41.7385 81.6653 40.7499 81.8547 39.6088H81.9602L82.2202 41.4096L82.3141 42.0651L82.8443 45.1222L85.109 55.2472H92.4991L98 34.0024H91.3328V34.0024Z" fill="#E96C6C"/>
</svg>
