<svg width="98" height="85" viewBox="0 0 98 85" fill="none" xmlns="http://www.w3.org/2000/svg">
<path d="M65.0025 80.3664H35.0592V74.7051H65.0025V80.3664ZM35.1368 81.1062L33.8351 84.1178C33.8351 84.1178 33.9707 85 34.515 85C35.0592 85 65.2777 85 65.8202 85C66.3663 85 66.3663 84.1178 66.3663 84.1178L65.0642 81.1062H35.1368ZM98 2.93828V61.7598V63.1407V70.02C98 71.8311 96.7759 73.3194 95.2787 73.3194H2.72355C1.22415 73.3194 0 71.8311 0 70.02V63.1407V61.7598V2.93828C0 1.32066 1.22415 0 2.72355 0H95.2787C96.7759 0 98 1.32066 98 2.93828ZM92.3078 7.30903H5.47319V60.2024H92.3078V7.30903Z" fill="#3C9EAA"/>
<path d="M69.76 13.6923H28.7245V17.9477H69.76V13.6923Z" fill="#E96C6C"/>
<path d="M85.1489 23.1139H13.3364V26.8392H85.1489V23.1139Z" fill="#3C9EAA"/>
<path d="M34.4571 32.0046H13.3364V54.7318H34.4571V32.0046Z" fill="#E96C6C"/>
<path d="M59.8016 32.0046H38.6809V54.7318H59.8016V32.0046Z" fill="#E96C6C"/>
<path d="M85.1486 32.0046H64.0276V54.7318H85.1486V32.0046Z" fill="#E96C6C"/>
</svg>
