<svg width="0" height="0" class="hidden">
  <symbol xmlns="http://www.w3.org/2000/svg" xmlns:xlink="http://www.w3.org/1999/xlink" viewBox="0 0 50 50" id="google-plus">
    <defs>
      <rect id="a" width="50" height="50" rx="2"></rect>
    </defs>
    <g fill-rule="evenodd">
      <mask id="b">
        <use xlink:href="#a"></use>
      </mask>
      <g mask="url(#b)">
        <path fill-rule="nonzero" d="M41.875-2H8.125C2.533-2-2 2.533-2 8.125v33.75C-2 47.467 2.533 52 8.125 52h33.75C47.467 52 52 47.467 52 41.875V8.125C52 2.533 47.467-2 41.875-2zM17.467 43.168c-5.977 0-11.02-2.434-11.02-6.322 0-3.945 4.6-7.755 10.578-7.752l1.866-.017c-.816-.793-1.464-1.768-1.464-2.973 0-.716.23-1.401.546-2.012l-.995.034c-4.91 0-8.198-3.493-8.198-7.823 0-4.236 4.54-7.891 9.366-7.891h10.766l-2.417 1.741h-3.412c2.265.871 3.47 3.51 3.47 6.217 0 2.272-1.26 4.229-3.038 5.62-1.738 1.36-2.065 1.927-2.065 3.08 0 .986 1.863 2.66 2.835 3.352 2.845 2.012 3.76 3.878 3.76 6.993 0 3.888-3.764 7.753-10.578 7.753zM45.25 21.689H38.5v6.74h-3.372v-6.74h-6.753V18.25h6.753V11.5H38.5v6.75h6.75v3.44z"></path>
        <path d="M22.925 17.599c-.47-3.612-3.057-6.514-5.777-6.597-2.72-.08-4.545 2.683-4.074 6.302.47 3.615 3.057 6.614 5.78 6.694 2.716.084 4.545-2.78 4.071-6.4zm-1.376 13.82a9.375 9.375 0 0 0-2.69-.418C14.713 30.958 11 33.439 11 36.423 11 39.47 13.995 42 18.14 42c5.83 0 7.86-2.38 7.86-5.42 0-.366-.05-.725-.132-1.075-.454-1.726-2.07-2.58-4.32-4.086z"></path>
      </g>
    </g>
  </symbol>
  <symbol xmlns="http://www.w3.org/2000/svg" xmlns:xlink="http://www.w3.org/1999/xlink" viewBox="0 0 50 50" id="linkedin">
    <defs>
      <rect id="a" width="50" height="50" rx="2"></rect>
    </defs>
    <g fill-rule="evenodd">
      <mask id="b">
        <use xlink:href="#a"></use>
      </mask>
      <g mask="url(#b)">
        <path d="M27.077 22.456v-.073c-.015.024-.036.049-.049.073h.049z"></path>
        <path fill-rule="nonzero" d="M0 0v50h50V0H0zm15.552 41.539H8.134V19.22h7.418v22.32zm-3.71-25.365h-.048c-2.489 0-4.102-1.714-4.102-3.857 0-2.19 1.66-3.856 4.2-3.856 2.539 0 4.1 1.666 4.148 3.856 0 2.143-1.61 3.857-4.197 3.857zM42.309 41.54h-7.42V29.6c0-3-1.073-5.047-3.758-5.047-2.051 0-3.27 1.379-3.807 2.714-.195.477-.246 1.14-.246 1.808V41.54h-7.422s.1-20.225 0-22.318h7.422v3.162c.986-1.517 2.746-3.686 6.687-3.686 4.884 0 8.544 3.189 8.544 10.043V41.54z"></path>
      </g>
    </g>
  </symbol>
  <symbol xmlns="http://www.w3.org/2000/svg" xmlns:xlink="http://www.w3.org/1999/xlink" viewBox="0 0 50 50" id="pinterest">
    <defs>
      <rect id="a" width="50" height="50" rx="2"></rect>
    </defs>
    <g fill-rule="evenodd">
      <mask id="b">
        <use xlink:href="#a"></use>
      </mask>
      <g fill-rule="nonzero" mask="url(#b)">
        <path d="M45.7-2H3.3C.385-2-2 .385-2 3.3v42.4C-2 48.615.385 51 3.3 51h42.4c2.915 0 5.3-2.385 5.3-5.3V3.3C51 .385 48.615-2 45.7-2zM27.15 35.63c-2.12 0-4.24-.795-5.565-2.385l-2.65 8.48-.265.53c-.53.795-1.325 1.325-2.385 1.325-1.59 0-2.915-1.325-2.915-2.915V40.4l.265-.53 4.77-14.84s-.53-1.59-.53-3.975c0-4.505 2.385-5.83 4.505-5.83 1.855 0 3.71.795 3.71 3.445 0 3.445-2.385 5.3-2.385 7.95 0 1.855 1.59 3.445 3.445 3.445 6.095 0 8.48-4.77 8.48-9.01 0-5.83-5.035-10.6-11.13-10.6-6.095 0-11.13 4.77-11.13 10.6 0 1.855.53 3.445 1.325 5.035.265.53.265.795.265 1.325 0 1.59-1.06 2.65-2.65 2.65-1.06 0-1.855-.53-2.385-1.325-1.325-2.385-2.12-5.035-2.12-7.95 0-8.745 7.42-15.9 16.43-15.9s16.43 7.155 16.43 15.9c.265 7.42-3.975 14.84-13.515 14.84z"></path>
      </g>
    </g>
  </symbol>
  <symbol xmlns="http://www.w3.org/2000/svg" xmlns:xlink="http://www.w3.org/1999/xlink" viewBox="0 0 50 50" id="facebook">
    <defs>
      <rect id="a" width="50" height="50" rx="2"></rect>
    </defs>
    <g fill-rule="evenodd">
      <mask id="b">
        <use xlink:href="#a"></use>
      </mask>
      <g fill-rule="nonzero" mask="url(#b)">
        <path d="M-1.822-.911V50.91H50V-.91H-1.822zM32.46 13.35h-4.05c-.802 0-1.612.83-1.612 1.446v4.13h5.655a78.296 78.296 0 0 1-.695 6.064h-4.989v17.948h-7.433v-17.95h-3.619v-6.04h3.619V14.01c0-.903-.183-6.948 7.616-6.948h5.509v6.288z"></path>
      </g>
    </g>
  </symbol>
  <symbol xmlns="http://www.w3.org/2000/svg" xmlns:xlink="http://www.w3.org/1999/xlink" viewBox="0 0 50 50" id="github">
    <defs>
      <rect id="a" width="50" height="50" rx="2"></rect>
    </defs>
    <g fill-rule="evenodd">
      <mask id="b" fill="#fff">
        <use xlink:href="#a"></use>
      </mask>
      <g mask="url(#b)">
        <path d="M17.356 41.81c-.375.065-.539.23-.492.492.047.262.258.35.632.262.375-.087.539-.24.492-.46-.047-.24-.258-.338-.632-.294zm-2.111.34c-.369 0-.553.13-.553.39 0 .307.196.436.587.39.368 0 .552-.13.552-.39 0-.306-.195-.437-.586-.39zm-2.69-.285c-.092.267.057.448.445.546.343.144.56.072.651-.219.069-.266-.08-.46-.445-.581-.343-.097-.56-.013-.651.254z"></path>
        <path d="M49.587.527c-2.022-2.022-4.456-3.033-7.303-3.033H7.83C4.983-2.506 2.55-1.495.527.527-1.495 2.548-2.506 4.983-2.506 7.83v34.454c0 2.847 1.011 5.281 3.033 7.303 2.021 2.022 4.456 3.033 7.303 3.033h8.04c.525 0 .92-.019 1.183-.054.263-.036.526-.192.79-.467.263-.275.394-.676.394-1.202l-.018-2.44a495.912 495.912 0 0 1-.018-3.698l-.825.144c-.527.096-1.19.138-1.992.126a15.326 15.326 0 0 1-2.494-.251 5.591 5.591 0 0 1-2.405-1.077 4.555 4.555 0 0 1-1.579-2.207l-.359-.826c-.239-.55-.616-1.16-1.13-1.83-.515-.67-1.035-1.124-1.561-1.364l-.251-.18a2.64 2.64 0 0 1-.467-.43 1.994 1.994 0 0 1-.323-.503c-.072-.167-.012-.305.18-.413.191-.107.538-.16 1.04-.16l.718.107c.479.095 1.07.382 1.777.86a5.792 5.792 0 0 1 1.74 1.867c.55.98 1.214 1.728 1.992 2.243.777.515 1.561.772 2.35.772.79 0 1.472-.06 2.046-.18a7.16 7.16 0 0 0 1.615-.538c.216-1.603.802-2.836 1.759-3.697-1.364-.144-2.59-.359-3.68-.646-1.088-.288-2.212-.754-3.372-1.4-1.161-.646-2.124-1.447-2.89-2.405-.765-.957-1.394-2.213-1.884-3.768-.49-1.556-.735-3.35-.735-5.384 0-2.895.945-5.36 2.835-7.393-.885-2.177-.802-4.617.251-7.321.694-.215 1.723-.054 3.087.485 1.364.538 2.362.999 2.997 1.381.634.383 1.142.706 1.525.97a25.475 25.475 0 0 1 6.89-.934c2.37 0 4.666.311 6.892.933l1.364-.86c.933-.575 2.034-1.102 3.302-1.58 1.268-.478 2.237-.61 2.907-.395 1.076 2.704 1.172 5.144.286 7.321 1.89 2.034 2.836 4.499 2.836 7.394 0 2.033-.245 3.834-.735 5.4-.49 1.568-1.124 2.825-1.902 3.77-.778.945-1.747 1.74-2.907 2.386-1.16.646-2.285 1.113-3.374 1.4-1.089.287-2.315.503-3.678.647 1.243 1.076 1.865 2.774 1.865 5.095v8.578c0 .407.06.736.179.987.12.251.311.424.574.52.265.096.497.156.7.18.205.023.497.035.88.035h8.04c2.846 0 5.28-1.01 7.302-3.032 2.022-2.022 3.033-4.457 3.033-7.304V7.83c0-2.847-1.012-5.282-3.033-7.303z"></path>
        <path d="M8.415 37.665c-.154.109-.132.284.067.525.22.218.396.251.529.098.154-.11.132-.284-.067-.526-.22-.196-.396-.23-.529-.097zm-1.218-.887c-.063.154.011.287.224.397.17.11.31.088.416-.066.064-.155-.011-.287-.224-.398-.213-.066-.352-.044-.416.067zm2.3 2.146c-.21.116-.21.326 0 .629s.409.384.596.244c.21-.163.21-.384 0-.664-.187-.302-.386-.373-.596-.209zm1.332 1.642c-.2.184-.156.402.132.656.265.275.487.31.664.102.177-.183.133-.402-.133-.655-.265-.275-.486-.31-.663-.103z"></path>
      </g>
    </g>
  </symbol>
</svg>