<?xml version="1.0" encoding="utf-8"?><svg xmlns="http://www.w3.org/2000/svg" xmlns:xlink="http://www.w3.org/1999/xlink"><symbol viewBox="0 0 20 20" id="add" xmlns="http://www.w3.org/2000/svg"><g fill-rule="evenodd"><path d="M17.647.196H0V17.06h1.96V2.549h15.687z"/><path fill-rule="nonzero" d="M2.745 3.333v16.471H20V3.334H2.745zm12.941 8.628h-3.921v3.921a.392.392 0 1 1-.785 0v-3.921H7.06a.392.392 0 1 1 0-.785h3.921V7.255a.392.392 0 1 1 .785 0v3.921h3.921a.392.392 0 1 1 0 .785z"/></g></symbol><symbol viewBox="0 0 20 20" id="article" xmlns="http://www.w3.org/2000/svg"><g fill-rule="evenodd"><path fill-rule="nonzero" d="M2.093 10.541a.781.781 0 0 0 1.127 0l1.875-1.953a.781.781 0 0 0 .218-.541V.78A.781.781 0 0 0 4.53 0H.781A.781.781 0 0 0 0 .781v7.266c0 .202.078.395.218.54l1.875 1.954zm-.53-8.979H3.75v6.17l-1.094 1.14-1.094-1.14v-6.17z"/><path d="M8.047 1.563h11.172a.781.781 0 1 0 0-1.563H8.047a.781.781 0 1 0 0 1.563zm11.172 16.875H.78A.781.781 0 1 0 .78 20h18.44a.781.781 0 1 0 0-1.563zm0-4.61H.78a.781.781 0 1 0 0 1.563h18.44a.781.781 0 1 0 0-1.563zm0-9.218H8.047a.781.781 0 1 0 0 1.562h11.172a.781.781 0 1 0 0-1.563zm0 4.609H8.047a.781.781 0 1 0 0 1.562h11.172a.781.781 0 1 0 0-1.562z"/></g></symbol><symbol viewBox="0 0 20 20" id="bomb" xmlns="http://www.w3.org/2000/svg"><g fill-rule="evenodd"><path fill-rule="nonzero" d="M16.067 4.817a.625.625 0 1 0-.884-.884l-1.25 1.25-.366.366-.808-.808a1.25 1.25 0 0 0-1.768 0l-.625.625c-.049.05-.09.104-.13.158A7.45 7.45 0 0 0 7.5 5C3.365 5 0 8.365 0 12.5S3.365 20 7.5 20s7.5-3.365 7.5-7.5a7.46 7.46 0 0 0-.524-2.737c.054-.04.109-.08.158-.13l.625-.624a1.25 1.25 0 0 0 0-1.768l-.808-.808.366-.366 1.25-1.25zM7.5 8.75a3.754 3.754 0 0 0-3.75 3.75.625.625 0 0 1-1.25 0c0-2.757 2.243-5 5-5a.625.625 0 0 1 0 1.25z"/><path d="M17.93 5.82a.625.625 0 1 0-.883.883l.625.625a.623.623 0 0 0 .884 0 .625.625 0 0 0 0-.883l-.626-.625zm-4.633-2.867a.623.623 0 0 0 .884 0 .625.625 0 0 0 0-.883l-.625-.625a.625.625 0 1 0-.884.883l.625.625zm2.328-.453c.345 0 .625-.28.625-.625V.625a.625.625 0 1 0-1.25 0v1.25c0 .345.28.625.625.625zm3.75 1.273h-1.25a.625.625 0 1 0 0 1.25h1.25a.625.625 0 1 0 0-1.25zm-2.305-.82a.623.623 0 0 0 .883 0l1.25-1.25A.625.625 0 1 0 18.32.82l-1.25 1.25a.625.625 0 0 0 0 .883z"/></g></symbol><symbol viewBox="0 0 20 18" id="books-stack" xmlns="http://www.w3.org/2000/svg"><path d="M0 15.34a2.276 2.276 0 0 0 2.273 2.273h16.44v-1.01H17.66v-2.527h1.053v-.442h1.263v-1.01h-.758v-2.526h.758v-1.01h-.821v-.864l-1.248-2.336h1.311V4.529L15.921.5H4.29l-3 4.727a2.262 2.262 0 0 0-.848 1.757 2.275 2.275 0 0 0 2.251 2.27 2.274 2.274 0 0 0-1.43 2.108c0 .694.319 1.308.81 1.725A2.269 2.269 0 0 0 0 15.339zm1.452-8.357c0-.471.262-.878.646-1.095h15.057v2.358H2.715a1.265 1.265 0 0 1-1.263-1.263zm2.084 3.115h14.672v2.526H3.536a1.264 1.264 0 0 1-1.263-1.263c0-.697.567-1.263 1.263-1.263zm-1.263 3.978H16.65v2.526H2.274A1.264 1.264 0 0 1 1.01 15.34c0-.696.567-1.263 1.263-1.263z"/></symbol><symbol viewBox="0 0 20 21" id="building" xmlns="http://www.w3.org/2000/svg"><path d="M0 20.79h10v-20H0v20zm6.25-17.5h2.5v2.5h-2.5v-2.5zm0 5h2.5v2.5h-2.5v-2.5zm0 5h2.5v2.5h-2.5v-2.5zm-5-10h2.5v2.5h-2.5v-2.5zm0 5h2.5v2.5h-2.5v-2.5zm0 5h2.5v2.5h-2.5v-2.5zm10-6.25H20v1.25h-8.75V7.04zm0 13.75h2.5v-5h3.75v5H20V9.54h-8.75v11.25z"/></symbol><symbol viewBox="0 0 20 21" id="calendar" xmlns="http://www.w3.org/2000/svg"><g fill-rule="evenodd"><path d="M7.232 11.268a.463.463 0 0 0-.463-.463H5.15a.463.463 0 0 0-.463.463v1.618c0 .256.207.463.463.463h1.618a.463.463 0 0 0 .463-.463v-1.618zm4.043 0a.463.463 0 0 0-.463-.463H9.194a.463.463 0 0 0-.463.463v1.618c0 .256.208.463.463.463h1.618a.463.463 0 0 0 .463-.463v-1.618zm4.044 0a.463.463 0 0 0-.464-.463h-1.617a.463.463 0 0 0-.464.463v1.618c0 .256.208.463.464.463h1.617a.463.463 0 0 0 .464-.463v-1.618zm-8.087 4.044a.463.463 0 0 0-.463-.464H5.15a.463.463 0 0 0-.463.464v1.617c0 .256.207.463.463.463h1.618a.463.463 0 0 0 .463-.463v-1.617zm4.043 0a.463.463 0 0 0-.463-.464H9.194a.463.463 0 0 0-.463.464v1.617c0 .256.208.463.463.463h1.618a.463.463 0 0 0 .463-.463v-1.617zm4.044 0a.463.463 0 0 0-.463-.464h-1.618a.463.463 0 0 0-.464.464v1.617c0 .256.208.463.464.463h1.618a.463.463 0 0 0 .463-.463v-1.617z"/><path fill-rule="nonzero" d="M18.211 2.274v2.47a2.018 2.018 0 0 1-2.022 2.018h-1.276c-1.117 0-2.035-.9-2.035-2.017v-2.48h-5.75v2.48a2.028 2.028 0 0 1-2.035 2.017H3.817c-1.116 0-2.022-.9-2.022-2.017v-2.47A1.84 1.84 0 0 0 .017 4.103v14.48a1.84 1.84 0 0 0 1.83 1.84h16.311a1.84 1.84 0 0 0 1.831-1.84V4.103c0-.993-.802-1.8-1.778-1.83zm-.592 15.408a.792.792 0 0 1-.792.791H3.144a.792.792 0 0 1-.791-.791v-7.48a.79.79 0 0 1 .791-.791h13.683c.438 0 .792.354.792.791v7.48z"/><path d="M3.813 5.437h1.262c.383 0 .694-.31.694-.693V.694A.693.693 0 0 0 5.075 0H3.813a.693.693 0 0 0-.694.693v4.05c0 .384.31.694.694.694zm11.084 0h1.262c.383 0 .693-.31.693-.693V.694A.693.693 0 0 0 16.16 0h-1.262a.693.693 0 0 0-.694.693v4.05c0 .384.31.694.694.694z"/></g></symbol><symbol viewBox="0 0 20 19" id="call-answer" xmlns="http://www.w3.org/2000/svg"><path fill-rule="evenodd" d="M19.556 15.019l-3.09-2.935c-.615-.583-1.634-.565-2.27.04l-1.557 1.479a46.29 46.29 0 0 1-.307-.163c-.983-.517-2.328-1.226-3.744-2.572-1.42-1.349-2.167-2.629-2.713-3.563l-.167-.285 1.044-.99.514-.49c.638-.605.655-1.573.041-2.157L4.217.447c-.613-.583-1.633-.565-2.27.041l-.871.832.024.022A4.726 4.726 0 0 0 .063 3.764c-.408 3.213 1.138 6.149 5.332 10.133 5.797 5.508 10.469 5.091 10.67 5.071.44-.05.86-.15 1.288-.307.459-.17.888-.402 1.26-.679l.02.016.882-.82c.636-.606.655-1.574.04-2.16z"/></symbol><symbol viewBox="0 0 20 17" id="case" xmlns="http://www.w3.org/2000/svg"><g fill-rule="evenodd"><path d="M19.165 10.743l-7.94-.008v.816a.708.708 0 0 1-.707.706H9.484a.706.706 0 0 1-.708-.696v-.816H.843A1.41 1.41 0 0 1 0 10.46v4.694a.953.953 0 0 0 .949.949h18.086a.953.953 0 0 0 .965-.94v-4.695a1.41 1.41 0 0 1-.835.274z"/><path fill-rule="nonzero" d="M19.043 2.675h-5.165V1.233a1.219 1.219 0 0 0-.358-.858 1.212 1.212 0 0 0-.857-.357H7.33c-.677 0-1.225.549-1.225 1.225v1.443H.957A.953.953 0 0 0 0 3.624v5.692c.001.46.374.834.835.835h7.94v-.816a.708.708 0 0 1 .707-.706h1.032a.706.706 0 0 1 .71.695v.817h7.935A.837.837 0 0 0 20 9.316V3.624a.953.953 0 0 0-.957-.949zm-6.406 0H7.363V1.267h5.274v1.408z"/></g></symbol><symbol viewBox="0 0 20 20" id="chat" xmlns="http://www.w3.org/2000/svg"><path d="M10 .845c-5.514 0-10 4.037-10 9 0 1.735.549 3.415 1.59 4.868-.198 2.179-.726 3.797-1.492 4.563a.333.333 0 0 0 .282.566c.135-.02 3.27-.47 5.539-1.78 1.288.52 2.66.783 4.081.783 5.514 0 10-4.037 10-9s-4.486-9-10-9zM5.333 11.178A1.335 1.335 0 0 1 4 9.845a1.335 1.335 0 0 1 2.667 0c0 .735-.598 1.333-1.334 1.333zm4.667 0a1.335 1.335 0 0 1-1.333-1.333c0-.735.598-1.333 1.333-1.333s1.333.598 1.333 1.333-.598 1.333-1.333 1.333zm4.667 0a1.335 1.335 0 0 1-1.334-1.333 1.335 1.335 0 0 1 2.667 0c0 .735-.598 1.333-1.333 1.333z"/></symbol><symbol viewBox="0 0 20 20" id="cloud-computing" xmlns="http://www.w3.org/2000/svg"><path fill-rule="evenodd" d="M18.608 13.858a1.361 1.361 0 0 0-.674.183l-1.73-1.7V9.05h.687a2.753 2.753 0 1 0-1.621-4.965.343.343 0 0 1-.54-.202 4.816 4.816 0 0 0-8.97-1.198.355.355 0 0 1-.352.182 2.067 2.067 0 0 0-2.224 2.468.343.343 0 0 1-.462.387 1.722 1.722 0 0 0-1.913.471c-.16.179-.28.392-.346.623A1.74 1.74 0 0 0 .656 8.25a1.722 1.722 0 0 0 1.471.8h1.717v3.29l-1.73 1.701a1.385 1.385 0 1 0 .494.477l1.82-1.789a.344.344 0 0 0 .103-.245V9.051h2.403v7.945a1.373 1.373 0 1 0 .687 0V9.051h4.807v7.945a1.373 1.373 0 1 0 .687 0V9.051h2.403v3.433c0 .093.037.18.103.245l1.82 1.789a1.37 1.37 0 1 0 1.167-.66z"/></symbol><symbol viewBox="0 0 20 18" id="community" xmlns="http://www.w3.org/2000/svg"><g fill-rule="evenodd"><circle cx="9.976" cy="2.363" r="2.329"/><path fill-rule="nonzero" d="M18.13 8.771l-2.171-.453a1.777 1.777 0 0 0-1.856.787 7.99 7.99 0 0 0-1.207-.497v-1.29a1.78 1.78 0 0 0-1.772-1.776h-2.22c-.978 0-1.774.799-1.774 1.776v1.297a7.85 7.85 0 0 0-1.2.495 1.778 1.778 0 0 0-1.858-.792l-2.173.453a1.782 1.782 0 0 0-1.373 2.102l.545 2.605a1.779 1.779 0 0 0 2.1 1.374l.687-.144c.344.509.82.975 1.43 1.374 1.269.832 2.945 1.29 4.725 1.29 2.723 0 5.068-1.094 6.149-2.667l.698.147a1.78 1.78 0 0 0 2.098-1.374l.546-2.605a1.783 1.783 0 0 0-1.375-2.102zm-8.118 7.712c-1.607 0-3.114-.405-4.238-1.145a4.465 4.465 0 0 1-.96-.831l.526-.11a1.78 1.78 0 0 0 1.375-2.1l-.489-2.342c.285-.153.585-.288.903-.403v.428a1.78 1.78 0 0 0 1.775 1.773h2.22c.973 0 1.771-.8 1.771-1.773v-.45c.324.116.63.248.912.4l-.496 2.368a1.782 1.782 0 0 0 1.376 2.1l.531.11c-.991 1.174-2.952 1.975-5.206 1.975z"/><circle cx="17.657" cy="5.425" r="2.329"/><path d="M2.847 7.705A2.333 2.333 0 0 0 4.65 4.947a2.332 2.332 0 0 0-2.759-1.802 2.329 2.329 0 1 0 .955 4.56z"/></g></symbol><symbol viewBox="0 0 20 21" id="confetti" xmlns="http://www.w3.org/2000/svg"><path d="M5.806 6.145a1.733 1.733 0 0 0-2.448 0l-.237.237a1.733 1.733 0 0 0-.127 2.305l-.594 1.84 7.36 7.36 1.839-.594c.315.252.698.378 1.081.378.443 0 .887-.168 1.224-.506l.237-.237a1.733 1.733 0 0 0 0-2.447L5.806 6.145zM.099 17.648a2.01 2.01 0 0 0 .493 2.046c.635.556 1.317.72 2.046.494l3.064-.99-4.614-4.614-.99 3.064zm1.388-4.297L6.935 18.8l1.592-.514L2 11.759zm9.792-4.078a.575.575 0 0 0 .408-.169c.326-.326.528-.416.785-.53.308-.135.657-.29 1.135-.768a3.26 3.26 0 0 0 .77-1.135 2.474 2.474 0 0 1 1.314-1.315c.308-.136.656-.29 1.135-.768a.577.577 0 1 0-.816-.816 2.155 2.155 0 0 1-.786.529 3.26 3.26 0 0 0-1.135.769c-.478.478-.632.827-.768 1.135-.114.256-.203.46-.53.785-.326.327-.528.416-.785.53a3.26 3.26 0 0 0-1.135.768.577.577 0 0 0 .408.985zM7.834 5.488a.577.577 0 0 0 1.154 0c0-.232.048-.316.144-.484.125-.22.296-.519.296-1.058a1.92 1.92 0 0 0-.296-1.057.886.886 0 0 1 0-.969c.125-.219.296-.518.296-1.057a.577.577 0 0 0-1.154 0c0 .232-.048.317-.144.485a1.916 1.916 0 0 0-.296 1.057c0 .538.171.838.296 1.057a.886.886 0 0 1 0 .97 1.917 1.917 0 0 0-.296 1.056zm11.589 5.811c-.232 0-.316-.049-.484-.145-.22-.125-.519-.296-1.058-.296a1.92 1.92 0 0 0-1.057.296.886.886 0 0 1-.97 0 1.917 1.917 0 0 0-1.056-.296.577.577 0 0 0 0 1.154c.232 0 .317.048.485.144.218.125.518.296 1.057.296.538 0 .838-.17 1.057-.296a.886.886 0 0 1 .97 0 1.91 1.91 0 0 0 1.056.296.577.577 0 0 0 0-1.153zm-7.677-8.411h1.246a.577.577 0 0 0 0-1.154h-1.246a.577.577 0 0 0 0 1.154zm-.312 2.803a.577.577 0 0 0 .577-.577v-.623a.577.577 0 0 0-1.154 0v.623c0 .319.259.577.577.577zm6.541 3.426a.577.577 0 0 0 .577-.577V7.295a.577.577 0 0 0-1.154 0V8.54c0 .319.259.577.577.577zm-2.803-.842a.577.577 0 1 0 0 1.154h.623a.577.577 0 0 0 0-1.154h-.623z" fill-rule="evenodd"/></symbol><symbol viewBox="0 0 20 17" id="diamond" xmlns="http://www.w3.org/2000/svg"><path d="M8.678 1.17l.418-.485H4.533L0 5.912h4.6L8.679 1.17zM5.693 5.913h8.617l-2.343-2.724L10.002.902l-2.97 3.453-1.34 1.557zM.055 6.74l8.567 9.015L4.525 6.74H.055zm14.514 0H5.433l4.541 9.992.03.064 4.326-9.529.24-.527zm-3.178 9.002l8.553-9.001h-4.466l-4.087 9.001zM20 5.912L15.466.685h-4.56l4.495 5.227H20z"/></symbol><symbol viewBox="0 0 20 20" id="download-to-storage-drive" xmlns="http://www.w3.org/2000/svg"><g fill-rule="evenodd"><path fill-rule="nonzero" d="M19.625 13.315a1.11 1.11 0 0 0-.815-.336h-5.567l-1.63 1.631c-.465.448-1.009.672-1.632.672-.624 0-1.168-.224-1.632-.672L6.73 12.98H1.153c-.32 0-.592.112-.816.336A1.11 1.11 0 0 0 0 14.13v3.838c0 .32.112.592.336.816.224.224.496.336.816.336H18.81c.32 0 .592-.112.815-.336a1.11 1.11 0 0 0 .336-.816V14.13c0-.32-.112-.592-.336-.816zm-4.498 4.043a.739.739 0 0 1-.54.227.738.738 0 0 1-.54-.227.738.738 0 0 1-.228-.54c0-.208.076-.388.228-.54a.738.738 0 0 1 .54-.228c.208 0 .388.076.54.228a.738.738 0 0 1 .228.54.738.738 0 0 1-.228.54zm3.07 0a.737.737 0 0 1-.539.227.738.738 0 0 1-.54-.227.738.738 0 0 1-.227-.54c0-.208.075-.388.227-.54a.737.737 0 0 1 .54-.228c.208 0 .388.076.54.228a.737.737 0 0 1 .228.54.737.737 0 0 1-.228.54z"/><path d="M9.44 13.519a.713.713 0 0 0 .54.228.713.713 0 0 0 .54-.228l5.375-5.375c.248-.231.304-.511.168-.84-.136-.311-.372-.467-.708-.467h-3.071V1.463a.739.739 0 0 0-.228-.54.738.738 0 0 0-.54-.228H8.445a.738.738 0 0 0-.54.228.738.738 0 0 0-.228.54v5.374h-3.07c-.337 0-.573.156-.708.468-.136.328-.08.608.168.84l5.374 5.374z"/></g></symbol><symbol viewBox="0 0 20 20" id="earth-globe" xmlns="http://www.w3.org/2000/svg"><path d="M18.66 4.98a9.958 9.958 0 0 0-3.64-3.639C13.488.447 11.815 0 10 0 8.186 0 6.513.447 4.98 1.341a9.956 9.956 0 0 0-3.639 3.64C.447 6.512 0 8.185 0 10s.447 3.487 1.341 5.02a9.96 9.96 0 0 0 3.64 3.639C6.513 19.553 8.186 20 10 20c1.813 0 3.487-.447 5.019-1.341a9.955 9.955 0 0 0 3.639-3.64C19.553 13.488 20 11.815 20 10s-.447-3.488-1.34-5.02zm-7.41 10.282c-.087-.104-.117-.191-.091-.261-.009.043-.04.082-.091.117a1.242 1.242 0 0 0-.235-.195 1.229 1.229 0 0 1-.234-.196 12.173 12.173 0 0 1-.189-.3 1.312 1.312 0 0 1-.104-.201c-.021-.057-.023-.09-.006-.098-.165.07-.404.022-.717-.143-.06-.035-.152-.126-.273-.273-.121-.148-.247-.213-.378-.196a2.191 2.191 0 0 0-.175.046.68.68 0 0 1-.19.032.594.594 0 0 1-.208-.052 1.68 1.68 0 0 1-.28-.15 1.866 1.866 0 0 0-.24-.136l-.17-.091-.208-.104a.64.64 0 0 1-.163-.124.413.413 0 0 1-.11-.176 2.507 2.507 0 0 1-.065-.312.973.973 0 0 0-.104-.339 1.174 1.174 0 0 0-.222-.26c-.095-.087-.182-.13-.26-.13.07 0 .07-.059 0-.176a1.32 1.32 0 0 0-.183-.254 16.306 16.306 0 0 1-.378-.417 1.04 1.04 0 0 1-.155-.241c-.044-.091-.053-.167-.027-.228.01-.008 0-.022-.026-.039a.675.675 0 0 0-.097-.052 2.239 2.239 0 0 0-.11-.046.256.256 0 0 0-.079-.019.995.995 0 0 1 .059.189.75.75 0 0 0 .071.202c.018.035.091.16.222.377.225.365.33.634.312.808-.052.017-.087.008-.104-.026a.474.474 0 0 1-.04-.143.819.819 0 0 0-.025-.13c-.026-.053-.094-.11-.202-.17-.109-.06-.176-.121-.202-.182a.06.06 0 0 0 .033-.013.063.063 0 0 1 .032-.013c.009-.078-.037-.178-.136-.3-.1-.121-.141-.208-.124-.26-.07-.052-.13-.154-.182-.306a1.148 1.148 0 0 0-.13-.293.557.557 0 0 0-.13-.137 2.57 2.57 0 0 0-.196-.13 5.677 5.677 0 0 1-.156-.098.501.501 0 0 1-.105-.117c-.286-.347-.373-.534-.26-.56-.113.026-.206-.058-.28-.254-.074-.195-.098-.345-.072-.449l-.026-.013a1.93 1.93 0 0 0 .013-.306c0-.17.011-.323.033-.462.022-.14.063-.209.124-.209-.061.009-.106-.045-.137-.162-.03-.118-.032-.198-.006-.241.008-.026.047-.009.117.052.07.06.108.1.117.117.113-.061.156-.139.13-.235-.017-.034-.108-.125-.273-.273-.374-.243-.565-.36-.573-.352.052-.095.039-.177-.04-.247-.086.052-.136.065-.15.04a.504.504 0 0 1-.032-.144c-.008-.07-.03-.108-.065-.117a.357.357 0 0 1-.156-.104 8.217 8.217 0 0 1 3.06-2.891c.052-.009.147-.013.286-.013a.52.52 0 0 1 .195.065c.061.035.124.083.19.143.064.06.114.104.149.13.017-.052-.004-.13-.065-.234.017-.052.113-.104.286-.156.2-.026.33-.022.39.013a3.425 3.425 0 0 0-.26-.326l-.064.065c-.07-.06-.252-.03-.547.091l-.13.072c-.07.039-.127.067-.17.085a.32.32 0 0 1-.156.013 7.376 7.376 0 0 1 1.224-.534c.026.017.07.054.13.11.06.057.109.098.143.124-.026-.017-.043-.009-.052.026-.034.104-.034.19 0 .26a.24.24 0 0 0 .176.104.97.97 0 0 0 .267-.013c.104-.017.174-.026.208-.026l.13.013c.278.026.387 0 .326-.078a.836.836 0 0 1 .091.215.578.578 0 0 0 .117.228c.044-.035.052-.095.026-.182s-.026-.148 0-.183c.009-.017.035-.034.078-.052l.15-.058c.057-.022.094-.037.111-.046.052-.035.017-.095-.104-.182a.89.89 0 0 0-.11-.04 1.871 1.871 0 0 1-.15-.051.827.827 0 0 1-.137-.072c-.048-.03-.07-.065-.065-.104a.352.352 0 0 1 .071-.15c.052-.043.137-.06.254-.052a.65.65 0 0 1 .267.065c.235.13.27.248.104.352a.934.934 0 0 1 .313.104c.121.06.17.126.143.195.07-.13.139-.195.209-.195.043.009.084.067.123.176.04.108.063.167.072.176.07.095.138.117.208.065.07-.052.141-.128.215-.228.074-.1.115-.146.124-.137-.087-.034-.096-.07-.026-.104.13-.078.247-.1.351-.065.026.017.06.056.104.117.078.156.065.23-.039.221.078.07.11.157.098.26-.013.105-.081.153-.202.144a.462.462 0 0 1-.19-.065.585.585 0 0 0-.188-.072c-.044-.004-.105.02-.183.072-.034.043-.08.117-.136.221a.997.997 0 0 1-.15.222c-.13.13-.347.178-.651.143.026 0 .024.026-.007.078a2.647 2.647 0 0 1-.215.286.664.664 0 0 0-.156.3c0 .017-.004.076-.013.176a.655.655 0 0 1-.052.228c.104-.026.187.026.247.156.052.121.052.187 0 .195.287-.043.539-.026.756.052.312.113.49.226.534.339.052-.078.177-.083.377-.013.078.043.147.174.209.39.034.13.093.244.175.339.083.095.172.121.267.078l.04-.026a1.22 1.22 0 0 0 .084-.046.55.55 0 0 0 .071-.052c.027-.021.042-.04.046-.058.004-.017-.002-.035-.02-.052a.47.47 0 0 1-.136-.215.274.274 0 0 1 .02-.241.87.87 0 0 1 .208-.156c.113-.07.182-.14.208-.209.035-.113-.009-.206-.13-.28-.122-.073-.182-.14-.182-.202 0-.043.028-.095.084-.156.057-.06.08-.117.072-.17a.633.633 0 0 0-.046-.162.896.896 0 0 1-.052-.182c-.004-.04.016-.085.059-.137.06-.035.204-.033.43.006.225.04.373.08.442.124.026.017.083.043.17.078.086.035.162.072.228.11.064.04.101.077.11.111h-.065c.06.053.098.113.11.183.014.07-.019.121-.097.156a.41.41 0 0 1 .208.04c.14.051.144.1.013.142a.835.835 0 0 1 .11-.026.366.366 0 0 0 .176-.085.214.214 0 0 1 .06-.038.416.416 0 0 1 .058-.013.106.106 0 0 1 .078.02c.009 0 .028-.023.058-.066.03-.043.063-.087.098-.13.035-.043.065-.065.09-.065.027 0 .05.01.072.032a.273.273 0 0 1 .052.072l.04.085c.012.03.023.054.032.071.017.044.059.09.123.137a.35.35 0 0 1 .124.137c.009.026.026.09.052.195.026.104.06.176.104.215a.52.52 0 0 0 .195.097c.018.01.057.005.118-.012a.312.312 0 0 1 .15-.014c.039.009.058.044.058.105.052-.053.078-.087.078-.105a.55.55 0 0 0 .085.274c.047.07.123.1.228.09l-.027.287c-.026.044-.09.076-.195.098a.712.712 0 0 0-.195.059.899.899 0 0 0-.19.156c-.1.096-.14.152-.123.17-.147-.166-.369-.213-.664-.144-.33.052-.556.104-.677.156a.947.947 0 0 0-.286.196.41.41 0 0 0-.046.09 2.37 2.37 0 0 1-.065.144c-.022.043-.041.065-.058.065.052-.008.11-.05.175-.124a.754.754 0 0 1 .124-.123c.226-.148.412-.2.56-.155.192.052.222.121.092.208-.017.017-.063.024-.137.02a.47.47 0 0 0-.15.006.688.688 0 0 1 .196.071c.052.03.065.072.039.124.139.078.165.165.078.26a.47.47 0 0 1-.404.144c.027 0 .027.017 0 .052l-.221.143c-.017.009-.074.03-.17.065a.442.442 0 0 0-.195.117.26.26 0 0 0-.039.157c0 .07-.004.121-.013.156-.008.035-.043.043-.104.026-.026.052-.106.094-.24.124-.135.03-.224.076-.268.136.052.07.048.14-.013.209-.104.087-.195.078-.273-.026-.044.017-.076.06-.098.13-.021.07-.054.117-.097.143.06.096.051.165-.026.209a.18.18 0 0 1 .058.026.97.97 0 0 1 .098.065c.034.026.056.039.065.039-.035.078-.083.117-.144.117.053.139-.012.29-.195.456a.598.598 0 0 1-.163.104 2.351 2.351 0 0 1-.202.084.425.425 0 0 0-.104.046.882.882 0 0 0-.195.24.281.281 0 0 0-.02.242c.03.078.111.13.241.156l.013.104v.235l.013.104a1.292 1.292 0 0 1 .02.345c-.004.074-.024.115-.059.123-.034.01-.082 0-.143-.026-.07-.034-.152-.225-.247-.572a.87.87 0 0 0-.157-.313.392.392 0 0 1-.11.085c-.03.013-.053.015-.065.006a.858.858 0 0 1-.072-.058.87.87 0 0 0-.09-.072.691.691 0 0 0-.229-.065c-.108-.017-.176-.039-.202-.065-.208.157-.334.117-.377-.117-.018.043-.016.102.006.176s.033.115.033.124c-.061.113-.156.121-.287.026-.052-.052-.171-.059-.358-.02-.187.039-.31.046-.371.02.009 0 .026.012.052.039.026.017.044.03.052.039a.164.164 0 0 1-.039.078c-.017.017-.035.023-.052.02a.132.132 0 0 0-.059 0 .22.22 0 0 0-.058.019.804.804 0 0 0-.13.136.648.648 0 0 1-.118.124.859.859 0 0 1 .072.319 3.924 3.924 0 0 1-.04.325 2.406 2.406 0 0 0-.032.345c0 .139.042.3.124.482.082.182.18.308.293.378a.77.77 0 0 0 .313.065c.147.008.251 0 .312-.026a.32.32 0 0 0 .117-.091.44.44 0 0 0 .065-.15c.018-.065.03-.11.04-.137.06-.165.173-.251.338-.26.104-.009.18.002.228.032.048.03.067.072.058.124a.655.655 0 0 1-.052.163 2.75 2.75 0 0 1-.097.189.72.72 0 0 0-.072.156 2.17 2.17 0 0 0-.045.293 1.61 1.61 0 0 1-.033.228.758.758 0 0 0 .195.013.31.31 0 0 1 .02-.084.37.37 0 0 0 .02-.072c.043.07.112.108.208.117.095.009.165-.026.208-.104.018.026.07.091.157.196.086.104.134.19.143.26.009.035.026.091.052.17.026.078.035.132.026.162-.009.03-.052.046-.13.046-.035 0-.057.013-.065.039a.177.177 0 0 0 0 .097.875.875 0 0 0 .084.222.24.24 0 0 1 .033.071c.156.286.369.365.638.235 0 .251-.06.39-.183.416-.068.017-.146-.027-.233-.13zm.195 2.941a1.043 1.043 0 0 1-.025-.208c-.01-.07.021-.163.09-.28.07-.117.104-.206.104-.267-.138-.034-.19-.147-.156-.338.017-.13.143-.304.378-.521.165-.148.217-.356.156-.625a3.6 3.6 0 0 1-.065-.495 4.43 4.43 0 0 0-.052-.456c0 .026.04.05.123.072.083.021.133.05.15.084a.789.789 0 0 0 .065-.143.662.662 0 0 1 .078-.156.443.443 0 0 1 .11-.098 1.28 1.28 0 0 1 .111-.072.997.997 0 0 0 .117-.084 2.05 2.05 0 0 1 .15-.11.433.433 0 0 1 .157-.059c.065-.013.11.006.136.058.044.053.035.133-.026.241-.06.109-.06.185 0 .229a.97.97 0 0 0 .026-.17.315.315 0 0 1 .078-.196.296.296 0 0 1 .15-.09.185.185 0 0 1 .13.019c.04.022.085.052.137.091.052.039.1.063.143.071.13.044.287.14.469.287-.009-.009-.009-.02 0-.033a.137.137 0 0 1 .052-.039.975.975 0 0 0 .071-.039.365.365 0 0 1 .072-.032l.039-.013c.06 0 .104-.004.13-.013.026-.009.063 0 .11.026a.888.888 0 0 1 .19.13c.043.035.073.06.09.078l.143.091c.07.043.124.078.163.104.04.026.074.065.104.117.03.052.042.109.033.17a2 2 0 0 1 .312.103c.027.018.08.033.163.046.083.013.137.033.163.058-1.258 1.33-2.781 2.15-4.57 2.462z"/></symbol><symbol viewBox="0 0 20 20" id="ebook" xmlns="http://www.w3.org/2000/svg"><g fill-rule="evenodd"><path d="M17.578 11.458v2.878h-1.172v-2.863a2.974 2.974 0 0 0-2.343 2.902v1.875a2.972 2.972 0 0 0 2.968 2.969A2.972 2.972 0 0 0 20 16.25v-1.875c0-1.45-1.045-2.66-2.422-2.917zM4.688 6.641h3.516v1.172H4.688z"/><path fill-rule="nonzero" d="M14.648 4.688h-1.757V2.344H1.752a.584.584 0 0 1-.58-.586c0-.323.26-.586.58-.586h11.139V0H1.752C.786 0 0 .789 0 1.758V17.46c0 .97.789 1.758 1.758 1.758H12.89V5.859h1.757c.97 0 1.758.789 1.758 1.758v3.856a2.967 2.967 0 0 1 1.172-.015v-3.84a2.933 2.933 0 0 0-2.93-2.93zM9.375 8.983h-5.86V5.47h5.86v3.515z"/></g></symbol><symbol viewBox="0 0 20 20" id="file" xmlns="http://www.w3.org/2000/svg"><g fill-rule="evenodd"><path d="M19.568 17.484l-1.57-1.569a1.464 1.464 0 0 0-1.583-.329l-1.151-1.145a4.33 4.33 0 0 0 .89-2.633 4.33 4.33 0 0 0-1.172-2.967v6.972l.604.602a1.464 1.464 0 0 0 .329 1.584l1.569 1.569a1.473 1.473 0 1 0 2.084-2.084z"/><path d="M14.981 11.808a3.18 3.18 0 1 1-6.359 0 3.18 3.18 0 0 1 6.36 0zM4.393 3.724V0h-.041a.586.586 0 0 0-.415.172L.172 3.937A.586.586 0 0 0 0 4.352v.041h3.724c.369 0 .67-.3.67-.67z"/><path fill-rule="nonzero" d="M11.802 7.456c1.252 0 2.383.532 3.177 1.382V1.841A1.84 1.84 0 0 0 13.138 0H5.565v3.724a1.844 1.844 0 0 1-1.841 1.841H0V18.16C0 19.174.826 20 1.841 20h11.297a1.84 1.84 0 0 0 1.841-1.841v-2.348l-.544-.541a4.329 4.329 0 0 1-2.633.89 4.356 4.356 0 0 1-4.352-4.352c0-2.4 1.952-4.352 4.352-4.352zM3.75 12.552h2.198a.586.586 0 0 1 0 1.172H3.75a.586.586 0 0 1 0-1.172zm-.586-1.924c0-.324.262-.586.586-.586h2.198a.586.586 0 0 1 0 1.172H3.75a.586.586 0 0 1-.586-.586zm4.31 5.02a.586.586 0 0 1-.586.586H3.75a.586.586 0 0 1 0-1.171h3.138c.323 0 .586.262.586.585zm-.586-6.945H3.75a.586.586 0 0 1 0-1.172h3.138a.586.586 0 0 1 0 1.172z"/></g></symbol><symbol viewBox="0 0 20 11" id="gamepad-console" xmlns="http://www.w3.org/2000/svg"><path d="M18.41 1.673C17.37.633 16.115.113 14.645.113h-9.32c-1.47 0-2.725.52-3.765 1.56S0 3.968 0 5.438c0 1.47.52 2.725 1.56 3.765s2.295 1.56 3.765 1.56c1.332 0 2.503-.444 3.516-1.331h2.288c1.012.887 2.184 1.331 3.516 1.331 1.47 0 2.725-.52 3.765-1.56s1.56-2.295 1.56-3.765c0-1.47-.52-2.725-1.56-3.765zm-9.756 4.43a.323.323 0 0 1-.094.24.324.324 0 0 1-.24.093H6.325v1.997a.323.323 0 0 1-.094.24.324.324 0 0 1-.239.093H4.66a.324.324 0 0 1-.24-.094.324.324 0 0 1-.093-.239V6.436H2.33a.324.324 0 0 1-.24-.094.323.323 0 0 1-.093-.239V4.772c0-.097.031-.177.094-.24a.324.324 0 0 1 .239-.093h1.997V2.442c0-.097.031-.177.093-.239a.324.324 0 0 1 .24-.094h1.33c.098 0 .178.032.24.094a.324.324 0 0 1 .094.24v1.996H8.32a.32.32 0 0 1 .239.094.324.324 0 0 1 .094.239v1.331zm5.6 1.607c-.26.26-.573.39-.94.39-.368 0-.682-.13-.942-.39-.26-.26-.39-.573-.39-.941s.13-.681.39-.941c.26-.26.574-.39.941-.39.368 0 .682.13.942.39.26.26.39.573.39.941s-.13.681-.39.941zm2.663-2.662c-.26.26-.574.39-.941.39a1.28 1.28 0 0 1-.941-.39c-.26-.26-.39-.574-.39-.942 0-.367.13-.68.39-.94.26-.261.573-.391.94-.391.368 0 .682.13.942.39.26.26.39.574.39.941 0 .368-.13.682-.39.942z"/></symbol><symbol viewBox="0 0 20 20" id="growth" xmlns="http://www.w3.org/2000/svg"><g fill-rule="evenodd"><path d="M3.012 15.69h-.857A2.157 2.157 0 0 0 0 17.845v1.57c0 .323.262.585.586.585h2.527c-.065-.183-.1-.38-.1-.586V15.69zm4.184-3.138h-.857a2.158 2.158 0 0 0-2.155 2.155v4.707c0 .324.262.586.586.586h2.527a1.75 1.75 0 0 1-.101-.586v-6.862zm12.689-6.666L15.7.237a.586.586 0 0 0-.942 0l-4.184 5.649a.586.586 0 0 0 .471.934h1.506v12.594c0 .324.262.586.586.586h4.184a.586.586 0 0 0 .586-.586V6.82h1.506a.586.586 0 0 0 .47-.934z"/><path d="M11.38 9.414h-.857a2.157 2.157 0 0 0-2.155 2.155v7.845c0 .324.262.586.586.586h2.527a1.75 1.75 0 0 1-.1-.586v-10z"/></g></symbol><symbol viewBox="0 0 20 18" id="history" xmlns="http://www.w3.org/2000/svg"><g fill-rule="evenodd"><path d="M10 5.714v4.762l4.076 2.419.686-1.157-3.333-1.977V5.714z"/><path d="M11.424.714a8.565 8.565 0 0 0-8.567 8.571H0l3.71 3.71.066.138L7.62 9.285H4.762a6.668 6.668 0 0 1 13.333 0 6.668 6.668 0 0 1-6.666 6.667 6.64 6.64 0 0 1-4.71-1.957l-1.348 1.347a8.517 8.517 0 0 0 6.053 2.515A8.573 8.573 0 0 0 20 9.285C20 4.552 16.162.714 11.424.714z"/></g></symbol><symbol viewBox="0 0 20 20" id="info-button" xmlns="http://www.w3.org/2000/svg"><path d="M17.071 2.929C13.166-.976 6.834-.977 2.93 2.929c-3.906 3.905-3.905 10.237 0 14.142 3.905 3.905 10.237 3.905 14.142 0 3.905-3.905 3.905-10.237 0-14.142zm-5.767 11.419a1.304 1.304 0 1 1-2.609 0V9.13a1.304 1.304 0 1 1 2.609 0v5.218zM9.977 6.9c-.752 0-1.253-.532-1.237-1.19-.016-.688.485-1.204 1.252-1.204s1.252.516 1.268 1.205c0 .657-.5 1.189-1.283 1.189z"/></symbol><symbol viewBox="0 0 20 21" id="map" xmlns="http://www.w3.org/2000/svg"><g fill-rule="evenodd"><path d="M10 3.72a1.76 1.76 0 0 0-1.758 1.757c0 .97.789 1.758 1.758 1.758a1.76 1.76 0 0 0 1.758-1.758A1.76 1.76 0 0 0 10 3.72z"/><path fill-rule="nonzero" d="M10 .79a4.693 4.693 0 0 0-4.688 4.687c0 .887.25 1.75.72 2.497L10 14.305l3.968-6.33c.47-.748.72-1.611.72-2.498A4.693 4.693 0 0 0 10 .79zm0 7.617a2.933 2.933 0 0 1-2.93-2.93A2.933 2.933 0 0 1 10 2.547a2.933 2.933 0 0 1 2.93 2.93A2.933 2.933 0 0 1 10 8.407z"/><path d="M7.148 20.79h5.702l-.45-3.555H7.587zm.586-4.727h1.989l-1.66-2.632zm5.696 0h4.617l-1.465-3.515H12.98zm-11.477 0h4.6l.44-3.515H3.418zm8.324 0h1.972l-.333-2.598zm-3.87 1.172H1.465L0 20.79h5.967zm12.128 0h-4.954l.45 3.555H20z"/></g></symbol><symbol viewBox="0 0 20 20" id="map-2" xmlns="http://www.w3.org/2000/svg"><g fill-rule="evenodd"><path fill-rule="nonzero" d="M7.273 2.054l5.454 1.283v14.551l-5.454-.962V2.054zm-.364-.823a.365.365 0 0 0-.364.364V17.23c0 .177.127.327.3.358l6.183 1.09a.365.365 0 0 0 .427-.358V3.05a.364.364 0 0 0-.28-.354L6.991 1.241a.358.358 0 0 0-.083-.01z"/><path d="M19.849.572a.361.361 0 0 0-.328-.05l-6.545 2.182a.363.363 0 0 0-.249.345v15.273a.363.363 0 0 0 .496.339l6.545-2.545a.364.364 0 0 0 .232-.34V.869a.363.363 0 0 0-.151-.296zM6.83 1.24L.285 2.694A.364.364 0 0 0 0 3.05v15.637a.363.363 0 0 0 .443.355l6.545-1.455a.365.365 0 0 0 .285-.355V1.595a.363.363 0 0 0-.443-.355z"/></g></symbol><symbol viewBox="0 0 20 20" id="megaphone" xmlns="http://www.w3.org/2000/svg"><path d="M9.981 12.57V4.957c-.216.02-.429.054-.646.064H3.12a.624.624 0 0 0-.624.623v.624H.624a.624.624 0 0 0-.623.624v3.743c0 .344.28.623.623.623h1.872v.624c0 .344.28.624.624.624h.378l2.507 6.684a1.24 1.24 0 0 0 1.168.803c.333 0 .65-.133.877-.37l1.498-1.486c.383-.383.474-.98.23-1.443l-2.094-4.188h1.657c.215.01.427.044.64.064zM19.86.332a.616.616 0 0 0-.3-.258c-.005-.001-.008-.006-.011-.008-.013-.003-.024.003-.036 0C19.456.048 19.4.03 19.338.03c-.043 0-.08.017-.121.025-.024.005-.046.006-.07.014a.62.62 0 0 0-.273.177c-.005.005-.013.006-.018.011a13.127 13.127 0 0 1-7.627 4.52v7.973a13.125 13.125 0 0 1 7.627 4.52c.005.005.014.008.02.015a.605.605 0 0 0 .155.12c.019.011.034.028.052.036a.642.642 0 0 0 .466.019c.003-.001.006-.006.01-.007a.606.606 0 0 0 .26-.2.764.764 0 0 0 .04-.059.604.604 0 0 0 .103-.322V.654a.604.604 0 0 0-.103-.322z" fill-rule="evenodd"/></symbol><symbol viewBox="0 0 20 25" id="money-bag-with-dollar-symbol" xmlns="http://www.w3.org/2000/svg"><g fill-rule="evenodd"><path d="M11.637 15.995a1.145 1.145 0 0 0-.321-.234 3.876 3.876 0 0 0-.814-.287v2.153c.451-.05.97-.214 1.206-.635a.984.984 0 0 0 .09-.673.676.676 0 0 0-.16-.324zm.089 1.024l.005-.007a.474.474 0 0 0-.005.007zm-3.34-4.468a.908.908 0 0 0-.093.797.662.662 0 0 0 .26.287c.12.082.252.146.387.2.113.046.24.09.377.131v-1.949c-.346.074-.724.232-.931.534zm3.356 4.44l-.016.028.016-.028zm.008-.014c.001-.002.001-.002 0 0z"/><path fill-rule="nonzero" d="M11.26 5.239C13.093 3.7 14.317.234 13.564.082c-1-.201-3.174.682-4.224.838C7.85 1.1 6.227-.695 5.316.305c-.74.814.531 3.773 2.52 5.062-5.934 2.917-14.276 17.56.277 18.623C28.248 25.46 18.165 8.082 11.26 5.24zm1.73 11.548a2.117 2.117 0 0 1-.817 1.438c-.477.37-1.076.542-1.671.59v.631a.596.596 0 0 1-.2.444.597.597 0 0 1-.64.094.597.597 0 0 1-.345-.538v-.69a3.883 3.883 0 0 1-.303-.07 2.908 2.908 0 0 1-1.449-.89 2.612 2.612 0 0 1-.52-.953 1.057 1.057 0 0 1-.047-.2.593.593 0 0 1 1.151-.246c.023.068.038.138.064.206a1.366 1.366 0 0 0 .35.527c.21.202.477.333.754.41v-2.343c-.543-.14-1.104-.322-1.553-.671a1.807 1.807 0 0 1-.524-.63 1.971 1.971 0 0 1-.183-.848 2.02 2.02 0 0 1 .664-1.525c.436-.402 1.015-.626 1.597-.708v-.655c0-.168.073-.332.2-.443a.597.597 0 0 1 .64-.095.6.6 0 0 1 .344.538v.652c.077.01.155.02.231.035.571.103 1.13.339 1.547.75a2.26 2.26 0 0 1 .557.897c.022.07.045.14.056.212a.593.593 0 0 1-1.14.299c-.024-.065-.036-.133-.062-.198a1.13 1.13 0 0 0-.377-.48c-.237-.175-.524-.266-.812-.317v2.242a7.52 7.52 0 0 1 1.012.3c.495.196.964.495 1.234.967a5.552 5.552 0 0 1 .002.003c.082.145.043.076.001.003.215.379.286.832.24 1.262z"/><path d="M11.724 17.022l-.015.028.015-.028z"/></g></symbol><symbol viewBox="0 0 20 21" id="note" xmlns="http://www.w3.org/2000/svg"><g fill-rule="evenodd"><path d="M18 12.97l-4 7h4zm-9 7l-5-3v3z"/><path fill-rule="nonzero" d="M13.294 4.419V5.48a1.83 1.83 0 1 1-3.66 0V3.284h.732V5.48a1.098 1.098 0 0 0 2.196 0V3.996L7.32.97 0 13.65l12.68 7.32L20 8.289l-6.706-3.87zm-2.562-.403h.732v.732c0 .202.164.366.366.366h.366v.732h-.366a1.098 1.098 0 0 1-1.098-1.098v-.732zm.107 11.65L5.135 12.37l.366-.633 5.704 3.293-.366.634zm1.098-2l-5.704-3.294.366-.634 5.704 3.294-.366.634zM7.33 8.37l.366-.634 5.705 3.294-.366.634L7.33 8.371z"/><path d="M4 5.97l1-1H4zm11-1l3 2v-2zm-3.536 2.34a1.832 1.832 0 0 1-1.83-1.83V3.284h.732V5.48a1.098 1.098 0 0 0 2.196 0V3.996L7.32.97 0 13.65l12.68 7.32L20 8.289l-6.706-3.87V5.48a1.832 1.832 0 0 1-1.83 1.83z"/><path d="M11-.03c-1.1.007-1.991.743-2 1.653v.33h.8v-.33c0-.548.537-.992 1.2-.992.663 0 1.2.444 1.2.992v1.964l.8.383V1.623C12.999.71 12.104-.03 11-.03z"/></g></symbol><symbol viewBox="0 0 20 16" id="open-book" xmlns="http://www.w3.org/2000/svg"><g fill-rule="evenodd"><path d="M3.06.003h-.002a.713.713 0 0 0-.712.716v10.732c0 .393.321.714.716.715 1.666.004 4.457.351 6.382 2.366V3.302a.686.686 0 0 0-.098-.363C7.766.394 4.73.007 3.06.003zM17.654 11.45V.72a.713.713 0 0 0-.712-.716h-.001c-1.67.004-4.707.39-6.287 2.936a.686.686 0 0 0-.098.362v11.231c1.925-2.015 4.716-2.362 6.382-2.366a.718.718 0 0 0 .716-.715z"/><path d="M19.284 2.478h-.519v8.973a1.831 1.831 0 0 1-1.825 1.826c-1.413.004-3.742.28-5.392 1.842 2.853-.7 5.862-.245 7.576.146a.714.714 0 0 0 .876-.698V3.194a.716.716 0 0 0-.716-.716zM1.234 11.45V2.479H.716A.716.716 0 0 0 0 3.194v11.373a.714.714 0 0 0 .876.697c1.714-.39 4.723-.844 7.576-.146-1.65-1.561-3.98-1.837-5.393-1.84a1.83 1.83 0 0 1-1.825-1.827z"/></g></symbol><symbol viewBox="0 0 20 18" id="photo-camera" xmlns="http://www.w3.org/2000/svg"><g fill-rule="evenodd"><path fill-rule="nonzero" d="M19.19 3.845a2.565 2.565 0 0 0-1.883-.78h-2.33l-.53-1.415c-.132-.34-.373-.632-.723-.879-.35-.246-.709-.369-1.076-.369H7.322c-.367 0-.726.123-1.076.37-.35.246-.591.539-.723.878l-.53 1.415h-2.33c-.735 0-1.363.26-1.883.78S0 4.992 0 5.727v9.32c0 .735.26 1.362.78 1.882.52.52 1.148.78 1.883.78h14.644c.735 0 1.362-.26 1.883-.78.52-.52.78-1.147.78-1.882v-9.32c0-.735-.26-1.362-.78-1.882zm-5.913 9.834c-.912.912-2.01 1.368-3.292 1.368-1.283 0-2.38-.456-3.292-1.368-.912-.912-1.368-2.01-1.368-3.292 0-1.283.456-2.38 1.368-3.292.912-.912 2.009-1.367 3.292-1.367s2.38.456 3.292 1.367c.912.912 1.367 2.01 1.367 3.292 0 1.283-.455 2.38-1.367 3.292z"/><path d="M9.985 7.392c-.825 0-1.53.292-2.117.879a2.885 2.885 0 0 0-.879 2.116c0 .825.293 1.53.88 2.117a2.885 2.885 0 0 0 2.116.879c.825 0 1.53-.293 2.116-.88a2.885 2.885 0 0 0 .88-2.116c0-.825-.294-1.53-.88-2.116a2.885 2.885 0 0 0-2.116-.88z"/></g></symbol><symbol viewBox="0 0 20 18" id="programming" xmlns="http://www.w3.org/2000/svg"><g fill-rule="evenodd"><path fill-rule="nonzero" d="M19.031.368H.97a.968.968 0 0 0-.97.969v11.332c0 .535.434.968.969.968h6.755v2.195H5.095a.897.897 0 0 0 0 1.792h9.81a.897.897 0 0 0 0-1.792h-2.63v-2.195h6.756A.968.968 0 0 0 20 12.67V1.337a.968.968 0 0 0-.969-.969zm-.484 11.816H1.453V1.821h17.094v10.363z"/><path d="M4.58 7.55l3.056 1.42a.59.59 0 0 0 .569-.037.591.591 0 0 0 .274-.501v-.016a.596.596 0 0 0-.343-.538l-1.91-.888 1.91-.888a.596.596 0 0 0 .343-.538V5.55a.59.59 0 0 0-.594-.594.597.597 0 0 0-.25.055L4.581 6.43a.596.596 0 0 0-.344.54v.042c0 .23.135.44.344.538zm3.927 2.894c.111.152.29.243.48.243H9c.26 0 .487-.166.566-.412l2.012-6.236a.596.596 0 0 0-.565-.775h-.015a.592.592 0 0 0-.566.413L8.42 9.913a.597.597 0 0 0 .087.53zm3.013-4.88c0 .23.135.441.344.539l1.91.887-1.91.888a.596.596 0 0 0-.344.538v.016a.591.591 0 0 0 .845.538l3.054-1.42a.596.596 0 0 0 .344-.539V6.97a.596.596 0 0 0-.344-.538l-3.055-1.42a.596.596 0 0 0-.844.538v.015z"/></g></symbol><symbol viewBox="0 0 20 21" id="question-mark-on-a-circular-black-background" xmlns="http://www.w3.org/2000/svg"><path d="M18.64 5.659a9.947 9.947 0 0 0-3.636-3.636C13.474 1.13 11.802.683 9.99.683c-1.813 0-3.484.447-5.015 1.34A9.945 9.945 0 0 0 1.34 5.66C.447 7.189 0 8.86 0 10.673c0 1.812.447 3.483 1.34 5.014a9.947 9.947 0 0 0 3.635 3.636c1.53.893 3.202 1.34 5.014 1.34 1.813 0 3.484-.447 5.015-1.34a9.945 9.945 0 0 0 3.635-3.636c.893-1.53 1.34-3.202 1.34-5.014 0-1.812-.447-3.484-1.34-5.014zm-6.985 11.257c0 .122-.04.221-.118.3a.404.404 0 0 1-.298.116H8.74a.405.405 0 0 1-.3-.117.405.405 0 0 1-.116-.299V14.42c0-.122.039-.221.117-.3a.406.406 0 0 1 .3-.116h2.497c.121 0 .22.039.298.117a.405.405 0 0 1 .118.299v2.497zm3.167-7.687a3.5 3.5 0 0 1-.364.787 3.014 3.014 0 0 1-.58.624 5.24 5.24 0 0 1-.598.456c-.147.09-.36.215-.637.37a2.19 2.19 0 0 0-.708.644c-.187.265-.28.48-.28.644 0 .122-.04.221-.117.3a.404.404 0 0 1-.3.116H8.742a.405.405 0 0 1-.299-.117.405.405 0 0 1-.117-.3v-.467c0-.581.228-1.126.683-1.633.455-.507.956-.882 1.502-1.125.416-.19.711-.386.885-.585.173-.2.26-.464.26-.794 0-.286-.163-.542-.488-.767a1.905 1.905 0 0 0-1.112-.338c-.451 0-.824.104-1.119.312-.286.208-.659.607-1.118 1.196a.384.384 0 0 1-.326.157.368.368 0 0 1-.247-.078L5.528 7.33c-.199-.156-.234-.338-.104-.546 1.11-1.847 2.719-2.77 4.826-2.77a4.94 4.94 0 0 1 2.211.533c.72.355 1.32.858 1.802 1.508.48.65.722 1.357.722 2.12a3.3 3.3 0 0 1-.163 1.054z"/></symbol><symbol viewBox="0 0 22 22" id="search" xmlns="http://www.w3.org/2000/svg"><path d="M21.284 20.027l-5.232-5.443a8.849 8.849 0 0 0 2.082-5.707C18.134 3.982 14.152 0 9.257 0 4.362 0 .38 3.982.38 8.877c0 4.895 3.982 8.877 8.877 8.877a8.782 8.782 0 0 0 5.086-1.606l5.273 5.484c.22.229.516.355.834.355a1.16 1.16 0 0 0 .834-1.96zM9.257 2.316a6.569 6.569 0 0 1 6.561 6.561 6.569 6.569 0 0 1-6.561 6.562 6.569 6.569 0 0 1-6.561-6.562 6.569 6.569 0 0 1 6.561-6.561z"/></symbol><symbol viewBox="0 0 20 21" id="sports" xmlns="http://www.w3.org/2000/svg"><path d="M0 14.211v5.466c0 .313.254.567.567.567h3.765v-8.118H2.085C0 12.126 0 12.126 0 14.211zm17.915-.567h-2.247v6.6h3.765a.567.567 0 0 0 .567-.567V15.73c0-2.086 0-2.086-2.085-2.086zM7.616 5.35l-.364 2.123a.567.567 0 0 0 .822.598l1.907-1.002 1.907 1.002a.567.567 0 0 0 .264.065h.001a.567.567 0 0 0 .552-.693l-.359-2.093 1.543-1.504a.567.567 0 0 0-.314-.967l-2.132-.31-.953-1.93a.567.567 0 0 0-1.017 0L8.519 2.57l-2.132.31a.567.567 0 0 0-.314.966L7.616 5.35zM12.107 10H7.855C5.77 10 5.77 10 5.77 12.086v7.591c0 .313.254.567.567.567h7.288a.567.567 0 0 0 .567-.567v-7.591c0-2.086 0-2.086-2.085-2.086z" fill-rule="evenodd"/></symbol><symbol viewBox="0 0 20 19" id="tickers" xmlns="http://www.w3.org/2000/svg"><g fill-rule="evenodd"><path d="M17.843 9.11c.033.014.061.033.091.05l.259-.593c-.034-.01-.067-.017-.1-.032a.783.783 0 0 1-.405-1.03l-1.46-.637 1.592 2.234.023.007zM.406 9.534l8.859 3.863-5.409-7.592-.2-.282.281-.2a.438.438 0 0 0 .102-.61l-.2-.282.281-.2.51-.364.282-.2.201.28a.439.439 0 0 0 .61.103.434.434 0 0 0 .102-.61l-.2-.28.28-.201.511-.364.005-.004-2.51-1.094A.783.783 0 0 1 2.88 1.9l-.25.574a.783.783 0 1 1-.627 1.436l-.25.574a.783.783 0 1 1-.626 1.435l-.25.574A.783.783 0 1 1 .25 7.93L0 8.503a.782.782 0 0 1 .406 1.03z"/><path d="M5.923 4.332a.781.781 0 0 1-1.092-.183l-.51.363a.782.782 0 0 1-.183 1.092l5.743 8.062.39.547.39.547 2.198 3.086a.781.781 0 0 1 1.092.183c.02.03.035.06.052.091l.527-.375c-.024-.026-.049-.05-.07-.08a.783.783 0 0 1 1.276-.908c.02.03.035.06.051.091l.528-.376c-.024-.025-.049-.05-.07-.078a.783.783 0 1 1 1.275-.909c.021.03.036.06.052.091l.527-.375c-.024-.026-.048-.05-.069-.08a.783.783 0 1 1 1.275-.908c.02.03.036.06.052.091l.527-.375c-.024-.025-.048-.05-.069-.08a.783.783 0 0 1 .183-1.09l-1.786-2.509-.124-.173-.017-.023-.46-.648-.243-.34L15.61 6.6l-.39-.547-.39-.548L11.28.517a.781.781 0 0 1-1.092-.183l-.51.363a.783.783 0 1 1-1.275.908l-.51.364a.78.78 0 0 1 .01.89.769.769 0 0 1-.193.202c-.032.022-.066.032-.1.05a.777.777 0 0 1-.354.095.781.781 0 0 1-.638-.328l-.51.363c.25.351.168.84-.184 1.091z"/></g></symbol><symbol viewBox="0 0 20 21" id="tools" xmlns="http://www.w3.org/2000/svg"><g fill-rule="evenodd"><path d="M.549 17.121a1.872 1.872 0 1 0 2.649 2.648l6.148-6.15-2.649-2.647L.55 17.121zM15.916 5.725l2.678-1.384 1.402-2.71L18.689.322l-2.71 1.404-1.387 2.675-3.257 3.26 1.321 1.324z"/><path d="M16.502 12.833l-.252-.025c-.457 0-.89.093-1.294.243L7.269 5.363c.15-.404.243-.837.243-1.294l-.025-.253C7.355 1.868 5.75.323 3.767.323c-.577 0-1.117.141-1.605.375L4.65 3.186c.13.131.22.286.28.45.164.441.076.958-.28 1.315a1.245 1.245 0 0 1-.883.366c-.147 0-.293-.032-.433-.085a1.242 1.242 0 0 1-.45-.282L.396 2.463A3.706 3.706 0 0 0 .022 4.07c0 1.982 1.544 3.588 3.493 3.72l.252.025c.457 0 .89-.094 1.295-.242l7.685 7.686c-.147.405-.24.838-.24 1.295l.025.252a3.73 3.73 0 0 0 3.72 3.493c.576 0 1.118-.138 1.605-.374l-2.488-2.488a1.275 1.275 0 0 1-.283-.448 1.245 1.245 0 0 1 1.166-1.683c.147 0 .292.03.434.085.164.06.32.148.448.28l2.488 2.489c.235-.49.375-1.03.375-1.606a3.736 3.736 0 0 0-3.495-3.72z"/></g></symbol><symbol viewBox="0 0 20 19" id="trophy" xmlns="http://www.w3.org/2000/svg"><path d="M19.626 3.418a1.11 1.11 0 0 0-.816-.336h-3.455V1.931c0-.528-.188-.98-.564-1.356a1.849 1.849 0 0 0-1.355-.563h-6.91c-.528 0-.98.187-1.356.563a1.848 1.848 0 0 0-.563 1.356v1.151H1.152c-.32 0-.592.112-.816.336A1.11 1.11 0 0 0 0 4.234V5.77c0 .567.166 1.14.498 1.715.332.576.78 1.096 1.343 1.56.564.463 1.256.853 2.076 1.17.82.315 1.681.493 2.585.533.336.432.716.812 1.14 1.14.304.271.513.561.63.87.115.307.173.665.173 1.073 0 .432-.122.796-.366 1.091-.243.296-.633.444-1.17.444-.599 0-1.133.182-1.6.546-.468.364-.702.822-.702 1.374v.767a.37.37 0 0 0 .107.276.374.374 0 0 0 .276.108h9.981a.374.374 0 0 0 .276-.108.375.375 0 0 0 .108-.276v-.767c0-.552-.234-1.01-.702-1.374a2.539 2.539 0 0 0-1.602-.546c-.535 0-.925-.148-1.169-.444-.244-.295-.365-.66-.365-1.091 0-.408.057-.766.173-1.074.117-.308.326-.598.63-.87a6.393 6.393 0 0 0 1.14-1.14 8.139 8.139 0 0 0 2.585-.533c.82-.316 1.512-.706 2.075-1.17a5.718 5.718 0 0 0 1.344-1.559c.332-.576.498-1.148.498-1.715V4.234c0-.32-.113-.592-.336-.816zM2.669 7.713c-.756-.672-1.133-1.32-1.133-1.944V4.618h3.07c0 1.671.296 3.155.888 4.45-1.127-.231-2.069-.683-2.825-1.355zM18.426 5.77c0 .623-.378 1.271-1.133 1.943-.756.672-1.698 1.124-2.826 1.356.592-1.296.888-2.78.888-4.451h3.07V5.77z"/></symbol><symbol viewBox="0 0 20 20" id="two-dices" xmlns="http://www.w3.org/2000/svg"><path d="M11.926 5.844H1.573C.708 5.844 0 6.552 0 7.417V17.77c0 .865.708 1.573 1.573 1.573h10.353c.865 0 1.573-.708 1.573-1.573V7.417c0-.865-.708-1.573-1.573-1.573zM3.171 17.642a1.47 1.47 0 1 1 0-2.94 1.47 1.47 0 0 1 0 2.94zm0-7.157a1.47 1.47 0 1 1 0-2.94 1.47 1.47 0 0 1 0 2.94zm3.579 3.392a1.47 1.47 0 1 1 0-2.941 1.47 1.47 0 0 1 0 2.94zm3.578 3.765a1.47 1.47 0 1 1 0-2.94 1.47 1.47 0 0 1 0 2.94zm0-7.157a1.47 1.47 0 1 1 0-2.94 1.47 1.47 0 0 1 0 2.94z"/><path d="M18.248.08H7.073c-.933 0-1.697.763-1.697 1.697v2.538s-.03.633.698.633h5.663a2.812 2.812 0 0 1 2.808 2.808v6.157c0 .736.662.736 1.007.736h2.696c.934 0 1.698-.764 1.698-1.697V1.777c0-.934-.764-1.698-1.698-1.698zm-1.725 5.009a1.587 1.587 0 1 1 0-3.174 1.587 1.587 0 0 1 0 3.174z"/></symbol></svg>