<?xml version="1.0" encoding="utf-8"?><svg xmlns="http://www.w3.org/2000/svg" xmlns:xlink="http://www.w3.org/1999/xlink"><symbol viewBox="0 0 48 48" id="book" xmlns="http://www.w3.org/2000/svg"><g clip-path="url(#aclip0)"><path d="M43.715 38.564V4.286l-1.308.11A50.3 50.3 0 0027.16 8.111l-2.303.956V43.21l1.677-.697a52.325 52.325 0 0115.771-3.834l1.41-.115z"/><path d="M48 9.353h-2.57v30a.857.857 0 01-.787.857l-2.195.18a49.61 49.61 0 00-1.895.195c-.205.025-.408.057-.61.086-.425.056-.849.114-1.27.18-.247.04-.491.086-.737.13-.378.065-.756.13-1.133.205-.258.052-.515.11-.777.165a44.136 44.136 0 00-2.912.713 46.363 46.363 0 00-1.823.542 1012 1012 0 01-.794.257c-.34.114-.677.232-1.013.354-.257.093-.514.187-.777.285-.118.045-.234.093-.351.139H48V9.353zM5.594 4.395l-1.308-.11v34.281l1.521.13a51.972 51.972 0 0115.755 3.857l1.581.657V9.068l-2.3-.955A50.3 50.3 0 005.594 4.395z"/><path d="M0 9.353V43.64h19.66c-.106-.042-.212-.086-.318-.125-.245-.094-.492-.183-.74-.273a44.76 44.76 0 00-1.809-.617 29.05 29.05 0 00-1.046-.322c-.258-.075-.515-.151-.772-.223a57.96 57.96 0 00-1.837-.475c-.359-.086-.72-.164-1.08-.242-.258-.056-.515-.112-.772-.163-.374-.074-.75-.14-1.125-.206l-.738-.13a58.33 58.33 0 00-1.246-.177c-.21-.028-.418-.062-.628-.086a53.068 53.068 0 00-1.886-.194l-2.307-.196a.857.857 0 01-.785-.857v-30H0z"/></g><defs><clipPath id="aclip0"><path d="M0 0h48v48H0z"/></clipPath></defs></symbol><symbol viewBox="0 0 48 48" id="business" xmlns="http://www.w3.org/2000/svg"><path d="M11 31h5c0 2.7 3.425 5 7.5 5s7.5-2.3 7.5-5c0-2.75-2.6-3.75-8.1-5.075C17.6 24.6 11 22.95 11 16c0-4.475 3.675-8.275 8.75-9.55V1h7.5v5.45C32.325 7.725 36 11.525 36 16h-5c0-2.7-3.425-5-7.5-5S16 13.3 16 16c0 2.75 2.6 3.75 8.1 5.075C29.4 22.4 36 24.05 36 31c0 4.475-3.675 8.275-8.75 9.55V46h-7.5v-5.45C14.675 39.275 11 35.475 11 31z"/></symbol><symbol viewBox="0 0 24 24" id="check" xmlns="http://www.w3.org/2000/svg"><path d="M20 6L9 17l-5-5"/></symbol><symbol viewBox="0 0 24 24" id="close" xmlns="http://www.w3.org/2000/svg"><rect x="4" y="18" width="20" height="2" rx="1" transform="rotate(-45.023 4 18)"/><rect width="20" height="2" rx="1" transform="scale(-1 1) rotate(-45.023 12.118 32.66)"/></symbol><symbol viewBox="0 0 48 48" id="computers" xmlns="http://www.w3.org/2000/svg"><path d="M24 39a2 2 0 110-4 2 2 0 010 4zM8 11h32v22H8V11zm32 26a4 4 0 004-4V11c0-2.22-1.8-4-4-4H8c-2.22 0-4 1.78-4 4v22a4 4 0 004 4H0a4 4 0 004 4h40a4 4 0 004-4h-8z"/></symbol><symbol viewBox="0 0 24 24" id="hamburger" xmlns="http://www.w3.org/2000/svg"><rect y="3" width="24" height="2" rx="1"/><rect y="11" width="24" height="2" rx="1"/><rect y="19" width="24" height="2" rx="1"/></symbol><symbol viewBox="0 0 48 48" id="internet" xmlns="http://www.w3.org/2000/svg"><path d="M34.028 28.6c.184-1.518.322-3.036.322-4.6 0-1.564-.138-3.082-.322-4.6h7.774c.368 1.472.598 3.013.598 4.6 0 1.587-.23 3.128-.598 4.6h-7.774zm-4.071 12.788c1.38-2.553 2.438-5.313 3.174-8.188h6.785a18.468 18.468 0 01-9.959 8.188zM29.382 28.6H18.618a30.517 30.517 0 01-.368-4.6c0-1.564.138-3.105.368-4.6h10.764c.207 1.495.368 3.036.368 4.6 0 1.564-.161 3.082-.368 4.6zM24 42.308c-1.909-2.76-3.45-5.819-4.393-9.108h8.786c-.943 3.289-2.484 6.348-4.393 9.108zM14.8 14.8H8.084a18.223 18.223 0 019.936-8.188c-1.38 2.553-2.415 5.313-3.22 8.188zM8.084 33.2H14.8c.805 2.875 1.84 5.635 3.22 8.188A18.419 18.419 0 018.084 33.2zm-1.886-4.6C5.83 27.128 5.6 25.587 5.6 24c0-1.587.23-3.128.598-4.6h7.774c-.184 1.518-.322 3.036-.322 4.6 0 1.564.138 3.082.322 4.6H6.198zM24 5.669c1.909 2.76 3.45 5.842 4.393 9.131h-8.786c.943-3.289 2.484-6.371 4.393-9.131zM39.916 14.8h-6.785c-.736-2.875-1.794-5.635-3.174-8.188a18.37 18.37 0 019.959 8.188zM24 1C11.281 1 1 11.35 1 24A23 23 0 1024 1z"/></symbol><symbol viewBox="0 0 24 24" id="search" xmlns="http://www.w3.org/2000/svg"><path d="M21.361 20.217l-4.76-4.95a8.05 8.05 0 001.895-5.192C18.496 5.623 14.873 2 10.42 2s-8.075 3.623-8.075 8.075c0 4.453 3.622 8.075 8.075 8.075a7.99 7.99 0 004.626-1.461l4.796 4.988c.2.208.47.323.76.323a1.054 1.054 0 00.76-1.783zm-10.94-16.11a5.975 5.975 0 015.968 5.968 5.975 5.975 0 01-5.968 5.969 5.975 5.975 0 01-5.969-5.969 5.975 5.975 0 015.969-5.968z"/></symbol><symbol viewBox="0 0 48 48" id="server" xmlns="http://www.w3.org/2000/svg"><g clip-path="url(#iclip0)"><path d="M43.636 0H4.364A4.368 4.368 0 000 4.364v6.545a4.368 4.368 0 004.364 4.364h39.272A4.368 4.368 0 0048 10.909V4.364A4.368 4.368 0 0043.636 0zM8.727 9.818a1.09 1.09 0 11-2.182 0V5.455a1.09 1.09 0 112.182 0v4.363zm4.364 0a1.09 1.09 0 11-2.182 0V5.455a1.09 1.09 0 112.182 0v4.363zm4.364 0a1.09 1.09 0 11-2.182 0V5.455a1.09 1.09 0 112.182 0v4.363zm15.272 0a2.185 2.185 0 01-2.181-2.182c0-1.202.979-2.181 2.181-2.181 1.203 0 2.182.979 2.182 2.181a2.185 2.185 0 01-2.182 2.182zm6.546 0a2.185 2.185 0 01-2.182-2.182c0-1.202.979-2.181 2.182-2.181 1.202 0 2.181.979 2.181 2.181a2.185 2.185 0 01-2.181 2.182zm4.363 6.546H4.364A4.368 4.368 0 000 20.727v6.546a4.368 4.368 0 004.364 4.364h39.272A4.368 4.368 0 0048 27.273v-6.546a4.368 4.368 0 00-4.364-4.363zM8.727 26.182a1.09 1.09 0 11-2.182 0v-4.364a1.09 1.09 0 112.182 0v4.364zm4.364 0a1.09 1.09 0 11-2.182 0v-4.364a1.09 1.09 0 112.182 0v4.364zm4.364 0a1.09 1.09 0 11-2.182 0v-4.364a1.09 1.09 0 112.182 0v4.364zm15.272 0A2.185 2.185 0 0130.546 24c0-1.203.979-2.182 2.181-2.182 1.203 0 2.182.98 2.182 2.182a2.185 2.185 0 01-2.182 2.182zm6.546 0A2.185 2.185 0 0137.09 24c0-1.203.979-2.182 2.182-2.182 1.202 0 2.181.98 2.181 2.182a2.185 2.185 0 01-2.181 2.182zm4.363 6.545H4.364A4.368 4.368 0 000 37.091v6.545A4.368 4.368 0 004.364 48h39.272A4.368 4.368 0 0048 43.636v-6.545a4.368 4.368 0 00-4.364-4.364zM8.727 42.546a1.09 1.09 0 11-2.182 0v-4.364a1.09 1.09 0 112.182 0v4.363zm4.364 0a1.09 1.09 0 11-2.182 0v-4.364a1.09 1.09 0 112.182 0v4.363zm4.364 0a1.09 1.09 0 11-2.182 0v-4.364a1.09 1.09 0 112.182 0v4.363zm15.272 0a2.185 2.185 0 01-2.181-2.182c0-1.203.979-2.182 2.181-2.182 1.203 0 2.182.979 2.182 2.182a2.184 2.184 0 01-2.182 2.181zm6.546 0a2.185 2.185 0 01-2.182-2.182c0-1.203.979-2.182 2.182-2.182 1.202 0 2.181.979 2.181 2.182a2.185 2.185 0 01-2.181 2.181z"/></g><defs><clipPath id="iclip0"><path d="M0 0h48v48H0z"/></clipPath></defs></symbol><symbol viewBox="0 0 48 48" id="settings" xmlns="http://www.w3.org/2000/svg"><g clip-path="url(#jclip0)"><path d="M46.87 18.535l-3.689-.802a20.07 20.07 0 00-1.187-2.863l2.042-3.177a1.435 1.435 0 00-.192-1.79l-5.747-5.747a1.435 1.435 0 00-1.79-.192L33.13 6.005a20.08 20.08 0 00-2.863-1.187l-.802-3.69A1.434 1.434 0 0028.064 0h-8.128c-.674 0-1.258.47-1.401 1.13l-.802 3.689c-.983.32-1.94.718-2.863 1.187l-3.177-2.043a1.435 1.435 0 00-1.79.193L4.156 9.903a1.435 1.435 0 00-.192 1.79l2.042 3.177a20.08 20.08 0 00-1.187 2.863l-3.69.802A1.434 1.434 0 000 19.936v8.128c0 .674.47 1.258 1.13 1.401l3.689.802c.32.983.718 1.94 1.187 2.863l-2.043 3.177a1.435 1.435 0 00.193 1.79l5.747 5.747a1.435 1.435 0 001.79.192l3.177-2.042c.923.47 1.88.867 2.863 1.187l.802 3.69A1.434 1.434 0 0019.936 48h8.128c.674 0 1.258-.47 1.401-1.13l.802-3.689a20.07 20.07 0 002.863-1.187l3.177 2.042a1.434 1.434 0 001.79-.192l5.747-5.747a1.435 1.435 0 00.192-1.79l-2.042-3.177c.47-.922.867-1.88 1.187-2.863l3.69-.802A1.434 1.434 0 0048 28.064v-8.128c0-.674-.47-1.258-1.13-1.401zM32.607 24c0 4.745-3.861 8.606-8.606 8.606-4.745 0-8.606-3.861-8.606-8.606 0-4.745 3.861-8.606 8.606-8.606 4.745 0 8.606 3.861 8.606 8.606z"/></g><defs><clipPath id="jclip0"><path d="M0 0h48v48H0z"/></clipPath></defs></symbol><symbol viewBox="0 0 48 48" id="software" xmlns="http://www.w3.org/2000/svg"><path d="M46 22H36a2 2 0 00-2 2v18a2 2 0 002 2h10a2 2 0 002-2V24a2 2 0 00-2-2zm0 18H36V26h10v14zM40 4H4C1.78 4 0 5.78 0 8v24a4 4 0 004 4h14v4h-4v4h16v-4h-4v-4h4v-4H4V8h36v10h4V8c0-2.22-1.8-4-4-4z"/></symbol><symbol viewBox="0 0 48 48" id="star" xmlns="http://www.w3.org/2000/svg"><path d="M24 4l6.18 12.52L44 18.54l-10 9.74 2.36 13.76L24 35.54l-12.36 6.5L14 28.28 4 18.54l13.82-2.02L24 4z"/></symbol><symbol viewBox="0 0 48 48" id="user" xmlns="http://www.w3.org/2000/svg"><path d="M24 0c-6.979 0-12.656 5.678-12.656 12.656 0 6.979 5.677 12.656 12.656 12.656 6.979 0 12.656-5.677 12.656-12.656C36.656 5.678 30.98 0 24 0zm15.747 33.58c-3.465-3.517-8.059-5.455-12.934-5.455h-5.625c-4.876 0-9.47 1.938-12.935 5.456-3.448 3.5-5.347 8.122-5.347 13.013 0 .776.63 1.406 1.406 1.406h39.376c.776 0 1.406-.63 1.406-1.406 0-4.89-1.9-9.512-5.347-13.013z"/></symbol><symbol viewBox="0 0 48 48" id="web-design" xmlns="http://www.w3.org/2000/svg"><path d="M5.273 2a4.26 4.26 0 00-3.022 1.26A4.314 4.314 0 001 6.3v25.8c0 2.386 1.923 4.3 4.273 4.3h14.954v4.3h-4.273V45h17.091v-4.3h-4.272v-4.3h14.954c1.134 0 2.22-.453 3.022-1.26A4.314 4.314 0 0048 32.1V6.3a4.31 4.31 0 00-1.252-3.04A4.259 4.259 0 0043.728 2H5.272zm0 4.3h38.454v25.8H5.273V6.3zm25.636 2.15l-7.477 7.525 7.477 7.525 2.991-3.01-4.486-4.515L33.9 11.46l-2.99-3.01zM18.091 14.9L15.1 17.91l4.486 4.515L15.1 26.94l2.99 3.01 7.478-7.525"/></symbol><symbol viewBox="0 0 48 48" id="web-hosting" xmlns="http://www.w3.org/2000/svg"><path d="M43.727 32.1H5.273V6.3h38.454v25.8zm0-30.1H5.273A4.272 4.272 0 001 6.3v25.8c0 1.14.45 2.234 1.251 3.04a4.259 4.259 0 003.022 1.26h14.954v4.3h-4.273V45h17.091v-4.3h-4.272v-4.3h14.954c1.134 0 2.22-.453 3.022-1.26A4.314 4.314 0 0048 32.1V6.3C48 3.914 46.077 2 43.727 2z"/></symbol></svg>