<svg width="167" height="32" viewBox="0 0 167 32" fill="none" xmlns="http://www.w3.org/2000/svg">
<path d="M151.099 16.7399V4.15845H127.709V13.8966L128.588 11.899H130.071L130.566 13.0781V11.899H132.379L132.928 13.0781L133.464 11.899H139.864C140.111 11.899 140.454 11.9822 140.606 12.2596V11.899H141.952V12.3291C142.116 12.0931 142.377 11.899 142.899 11.899H145.632L146.127 13.0504V11.899H147.747L148.31 12.8976V11.899H149.794V15.5889H148.2L147.541 14.493V15.5889H145.522L145.206 14.8676H144.561L144.259 15.5889H142.995C142.721 15.5612 142.089 15.4503 141.952 15.0203V15.5889H139.521V14.7704C139.521 14.6595 139.411 14.5207 139.273 14.5207H139.012V15.5887H133.848V14.7565L133.45 15.5887H132.406L132.008 14.7425V15.5887H129.934L129.659 14.9229H129L128.711 15.5887H127.709V27.4767H151.099V20.194C150.975 20.3329 150.769 20.4438 150.467 20.4438H148.517V20.1664C148.365 20.3329 148.16 20.4438 147.816 20.4438H142.309V19.6667C142.295 19.5697 142.35 19.3616 142.075 19.3616H141.842V20.444H140.386V19.1953C140.235 19.4451 139.905 19.4592 139.685 19.4728H138.916V20.444H136.966L136.403 19.7502L135.798 20.444H132.475V16.7399H135.853L136.43 17.42L137.035 16.7399H139.699C139.892 16.7538 140.249 16.851 140.386 17.0454V16.7399H142.652C142.858 16.7399 143.243 16.8373 143.408 17.1008V16.7399H146.264V17.0731C146.415 16.865 146.649 16.7399 147.019 16.7399H148.846V17.0591C148.984 16.851 149.341 16.7399 149.561 16.7399H151.099Z" fill="#00ACEC"/>
<path d="M165.466 18.9871L157.033 27.4768H158.228L165.466 20.1941V18.9871V18.9871Z" fill="#33348E"/>
<path d="M165.465 21.3594L159.395 27.4766H160.589L165.465 22.566V21.3594V21.3594Z" fill="#00ACEC"/>
<path d="M165.465 23.7314L161.744 27.4767H162.952L165.465 24.9385V23.7314V23.7314Z" fill="#33A457"/>
<path fill-rule="evenodd" clip-rule="evenodd" d="M126.473 2.896H146.676H166.839V28.7667H126.473V2.896ZM126.941 28.3088H166.414H166.414V3.36778H126.941V28.3088Z" fill="#00ACEC"/>
<path fill-rule="evenodd" clip-rule="evenodd" d="M152.225 26.367C152.225 25.7704 152.706 25.2988 153.296 25.2988C153.576 25.2989 153.845 25.4115 154.043 25.6118C154.242 25.8121 154.353 26.0838 154.353 26.367C154.353 26.9491 153.873 27.4348 153.296 27.4348C152.706 27.4348 152.225 26.9493 152.225 26.367ZM152.362 26.3673C152.362 26.88 152.774 27.2964 153.296 27.3104C153.804 27.3104 154.216 26.88 154.216 26.3673C154.216 25.8399 153.804 25.4237 153.296 25.4237C152.774 25.4237 152.362 25.8399 152.362 26.3673Z" fill="#00ACEC"/>
<path fill-rule="evenodd" clip-rule="evenodd" d="M132.077 12.3289L132.914 14.2293L133.753 12.3289H134.852V15.1587H134.165V13.0918L133.231 15.1587H132.599L131.679 13.0502V15.1587H130.291L130.017 14.5206H128.643L128.382 15.1587H127.654L128.876 12.3289H129.783L130.992 15.0478V12.3289H132.077ZM153.832 26.0757C153.832 25.9787 153.791 25.8816 153.709 25.826C153.613 25.7706 153.516 25.7706 153.42 25.7706H152.898V26.9637H153.049V26.4087H153.31L153.653 26.9637H153.818L153.461 26.4087C153.667 26.4085 153.832 26.3115 153.832 26.0757ZM153.297 26.2978H153.049V25.8674H153.379C153.53 25.8674 153.695 25.8951 153.695 26.0755C153.695 26.2994 153.485 26.2985 153.323 26.2978L153.297 26.2978ZM129.33 13.9102H128.918L129.33 12.9253V12.953L129.756 13.91H129.33V13.9102ZM139.754 12.3289C140.098 12.3289 140.579 12.4816 140.579 13.078C140.579 13.4245 140.483 13.6745 140.111 13.8691C140.427 13.9105 140.551 14.1186 140.551 14.5764L140.578 15.1589H139.906L139.892 14.6318C139.892 14.3958 139.796 14.16 139.548 14.16H138.656V15.1587H137.969V12.3289H139.754ZM139.508 13.5773H138.656V12.9392H139.508C139.796 12.9392 139.892 13.1197 139.892 13.2583C139.892 13.4524 139.796 13.5773 139.508 13.5773ZM141.621 15.1587H140.935V12.3289H141.621V15.1587ZM148.71 12.3289V14.2848L147.542 12.3289H146.526V14.9782L145.345 12.3289H144.438L143.49 14.5206C143.49 14.5206 143.147 14.5206 143.106 14.5069C142.886 14.4792 142.625 14.2572 142.625 13.7577C142.625 13.0918 142.982 12.9392 143.435 12.9392H143.861V12.3289H142.968C142.653 12.3289 141.966 12.5646 141.952 13.7298C141.925 14.5067 142.268 15.1587 143.037 15.1587H143.944L144.205 14.5206H145.578L145.853 15.1587H147.213V13.0918L148.449 15.1587H149.397V12.3289H148.71ZM144.479 13.9102H144.905V13.91H145.317L144.905 12.953L144.891 12.9253L144.479 13.9102ZM135.318 15.1587H137.571V14.5623H136.005V14.0072H137.53V13.4661H136.005V12.9392H137.571V12.3289H135.318V15.1587ZM147.509 18.2736L147.509 18.2736C147.608 18.2767 147.701 18.2796 147.72 18.2796C148.572 18.3215 148.64 18.7512 148.64 19.2093C148.64 19.7366 148.215 20.0136 147.761 20.0136H146.319V19.4174H147.446C147.638 19.4174 147.912 19.4174 147.912 19.14C147.912 19.0153 147.871 18.9319 147.665 18.9042C147.569 18.89 147.239 18.8765 147.184 18.8765C146.429 18.8623 146.25 18.4738 146.25 18.0027C146.25 17.4753 146.621 17.1838 147.061 17.1838H148.517V17.7941H147.459C147.438 17.7941 147.418 17.7939 147.397 17.7937C147.17 17.7916 146.951 17.7896 146.951 18.0439C146.951 18.2103 147.075 18.2522 147.239 18.2661C147.269 18.2661 147.393 18.27 147.508 18.2736L147.509 18.2736L147.509 18.2736L147.509 18.2736ZM150.302 18.2796C150.283 18.2796 150.19 18.2767 150.09 18.2736C149.975 18.27 149.851 18.2661 149.822 18.2661C149.657 18.2522 149.533 18.2103 149.533 18.0439C149.533 17.7895 149.753 17.7916 149.969 17.7937C149.989 17.7939 150.008 17.7941 150.028 17.7941H151.085V17.1838H149.643C149.19 17.1838 148.819 17.4753 148.819 18.0027C148.819 18.4738 148.997 18.8623 149.767 18.8765C149.822 18.8765 150.151 18.89 150.247 18.9042C150.44 18.9319 150.494 19.0153 150.494 19.14C150.494 19.4174 150.206 19.4174 150.014 19.4174H148.888V20.0136H150.343C150.797 20.0136 151.222 19.7366 151.222 19.2093C151.222 18.7512 151.154 18.3215 150.302 18.2796ZM137.199 17.1838H139.617C139.96 17.1838 140.454 17.3502 140.454 18.0439C140.454 19.0428 139.795 19.0563 139.438 19.0563H138.518V20.0136H137.199L136.389 19.0705L135.565 20.0001H132.928V17.1838H135.647L136.416 18.058L137.199 17.1838ZM135.194 19.4174H133.628V18.8488H135.139V18.3215H133.628V17.7941H135.194L135.963 18.5573L135.194 19.4174ZM137.337 19.1539L137.831 19.7366V17.4614L137.337 18.0164L136.842 18.5573L137.337 19.1539ZM139.37 18.4738H138.518V17.7941H139.37C139.658 17.7941 139.755 17.9746 139.755 18.1134C139.755 18.3073 139.659 18.4738 139.37 18.4738ZM142.57 17.1838C142.9 17.1838 143.394 17.3365 143.394 17.9469C143.394 18.2796 143.298 18.5435 142.913 18.7235C143.243 18.7652 143.367 18.9733 143.367 19.4309L143.394 20.0136H142.721L142.707 19.5004C142.694 19.2509 142.598 19.0151 142.364 19.0151H141.458V20.0136H140.771V17.1838H142.57ZM142.323 18.4324H141.458V17.7939H142.323C142.611 17.7939 142.707 17.9743 142.707 18.1132C142.708 18.3073 142.598 18.4324 142.323 18.4324ZM145.976 20.0001H143.737V17.1838H145.976V17.7941H144.424V18.3215H145.935V18.8488H144.424V19.4174H145.976V20.0001ZM154.038 17.4472C153.461 17.4472 153.351 16.9896 153.351 16.5041C153.351 15.8383 153.598 15.4916 153.982 15.4916C154.34 15.4916 154.573 15.6998 154.601 16.0602H155.672C155.59 15.1726 154.999 14.6455 153.941 14.6455C152.98 14.6455 152.225 15.3391 152.225 16.4629C152.225 17.6002 152.911 18.2938 154.051 18.2938C154.958 18.2938 155.603 17.7529 155.7 16.8649H154.615C154.573 17.1977 154.394 17.4472 154.038 17.4472ZM157.265 15.6165C158.46 15.6165 158.529 16.0602 158.529 16.6568H158.529V17.836C158.529 17.9887 158.543 18.1136 158.584 18.2106H157.691L157.582 17.9471C157.444 18.0857 157.293 18.1687 157.128 18.2245C156.977 18.2663 156.826 18.2799 156.647 18.2799C156.167 18.2799 155.755 18.0441 155.755 17.5172C155.755 16.8303 156.397 16.7504 156.908 16.6868C156.985 16.6772 157.059 16.668 157.128 16.657C157.361 16.6154 157.54 16.5736 157.54 16.4213C157.54 16.2408 157.307 16.2132 157.211 16.2132C157.183 16.2132 157.155 16.2132 157.128 16.2267C157.005 16.2267 156.881 16.2825 156.853 16.4629H155.906C155.906 15.9495 156.249 15.6442 157.128 15.6165H157.265ZM157.128 17.7111H157.045C156.839 17.7111 156.729 17.6276 156.729 17.503C156.729 17.2949 156.908 17.2533 157.128 17.2119L157.164 17.2044C157.292 17.1786 157.427 17.1512 157.54 17.1007C157.54 17.5307 157.416 17.6834 157.128 17.7111ZM159.642 15.6858V16.1988C159.779 15.7967 160.026 15.6165 160.411 15.6163C160.452 15.6163 160.507 15.6163 160.548 15.6302V16.4762H160.342C159.93 16.4762 159.724 16.6703 159.724 17.2116V18.2101H158.735V15.6858H159.642ZM162.43 14.7425V15.9355C162.306 15.7967 162.183 15.7135 162.032 15.6584C161.936 15.6307 161.812 15.6167 161.674 15.6167C161.084 15.6167 160.617 16.1578 160.617 16.99C160.617 17.7115 161.001 18.2801 161.757 18.2801C161.853 18.2801 161.949 18.2801 162.032 18.2524C162.224 18.1971 162.361 18.0859 162.526 17.8778V18.2106H163.419V14.7425H162.43ZM162.004 17.5583H162.032C162.362 17.5446 162.458 17.253 162.458 16.9763C162.458 16.6987 162.362 16.3936 162.032 16.3936C161.702 16.3936 161.62 16.7124 161.62 16.9898C161.62 17.2533 161.675 17.5583 162.004 17.5583Z" fill="#00ACEC"/>
<path fill-rule="evenodd" clip-rule="evenodd" d="M101.692 26.3914V29.2831V30.8875H100.968V30.4981C100.738 30.7866 100.39 30.968 99.9169 30.968C98.984 30.968 98.2526 30.263 98.2526 29.2839C98.2526 28.3048 98.9844 27.5998 99.9169 27.5998C100.39 27.5998 100.738 27.781 100.968 28.0698V26.3914H101.692ZM74.5516 27.679V29.2831H74.5508V30.8875H73.8281V30.4981C73.5986 30.7867 73.2504 30.968 72.7772 30.968C71.8444 30.968 71.113 30.263 71.113 29.2839C71.113 28.3048 71.8448 27.5999 72.7772 27.5999C73.2506 27.5999 73.5986 27.781 73.8281 28.0698V27.679H74.5516ZM71.8581 29.2832C71.8581 28.7195 72.2412 28.2564 72.8674 28.2564C73.4658 28.2564 73.8696 28.6995 73.8696 29.2832C73.8696 29.8668 73.4658 30.3099 72.8674 30.3099C72.2412 30.3099 71.8581 29.8469 71.8581 29.2832ZM103.136 30.5186C103.072 30.4584 102.987 30.4247 102.898 30.4248L102.899 30.4215C102.853 30.4212 102.808 30.4298 102.766 30.4469C102.726 30.4624 102.689 30.4857 102.658 30.5153C102.628 30.5442 102.603 30.5787 102.586 30.6167C102.551 30.6956 102.551 30.7849 102.586 30.8639C102.603 30.9028 102.627 30.9384 102.657 30.9686C102.688 30.9977 102.725 31.0209 102.765 31.037C102.807 31.0541 102.852 31.0627 102.898 31.0624C102.943 31.0627 102.988 31.054 103.029 31.037C103.069 31.0205 103.105 30.9974 103.136 30.9686C103.166 30.9394 103.191 30.905 103.208 30.8672C103.243 30.7883 103.243 30.699 103.208 30.62C103.191 30.582 103.167 30.5475 103.136 30.5186ZM102.897 30.9895C102.932 30.9898 102.966 30.9831 102.997 30.97C103.027 30.9574 103.055 30.9394 103.078 30.917C103.101 30.8946 103.12 30.8681 103.133 30.8389C103.16 30.7769 103.16 30.7073 103.133 30.6454C103.12 30.6163 103.101 30.5898 103.078 30.5673C103.055 30.5448 103.027 30.5269 102.997 30.5143C102.965 30.5018 102.931 30.4956 102.897 30.4959C102.863 30.4956 102.828 30.5019 102.796 30.5143C102.765 30.5266 102.737 30.5446 102.713 30.5673C102.64 30.6397 102.618 30.7474 102.659 30.8408C102.671 30.8701 102.69 30.8967 102.713 30.919C102.737 30.9416 102.765 30.9596 102.796 30.9719C102.828 30.9851 102.863 30.9917 102.897 30.9914V30.9895ZM103.008 30.617C102.982 30.5987 102.95 30.5898 102.917 30.5917L102.918 30.5919H102.777V30.8866H102.842V30.7763H102.872L102.965 30.8866H103.043L102.942 30.7756C102.969 30.7737 102.994 30.7635 103.014 30.7465C103.031 30.7308 103.041 30.7087 103.04 30.686C103.041 30.6594 103.029 30.6338 103.008 30.617ZM102.841 30.7252V30.6469V30.6462H102.917C102.931 30.6456 102.945 30.6491 102.957 30.6561C102.967 30.6626 102.973 30.6737 102.972 30.6853C102.973 30.6971 102.967 30.7084 102.957 30.7152C102.945 30.7219 102.931 30.7254 102.917 30.7252H102.841ZM98.9977 29.2832C98.9977 28.7195 99.3808 28.2564 100.007 28.2564C100.606 28.2564 101.009 28.6995 101.009 29.2832C101.009 29.8668 100.606 30.3099 100.007 30.3099C99.381 30.3099 98.9977 29.8469 98.9977 29.2832ZM83.5318 28.2233C83.9979 28.2234 84.2972 28.5051 84.3736 29.0011H82.6474C82.7246 28.5381 83.0163 28.2233 83.5318 28.2233ZM81.8884 29.2821C81.8884 28.2819 82.5706 27.5981 83.5456 27.5981L83.5452 27.5979C84.4765 27.5979 85.1179 28.2821 85.1252 29.2819C85.1252 29.3741 85.1181 29.4602 85.1112 29.5454L85.1112 29.5455L85.1108 29.55H82.6403C82.7447 30.1274 83.1692 30.3355 83.6354 30.3355C83.9693 30.3355 84.3245 30.2149 84.6034 30L84.9579 30.5168C84.5541 30.8456 84.0952 30.9662 83.5941 30.9662C82.5979 30.9662 81.8884 30.3019 81.8884 29.2821ZM92.2806 29.2819C92.2806 28.7182 92.6637 28.2552 93.2899 28.2552C93.8883 28.2552 94.2921 28.6983 94.2921 29.2819C94.2921 29.8656 93.8883 30.3087 93.2899 30.3087C92.6637 30.3087 92.2804 29.8456 92.2804 29.2819H92.2806ZM94.9735 27.679V29.282L94.9737 29.2831V30.8875H94.2504V30.4981C94.0201 30.7867 93.6729 30.968 93.1996 30.968C92.2667 30.968 91.5353 30.263 91.5353 29.2839C91.5353 28.3048 92.2671 27.5999 93.1996 27.5999C93.6729 27.5999 94.0201 27.781 94.2504 28.0698V27.679H94.9735ZM88.1945 29.2819C88.1945 30.2548 88.8971 30.966 89.9694 30.966C90.4706 30.966 90.8044 30.8585 91.1655 30.5836L90.818 30.0199C90.5464 30.2081 90.2611 30.3087 89.9463 30.3087C89.3688 30.3019 88.9441 29.8994 88.9441 29.2819C88.9441 28.6645 89.3688 28.2622 89.9463 28.2552C90.2603 28.2552 90.5456 28.3558 90.818 28.544L91.1655 27.9803C90.8038 27.7053 90.4699 27.5979 89.9694 27.5979C88.8971 27.5979 88.1945 28.3089 88.1945 29.2819ZM96.6441 28.0678C96.832 27.786 97.1038 27.5979 97.5212 27.5979L97.5208 27.5985C97.6674 27.5985 97.8762 27.6252 98.0363 27.686L97.8133 28.3433C97.6695 28.2879 97.5157 28.2604 97.3609 28.2626C96.888 28.2626 96.6514 28.5574 96.6514 29.0881V30.8857H95.9271V27.679H96.6441V28.0678ZM78.1285 27.9339C77.7805 27.7128 77.3009 27.5984 76.7718 27.5984C75.9289 27.5984 75.3863 27.9879 75.3863 28.625C75.3863 29.1479 75.7903 29.4704 76.5342 29.5711L76.876 29.618C77.2727 29.6717 77.46 29.7723 77.46 29.9534C77.46 30.2014 77.1965 30.3428 76.7017 30.3428C76.2006 30.3428 75.8389 30.1885 75.5951 30.0074L75.2551 30.5511C75.6518 30.8329 76.1529 30.9673 76.6956 30.9673C77.6564 30.9673 78.2133 30.5312 78.2133 29.9206C78.2133 29.3569 77.775 29.0621 77.0509 28.9615L76.71 28.9138C76.3968 28.8747 76.1458 28.8139 76.1458 28.599C76.1458 28.3646 76.3824 28.2235 76.7793 28.2235C77.204 28.2235 77.6151 28.3778 77.8166 28.4984L78.1298 27.9347L78.1285 27.9339ZM86.5878 28.0689C86.7749 27.7872 87.0467 27.599 87.4641 27.599L87.4637 27.5984C87.6102 27.5984 87.819 27.6252 87.9792 27.686L87.7562 28.3433C87.6124 28.2878 87.4586 28.2604 87.3037 28.2626C86.8308 28.2626 86.5943 28.5574 86.5943 29.0881V30.8857H85.8708V27.6789H86.5878V28.0689ZM81.2903 27.679H80.1073V26.7061H79.3759V27.679H78.7011V28.3163H79.3759V29.7792C79.3759 30.5232 79.6756 30.9664 80.5314 30.9664C80.8454 30.9664 81.207 30.8726 81.4365 30.7184L81.2275 30.1213C81.0116 30.2419 80.7751 30.3026 80.5869 30.3026C80.2253 30.3026 80.1073 30.0877 80.1073 29.7659V28.3169H81.2903V27.679ZM70.4736 28.874V30.8865L69.7406 30.885V29.1003C69.7406 28.5567 69.5049 28.2548 69.0109 28.2548C68.5306 28.2548 68.1968 28.5506 68.1968 29.1073V30.8853H67.4654V29.1006C67.4654 28.5571 67.2223 28.2552 66.7419 28.2552C66.2473 28.2552 65.927 28.551 65.927 29.1077V30.8857H65.1973V27.679H65.9213V28.0754C66.1932 27.6999 66.5404 27.5993 66.8958 27.5993C67.4042 27.5993 67.7658 27.8142 67.9953 28.1698C68.302 27.7198 68.74 27.5924 69.1647 27.5993C69.9725 27.6061 70.4736 28.1161 70.4736 28.874Z" fill="#231F20"/>
<path fill-rule="evenodd" clip-rule="evenodd" d="M103.253 19.7505V20.2195H103.165V19.8654L103.028 20.171H102.934L102.797 19.8662V20.2195H102.707V19.7505H102.834L102.98 20.0723L103.127 19.7505H103.253ZM102.45 19.8311V20.2197H102.449H102.36V19.8311H102.198V19.7519H102.612V19.8311H102.45Z" fill="#F79410"/>
<path d="M88.8544 22.2305H77.8906V3.23877H88.8546L88.8544 22.2305Z" fill="#FF5F00"/>
<path d="M78.5852 12.7351C78.5852 8.8826 80.4567 5.4508 83.3708 3.2392C81.165 1.56266 78.4366 0.652751 75.6275 0.656751C68.7076 0.656751 63.0981 6.06432 63.0981 12.7351C63.0981 19.4058 68.7076 24.8134 75.6275 24.8134C78.4367 24.8174 81.1651 23.9075 83.371 22.2309C80.4571 20.0197 78.5852 16.5877 78.5852 12.7351Z" fill="#EB001B"/>
<path d="M103.645 12.7351C103.645 19.4058 98.0361 24.8134 91.1161 24.8134C88.3066 24.8174 85.5779 23.9075 83.3716 22.231C86.2866 20.0194 88.158 16.5878 88.158 12.7351C88.158 8.88241 86.2866 5.4508 83.3716 3.2392C85.5779 1.56271 88.3065 0.652821 91.1159 0.656751C98.0359 0.656751 103.645 6.06432 103.645 12.7351" fill="#F79E1B"/>
<path fill-rule="evenodd" clip-rule="evenodd" d="M29.4184 10.3839L28.9489 13.0992C27.541 12.323 24.3369 12.1393 24.3366 13.5691C24.3366 14.137 25.0615 14.5277 25.9353 14.9985C27.2605 15.7125 28.9279 16.611 28.9279 18.5922C28.9279 21.7582 25.5409 22.9214 23.2958 22.9214C21.0514 22.9214 19.5823 22.2074 19.5823 22.2074L20.0714 19.3682C21.4184 20.4502 25.5 20.7577 25.5 19.0418C25.5 18.3207 24.6966 17.8955 23.7648 17.4025C22.4793 16.7221 20.9496 15.9126 20.9496 14.0186C20.9496 10.5465 24.8267 9.83252 26.4593 9.83252C27.9696 9.83252 29.4184 10.3839 29.4184 10.3839ZM11.4972 10.0578L8.3607 18.755L7.98956 16.8821L7.98989 16.8828L6.88288 11.1963C6.88288 11.1963 6.74902 10.0578 5.32224 10.0578H0.137015L0.0761719 10.2719C0.0761719 10.2719 1.66182 10.602 3.51755 11.7172L6.37585 22.7029H9.80371L15.0379 10.0578H11.4972ZM17.5543 22.7032H14.2643L16.3205 10.0585H19.6108L17.5543 22.7032ZM40.3954 22.7032H37.3745L36.9892 20.825H32.8069L32.121 22.7032H28.6915L33.5982 11.0005C33.5982 11.0005 33.8956 10.0581 35.1169 10.0581H37.7616L40.3954 22.7032ZM33.7544 18.2303L35.483 13.4984L36.4555 18.2303H33.7544Z" fill="#2566AF"/>
<path d="M7.9899 16.8831L6.88288 11.1966C6.88288 11.1966 6.74902 10.0581 5.32224 10.0581H0.137015L0.0761719 10.2722C0.0761719 10.2722 2.56839 10.789 4.95887 12.7255C7.24456 14.5763 7.9899 16.8831 7.9899 16.8831Z" fill="#E6A540"/>
</svg>
