<svg width="341" height="42" fill="none" xmlns="http://www.w3.org/2000/svg"><path d="M214.099 21.74V9.158h-23.39v9.739l.879-1.998h1.483l.495 1.18v-1.18h1.813l.549 1.18.536-1.18h6.4c.247 0 .59.083.742.36v-.36h1.346v.43c.164-.236.425-.43.947-.43h2.733l.495 1.151V16.9h1.62l.563.999V16.9h1.484v3.69H211.2l-.659-1.096v1.096h-2.019l-.316-.721h-.645l-.302.72h-1.264c-.274-.027-.906-.138-1.043-.568v.569h-2.431v-.819c0-.11-.11-.25-.248-.25h-.261v1.069h-5.164v-.832l-.398.832h-1.044l-.398-.846v.846h-2.074l-.275-.666H192l-.289.666h-1.002v11.888h23.39v-7.283c-.124.139-.33.25-.632.25h-1.95v-.278c-.152.167-.357.278-.701.278h-5.507v-.777c-.014-.097.041-.305-.234-.305h-.233v1.082h-1.456v-1.249c-.151.25-.481.264-.701.278h-.769v.971h-1.95l-.563-.694-.605.694h-3.323V21.74h3.378l.577.68.605-.68h2.664c.193.014.55.111.687.305v-.305h2.266c.206 0 .591.097.756.36v-.36h2.856v.333c.151-.208.385-.333.755-.333h1.827v.32c.138-.209.495-.32.715-.32h1.538z" fill="#00ACEC"/><path d="M228.466 23.987l-8.433 8.49h1.195l7.238-7.283v-1.207z" fill="#33348E"/><path d="M228.465 26.36l-6.07 6.117h1.194l4.876-4.911v-1.207z" fill="#00ACEC"/><path d="M228.465 28.731l-3.721 3.746h1.208l2.513-2.538V28.73z" fill="#33A457"/><path fill-rule="evenodd" clip-rule="evenodd" d="M189.473 7.896h40.366v25.87h-40.366V7.897zm.468 25.413h39.473V8.368h-39.473v24.94z" fill="#00ACEC"/><path fill-rule="evenodd" clip-rule="evenodd" d="M215.225 31.367a1.066 1.066 0 011.818-.755 1.07 1.07 0 01-.747 1.823c-.59 0-1.071-.486-1.071-1.068zm.137 0c0 .513.412.93.934.943.508 0 .92-.43.92-.943a.928.928 0 00-.92-.943.931.931 0 00-.934.943z" fill="#00ACEC"/><path fill-rule="evenodd" clip-rule="evenodd" d="M195.077 17.329l.837 1.9.839-1.9h1.099v2.83h-.687v-2.067l-.934 2.067h-.632l-.92-2.109v2.109h-1.388l-.274-.638h-1.374l-.261.638h-.728l1.222-2.83h.907l1.209 2.719v-2.72h1.085zm21.755 13.747a.298.298 0 00-.123-.25c-.096-.055-.193-.055-.289-.055h-.522v1.193h.151v-.555h.261l.343.555h.165l-.357-.555c.206 0 .371-.098.371-.333zm-.535.222h-.248v-.43h.33c.151 0 .316.027.316.208 0 .223-.21.223-.372.222h-.026zM192.33 18.91h-.412l.412-.985v.028l.426.957h-.426zm10.424-1.581c.344 0 .825.153.825.749 0 .346-.096.596-.468.791.316.041.44.25.44.707l.027.583h-.672l-.014-.527c0-.236-.096-.472-.344-.472h-.892v.999h-.687v-2.83h1.785zm-.246 1.248h-.852v-.638h.852c.288 0 .384.18.384.32 0 .193-.096.318-.384.318zm2.113 1.582h-.686v-2.83h.686v2.83zm7.089-2.83v1.956l-1.168-1.956h-1.016v2.65l-1.181-2.65h-.907l-.948 2.192s-.343 0-.384-.014c-.22-.028-.481-.25-.481-.75 0-.665.357-.818.81-.818h.426v-.61h-.893c-.315 0-1.002.236-1.016 1.4-.027.778.316 1.43 1.085 1.43h.907l.261-.638h1.373l.275.638h1.36v-2.067l1.236 2.067h.948v-2.83h-.687zm-4.231 1.581h.838l-.412-.957-.014-.028-.412.985zm-9.161 1.249h2.253v-.597h-1.566v-.555h1.525v-.54h-1.525v-.528h1.566v-.61h-2.253v2.83zm12.191 3.115l.211.006c.852.041.92.471.92.93 0 .527-.425.804-.879.804h-1.442v-.597h1.127c.192 0 .466 0 .466-.277 0-.125-.041-.208-.247-.236a6.521 6.521 0 00-.481-.027c-.755-.015-.934-.403-.934-.874 0-.528.371-.82.811-.82h1.456v.611h-1.12c-.227-.002-.446-.004-.446.25 0 .166.124.208.288.222l.269.008h.001zm2.793.006l-.212-.006-.268-.008c-.165-.014-.289-.056-.289-.222 0-.255.22-.252.436-.25h1.116v-.61h-1.442c-.453 0-.824.291-.824.819 0 .47.178.86.948.873.055 0 .384.014.48.028.193.028.247.111.247.236 0 .277-.288.277-.48.277h-1.126v.597h1.455c.454 0 .879-.277.879-.805 0-.458-.068-.887-.92-.93zm-13.103-1.096h2.418c.343 0 .837.166.837.86 0 .999-.659 1.012-1.016 1.012h-.92v.958h-1.319l-.81-.944-.824.93h-2.637v-2.816h2.719l.769.874.783-.874zm-2.005 2.233h-1.566v-.568h1.511v-.527h-1.511v-.528h1.566l.769.763-.769.86zm2.143-.263l.494.583V22.46l-.494.555-.495.541.495.597zm2.033-.68h-.852v-.68h.852c.288 0 .385.18.385.32 0 .193-.096.36-.385.36zm3.2-1.29c.33 0 .824.152.824.763 0 .333-.096.597-.481.777.33.041.454.25.454.707l.027.583h-.673l-.014-.514c-.013-.25-.109-.485-.343-.485h-.906v.999h-.687v-2.83h1.799zm-.247 1.248h-.865v-.638h.865c.288 0 .384.18.384.32.001.193-.109.318-.384.318zM208.976 25h-2.239v-2.816h2.239v.61h-1.552v.527h1.511v.528h-1.511v.568h1.552V25zm8.062-2.553c-.577 0-.687-.457-.687-.943 0-.666.247-1.012.631-1.012.358 0 .591.208.619.568h1.071c-.082-.887-.673-1.415-1.731-1.415-.961 0-1.716.694-1.716 1.818 0 1.137.686 1.83 1.826 1.83.907 0 1.552-.54 1.649-1.428h-1.085c-.042.333-.221.582-.577.582zm3.227-1.83c1.195 0 1.264.443 1.264 1.04v1.179c0 .153.014.278.055.375h-.893l-.109-.264a1.129 1.129 0 01-.454.277 1.753 1.753 0 01-.481.056c-.48 0-.892-.236-.892-.763 0-.687.642-.767 1.153-.83.077-.01.151-.019.22-.03.233-.042.412-.083.412-.236 0-.18-.233-.208-.329-.208-.028 0-.056 0-.083.014-.123 0-.247.055-.275.236h-.947c0-.514.343-.819 1.222-.847h.137zm-.137 2.094h-.083c-.206 0-.316-.083-.316-.208 0-.208.179-.25.399-.291l.036-.008a1.81 1.81 0 00.376-.103c0 .43-.124.582-.412.61zm2.514-2.025v.513c.137-.402.384-.583.769-.583a.46.46 0 01.137.014v.846h-.206c-.412 0-.618.194-.618.736v.998h-.989v-2.524h.907zm2.788-.944v1.194a.946.946 0 00-.398-.278 1.335 1.335 0 00-.358-.041c-.59 0-1.057.54-1.057 1.373 0 .722.384 1.29 1.14 1.29.096 0 .192 0 .275-.028.192-.055.329-.166.494-.374v.333h.893v-3.468h-.989zm-.426 2.816h.028c.33-.013.426-.305.426-.582 0-.277-.096-.582-.426-.582-.33 0-.412.318-.412.596 0 .263.055.568.384.568z" fill="#00ACEC"/><path d="M283.624.119c.867.158 2.36 1.173 2.36 2.038v37.345c0 .865-1.177 2.038-2.044 2.038h-29.363c-.945 0-2.043-1.082-2.043-2.038V2.472c0-.864 1.335-2.195 2.202-2.353h28.888z" fill="#AD338E"/><path d="M273.147 15.457a7.39 7.39 0 01-2.169 10.242c-3.436 2.23-8.035 1.262-10.272-2.164l2.133-1.428a4.828 4.828 0 006.669 1.405 4.798 4.798 0 001.409-6.65l2.23-1.404z" fill="#fff"/><path d="M278.111 12.313c-2.242-3.422-6.842-4.385-10.274-2.15a7.388 7.388 0 00-2.156 10.244l2.171-1.37a4.798 4.798 0 011.401-6.651 4.828 4.828 0 016.671 1.396l2.187-1.469z" fill="#2B2C30"/><path fill-rule="evenodd" clip-rule="evenodd" d="M269.259 3.578c-7.786 0-14.098 6.294-14.098 14.057 0 7.763 6.312 14.056 14.098 14.056 7.786 0 14.098-6.293 14.098-14.056 0-7.764-6.312-14.057-14.098-14.057zm13.111 14.057c0 7.22-5.87 13.072-13.111 13.072-7.241 0-13.111-5.853-13.111-13.072 0-7.22 5.87-13.073 13.111-13.073 7.241 0 13.111 5.853 13.111 13.073zM270.879 34.68h.902l-.743 3.33h2.426l-.17.75h-3.328l.913-4.08zm-8.514 3.583c-.726.023-1.465-.401-1.645-.746l-.664.386c.304.552.969.994 2.104 1.049 1.481.072 2.1-.765 2.171-1.473.048-.482-.457-1.05-1.061-1.118l-1.31-.171c-.554-.066-.568-.232-.511-.495.079-.373.6-.527.987-.551.553-.035 1.021-.004 1.538.404l.624-.377c-.352-.476-1.107-.674-1.998-.662-1.01.014-1.951.594-1.985 1.343-.025.547.152.99 1.252 1.137l1.035.113c.627.075.581.397.559.546l-.001.007c-.052.367-.327.584-1.095.608zm2.728-1.562c.175-1.23 1.318-2.227 2.552-2.227 1.233 0 2.091.997 1.915 2.227-.176 1.23-1.319 2.227-2.552 2.227-1.234 0-2.091-.998-1.915-2.227zm3.686 0c-.115.799-.857 1.447-1.659 1.447s-1.359-.648-1.245-1.447c.114-.8.857-1.448 1.659-1.448s1.359.648 1.245 1.448zm5.216 0c.176-1.23 1.318-2.227 2.552-2.227s2.091.997 1.915 2.227c-.176 1.23-1.319 2.227-2.552 2.227-1.234 0-2.091-.998-1.915-2.227zm3.685 0c-.114.799-.857 1.447-1.659 1.447s-1.359-.648-1.245-1.447c.115-.8.858-1.448 1.659-1.448.802 0 1.359.648 1.245 1.448z" fill="#fff"/><path fill-rule="evenodd" clip-rule="evenodd" d="M336.673 4.068c1.699 1.618 2.606 3.493 3.032 6.268.407 2.65.381 6.111.345 10.9l-.001.017-.003.37-.008 1.168c-.064 8.9-.093 12.962-3.44 16.148-2.587 2.474-8.16 2.76-12.126 2.76-3.967 0-9.54-.286-12.127-2.76-3.347-3.186-3.376-7.248-3.44-16.148l-.008-1.167-.003-.37v-.002c-.037-4.797-.064-8.263.344-10.917.426-2.774 1.333-4.649 3.031-6.267 2.587-2.474 8.203-2.76 12.203-2.76 3.999 0 9.615.286 12.201 2.76zm2.617 17.55l.003-.37v-.002c.074-9.562.104-13.52-3.132-16.604-2.393-2.288-7.817-2.553-11.689-2.553s-9.297.265-11.69 2.553c-3.236 3.084-3.206 7.042-3.132 16.605l.003.37.008 1.168c.064 8.928.091 12.623 3.197 15.58 2.393 2.288 7.774 2.553 11.614 2.553 3.839 0 9.22-.265 11.613-2.553 3.107-2.957 3.133-6.652 3.197-15.58l.008-1.168z" fill="#E7C63D"/><path d="M328.403 8.495c.643-.78 1.588-1.21 2.722-1.21h4.083v18.281c0 1.758-1.664 3.477-3.365 3.477h-4.196v-1.407c-.643.82-1.625 1.407-2.609 1.407h-4.195v-1.407c-.643.82-1.626 1.407-2.609 1.407h-4.196V10.839c0-2.148 1.475-3.555 3.478-3.555h4.083v1.211c.642-.78 1.587-1.21 2.721-1.21h4.083v1.21z" fill="#E7C63D"/><path d="M314.793 28.262h3.44c1.21 0 2.609-1.172 2.609-2.696v-17.5h-3.327c-1.55 0-2.722 1.015-2.722 2.773v17.423z" fill="#009FE1"/><path d="M321.599 28.262h3.44c1.21 0 2.608-1.172 2.608-2.696v-17.5h-3.326c-1.55 0-2.722 1.015-2.722 2.773v17.423z" fill="#CC2229"/><path d="M328.403 28.262h3.44c1.209 0 2.608-1.172 2.608-2.696v-17.5h-3.326c-1.55 0-2.722 1.015-2.722 2.773v17.423z" fill="#33A457"/><path d="M315.738 18.652h-.945c.265 1.094 1.513 1.953 2.911 1.953 1.286 0 3.025-.742 3.025-2.148v-2.54h-2.155v2.54c0 .742-.567 1.328-1.361 1.328-.718 0-1.361-.469-1.475-1.133z" fill="#fff"/><path fill-rule="evenodd" clip-rule="evenodd" d="M314.179 32.516c.079.457.521.78 1.016.78.547 0 .938-.404.938-.916v-1.749h1.485v1.75c0 .968-1.198 1.48-2.084 1.48-.964 0-1.823-.592-2.006-1.345h.651zm7.788.565v.511h-2.5c-.782 0-1.433-.673-1.433-1.48 0-.808.651-1.48 1.433-1.48h2.5v.538c-.599-.135-1.172-.216-1.458-.216-.626 0-1.121.512-1.121 1.157 0 .647.495 1.158 1.121 1.158.286 0 .859-.054 1.458-.188zm4.376-.216c0-.404-.338-.727-.782-.727.391 0 .73-.35.73-.753 0-.404-.339-.754-.73-.754h-3.281v2.961h3.281c.444 0 .782-.323.782-.727zm-2.813.404h1.042c.26 0 .495-.242.495-.511 0-.27-.235-.512-.495-.512h-1.042v1.023zm0-1.292v-1.023h1.016c.26 0 .495.242.495.511 0 .27-.235.512-.495.512h-1.016z" fill="#2B2C30"/><path fill-rule="evenodd" clip-rule="evenodd" d="M333.318 20.215c.642 0 1.134-.47 1.134-1.055 0-.586-.492-1.055-1.134-1.055.567 0 1.058-.508 1.058-1.094 0-.585-.491-1.093-1.058-1.093h-4.764v4.297h4.764zm-1.475-2.344h-1.474v-1.485h1.474c.378 0 .718.352.718.742 0 .391-.34.743-.718.743zm.038 1.875c.378 0 .718-.352.718-.742 0-.391-.34-.743-.718-.743h-1.512v1.485h1.512zm-4.385.469v-.742c-.87.195-1.701.273-2.117.273-.907 0-1.625-.742-1.625-1.68 0-.937.718-1.68 1.625-1.68.416 0 1.248.118 2.117.313v-.781h-3.629c-1.134 0-2.079.976-2.079 2.148 0 1.172.945 2.149 2.079 2.149h3.629z" fill="#fff"/><path fill-rule="evenodd" clip-rule="evenodd" d="M335.515 28.889c0-.06-.015-.114-.064-.148-.042-.027-.104-.028-.152-.028h-.266v.572h.109v-.242h.107l.123.242h.126l-.135-.242c.099-.007.152-.05.152-.154zm-7.543 3.667c0 .243.012.643.278.643.184 0 .19-.364.194-.586.001-.036.001-.068.003-.094h.39l-.002.045-.007.128c-.017.54-.144.952-.578.952-.636 0-.676-.577-.676-1.365v-.42c.014-.755.057-1.316.676-1.316.347.009.541.26.567.763l.001.013c.005.074.01.144.008.214h-.382a2.201 2.201 0 01-.007-.097c-.011-.193-.025-.447-.187-.447-.283 0-.28.448-.278.695v.871zm1.012 1.018l.495-2.96h.523l.471 2.96h-.416l-.101-.75h-.454l-.104.75h-.414zm.578-1.183l.116-.841c.015-.102.022-.2.029-.3a66.198 66.198 0 00.023-.31h.006l.001.015c.005.06.011.121.013.183l.008.11c.008.1.015.199.03.302l.107.841h-.333zm2.122-.342c.229.04.298.251.298.536v.035c-.001.188-.004.82.084.901v.054h-.428c-.038-.156-.039-.426-.04-.628v-.123l-.001-.03c-.003-.177-.006-.402-.132-.457a.818.818 0 00-.304-.037h-.096v1.275h-.387v-2.961h.734c.336 0 .59.165.59.709 0 .326-.058.664-.318.717v.009zm-.312-.186h-.307v-.817h.289c.148.005.243.062.243.392 0 .297-.098.417-.225.425zm1.014-1.25h.807c.096 0 .283.059.402.335.09.206.116.536.116 1.022 0 .586 0 1.262-.321 1.526-.084.07-.191.078-.286.078h-.718v-2.96zm.556 2.528h-.168v-2.095h.255c.231 0 .283.276.283.978 0 .857-.023 1.117-.37 1.117zm1.696-1.455c.127.115.364.338.471.486.133.186.173.363.174.619 0 .56-.261.853-.64.853-.465 0-.63-.37-.63-.899v-.218h.388v.173c-.009.289.052.5.242.5.165 0 .24-.125.24-.347a.515.515 0 00-.153-.392c-.067-.076-.141-.144-.214-.213-.146-.137-.293-.274-.399-.471a1.074 1.074 0 01-.098-.454c0-.503.199-.78.607-.78.597 0 .602.631.604.938l.001.032h-.373c.002-.264-.015-.524-.229-.524-.13 0-.211.074-.211.276 0 .226.098.313.219.42h.001zm.504-2.73h.16c.061.003.105-.012.105-.084 0-.075-.079-.075-.132-.075h-.133v.16z" fill="#2B2C30"/><path fill-rule="evenodd" clip-rule="evenodd" d="M334.73 28.995a.522.522 0 01.514-.527.52.52 0 01.511.527.52.52 0 01-.512.53.522.522 0 01-.513-.53zm.098.001c0 .237.186.43.416.43a.421.421 0 00.414-.431.42.42 0 00-.414-.428.422.422 0 00-.416.43z" fill="#2B2C30"/><path fill-rule="evenodd" clip-rule="evenodd" d="M101.692 31.391v4.497h-.724v-.39c-.23.289-.578.47-1.051.47-.933 0-1.664-.705-1.664-1.684 0-.98.731-1.684 1.664-1.684.473 0 .821.181 1.051.47v-1.68h.724zm-27.14 1.288v1.604h-.001v1.605h-.723v-.39c-.23.289-.578.47-1.05.47-.934 0-1.665-.705-1.665-1.684 0-.98.732-1.684 1.664-1.684.474 0 .822.181 1.051.47v-.391h.724zm-2.694 1.604c0-.564.383-1.027 1.01-1.027.598 0 1.002.444 1.002 1.027 0 .584-.404 1.027-1.003 1.027-.626 0-1.009-.463-1.009-1.027zm31.278 1.236a.346.346 0 00-.238-.094l.001-.003a.346.346 0 00-.313.195.304.304 0 000 .247.344.344 0 00.071.105.348.348 0 00.241.093.338.338 0 00.31-.195.304.304 0 00-.072-.348zm-.239.47a.251.251 0 00.181-.072.241.241 0 000-.35.26.26 0 00-.081-.053.276.276 0 00-.201 0 .245.245 0 000 .458c.032.013.067.02.101.02v-.002zm.111-.372a.143.143 0 00-.091-.025h.001-.141v.295h.065v-.11h.03l.093.11h.078l-.101-.111a.124.124 0 00.072-.03.079.079 0 00.026-.06.085.085 0 00-.032-.069zm-.167.108v-.078h.076a.063.063 0 01.04.01.03.03 0 01.015.028.033.033 0 01-.015.03.08.08 0 01-.04.01h-.076zm-3.843-1.442c0-.564.383-1.027 1.009-1.027.599 0 1.002.444 1.002 1.027 0 .584-.403 1.027-1.002 1.027-.626 0-1.01-.463-1.01-1.027zm-15.466-1.06c.466 0 .765.282.842.778h-1.727c.078-.463.37-.778.885-.778zm-1.644 1.06c0-1.001.683-1.685 1.658-1.685.93 0 1.572.684 1.58 1.684 0 .092-.008.178-.015.263v.005h-2.47c.104.577.528.786.994.786.334 0 .69-.121.968-.336l.355.517c-.404.329-.863.45-1.364.45-.996 0-1.706-.665-1.706-1.685zm10.393-.001c0-.564.383-1.027 1.009-1.027.598 0 1.002.443 1.002 1.027 0 .584-.404 1.027-1.002 1.027-.626 0-1.01-.463-1.01-1.027zm2.692-1.603v3.209h-.723v-.39c-.23.289-.577.47-1.05.47-.933 0-1.665-.705-1.665-1.684 0-.98.732-1.684 1.665-1.684.473 0 .82.181 1.05.47v-.391h.724zm-6.778 1.603c0 .973.702 1.684 1.774 1.684.502 0 .835-.108 1.197-.382l-.348-.564a1.498 1.498 0 01-.872.289c-.577-.007-1.002-.41-1.002-1.027s.425-1.02 1.002-1.027c.314 0 .6.1.872.289l.347-.564c-.361-.275-.695-.382-1.196-.382-1.072 0-1.774.71-1.774 1.684zm8.45-1.214a.99.99 0 01.876-.47c.146 0 .355.027.515.088l-.223.657a1.211 1.211 0 00-.452-.08c-.473 0-.71.294-.71.825v1.798h-.724v-3.207h.717v.389zm-18.516-.134c-.349-.221-.828-.336-1.357-.336-.843 0-1.386.39-1.386 1.027 0 .523.404.845 1.148.946l.342.047c.397.054.584.154.584.335 0 .248-.263.39-.758.39-.501 0-.863-.155-1.107-.336l-.34.544c.397.282.898.416 1.44.416.961 0 1.518-.436 1.518-1.046 0-.564-.438-.859-1.162-.96l-.341-.047c-.313-.04-.564-.1-.564-.315 0-.234.236-.375.633-.375.425 0 .836.154 1.038.274l.313-.563-.001-.001zm8.459.135a.988.988 0 01.876-.47c.146 0 .355.026.515.087l-.223.657a1.21 1.21 0 00-.452-.08c-.473 0-.71.294-.71.825v1.798h-.723v-3.207h.717v.39zm-5.298-.39h-1.183v-.973h-.731v.973H78.7v.637h.675v1.463c0 .744.3 1.187 1.155 1.187.314 0 .676-.093.905-.248l-.209-.597a1.38 1.38 0 01-.64.182c-.362 0-.48-.215-.48-.537v-1.45h1.183v-.637zm-10.816 1.195v2.012l-.733-.001V34.1c0-.543-.236-.845-.73-.845-.48 0-.814.296-.814.852v1.778h-.732v-1.784c0-.544-.243-.846-.723-.846-.495 0-.815.296-.815.853v1.778h-.73v-3.207h.724v.396c.272-.375.62-.476.975-.476.508 0 .87.215 1.1.57.306-.45.744-.577 1.169-.57.807.007 1.309.517 1.309 1.275z" fill="#231F20"/><path fill-rule="evenodd" clip-rule="evenodd" d="M103.253 24.75v.47h-.088v-.355l-.137.306h-.094l-.137-.305v.354h-.09v-.47h.127l.146.322.147-.322h.126zm-.803.081v.389h-.09v-.389h-.162v-.08h.414v.08h-.162z" fill="#F79410"/><path d="M88.854 27.23H77.891V8.24h10.964v18.99z" fill="#FF5F00"/><path d="M78.585 17.735c0-3.852 1.872-7.284 4.786-9.496a12.776 12.776 0 00-7.743-2.582c-6.92 0-12.53 5.407-12.53 12.078 0 6.67 5.61 12.078 12.53 12.078a12.772 12.772 0 007.743-2.582c-2.914-2.211-4.786-5.643-4.786-9.496z" fill="#EB001B"/><path d="M103.645 17.735c0 6.67-5.609 12.078-12.529 12.078a12.78 12.78 0 01-7.744-2.582c2.915-2.212 4.786-5.643 4.786-9.496 0-3.853-1.871-7.284-4.786-9.496a12.78 12.78 0 017.744-2.582c6.92 0 12.529 5.407 12.529 12.078" fill="#F79E1B"/><path fill-rule="evenodd" clip-rule="evenodd" d="M166.356 24.753v.469h-.09v-.354l-.137.305h-.093l-.137-.305v.354h-.09v-.47h.128l.145.323.147-.322h.127zm-.805.08v.389h-.09v-.389h-.162v-.078h.415v.078h-.163z" fill="#0099DF"/><path d="M151.953 27.233h-10.965V8.24h10.965v18.994z" fill="#6C6BBD"/><path d="M141.685 17.736c0-3.853 1.871-7.285 4.786-9.497a12.777 12.777 0 00-7.745-2.582c-6.921 0-12.531 5.408-12.531 12.08 0 6.671 5.61 12.08 12.531 12.08 2.81.003 5.539-.907 7.745-2.584-2.915-2.211-4.786-5.643-4.786-9.497z" fill="#EB001B"/><path d="M166.747 17.736c0 6.672-5.61 12.08-12.531 12.08a12.784 12.784 0 01-7.746-2.582c2.915-2.212 4.787-5.645 4.787-9.498 0-3.853-1.872-7.285-4.787-9.496a12.784 12.784 0 017.746-2.583c6.921 0 12.531 5.408 12.531 12.08" fill="#0099DF"/><path fill-rule="evenodd" clip-rule="evenodd" d="M152.987 33.318h.002-.002zm0 0h-1.182v1.449c0 .322.118.537.481.537.188 0 .425-.06.64-.182l.208.597c-.229.154-.591.249-.904.249-.857 0-1.155-.443-1.155-1.188v-1.462h-.676v-.637h.675v-.973h.73v.973h1.183v.637zm3.192-.63a1.6 1.6 0 00-.515-.087V32.6a.99.99 0 00-.877.47v-.389h-.717v3.208h.724V34.09c0-.53.236-.825.71-.825.154-.002.308.026.452.081l.223-.657zm-12.456 1.314c.077-.463.369-.78.885-.78.466 0 .765.283.842.78h-1.727zm.898-1.403c.932 0 1.574.684 1.581 1.684h-.001c0 .091-.006.175-.013.26l-.001.009h-2.471c.105.576.529.785.995.785.334 0 .689-.121.968-.336l.355.517c-.404.328-.863.449-1.364.449-.996 0-1.706-.664-1.706-1.684 0-1 .682-1.684 1.657-1.684zm4.761.9a2.196 2.196 0 00-1.037-.275c-.397 0-.633.141-.633.376 0 .215.25.275.563.315l.341.047c.724.102 1.162.397 1.162.96 0 .61-.556 1.047-1.517 1.047-.543 0-1.044-.134-1.441-.416l.341-.544c.243.181.606.335 1.108.335.494 0 .758-.14.758-.389 0-.18-.188-.282-.585-.335l-.341-.047c-.745-.101-1.149-.423-1.149-.946 0-.637.544-1.027 1.386-1.027.529 0 1.009.115 1.357.336l-.313.564zm8.513-.16a1.13 1.13 0 01.415-.076h.001a1.13 1.13 0 01.415.075.997.997 0 01.556.539c.106.27.106.567 0 .837a.984.984 0 01-.556.538c-.267.1-.564.1-.831 0a.983.983 0 01-.552-.538 1.142 1.142 0 010-.837.983.983 0 01.552-.539zm.416-.739a1.95 1.95 0 01.717.13c.212.082.406.203.57.356.162.153.29.335.377.536.182.432.182.914 0 1.346a1.624 1.624 0 01-.377.537 1.763 1.763 0 01-.57.356 2.06 2.06 0 01-1.435 0 1.746 1.746 0 01-.567-.356 1.642 1.642 0 01-.375-.537 1.726 1.726 0 010-1.346c.176-.408.516-.73.943-.892.228-.088.471-.132.717-.13zm0 0h-.001.001zm-17.809.658c-.626 0-1.009.463-1.009 1.026 0 .564.383 1.026 1.01 1.026.598 0 1.002-.442 1.002-1.026 0-.583-.404-1.026-1.003-1.026zm1.685 1.027V32.68h-.724v.389c-.23-.289-.577-.47-1.051-.47-.932 0-1.663.703-1.663 1.684 0 .98.729 1.684 1.663 1.684.474 0 .821-.181 1.051-.47v.39h.724v-1.603zm-4.079-.41v2.013h-.732v-1.785c0-.544-.237-.845-.732-.845-.479 0-.814.295-.814.852v1.778h-.73v-1.785c0-.544-.243-.845-.724-.845-.494 0-.814.295-.814.852v1.778h-.73v-3.207h.724v.396c.271-.376.619-.476.974-.476.508 0 .871.215 1.1.57.306-.45.745-.577 1.17-.57.807.007 1.308.517 1.308 1.275zm22.817 1.772v.078h.076a.074.074 0 00.04-.01.032.032 0 00.016-.03.03.03 0 00-.016-.029.07.07 0 00-.04-.01h-.076zm.166-.03a.143.143 0 00-.091-.025h-.142v.294h.067v-.11h.03l.093.11h.078l-.101-.11a.129.129 0 00.072-.03.082.082 0 00.026-.06.085.085 0 00-.032-.07zm-.11.372a.26.26 0 00.235-.15.242.242 0 00-.136-.325.263.263 0 00-.201 0 .25.25 0 00-.083.052.247.247 0 000 .352.264.264 0 00.185.072v-.002zm.13-.54a.35.35 0 00-.371.069.304.304 0 000 .45.345.345 0 00.371.068.327.327 0 00.18-.17.305.305 0 00-.072-.349.337.337 0 00-.108-.068z" fill="#231F20"/><path fill-rule="evenodd" clip-rule="evenodd" d="M29.418 15.384l-.47 2.715c-1.407-.776-4.611-.96-4.611.47 0 .568.724.959 1.598 1.43 1.326.713 2.993 1.612 2.993 3.593 0 3.166-3.387 4.33-5.632 4.33-2.245 0-3.714-.715-3.714-.715l.49-2.839c1.346 1.082 5.428 1.39 5.428-.326 0-.721-.803-1.147-1.735-1.64-1.286-.68-2.815-1.49-2.815-3.383 0-3.472 3.877-4.186 5.51-4.186 1.51 0 2.958.55 2.958.55zm-17.92-.326L8.36 23.755l-.371-1.873-1.107-5.686s-.134-1.138-1.56-1.138H.136l-.06.214s1.585.33 3.44 1.445l2.859 10.986h3.428l5.234-12.645h-3.54zm6.056 12.645h-3.29L16.32 15.06h3.29l-2.056 12.644zm22.841 0h-3.02l-.386-1.878h-4.182l-.686 1.878h-3.43L33.599 16s.298-.942 1.519-.942h2.645l2.633 12.645zm-6.64-4.473l1.728-4.732.973 4.732h-2.702z" fill="#2566AF"/><path d="M7.99 21.883l-1.107-5.686s-.134-1.139-1.56-1.139H.136l-.06.214s2.491.517 4.882 2.454c2.286 1.85 3.03 4.157 3.03 4.157z" fill="#E6A540"/></svg>