<svg width="167" height="32" fill="none" xmlns="http://www.w3.org/2000/svg"><path d="M151.099 16.74V4.158h-23.39v9.739l.879-1.998h1.483l.495 1.18v-1.18h1.813l.549 1.18.536-1.18h6.4c.247 0 .59.083.742.36v-.36h1.346v.43c.164-.236.425-.43.947-.43h2.733l.495 1.151V11.9h1.62l.563.999V11.9h1.484v3.69H148.2l-.659-1.096v1.096h-2.019l-.316-.721h-.645l-.302.72h-1.264c-.274-.027-.906-.138-1.043-.568v.569h-2.431v-.819c0-.11-.11-.25-.248-.25h-.261v1.069h-5.164v-.832l-.398.832h-1.044l-.398-.847v.847h-2.074l-.275-.666H129l-.289.666h-1.002v11.888h23.39v-7.283c-.124.139-.33.25-.632.25h-1.95v-.278c-.152.167-.357.278-.701.278h-5.507v-.777c-.014-.097.041-.305-.234-.305h-.233v1.082h-1.456v-1.249c-.151.25-.481.264-.701.278h-.769v.971h-1.95l-.563-.694-.605.694h-3.323V16.74h3.378l.577.68.605-.68h2.664c.193.014.55.111.687.305v-.305h2.266c.206 0 .591.097.756.36v-.36h2.856v.333c.151-.208.385-.333.755-.333h1.827v.32c.138-.209.495-.32.715-.32h1.538z" fill="#00ACEC"/><path d="M165.466 18.987l-8.433 8.49h1.195l7.238-7.283v-1.207z" fill="#33348E"/><path d="M165.465 21.36l-6.07 6.117h1.194l4.876-4.911v-1.207z" fill="#00ACEC"/><path d="M165.465 23.731l-3.721 3.746h1.208l2.513-2.538V23.73z" fill="#33A457"/><path fill-rule="evenodd" clip-rule="evenodd" d="M126.473 2.896h40.366v25.87h-40.366V2.897zm.468 25.413h39.473V3.368h-39.473v24.94z" fill="#00ACEC"/><path fill-rule="evenodd" clip-rule="evenodd" d="M152.225 26.367a1.066 1.066 0 011.818-.755 1.07 1.07 0 01-.747 1.823c-.59 0-1.071-.486-1.071-1.068zm.137 0c0 .513.412.93.934.943.508 0 .92-.43.92-.943a.928.928 0 00-.92-.943.931.931 0 00-.934.943z" fill="#00ACEC"/><path fill-rule="evenodd" clip-rule="evenodd" d="M132.077 12.329l.837 1.9.839-1.9h1.099v2.83h-.687v-2.067l-.934 2.067h-.632l-.92-2.109v2.109h-1.388l-.274-.638h-1.374l-.261.638h-.728l1.222-2.83h.907l1.209 2.719v-2.72h1.085zm21.755 13.747a.298.298 0 00-.123-.25c-.096-.055-.193-.055-.289-.055h-.522v1.193h.151v-.555h.261l.343.555h.165l-.357-.555c.206 0 .371-.098.371-.333zm-.535.222h-.248v-.43h.33c.151 0 .316.027.316.208 0 .223-.21.223-.372.222h-.026zM129.33 13.91h-.412l.412-.985v.028l.426.957h-.426zm10.424-1.581c.344 0 .825.153.825.749 0 .347-.096.597-.468.791.316.042.44.25.44.707l.027.583h-.672l-.014-.527c0-.236-.096-.472-.344-.472h-.892v.999h-.687v-2.83h1.785zm-.246 1.248h-.852v-.638h.852c.288 0 .384.18.384.32 0 .193-.096.318-.384.318zm2.113 1.582h-.686v-2.83h.686v2.83zm7.089-2.83v1.956l-1.168-1.956h-1.016v2.65l-1.181-2.65h-.907l-.948 2.192s-.343 0-.384-.014c-.22-.028-.481-.25-.481-.75 0-.665.357-.818.81-.818h.426v-.61h-.893c-.315 0-1.002.236-1.016 1.4-.027.778.316 1.43 1.085 1.43h.907l.261-.638h1.373l.275.638h1.36v-2.067l1.236 2.067h.948v-2.83h-.687zm-4.231 1.581h.838l-.412-.957-.014-.028-.412.985zm-9.161 1.249h2.253v-.597h-1.566v-.555h1.525v-.54h-1.525v-.528h1.566v-.61h-2.253v2.83zm12.191 3.115l.211.006c.852.041.92.471.92.93 0 .527-.425.804-.879.804h-1.442v-.597h1.127c.192 0 .466 0 .466-.277 0-.125-.041-.208-.247-.236a6.521 6.521 0 00-.481-.027c-.755-.015-.934-.403-.934-.874 0-.528.371-.82.811-.82h1.456v.611h-1.12c-.227-.002-.446-.004-.446.25 0 .166.124.208.288.222l.269.008h.001zm2.793.006l-.212-.006-.268-.008c-.165-.014-.289-.056-.289-.222 0-.255.22-.252.436-.25h1.116v-.61h-1.442c-.453 0-.824.291-.824.819 0 .47.178.86.948.873.055 0 .384.014.48.028.193.028.247.111.247.236 0 .277-.288.277-.48.277h-1.126v.597h1.455c.454 0 .879-.277.879-.805 0-.458-.068-.887-.92-.93zm-13.103-1.096h2.418c.343 0 .837.166.837.86 0 .999-.659 1.012-1.016 1.012h-.92v.958h-1.319l-.81-.944-.824.93h-2.637v-2.816h2.719l.769.874.783-.874zm-2.005 2.233h-1.566v-.568h1.511v-.527h-1.511v-.528h1.566l.769.763-.769.86zm2.143-.263l.494.583V17.46l-.494.555-.495.541.495.597zm2.033-.68h-.852v-.68h.852c.288 0 .385.18.385.32 0 .193-.096.36-.385.36zm3.2-1.29c.33 0 .824.152.824.763 0 .333-.096.597-.481.777.33.041.454.25.454.707l.027.583h-.673l-.014-.514c-.013-.25-.109-.485-.343-.485h-.906v.999h-.687v-2.83h1.799zm-.247 1.248h-.865v-.638h.865c.288 0 .384.18.384.32.001.193-.109.318-.384.318zM145.976 20h-2.239v-2.816h2.239v.61h-1.552v.527h1.511v.528h-1.511v.568h1.552V20zm8.062-2.553c-.577 0-.687-.457-.687-.943 0-.666.247-1.012.631-1.012.358 0 .591.208.619.568h1.071c-.082-.887-.673-1.414-1.731-1.414-.961 0-1.716.693-1.716 1.817 0 1.137.686 1.83 1.826 1.83.907 0 1.552-.54 1.649-1.428h-1.085c-.042.333-.221.582-.577.582zm3.227-1.83c1.195 0 1.264.443 1.264 1.04v1.179c0 .153.014.278.055.375h-.893l-.109-.264a1.129 1.129 0 01-.454.277 1.753 1.753 0 01-.481.056c-.48 0-.892-.236-.892-.763 0-.687.642-.767 1.153-.83.077-.01.151-.019.22-.03.233-.042.412-.083.412-.236 0-.18-.233-.208-.329-.208-.028 0-.056 0-.083.014-.123 0-.247.055-.275.236h-.947c0-.514.343-.819 1.222-.847h.137zm-.137 2.094h-.083c-.206 0-.316-.083-.316-.208 0-.208.179-.25.399-.291l.036-.008a1.81 1.81 0 00.376-.103c0 .43-.124.582-.412.61zm2.514-2.025v.513c.137-.402.384-.583.769-.583a.46.46 0 01.137.014v.846h-.206c-.412 0-.618.194-.618.736v.998h-.989v-2.524h.907zm2.788-.944v1.193a.946.946 0 00-.398-.277 1.335 1.335 0 00-.358-.041c-.59 0-1.057.54-1.057 1.373 0 .722.384 1.29 1.14 1.29.096 0 .192 0 .275-.028.192-.055.329-.166.494-.374v.333h.893v-3.468h-.989zm-.426 2.816h.028c.33-.013.426-.305.426-.582 0-.277-.096-.582-.426-.582-.33 0-.412.318-.412.596 0 .263.055.568.384.568z" fill="#00ACEC"/><path fill-rule="evenodd" clip-rule="evenodd" d="M101.692 26.391v4.496h-.724v-.389c-.23.289-.578.47-1.051.47-.933 0-1.664-.705-1.664-1.684 0-.98.731-1.684 1.664-1.684.473 0 .821.181 1.051.47v-1.68h.724zm-27.14 1.288v1.604h-.001v1.604h-.723v-.389c-.23.289-.578.47-1.05.47-.934 0-1.665-.705-1.665-1.684 0-.98.732-1.684 1.664-1.684.474 0 .822.181 1.051.47v-.391h.724zm-2.694 1.604c0-.564.383-1.027 1.01-1.027.598 0 1.002.444 1.002 1.027 0 .584-.404 1.027-1.003 1.027-.626 0-1.009-.463-1.009-1.027zm31.278 1.236a.346.346 0 00-.238-.094l.001-.003a.346.346 0 00-.313.195.304.304 0 000 .247.344.344 0 00.071.105.348.348 0 00.241.093.338.338 0 00.31-.195.304.304 0 00-.072-.348zm-.239.47a.251.251 0 00.181-.072.241.241 0 000-.35.26.26 0 00-.081-.053.276.276 0 00-.201 0 .245.245 0 000 .458c.032.013.067.02.101.02v-.003zm.111-.372a.143.143 0 00-.091-.025h.001-.141v.295h.065v-.11h.03l.093.11h.078l-.101-.111a.124.124 0 00.072-.03.079.079 0 00.026-.06.085.085 0 00-.032-.069zm-.167.108v-.078h.076a.063.063 0 01.04.01.03.03 0 01.015.028.033.033 0 01-.015.03.08.08 0 01-.04.01h-.076zm-3.843-1.442c0-.564.383-1.027 1.009-1.027.599 0 1.002.444 1.002 1.027 0 .584-.403 1.027-1.002 1.027-.626 0-1.01-.463-1.01-1.027zm-15.466-1.06c.466 0 .765.282.842.778h-1.727c.078-.463.37-.778.885-.778zm-1.644 1.06c0-1.001.683-1.685 1.658-1.685.93 0 1.572.684 1.58 1.684 0 .092-.008.178-.015.263v.005h-2.47c.104.577.528.785.994.785.334 0 .69-.12.968-.335l.355.517c-.404.329-.863.45-1.364.45-.996 0-1.706-.665-1.706-1.685zm10.393-.001c0-.564.383-1.027 1.009-1.027.598 0 1.002.443 1.002 1.027 0 .584-.404 1.027-1.002 1.027-.626 0-1.01-.463-1.01-1.027zm2.692-1.603v3.208h-.723v-.389c-.23.289-.577.47-1.05.47-.933 0-1.665-.705-1.665-1.684 0-.98.732-1.684 1.665-1.684.473 0 .82.181 1.05.47v-.391h.724zm-6.778 1.603c0 .973.702 1.684 1.774 1.684.502 0 .835-.108 1.197-.382l-.348-.564a1.498 1.498 0 01-.872.289c-.577-.007-1.002-.41-1.002-1.027s.425-1.02 1.002-1.027c.314 0 .6.1.872.289l.347-.564c-.361-.275-.695-.382-1.196-.382-1.072 0-1.774.71-1.774 1.684zm8.45-1.214a.99.99 0 01.876-.47c.146 0 .355.027.515.088l-.223.657a1.211 1.211 0 00-.452-.08c-.473 0-.71.294-.71.825v1.798h-.724v-3.207h.717v.389zm-18.516-.134c-.349-.221-.828-.336-1.357-.336-.843 0-1.386.39-1.386 1.027 0 .523.404.845 1.148.946l.342.047c.397.054.584.154.584.335 0 .248-.263.39-.758.39-.501 0-.863-.154-1.107-.336l-.34.544c.397.282.898.416 1.44.416.961 0 1.518-.436 1.518-1.046 0-.564-.438-.859-1.162-.96l-.341-.047c-.313-.04-.564-.1-.564-.315 0-.234.236-.375.633-.375.425 0 .836.154 1.038.274l.313-.563-.001-.001zm8.459.135a.988.988 0 01.876-.47c.146 0 .355.026.515.087l-.223.657a1.21 1.21 0 00-.452-.08c-.473 0-.71.294-.71.825v1.798h-.723v-3.207h.717v.39zm-5.298-.39h-1.183v-.973h-.731v.973H78.7v.637h.675v1.463c0 .744.3 1.187 1.155 1.187.314 0 .676-.093.905-.248l-.209-.597a1.38 1.38 0 01-.64.182c-.362 0-.48-.215-.48-.537v-1.45h1.183v-.637zm-10.816 1.195v2.013l-.733-.002V29.1c0-.543-.236-.845-.73-.845-.48 0-.814.296-.814.852v1.778h-.732v-1.784c0-.544-.243-.846-.723-.846-.495 0-.815.296-.815.853v1.778h-.73v-3.207h.724v.396c.272-.375.62-.476.975-.476.508 0 .87.215 1.1.57.306-.45.744-.577 1.169-.57.807.007 1.309.517 1.309 1.275z" fill="#231F20"/><path fill-rule="evenodd" clip-rule="evenodd" d="M103.253 19.75v.47h-.088v-.355l-.137.306h-.094l-.137-.305v.354h-.09v-.47h.127l.146.322.147-.322h.126zm-.803.081v.389h-.09v-.389h-.162v-.08h.414v.08h-.162z" fill="#F79410"/><path d="M88.854 22.23H77.891V3.24h10.964v18.99z" fill="#FF5F00"/><path d="M78.585 12.735c0-3.852 1.872-7.284 4.786-9.496A12.776 12.776 0 0075.628.657c-6.92 0-12.53 5.407-12.53 12.078 0 6.67 5.61 12.078 12.53 12.078a12.772 12.772 0 007.743-2.582c-2.914-2.211-4.786-5.643-4.786-9.496z" fill="#EB001B"/><path d="M103.645 12.735c0 6.67-5.609 12.078-12.529 12.078a12.78 12.78 0 01-7.744-2.582c2.915-2.212 4.786-5.643 4.786-9.496 0-3.853-1.871-7.284-4.786-9.496A12.78 12.78 0 0191.116.657c6.92 0 12.529 5.407 12.529 12.078" fill="#F79E1B"/><path fill-rule="evenodd" clip-rule="evenodd" d="M29.418 10.384l-.47 2.715c-1.407-.776-4.611-.96-4.611.47 0 .568.724.959 1.598 1.43 1.326.713 2.993 1.612 2.993 3.593 0 3.166-3.387 4.33-5.632 4.33-2.245 0-3.714-.715-3.714-.715l.49-2.839c1.346 1.082 5.428 1.39 5.428-.326 0-.721-.803-1.147-1.735-1.64-1.286-.68-2.815-1.49-2.815-3.383 0-3.473 3.877-4.186 5.51-4.186 1.51 0 2.958.55 2.958.55zm-17.92-.326L8.36 18.755l-.371-1.873-1.107-5.686s-.134-1.138-1.56-1.138H.136l-.06.214s1.585.33 3.44 1.445l2.859 10.986h3.428l5.234-12.645h-3.54zm6.056 12.645h-3.29L16.32 10.06h3.29l-2.056 12.644zm22.841 0h-3.02l-.386-1.878h-4.182l-.686 1.878h-3.43l4.907-11.702s.298-.943 1.519-.943h2.645l2.633 12.645zm-6.64-4.473l1.728-4.732.973 4.732h-2.702z" fill="#2566AF"/><path d="M7.99 16.883l-1.107-5.686s-.134-1.139-1.56-1.139H.136l-.06.214s2.491.517 4.882 2.454c2.286 1.85 3.03 4.157 3.03 4.157z" fill="#E6A540"/></svg>