<svg width="341" height="42" viewBox="0 0 341 42" fill="none" xmlns="http://www.w3.org/2000/svg">
<path d="M214.099 21.7399V9.15845H190.709V18.8966L191.588 16.899H193.071L193.566 18.0781V16.899H195.379L195.928 18.0781L196.464 16.899H202.864C203.111 16.899 203.454 16.9822 203.606 17.2596V16.899H204.952V17.3291C205.116 17.0931 205.377 16.899 205.899 16.899H208.632L209.127 18.0504V16.899H210.747L211.31 17.8976V16.899H212.794V20.5889H211.2L210.541 19.493V20.5889H208.522L208.206 19.8676H207.561L207.259 20.5889H205.995C205.721 20.5612 205.089 20.4503 204.952 20.0203V20.5889H202.521V19.7704C202.521 19.6595 202.411 19.5207 202.273 19.5207H202.012V20.5887H196.848V19.7565L196.45 20.5887H195.406L195.008 19.7425V20.5887H192.934L192.659 19.9229H192L191.711 20.5887H190.709V32.4767H214.099V25.194C213.975 25.3329 213.769 25.4438 213.467 25.4438H211.517V25.1664C211.365 25.3329 211.16 25.4438 210.816 25.4438H205.309V24.6667C205.295 24.5697 205.35 24.3616 205.075 24.3616H204.842V25.444H203.386V24.1953C203.235 24.4451 202.905 24.4592 202.685 24.4728H201.916V25.444H199.966L199.403 24.7502L198.798 25.444H195.475V21.7399H198.853L199.43 22.42L200.035 21.7399H202.699C202.892 21.7538 203.249 21.851 203.386 22.0454V21.7399H205.652C205.858 21.7399 206.243 21.8373 206.408 22.1008V21.7399H209.264V22.0731C209.415 21.865 209.649 21.7399 210.019 21.7399H211.846V22.0591C211.984 21.851 212.341 21.7399 212.561 21.7399H214.099Z" fill="#00ACEC"/>
<path d="M228.466 23.9871L220.033 32.4768H221.228L228.466 25.1941V23.9871V23.9871Z" fill="#33348E"/>
<path d="M228.465 26.3594L222.395 32.4766H223.589L228.465 27.566V26.3594V26.3594Z" fill="#00ACEC"/>
<path d="M228.465 28.7314L224.744 32.4767H225.952L228.465 29.9385V28.7314V28.7314Z" fill="#33A457"/>
<path fill-rule="evenodd" clip-rule="evenodd" d="M189.473 7.896H209.676H229.839V33.7667H189.473V7.896ZM189.941 33.3088H229.414L229.414 8.36778H189.941V33.3088Z" fill="#00ACEC"/>
<path fill-rule="evenodd" clip-rule="evenodd" d="M215.225 31.367C215.225 30.7704 215.706 30.2988 216.296 30.2988C216.576 30.2989 216.845 30.4115 217.043 30.6118C217.242 30.8121 217.353 31.0838 217.353 31.367C217.353 31.9491 216.873 32.4348 216.296 32.4348C215.706 32.4348 215.225 31.9493 215.225 31.367ZM215.362 31.3673C215.362 31.88 215.774 32.2964 216.296 32.3104C216.804 32.3104 217.216 31.88 217.216 31.3673C217.216 30.8399 216.804 30.4237 216.296 30.4237C215.774 30.4237 215.362 30.8399 215.362 31.3673Z" fill="#00ACEC"/>
<path fill-rule="evenodd" clip-rule="evenodd" d="M195.077 17.3289L195.914 19.2293L196.753 17.3289H197.852V20.1587H197.165V18.0918L196.231 20.1587H195.599L194.679 18.0502V20.1587H193.291L193.017 19.5206H191.643L191.382 20.1587H190.654L191.876 17.3289H192.783L193.992 20.0478V17.3289H195.077ZM216.832 31.0757C216.832 30.9787 216.791 30.8816 216.709 30.826C216.613 30.7706 216.516 30.7706 216.42 30.7706H215.898V31.9637H216.049V31.4087H216.31L216.653 31.9637H216.818L216.461 31.4087C216.667 31.4085 216.832 31.3115 216.832 31.0757ZM216.297 31.2978H216.049V30.8674H216.379C216.53 30.8674 216.695 30.8951 216.695 31.0755C216.695 31.2994 216.485 31.2985 216.323 31.2978L216.297 31.2978ZM192.33 18.9102H191.918L192.33 17.9253V17.953L192.756 18.91H192.33V18.9102ZM202.754 17.3289C203.098 17.3289 203.579 17.4816 203.579 18.078C203.579 18.4245 203.483 18.6745 203.111 18.8691C203.427 18.9105 203.551 19.1186 203.551 19.5764L203.578 20.1589H202.906L202.892 19.6318C202.892 19.3958 202.796 19.16 202.548 19.16H201.656V20.1587H200.969V17.3289H202.754ZM202.508 18.5773H201.656V17.9392H202.508C202.796 17.9392 202.892 18.1197 202.892 18.2583C202.892 18.4524 202.796 18.5773 202.508 18.5773ZM204.621 20.1587H203.935V17.3289H204.621V20.1587ZM211.71 17.3289V19.2848L210.542 17.3289H209.526V19.9782L208.345 17.3289H207.438L206.49 19.5206C206.49 19.5206 206.147 19.5206 206.106 19.5069C205.886 19.4792 205.625 19.2572 205.625 18.7577C205.625 18.0918 205.982 17.9392 206.435 17.9392H206.861V17.3289H205.968C205.653 17.3289 204.966 17.5646 204.952 18.7298C204.925 19.5067 205.268 20.1587 206.037 20.1587H206.944L207.205 19.5206H208.578L208.853 20.1587H210.213V18.0918L211.449 20.1587H212.397V17.3289H211.71ZM207.479 18.9102H207.905V18.91H208.317L207.905 17.953L207.891 17.9253L207.479 18.9102ZM198.318 20.1587H200.571V19.5623H199.005V19.0072H200.53V18.4661H199.005V17.9392H200.571V17.3289H198.318V20.1587ZM210.509 23.2736L210.509 23.2736C210.608 23.2767 210.701 23.2796 210.72 23.2796C211.572 23.3215 211.64 23.7512 211.64 24.2093C211.64 24.7366 211.215 25.0136 210.761 25.0136H209.319V24.4174H210.446C210.638 24.4174 210.912 24.4174 210.912 24.14C210.912 24.0153 210.871 23.9319 210.665 23.9042C210.569 23.89 210.239 23.8765 210.184 23.8765C209.429 23.8623 209.25 23.4738 209.25 23.0027C209.25 22.4753 209.621 22.1838 210.061 22.1838H211.517V22.7941H210.459C210.438 22.7941 210.418 22.7939 210.397 22.7937C210.17 22.7916 209.951 22.7896 209.951 23.0439C209.951 23.2103 210.075 23.2522 210.239 23.2661C210.269 23.2661 210.393 23.27 210.508 23.2736L210.509 23.2736L210.509 23.2736L210.509 23.2736ZM213.302 23.2796C213.283 23.2796 213.19 23.2767 213.09 23.2736C212.975 23.27 212.851 23.2661 212.822 23.2661C212.657 23.2522 212.533 23.2103 212.533 23.0439C212.533 22.7895 212.753 22.7916 212.969 22.7937C212.989 22.7939 213.008 22.7941 213.028 22.7941H214.085V22.1838H212.643C212.19 22.1838 211.819 22.4753 211.819 23.0027C211.819 23.4738 211.997 23.8623 212.767 23.8765C212.822 23.8765 213.151 23.89 213.247 23.9042C213.44 23.9319 213.494 24.0153 213.494 24.14C213.494 24.4174 213.206 24.4174 213.014 24.4174H211.888V25.0136H213.343C213.797 25.0136 214.222 24.7366 214.222 24.2093C214.222 23.7512 214.154 23.3215 213.302 23.2796ZM200.199 22.1838H202.617C202.96 22.1838 203.454 22.3502 203.454 23.0439C203.454 24.0428 202.795 24.0563 202.438 24.0563H201.518V25.0136H200.199L199.389 24.0705L198.565 25.0001H195.928V22.1838H198.647L199.416 23.058L200.199 22.1838ZM198.194 24.4174H196.628V23.8488H198.139V23.3215H196.628V22.7941H198.194L198.963 23.5573L198.194 24.4174ZM200.337 24.1539L200.831 24.7366V22.4614L200.337 23.0164L199.842 23.5573L200.337 24.1539ZM202.37 23.4738H201.518V22.7941H202.37C202.658 22.7941 202.755 22.9746 202.755 23.1134C202.755 23.3073 202.659 23.4738 202.37 23.4738ZM205.57 22.1838C205.9 22.1838 206.394 22.3365 206.394 22.9469C206.394 23.2796 206.298 23.5435 205.913 23.7235C206.243 23.7652 206.367 23.9733 206.367 24.4309L206.394 25.0136H205.721L205.707 24.5004C205.694 24.2509 205.598 24.0151 205.364 24.0151H204.458V25.0136H203.771V22.1838H205.57ZM205.323 23.4324H204.458V22.7939H205.323C205.611 22.7939 205.707 22.9743 205.707 23.1132C205.708 23.3073 205.598 23.4324 205.323 23.4324ZM208.976 25.0001H206.737V22.1838H208.976V22.7941H207.424V23.3215H208.935V23.8488H207.424V24.4174H208.976V25.0001ZM217.038 22.4472C216.461 22.4472 216.351 21.9896 216.351 21.5041C216.351 20.8383 216.598 20.4916 216.982 20.4916C217.34 20.4916 217.573 20.6998 217.601 21.0602H218.672C218.59 20.1726 217.999 19.6455 216.941 19.6455C215.98 19.6455 215.225 20.3391 215.225 21.4629C215.225 22.6002 215.911 23.2938 217.051 23.2938C217.958 23.2938 218.603 22.7529 218.7 21.8649H217.615C217.573 22.1977 217.394 22.4472 217.038 22.4472ZM220.265 20.6165C221.46 20.6165 221.529 21.0602 221.529 21.6568H221.529V22.836C221.529 22.9887 221.543 23.1136 221.584 23.2106H220.691L220.582 22.9471C220.444 23.0857 220.293 23.1687 220.128 23.2245C219.977 23.2663 219.826 23.2799 219.647 23.2799C219.167 23.2799 218.755 23.0441 218.755 22.5172C218.755 21.8303 219.397 21.7504 219.908 21.6868C219.985 21.6772 220.059 21.668 220.128 21.657C220.361 21.6154 220.54 21.5736 220.54 21.4213C220.54 21.2408 220.307 21.2132 220.211 21.2132C220.183 21.2132 220.155 21.2132 220.128 21.2267C220.005 21.2267 219.881 21.2825 219.853 21.4629H218.906C218.906 20.9495 219.249 20.6442 220.128 20.6165H220.265ZM220.128 22.7111H220.045C219.839 22.7111 219.729 22.6276 219.729 22.503C219.729 22.2949 219.908 22.2533 220.128 22.2119L220.164 22.2044C220.292 22.1786 220.427 22.1512 220.54 22.1007C220.54 22.5307 220.416 22.6834 220.128 22.7111ZM222.642 20.6858V21.1988C222.779 20.7967 223.026 20.6165 223.411 20.6163C223.452 20.6163 223.507 20.6163 223.548 20.6302V21.4762H223.342C222.93 21.4762 222.724 21.6703 222.724 22.2116V23.2101H221.735V20.6858H222.642ZM225.43 19.7425V20.9355C225.306 20.7967 225.183 20.7135 225.032 20.6584C224.936 20.6307 224.812 20.6167 224.674 20.6167C224.084 20.6167 223.617 21.1578 223.617 21.99C223.617 22.7115 224.001 23.2801 224.757 23.2801C224.853 23.2801 224.949 23.2801 225.032 23.2524C225.224 23.1971 225.361 23.0859 225.526 22.8778V23.2106H226.419V19.7425H225.43ZM225.004 22.5583H225.032C225.362 22.5446 225.458 22.253 225.458 21.9763C225.458 21.6987 225.362 21.3936 225.032 21.3936C224.702 21.3936 224.62 21.7124 224.62 21.9898C224.62 22.2533 224.675 22.5583 225.004 22.5583Z" fill="#00ACEC"/>
<path d="M283.624 0.118896C284.491 0.27657 285.984 1.29237 285.984 2.15663V39.5023C285.984 40.3668 284.807 41.54 283.94 41.54H254.577C253.632 41.54 252.534 40.4578 252.534 39.5023V2.47197C252.534 1.60772 253.869 0.27657 254.736 0.118896H283.624Z" fill="#AD338E"/>
<path d="M273.147 15.4575C275.384 18.883 274.413 23.4682 270.978 25.699C267.542 27.9297 262.943 26.9611 260.706 23.5354L262.839 22.1067C264.291 24.3311 267.278 24.9596 269.508 23.5116C271.739 22.0631 272.37 19.0854 270.917 16.8613L273.147 15.4575V15.4575Z" fill="white"/>
<path d="M278.111 12.3134C275.869 8.89101 271.269 7.92847 267.837 10.1635C264.404 12.3985 263.439 16.9851 265.681 20.4075L267.852 19.0377C266.397 16.8154 267.023 13.8371 269.253 12.3855C271.481 10.9342 274.468 11.5592 275.924 13.7817L278.111 12.3134Z" fill="#2B2C30"/>
<path fill-rule="evenodd" clip-rule="evenodd" d="M269.259 3.57788C261.473 3.57788 255.161 9.87161 255.161 17.6346C255.161 25.3976 261.473 31.6911 269.259 31.6911C277.045 31.6911 283.357 25.3976 283.357 17.6346C283.357 9.87137 277.045 3.57788 269.259 3.57788ZM282.37 17.6346C282.37 24.8543 276.5 30.7069 269.259 30.7069C262.018 30.7069 256.148 24.8543 256.148 17.6346C256.148 10.4151 262.018 4.5621 269.259 4.5621C276.5 4.5621 282.37 10.4151 282.37 17.6346ZM270.879 34.6812H271.781L271.038 38.0112H273.464L273.294 38.7611H269.966L270.879 34.6812ZM262.365 38.2636C261.639 38.2867 260.9 37.8627 260.72 37.5179L260.056 37.9044C260.36 38.4564 261.025 38.8979 262.16 38.953C263.641 39.0254 264.26 38.188 264.331 37.48C264.379 36.998 263.874 36.4309 263.27 36.3624L261.96 36.191C261.406 36.125 261.392 35.9593 261.449 35.6956C261.528 35.3232 262.049 35.1686 262.436 35.1446C262.989 35.1102 263.457 35.141 263.974 35.5488L264.598 35.1722C264.246 34.6961 263.491 34.4981 262.6 34.5101C261.59 34.5243 260.649 35.1038 260.615 35.8528C260.59 36.4005 260.767 36.8439 261.867 36.9902L262.902 37.1026C263.529 37.1784 263.483 37.5002 263.461 37.6487L263.46 37.656C263.408 38.0225 263.133 38.2396 262.365 38.2636ZM265.093 36.7017C265.268 35.4717 266.411 34.4748 267.645 34.4748C268.878 34.4748 269.736 35.4717 269.56 36.7017C269.384 37.9318 268.241 38.9287 267.008 38.9287C265.774 38.9287 264.917 37.9315 265.093 36.7017ZM268.779 36.7015C268.664 37.5007 267.922 38.1488 267.12 38.1488C266.318 38.1488 265.761 37.5007 265.875 36.7015C265.989 35.9018 266.732 35.2537 267.534 35.2537C268.336 35.2537 268.893 35.9018 268.779 36.7015ZM273.995 36.7017C274.171 35.4717 275.313 34.4748 276.547 34.4748C277.781 34.4748 278.638 35.4717 278.462 36.7017C278.286 37.9318 277.143 38.9287 275.91 38.9287C274.676 38.9287 273.819 37.9315 273.995 36.7017ZM277.68 36.7015C277.566 37.5007 276.823 38.1488 276.021 38.1488C275.219 38.1488 274.662 37.5007 274.776 36.7015C274.891 35.9018 275.634 35.2537 276.435 35.2537C277.237 35.2537 277.794 35.9018 277.68 36.7015Z" fill="white"/>
<path fill-rule="evenodd" clip-rule="evenodd" d="M336.673 4.06765C338.372 5.68645 339.279 7.56088 339.705 10.3356C340.112 12.9859 340.086 16.447 340.05 21.2351L340.049 21.2531L340.046 21.6236L340.038 22.7907L340.038 22.7912C339.974 31.6908 339.945 35.7526 336.598 38.9388C334.011 41.4128 328.438 41.699 324.472 41.699C320.505 41.699 314.932 41.4128 312.345 38.9392C308.998 35.7526 308.969 31.6908 308.905 22.7911L308.905 22.7907L308.897 21.6236L308.894 21.2531L308.894 21.2523C308.857 16.455 308.83 12.9888 309.238 10.3354C309.664 7.56066 310.571 5.68624 312.269 4.06787C314.856 1.5939 320.472 1.30762 324.472 1.30762C328.471 1.30762 334.087 1.5939 336.673 4.06765ZM339.29 21.6175L339.293 21.2471L339.293 21.2465C339.367 11.6841 339.397 7.72597 336.161 4.6415C333.768 2.35385 328.344 2.08916 324.472 2.08916C320.6 2.08916 315.175 2.35364 312.782 4.64172C309.546 7.72603 309.576 11.6843 309.65 21.2471L309.653 21.6175L309.661 22.7851C309.725 31.7129 309.752 35.408 312.858 38.3651C315.251 40.653 320.632 40.9179 324.472 40.9179C328.311 40.9179 333.692 40.6532 336.085 38.3651C339.192 35.408 339.218 31.7129 339.282 22.7851L339.29 21.6175Z" fill="#E7C63D"/>
<path d="M328.403 8.49539C329.046 7.71406 329.991 7.28442 331.125 7.28442H335.208V25.566C335.208 27.324 333.544 29.0428 331.843 29.0428H327.647V27.6364C327.004 28.4566 326.022 29.0428 325.038 29.0428H320.843V27.6364C320.2 28.4566 319.217 29.0428 318.234 29.0428H314.038V10.8392C314.038 8.69078 315.513 7.28442 317.516 7.28442H321.599V8.49539C322.241 7.71406 323.186 7.28442 324.32 7.28442H328.403V8.49539Z" fill="#E7C63D"/>
<path d="M314.793 28.2616H318.233C319.443 28.2616 320.842 27.0897 320.842 25.5664V8.06592H317.515C315.965 8.06592 314.793 9.0815 314.793 10.8393V28.2616Z" fill="#009FE1"/>
<path d="M321.599 28.2616H325.039C326.249 28.2616 327.647 27.0897 327.647 25.5664V8.06592H324.321C322.771 8.06592 321.599 9.0815 321.599 10.8393V28.2616Z" fill="#CC2229"/>
<path d="M328.403 28.2616H331.843C333.052 28.2616 334.451 27.0897 334.451 25.5664V8.06592H331.125C329.575 8.06592 328.403 9.0815 328.403 10.8393V28.2616V28.2616Z" fill="#33A457"/>
<path d="M315.738 18.652H314.793C315.058 19.7458 316.306 20.6053 317.704 20.6053C318.99 20.6053 320.729 19.863 320.729 18.4567V15.9175H318.574V18.4567C318.574 19.1989 318.007 19.7849 317.213 19.7849C316.495 19.7849 315.852 19.3161 315.738 18.652Z" fill="white"/>
<path fill-rule="evenodd" clip-rule="evenodd" d="M314.179 32.5155C314.258 32.973 314.7 33.2955 315.195 33.2955C315.742 33.2955 316.133 32.892 316.133 32.3805V30.6313H317.618V32.3805C317.618 33.3495 316.42 33.861 315.534 33.861C314.57 33.861 313.711 33.269 313.528 32.5155H314.179ZM321.967 33.0805V33.592H319.467C318.685 33.592 318.034 32.919 318.034 32.1115C318.034 31.3041 318.685 30.6316 319.467 30.6316H321.967V31.1696C321.368 31.0351 320.795 30.9541 320.509 30.9541C319.883 30.9541 319.388 31.4656 319.388 32.1115C319.388 32.7575 319.883 33.269 320.509 33.269C320.795 33.269 321.368 33.215 321.967 33.0805ZM326.343 32.865C326.343 32.4615 326.005 32.1385 325.561 32.1385C325.952 32.1385 326.291 31.7886 326.291 31.3848C326.291 30.9809 325.952 30.6313 325.561 30.6313H322.28V33.592H325.561C326.005 33.592 326.343 33.269 326.343 32.865ZM323.53 33.269H324.572C324.832 33.269 325.067 33.0265 325.067 32.7575C325.067 32.4885 324.832 32.246 324.572 32.246H323.53V33.269ZM323.53 31.9768V30.9539H324.546C324.806 30.9539 325.041 31.1963 325.041 31.4654C325.041 31.7348 324.806 31.9768 324.546 31.9768H323.53Z" fill="#2B2C30"/>
<path fill-rule="evenodd" clip-rule="evenodd" d="M333.318 20.2145C333.96 20.2145 334.452 19.7458 334.452 19.1598C334.452 18.5739 333.96 18.1052 333.318 18.105C333.885 18.105 334.376 17.5969 334.376 17.0112C334.376 16.4255 333.885 15.9175 333.318 15.9175H328.554V20.2145H333.318ZM331.843 17.8707H330.369V16.3862H331.843C332.221 16.3862 332.561 16.7377 332.561 17.1285C332.561 17.5192 332.221 17.8707 331.843 17.8707ZM331.881 19.7458C332.259 19.7458 332.599 19.3943 332.599 19.0035C332.599 18.613 332.259 18.2613 331.881 18.2613H330.369V19.7456H331.881V19.7458ZM327.496 20.2148V19.4725C326.626 19.6677 325.795 19.7458 325.379 19.746C324.472 19.746 323.754 19.004 323.754 18.0664C323.754 17.1289 324.472 16.3867 325.379 16.3867C325.795 16.3867 326.627 16.5037 327.496 16.6991V15.9177H323.867C322.733 15.9177 321.788 16.8943 321.788 18.0661C321.788 19.2383 322.733 20.2148 323.867 20.2148H327.496Z" fill="white"/>
<path fill-rule="evenodd" clip-rule="evenodd" d="M335.515 28.8886C335.515 28.8297 335.5 28.7748 335.451 28.7405C335.409 28.7139 335.347 28.7126 335.299 28.7126H335.033V29.2852H335.142V29.0432H335.249L335.372 29.2852H335.498L335.363 29.0432C335.462 29.0363 335.515 28.9927 335.515 28.8886ZM327.972 32.5556C327.972 32.7992 327.984 33.199 328.25 33.199C328.434 33.199 328.44 32.8349 328.444 32.6129C328.445 32.5771 328.445 32.545 328.447 32.5187H328.837L328.835 32.5641L328.835 32.5641L328.835 32.5641L328.835 32.5641L328.835 32.5641L328.835 32.5641L328.835 32.5641L328.835 32.5641L328.835 32.5642C328.833 32.6065 328.831 32.649 328.828 32.6916C328.811 33.2318 328.684 33.6442 328.25 33.6442C327.614 33.6442 327.574 33.0669 327.574 32.2793V31.8589C327.588 31.1042 327.631 30.5433 328.25 30.5433C328.597 30.5517 328.791 30.8034 328.817 31.306L328.818 31.3194C328.823 31.3929 328.828 31.4629 328.826 31.5329H328.444C328.441 31.5039 328.439 31.4709 328.437 31.4359L328.437 31.4359C328.426 31.2431 328.412 30.9886 328.25 30.9886C327.967 30.9886 327.97 31.4368 327.972 31.6844L327.972 31.735V32.5556ZM328.984 33.5742L329.479 30.6136H330.002L330.473 33.5742H330.057L329.956 32.8236H329.502L329.398 33.5742H328.984ZM329.562 32.3911L329.678 31.55C329.693 31.4477 329.7 31.3497 329.707 31.2499L329.707 31.2499C329.71 31.2128 329.713 31.1755 329.716 31.1376C329.719 31.0713 329.724 31.0057 329.73 30.9394H329.736L329.737 30.9546C329.742 31.0158 329.748 31.0764 329.75 31.1376C329.753 31.1749 329.756 31.2116 329.758 31.248L329.758 31.2481C329.766 31.3485 329.773 31.447 329.788 31.55L329.895 32.3911H329.562ZM331.684 32.0487C331.913 32.0895 331.982 32.3 331.982 32.5846L331.982 32.6204V32.6205C331.981 32.8082 331.978 33.4403 332.066 33.5211V33.5747H331.638C331.6 33.4195 331.599 33.1486 331.598 32.9466C331.598 32.9016 331.598 32.8601 331.598 32.824L331.597 32.7948C331.594 32.6171 331.591 32.3922 331.465 32.3374C331.369 32.2996 331.263 32.2999 331.161 32.3002L331.135 32.3002H331.065V33.5745H330.678V30.6139H331.412C331.748 30.6139 332.002 30.7786 332.002 31.3226C332.002 31.6486 331.944 31.9867 331.684 32.0403V32.0487ZM331.372 31.863H331.065V31.0463H331.354C331.502 31.0506 331.597 31.1083 331.597 31.4384C331.597 31.735 331.499 31.8546 331.372 31.863ZM332.386 30.6136H333.193C333.289 30.6136 333.476 30.6715 333.595 30.9478C333.685 31.154 333.711 31.4837 333.711 31.9703C333.711 32.5556 333.711 33.2318 333.39 33.4959C333.306 33.5658 333.199 33.5742 333.104 33.5742H332.386V30.6136ZM332.942 33.1411H332.774V31.0463H333.029C333.26 31.0463 333.312 31.3224 333.312 32.0237C333.312 32.8814 333.289 33.1411 332.942 33.1411ZM334.638 31.6856C334.765 31.8011 335.002 32.0237 335.109 32.1722C335.242 32.3577 335.282 32.5353 335.283 32.791C335.283 33.3519 335.022 33.6444 334.643 33.6444C334.178 33.6444 334.013 33.2733 334.013 32.7454V32.5269H334.401V32.7003C334.392 32.9887 334.453 33.1992 334.643 33.1992C334.808 33.1992 334.883 33.0755 334.883 32.8529C334.883 32.6798 334.829 32.56 334.73 32.4613C334.663 32.3854 334.589 32.3169 334.516 32.2481L334.516 32.2481C334.37 32.1114 334.223 31.974 334.117 31.7765C334.054 31.6443 334.019 31.4837 334.019 31.3226C334.019 30.82 334.218 30.5435 334.626 30.5435C335.223 30.5435 335.228 31.1741 335.23 31.4813L335.231 31.5128H334.858C334.86 31.2488 334.843 30.9886 334.629 30.9886C334.499 30.9886 334.418 31.0631 334.418 31.2652C334.418 31.4915 334.516 31.5784 334.637 31.6853L334.638 31.6856ZM335.142 28.9568H335.302C335.363 28.9585 335.407 28.9443 335.407 28.8715C335.407 28.7971 335.328 28.7971 335.275 28.7971H335.142V28.9568Z" fill="#2B2C30"/>
<path fill-rule="evenodd" clip-rule="evenodd" d="M334.73 28.9952C334.732 28.7032 334.961 28.4673 335.244 28.4678C335.526 28.4679 335.755 28.7038 335.755 28.9952C335.755 29.2877 335.526 29.5248 335.243 29.5248C334.96 29.5248 334.73 29.2877 334.73 28.9952ZM334.828 28.9964C334.828 29.2334 335.014 29.4254 335.244 29.4254C335.473 29.4254 335.658 29.2346 335.658 28.9949C335.658 28.759 335.473 28.5675 335.244 28.5675C335.014 28.5675 334.828 28.7595 334.828 28.9964Z" fill="#2B2C30"/>
<path fill-rule="evenodd" clip-rule="evenodd" d="M101.692 31.3914V34.2831V35.8875H100.968V35.4981C100.738 35.7866 100.39 35.968 99.9169 35.968C98.984 35.968 98.2526 35.263 98.2526 34.2839C98.2526 33.3048 98.9844 32.5998 99.9169 32.5998C100.39 32.5998 100.738 32.781 100.968 33.0698V31.3914H101.692ZM74.5516 32.679V34.2831H74.5508V35.8875H73.8281V35.4981C73.5986 35.7867 73.2504 35.968 72.7772 35.968C71.8444 35.968 71.113 35.263 71.113 34.2839C71.113 33.3048 71.8448 32.5999 72.7772 32.5999C73.2506 32.5999 73.5986 32.781 73.8281 33.0698V32.679H74.5516ZM71.8581 34.2832C71.8581 33.7195 72.2412 33.2564 72.8674 33.2564C73.4658 33.2564 73.8696 33.6995 73.8696 34.2832C73.8696 34.8668 73.4658 35.3099 72.8674 35.3099C72.2412 35.3099 71.8581 34.8469 71.8581 34.2832ZM103.136 35.5186C103.072 35.4584 102.987 35.4247 102.898 35.4248L102.899 35.4215C102.853 35.4212 102.808 35.4298 102.766 35.4469C102.726 35.4624 102.689 35.4857 102.658 35.5153C102.628 35.5442 102.603 35.5787 102.586 35.6167C102.551 35.6956 102.551 35.7849 102.586 35.8639C102.603 35.9028 102.627 35.9384 102.657 35.9686C102.688 35.9977 102.725 36.0209 102.765 36.037C102.807 36.0541 102.852 36.0627 102.898 36.0624C102.943 36.0627 102.988 36.054 103.029 36.037C103.069 36.0205 103.105 35.9974 103.136 35.9686C103.166 35.9394 103.191 35.905 103.208 35.8672C103.243 35.7883 103.243 35.699 103.208 35.62C103.191 35.582 103.167 35.5475 103.136 35.5186ZM102.897 35.9895C102.932 35.9898 102.966 35.9831 102.997 35.97C103.027 35.9574 103.055 35.9394 103.078 35.917C103.101 35.8946 103.12 35.8681 103.133 35.8389C103.16 35.7769 103.16 35.7073 103.133 35.6454C103.12 35.6163 103.101 35.5898 103.078 35.5673C103.055 35.5448 103.027 35.5269 102.997 35.5143C102.965 35.5018 102.931 35.4956 102.897 35.4959C102.863 35.4956 102.828 35.5019 102.796 35.5143C102.765 35.5266 102.737 35.5446 102.713 35.5673C102.64 35.6397 102.618 35.7474 102.659 35.8408C102.671 35.8701 102.69 35.8967 102.713 35.919C102.737 35.9416 102.765 35.9596 102.796 35.9719C102.828 35.9851 102.863 35.9917 102.897 35.9914V35.9895ZM103.008 35.617C102.982 35.5987 102.95 35.5898 102.917 35.5917L102.918 35.5919H102.777V35.8866H102.842V35.7763H102.872L102.965 35.8866H103.043L102.942 35.7756C102.969 35.7737 102.994 35.7635 103.014 35.7465C103.031 35.7308 103.041 35.7087 103.04 35.686C103.041 35.6594 103.029 35.6338 103.008 35.617ZM102.841 35.7252V35.6469V35.6462H102.917C102.931 35.6456 102.945 35.6491 102.957 35.6561C102.967 35.6626 102.973 35.6737 102.972 35.6853C102.973 35.6971 102.967 35.7084 102.957 35.7152C102.945 35.7219 102.931 35.7254 102.917 35.7252H102.841ZM98.9977 34.2832C98.9977 33.7195 99.3808 33.2564 100.007 33.2564C100.606 33.2564 101.009 33.6995 101.009 34.2832C101.009 34.8668 100.606 35.3099 100.007 35.3099C99.381 35.3099 98.9977 34.8469 98.9977 34.2832ZM83.5318 33.2233C83.9979 33.2234 84.2972 33.5051 84.3736 34.0011H82.6474C82.7246 33.5381 83.0163 33.2233 83.5318 33.2233ZM81.8884 34.2821C81.8884 33.2819 82.5706 32.5981 83.5456 32.5981L83.5452 32.5979C84.4765 32.5979 85.1179 33.2821 85.1252 34.2819C85.1252 34.3741 85.1181 34.4602 85.1112 34.5454L85.1112 34.5455L85.1108 34.55H82.6403C82.7447 35.1274 83.1692 35.3355 83.6354 35.3355C83.9693 35.3355 84.3245 35.2149 84.6034 35L84.9579 35.5168C84.5541 35.8456 84.0952 35.9662 83.5941 35.9662C82.5979 35.9662 81.8884 35.3019 81.8884 34.2821ZM92.2806 34.2819C92.2806 33.7182 92.6637 33.2552 93.2899 33.2552C93.8883 33.2552 94.2921 33.6983 94.2921 34.2819C94.2921 34.8656 93.8883 35.3087 93.2899 35.3087C92.6637 35.3087 92.2804 34.8456 92.2804 34.2819H92.2806ZM94.9735 32.679V34.282L94.9737 34.2831V35.8875H94.2504V35.4981C94.0201 35.7867 93.6729 35.968 93.1996 35.968C92.2667 35.968 91.5353 35.263 91.5353 34.2839C91.5353 33.3048 92.2671 32.5999 93.1996 32.5999C93.6729 32.5999 94.0201 32.781 94.2504 33.0698V32.679H94.9735ZM88.1945 34.2819C88.1945 35.2548 88.8971 35.966 89.9694 35.966C90.4706 35.966 90.8044 35.8585 91.1655 35.5836L90.818 35.0199C90.5464 35.2081 90.2611 35.3087 89.9463 35.3087C89.3688 35.3019 88.9441 34.8994 88.9441 34.2819C88.9441 33.6645 89.3688 33.2622 89.9463 33.2552C90.2603 33.2552 90.5456 33.3558 90.818 33.544L91.1655 32.9803C90.8038 32.7053 90.4699 32.5979 89.9694 32.5979C88.8971 32.5979 88.1945 33.3089 88.1945 34.2819ZM96.6441 33.0678C96.832 32.786 97.1038 32.5979 97.5212 32.5979L97.5208 32.5985C97.6674 32.5985 97.8762 32.6252 98.0363 32.686L97.8133 33.3433C97.6695 33.2879 97.5157 33.2604 97.3609 33.2626C96.888 33.2626 96.6514 33.5574 96.6514 34.0881V35.8857H95.9271V32.679H96.6441V33.0678ZM78.1285 32.9339C77.7805 32.7128 77.3009 32.5984 76.7718 32.5984C75.9289 32.5984 75.3863 32.9879 75.3863 33.625C75.3863 34.1479 75.7903 34.4704 76.5342 34.5711L76.876 34.618C77.2727 34.6717 77.46 34.7723 77.46 34.9534C77.46 35.2014 77.1965 35.3428 76.7017 35.3428C76.2006 35.3428 75.8389 35.1885 75.5951 35.0074L75.2551 35.5511C75.6518 35.8329 76.1529 35.9673 76.6956 35.9673C77.6564 35.9673 78.2133 35.5312 78.2133 34.9206C78.2133 34.3569 77.775 34.0621 77.0509 33.9615L76.71 33.9138C76.3968 33.8747 76.1458 33.8139 76.1458 33.599C76.1458 33.3646 76.3824 33.2235 76.7793 33.2235C77.204 33.2235 77.6151 33.3778 77.8166 33.4984L78.1298 32.9347L78.1285 32.9339ZM86.5878 33.0689C86.7749 32.7872 87.0467 32.599 87.4641 32.599L87.4637 32.5984C87.6102 32.5984 87.819 32.6252 87.9792 32.686L87.7562 33.3433C87.6124 33.2878 87.4586 33.2604 87.3037 33.2626C86.8308 33.2626 86.5943 33.5574 86.5943 34.0881V35.8857H85.8708V32.6789H86.5878V33.0689ZM81.2903 32.679H80.1073V31.7061H79.3759V32.679H78.7011V33.3163H79.3759V34.7792C79.3759 35.5232 79.6756 35.9664 80.5314 35.9664C80.8454 35.9664 81.207 35.8726 81.4365 35.7184L81.2275 35.1213C81.0116 35.2419 80.7751 35.3026 80.5869 35.3026C80.2253 35.3026 80.1073 35.0877 80.1073 34.7659V33.3169H81.2903V32.679ZM70.4736 33.874V35.8865L69.7406 35.885V34.1003C69.7406 33.5567 69.5049 33.2548 69.0109 33.2548C68.5306 33.2548 68.1968 33.5506 68.1968 34.1073V35.8853H67.4654V34.1006C67.4654 33.5571 67.2223 33.2552 66.7419 33.2552C66.2473 33.2552 65.927 33.551 65.927 34.1077V35.8857H65.1973V32.679H65.9213V33.0754C66.1932 32.6999 66.5404 32.5993 66.8958 32.5993C67.4042 32.5993 67.7658 32.8142 67.9953 33.1698C68.302 32.7198 68.74 32.5924 69.1647 32.5993C69.9725 32.6061 70.4736 33.1161 70.4736 33.874Z" fill="#231F20"/>
<path fill-rule="evenodd" clip-rule="evenodd" d="M103.253 24.7505V25.2195H103.165V24.8654L103.028 25.171H102.934L102.797 24.8662V25.2195H102.707V24.7505H102.834L102.98 25.0723L103.127 24.7505H103.253ZM102.45 24.8311V25.2197H102.449H102.36V24.8311H102.198V24.7519H102.612V24.8311H102.45Z" fill="#F79410"/>
<path d="M88.8544 27.2305H77.8906V8.23877H88.8546L88.8544 27.2305Z" fill="#FF5F00"/>
<path d="M78.5852 17.7351C78.5852 13.8826 80.4567 10.4508 83.3708 8.2392C81.165 6.56266 78.4366 5.65275 75.6275 5.65675C68.7076 5.65675 63.0981 11.0643 63.0981 17.7351C63.0981 24.4058 68.7076 29.8134 75.6275 29.8134C78.4367 29.8174 81.1651 28.9075 83.371 27.2309C80.4571 25.0197 78.5852 21.5877 78.5852 17.7351Z" fill="#EB001B"/>
<path d="M103.645 17.7351C103.645 24.4058 98.0361 29.8134 91.1161 29.8134C88.3066 29.8174 85.5779 28.9075 83.3716 27.231C86.2866 25.0194 88.158 21.5878 88.158 17.7351C88.158 13.8824 86.2866 10.4508 83.3716 8.2392C85.5779 6.56271 88.3065 5.65282 91.1159 5.65675C98.0359 5.65675 103.645 11.0643 103.645 17.7351" fill="#F79E1B"/>
<path fill-rule="evenodd" clip-rule="evenodd" d="M166.356 24.7527V25.2216H166.266V24.8676L166.129 25.1731H166.036L165.899 24.8683V25.2216H165.809V24.7527H165.937L166.082 25.0745L166.229 24.7527H166.356ZM165.551 24.8334V25.222H165.551H165.461V24.8334H165.299V24.7552H165.714V24.8334H165.551Z" fill="#0099DF"/>
<path d="M151.953 27.2332H140.988V8.23926H151.953V27.2332Z" fill="#6C6BBD"/>
<path d="M141.685 17.7365C141.685 13.8834 143.556 10.4512 146.471 8.2394C144.265 6.56262 141.536 5.65263 138.726 5.65675C131.805 5.65675 126.195 11.0649 126.195 17.7365C126.195 24.408 131.805 29.8164 138.726 29.8164C141.536 29.8204 144.265 28.9104 146.471 27.2335C143.556 25.0217 141.685 21.5895 141.685 17.7365Z" fill="#EB001B"/>
<path d="M166.747 17.7365C166.747 24.408 161.137 29.8164 154.216 29.8164C151.406 29.8203 148.677 28.9103 146.47 27.2335C149.385 25.0217 151.257 21.5895 151.257 17.7365C151.257 13.8834 149.385 10.4514 146.47 8.23959C148.677 6.56285 151.406 5.65282 154.216 5.65675C161.137 5.65675 166.747 11.0649 166.747 17.7365" fill="#0099DF"/>
<path fill-rule="evenodd" clip-rule="evenodd" d="M152.987 33.3178H152.989L152.987 33.3184V33.3178ZM152.987 33.3178H151.805V34.767C151.805 35.0888 151.923 35.3037 152.286 35.3037C152.474 35.3037 152.711 35.2432 152.926 35.1224L153.134 35.7191C152.905 35.8735 152.543 35.968 152.23 35.968C151.373 35.968 151.075 35.5249 151.075 34.7799V33.3176H150.399V32.681H151.074V31.708H151.804V32.681H152.987V33.3178ZM156.179 32.6885C156.019 32.628 155.809 32.601 155.664 32.601L155.664 32.5998C155.247 32.5998 154.975 32.788 154.787 33.07V32.6811H154.07V35.889H154.794V34.0903C154.794 33.5602 155.03 33.2653 155.504 33.2653C155.658 33.2632 155.812 33.2906 155.956 33.346L156.179 32.6885ZM143.723 34.0017C143.8 33.5386 144.092 33.2228 144.608 33.2228C145.074 33.2228 145.373 33.5048 145.45 34.0017H143.723ZM144.621 32.5993C145.553 32.5993 146.195 33.2835 146.202 34.2835H146.201C146.201 34.3743 146.195 34.4584 146.188 34.543L146.187 34.5516H143.716C143.821 35.1284 144.245 35.3365 144.711 35.3365C145.045 35.3365 145.4 35.2157 145.679 35.0008L146.034 35.5176C145.63 35.8465 145.171 35.967 144.67 35.967C143.674 35.967 142.964 35.3027 142.964 34.2835C142.964 33.2831 143.646 32.5993 144.621 32.5993ZM149.382 33.4998C149.18 33.3785 148.77 33.2241 148.345 33.2241C147.948 33.2241 147.712 33.3654 147.712 33.6004C147.712 33.8154 147.962 33.8753 148.275 33.9154L148.616 33.9623C149.34 34.0637 149.778 34.3586 149.778 34.9223C149.778 35.5329 149.222 35.969 148.261 35.969C147.718 35.969 147.217 35.8346 146.82 35.5526L147.161 35.0088C147.404 35.1901 147.767 35.3445 148.269 35.3445C148.763 35.3445 149.027 35.204 149.027 34.9551C149.027 34.7745 148.839 34.6731 148.442 34.6202L148.101 34.5733C147.356 34.4719 146.952 34.1501 146.952 33.6272C146.952 32.9898 147.496 32.6004 148.338 32.6004C148.867 32.6004 149.347 32.7149 149.695 32.9361L149.382 33.4998ZM157.895 33.3383C158.027 33.2876 158.168 33.262 158.31 33.2631H158.311C158.453 33.2619 158.594 33.2875 158.726 33.3383C158.851 33.3866 158.964 33.4587 159.059 33.5503C159.155 33.6436 159.231 33.7546 159.282 33.8768C159.388 34.1464 159.388 34.4442 159.282 34.7139C159.231 34.836 159.155 34.947 159.059 35.0402C158.964 35.1318 158.851 35.2039 158.726 35.2522C158.459 35.3527 158.162 35.3527 157.895 35.2522C157.771 35.2037 157.658 35.1316 157.563 35.0402C157.468 34.9466 157.393 34.8355 157.343 34.7137C157.237 34.444 157.237 34.1462 157.343 33.8766C157.393 33.7548 157.468 33.6439 157.563 33.5503C157.658 33.4589 157.771 33.3868 157.895 33.3383ZM158.311 32.6003C158.556 32.5978 158.8 32.6419 159.028 32.73C159.24 32.8115 159.434 32.9326 159.598 33.0864C159.76 33.239 159.888 33.4212 159.975 33.6224C160.157 34.0538 160.157 34.5364 159.975 34.9678C159.888 35.1692 159.76 35.3517 159.598 35.5046C159.434 35.6581 159.24 35.7792 159.028 35.861C158.566 36.033 158.055 36.033 157.593 35.861C157.382 35.7793 157.189 35.6582 157.026 35.5046C156.865 35.3512 156.738 35.1688 156.651 34.9678C156.469 34.5364 156.469 34.0538 156.651 33.6224C156.827 33.2142 157.167 32.8923 157.594 32.73C157.822 32.6419 158.065 32.5979 158.311 32.6003ZM158.311 32.6003L158.31 32.6003H158.311L158.311 32.6003ZM140.502 33.2578C139.876 33.2578 139.493 33.7208 139.493 34.2845H139.493C139.493 34.8482 139.876 35.3105 140.503 35.3105C141.101 35.3105 141.505 34.8681 141.505 34.2845C141.505 33.7009 141.101 33.2578 140.502 33.2578ZM142.187 34.2847V34.2841V32.6811H141.463V33.0699C141.233 32.7812 140.886 32.5998 140.412 32.5998C139.48 32.5998 138.749 33.3032 138.749 34.2841C138.749 35.2649 139.478 35.9683 140.412 35.9683C140.886 35.9683 141.233 35.787 141.463 35.4982V35.8876H142.187V34.2847ZM138.108 33.8757V35.8882H138.106H137.376V34.1033C137.376 33.5595 137.139 33.2577 136.644 33.2577C136.165 33.2577 135.83 33.5533 135.83 34.1101V35.8882H135.1V34.1033C135.1 33.5595 134.857 33.2577 134.376 33.2577C133.882 33.2577 133.562 33.5533 133.562 34.1101V35.8882H132.832V32.6811H133.556V33.0769C133.827 32.7014 134.175 32.6008 134.53 32.6008C135.038 32.6008 135.401 32.8157 135.63 33.1713C135.936 32.7213 136.375 32.5939 136.8 32.6008C137.607 32.6076 138.108 33.1176 138.108 33.8757ZM160.925 35.6469V35.725H161.001C161.015 35.7255 161.029 35.7221 161.041 35.7151C161.052 35.7086 161.058 35.6972 161.057 35.6852C161.058 35.6734 161.052 35.6622 161.041 35.6561C161.029 35.6488 161.015 35.6453 161.001 35.6461L160.925 35.6469ZM161.091 35.6168C161.065 35.5985 161.033 35.5896 161 35.5915H160.858V35.8863H160.925V35.776H160.955L161.048 35.8863H161.126L161.025 35.7752C161.051 35.7732 161.077 35.763 161.097 35.7462C161.114 35.7305 161.123 35.7085 161.123 35.6858C161.124 35.6592 161.112 35.6336 161.091 35.6168ZM160.981 35.9885C161.015 35.9888 161.049 35.9822 161.08 35.969C161.11 35.9564 161.138 35.9385 161.161 35.916C161.185 35.8936 161.203 35.8671 161.216 35.8379C161.243 35.7759 161.243 35.7062 161.216 35.6442C161.203 35.6151 161.184 35.5886 161.161 35.5661C161.138 35.5437 161.11 35.5259 161.08 35.5139C161.049 35.5007 161.015 35.4941 160.981 35.4944C160.946 35.4941 160.911 35.5007 160.879 35.5139C160.848 35.5257 160.82 35.5434 160.796 35.5661C160.723 35.6386 160.702 35.7462 160.742 35.8396C160.755 35.869 160.773 35.8956 160.796 35.9178C160.82 35.9404 160.848 35.9584 160.879 35.9708C160.911 35.9839 160.946 35.9906 160.981 35.9903V35.9885ZM161.111 35.4491C161.07 35.432 161.025 35.4234 160.98 35.4237V35.4241C160.935 35.4238 160.889 35.4324 160.847 35.4495C160.807 35.4651 160.77 35.4883 160.74 35.5179C160.709 35.5468 160.685 35.5813 160.668 35.6193C160.633 35.6982 160.633 35.7875 160.668 35.8665C160.685 35.9042 160.709 35.9383 160.74 35.9671C160.804 36.0281 160.89 36.062 160.98 36.0615C161.025 36.0618 161.07 36.0532 161.111 36.0361C161.151 36.0198 161.188 35.9963 161.219 35.9669C161.249 35.9381 161.274 35.904 161.291 35.8663C161.326 35.7873 161.326 35.6979 161.291 35.6189C161.274 35.5809 161.249 35.5464 161.219 35.5175C161.188 35.4881 161.151 35.4649 161.111 35.4491Z" fill="#231F20"/>
<path fill-rule="evenodd" clip-rule="evenodd" d="M29.4184 15.3839L28.9489 18.0992C27.541 17.323 24.3369 17.1393 24.3366 18.5691C24.3366 19.137 25.0615 19.5277 25.9353 19.9985C27.2605 20.7125 28.9279 21.611 28.9279 23.5922C28.9279 26.7582 25.5409 27.9214 23.2958 27.9214C21.0514 27.9214 19.5823 27.2074 19.5823 27.2074L20.0714 24.3682C21.4184 25.4502 25.5 25.7577 25.5 24.0418C25.5 23.3207 24.6966 22.8955 23.7648 22.4025C22.4793 21.7221 20.9496 20.9126 20.9496 19.0186C20.9496 15.5465 24.8267 14.8325 26.4593 14.8325C27.9696 14.8325 29.4184 15.3839 29.4184 15.3839ZM11.4972 15.0578L8.3607 23.755L7.98956 21.8821L7.98989 21.8828L6.88288 16.1963C6.88288 16.1963 6.74902 15.0578 5.32224 15.0578H0.137015L0.0761719 15.2719C0.0761719 15.2719 1.66182 15.602 3.51755 16.7172L6.37585 27.7029H9.80371L15.0379 15.0578H11.4972ZM17.5543 27.7032H14.2643L16.3205 15.0585H19.6108L17.5543 27.7032ZM40.3954 27.7032H37.3745L36.9892 25.825H32.8069L32.121 27.7032H28.6915L33.5982 16.0005C33.5982 16.0005 33.8956 15.0581 35.1169 15.0581H37.7616L40.3954 27.7032ZM33.7544 23.2303L35.483 18.4984L36.4555 23.2303H33.7544Z" fill="#2566AF"/>
<path d="M7.9899 21.8831L6.88288 16.1966C6.88288 16.1966 6.74902 15.0581 5.32224 15.0581H0.137015L0.0761719 15.2722C0.0761719 15.2722 2.56839 15.789 4.95887 17.7255C7.24456 19.5763 7.9899 21.8831 7.9899 21.8831Z" fill="#E6A540"/>
</svg>
