<svg width="443" height="108" viewBox="0 0 443 108" fill="none" xmlns="http://www.w3.org/2000/svg">
<g clip-path="url(#clip0)">
<path d="M443 9.07471H430.154V31.7314H443V9.07471Z" fill="#EDA85A"/>
<path d="M443 9.07463C443 4.0597 438.946 0 433.939 0H430.154V18.1493H433.939C438.946 18.1493 443 14.0896 443 9.07463Z" fill="#FFC465"/>
<path d="M443 18.1492V98.6566C443 103.821 438.827 108.03 433.641 108.03H4.67885C0.655368 108.03 -1.49049 103.284 1.16203 100.269L27.717 69.8507C31.1146 65.9701 31.1146 60.179 27.717 56.2984L1.16203 25.9104C-1.49049 22.8954 0.655368 18.1492 4.67885 18.1492H443Z" fill="#EDA85A"/>
</g>
<defs>
<clipPath id="clip0">
<rect width="443" height="108" fill="white"/>
</clipPath>
</defs>
</svg>
