<svg width="343" height="89" fill="none" xmlns="http://www.w3.org/2000/svg"><path d="M332 0c6.075 0 11 4.925 11 11v68.719c0 5.113-4.172 9.281-9.358 9.281H4.688c-4.024 0-6.17-4.7-3.517-7.685l26.554-30.12a10.108 10.108 0 000-13.42L1.171 7.686C-1.482 4.7.664 0 4.688 0H332z" fill="#EDA85A"/><path d="M89.278 35.725h3.648v-16.92h-2.52l-4.824 1.44.768 3.024 2.928-.72v13.176zm14.589.288c4.488 0 7.488-3.816 7.488-8.688 0-4.92-3-8.688-7.44-8.688-4.464 0-7.488 3.816-7.488 8.688 0 4.92 2.952 8.688 7.44 8.688zm.048-3.336c-2.232 0-3.696-2.28-3.696-5.352 0-3.12 1.44-5.352 3.648-5.352s3.696 2.304 3.696 5.352c0 3.096-1.416 5.352-3.648 5.352zm17.484 3.336c4.488 0 7.488-3.816 7.488-8.688 0-4.92-3-8.688-7.44-8.688-4.464 0-7.488 3.816-7.488 8.688 0 4.92 2.952 8.688 7.44 8.688zm.048-3.336c-2.232 0-3.696-2.28-3.696-5.352 0-3.12 1.44-5.352 3.648-5.352s3.696 2.304 3.696 5.352c0 3.096-1.416 5.352-3.648 5.352zm13.883-5.352c2.448 0 4.104-1.944 4.104-4.296 0-2.4-1.632-4.296-4.056-4.296-2.448 0-4.104 1.92-4.104 4.296 0 2.4 1.632 4.296 4.056 4.296zm-2.376 8.4h2.856l12.264-16.8h-2.856l-12.264 16.8zm12.696.192c2.448 0 4.104-1.944 4.104-4.296 0-2.4-1.632-4.296-4.056-4.296-2.448 0-4.104 1.92-4.104 4.296 0 2.4 1.632 4.296 4.056 4.296zM135.378 25.14c-.96 0-1.584-.984-1.584-2.112 0-1.152.528-2.112 1.536-2.112.96 0 1.584.984 1.584 2.112 0 1.128-.528 2.112-1.536 2.112zm10.32 8.592c-.96 0-1.584-.984-1.584-2.112 0-1.152.528-2.112 1.536-2.112.96 0 1.584.984 1.584 2.112 0 1.128-.528 2.112-1.536 2.112zm14.356 1.992h3.624V24.829l4.68 7.104h.096l4.728-7.176v10.968h3.672v-16.8h-3.984l-4.416 7.104-4.416-7.104h-3.984v16.8zm26.764.288c4.008 0 6.984-3 6.984-6.696 0-3.744-2.952-6.696-6.936-6.696-4.008 0-6.984 3-6.984 6.696 0 3.744 2.952 6.696 6.936 6.696zm.048-3.144c-2.016 0-3.384-1.656-3.384-3.552 0-1.944 1.248-3.552 3.336-3.552 2.016 0 3.384 1.656 3.384 3.552 0 1.944-1.248 3.552-3.336 3.552zm9.577 2.856h3.648v-7.176c0-1.728.888-2.616 2.28-2.616s2.208.888 2.208 2.616v7.176h3.648v-8.328c0-2.952-1.608-4.776-4.368-4.776-1.848 0-2.928.984-3.768 2.064V22.86h-3.648v12.864zm21.049.288c2.328 0 4.056-.912 5.256-2.4l-2.088-1.848c-1.008.936-1.896 1.32-3.12 1.32-1.632 0-2.784-.864-3.144-2.52h8.952c.024-.336.048-.672.048-.96 0-3.648-1.968-6.984-6.264-6.984-3.744 0-6.36 3.024-6.36 6.696 0 3.984 2.856 6.696 6.72 6.696zm-3.144-7.728c.288-1.656 1.272-2.736 2.784-2.736 1.536 0 2.496 1.104 2.712 2.736h-5.496zm14.23 11.352c2.184 0 3.24-.984 4.224-3.6l4.944-13.176h-3.792l-2.808 8.76-2.928-8.76h-3.864l5.04 12.912c-.312.648-.648.84-1.272.84-.48 0-1.08-.216-1.56-.504l-1.224 2.64c.936.552 1.92.888 3.24.888zM87.022 67.725h7.992c3.792 0 6.288-1.536 6.288-4.608 0-2.304-1.2-3.432-3.144-4.176 1.2-.672 2.208-1.728 2.208-3.624 0-1.2-.384-2.136-1.152-2.904-.96-.96-2.472-1.488-4.392-1.488h-7.8v16.8zm3.6-10.008v-3.552h3.648c1.56 0 2.424.624 2.424 1.728 0 1.296-1.032 1.824-2.664 1.824h-3.408zm0 6.768v-3.696h4.272c1.896 0 2.736.696 2.736 1.824 0 1.296-.984 1.872-2.616 1.872h-4.392zm16.985 3.48c1.776 0 3-.648 3.888-1.632v1.392h3.528V60.26c0-1.728-.432-3.144-1.392-4.104-.912-.912-2.352-1.44-4.344-1.44-2.184 0-3.576.408-4.992 1.032l.912 2.784c1.176-.432 2.16-.696 3.552-.696 1.824 0 2.76.84 2.76 2.352v.216a9.141 9.141 0 00-3.144-.528c-3.048 0-5.184 1.296-5.184 4.104 0 2.592 1.992 3.984 4.416 3.984zm1.104-2.52c-1.176 0-1.992-.576-1.992-1.56 0-1.2.96-1.824 2.52-1.824.888 0 1.704.192 2.328.48v.648c0 1.32-1.152 2.256-2.856 2.256zm15.523 2.568c2.568 0 4.008-.984 5.256-2.352l-2.136-2.16c-.888.84-1.728 1.368-2.952 1.368-1.992 0-3.264-1.584-3.264-3.552 0-1.944 1.296-3.552 3.12-3.552 1.44 0 2.208.528 3 1.272l2.136-2.16c-1.2-1.344-2.688-2.256-5.112-2.256-3.936 0-6.744 3.024-6.744 6.696 0 3.72 2.832 6.696 6.696 6.696zm7.639-.288h3.648v-3.912l1.272-1.344 3.36 5.256h4.176l-5.064-7.8 4.896-5.064h-4.368l-4.272 4.68v-9.336h-3.648v17.52zm29.87.288c3.072 0 5.448-1.2 7.176-2.664v-7.296h-7.296v3.192h3.72v2.4c-.936.672-2.136 1.008-3.48 1.008-2.976 0-5.088-2.256-5.088-5.328 0-2.904 2.136-5.28 4.824-5.28 1.944 0 3.096.624 4.392 1.704l2.328-2.808c-1.752-1.488-3.576-2.304-6.6-2.304-5.088 0-8.808 3.912-8.808 8.688 0 5.016 3.6 8.688 8.832 8.688zm14.62-.048c1.848 0 2.928-.984 3.768-2.064v1.824h3.648V54.86h-3.648v7.176c0 1.728-.888 2.616-2.28 2.616s-2.208-.888-2.208-2.616V54.86h-3.648v8.328c0 2.952 1.608 4.776 4.368 4.776zm14.33 0c1.776 0 3-.648 3.888-1.632v1.392h3.528V60.26c0-1.728-.432-3.144-1.392-4.104-.912-.912-2.352-1.44-4.344-1.44-2.184 0-3.576.408-4.992 1.032l.912 2.784c1.176-.432 2.16-.696 3.552-.696 1.824 0 2.76.84 2.76 2.352v.216a9.141 9.141 0 00-3.144-.528c-3.048 0-5.184 1.296-5.184 4.104 0 2.592 1.992 3.984 4.416 3.984zm1.104-2.52c-1.176 0-1.992-.576-1.992-1.56 0-1.2.96-1.824 2.52-1.824.888 0 1.704.192 2.328.48v.648c0 1.32-1.152 2.256-2.856 2.256zm9.451 2.28h3.648v-4.752c0-3.072 1.488-4.536 3.912-4.536H209V54.62c-2.16-.096-3.36 1.056-4.104 2.832V54.86h-3.648v12.864zm13.07.24c1.776 0 3-.648 3.888-1.632v1.392h3.528V60.26c0-1.728-.432-3.144-1.392-4.104-.912-.912-2.352-1.44-4.344-1.44-2.184 0-3.576.408-4.992 1.032l.912 2.784c1.176-.432 2.16-.696 3.552-.696 1.824 0 2.76.84 2.76 2.352v.216a9.141 9.141 0 00-3.144-.528c-3.048 0-5.184 1.296-5.184 4.104 0 2.592 1.992 3.984 4.416 3.984zm1.104-2.52c-1.176 0-1.992-.576-1.992-1.56 0-1.2.96-1.824 2.52-1.824.888 0 1.704.192 2.328.48v.648c0 1.32-1.152 2.256-2.856 2.256zm9.451 2.28h3.648v-7.176c0-1.728.888-2.616 2.28-2.616s2.208.888 2.208 2.616v7.176h3.648v-8.328c0-2.952-1.608-4.776-4.368-4.776-1.848 0-2.928.984-3.768 2.064V54.86h-3.648v12.864zm19.297.216c1.224 0 2.112-.288 2.88-.744v-2.928a3.71 3.71 0 01-1.8.456c-.816 0-1.176-.408-1.176-1.248V57.98h3.024v-3.12h-3.024v-3.288h-3.648v3.288h-1.536v3.12h1.536v6.096c0 2.976 1.512 3.864 3.744 3.864zm11.361.072c2.328 0 4.056-.912 5.256-2.4l-2.088-1.848c-1.008.936-1.896 1.32-3.12 1.32-1.632 0-2.784-.864-3.144-2.52h8.952c.024-.336.048-.672.048-.96 0-3.648-1.968-6.984-6.264-6.984-3.744 0-6.36 3.024-6.36 6.696 0 3.984 2.856 6.696 6.72 6.696zm-3.144-7.728c.288-1.656 1.272-2.736 2.784-2.736 1.536 0 2.496 1.104 2.712 2.736h-5.496zm17.863 7.728c2.328 0 4.056-.912 5.256-2.4l-2.088-1.848c-1.008.936-1.896 1.32-3.12 1.32-1.632 0-2.784-.864-3.144-2.52h8.952c.024-.336.048-.672.048-.96 0-3.648-1.968-6.984-6.264-6.984-3.744 0-6.36 3.024-6.36 6.696 0 3.984 2.856 6.696 6.72 6.696zm-3.144-7.728c.288-1.656 1.272-2.736 2.784-2.736 1.536 0 2.496 1.104 2.712 2.736h-5.496z" fill="#fff"/></svg>