<svg width="443" height="108" fill="none" xmlns="http://www.w3.org/2000/svg"><g clip-path="url(#clip0)"><path d="M443 9.075h-12.846V31.73H443V9.075z" fill="#EDA85A"/><path d="M443 9.075C443 4.06 438.946 0 433.939 0h-3.785v18.15h3.785c5.007 0 9.061-4.06 9.061-9.075z" fill="#FFC465"/><path d="M443 18.15v80.507c0 5.164-4.173 9.373-9.359 9.373H4.679c-4.024 0-6.17-4.746-3.517-7.761l26.555-30.418a10.284 10.284 0 000-13.553L1.162 25.91c-2.652-3.015-.507-7.76 3.517-7.76H443z" fill="#EDA85A"/></g><defs><clipPath id="clip0"><path fill="#fff" d="M0 0h443v108H0z"/></clipPath></defs></svg>