<svg width="134" height="56" fill="none" xmlns="http://www.w3.org/2000/svg"><path d="M20.688 40.128H7.2L4.704 48H.864L12.24 14.4h3.408L27.024 48h-3.84l-2.496-7.872zm-.912-2.928l-5.808-18.48L8.112 37.2h11.664z" fill="#8372E8"/><path d="M32.968 28.26c-1.924 0-3.423-.59-4.498-1.768-1.057-1.196-1.586-2.86-1.586-4.992s.529-3.787 1.586-4.966c1.075-1.196 2.574-1.794 4.498-1.794 1.092 0 2.054.217 2.886.65a4.73 4.73 0 012.002 1.82l-1.326 1.196a3.978 3.978 0 00-1.508-1.378 3.915 3.915 0 00-1.976-.52c-1.23 0-2.201.442-2.912 1.326-.693.867-1.04 2.089-1.04 3.666 0 1.56.347 2.782 1.04 3.666.71.884 1.681 1.326 2.912 1.326.71 0 1.37-.165 1.976-.494a4.19 4.19 0 001.508-1.404l1.326 1.196a4.902 4.902 0 01-2.002 1.846c-.832.416-1.794.624-2.886.624zm11.613 0c-1.144 0-2.045-.364-2.704-1.092-.659-.745-.988-1.768-.988-3.068v-7.384h-2.34V15h2.34v-3.458l2.106-.65h.104V15h3.692v1.716H43.1v7.176c0 .884.165 1.543.494 1.976.33.416.84.624 1.534.624.745 0 1.352-.095 1.82-.286l.156 1.638c-.572.277-1.413.416-2.522.416zm9.645 0c-1.49 0-2.626-.485-3.406-1.456-.763-.97-1.144-2.4-1.144-4.29V15h2.21v7.54c0 2.635.936 3.952 2.808 3.952.728 0 1.386-.182 1.976-.546a3.885 3.885 0 001.378-1.56c.33-.676.494-1.43.494-2.262V15h2.21v10.244c0 .867.078 1.785.234 2.756h-2.028a12.967 12.967 0 01-.26-2.314h-.078c-.381.797-.97 1.43-1.768 1.898-.78.45-1.655.676-2.626.676zm13.618 0c-1.283 0-2.332-.373-3.146-1.118-.815-.745-1.222-1.707-1.222-2.886 0-1.3.485-2.305 1.456-3.016.987-.71 2.383-1.066 4.186-1.066h2.678v-.676c0-.97-.26-1.707-.78-2.21-.503-.52-1.24-.78-2.21-.78-.78 0-1.5.165-2.159.494a4.242 4.242 0 00-1.612 1.378l-1.117-1.352a5.688 5.688 0 012.158-1.69c.849-.399 1.794-.598 2.834-.598 1.629 0 2.886.399 3.77 1.196.883.797 1.325 1.941 1.325 3.432v6.11c0 .676.105 1.517.313 2.522h-1.924c-.157-.399-.27-1.005-.339-1.82h-.052a4.986 4.986 0 01-1.793 1.56c-.711.347-1.5.52-2.366.52zm.338-1.742a4.49 4.49 0 001.82-.364c.554-.26.988-.607 1.3-1.04a2.31 2.31 0 00.493-1.43V21.76H69.04c-1.093 0-1.933.217-2.523.65-.589.433-.883 1.049-.883 1.846 0 .693.225 1.248.675 1.664.469.399 1.093.598 1.873.598zm12.237 1.742c-1.872 0-2.808-1.1-2.808-3.302V8.708h2.21v16.224c0 .607.095 1.04.286 1.3.208.243.555.364 1.04.364.381 0 .815-.104 1.3-.312l.338 1.326c-.659.433-1.447.65-2.366.65zM31.56 38.276c0-1.647-.035-2.739-.104-3.276h2.054c.07.572.104 1.343.104 2.314h.078a4.227 4.227 0 011.742-1.872 5.142 5.142 0 012.652-.702c1.525 0 2.67.494 3.432 1.482.763.988 1.144 2.461 1.144 4.42V48h-2.21v-7.384c0-1.387-.234-2.418-.702-3.094-.468-.676-1.179-1.014-2.132-1.014a3.56 3.56 0 00-1.976.572c-.59.364-1.049.884-1.378 1.56-.33.659-.494 1.404-.494 2.236V48h-2.21v-9.724zm17.91 9.984c-.971 0-1.855-.2-2.652-.598-.78-.399-1.335-.927-1.664-1.586l1.43-.988a2.99 2.99 0 001.221 1.092c.52.26 1.084.39 1.69.39.729 0 1.327-.208 1.794-.624a2.07 2.07 0 00.728-1.612c0-.52-.19-.953-.572-1.3-.38-.347-1.057-.702-2.028-1.066-1.473-.537-2.513-1.1-3.12-1.69-.589-.59-.883-1.317-.883-2.184 0-1.005.398-1.811 1.195-2.418.798-.624 1.855-.936 3.172-.936.85 0 1.621.182 2.315.546.71.364 1.256.867 1.638 1.508l-1.352.988c-.607-.901-1.474-1.352-2.6-1.352-.642 0-1.17.147-1.586.442-.4.295-.599.676-.599 1.144 0 .468.209.867.624 1.196.417.312 1.188.685 2.315 1.118 1.334.503 2.279 1.057 2.834 1.664.554.59.832 1.343.832 2.262 0 1.213-.434 2.184-1.3 2.912-.867.728-2.011 1.092-3.433 1.092zM72.167 35l-3.25 13h-2.002L63.77 37.366 60.624 48h-2.002l-3.25-13h2.314l2.106 9.984L62.756 35h2.028l2.964 9.984L69.854 35h2.314zm12.817 7.358h-9.36c.121 1.317.511 2.323 1.17 3.016.659.676 1.569 1.014 2.73 1.014 1.56 0 2.8-.615 3.718-1.846l1.248 1.196c-.502.797-1.204 1.421-2.106 1.872-.884.433-1.863.65-2.938.65-1.924 0-3.415-.59-4.472-1.768-1.057-1.179-1.586-2.834-1.586-4.966 0-2.115.529-3.77 1.586-4.966 1.075-1.213 2.548-1.82 4.42-1.82 1.75 0 3.12.598 4.108 1.794.988 1.179 1.482 2.834 1.482 4.966v.858zm-2.028-1.82c0-1.248-.33-2.227-.988-2.938-.641-.71-1.534-1.066-2.678-1.066-1.075 0-1.932.364-2.574 1.092-.624.728-.988 1.76-1.092 3.094h7.332v-.182zm4.695-2.366c0-1.473-.026-2.53-.078-3.172h2.054c.07.693.104 1.456.104 2.288v.26h.078c.33-.901.858-1.595 1.586-2.08.728-.485 1.586-.728 2.574-.728.278 0 .529.026.754.078v1.82a4.217 4.217 0 00-.91-.078 3.28 3.28 0 00-2.002.676c-.606.433-1.083 1.031-1.43 1.794a5.96 5.96 0 00-.52 2.496V48h-2.21v-9.828zM100.2 48.26c-.97 0-1.855-.2-2.652-.598-.78-.399-1.335-.927-1.664-1.586l1.43-.988a2.99 2.99 0 001.222 1.092c.52.26 1.083.39 1.69.39.728 0 1.326-.208 1.794-.624.485-.433.728-.97.728-1.612 0-.52-.191-.953-.572-1.3-.381-.347-1.057-.702-2.028-1.066-1.473-.537-2.513-1.1-3.12-1.69-.59-.59-.884-1.317-.884-2.184 0-1.005.399-1.811 1.196-2.418.797-.624 1.855-.936 3.172-.936.849 0 1.621.182 2.314.546.711.364 1.257.867 1.638 1.508l-1.352.988c-.607-.901-1.473-1.352-2.6-1.352-.641 0-1.17.147-1.586.442-.399.295-.598.676-.598 1.144 0 .468.208.867.624 1.196.416.312 1.187.685 2.314 1.118 1.335.503 2.279 1.057 2.834 1.664.555.59.832 1.343.832 2.262 0 1.213-.433 2.184-1.3 2.912-.867.728-2.011 1.092-3.432 1.092z" fill="#39929E"/><rect x="88.5" y="15.5" width="11" height="11" rx=".5" fill="#EFEFEF" stroke="#C4C4C4"/><rect x="115.5" y="15.5" width="11" height="11" rx=".5" fill="#EFEFEF" stroke="#C4C4C4"/><rect x="101.5" y="15.5" width="11" height="11" rx=".5" fill="#EFEFEF" stroke="#8372E8"/><path d="M133.609 43.034l-5.636-6.04a1.235 1.235 0 00-.939-.393l-5.399.151 6.64 7.117 5.044-.142a.412.412 0 00.29-.693zm-6.536 6.098l-5.636-6.04a1.236 1.236 0 01-.326-.965l.524-5.375 6.64 7.117-.49 5.022a.412.412 0 01-.712.241z" fill="#8372E8"/><path d="M107.97 20.622l-.182.17.182-.17a1.012 1.012 0 00-1.431-.05h0a1.01 1.01 0 00-.05 1.431l24.577 26.341a1.013 1.013 0 001.432.05h0a1.012 1.012 0 00.049-1.431h0L107.97 20.622z" fill="#BFBFBF" stroke="#BFBFBF" stroke-width=".5"/></svg>