<svg width="32" height="32" fill="none" xmlns="http://www.w3.org/2000/svg"><path d="M8.187 28.113a1.935 1.935 0 01-1.955-1.954V5.841c0-1.094.86-1.954 1.955-1.954H20.22c.43 0 .82.157 1.094.47L25.3 8.342c.313.312.47.703.47 1.094v16.723c0 1.095-.86 1.954-1.955 1.954H8.187z" fill="#fff"/><path d="M20.22 4.278c.313 0 .626.118.82.352l3.986 3.986c.235.234.352.507.352.82v16.723c0 .86-.703 1.563-1.563 1.563H8.186c-.86 0-1.562-.703-1.562-1.563V5.841c0-.86.703-1.563 1.562-1.563h12.035zm0-.781H8.187A2.351 2.351 0 005.842 5.84v20.32a2.351 2.351 0 002.344 2.345h15.63a2.351 2.351 0 002.344-2.345V9.436c0-.508-.195-1.016-.586-1.368L21.59 4.083c-.391-.391-.86-.586-1.368-.586z" fill="#FF2116"/><path d="M20.796 14.77c-.136-.147-.361-.264-.655-.345a4.114 4.114 0 00-1.064-.125 7.58 7.58 0 00-.745.041 12.26 12.26 0 00-.818.116 7.859 7.859 0 01-.977-1.114 24.328 24.328 0 01-.317-.47 7.96 7.96 0 01-.288-.469c.146-.458.273-.908.364-1.325a5.57 5.57 0 00.144-1.135c0-.245-.04-.572-.17-.838-.133-.266-.357-.471-.728-.471a.602.602 0 00-.509.292c-.146.264-.19.703-.127 1.231.064.528.235 1.142.518 1.758-.099.293-.206.59-.324.901-.117.31-.244.633-.38.975a16.08 16.08 0 01-.802 1.66c-.8.322-1.46.659-1.931.989-.472.33-.754.651-.803.945a.533.533 0 00.014.278c.03.088.084.17.162.249.049.04.121.092.22.136a.878.878 0 00.366.078c.459 0 .947-.337 1.417-.848.469-.51.918-1.194 1.299-1.888a12.985 12.985 0 011.348-.41 14.46 14.46 0 011.447-.312c.556.508 1.079.786 1.526.938a3.29 3.29 0 001.072.176c.303 0 .495-.047.623-.122a.551.551 0 00.237-.288.683.683 0 00.016-.358.534.534 0 00-.135-.246zM15.19 9.024a.465.465 0 01.144-.159.343.343 0 01.188-.056c.136 0 .244.058.316.174.074.115.112.285.112.51 0 .234-.039.547-.112.912-.073.367-.18.787-.316 1.236-.273-.625-.411-1.186-.452-1.639-.041-.45.012-.792.12-.978zm-3.83 8.382c.05-.244.304-.523.718-.813.415-.291.992-.593 1.686-.886-.39.664-.782 1.2-1.133 1.572-.352.371-.665.576-.9.576a.347.347 0 01-.134-.027.573.573 0 01-.12-.07.415.415 0 01-.116-.352zm5.92-2.91a19.439 19.439 0 00-1.892.453 9.222 9.222 0 00-.568.19c.107-.206.21-.406.303-.601a6.87 6.87 0 00.244-.572c.087-.214.176-.434.261-.657a20 20 0 00.247-.672 9.07 9.07 0 00.953 1.361c.144.174.296.34.453.497zm.391.116a7.96 7.96 0 011.277-.134c.369-.007.666.017.852.057a.68.68 0 01.398.225c.085.107.12.244.09.4a.476.476 0 01-.3.356.95.95 0 01-.58.034 3.784 3.784 0 01-.956-.388 5.348 5.348 0 01-.781-.55z" fill="#FF2116"/><path d="M12.019 21.437v-.015l.005-.012a.016.016 0 01.01-.007 6.537 6.537 0 01.194-.01 10.705 10.705 0 01.435-.01h.241c.23 0 .427.03.593.088.166.058.303.141.41.244a.98.98 0 01.238.363c.05.138.076.29.076.451 0 .21-.038.39-.106.543a1 1 0 01-.29.375c-.123.098-.27.17-.431.216-.163.047-.34.07-.528.07l-.082-.001-.061-.002-.055-.003h-.06v1.275a.07.07 0 01-.002.017.025.025 0 01-.006.012.025.025 0 01-.012.006.071.071 0 01-.017.002h-.517a.073.073 0 01-.016-.002.025.025 0 01-.012-.006.025.025 0 01-.006-.012.08.08 0 01-.002-.017v-3.565zm.59 1.76l.055.002.058.001c.02 0 .042 0 .068.002h.086c.097 0 .192-.01.28-.03a.671.671 0 00.24-.105.507.507 0 00.166-.203.773.773 0 00.063-.324.753.753 0 00-.047-.276.512.512 0 00-.136-.198.599.599 0 00-.22-.12 1.007 1.007 0 00-.297-.04c-.033 0-.065 0-.096.002-.03 0-.06 0-.088.002-.028 0-.054.002-.076.003l-.056.004v1.28zm2.201-1.755c0-.007 0-.013.002-.017 0-.005.003-.009.005-.013a.034.034 0 01.012-.008.081.081 0 01.02-.006c.032 0 .078-.003.134-.005l.202-.005a15.635 15.635 0 01.522-.007c.277 0 .52.045.727.128.208.084.381.206.519.36.138.155.242.344.311.559.07.214.104.455.104.719 0 .365-.06.666-.162.913a1.576 1.576 0 01-.41.585 1.548 1.548 0 01-.547.312 1.844 1.844 0 01-.576.091h-.226a16.84 16.84 0 01-.452-.006c-.063 0-.116-.003-.152-.004a.035.035 0 01-.015-.003.027.027 0 01-.01-.009c-.004-.004-.005-.008-.007-.014a.1.1 0 01-.002-.018v-2.666l.002-.886zm.597 3.071l.068.004a15.104 15.104 0 00.137.006h.075c.153 0 .296-.026.424-.081a.907.907 0 00.338-.25c.095-.112.172-.253.224-.425.052-.17.082-.372.083-.604a1.843 1.843 0 00-.079-.58 1.01 1.01 0 00-.224-.389.872.872 0 00-.334-.22 1.18 1.18 0 00-.412-.068l-.082.001-.076.002-.072.004c-.023 0-.046.003-.07.004v2.596zm3.213.481a.103.103 0 01-.002.02.028.028 0 01-.006.014.043.043 0 01-.012.008.071.071 0 01-.017.002h-.52a.071.071 0 01-.017-.002.027.027 0 01-.012-.008.024.024 0 01-.006-.014.113.113 0 01-.003-.02v-3.562c0-.007.002-.013.003-.018a.025.025 0 01.006-.011.025.025 0 01.012-.007.071.071 0 01.017-.002h1.817l.02.002a.02.02 0 01.012.007.043.043 0 01.008.011l.004.017.014.116.014.115.014.115.014.115a.061.061 0 010 .02.028.028 0 01-.008.014.04.04 0 01-.015.008l-.021.002h-1.318v1.037h1.2l.012.006a.02.02 0 01.006.012.096.096 0 01.003.02v.461a.096.096 0 01-.003.02.02.02 0 01-.006.012.023.023 0 01-.012.005l-.017.001H18.62v1.113l.002.371z" fill="#2C2C2C"/></svg>