<?xml version="1.0" encoding="utf-8"?><svg xmlns="http://www.w3.org/2000/svg" xmlns:xlink="http://www.w3.org/1999/xlink"><symbol viewBox="0 0 18.031 31" id="arrow-mbl" xmlns="http://www.w3.org/2000/svg"><path data-name="Rounded Rectangle 1 copy 3" d="M4 .572L17.068 13.9c.751.767-.266 2.011-1.018 2.778a1.9 1.9 0 01-2.722 0L.261 3.346C-.49 2.579.527 1.336 1.279.569A1.9 1.9 0 014 .572zm.366 29.863l13.085-13.351a1.994 1.994 0 000-2.781 3.33 3.33 0 00-3.744 0L.622 27.653c-.753.768.265 2.014 1.018 2.782a1.9 1.9 0 002.727 0z" fill-rule="evenodd"/></symbol><symbol viewBox="0 0 21.97 22" id="cart" xmlns="http://www.w3.org/2000/svg"><path d="M9.09 22a3 3 0 113.03-3 3.018 3.018 0 01-3.03 3zm0-4a1 1 0 101.01 1 1 1 0 00-1.01-1zm6.06 4a3 3 0 113.03-3 3.018 3.018 0 01-3.03 3zm0-4a1 1 0 101.01 1 1 1 0 00-1.01-1zm3.21-2H5.93a2.021 2.021 0 01-2-1.716L2.28 2.87a1.011 1.011 0 00-1-.858h-.27a1 1 0 110-2h.27a3.032 3.032 0 013 2.574L5.93 14h12.43l1.61-7.993H8.08a1 1 0 110-2h11.89a2.042 2.042 0 011.57.732 1.986 1.986 0 01.41 1.659l-1.61 7.993A2.021 2.021 0 0118.36 16z" fill-rule="evenodd"/></symbol><symbol viewBox="0 0 32 32" id="close" xmlns="http://www.w3.org/2000/svg"><path d="M649 137.999h26v18h-14m-8 0h-4v-14M661 156l-8 6v-6" stroke-linecap="round" stroke-linejoin="round" stroke-miterlimit="10" stroke-width="2"/><path d="M11.312 12.766a.99.99 0 00.704.292.996.996 0 00.704-1.701L4.755 3.384a.995.995 0 10-1.408 1.409l7.965 7.973zm6.095 3.282L28.652 4.793a.996.996 0 000-1.409c-.389-.389-1.019-.561-1.408-.171L15.296 15H15v.345L3.2 27.303c-.389.389-.315 1.02.073 1.409.194.195.486.292.741.292s.528-.097.722-.292L15.99 17.458l11.249 11.255a.996.996 0 001.411 0 .996.996 0 00.001-1.409L17.407 16.048z"/></symbol><symbol viewBox="0 0 22 22" id="course" xmlns="http://www.w3.org/2000/svg"><path d="M10.989 21.916a1.947 1.947 0 01-.744-.148l-9-3.675a2.031 2.031 0 01-1.257-1.895V2.062A2.05 2.05 0 01.866.372 1.964 1.964 0 012.73.166l8.255 3.373L19.24.166a1.963 1.963 0 011.863.206 2.05 2.05 0 01.878 1.69V16.2a2.03 2.03 0 01-1.258 1.895l-9 3.676a1.947 1.947 0 01-.734.145zm-9-19.853V16.2l9 3.675 9-3.676V2.062l-8.256 3.373a1.944 1.944 0 01-1.485 0zm9 1.476zm0 18.454a1.009 1.009 0 01-1-1.021V4.638a1 1 0 112 0v16.334a1.009 1.009 0 01-1 1.021z" fill-rule="evenodd"/></symbol><symbol viewBox="0 0 17 19" id="duration" xmlns="http://www.w3.org/2000/svg"><path d="M8.5 19.01a8.641 8.641 0 118.51-8.64 8.583 8.583 0 01-8.51 8.64zm0-15.56a6.916 6.916 0 106.81 6.92A6.874 6.874 0 008.5 3.45zm-6.81 0a.816.816 0 01-.6-.25.857.857 0 010-1.22L2.79.25a.833.833 0 011.2 0 .857.857 0 010 1.22L2.29 3.2a.832.832 0 01-.6.25zm13.62 0a.855.855 0 01-.61-.25L13 1.47a.875.875 0 010-1.22.845.845 0 011.21 0l1.7 1.73a.875.875 0 010 1.22.849.849 0 01-.6.25zm-5.11 9.51a.857.857 0 01-.6-.25l-1.45-1.48a1.7 1.7 0 01-.5-1.22v-3.1a.85.85 0 111.7 0v3.1l1.45 1.47a.888.888 0 010 1.23.857.857 0 01-.6.25z" fill-rule="evenodd"/></symbol><symbol viewBox="0 0 18 22" id="files" xmlns="http://www.w3.org/2000/svg"><path d="M17 8h-5a2 2 0 01-2-2V1a1 1 0 112 0v5h5a1 1 0 010 2zm-1 14.008H2a2 2 0 01-2-2V2a2 2 0 012-2h10.411L18 5.588V20.01a2 2 0 01-2 2.001zM2 2v18.01h14V6.416L11.584 2H2z" fill-rule="evenodd"/></symbol><symbol viewBox="0 0 32 32" id="hamburger" xmlns="http://www.w3.org/2000/svg"><path d="M29 16a2 2 0 01-2 2H11a2 2 0 010-4h16a2 2 0 012 2zm0-10a2 2 0 01-2 2H11a2 2 0 010-4h16a2 2 0 012 2zm0 20a2 2 0 01-2 2H11a2 2 0 010-4h16a2 2 0 012 2zM3 6c0 1.103.897 2 2 2s2-.897 2-2-.897-2-2-2-2 .897-2 2zm0 10c0 1.103.897 2 2 2s2-.897 2-2-.897-2-2-2-2 .897-2 2zm0 10c0 1.103.897 2 2 2s2-.897 2-2-.897-2-2-2-2 .897-2 2z"/></symbol><symbol viewBox="0 0 21.031 22" id="home" xmlns="http://www.w3.org/2000/svg"><path d="M17.47 22h-3.976a2.015 2.015 0 01-1.987-2.039V16.9a.994.994 0 10-1.988 0v3.058A2.015 2.015 0 017.531 22H3.556a2.015 2.015 0 01-1.987-2.039v-6.714l-.994-1.019a2.078 2.078 0 010-2.883L9.108.592a1.953 1.953 0 012.81 0l8.533 8.753a2.079 2.079 0 010 2.882l-.994 1.02v6.714A2.015 2.015 0 0117.47 22zm-6.957-8.155a3.023 3.023 0 012.981 3.058v3.058h3.976v-6.714a2.049 2.049 0 01.582-1.442l.994-1.019-8.533-8.752-8.533 8.752.994 1.02a2.053 2.053 0 01.582 1.441v6.714h3.975V16.9a3.024 3.024 0 012.982-3.06z" fill-rule="evenodd"/></symbol><symbol viewBox="0 0 26 17" id="icon_email" xmlns="http://www.w3.org/2000/svg"><path d="M.867 1.59l10.829 5.9a3.059 3.059 0 002.617 0l10.829-5.9c.706-.385 1.373-1.591.077-1.591H.79C-.5 0 .161 1.205.867 1.59zm24.574 2.931l-11.128 5.9a3.059 3.059 0 01-2.617 0c-.49-.26-10.326-5.48-11.128-5.9-.564-.3-.559.051-.559.321v10.751A1.7 1.7 0 001.441 17h23.127A1.7 1.7 0 0026 15.593V4.842c0-.27.005-.62-.559-.321z" fill-rule="evenodd"/></symbol><symbol viewBox="0 0 22 22" id="jobs" xmlns="http://www.w3.org/2000/svg"><path d="M18.01 18.006H3.99a4.011 4.011 0 01-4.01-4V4a4.011 4.011 0 014.01-4h14.02a4.009 4.009 0 014 4v10a4.009 4.009 0 01-4 4.006zM3.99 2a2 2 0 00-2 2v10a2 2 0 002 2h14.02a2 2 0 002-2V4a2 2 0 00-2-2H3.99zM15 22.009H6.99a1 1 0 010-2H15a1 1 0 010 2zm-4 0a1 1 0 01-1-1v-4a1 1 0 112 0v4a1 1 0 01-1 1zm10.01-8H.99a1 1 0 110-2h20.02a1 1 0 010 1.991z" fill-rule="evenodd"/></symbol><symbol viewBox="0 0 18 22" id="log-in" xmlns="http://www.w3.org/2000/svg"><path d="M6 22.012a2.033 2.033 0 01-1.18-.377 2.007 2.007 0 01-.83-1.624v-13.9a2 2 0 011.37-1.9L17.99 0v16.676a2 2 0 01-1.37 1.9l-9.99 3.335a2 2 0 01-.63.101zm9.99-19.236l-10 3.335v13.9l10-3.335v-13.9zm-15 15.621a1 1 0 01-1-1V2.389a2 2 0 012-2h14.83a1 1 0 010 2H1.99V17.4a1 1 0 01-1 1zm8-3a1 1 0 01-1-1v-3a1 1 0 112 0v3a1 1 0 01-1 1.003z" fill-rule="evenodd"/></symbol><symbol viewBox="0 0 22 22" id="question" xmlns="http://www.w3.org/2000/svg"><path d="M11.01 15a1 1 0 01-1-1v-1.17a2.963 2.963 0 01.88-2.12l1.83-1.827a1.029 1.029 0 00.29-.707v-.17a2 2 0 00-4 0 1 1 0 01-2 0 4 4 0 018 0v.171a2.965 2.965 0 01-.88 2.12l-1.83 1.826a.986.986 0 00-.29.707V14a1 1 0 01-1 1zm0 6.994a10.991 10.991 0 1111-10.991 11.011 11.011 0 01-11 10.991zm0-19.983a8.992 8.992 0 109 8.992 9.008 9.008 0 00-9-8.992zm1 14.987a1 1 0 11-1-1 1 1 0 011 1.002z" fill-rule="evenodd"/></symbol><symbol viewBox="0 0 9 18" id="question-2" xmlns="http://www.w3.org/2000/svg"><path d="M4.538 0A4.666 4.666 0 00-.003 4.74a1.4 1.4 0 102.8 0A1.789 1.789 0 014.54 2.92a1.771 1.771 0 011.706 1.82 3.151 3.151 0 01-1.093 2.22 6.34 6.34 0 00-2.05 4.72 1.435 1.435 0 001.418 1.48 1.415 1.415 0 001.38-1.48 3.581 3.581 0 011.264-2.74 5.869 5.869 0 001.84-4.22A4.574 4.574 0 004.54 0zm0 14.48a1.761 1.761 0 000 3.52 1.762 1.762 0 000-3.52z" fill-rule="evenodd"/></symbol><symbol viewBox="0 0 19 19.03" id="rating" xmlns="http://www.w3.org/2000/svg"><path d="M4.38 19.01a1.7 1.7 0 01-1.01-.33 1.758 1.758 0 01-.71-1.81l1.05-4.73L.5 8.92a1.753 1.753 0 011.02-2.98l4.19-.52L7.93.97a1.756 1.756 0 013.14 0l2.22 4.45 4.19.52a1.753 1.753 0 011.02 2.98l-3.22 3.22 1.05 4.73a1.756 1.756 0 01-2.64 1.87L9.5 16.12l-4.19 2.62a1.758 1.758 0 01-.93.27zm5.12-4.96l5.12 3.2-1.26-5.67 3.9-3.9-5.12-.64L9.5 1.75 6.86 7.04l-5.12.64 3.9 3.9-1.26 5.67z" fill-rule="evenodd"/></symbol><symbol viewBox="0 0 22 22" id="request" xmlns="http://www.w3.org/2000/svg"><path d="M16.3 22.011H4.08a4.077 4.077 0 01-4.07-4.083V5.677a4.078 4.078 0 014.07-4.084h5.09a1.021 1.021 0 010 2.042H4.08a2.046 2.046 0 00-2.04 2.042v12.251a2.046 2.046 0 002.04 2.042H16.3a2.04 2.04 0 002.04-2.042v-5.1a1.02 1.02 0 112.04 0v5.1a4.086 4.086 0 01-4.08 4.083zm-4.49-7.146H7.14v-4.682a2.044 2.044 0 01.59-1.443L15.88.573a2.033 2.033 0 012.88 0l2.64 2.639a2.056 2.056 0 010 2.888l-8.15 8.167a2.035 2.035 0 01-1.44.598zm-2.64-2.042h2.64l8.15-8.167-2.64-2.64-8.15 8.167-.72-.721.72.721v2.64zm-2.03 3.063a1.021 1.021 0 01-.72-1.743l1.2-1.2a1.02 1.02 0 011.44 1.443l-1.2 1.2a1.018 1.018 0 01-.72.3zm11.2-7.146a1.018 1.018 0 01-.72-.3l-4.07-4.084a1.02 1.02 0 111.44-1.443l4.07 4.083a1.021 1.021 0 01-.72 1.744z" fill-rule="evenodd"/></symbol><symbol viewBox="0 0 41.6 41.594" id="scale" xmlns="http://www.w3.org/2000/svg"><path d="M40.82 37.103a2.625 2.625 0 01-3.69 3.735.146.146 0 01-.04-.037l-4.5-4.5c-.78-.776-1.55-1.553-2.33-2.33a17.95 17.95 0 01-1.77 1.2 20.376 20.376 0 01-3.37 1.552 15.984 15.984 0 01-2.92.76 18.5 18.5 0 01-7.23-.111 16.07 16.07 0 01-2.9-.871 19.467 19.467 0 01-3.3-1.647 19.681 19.681 0 01-2.96-2.325 20.226 20.226 0 01-2.47-2.9 17 17 0 01-1.54-2.678 21.162 21.162 0 01-1.25-3.46 18.646 18.646 0 01-.45-6.613 19.646 19.646 0 01.72-3.562 18.967 18.967 0 011.41-3.379 19.393 19.393 0 012.08-3.085 16.388 16.388 0 012.24-2.291A18.57 18.57 0 0112.99.912a16.36 16.36 0 012.94-.694 18.495 18.495 0 017.23.241 19.861 19.861 0 013.45 1.171 18.358 18.358 0 015.63 3.867 18.589 18.589 0 013.58 4.972 20.193 20.193 0 011.31 3.442 19.987 19.987 0 01.6 3.6 15.836 15.836 0 01-.02 3 19.7 19.7 0 01-.65 3.573 19.138 19.138 0 01-3.09 6.154c.93.937 1.87 1.874 2.81 2.812 1.35 1.361 2.69 2.707 4.04 4.053zm-8.39-19.978a16.5 16.5 0 00-.95-3.517 16.232 16.232 0 00-1.81-3.1c-.36-.437-.72-.868-1.12-1.268A13.647 13.647 0 008 10.646a13.719 13.719 0 00-2.64 6.368 16.961 16.961 0 00-.01 3.632 16.457 16.457 0 00.94 3.517 13.78 13.78 0 004.36 5.613 13.547 13.547 0 006.37 2.634 13.665 13.665 0 007.14-.928 16.173 16.173 0 003.09-1.807 16.911 16.911 0 002.53-2.552 17.346 17.346 0 001.7-2.952 13.816 13.816 0 00.95-7.046zm-7.02 4.425H21.5v3.956a2.63 2.63 0 01-5.26-.038V21.55h-3.95a2.628 2.628 0 01.03-5.255h3.92v-3.956a2.63 2.63 0 015.26.038v3.918h3.95a2.628 2.628 0 11-.04 5.255z" fill-rule="evenodd"/></symbol><symbol viewBox="0 0 56.966 56.966" id="search" xmlns="http://www.w3.org/2000/svg"><path d="M55.146 51.887L41.588 37.786A22.926 22.926 0 0046.984 23c0-12.682-10.318-23-23-23s-23 10.318-23 23 10.318 23 23 23c4.761 0 9.298-1.436 13.177-4.162l13.661 14.208c.571.593 1.339.92 2.162.92.779 0 1.518-.297 2.079-.837a3.004 3.004 0 00.083-4.242zM23.984 6c9.374 0 17 7.626 17 17s-7.626 17-17 17-17-7.626-17-17 7.626-17 17-17z"/></symbol><symbol viewBox="0 0 18 22" id="sign-up" xmlns="http://www.w3.org/2000/svg"><path d="M16.98 22.011a.993.993 0 01-.99-1v-.56a1 1 0 00-.69-.949l-3.26-1.088a2.993 2.993 0 01-2.05-2.848v-.115a1.968 1.968 0 01.99-1.727 6.361 6.361 0 002.43-3.134l.2-.511.55-.1a1 1 0 00.83-.981.986.986 0 00-.51-.859l-.49-.29V5a3.007 3.007 0 00-3-3h-4a1 1 0 00-1 1v1h-1a1 1 0 00-1 1v2.854l-.5.29a.992.992 0 00.33 1.84l.54.1.21.511a6.327 6.327 0 002.42 3.13 1.956 1.956 0 011 1.728v.117a3.006 3.006 0 01-2.05 2.848l-3.27 1.088a.994.994 0 00-.68.949v.555a1 1 0 11-2 0v-.559a2.993 2.993 0 012.05-2.848l3.26-1.089a1 1 0 00.69-.949v-.116a7.936 7.936 0 01-3.08-3.647 2.992 2.992 0 01-.92-5.025V5a3.009 3.009 0 012.13-2.873 3 3 0 012.87-2.13h4a5.011 5.011 0 015 5v1.776a3 3 0 01-.93 5.025 7.958 7.958 0 01-3.11 3.674l.04.089a.994.994 0 00.68.949l3.26 1.089a2.993 2.993 0 012.05 2.848v.563a1 1 0 01-1 1.001z" fill-rule="evenodd"/></symbol><symbol viewBox="0 0 20 20" id="simulator" xmlns="http://www.w3.org/2000/svg"><path d="M3.005 6a3 3 0 113-3 3 3 0 01-3 3zm0-4a1 1 0 101 1 1 1 0 00-1-1zm0 11.007a3 3 0 113-3 3 3 0 01-3 2.993zm0-4a1 1 0 101 1 1 1 0 00-1-1.007zm0 11.008a3 3 0 113-3 3 3 0 01-3 2.995zm0-4a1 1 0 101 1 1 1 0 00-1-1.008zM19 4H9a1 1 0 010-2h10a1 1 0 010 2zm0 7H9a1 1 0 010-2h10a1 1 0 010 2zm0 7.005H9a1 1 0 010-2h10a1.002 1.002 0 010 2.003z" fill-rule="evenodd"/></symbol><symbol viewBox="0 0 21.22 25.782" id="slider-arrow" xmlns="http://www.w3.org/2000/svg"><path d="M.01 24.556c-.04 1.057.5 1.441 1.33 1.1a4.207 4.207 0 00.62-.335q9.045-5.483 18.07-10.969c1.55-.944 1.56-1.955.01-2.894Q11.625 6.342 3.19 1.225C2.6.865 2.02.478 1.4.174a.888.888 0 00-1.39.958 3.752 3.752 0 00.06.47c.45 2.575.89 5.155 1.37 7.725a17.36 17.36 0 01.2 5.926c-.29 1.852-.64 3.693-.97 5.539-.23 1.302-.46 2.609-.66 3.764z" fill-rule="evenodd"/></symbol><symbol viewBox="0 0 21.22 25.782" id="slider-arrow-next" xmlns="http://www.w3.org/2000/svg"><path d="M.01 24.556c-.04 1.057.5 1.441 1.33 1.1a4.207 4.207 0 00.62-.335q9.045-5.483 18.07-10.969c1.55-.944 1.56-1.955.01-2.894Q11.625 6.342 3.19 1.225C2.6.865 2.02.478 1.4.174a.888.888 0 00-1.39.958 3.752 3.752 0 00.06.47c.45 2.575.89 5.155 1.37 7.725a17.36 17.36 0 01.2 5.926c-.29 1.852-.64 3.693-.97 5.539-.23 1.302-.46 2.609-.66 3.764z" fill-rule="evenodd"/></symbol><symbol viewBox="0 0 21.188 25.782" id="slider-arrow-prev" xmlns="http://www.w3.org/2000/svg"><path d="M21.174 24.556c.039 1.057-.5 1.441-1.331 1.1a4.509 4.509 0 01-.623-.335q-9.033-5.483-18.063-10.969c-1.555-.944-1.56-1.955-.014-2.894L17.994 1.225c.593-.36 1.173-.747 1.793-1.051a.885.885 0 011.386.958 4.4 4.4 0 01-.057.47c-.454 2.575-.887 5.155-1.372 7.725a17.261 17.261 0 00-.2 5.926c.291 1.852.648 3.693.974 5.539.228 1.302.454 2.609.656 3.764z" fill-rule="evenodd"/></symbol><symbol viewBox="0 0 23 19" id="student" xmlns="http://www.w3.org/2000/svg"><path d="M20.7 18.96h-3.16a.976.976 0 010-1.95h3.16a.429.429 0 00.42-.47l-.11-1.68a.825.825 0 00-.3-.57 4.868 4.868 0 00-1.11-.59l-.04-.01a2.352 2.352 0 01-1.47-2.19 2.412 2.412 0 01.33-1.21 3.494 3.494 0 00.4-1.79 1.4 1.4 0 00-.66-1.33 1.853 1.853 0 00-.82-.22h-.04a1.854 1.854 0 00-.83.22 1.4 1.4 0 00-.66 1.33 4.071 4.071 0 00.05.72.981.981 0 01-.79 1.12.952.952 0 01-1.07-.82 6.539 6.539 0 01-.07-1.02 3.363 3.363 0 011.64-3.04A3.526 3.526 0 0117.3 5h.04a3.5 3.5 0 011.72.46A3.363 3.363 0 0120.7 8.5a5.433 5.433 0 01-.61 2.68.585.585 0 00-.12.32.4.4 0 00.32.39 6.489 6.489 0 011.54.84 2.773 2.773 0 011.05 1.99l.11 1.68a2.4 2.4 0 01-.61 1.8 2.242 2.242 0 01-1.68.76zM7.71 2.02a2.37 2.37 0 012.45 2.56c0 2.58-1.03 2.67-1.03 4.23a2.928 2.928 0 001.88 2.77 6.823 6.823 0 011.67.89 1.457 1.457 0 01.56 1.07l.17 2.38a.977.977 0 01-.95 1.06H2.9a.971.971 0 01-.95-1.06l.16-2.38a1.492 1.492 0 01.56-1.07 7.144 7.144 0 011.68-.89 2.928 2.928 0 001.88-2.77c0-1.56-1.04-1.65-1.04-4.23a2.376 2.376 0 012.46-2.56h.06m0-2.02h-.06a4.748 4.748 0 00-2.27.6 4.073 4.073 0 00-1.51 1.49 4.919 4.919 0 00-.62 2.49 7.3 7.3 0 00.83 3.62 1.157 1.157 0 01.21.61.936.936 0 01-.68.9 8.872 8.872 0 00-2.1 1.14 3.527 3.527 0 00-1.34 2.54l-.16 2.38a3.076 3.076 0 00.77 2.27A2.847 2.847 0 002.9 19h9.56a2.864 2.864 0 002.12-.96 3.076 3.076 0 00.77-2.27l-.17-2.38a3.527 3.527 0 00-1.34-2.54 8.677 8.677 0 00-2.1-1.14.926.926 0 01-.67-.9 1.157 1.157 0 01.21-.61 7.3 7.3 0 00.83-3.62 4.825 4.825 0 00-.63-2.49A3.974 3.974 0 009.98.6 4.773 4.773 0 007.71 0z" fill-rule="evenodd"/></symbol><symbol viewBox="0 0 22 22" id="upload" xmlns="http://www.w3.org/2000/svg"><path d="M15.99 16a1 1 0 110-2 3.984 3.984 0 00.54-7.934l-.62-.084-.19-.584a5 5 0 00-9.73 1.608v1h-1a3 3 0 100 6 1 1 0 110 2 5 5 0 01-.94-9.9 6.994 6.994 0 0113.34-1.9A5.981 5.981 0 0115.99 16zm-2-3a1.006 1.006 0 01-.71-.293l-2.29-2.291-2.29 2.291a1.002 1.002 0 11-1.42-1.413l2.29-2.291a2.006 2.006 0 012.83 0l2.29 2.291a1 1 0 01-.7 1.706zm-3 8.992a1 1 0 01-1-1V11a1 1 0 012 0v10a1 1 0 01-1 1z" fill-rule="evenodd"/></symbol></svg>